<?xml version="1.0" encoding="utf-8"?>
<!-- Generator: Adobe Illustrator 16.0.0, SVG Export Plug-In . SVG Version: 6.00 Build 0)  -->
<!DOCTYPE svg PUBLIC "-//W3C//DTD SVG 1.1//EN" "http://www.w3.org/Graphics/SVG/1.1/DTD/svg11.dtd">
<svg version="1.1" id="Layer_1" xmlns="http://www.w3.org/2000/svg" xmlns:xlink="http://www.w3.org/1999/xlink" x="0px" y="0px"
	 width="592.961px" height="600.459px" viewBox="0 0 592.961 600.459" enable-background="new 0 0 592.961 600.459"
	 xml:space="preserve">
<g opacity="0.1">
	<path fill-rule="evenodd" clip-rule="evenodd" fill="#474A4E" d="M557.715,3477.025c-22.315,0.065-44.631,0.111-66.946,0.221
		c-2.932,0.014-5.322,0.082-5.405-4.047c-0.086-4.239,1.994-4.795,5.512-4.775c19.59,0.11,39.189,0.395,58.764-0.127
		c7.177-0.191,9.395,2.141,8.021,8.778l0.294,0.27L557.715,3477.025z"/>
	<path fill-rule="evenodd" clip-rule="evenodd" fill="#424143" d="M557.917,3528.447c0.007,2.308,0.014,4.616,0.021,6.925
		c-13.352,1.903-26.776,0.45-40.161,0.84c-9.441,0.275-18.897,0.003-28.344,0.166c-2.964,0.053-3.954-1.09-3.95-3.913
		c0.005-2.781,0.238-4.822,3.88-4.76C512.212,3528.104,535.077,3527.039,557.917,3528.447z"/>
	<path fill-rule="evenodd" clip-rule="evenodd" fill="#484B4E" d="M514.826,3553.287c1.873,6.15,0.354,9.504-6.822,8.657
		c-2.161-0.255-4.409,0.213-6.617,0.35c-3.677-0.149-7.36-0.504-11.028-0.389c-3.307,0.104-4.935-0.733-5.012-4.454
		c-0.083-4.001,2.057-4.334,5.101-4.294C498.572,3553.263,506.699,3553.251,514.826,3553.287z"/>
	<path fill-rule="evenodd" clip-rule="evenodd" fill="#484D51" d="M500.622,3498.308c-3.451,0.003-6.913-0.159-10.351,0.049
		c-3.419,0.207-4.864-0.972-4.937-4.56c-0.083-4.065,2.185-4.211,5.209-4.158c6.653,0.115,13.312,0.128,19.967,0.003
		c3.253-0.062,5.021,0.726,4.99,4.506c-0.031,3.998-2.279,4.264-5.266,4.178C507.033,3498.234,503.827,3498.305,500.622,3498.308z"
		/>
	<path fill-rule="evenodd" clip-rule="evenodd" fill="#444344" d="M693.715,3372.251c-0.148,6.447-0.162,12.901-0.495,19.339
		c-0.208,4.037,1.58,5.053,5.313,4.987c10.443-0.186,20.897,0.163,31.332-0.166c4.702-0.148,6.032,1.436,5.764,5.959
		c-0.367,6.195-0.283,12.438-0.025,18.645c0.164,3.9-1.221,5.231-5.105,5.16c-10.443-0.189-20.903,0.236-31.331-0.184
		c-5.345-0.215-5.928,2.119-6.042,6.56c-0.128,4.86,1.348,6.444,6.28,6.298c6.147-0.186,14.175-2.746,18.023,0.974
		c4.222,4.081,1.328,12.248,1.384,18.612c0.106,11.74,1.579,10.099-10.297,10.17c-15.252,0.092-15.253,0.023-15.253,15.085
		c0.001,6.964,0.251,13.938-0.082,20.887c-0.228,4.735,1.144,7.087,6.171,6.292c5.135-0.813,7.466,1.217,6.562,6.507
		c-0.041,0.242,0.023,0.5-0.01,0.745c-1.704,12.755,1.475,21.545,13.356,30.018c23.798,16.973,30.937,49.637,20.115,76.563
		c-11.247,27.986-38.005,44.611-68.574,42.604c-28.513-1.872-53.406-22.848-60.323-50.833c-7.153-28.935,4.769-58.793,30.126-74.213
		c4.415-2.687,6.621-5.403,5.955-10.524c-0.317-2.445-0.054-4.967-0.054-7.453c-0.001-12.426-0.001-12.426,11.565-14.083
		c1.402-2.568,0.707-5.351,0.711-8.023c0.05-40.887,0.021-81.772,0.067-122.659c0.003-2.68-0.635-5.455,0.653-8.047l0.067-0.07
		c10.905-1.482,21.853-0.404,32.781-0.57C693.413,3370.81,693.318,3371.725,693.715,3372.251z"/>
	<path fill-rule="evenodd" clip-rule="evenodd" fill="#434243" d="M1624.121,3773.218c1.158,1.508,3.171,4.031,5.076,6.631
		c3.096,4.226,6.047,4.326,9.26,0.056c1.334-1.771,3.258-3.084,4.685-4.797c1.991-2.39,3.648-1.942,5.423,0.174
		c0.796,0.948,1.746,1.77,2.627,2.648c51.353,51.353,102.625,102.786,154.188,153.929c4.828,4.789,4.372,7.04-0.187,11.398
		c-13.838,13.229-27.388,26.781-40.616,40.623c-4.074,4.263-6.093,3.535-9.845-0.235
		c-51.584-51.825-103.291-103.528-155.116-155.114c-3.709-3.693-4.753-5.779-0.305-9.8c7.526-6.799,7.417-7.321-0.32-14.718
		c-3.487-3.333-3.77-5.347-0.067-8.718c6.614-6.021,12.717-12.601,19.088-18.892
		C1619.196,3775.235,1620.089,3773.568,1624.121,3773.218z"/>
	<path fill-rule="evenodd" clip-rule="evenodd" fill="#424244" d="M2190.199,3492.688c0.007,2.938-2.136,4.458-3.891,6.139
		c-2.931,2.806-5.211,4.979-2.938,10.043c2.236,4.987,4.793,6.908,9.945,6.235c5.678-0.742,8.23,1.638,7.881,7.612
		c-0.362,6.189-0.339,12.435,0.017,18.626c0.341,5.946-2.161,8.265-7.888,7.64c-4.493-0.491-7.352,0.456-9.686,5.41
		c-2.641,5.6-0.396,8.253,3.183,11.268c4.062,3.419,4.464,6.627,0.2,10.429c-4.629,4.128-9.056,8.533-13.172,13.171
		c-4.039,4.554-7.664,5.099-11.547,0.118c-2.874-3.688-5.727-4.887-10.708-2.794c-4.929,2.071-6.286,4.843-5.647,9.544
		c0.854,6.284-2.08,8.463-8.161,8.088c-5.94-0.365-11.938-0.348-17.882-0.004c-5.832,0.338-8.46-1.951-7.749-7.77
		c0.612-4.994-0.846-7.835-6.063-10.049c-5.347-2.27-7.853-0.005-10.59,3.31c-3.842,4.653-7.215,4.008-11.01-0.195
		c-3.99-4.421-8.226-8.654-12.653-12.638c-4.431-3.984-5.218-7.629-0.201-11.603c3.594-2.845,5-5.6,2.913-10.715
		c-2.084-5.11-4.994-6.142-9.546-5.554c-6.357,0.821-8.408-2.175-8.064-8.188c0.34-5.943,0.321-11.935,0.006-17.883
		c-0.303-5.71,1.743-8.448,7.692-7.88c4.339,0.414,7.559-0.052,9.816-5.259c2.356-5.435,0.675-8.273-3.063-11.336
		c-4.104-3.363-4.452-6.689-0.303-10.508c4.75-4.369,9.313-8.965,13.705-13.697c3.655-3.939,6.989-4.354,10.535-0.076
		c3.017,3.641,5.731,5.584,11.305,3.305c5.696-2.329,5.884-5.855,5.49-10.422c-0.491-5.718,2.412-7.398,7.637-7.195
		c6.203,0.24,12.434,0.297,18.631-0.009c5.898-0.29,8.276,2.163,7.574,7.936c-0.548,4.501,0.266,7.622,5.432,9.636
		c4.898,1.908,7.852,1.132,10.808-2.689c3.78-4.889,7.486-4.642,11.592-0.035c4.125,4.632,8.727,8.838,13.113,13.236
		C2188.31,3489.337,2189.851,3490.648,2190.199,3492.688z"/>
	<path fill-rule="evenodd" clip-rule="evenodd" fill="#424243" d="M1065.812,3497.962c0.036,32.881-26.062,59.357-58.815,59.669
		c-32.804,0.311-59.593-26.524-59.574-59.677c0.018-32.722,26.66-59.381,59.203-59.241
		C1039.472,3438.855,1065.777,3465.188,1065.812,3497.962z"/>
	<path fill-rule="evenodd" clip-rule="evenodd" fill="#424243" d="M1998.229,3820.188c44.79,0.257,80.354,36.243,80.041,80.989
		c-0.311,44.566-36.544,80.117-81.338,79.813c-44.21-0.3-79.727-36.319-79.612-80.737
		C1917.433,3855.525,1953.403,3819.931,1998.229,3820.188z"/>
	<path fill-rule="evenodd" clip-rule="evenodd" fill="#424243" d="M2372.866,3697.38c-0.195,6.017-4.784,13.659-13.644,18.211
		c-9.148,4.7-18.592,4.188-26.646-2.248c-4.145-3.313-7.081-3.481-10.879-0.434c-0.957,0.767-2.134,1.26-3.208,1.883
		c-12.829,7.441-13.766,9.294-12.455,23.498c0.166,1.811,1.125,2.587,2.437,3.345c5.372,3.106,10.879,6.011,16.064,9.405
		c3.695,2.42,5.273-0.416,7.575-2.107c10.303-7.578,24.558-6.576,33.456,2.26c8.75,8.691,9.965,22.79,2.826,32.794
		c-7.289,10.214-21.442,13.641-32.601,7.89c-9.291-4.788-15.323-15.566-13.269-26.122c0.95-4.886-0.595-6.798-4.348-8.526
		c-1.797-0.826-3.506-1.874-5.172-2.951c-6.431-4.158-11.607-7.427-19.942-1.045c-9.788,7.494-24.286,3.179-31.808-6.702
		c-7.45-9.79-6.686-23.901,1.781-32.871c8.77-9.29,23.078-11.185,33.115-3.119c4.82,3.874,7.945,3.197,12.084,0.177
		c1.793-1.309,3.776-2.447,5.824-3.303c6.471-2.708,9.277-6.215,8.457-14.371c-1.412-14.049,11.117-25.697,25.178-25.555
		C2361.96,3667.634,2373.032,3678.973,2372.866,3697.38z"/>
	<path fill-rule="evenodd" clip-rule="evenodd" fill="#424143" d="M744.65,3813.949c-1.39,4.117-5.806,6.476-8.807,9.995
		c-3.836,4.498-7.488,7.949-13.257,1.747c-2.731-2.938-8.086-0.001-8.063,4.485c0.029,5.989-3.013,7.147-7.993,6.838
		c-3.218-0.198-6.468-0.184-9.686,0.005c-4.922,0.289-7.997-0.706-8.013-6.78c-0.013-5.149-5.442-7.373-9.17-3.794
		c-4.21,4.045-7.226,3.093-10.581-0.713c-1.969-2.23-4.081-4.365-6.322-6.322c-4.166-3.636-5.824-6.956-1.003-11.704
		c3.306-3.258,0.895-8.786-3.879-8.755c-6.404,0.042-7.555-3.197-7.228-8.436c0.187-2.971,0.216-5.976,0-8.941
		c-0.394-5.422,1.274-8.297,7.396-8.424c4.744-0.098,6.8-5.362,3.448-8.729c-4.493-4.514-2.873-7.71,1.004-11.17
		c2.221-1.982,4.375-4.075,6.315-6.328c3.528-4.098,6.719-5.088,11.157-0.786c3.358,3.256,8.893,0.93,8.835-3.733
		c-0.08-6.486,3.272-7.465,8.465-7.121c2.969,0.196,5.974,0.217,8.939-0.005c5.386-0.4,8.337,1.083,8.353,7.333
		c0.012,4.739,5.362,6.749,8.941,3.334c4.188-3.994,7.197-3.168,10.59,0.654c2.306,2.598,4.776,5.072,7.361,7.391
		c3.557,3.19,4.436,5.993,0.653,9.963c-3.714,3.899-1.813,8.976,3.486,9.222c5.794,0.267,7.239,2.99,6.85,8.079
		c-0.245,3.21-0.128,6.459-0.026,9.686c0.137,4.288,0.009,7.734-5.965,7.979c-6.279,0.254-7.97,4.875-4.096,9.871
		C743.42,3810.163,744.809,3811.285,744.65,3813.949z"/>
	<path fill-rule="evenodd" clip-rule="evenodd" fill="#454648" d="M2348.22,3887.786c23.612,0,47.226-0.032,70.838,0.042
		c2.861,0.009,6.631-1.468,6.628,4.139c-0.003,5.344-3.407,4.474-6.535,4.475c-47.97,0.017-95.94,0.021-143.911-0.001
		c-3.072-0.002-6.586,1.011-6.664-4.348c-0.08-5.521,3.584-4.276,6.57-4.28C2299.504,3887.768,2323.863,3887.787,2348.22,3887.786z"
		/>
	<path fill-rule="evenodd" clip-rule="evenodd" fill="#464649" d="M877.452,3820.033c-19.646,0-39.292,0.051-58.939-0.056
		c-2.839-0.017-6.704,1.521-6.913-4.027c-0.204-5.471,3.399-4.396,6.432-4.398c39.542-0.029,79.083-0.036,118.625,0.015
		c2.921,0.004,6.672-1.328,6.537,4.254c-0.134,5.501-3.891,4.157-6.802,4.169C916.746,3820.073,897.099,3820.034,877.452,3820.033z"
		/>
	<path fill-rule="evenodd" clip-rule="evenodd" fill="#414043" d="M2347.219,3955.615c-23.619,0.001-47.237,0.075-70.854-0.095
		c-2.867-0.021-7.43,2.273-7.691-3.889c-0.264-6.203,4.223-4.313,7.213-4.318c47.734-0.086,95.469-0.085,143.202,0.013
		c2.487,0.005,6.192-1.76,6.536,3.451c0.336,5.045-2.604,4.869-6.059,4.862C2395.451,3955.588,2371.335,3955.612,2347.219,3955.615z
		"/>
	<path fill-rule="evenodd" clip-rule="evenodd" fill="#424244" d="M2251.5,3909.191c0,6.647,2.59,15.426-0.672,19.387
		c-3.857,4.683-12.972,1.164-19.791,1.535c-5.436,0.294-10.912-0.159-16.35,0.123c-3.99,0.206-5.067-1.323-4.99-5.148
		c0.219-10.9,0.194-21.81,0.006-32.711c-0.063-3.582,1.158-4.691,4.686-4.635c11.15,0.182,22.305,0.154,33.455,0.02
		c3.246-0.04,4.355,1.133,4.252,4.328c-0.187,5.694-0.053,11.398-0.053,17.1C2251.861,3909.189,2251.68,3909.191,2251.5,3909.191z"
		/>
	<path fill-rule="evenodd" clip-rule="evenodd" fill="#424244" d="M2232.378,3947.243c5.627,0.86,14.725-3.147,18.617,1.659
		c3.308,4.085,0.953,12.783,1.034,19.441c0.062,4.953-0.358,9.943,0.114,14.852c0.525,5.478-1.762,6.627-6.744,6.451
		c-9.896-0.349-19.816-0.293-29.717-0.014c-4.313,0.123-6.188-0.738-6.012-5.615c0.373-10.391,0.357-20.813-0.025-31.201
		c-0.178-4.828,1.61-5.93,5.977-5.651C2220.802,3947.497,2226.021,3947.243,2232.378,3947.243z"/>
	<path fill-rule="evenodd" clip-rule="evenodd" fill="#414142" d="M878.221,3790.47c19.618,0.001,39.237-0.022,58.854,0.028
		c2.754,0.008,6.072-1.045,6.087,3.986c0.017,4.794-2.937,4.276-5.92,4.276c-39.981-0.002-79.963-0.015-119.944,0.021
		c-3.212,0.003-5.751,0.071-5.665-4.521c0.086-4.487,2.873-3.781,5.499-3.784C837.496,3790.458,857.858,3790.466,878.221,3790.47z"
		/>
	<path fill-rule="evenodd" clip-rule="evenodd" fill="#414042" d="M2304.326,3917.499c-10.168,0.001-20.333-0.056-30.498,0.034
		c-3.066,0.028-5.195-0.227-5.227-4.242c-0.032-3.983,2.011-4.356,5.124-4.346c20.827,0.063,41.655,0.084,62.481-0.011
		c3.4-0.016,4.961,0.925,4.854,4.626c-0.102,3.496-1.883,3.992-4.75,3.971C2325.648,3917.447,2314.986,3917.497,2304.326,3917.499z"
		/>
	<path fill-rule="evenodd" clip-rule="evenodd" fill="#444446" d="M846.124,3832.626c8.931,0.002,17.862-0.069,26.791,0.045
		c2.887,0.036,6.57-1.383,6.659,4.158c0.083,5.171-2.95,4.688-6.26,4.683c-18.605-0.029-37.21-0.02-55.815-0.006
		c-3.008,0.001-5.791,0.478-5.917-4.267c-0.14-5.261,3.024-4.631,6.262-4.624C827.271,3832.636,836.697,3832.623,846.124,3832.626z"
		/>
	<path fill-rule="evenodd" clip-rule="evenodd" fill="#47484A" d="M2304.921,3981.041c-10.166,0.002-20.331-0.021-30.496,0.017
		c-3.133,0.013-5.869,0.163-5.862-4.434c0.007-4.273,2.538-4.02,5.356-4.017c20.578,0.018,41.158,0.01,61.738,0.019
		c2.705,0,5.428-0.526,5.488,3.864c0.063,4.52-2.492,4.591-5.727,4.57C2325.254,3980.999,2315.087,3981.039,2304.921,3981.041z"/>
	<path fill-rule="evenodd" clip-rule="evenodd" fill="#413F41" d="M1272.82,3498.219c-7.921,0.004-15.845-0.064-23.765,0.038
		c-3.063,0.039-5.203-0.253-5.23-4.232c-0.028-3.943,1.986-4.35,5.132-4.334c16.337,0.082,32.677,0.059,49.016,0.012
		c2.983-0.007,5.259,0.142,5.247,4.215c-0.011,3.943-2.043,4.364-5.147,4.329C1289.655,3498.152,1281.237,3498.214,1272.82,3498.219
		z"/>
	<path fill-rule="evenodd" clip-rule="evenodd" fill="#454547" d="M523.6,3744.085c-5.441-0.002-10.886-0.142-16.318,0.049
		c-3.455,0.121-4.754-1.031-4.838-4.64c-0.093-4.042,1.985-4.261,5.048-4.234c10.878,0.097,21.76,0.121,32.638-0.012
		c3.265-0.039,4.932,0.595,4.867,4.425c-0.066,3.838-1.883,4.52-5.078,4.448C534.481,3744,529.039,3744.088,523.6,3744.085z"/>
	<path fill-rule="evenodd" clip-rule="evenodd" fill="#484A4D" d="M856.25,3544.759c-4.693-0.002-9.386-0.048-14.078,0.015
		c-2.881,0.038-5.274,0.14-5.248-4.072c0.023-3.714,1.469-4.632,4.833-4.583c9.631,0.137,19.266,0.123,28.896,0.014
		c3.291-0.037,4.939,0.815,4.966,4.558c0.03,4.175-2.397,4.125-5.292,4.087C865.636,3544.715,860.943,3544.761,856.25,3544.759z"/>
	<path fill-rule="evenodd" clip-rule="evenodd" fill="#494B4E" d="M2197.232,3701.581c-2.957,0.003-5.922-0.127-8.87,0.038
		c-3.075,0.17-4.457-0.863-4.439-4.161c0.019-3.337,0.93-4.999,4.622-4.852c5.66,0.225,11.338,0.201,17.002,0.021
		c3.771-0.119,4.396,1.749,4.43,5.013c0.034,3.547-1.792,4.057-4.611,3.958C2202.656,3701.501,2199.943,3701.578,2197.232,3701.581z
		"/>
	<path fill-rule="evenodd" clip-rule="evenodd" fill="#4B4E51" d="M2137.839,3387.959c2.953,0.002,5.909,0.079,8.857-0.019
		c2.927-0.098,3.794,1.368,3.818,4.076c0.026,2.883-0.559,4.729-4.008,4.647c-5.901-0.138-11.813-0.161-17.713,0.006
		c-3.351,0.097-4.135-1.464-4.157-4.468c-0.026-3.185,1.202-4.442,4.347-4.278C2131.93,3388.08,2134.888,3387.958,2137.839,3387.959
		z"/>
	<path fill-rule="evenodd" clip-rule="evenodd" fill="#9DDCF8" d="M659.502,3371.468c-0.022,43.723-0.012,87.443-0.142,131.165
		c-0.007,2.495,1.421,5.451-1.29,7.564c-0.007-43.653-0.028-87.305,0.014-130.956
		C658.088,3376.611,657.229,3373.725,659.502,3371.468z"/>
	<path fill-rule="evenodd" clip-rule="evenodd" fill="#494B4D" d="M2289.919,3527.827c-1.735,0-3.471-0.026-5.207,0.006
		c-3.41,0.064-3.159-2.348-3.188-4.618c-0.028-2.142,0.157-4.025,3.04-3.971c2.727,0.053,5.455-0.019,8.184-0.015
		c2.932,0.008,5.957-0.648,5.955,4.187c-0.003,4.597-2.648,4.567-5.807,4.447c-0.99-0.037-1.983-0.006-2.977-0.006
		C2289.919,3527.847,2289.919,3527.837,2289.919,3527.827z"/>
	<path fill-rule="evenodd" clip-rule="evenodd" fill="#9DDCF8" d="M693.715,3372.251c-11.333-2.29-22.761-0.729-34.147-0.853
		C671.006,3369.46,682.432,3368.011,693.715,3372.251z"/>
	<g>
		<path fill="#424143" d="M2359.476,3373.722c-7.75-29.086-27.637-46.834-57.153-52.303c-26.214-4.858-48.399,4.239-66.844,23.061
			c-0.972,1.415-1.895,2.868-2.921,4.242c-29.151,39.026-12.836,94.494,32.908,111.225c23.088,8.444,44.918,4.525,65.602-7.921
			c1.685-1.44,3.398-2.847,5.05-4.324C2358.521,3427.656,2367.224,3402.793,2359.476,3373.722z M2285.881,3332.744
			c0,9.705-0.039,17.52,0.022,25.334c0.02,2.675-0.799,4.495-3.799,3.951c-4.846-0.88-9.677-1.88-14.463-3.034
			c-2.916-0.704-2.254-2.646-1.131-4.543C2271.185,3346.552,2276.896,3339.583,2285.881,3332.744z M2249.007,3343.476
			c6.829-5.773,14.453-10.06,24.81-12.75c-6.315,7.5-11.677,13.612-15.517,20.807c-0.908,1.701-2.067,2.993-4.082,1.789
			c-2.744-1.641-5.889-3.046-7.875-5.389C2244.687,3345.983,2247.664,3344.613,2249.007,3343.476z M2228.23,3376.631
			c0.99-3.802,2.352-7.553,3.977-11.13c5.537-12.195,5.639-12.013,16.929-5.187c3.341,2.021,3.636,3.868,2.501,7.109
			c-1.135,3.243-1.953,6.633-2.552,10.021c-1.866,10.558-1.8,10.569-12.262,10.576
			C2225.355,3388.03,2225.259,3388.005,2228.23,3376.631z M2236.064,3426.205c-4.178-6.875-6.913-14.218-8.704-22.049
			c-1.263-5.51-0.558-8.666,6.05-7.611c1.211,0.193,2.479,0.027,4.946,0.027c7.748-2.379,10.948,1.886,10.756,10.274
			c-0.032,1.443,0.339,3.034,0.978,4.332c4.174,8.466,0.891,13.257-7.113,16.966
			C2239.251,3429.87,2237.933,3429.284,2236.064,3426.205z M2248.779,3440.844c-1.206-0.989-3.705-2-2.676-3.864
			c1.713-3.106,5.279-4.23,8.293-5.82c2.111-1.113,3.18,0.498,4.009,2.058c3.833,7.214,9.231,13.28,15.358,20.322
			C2263.4,3451.45,2255.824,3446.636,2248.779,3440.844z M2285.896,3451.476c-9.268-6.504-14.977-14.016-19.871-22.27
			c-0.932-1.574-0.668-2.818,1.103-3.513c0.915-0.358,1.897-0.544,2.842-0.835c15.905-4.896,15.929-4.881,15.927,11.483
			C2285.896,3440.774,2285.896,3445.205,2285.896,3451.476z M2279.939,3414.427c-4.399,0.202-8.925,1.002-13.07,2.459
			c-4.676,1.642-6.473,0.552-7.782-4.205c-4.449-16.162-4.62-16.113,11.956-16.113c1.484,0,2.971-0.029,4.455,0.004
			c11.338,0.256,10.137-2.208,10.454,10.886C2286.064,3412.028,2284.901,3414.198,2279.939,3414.427z M2285.647,3385.876
			c-0.115,2.414-2.368,2.089-4.038,2.118c-3.471,0.059-6.943,0.018-10.416,0.021c-16.686,0.004-16.932-0.485-11.926-16.775
			c1.211-3.938,2.633-5.334,6.771-3.831c3.465,1.257,7.248,1.603,10.83,2.572c2.934,0.793,7.526-1.16,8.518,2.604
			C2286.485,3376.756,2285.855,3381.435,2285.647,3385.876z M2345.88,3361.256c2.984,6.052,5.184,12.276,6.852,18.81
			c1.557,6.091,0.287,8.994-6.467,7.973c-1.215-0.183-2.479-0.025-4.933-0.025c-7.509,2.317-10.349-1.995-10.356-9.964
			c-0.002-2.427-0.49-5.067-1.533-7.237c-2.977-6.194-0.705-9.119,4.827-12.777
			C2340.589,3353.854,2343.048,3355.511,2345.88,3361.256z M2331.358,3343.772c1.59,1.359,5.095,3.306,0.95,5.421
			c-3.125,1.597-6.293,7.922-10.184,2.391c-4.686-6.66-9.31-13.331-16.27-20.918
			C2316.921,3333.538,2324.541,3337.939,2331.358,3343.772z M2294.371,3333.091c9.233,6.567,14.936,14.072,19.705,22.404
			c0.33,0.575,0.561,1.852,0.311,2.021c-5.103,3.44-11.099,4.094-16.926,4.385c-4.98,0.25-2.879-4.29-2.987-6.755
			C2294.179,3348.485,2294.371,3341.801,2294.371,3333.091z M2300.354,3370.132c3.68-0.106,7.612-0.564,10.938-2.007
			c6.861-2.978,9.107-0.091,10.452,6.218c2.925,13.719,3.116,13.678-12.433,13.678c-1.492,0-2.985,0.035-4.477-0.006
			c-11.017-0.301-10.174,2.717-10.521-10.925C2294.197,3372.447,2295.415,3370.275,2300.354,3370.132z M2294.658,3398.579
			c0.131-2.377,2.455-1.974,4.127-1.997c3.48-0.048,6.961-0.014,10.44-0.016c16.401-0.003,16.219-0.053,11.945,15.717
			c-1.366,5.046-3.479,6.451-8.358,4.59c-2.983-1.139-6.313-1.326-9.402-2.23c-2.908-0.851-7.496,1.129-8.467-2.735
			C2293.884,3407.698,2294.414,3403.027,2294.658,3398.579z M2294.396,3451.458c0-9.433,0.059-17.285-0.027-25.138
			c-0.038-3.458,1.712-4.307,4.704-3.696c4.12,0.843,8.229,1.728,12.348,2.581c3.524,0.731,3.629,2.55,1.921,5.298
			C2308.615,3438.113,2303.08,3444.964,2294.396,3451.458z M2331.384,3440.767c-7.027,5.792-14.633,10.562-25.013,12.756
			c6.216-7.273,11.083-13.983,15.87-20.768c3.717-5.266,7.009,1.03,10.127,2.58
			C2336.419,3437.347,2333.015,3439.423,2331.384,3440.767z M2353.278,3401.072c-1.501,9.436-4.749,18.187-9.941,26.241
			c-1.56,2.418-3.072,2.85-5.426,1.178c-2.22-1.575-4.485-3.176-6.94-4.308c-3.064-1.414-3.83-3.128-2.699-6.424
			c1.358-3.964,1.882-8.205,3.018-12.257c0.822-2.94-0.809-7.937,2.614-8.499c5.993-0.987,12.315-0.299,18.461,0.172
			C2354.093,3397.308,2353.14,3399.686,2353.278,3401.072z"/>
		<path fill="#9CD8F2" d="M2236.823,3388.022c10.462-0.007,10.396-0.019,12.262-10.576c0.599-3.389,1.417-6.778,2.552-10.021
			c1.135-3.241,0.84-5.089-2.501-7.109c-11.29-6.826-11.392-7.009-16.929,5.187c-1.625,3.577-2.986,7.328-3.977,11.13
			C2225.259,3388.005,2225.355,3388.03,2236.823,3388.022z"/>
		<path fill="#9DDAF5" d="M2329.443,3370.812c1.043,2.17,1.531,4.811,1.533,7.237c0.008,7.969,2.848,12.281,10.356,9.964
			c2.453,0,3.718-0.157,4.933,0.025c6.754,1.021,8.023-1.882,6.467-7.973c-1.668-6.533-3.867-12.758-6.852-18.81
			c-2.832-5.745-5.291-7.402-11.61-3.222C2328.738,3361.693,2326.466,3364.618,2329.443,3370.812z"/>
		<path fill="#9CDAF5" d="M2352.364,3397.175c-6.146-0.471-12.468-1.159-18.461-0.172c-3.423,0.563-1.792,5.559-2.614,8.499
			c-1.136,4.052-1.659,8.293-3.018,12.257c-1.131,3.296-0.365,5.01,2.699,6.424c2.455,1.132,4.721,2.732,6.94,4.308
			c2.354,1.672,3.866,1.24,5.426-1.178c5.192-8.055,8.44-16.806,9.941-26.241C2353.14,3399.686,2354.093,3397.308,2352.364,3397.175
			z"/>
		<path fill="#9DDAF5" d="M2250.089,3411.178c-0.639-1.298-1.01-2.889-0.978-4.332c0.192-8.389-3.008-12.653-10.756-10.274
			c-2.468,0-3.735,0.166-4.946-0.027c-6.607-1.055-7.313,2.102-6.05,7.611c1.791,7.831,4.526,15.174,8.704,22.049
			c1.869,3.079,3.188,3.665,6.912,1.939C2250.98,3424.435,2254.263,3419.644,2250.089,3411.178z"/>
		<path fill="#9CD8F3" d="M2276.869,3369.981c-3.582-0.97-7.365-1.315-10.83-2.572c-4.139-1.503-5.561-0.106-6.771,3.831
			c-5.006,16.29-4.76,16.779,11.926,16.775c3.473-0.003,6.945,0.038,10.416-0.021c1.67-0.029,3.923,0.296,4.038-2.118
			c0.208-4.441,0.838-9.12-0.261-13.291C2284.395,3368.821,2279.802,3370.774,2276.869,3369.981z"/>
		<path fill="#9CD8F3" d="M2304.835,3388.015c1.491,0.041,2.984,0.006,4.477,0.006c15.549,0,15.357,0.041,12.433-13.678
			c-1.345-6.309-3.591-9.195-10.452-6.218c-3.326,1.442-7.259,1.9-10.938,2.007c-4.939,0.143-6.157,2.314-6.04,6.958
			C2294.662,3390.732,2293.819,3387.714,2304.835,3388.015z"/>
		<path fill="#9CD9F4" d="M2275.498,3396.572c-1.484-0.033-2.971-0.004-4.455-0.004c-16.576,0-16.405-0.049-11.956,16.113
			c1.31,4.757,3.106,5.847,7.782,4.205c4.146-1.457,8.671-2.257,13.07-2.459c4.962-0.229,6.125-2.399,6.013-6.97
			C2285.634,3394.364,2286.835,3396.828,2275.498,3396.572z"/>
		<path fill="#9CD8F2" d="M2303.41,3414.642c3.089,0.904,6.419,1.092,9.402,2.23c4.879,1.861,6.992,0.456,8.358-4.59
			c4.273-15.77,4.456-15.72-11.945-15.717c-3.479,0.002-6.96-0.032-10.44,0.016c-1.672,0.023-3.996-0.38-4.127,1.997
			c-0.244,4.448-0.773,9.119,0.285,13.328C2295.914,3415.771,2300.501,3413.792,2303.41,3414.642z"/>
		<path fill="#99D3EC" d="M2297.46,3361.902c5.827-0.291,11.823-0.944,16.926-4.385c0.25-0.17,0.02-1.446-0.311-2.021
			c-4.77-8.332-10.472-15.837-19.705-22.404c0,8.71-0.191,15.394,0.103,22.056C2294.582,3357.612,2292.48,3362.152,2297.46,3361.902
			z"/>
		<path fill="#9AD4EE" d="M2267.642,3358.995c4.786,1.154,9.617,2.154,14.463,3.034c3,0.544,3.818-1.276,3.799-3.951
			c-0.062-7.814-0.022-15.629-0.022-25.334c-8.985,6.84-14.696,13.809-19.37,21.708
			C2265.388,3356.348,2264.726,3358.291,2267.642,3358.995z"/>
		<path fill="#9AD3EC" d="M2311.42,3425.206c-4.118-0.854-8.228-1.738-12.348-2.581c-2.992-0.61-4.742,0.238-4.704,3.696
			c0.086,7.853,0.027,15.705,0.027,25.138c8.684-6.494,14.219-13.346,18.945-20.955
			C2315.049,3427.755,2314.945,3425.937,2311.42,3425.206z"/>
		<path fill="#9AD4ED" d="M2269.969,3424.859c-0.944,0.291-1.927,0.477-2.842,0.835c-1.771,0.694-2.034,1.938-1.103,3.513
			c4.895,8.254,10.604,15.766,19.871,22.27c0-6.271,0-10.702,0-15.134C2285.898,3419.978,2285.875,3419.962,2269.969,3424.859z"/>
		<path fill="#99D3EC" d="M2332.369,3435.335c-3.118-1.55-6.41-7.846-10.127-2.58c-4.787,6.784-9.654,13.494-15.87,20.768
			c10.38-2.194,17.985-6.964,25.013-12.756C2333.015,3439.423,2336.419,3437.347,2332.369,3435.335z"/>
		<path fill="#99D3EC" d="M2254.396,3431.16c-3.014,1.59-6.58,2.714-8.293,5.82c-1.029,1.864,1.47,2.875,2.676,3.864
			c7.045,5.792,14.621,10.605,24.984,12.695c-6.127-7.042-11.525-13.108-15.358-20.322
			C2257.576,3431.658,2256.507,3430.046,2254.396,3431.16z"/>
		<path fill="#99D3EC" d="M2254.218,3353.322c2.015,1.204,3.174-0.088,4.082-1.789c3.84-7.194,9.201-13.307,15.517-20.807
			c-10.356,2.69-17.98,6.977-24.81,12.75c-1.344,1.137-4.32,2.507-2.664,4.457
			C2248.33,3350.276,2251.474,3351.681,2254.218,3353.322z"/>
		<path fill="#9AD4EE" d="M2332.308,3349.193c4.145-2.115,0.64-4.062-0.95-5.421c-6.817-5.833-14.437-10.234-25.503-13.106
			c6.96,7.587,11.584,14.258,16.27,20.918C2326.015,3357.115,2329.183,3350.79,2332.308,3349.193z"/>
	</g>
	<path fill-rule="evenodd" clip-rule="evenodd" fill="#474A4E" d="M468.245,3548.35c0.188,0,0.375-0.001,0.561-0.001
		c0-5.448-0.132-10.9,0.05-16.343c0.108-3.22-1.112-4.354-4.3-4.321c-11.142,0.114-22.287,0.147-33.426-0.029
		c-3.542-0.055-4.723,1.133-4.665,4.676c0.178,10.893,0.191,21.792-0.007,32.684c-0.068,3.764,0.937,5.382,4.968,5.147
		c5.183-0.302,10.406,0.143,15.593-0.123c7.074-0.361,16.532,3.201,20.528-1.596C470.935,3564.376,468.245,3555.243,468.245,3548.35
		z M446.886,3561.55c-11.989,0.025-11.989,0.025-11.989-12.271c0-12.959,0-12.959,12.842-12.959
		c12.387,0.001,12.387,0.001,12.387,12.726C460.125,3561.521,460.125,3561.521,446.886,3561.55z"/>
	<path fill-rule="evenodd" clip-rule="evenodd" fill="#474A4E" d="M468.717,3489.095c-0.084-6.609,2.963-15.19-1.361-19.311
		c-4.282-4.078-12.8-0.695-18.257-1.249c-6.647,0-12.126,0.222-17.578-0.073c-3.998-0.216-5.206,1.322-5.044,5.141
		c0.24,5.706-0.074,11.434,0.096,17.144c0.191,6.41-2.733,14.758,1.109,18.721c4.19,4.321,12.681,1.37,19.268,1.35
		c7.077-0.023,16.243,3.185,20.676-1.534C471.669,3504.977,468.806,3495.998,468.717,3489.095z M447.654,3502.417
		c-12.813,0-12.813,0-12.813-12.952c0-12.33,0-12.33,12.55-12.33c12.785,0,12.785,0,12.785,12.795
		C460.175,3502.417,460.175,3502.417,447.654,3502.417z"/>
	<path fill-rule="evenodd" clip-rule="evenodd" fill="#FFFFFF" d="M1344.642,3731.169c-3.357,0-5.823,0-8.289,0
		c-170.627,0-341.253-0.053-511.881,0.18c-7.29,0.01-8.969-1.853-8.868-8.965c0.424-30.09,0.297-60.19,0.068-90.285
		c-0.04-5.247,0.844-7.234,6.796-7.229c170.626,0.18,341.254,0.138,511.881,0.224c2.655,0.002,7.696-2.337,5.728,4.596
		C1330.466,3663.523,1332.175,3696.982,1344.642,3731.169z"/>
	<path fill-rule="evenodd" clip-rule="evenodd" fill="#424244" d="M2048.575,3302.955c-16.962-8.385-37.574-3.021-48.342,12.579
		c-10.747,15.573-8.667,36.771,5.588,49.511c4.395,3.926,4.608,6.579,2.138,11.671c-37.754,77.81-75.313,155.716-112.709,233.698
		c-2.447,5.102-5.439,6.496-10.848,6.484c-79.835-0.172-159.671-0.187-239.506,0.021c-5.845,0.015-8.464-1.788-11.03-7.103
		c-28.832-59.707-76.623-92.601-142.86-92.781c-65.932-0.18-113.815,32.294-142.903,91.506c-3.176,6.466-6.395,8.385-13.222,8.378
		c-173.101-0.177-346.202-0.103-519.303-0.287c-6.483-0.008-8.345,1.43-8.275,8.143c0.37,35.562,0.376,71.132,0.001,106.692
		c-0.074,6.987,1.966,8.509,8.681,8.491c87.296-0.229,174.593-0.151,261.889-0.151c87.794,0,175.589,0.038,263.382-0.096
		c5.004-0.008,8.036,1.064,10.396,5.962c6.854,14.214,16.27,26.741,27.483,37.835c2.798,2.77,3.393,4.54,0.455,7.813
		c-52.968,59.03-105.834,118.153-158.603,177.361c-2.701,3.03-4.433,3.253-7.922,1.194c-14.765-8.703-29.474-8.027-43.248,2.13
		c-3.668,2.706-5.468,2.476-8.625-0.446c-27.545-25.51-55.18-50.923-82.996-76.135c-3.729-3.38-4.336-5.834-2.367-10.596
		c6.614-15.989,1.452-33.979-11.935-44.178c-13.604-10.363-32.287-10.615-45.903-0.619c-13.71,10.066-19.466,27.901-13.114,43.853
		c2.218,5.569,0.803,8.104-3.185,11.63c-52.702,46.617-105.291,93.361-157.774,140.224c-4.313,3.851-7.09,5.338-12.938,1.587
		c-16.022-10.276-36.958-6.031-48.964,8.762c-11.766,14.496-10.95,36.12,1.886,49.94c12.664,13.635,33.368,16.062,49.029,5.747
		c15.713-10.348,21.75-31.148,13.236-48.051c-2.39-4.745-1.93-7.023,1.917-10.423c53.458-47.272,106.792-94.688,160.057-142.181
		c3.069-2.736,4.871-3.464,8.576-0.572c14.772,11.523,32.45,11.546,47.489,0.164c3.046-2.304,4.527-2.435,7.305,0.129
		c28.133,25.97,56.354,51.848,84.682,77.607c3.09,2.81,3.419,4.908,1.803,8.839c-7.101,17.271-1.501,36.11,13.245,46.374
		c14.219,9.896,34.176,8.679,47.007-2.869c13.642-12.275,17.016-31.24,7.773-47.501c-2.277-4.007-1.397-5.907,1.249-8.788
		c9.418-10.252,18.59-20.731,27.866-31.113c43.07-48.207,86.149-96.404,129.208-144.62c2.854-3.198,4.641-5.961,9.91-1.908
		c76.587,58.926,184.271,37.599,232.597-45.985c2.952-5.106,5.21-5.535,10.248-3.101c37.819,18.271,75.686,36.45,113.776,54.139
		c7.394,3.435,11.989,6.922,9.932,15.742c-0.476,2.039,0.247,4.446,0.743,6.609c3.604,15.723,16.521,27.537,31.963,29.344
		c17.125,2.004,32.591-6.411,39.776-21.644c6.886-14.594,4.022-32-7.938-43.217c-3.894-3.65-4.019-6.27-1.767-10.623
		c5.367-10.372,10.63-20.834,15.185-31.576c2.355-5.555,5.564-6.896,11.297-6.878c63.668,0.213,127.339,0.042,191.007,0.278
		c6.257,0.023,7.841-1.688,7.789-7.858c-0.296-35.813-0.379-71.63,0.055-107.439c0.085-7.063-2.276-8.034-8.448-8.001
		c-43.523,0.24-87.049,0.134-130.572,0.122c-8.265-0.003-8.276-0.041-4.77-7.312c36.924-76.574,73.888-153.13,110.688-229.764
		c2.14-4.457,4.122-6.074,9.453-5.108c18.984,3.442,36.93-7.618,42.726-25.599
		C2073.816,3330.925,2065.561,3311.353,2048.575,3302.955z M2032.64,3624.867c6.24-0.016,7.839,1.641,7.773,7.813
		c-0.327,30.317-0.342,60.643,0.008,90.959c0.073,6.388-1.919,7.743-7.951,7.708c-42.745-0.252-85.493-0.134-128.241-0.134
		c-42.747-0.001-85.495-0.116-128.24,0.133c-5.896,0.033-7.498-1.577-7.441-7.464c0.293-30.565,0.313-61.138-0.015-91.705
		c-0.065-6.145,2.004-7.29,7.627-7.279C1861.653,3625.061,1947.148,3625.082,2032.64,3624.867z"/>
	<path fill-rule="evenodd" clip-rule="evenodd" fill="#7ED2F0" d="M1490.295,3558.669c79.474-0.207,135.554,79.904,108.245,153.818
		c-1.788,4.841-3.403,6.149-8.402,3.681c-17.811-8.794-35.788-17.261-53.815-25.607c-4.138-1.915-5.81-3.935-5.139-8.902
		c2.374-17.606-5.831-32.848-20.836-40.022c-14.412-6.893-32.282-3.884-43.518,7.326c-11.881,11.856-14.758,29.188-6.778,44.654
		c1.979,3.838,1.667,5.838-1.133,8.908c-14.568,15.977-29.019,32.066-43.158,48.422c-3.726,4.309-5.626,4.597-9.484,0.085
		c-30.688-35.91-39.133-76.335-21.592-120.158c17.548-43.84,51.521-67.364,98.607-71.729
		C1485.766,3558.916,1488.25,3558.806,1490.295,3558.669z"/>
	<path fill-rule="evenodd" clip-rule="evenodd" fill="#F68F75" d="M1638.76,3675.007c0.486,17.536-3.505,35.111-9.684,52.332
		c-1.613,4.498-3.537,5.973-8.08,3.386c-5.166-2.941-12.367-4.066-15.511-8.323c-3.29-4.455,2.244-10.432,3.712-15.77
		c18.526-67.438-21.388-135.649-89.573-152.752c-66.218-16.611-134.618,25.604-148.791,92.684
		c-8.792,41.621,1.092,78.934,30.028,110.554c3.736,4.084,4.356,6.666,0.015,10.099c-0.959,0.758-1.645,1.856-2.479,2.779
		c-10.452,11.575-10.771,11.832-20.503-0.201c-36.682-45.35-46.042-96.156-24.996-150.375
		c20.737-53.428,61.265-85.025,118.196-92.828C1561.026,3514.264,1638.782,3583.285,1638.76,3675.007z"/>
	<path fill-rule="evenodd" clip-rule="evenodd" fill="#FEFEFE" d="M1636.688,3731.163c10.782-29.282,13.547-58.095,7.913-87.588
		c-0.744-3.898-1.416-7.873-2.76-11.579c-1.883-5.191-1.465-7.188,5.023-7.131c35.783,0.315,71.57,0.26,107.354,0.033
		c5.348-0.035,6.606,1.67,6.572,6.768c-0.218,31.062-0.109,62.127-0.109,93.19c0,3.191,0.734,6.405-4.534,6.385
		C1716.651,3731.095,1677.153,3731.163,1636.688,3731.163z"/>
	<path fill-rule="evenodd" clip-rule="evenodd" fill="#7ED2F0" d="M1496.478,3788.021c-31.109-0.187-53.321-7.635-73.399-21.847
		c-4.144-2.933-5.668-4.777-1.285-9.453c14.444-15.415,28.322-31.364,42.301-47.211c2.724-3.087,4.407-4.598,8.928-1.635
		c16.767,10.99,37.497,7.689,50.206-7.866c3.087-3.775,5.189-3.979,9.135-2.055c18.09,8.817,36.219,17.561,54.517,25.931
		c4.688,2.146,5.033,3.979,2.421,8.095C1566.187,3768.421,1533.072,3786.956,1496.478,3788.021z"/>
	<path fill-rule="evenodd" clip-rule="evenodd" fill="#F68F75" d="M1493.332,3822.046c-35.846-0.731-66.039-10.332-92.735-30.557
		c-4.254-3.223-5.698-5.557-1.13-9.598c4.439-3.923,7.088-11.252,12.471-12.229c5.085-0.923,9.297,5.577,14.075,8.545
		c57.989,36.013,136.123,16.967,170.17-41.912c3.064-5.295,5.703-5.893,10.297-2.877c1.236,0.811,2.66,1.338,4.012,1.965
		c12.86,5.952,13.075,6.092,5.388,17.661C1586.182,3797.744,1544.161,3820.217,1493.332,3822.046z"/>
	<path fill-rule="evenodd" clip-rule="evenodd" fill="#C4E9FB" d="M1643.281,3739.81c4.505,0,8.187,0,11.867,0
		c56.4,0,112.804-0.004,169.205,0.004c8.221,0.001,8.232,0.03,4.824,7.11c-4.632,9.619-9.432,19.161-13.843,28.881
		c-1.53,3.371-3.084,4.103-6.785,3.241c-17.627-4.107-31.792,1.398-42.03,16.391c-1.729,2.529-3.104,3.114-5.996,1.724
		c-38.704-18.599-77.466-37.073-116.207-55.594C1644.154,3741.49,1644.091,3741.206,1643.281,3739.81z"/>
	<path fill-rule="evenodd" clip-rule="evenodd" fill="#FFC842" d="M811.905,4099.73c-16.456,0.06-29.85-13.225-29.889-29.646
		c-0.039-16.461,13.267-29.865,29.662-29.883c16.513-0.016,29.852,13.225,29.878,29.66
		C841.583,4086.382,828.393,4099.67,811.905,4099.73z"/>
	<path fill-rule="evenodd" clip-rule="evenodd" fill="#FFC842" d="M1492.986,3705.783c-16.504-0.342-29.412-14.031-28.938-30.689
		c0.462-16.234,13.905-29.133,30.072-28.854c16.601,0.286,29.656,13.783,29.366,30.357
		C1523.194,3693.138,1509.623,3706.125,1492.986,3705.783z"/>
	<path fill-rule="evenodd" clip-rule="evenodd" fill="#FFC842" d="M1828.422,3816.386c-0.144,16.291-13.964,29.691-30.263,29.341
		c-15.9-0.341-29.285-13.882-29.349-29.688c-0.063-16.427,13.333-29.92,29.686-29.898
		C1815.548,3786.162,1828.571,3799.324,1828.422,3816.386z"/>
	<path fill-rule="evenodd" clip-rule="evenodd" fill="#FFC842" d="M1040.962,3841.353c16.699,0.151,29.608,13.47,29.274,30.204
		c-0.33,16.481-14.045,29.587-30.582,29.22c-15.921-0.353-28.971-13.963-28.932-30.176
		C1010.763,3854.037,1024.036,3841.199,1040.962,3841.353z"/>
	<path fill-rule="evenodd" clip-rule="evenodd" fill="#FFC842" d="M1163.39,4001.942c0.047-16.465,12.816-29.217,29.306-29.269
		c16.959-0.051,30.124,12.824,30.07,29.408c-0.053,16.498-13.601,30.133-29.825,30.011
		C1176.404,4031.969,1163.343,4018.643,1163.39,4001.942z"/>
	<path fill-rule="evenodd" clip-rule="evenodd" fill="#FFC842" d="M2002.129,3336.615c0.316-16.781,13.633-29.618,30.275-29.182
		c16.616,0.438,29.24,13.881,28.828,30.699c-0.401,16.319-13.626,29.025-29.965,28.791
		C2014.449,3366.681,2001.811,3353.537,2002.129,3336.615z"/>
	<path fill-rule="evenodd" clip-rule="evenodd" fill="#FFD068" d="M617.238,3599.863c-0.089-32.733,26.31-59.202,59.15-59.307
		c32.056-0.103,58.854,26.618,58.999,58.828c0.148,32.969-26.798,59.978-59.638,59.777
		C643.604,3658.966,617.326,3632.335,617.238,3599.863z"/>
	<path fill-rule="evenodd" clip-rule="evenodd" fill="#FDD068" d="M667.559,3445.03c0-19.646,0.351-39.303-0.175-58.936
		c-0.207-7.743,4.199-6.703,8.966-6.834c5.12-0.143,9.894-0.326,8.551,7.109c-0.043,0.24-0.006,0.497-0.004,0.745
		c0.119,17.567,0.119,17.567,18.056,17.567c5.721,0,11.448,0.194,17.157-0.062c4.603-0.205,7.344,0.333,7.332,6.221
		c-0.012,5.689-1.801,7.272-7.302,7.037c-9.682-0.416-19.402,0.137-29.089-0.221c-5.017-0.186-6.854,1.612-6.16,6.399
		c0.036,0.243,0.001,0.497,0.006,0.745c0.107,6.953-2.24,15.516,0.98,20.43c3.594,5.486,12.776,1.713,19.484,1.994
		c4.898,0.205,4.892,2.737,4.907,6.244c0.016,3.745,0.149,7.019-5.23,6.621c-4.451-0.33-8.968,0.208-13.419-0.13
		c-5.1-0.388-6.987,1.319-6.838,6.665c0.354,12.674-0.322,25.384,0.271,38.04c0.377,8.062-4.666,6.401-9.178,6.535
		c-4.597,0.139-8.657,0.802-8.48-6.488C667.876,3484.83,667.561,3464.925,667.559,3445.03z"/>
	<path fill-rule="evenodd" clip-rule="evenodd" fill="#F6CF71" d="M676.359,3519.151c4.956,0.004,9.927,0.252,14.861-0.065
		c4.89-0.316,7.12,0.806,6.766,6.457c-0.567,9.015-0.128,8.813-9.317,7.49c-9.356-1.347-18.756-1.428-28.073,0.736
		c-2.559,0.593-6.344,1.678-5.354-2.897c0.857-3.959-4.535-10.716,4.034-11.614C664.911,3518.666,670.661,3519.145,676.359,3519.151
		z"/>
	<path fill-rule="evenodd" clip-rule="evenodd" fill="#FFFFFF" d="M523.583,3892.15c24.594-0.001,49.188,0.145,73.78-0.116
		c5.303-0.056,7.278,0.968,7.223,6.847c-0.311,32.293-0.25,64.59-0.045,96.884c0.032,5.085-1.261,6.786-6.592,6.764
		c-49.684-0.19-99.37-0.166-149.054-0.017c-4.524,0.014-5.946-1.203-5.921-5.822c0.179-33.038,0.213-66.081-0.034-99.118
		c-0.038-5.062,2.011-5.514,6.116-5.49C473.898,3892.22,498.742,3892.15,523.583,3892.15z"/>
	<path fill-rule="evenodd" clip-rule="evenodd" fill="#5D5E5E" d="M612.792,3852.015c0.023-5.456-1.798-6.552-6.797-6.514
		c-27.357,0.211-54.719,0.1-82.08,0.1c-27.608,0-55.218,0.102-82.825-0.098c-4.753-0.033-6.393,1.095-6.374,6.174
		c0.189,50.988,0.182,101.979,0.012,152.967c-0.016,5.016,1.597,6.219,6.392,6.206c54.969-0.151,109.938-0.161,164.906,0.003
		c5.114,0.014,6.773-1.289,6.752-6.617C612.584,3953.497,612.576,3902.755,612.792,3852.015z M597.402,3883.898
		c-36.001-0.229-72.006-0.117-108.01-0.117c-13.656,0-27.315-0.146-40.969,0.081c-4.203,0.07-5.701-1.187-5.468-5.456
		c0.432-7.896-2.531-18.189,1.398-23.08c4.168-5.188,14.886-1.503,22.724-1.606c18.868-0.252,37.742-0.081,56.613-0.081
		c24.581,0,49.165,0.163,73.743-0.126c5.529-0.065,7.59,1.378,7.089,7.05c-0.479,5.42-0.507,10.954,0.006,16.368
		C605.076,3882.716,602.833,3883.932,597.402,3883.898z"/>
	<path fill-rule="evenodd" clip-rule="evenodd" fill="#F68F75" d="M1738.238,3877.031c-1.067,1.263-1.933,2.445-2.955,3.472
		c-10.706,10.741-21.513,21.384-32.106,32.235c-2.656,2.72-4.355,3.007-7.19,0.153c-28.568-28.743-57.236-57.388-85.958-85.979
		c-2.42-2.41-2.866-3.983-0.187-6.601c11.027-10.771,21.913-21.687,32.708-32.69c2.437-2.483,4.022-2.728,6.62-0.116
		c28.752,28.909,57.613,57.713,86.436,86.554C1736.459,3874.914,1737.212,3875.868,1738.238,3877.031z"/>
	<path fill-rule="evenodd" clip-rule="evenodd" fill="#F58F75" d="M1759.67,3975.947c-1.225-1.04-2.395-1.91-3.419-2.929
		c-7.576-7.532-15.051-15.169-22.719-22.606c-2.619-2.542-3.241-4.393-0.29-7.271c10.85-10.581,21.559-21.309,32.154-32.144
		c2.721-2.782,4.58-2.79,7.273,0.005c7.588,7.868,15.396,15.522,23.137,23.241c1.68,1.675,3.125,3.105,0.709,5.495
		c-11.486,11.352-22.864,22.814-34.298,34.219C1761.544,3974.628,1760.712,3975.141,1759.67,3975.947z"/>
	<path fill-rule="evenodd" clip-rule="evenodd" fill="#FEFEFE" d="M1723.763,3940.316c-2.247-2.141-4.235-3.948-6.124-5.854
		c-3.833-3.868-10.415-7.604-10.688-11.737c-0.324-4.929,6.798-8.385,10.719-12.438c7.753-8.016,15.858-15.696,23.561-23.759
		c2.758-2.888,4.531-2.785,7.095,0.077c4.446,4.964,12.352,9.313,12.934,14.568c0.608,5.499-7.99,9.678-12.534,14.447
		c-6.838,7.176-13.971,14.072-20.997,21.067C1726.544,3937.866,1725.265,3938.947,1723.763,3940.316z"/>
	<path fill-rule="evenodd" clip-rule="evenodd" fill="#EAEAEA" d="M1628.115,3789.326c-1.549,1.979-2.211,3.002-3.044,3.857
		c-3.11,3.193-6.371,6.245-9.393,9.519c-2.105,2.282-3.73,2.542-6.041,0.136c-2.056-2.144-2.905-3.682-0.315-6.037
		c3.479-3.162,6.672-6.635,10.032-9.932c1.028-1.009,2.098-2.275,3.79-1.094C1624.773,3786.916,1626.382,3788.086,1628.115,3789.326
		z"/>
	<path fill-rule="evenodd" clip-rule="evenodd" fill="#FDFDFD" d="M2088.789,3480.411c2.883,2.602,4.186,3.431,5.025,4.595
		c3.703,5.135,7.873,5.024,12.784,1.729c2.021-1.355,4.46-2.451,6.844-2.837c5.9-0.955,7.964-4.269,7.126-9.895
		c-0.64-4.294,1.35-5.445,5.497-5.524c6.757-0.128,13.337-0.972,11.559,9.348c-0.404,2.348,1.008,4.358,3.563,4.992
		c4.867,1.207,9.446,3.122,13.759,5.623c3.769,2.188,6.217,0.127,8.276-2.51c3.113-3.986,5.407-4.145,9.305-0.316
		c5.009,4.921,8.575,8.882,0.742,14.038c-0.199,0.13-0.346,0.362-0.475,0.571c-2.97,4.85,6.635,22.936,12.271,23.404
		c2.479,0.205,6.401-1.659,7.121,1.82c0.93,4.5,1.277,9.458-0.346,13.918c-0.719,1.978-3.662,1.093-5.48,0.888
		c-5.227-0.591-7.824,1.758-8.951,6.646c-0.555,2.394-1.343,4.909-2.705,6.904c-3.675,5.377-3.773,9.955,1.896,13.965
		c2.97,2.101,2.772,4.237,0.023,6.529c-1.901,1.586-3.692,3.359-5.274,5.263c-2.291,2.759-4.406,2.958-6.511-0.026
		c-4.012-5.682-8.625-5.58-13.972-1.868c-1.79,1.242-4.027,2.125-6.179,2.509c-5.721,1.017-8.086,4.181-7.223,9.88
		c0.621,4.103-0.947,5.585-5.286,5.593c-6.926,0.016-13.958,1.049-11.69-9.744c0.391-1.856-0.625-3.528-2.496-4.091
		c-5.738-1.728-11.098-4.273-16.482-6.857c-3.06-1.469-5.213,1.231-6.821,3.325c-3.333,4.338-6.172,3.962-9.212-0.191
		c-0.87-1.189-1.972-2.282-3.163-3.151c-3.813-2.776-3.701-5.381,0.044-8.09c4.398-3.181,5.129-6.852,1.861-11.456
		c-1.405-1.977-2.453-4.43-2.913-6.813c-1.177-6.079-4.12-9.36-10.725-8.263c-4.088,0.679-5.76-1.658-4.78-5.177
		c1.077-3.872-3.76-11.209,3.664-11.152c8.212,0.064,10.867-3.582,12.457-10.279c0.563-2.365,1.845-4.633,3.144-6.731
		c2.063-3.332,1.835-6.306-1.364-8.455c-6.163-4.141-4.121-7.474,0.376-11.321
		C2086.064,3485.501,2087.188,3482.791,2088.789,3480.411z"/>
	<path fill-rule="evenodd" clip-rule="evenodd" fill="#FCDD8D" d="M1002.454,3459.644c1.389,5.584-0.924,9.02-8.014,11.687
		c-14.72,5.534-21.427,23.568-15.417,37.965c6.331,15.166,22.802,22.317,38.253,16.785c2.378-0.851,4.827-4.05,7.421-1.616
		c4.326,4.058,8.571,8.37,11.92,13.218c1.396,2.021-2.279,3.295-4.038,4.354c-21.999,13.236-51.816,7.296-66.717-13.218
		c-15.657-21.554-12.952-50.857,6.353-68.293c6.378-5.761,13.828-9.498,22.08-11.928c5.828-1.717,9.208-1.093,8.184,6.059
		C1002.304,3455.875,1002.454,3457.138,1002.454,3459.644z"/>
	<path fill-rule="evenodd" clip-rule="evenodd" fill="#C3E8FA" d="M1006.497,3519.402c-11.811-0.04-21.195-9.406-21.241-21.205
		c-0.045-11.813,9.296-21.216,21.147-21.285c12.277-0.073,21.754,9.395,21.582,21.561
		C1027.821,3510.26,1018.393,3519.442,1006.497,3519.402z"/>
	<path fill-rule="evenodd" clip-rule="evenodd" fill="#F48E74" d="M1044.978,3493.833c-5.114,1.136-9.129-0.229-11.253-7.538
		c-2.312-7.953-8.708-13.574-16.712-15.797c-5.722-1.59-6.421-4.655-6.36-9.655c0.194-15.47,0.539-15.938,15.134-9.874
		c14.01,5.822,23.868,15.921,29.007,30.312C1058.996,3493.045,1058.389,3493.835,1044.978,3493.833z"/>
	<path fill-rule="evenodd" clip-rule="evenodd" fill="#9DDAF6" d="M1045.32,3502.205c13.78-0.001,13.783,0,9.708,12.309
		c-0.311,0.938-0.641,1.876-1.048,2.773c-2.43,5.373-4.649,13.404-9.883,13.617c-4.82,0.195-8.303-7.568-12.5-11.701
		c-1.44-1.418-1.481-2.945-0.302-4.629c0.845-1.209,1.886-2.493,2.138-3.87C1034.815,3503.135,1039.24,3500.517,1045.32,3502.205z"
		/>
	<path fill-rule="evenodd" clip-rule="evenodd" fill="#FEC742" d="M1998.311,3972.406c-28.729,0.049-50.301-12.891-63.826-37.701
		c-13.749-25.221-12.334-50.91,3.822-74.701c14.157-20.848,34.329-31.707,59.998-31.221c3.78,5.129,1.993,11.795,4.751,17.209
		c-2.442,2.834-5.831,2.308-8.985,2.443c-25.398,1.099-46.409,20.973-48.473,45.897c-2.348,28.347,14.367,52.063,40.53,57.651
		c4.725,1.009,10.085,0.563,13.455,5.2C2001.192,3962.431,2002.17,3967.624,1998.311,3972.406z"/>
	<path fill-rule="evenodd" clip-rule="evenodd" fill="#FED168" d="M2002.656,3845.326c-4.004-0.744-4.759-3.428-4.477-7.02
		c0.25-3.159,0.1-6.35,0.126-9.523c37.38-0.797,69.33,29.658,71.456,66.829c2.233,39.048-24.22,70.836-63.319,76.505
		c-2.669,0.388-5.42,0.206-8.133,0.289c-0.007-5.368-0.016-10.735-0.024-16.104c2.348-3.114,6.008-3.2,9.335-3.954
		c25.5-5.769,43.139-26.837,43.246-51.728c0.105-24.107-16.827-45.063-41.577-51.617
		C2006.851,3848.357,2003.616,3848.783,2002.656,3845.326z"/>
	<path fill-rule="evenodd" clip-rule="evenodd" fill="#FDFDFD" d="M2298.632,3731.451c-0.084,9.344-7.746,16.773-17.238,16.717
		c-9.357-0.055-16.975-7.688-16.989-17.028c-0.017-9.323,7.601-17.03,16.938-17.142
		C2291.025,3713.884,2298.72,3721.653,2298.632,3731.451z"/>
	<path fill-rule="evenodd" clip-rule="evenodd" fill="#FDFDFD" d="M2347.773,3786.294c-9.498,0.127-16.992-7.141-17.22-16.698
		c-0.223-9.327,7.276-17.265,16.542-17.513c9.6-0.256,17.766,7.654,17.726,17.169
		C2364.783,3778.554,2357.164,3786.168,2347.773,3786.294z"/>
	<path fill-rule="evenodd" clip-rule="evenodd" fill="#FDFDFD" d="M2347.685,3710.057c-9.359,0.064-17.088-7.481-17.256-16.85
		c-0.169-9.36,7.324-17.075,16.722-17.22c9.854-0.151,17.733,7.471,17.673,17.099
		C2364.765,3702.33,2357.027,3709.992,2347.685,3710.057z"/>
	<path fill-rule="evenodd" clip-rule="evenodd" fill="#F6F6F6" d="M734.138,3759.838c-9.546,5.98,0.211,11.731,0.619,17.809
		c0.185,2.74,1.917,4.548,5.043,4.163c3.638-0.448,4.669,1.252,4.661,4.729c-0.009,3.451-1.599,4.392-4.554,4.084
		c-3.058-0.317-4.403,1.272-5.279,3.99c-0.981,3.048-2.135,6.096-3.67,8.894c-1.434,2.616-1.44,4.659,0.975,6.468
		c3.152,2.361,2.059,4.178-0.297,6.492c-2.209,2.171-3.848,2.818-5.951,0.127c-2.073-2.65-4.594-2.818-7.125-0.769
		c-4.419,3.579-13.789,1.303-12.945,11.354c0.191,2.273-3.215,1.397-5.049,1.509c-2.029,0.12-2.823-0.934-3.332-3.036
		c-1.855-7.689-13.677-12.319-20.722-7.959c-3.132,1.939-3.89-0.62-5.422-1.828c-1.672-1.32-2.411-2.499-0.721-4.87
		c4.321-6.075-0.695-19.039-7.857-20.229c-3.264-0.542-3.319-2.196-3.314-4.533c0.003-2.346,0.09-3.986,3.333-4.551
		c7.109-1.237,12.158-14.262,7.821-20.26c-2.132-2.948-0.083-3.943,1.284-5.457c1.519-1.68,2.791-2.996,5.506-0.948
		c5.447,4.11,19.158-1.019,19.977-7.501c0.45-3.565,2.081-3.864,4.832-3.909c2.683-0.044,3.744,0.761,4.21,3.708
		c1.06,6.69,14.376,11.893,19.974,7.994c1.533-1.067,2.769-2.278,4.4-0.479C731.816,3756.244,733.785,3757.157,734.138,3759.838z"/>
	<path fill-rule="evenodd" clip-rule="evenodd" fill="#BFE1F0" d="M2243.318,3908.833c-0.002,12.86-0.002,12.86-12.855,12.861
		c-12.47,0-12.47,0-12.47-12.556c0-12.742,0-12.742,12.938-12.74C2243.318,3896.398,2243.318,3896.398,2243.318,3908.833z"/>
	<path fill-rule="evenodd" clip-rule="evenodd" fill="#C0E1F0" d="M2217.994,3968.028c-0.001-12.44-0.001-12.44,12.561-12.44
		c12.764,0,12.764,0,12.762,12.889c-0.002,12.398-0.002,12.398-12.454,12.398
		C2217.996,3980.876,2217.996,3980.876,2217.994,3968.028z"/>
	<path fill-rule="evenodd" clip-rule="evenodd" fill="#FCFEFE" d="M1547.268,3618.068c-1.258,0.893-2.783,2.195-4.503,3.145
		c-2.367,1.306-3.59-0.85-5.014-2.07c-13.32-11.401-28.712-17.621-46.254-17.736c-17.765-0.117-33.63,5.574-47.188,17.191
		c-2.558,2.192-4.409,4.617-7.864,0.908c-3.857-4.143-0.174-5.414,2.135-7.399c28.923-24.874,72.632-25.665,102.21-1.788
		C1543.068,3612.157,1545.513,3613.962,1547.268,3618.068z"/>
	<path fill-rule="evenodd" clip-rule="evenodd" fill="#49484A" d="M511.068,3968.313c13.661,0.002,27.321,0.007,40.982-0.003
		c3.003-0.003,5.936-0.525,5.88,4.28c-0.054,4.669-2.833,4.367-5.918,4.365c-27.32-0.019-54.641-0.021-81.96,0.002
		c-3.117,0.003-5.856,0.224-5.892-4.409c-0.038-4.827,2.945-4.241,5.929-4.239C483.749,3968.316,497.409,3968.312,511.068,3968.313z
		"/>
	<path fill-rule="evenodd" clip-rule="evenodd" fill="#414143" d="M511.061,3934.406c-13.423,0.002-26.844,0.037-40.266-0.026
		c-2.982-0.015-6.629,1.231-6.577-4.298c0.049-5.132,3.444-3.901,6.123-3.907c27.092-0.062,54.185-0.06,81.277,0
		c2.699,0.007,6.104-1.202,6.239,3.871c0.146,5.532-3.542,4.318-6.531,4.331C537.904,3934.441,524.483,3934.406,511.061,3934.406z"
		/>
	<path fill-rule="evenodd" clip-rule="evenodd" fill="#504F51" d="M483.414,3917.567c-4.942,0-9.889-0.118-14.825,0.044
		c-3.12,0.102-4.452-0.958-4.436-4.23c0.014-3.035,0.835-4.576,4.155-4.541c10.131,0.105,20.263,0.108,30.394,0.005
		c3.404-0.034,4.033,1.697,4.088,4.633c0.063,3.395-1.561,4.203-4.55,4.124C493.301,3917.472,488.356,3917.567,483.414,3917.567z"/>
	<path fill-rule="evenodd" clip-rule="evenodd" fill="#5C5A5B" d="M482.822,3959.882c-4.697-0.002-9.396-0.073-14.09,0.024
		c-2.852,0.058-4.597-0.497-4.661-3.996c-0.067-3.694,1.46-4.663,4.856-4.613c9.638,0.14,19.282,0.095,28.921,0.009
		c3.146-0.027,5.069,0.523,5.053,4.43c-0.016,4.083-2.288,4.213-5.247,4.168C492.71,3959.828,487.766,3959.883,482.822,3959.882z"/>
	<path fill-rule="evenodd" clip-rule="evenodd" fill="#424244" d="M2128.976,3489.678c23.466-0.001,42.326,18.587,42.485,41.871
		c0.161,23.702-18.699,42.867-42.286,42.968c-23.465,0.101-42.491-19.069-42.435-42.754
		C2086.797,3508.466,2105.649,3489.681,2128.976,3489.678z"/>
	<path fill-rule="evenodd" clip-rule="evenodd" fill="#434243" d="M2002.656,3845.326c28.173,4.93,46.345,22.387,49.737,47.782
		c4.043,30.255-16.444,57.416-46.779,62.024c-2.445,0.371-4.887,0.779-7.329,1.17c-19.961-1.49-36.609-9.086-47.321-26.716
		c-10.621-17.482-11.584-35.938-2.278-54.038c9.717-18.9,25.734-29.099,47.276-29.961
		C1998.193,3845.498,2000.424,3845.414,2002.656,3845.326z"/>
	<path fill-rule="evenodd" clip-rule="evenodd" fill="#434244" d="M731.256,3786.357c-0.051,16.219-13.122,29.427-29.228,29.537
		c-16.455,0.113-29.974-13.129-30.163-29.548c-0.189-16.309,13.335-29.842,29.793-29.81
		C718.334,3756.57,731.31,3769.641,731.256,3786.357z"/>
	<path fill-rule="evenodd" clip-rule="evenodd" fill="#444344" d="M676.243,3609.019c-9.847,0.05-18.058,8.272-17.973,18.001
		c0.086,9.99,8.137,17.997,18.005,17.907c10.157-0.094,17.908-7.865,17.858-17.909
		C694.083,3617.046,686.055,3608.971,676.243,3609.019z M676.187,3636.181c-5.521-0.242-8.87-3.374-9.068-8.874
		c-0.199-5.526,2.98-8.832,8.459-9.441c5.257-0.585,9.698,3.564,9.872,8.841C685.623,3632.01,681.492,3636.413,676.187,3636.181z"/>
	<path fill-rule="evenodd" clip-rule="evenodd" fill="#C4E9FB" d="M2128.929,3565.712c-18.59-0.025-33.591-15.019-33.657-33.636
		c-0.063-18.46,15.08-33.718,33.563-33.815c18.916-0.098,34.023,15.077,33.943,34.097
		C2162.701,3550.916,2147.657,3565.739,2128.929,3565.712z"/>
	<path fill-rule="evenodd" clip-rule="evenodd" fill="#FDD071" d="M2044.439,3899.984c0.084,26.168-20.655,47.287-46.494,47.344
		c-25.815,0.055-47.214-21.337-47.027-47.016c0.186-25.585,21.105-46.439,46.692-46.545
		C2023.268,3853.663,2044.357,3874.474,2044.439,3899.984z"/>
	<path fill-rule="evenodd" clip-rule="evenodd" fill="#3A3636" d="M2009.757,3906.637c-0.029,3.46-1.026,6.911-4.295,8.063
		c-3.766,1.328-5.279,6.294-7.777,6.398c-2.387,0.101-3.861-5.365-7.81-6.259c-1.228-0.277-2.51-1.777-3.109-3.032
		c-0.968-2.029-3.398-4.642-0.228-6.416c2.048-1.146,4.934-1.27,6.186,1.958c0.672,1.729,1.847,2.986,3.741,3.244
		c2.044,0.276,4.033,0.11,5.199-1.967c1.196-2.133,0.397-4.045-1.35-5.204c-2.255-1.492-4.826-2.509-7.255-3.741
		c-4.046-2.053-6.789-5.031-6.728-9.856c0.057-4.41,2.153-8.944,6.207-8.924c4.621,0.024,2.845-9.366,6.864-4.848
		c2.185,2.457,4.929,4.274,7.015,6.755c0.479,0.57,1.172,1.038,1.442,1.688c0.885,2.124,3.362,4.571,0.382,6.473
		c-2.093,1.334-4.866,1.337-6.207-1.777c-0.997-2.319-2.6-3.602-5.248-3.045c-1.634,0.346-2.646,1.414-2.806,3.034
		c-0.297,3.005,1.723,4.427,4.075,5.563c2.232,1.078,4.518,2.069,6.663,3.301
		C2007.993,3899.921,2009.588,3902.886,2009.757,3906.637z"/>
</g>
<g>
	<path fill-rule="evenodd" clip-rule="evenodd" fill="#FFFFFF" d="M-2715.801,497.8c0-25.3,0.199-50.6-0.148-75.85
		c-0.051-6.7,1.648-9.15,8.801-9.1c42.797,0.3,85.648,0.3,128.449,0c6.648-0.05,8.5,2.1,8.199,8.45
		c-0.449,10.15-0.551,20.35,0.051,30.5c0.449,7.2-2.301,8.9-8.953,8.8c-23.547-0.3-47.047,0-70.598-0.149
		c-5.949-0.05-9.652,0.35-9.652,8.2c-0.047,8,3.953,8.2,9.75,8.15c21.453-0.15,42.852,0.15,64.25-0.2c6.852-0.1,9.453,1.9,8.801,8.9
		c-0.898,10.45,4.199,24-1.801,30.55c-6.199,6.6-19.898,1.7-30.297,2c-13.703,0.4-27.402,0.25-41.102,0
		c-5.898-0.1-9.852,0.15-9.602,8.1c0.25,6.95,1.5,9.9,9.301,9.75c23.5-0.45,47.051,0.15,70.551-0.35
		c8.25-0.15,11.352,2.15,10.75,10.65c-0.699,9.4-0.398,18.95-0.102,28.4c0.152,5.95-1.148,8.85-8.098,8.8
		c-43.551-0.3-87.102-0.3-130.602,0c-6.848,0-8.098-2.7-8.047-8.75C-2715.649,549.05-2715.801,523.4-2715.801,497.8z"/>
	<path fill-rule="evenodd" clip-rule="evenodd" fill="#FFFFFF" d="M-2799.602,586.1c-33.348-0.3-59.5-6.55-83-22.4
		c-6.348-4.3-7.949-7.5-1.949-13.6c7.152-7.2,13.551-15.2,19.652-23.3c3.898-5.2,7-5.1,12.047-1.55
		c14.152,9.899,30.402,13.95,47.352,15.5c4.148,0.35,8.352-0.4,12.5-1c3.352-0.45,6.25-2.4,6.551-5.9
		c0.301-3.75-2.902-5.75-5.852-6.6c-9.098-2.55-18.301-4.8-27.5-6.85c-10.25-2.3-20.398-5.1-30-9.4
		c-16.949-7.6-29.449-18.7-30.801-38.9c-1.5-22,6.852-39.1,25.453-50.649c21.547-13.35,45.598-12.55,69.398-9.9
		c16.852,1.851,32.648,7.5,47.051,16.9c5.051,3.3,6.949,5.8,2.5,11.35c-7.051,8.7-13.551,17.9-19.699,27.3
		c-3.25,5-5.852,4.25-10.051,1.5c-11.949-7.85-25.449-11.5-39.551-12.95c-3.398-0.35-6.949,0.05-10.398,0.6
		c-3.301,0.45-6.352,2.2-6.602,5.8c-0.25,3.55,2.551,5.9,5.648,6.75c9.801,2.55,19.703,4.85,29.602,7.05
		c9.949,2.15,19.75,4.9,29,9.15c16.852,7.85,29,19.35,30,39.5c1.102,22-7.148,39-26.148,50.25
		C-2770,584-2787.25,586.4-2799.602,586.1z"/>
	<path fill-rule="evenodd" clip-rule="evenodd" fill="#E25C26" d="M-2600.153,739.5c-0.098,26.1-22.5,48.3-48.547,48.15
		c-26.301-0.2-48.551-22.7-48.152-48.65c0.352-26.6,22.102-48.1,48.551-48C-2622.051,691.15-2600.051,713.3-2600.153,739.5z"/>
	<path fill-rule="evenodd" clip-rule="evenodd" fill="#E25C26" d="M-2600.153,264.701c0.102,26.25-21.598,48.35-48,48.7
		c-25.996,0.4-48.598-21.9-48.699-48.05c-0.148-26.3,21.75-48.45,48-48.55C-2622.551,216.701-2600.301,238.551-2600.153,264.701z"/>
	<path fill-rule="evenodd" clip-rule="evenodd" fill="#E25C26" d="M-2793.75,284.501c0,16.9-11.5,29-27.699,29.15
		c-16.602,0.1-29.5-12.5-29.5-28.85c0-16.05,11.949-28.7,27.098-28.851C-2804.899,255.801-2793.75,266.351-2793.75,284.501z"/>
	<path fill-rule="evenodd" clip-rule="evenodd" fill="#E25C26" d="M-2503.403,284.351c0.051-16.95,11.203-27.85,28.352-27.85
		c17.898,0,28.898,10.95,28.852,28.7c-0.051,16.65-12.551,28.65-29.652,28.45C-2491.95,313.401-2503.45,301.201-2503.403,284.351z"
		/>
	<path fill-rule="evenodd" clip-rule="evenodd" fill="#E25C26" d="M-2793.75,720.6c-0.102,17.25-12.352,29.45-29.102,29.05
		c-15.297-0.351-28.25-14.05-28.098-29.65c0.098-16.149,13.5-29.2,29.75-28.95C-2805.051,691.3-2793.649,703.6-2793.75,720.6z"/>
	<path fill-rule="evenodd" clip-rule="evenodd" fill="#E25C26" d="M-2503.403,720.05c0.051-17.25,12.25-29.35,29.203-29
		c15.898,0.35,28.199,13.25,28,29.35c-0.203,15.75-13.25,29.2-28.453,29.25C-2491.352,749.75-2503.45,737.299-2503.403,720.05z"/>
	<path fill-rule="evenodd" clip-rule="evenodd" fill="#FFFFFF" d="M-2468.051,409.3c-51.398-0.5-92.898,38.8-93.398,88.35
		c-0.453,49.75,39.598,88.55,92.148,89.3c51.352,0.7,92.848-38.7,93-88.35C-2376.102,448.15-2415.5,409.8-2468.051,409.3z
		 M-2468.102,535.7c-20.25,0.15-35.098-15.7-35.25-37.65c-0.199-21.35,14.402-37.35,34.152-37.5c20-0.15,35.449,16.2,35.547,37.7
		C-2433.5,519.35-2448.352,535.55-2468.102,535.7z"/>
	<path fill-rule="evenodd" clip-rule="evenodd" fill="#FFFFFF" d="M-2646.551,770.7c-9-0.9-17-3.3-20.148-11.9
		c-2.902-7.85-0.602-15.05,5.848-20.899c3.301-3.05,6.5-6.101,8.551-10.5c2.051-4.4,6.949-3.5,10.051-1.65
		c3.75,2.25,1,5.9-0.699,8.2c-2.703,3.6-6.301,6.55-9.25,10c-3.852,4.5-4.801,10.1-0.801,14.35c3.898,4.15,8.848,2.95,12.648-1.6
		c3.301-3.9,8.402-4.2,11.152-1.25c3.449,3.65-1.152,6.85-3.703,9.5C-2636.7,769.049-2641.903,770.1-2646.551,770.7z"/>
	<path fill-rule="evenodd" clip-rule="evenodd" fill="#FFFFFF" d="M-2640.45,711.45c0,4.3-2.551,5-5.652,5
		c-3.348,0.05-6.551-0.25-6.348-4.85c0.199-4,3.297-3.9,6.098-3.9C-2643.403,707.65-2640.551,707.9-2640.45,711.45z"/>
	<path fill-rule="evenodd" clip-rule="evenodd" fill="#FFFFFF" d="M-2629.551,252.001c0.301,5.25-1.699,9.55-5.352,13.2
		c-2.449,2.5-5.648,4.601-7.148,7.55c-2.949,5.7-7.75,10.55-12.602,5.9c-5.047-4.85,1.551-9.55,5.203-13.5
		c3-3.25,7.25-5.75,7.348-10.95c0.051-3.5,0.551-7.35-3.398-9.15c-3.301-1.55-6.801-1.45-9.75,1.15c-1.051,0.9-1.699,2.4-2.852,3.05
		c-3.199,1.85-7.301,2.55-9.75,0.05c-2.75-2.7,0.199-5.95,2.152-8.15c6.5-7.25,14.449-9.25,23.75-6.1
		C-2633.75,237.801-2628.903,242.901-2629.551,252.001z"/>
	<path fill-rule="evenodd" clip-rule="evenodd" fill="#FFFFFF" d="M-2644.5,291.401c0.199,4.3-2.199,5.55-5.902,5.5
		c-3.449,0-6.348-0.55-6.449-4.95c-0.098-4.2,2.301-5.399,6-5.35C-2647.45,286.601-2644.45,287.101-2644.5,291.401z"/>
	<path fill-rule="evenodd" clip-rule="evenodd" fill="#FFFFFF" d="M-2814.95,278.201c-0.152,1.101,0.098,3.2-0.75,4.5
		c-2,3,0.148,9.851-4.75,9.05c-6.051-1-0.902-6.2-1.051-9.5c-0.102-3.2,0.148-6.6-3.449-8c-3.25-1.25-5.152,0.9-6.75,3.5
		c-1.199,1.95-2.602,5.05-5.449,2.65c-2-1.8-1.102-4.6,0.398-6.75c3.449-5.15,8.301-7.55,14.449-6.2
		C-2817.102,268.651-2815,272.451-2814.95,278.201z"/>
	<path fill-rule="evenodd" clip-rule="evenodd" fill="#FFFFFF" d="M-2476.051,272.851c-1.602,0.45-4.602,1.75-5.398-1.6
		c-0.902-3.7,2.848-5,5.297-5.2c5.75-0.4,11.402,1.1,14.203,6.8c2.547,5.15,0.348,9.5-3.801,13c-1.051,0.9-2.152,1.9-3.449,2.35
		c-3.703,1.2-7.953,7.45-10.75,2.95c-3.152-4.95,4.297-5.25,7.199-7.5c2.801-2.25,6-4.35,4.398-8.55
		C-2469.5,271.951-2472.301,271.501-2476.051,272.851z"/>
	<path fill-rule="evenodd" clip-rule="evenodd" fill="#FFFFFF" d="M-2826.399,737.7c-6.551-1.2-10.703-4.65-11.703-10.75
		c-1-6.25,2.953-9.7,8.402-11.45c2.598-0.85,5.449-1,8.148-1.55c2.449-0.45,5.301-1.25,5.75,2.2c0.402,3-2.301,3.9-4.848,4.2
		c-1.402,0.2-2.801,0.1-4.152,0.45c-3.199,0.8-6.199,2.4-6.25,6c-0.051,3.55,3.152,4,6,4.35c2.5,0.35,5.301,1.149,4.5,4.3
		C-2821.352,738.6-2824.649,736.9-2826.399,737.7z"/>
	<path fill-rule="evenodd" clip-rule="evenodd" fill="#FFFFFF" d="M-2480.5,718.75c0.051-0.65-3.051-5.85,2.648-5.75
		c4.902,0.15,3.402,4.9,3,8.4c-0.449,3.75,0.902,7.5,4.551,8.55c4.352,1.3,4.602-2.9,5.648-5.8c0.852-2.25,2.402-5.05,5.25-3.9
		c3.352,1.4,2.75,4.6,1.301,7.25c-3.148,5.75-7.051,11.35-14.598,9.4C-2480.551,734.85-2482.102,728.5-2480.5,718.75z"/>
</g>
<g>
	<path fill-rule="evenodd" clip-rule="evenodd" fill="#FFFFFF" d="M404.436,294.206c-0.006-46.836,0.022-93.671,0.207-140.506
		c0.04-10.147-7.112-18.488-18.244-18.241c-22.317,0.496-4.654,0.125-26.982,0.149c-10.459,0.011-17.401,7.007-17.404,17.604
		c-0.012,51.168-0.007,102.337-0.007,153.505C361.273,296.483,383.048,292.236,404.436,294.206z"/>
	<path fill-rule="evenodd" clip-rule="evenodd" fill="#FFFFFF" d="M281.587,406.674c0-2.062,0-3.847,0-5.632
		c0.015-56.822,0.025-113.644,0.046-170.465c0.004-11.246-6.018-18.213-16.521-18.293c-22.994-0.175-5.991-0.129-28.986-0.026
		c-7.643,0.034-14.354,4.832-16.196,11.781c-0.876,3.303-0.72,6.928-0.722,10.407c-0.026,55.987,0,111.976-0.003,167.963
		c0,1.435-0.197,2.869-0.293,4.188c-6.888,0-53.295,0-60.123,0c0-2.328,0-4.301,0-6.274c0-39.491,0.018-78.982-0.013-118.474
		c-0.009-12.089-6.055-18.211-17.981-18.232c-22.162-0.04-4.324-0.034-26.486-0.002c-11.383,0.017-17.952,6.594-17.956,17.922
		c-0.012,39.658-0.005,79.317-0.006,118.976c0,2.078,0,4.157,0,6.445c-13.648,0-66.474-0.027-79.298,0.028
		c-1.971,0.009-4.03,0.104-5.894,0.67c-7.225,2.196-12.05,9.529-11.014,16.409c1.182,7.846,8.208,13.77,16.515,13.773
		c57.989,0.024,115.978,0.029,173.967,0.028c32.524-0.001,65.048-0.01,97.573-0.013c-3.176-10.16-4.825-20.665-4.997-31.181
		C282.539,406.674,281.993,406.674,281.587,406.674z"/>
	<path fill-rule="evenodd" clip-rule="evenodd" fill="#FFFFFF" d="M101.456,217.334c3.019,0.201,6.272-0.685,9.187-1.728
		c40.051-14.335,80.1-28.68,120.033-43.338c4.992-1.832,9.92-4.812,13.862-8.381c29.651-26.838,59.046-53.96,88.532-80.98
		c1.227-1.124,2.561-2.132,4.611-3.828c0,5.629-0.082,9.953,0.017,14.273c0.213,9.283,7.36,16.737,15.829,16.614
		c8.317-0.12,15.038-7.382,15.096-16.633c0.102-16.33,0.116-32.663,0.026-48.993c-0.053-9.658-6.754-16.284-16.41-16.329
		c-16.332-0.077-32.664-0.088-48.995-0.029c-9.303,0.033-16.883,7.246-16.706,15.686c0.168,8.042,7.978,15.127,16.79,15.211
		c2.937,0.027,5.873,0.004,8.81,0.004c0.386,0.557,0.771,1.113,1.158,1.67c-0.942,0.366-2.099,0.498-2.795,1.134
		c-28.779,26.31-57.506,52.679-86.299,78.974c-1.42,1.297-3.278,2.28-5.102,2.939c-25.471,9.209-50.976,18.323-76.463,27.487
		c-15.011,5.397-30.036,10.755-44.992,16.301c-7.479,2.773-11.481,9.783-10.382,17.396
		C88.216,211.377,94.001,216.837,101.456,217.334z"/>
	<path fill-rule="evenodd" clip-rule="evenodd" fill="#FFFFFF" d="M583.284,551.65c-17.746-18.331-35.951-36.218-54.026-54.229
		c-11.621-11.578-23.306-23.094-34.798-34.477c31.888-56.715,10.682-117.27-31.551-147.087
		c-43.647-30.814-103.86-25.873-141.985,12.116c-38.245,38.108-43.514,98.175-12.944,141.924
		c29.562,42.307,90.131,64.195,148.584,31.46c0.976,1.538,1.945,3.889,3.602,5.553c26.537,26.676,53.011,53.418,79.894,79.741
		c5.561,5.444,12.724,9.249,19.148,13.809c4.327,0,8.655,0,12.982,0c9.874-3.975,16.788-10.907,20.771-20.771
		c0-4.327,0-8.655,0-12.982C589.779,561.645,587.352,555.852,583.284,551.65z M398.924,489.474
		c-45.441-0.211-82.682-37.048-82.64-81.742c0.044-47.762,36.395-83.987,84.237-83.947c44.614,0.037,81.516,37.606,81.452,82.927
		C481.909,452.501,444.595,489.686,398.924,489.474z"/>
</g>
</svg>
