<?xml version="1.0" encoding="utf-8"?>
<!-- Generator: Adobe Illustrator 16.0.0, SVG Export Plug-In . SVG Version: 6.00 Build 0)  -->
<!DOCTYPE svg PUBLIC "-//W3C//DTD SVG 1.1//EN" "http://www.w3.org/Graphics/SVG/1.1/DTD/svg11.dtd">
<svg version="1.1" id="Layer_1" xmlns="http://www.w3.org/2000/svg" xmlns:xlink="http://www.w3.org/1999/xlink" x="0px" y="0px"
	 width="512px" height="104.92px" viewBox="0 0 512 104.92" enable-background="new 0 0 512 104.92" xml:space="preserve">
<g>
	<path fill-rule="evenodd" clip-rule="evenodd" fill="#00B6F0" d="M124.029,51.625c-0.317-0.693-0.872-1.197-1.463-1.615
		c-14.269-10.099-28.814-19.724-45.468-25.566c-3.813-1.337-7.742-2.312-11.864-1.794c-2.216,0.278-4.238,1.162-6.23,2.088
		C48.995,29.39,39.697,35.286,30.395,41.169c-5.049,3.193-10.076,6.424-14.959,9.87c-0.861,0.158-1.363-0.498-1.866-0.956
		c-3.4-3.098-6.825-6.169-10.258-9.231c-0.539-0.48-1.111-0.991-1.044-1.84c0.894-2.325,2.617-4.053,4.386-5.663
		c5.72-5.202,12.015-9.658,18.511-13.829c8.879-5.702,18.012-10.97,27.466-15.654c2.985-1.479,5.932-3.163,9.34-3.638
		c0.77-0.107,1.572,0.162,2.307-0.229c1.89,0,3.781,0,5.671,0c3.745,0.721,7.484,1.427,11.101,2.712
		c7.103,2.526,13.551,6.372,20.146,9.911c8.873,4.762,17.609,9.766,25.733,15.759c2.453,1.809,4.815,3.73,6.895,5.968
		c1.138,1.226,2.306,2.447,2.864,4.085c0.063,0.865-0.519,1.466-0.933,2.104c-2.582,3.977-5.816,7.363-9.546,10.272
		C125.601,51.283,125.009,52.047,124.029,51.625z"/>
	<path fill-rule="evenodd" clip-rule="evenodd" fill="#94D7ED" d="M2.471,39.049c-0.001,0.532,0.361,0.849,0.713,1.154
		c4.119,3.572,7.96,7.458,12.251,10.835c3.709,3.252,7.824,5.955,11.975,8.577c11.454,7.238,23.489,13.373,36.016,18.532
		c2.803,1.154,5.685,2.058,8.776,2.228c3.34,0.185,6.091-1.263,8.843-2.811c1.461-0.822,2.931-1.628,4.378-2.475
		c0.95-0.556,1.245-0.323,1.236,0.767c-0.038,4.67-0.016,9.34-0.016,14.01c0,2.834-0.05,5.669,0.024,8.501
		c0.03,1.133-0.372,1.845-1.279,2.477c-3.027,2.107-6.319,3.463-10.01,3.8c-0.242,0.022-0.47,0.182-0.705,0.276
		c-1.891,0-3.781,0-5.671,0c-7.671-0.355-14.05-4.113-20.474-7.762c-7.52-4.272-15.162-8.322-22.708-12.548
		c-5.109-2.861-9.668-6.454-14.304-9.967c-2.176-1.649-4.117-3.472-5.873-5.613c-2.756-3.36-4.206-7.192-5.237-11.289
		C0.163,56.776,0.312,55.771,0,54.823c0-1.996,0-3.991,0-5.987c0.329-1.85,0.072-3.735,0.324-5.589
		C0.548,41.6,0.687,39.902,2.471,39.049z"/>
	<path fill-rule="evenodd" clip-rule="evenodd" fill="#231F20" d="M512,29.617c-2.724,6.105-5.463,12.204-8.168,18.317
		c-3.004,6.791-6.001,13.584-8.937,20.404c-0.442,1.028-0.986,1.418-2.08,1.315c-1.034-0.097-2.085-0.021-3.38-0.021
		c5.855-13.341,11.641-26.522,17.52-39.916c-1.902,0-3.563,0-5.223,0c-4.302,0-8.604-0.02-12.904,0.016
		c-0.885,0.006-1.302-0.124-1.31-1.178c-0.024-3.156-0.077-3.156,3.099-3.156c6.557,0,13.114-0.003,19.671,0.005
		c0.57,0,1.142,0.076,1.712,0.117C512,26.886,512,28.251,512,29.617z"/>
	<path fill-rule="evenodd" clip-rule="evenodd" fill="#0097A2" d="M124.029,51.625c1.73-0.604,2.985-1.892,4.302-3.063
		c3.305-2.94,6.036-6.366,8.355-10.126c4.255,6.559,5.32,13.588,2.704,20.974c-3.13,8.834-9.556,14.981-17.036,20.204
		c-0.699,0.488-1.053,0.042-1.463-0.314c-4.538-3.938-7.082-8.918-8.148-14.823c-0.545-3.017,0.153-4.949,2.838-6.594
		C118.557,56.059,121.226,53.732,124.029,51.625z"/>
	<path fill-rule="evenodd" clip-rule="evenodd" fill="#231F20" d="M207.288,36.771c-0.21,0.039-0.308,0.062-0.407,0.074
		c-2.881,0.364-5.012-0.375-7.162-2.751c-4.866-5.377-11.306-6.567-18.033-4.372c-6.751,2.205-10.903,7.202-12.128,14.211
		c-1.456,8.333,1.981,15.925,8.625,19.965c7.048,4.286,16.621,2.945,22.08-3.327c1.334-1.532,2.628-2.167,4.533-1.929
		c0.657,0.082,1.333,0.014,2.042,0.014c-2.843,6.6-11.382,13.404-23.388,11.573c-9.67-1.476-18.479-9.856-18.859-22.145
		c-0.326-10.518,6.968-20.463,17.04-22.903C192.116,22.642,203.06,27.542,207.288,36.771z"/>
	<path fill-rule="evenodd" clip-rule="evenodd" fill="#231F20" d="M420.739,65.321c0.921,0,1.426,0,1.931,0
		c6.09,0,12.179,0.029,18.268-0.026c1.142-0.011,1.539,0.225,1.505,1.453c-0.079,2.883-0.008,2.885-2.836,2.885
		c-7.769,0-15.537-0.024-23.306,0.027c-1.105,0.008-1.306-0.289-1.399-1.367c-0.185-2.121,0.551-3.56,2.124-4.999
		c5.344-4.888,10.572-9.903,15.763-14.955c2.328-2.266,4.529-4.669,5.297-8.021c1.244-5.428-2.157-10.775-7.505-11.7
		c-5.898-1.02-10.586,2.45-11.247,8.328c-0.054,0.469-0.048,0.954-0.167,1.405c-0.16,0.611,0.527,1.61-0.352,1.787
		c-1.154,0.232-2.398,0.076-3.597-0.009c-0.355-0.025-0.262-0.515-0.258-0.813c0.066-5.503,1.969-10.157,6.874-12.972
		c4.705-2.701,9.687-2.774,14.327,0.19c4.74,3.027,6.738,7.589,6.318,13.185c-0.326,4.335-2.578,7.726-5.592,10.608
		c-4.816,4.607-9.76,9.081-14.649,13.611C421.856,64.292,421.473,64.646,420.739,65.321z"/>
	<path fill-rule="evenodd" clip-rule="evenodd" fill="#231F20" d="M217.195,40.071c3.973-4.34,8.672-5.051,13.806-4.229
		c4.907,0.787,7.806,3.745,9.069,8.44c0.672,2.497,0.952,5.05,0.957,7.63c0.012,5.461-0.03,10.922,0.035,16.383
		c0.013,1.12-0.291,1.391-1.384,1.367c-2.876-0.063-2.855-0.007-2.882-2.851c-0.055-5.827,0.161-11.656-0.15-17.481
		c-0.067-1.263-0.311-2.492-0.615-3.717c-0.804-3.244-2.825-5.176-6.125-5.739c-7.623-1.302-12.452,2.954-12.604,9.61
		c-0.143,6.197-0.063,12.391-0.083,18.586c-0.004,1.119-0.13,1.657-1.48,1.602c-2.745-0.112-2.749-0.023-2.749-2.815
		c0-13.232,0.023-26.465-0.033-39.697c-0.006-1.407,0.313-2.022,1.77-1.769c0.357,0.062,0.74,0.055,1.1,0.001
		c1.102-0.166,1.415,0.26,1.397,1.373C217.156,31.059,217.195,35.354,217.195,40.071z"/>
	<path fill-rule="evenodd" clip-rule="evenodd" fill="#231F20" d="M329.271,54.976c0-4.41-0.026-8.818,0.021-13.228
		c0.011-0.937-0.187-1.307-1.198-1.241c-1.411,0.092-2.834-0.002-4.25,0.034c-0.671,0.018-0.989-0.202-0.906-0.894
		c0.013-0.104,0.004-0.21,0.001-0.315c-0.08-3.108-0.08-3.108,3.051-3.108c3.281,0,3.281,0,3.281-3.355c0-2.1,0.032-4.2-0.016-6.298
		c-0.019-0.828,0.144-1.179,1.092-1.198c3.266-0.064,3.265-0.107,3.265,3.137c0,2.205,0.044,4.411-0.021,6.614
		c-0.026,0.915,0.284,1.158,1.154,1.118c1.414-0.065,2.836,0.02,4.251-0.032c0.752-0.028,0.951,0.215,0.98,0.969
		c0.129,3.352,0.157,3.351-3.183,3.351c-3.183,0-3.183,0-3.183,3.156c0,8.136-0.024,16.271,0.027,24.407
		c0.007,1.193-0.236,1.617-1.522,1.574c-2.843-0.097-2.846-0.021-2.846-2.883C329.271,62.849,329.271,58.912,329.271,54.976z"/>
	<path fill-rule="evenodd" clip-rule="evenodd" fill="#231F20" d="M385.124,40.026c1.947-2.439,3.952-3.9,6.687-4.234
		c0.99-0.121,1.214,0.168,1.114,1.031c-0.024,0.208-0.002,0.419-0.001,0.629c0.013,2.637,0.026,2.683-2.521,3.41
		c-3.028,0.865-4.431,2.99-4.75,5.954c-0.491,4.548-0.147,9.115-0.224,13.674c-0.044,2.673-0.044,5.349,0.012,8.021
		c0.019,0.885-0.23,1.135-1.126,1.145c-3.233,0.034-3.233,0.071-3.233-3.128c0-9.596,0.023-19.191-0.029-28.787
		c-0.007-1.231,0.307-1.596,1.55-1.549c2.497,0.093,2.5,0.02,2.521,2.565C385.126,39.01,385.124,39.26,385.124,40.026z"/>
	<path fill-rule="evenodd" clip-rule="evenodd" fill="#231F20" d="M316.576,40.818c-5.366-5.94-17.915-8.291-25.394,0.492
		c0-0.829,0-1.489,0-2.149c0-3.021,0-2.984-3.068-2.958c-0.875,0.007-1.142,0.227-1.14,1.127
		c0.028,14.008,0.028,28.016-0.001,42.023c-0.002,0.932,0.312,1.203,1.169,1.101c0.414-0.05,0.846-0.06,1.257,0.001
		c1.368,0.2,1.861-0.224,1.824-1.729c-0.114-4.64-0.041-9.283-0.041-14.111c7.174,8.652,19.85,6.737,25.392,0.608
		C322.661,58.491,322.691,47.587,316.576,40.818z M300.017,65.872c-6.089-2.131-9.751-8.87-8.563-15.761
		c1.008-5.856,6.711-10.738,12.471-10.675c7.166,0.078,12.751,6.116,12.754,13.787C316.681,62.282,308.187,68.731,300.017,65.872z"
		/>
	<path fill-rule="evenodd" clip-rule="evenodd" fill="#231F20" d="M369.164,38.411c-8.518-6.473-25.531-3.372-27.506,12.209
		c-1.033,8.153,3.901,16.394,11.576,19.025c8.041,2.757,16.244-0.35,20.539-7.791c0.467-0.809,1.408-1.799,1.066-2.49
		c-0.397-0.802-1.704-0.256-2.609-0.303c-0.941-0.049-1.82-0.214-2.5,0.981c-2.892,5.087-7.862,7.229-13.767,6.136
		c-5.123-0.948-8.835-4.998-9.832-10.554c-0.213-1.181,0.056-1.419,1.187-1.405c4.565,0.055,9.132,0.022,13.698,0.022
		c4.671,0,9.342-0.002,14.013,0.002c0.625,0,1.225,0.152,1.193-0.893C376.046,47.33,374.097,42.159,369.164,38.411z M370.364,50.5
		c-3.83,0.012-7.66,0.006-11.49,0.006c-3.778,0-7.557-0.035-11.333,0.022c-1.107,0.017-1.474-0.205-1.196-1.392
		c1.461-6.255,6.315-9.942,12.978-9.774c6.113,0.154,10.814,4.249,11.971,10.303C371.502,50.759,370.876,50.498,370.364,50.5z"/>
	<path fill-rule="evenodd" clip-rule="evenodd" fill="#231F20" d="M280.336,39.199c0-3.064,0-3.01-3.061-3.004
		c-1.036,0.002-1.233,0.373-1.18,1.282c0.068,1.182,0.017,2.372,0.017,3.982c-6.227-7.913-17.939-7.245-24.029-1.847
		c-7.047,6.246-8.009,17.664-1.951,24.843c3.105,3.679,7.052,5.723,11.845,6.013c5.522,0.333,10.27-1.398,14.135-5.935
		c0,1.063,0,1.786,0,2.509c0,2.6,0.003,2.516,2.651,2.626c1.36,0.058,1.609-0.392,1.603-1.661
		C280.311,58.404,280.336,48.801,280.336,39.199z M263.183,66.501c-7.053-0.062-12.672-6.015-12.625-13.374
		c0.049-7.702,5.825-13.749,13.077-13.691c6.75,0.055,12.517,6.265,12.466,13.427C276.046,60.519,270.32,66.563,263.183,66.501z"/>
	<path fill-rule="evenodd" clip-rule="evenodd" fill="#231F20" d="M476.688,57.271c-0.461,0.07-0.954-0.054-1.413,0.023
		c-1.247,0.21-1.453-0.361-1.438-1.486c0.062-4.83,0.026-9.66,0.026-14.49c0-4.252,0-8.505,0-12.758c0-3.164,0-3.161-3.179-3.162
		c-0.982,0-1.822-0.076-2.518,1.043c-6.029,9.704-12.129,19.365-18.265,29.003c-0.828,1.301-1.162,2.581-1.184,4.109
		c-0.02,1.37,0.426,1.611,1.688,1.597c5.879-0.068,11.76,0.015,17.639-0.064c1.296-0.018,1.589,0.399,1.499,1.575
		c-0.095,1.252-0.021,2.519-0.021,3.778c0,3.441-0.002,3.418,3.466,3.213c0.678-0.04,0.906-0.21,0.888-0.9
		c-0.044-1.679-0.015-3.359-0.014-5.04c0-2.592,0-2.592,2.622-2.592c2.146,0,2.007-0.013,2.188-1.967
		C478.828,57.466,478.187,57.043,476.688,57.271z M469.812,32.157c-0.021,7.866-0.092,15.731-0.069,23.597
		c0.003,1.255-0.35,1.575-1.579,1.558c-4.822-0.071-9.646-0.029-14.823-0.029c5.496-8.914,10.839-17.581,16.197-26.271
		C470.047,31.335,469.813,31.795,469.812,32.157z"/>
</g>
</svg>
