<?xml version="1.0" encoding="utf-8"?>
<!-- Generator: Adobe Illustrator 16.0.0, SVG Export Plug-In . SVG Version: 6.00 Build 0)  -->
<!DOCTYPE svg PUBLIC "-//W3C//DTD SVG 1.1//EN" "http://www.w3.org/Graphics/SVG/1.1/DTD/svg11.dtd">
<svg version="1.1" id="Layer_1" xmlns="http://www.w3.org/2000/svg" xmlns:xlink="http://www.w3.org/1999/xlink" x="0px" y="0px"
	 width="514.577px" height="319.148px" viewBox="0 0 514.577 319.148" enable-background="new 0 0 514.577 319.148"
	 xml:space="preserve">
<g>
	<g>
		<path fill-rule="evenodd" clip-rule="evenodd" fill="#FFFFFF" d="M508.974,117.609c-5.271-19.576-13.742-37.744-26.444-53.746
			c-0.852-1.222-1.642-2.492-2.563-3.658c-12.47-15.789-27.346-28.784-44.817-38.821C409.202,6.479,381.413-1.054,351.399,0.119
			c-2.336-0.008-199.704-0.569-201.057,0.834c-11.839,2.041-18.975,12.084-17.97,25.291c0.783,10.289,10.88,19.619,21.539,19.707
			c12.826,0.105,25.656-0.088,38.479,0.117c11.063,0.177,19.107,8.414,20.856,16.974c3.308,16.185-6.888,27.998-23.57,28.07
			c-17.824,0.077-35.649,0.06-53.474,0.012c-5.873-0.016-11.067,1.646-15.695,5.312c-6.499,5.146-10.214,15.28-7.648,23.35
			c2.718,8.548,8.095,14.643,17.524,16.4c8.614,1.605,17.262,0.531,25.889,0.77c13.539,0.373,23.145,9.758,23.125,22.901
			c-0.019,12.395-10.249,22.172-23.274,22.19c-15.492,0.021-30.985-0.068-46.477,0.023c-13.473,0.079-23.76,9.307-24.195,21.488
			c-0.495,13.866,9.232,24.217,23.316,24.326c22.32,0.172,44.645-0.056,66.966,0.131c14.11,0.118,24.439,14.622,20.986,28.276
			c-2.101,8.311-12.576,17.479-23.213,16.947c-9.191-0.461-16.701,4.337-20.309,12.729c-3.631,8.443-3.365,17.332,3.161,24.836
			c6.966,8.009,16.135,8.549,26.041,8.299c0.664,0.044,176.125-0.999,178.197-0.999h0.001c0,0,12.704-0.359,18.874-1.44
			c27.12-4.749,51.902-14.776,73.65-32.227c24.096-19.334,41.975-42.957,52.194-72.117
			C516.231,181.183,517.558,149.484,508.974,117.609z M469.171,88.234c-0.031-0.06-0.063-0.118-0.094-0.177
			c0.069,0.036,0.124,0.053,0.19,0.084C469.234,88.173,469.204,88.204,469.171,88.234z"/>
		<path fill-rule="evenodd" clip-rule="evenodd" fill="#FFFFFF" d="M76.152,132.694c8.379-6.738,11.45-16.728,8.194-26.28
			c-3.153-9.253-12.127-15.259-22.908-15.275c-12.323-0.021-24.649,0.138-36.97-0.056c-5.937-0.093-11.067,1.61-15.756,5.111
			c-6.894,5.147-10.241,15.097-8.043,24.16c1.754,7.235,9.975,14.358,17.552,15.829c8.286,1.609,16.604,0.252,23.766,0.848
			c7.281,0,13.446,0.131,19.604-0.04C66.78,136.848,71.918,136.098,76.152,132.694z"/>
		<path fill-rule="evenodd" clip-rule="evenodd" fill="#FFFFFF" d="M101.906,273.128c-8.308-0.196-16.625-0.17-24.935-0.018
			c-10.357,0.189-19.482,8.347-21.426,18.882c-1.867,10.124,4.374,21.101,13.755,25.05c6.611,2.784,13.423,1.441,19.209,1.861
			c5.1,0,9.259,0.112,13.411-0.021c12.685-0.405,22.524-10.602,22.451-23.158C124.301,283.371,114.534,273.427,101.906,273.128z"/>
		<path fill-rule="evenodd" clip-rule="evenodd" fill="#FFFFFF" d="M81.853,45.974c13.046,0.045,23.551-10.05,23.517-22.6
			c-0.035-12.807-9.998-23.137-22.421-23.245c-13.322-0.115-23.685,9.957-23.665,23.006C59.303,36.07,69.046,45.93,81.853,45.974z"
			/>
	</g>
	<g>
		<path fill-rule="evenodd" clip-rule="evenodd" fill="#E25C26" d="M336.898,248.667c-32.347-37.652-66.103-73.002-76.108-122.688
			c-8.006-39.755,21.205-79.594,61.724-86.698c42.398-7.434,83.728,19.296,90.04,59.862c1.985,12.76,1.636,27.154-2.258,39.323
			C396.543,181.449,367.508,214.745,336.898,248.667z M381.11,153.424c0-16.056,0.089-31.205-0.11-46.353
			c-0.025-1.907-1.06-4.438-2.497-5.591c-13.729-11.004-27.646-21.775-41.467-32.581c-13.902,10.844-26.784,20.795-39.516,30.937
			c-1.838,1.463-4.15,3.82-4.193,5.808c-0.344,15.77-0.191,31.549-0.191,47.564c11.089,0,20.664,0,31.088,0
			c0-6.843,0.511-13.004-0.114-19.048c-1.047-10.115,5.432-11.54,12.773-11.507c7.117,0.032,14.057,0.812,13.116,11.154
			c-0.578,6.332-0.106,12.762-0.106,19.616C360.624,153.424,369.907,153.424,381.11,153.424z"/>
		<path fill-rule="evenodd" clip-rule="evenodd" fill="#E25C26" d="M322.069,240.901c-11.127,3.01-19.615,4.592-27.477,7.735
			c-3.813,1.522-6.455,5.974-9.626,9.1c3.088,2.797,5.8,7.313,9.333,8.088c14.355,3.153,28.962,7.048,43.478,7.053
			c14.146,0.003,28.392-3.972,42.363-7.188c3.451-0.792,6.015-5.429,8.987-8.3c-2.936-2.918-5.374-7.124-8.91-8.49
			c-7.995-3.089-16.532-4.777-28.561-8.041c5.71-2.668,9.549-6.153,12.539-5.535c8.693,1.798,17.778,3.97,25.374,8.325
			c12.325,7.063,12.348,21.517-0.395,27.611c-10.787,5.158-23.165,8.956-35.011,9.48c-18.214,0.807-36.643-1.113-54.837-3.146
			c-6.057-0.675-12.268-4.449-17.371-8.213c-8.224-6.064-8.991-17.947-0.469-23.172c8.917-5.471,19.648-8.231,29.885-11.109
			C313.704,234.443,317.271,238.169,322.069,240.901z"/>
		<path fill-rule="evenodd" clip-rule="evenodd" fill="#E25C26" d="M299.888,257.354c12.09-11.893,23.131-11.901,36.624-0.568
			c16.902-10.915,26.02-10.911,37.171,0.021C363.724,271.218,314.313,271.948,299.888,257.354z"/>
	</g>
</g>
<rect x="1249.589" y="-2518.234" fill-rule="evenodd" clip-rule="evenodd" width="896" height="1368"/>
</svg>
