<?xml version="1.0" encoding="utf-8"?>
<!-- Generator: Adobe Illustrator 16.0.0, SVG Export Plug-In . SVG Version: 6.00 Build 0)  -->
<!DOCTYPE svg PUBLIC "-//W3C//DTD SVG 1.1//EN" "http://www.w3.org/Graphics/SVG/1.1/DTD/svg11.dtd">
<svg version="1.1" id="Layer_1" xmlns="http://www.w3.org/2000/svg" xmlns:xlink="http://www.w3.org/1999/xlink" x="0px" y="0px"
	 width="837.682px" height="684.058px" viewBox="0 0 837.682 684.058" enable-background="new 0 0 837.682 684.058"
	 xml:space="preserve">
<g>
	<g>
		<g enable-background="new    ">
			<path fill="#888888" d="M631.267,455.194l-269,156.325c-11.558,6.716-30.348,6.716-41.969,0.006l-59.267-34.218l-59.267-34.217
				c-5.854-3.381-8.778-7.816-8.766-12.243l-0.054,19.332c-0.013,4.427,2.912,8.863,8.765,12.243l59.267,34.218l59.267,34.217
				c11.622,6.709,30.412,6.709,41.97-0.007L631.21,474.525c5.736-3.332,8.607-7.695,8.619-12.067l0.057-19.331
				C639.87,447.496,637.001,451.859,631.267,455.194z"/>
			<g>
				<path fill="#B2B2B2" d="M631.13,430.891c11.619,6.71,11.68,17.593,0.137,24.303l-269,156.325
					c-11.558,6.716-30.348,6.716-41.969,0.006l-59.267-34.218l-59.267-34.217c-11.634-6.718-11.695-17.602-0.137-24.316
					l268.997-156.325c11.546-6.71,30.336-6.71,41.969,0.006l59.268,34.219L631.13,430.891z"/>
			</g>
		</g>
		<g>
			<g>
				<path fill="#FFFFFF" d="M627.515,432.758c0.947,0.546,1.779,1.129,2.539,1.74c6.975,5.566,6.188,13.391-2.426,18.396
					l-82.35,47.855L358.63,609.22c-9.565,5.558-25.161,5.558-34.775,0.006l-59.267-34.217l127.78-74.257L506.37,434.5l61.879-35.96
					L627.515,432.758z"/>
			</g>
			<g>
				<path fill="#F2F2F2" d="M568.249,398.541L506.37,434.5l-114.002,66.252l-127.78,74.257l-59.267-34.218
					c-9.627-5.558-9.678-14.593-0.113-20.151l34.223-19.888L353.434,434.5l120.771-70.185c9.553-5.55,25.148-5.55,34.776,0.008
					L568.249,398.541z"/>
			</g>
		</g>
		<g>
			<path fill="#888888" d="M530.646,394.15c1.191,0.688,1.543,1.773,0.725,2.676c-0.998,1.109-3.36,1.531-5.276,0.947
				c-0.358-0.107-0.675-0.244-0.948-0.402c-1.186-0.686-1.529-1.764-0.717-2.664c1-1.107,3.375-1.537,5.289-0.954
				C530.066,393.861,530.378,393.995,530.646,394.15z"/>
		</g>
		<g>
			<g>
				<path fill="#FFFFFF" d="M290.836,560.284c1.614,0.932,2.792,2.118,3.34,3.443c0.007,0.018,0.015,0.036,0.022,0.057
					c0.009,0.021,0.018,0.043,0.026,0.065c0.188,0.491,0.289,1,0.293,1.522c0.01,1.72-1.03,3.3-2.77,4.539
					c-0.066,0.049-0.133,0.094-0.202,0.141s-0.138,0.092-0.208,0.136c-0.143,0.092-0.287,0.182-0.437,0.27
					c-0.107,0.062-0.162,0.092-0.218,0.122c-0.044,0.024-0.09,0.049-0.133,0.073c-0.029,0.015-0.056,0.031-0.084,0.045
					c-0.057,0.03-0.116,0.062-0.174,0.09c-0.114,0.058-0.18,0.09-0.247,0.122c-0.094,0.045-0.163,0.078-0.231,0.108
					c-0.097,0.045-0.163,0.075-0.231,0.104c-0.104,0.047-0.169,0.073-0.233,0.101c-0.115,0.047-0.174,0.071-0.232,0.094
					c-0.028,0.012-0.057,0.022-0.085,0.034c-0.049,0.019-0.099,0.039-0.148,0.058c-0.043,0.016-0.087,0.032-0.132,0.049
					c-0.032,0.012-0.063,0.022-0.095,0.034c-0.066,0.022-0.132,0.047-0.2,0.069c-1.877,0.645-4.026,1.009-6.323,1.011
					c-2.296-0.002-4.45-0.366-6.301-0.998c-0.101-0.035-0.167-0.06-0.233-0.082c-0.032-0.012-0.064-0.022-0.096-0.034
					c-0.044-0.017-0.088-0.033-0.132-0.049c-0.05-0.019-0.1-0.039-0.149-0.058c-0.028-0.012-0.057-0.022-0.085-0.034
					c-0.059-0.022-0.118-0.047-0.176-0.069c-0.122-0.052-0.187-0.078-0.25-0.106c-0.109-0.047-0.177-0.077-0.244-0.107
					c-0.099-0.045-0.168-0.078-0.236-0.11c-0.094-0.045-0.16-0.077-0.227-0.11c-0.107-0.053-0.166-0.084-0.223-0.114
					c-0.028-0.014-0.057-0.03-0.084-0.045c-0.045-0.024-0.091-0.049-0.134-0.073c-0.057-0.03-0.112-0.061-0.168-0.094
					c-0.204-0.116-0.35-0.206-0.491-0.295c-0.071-0.047-0.142-0.092-0.21-0.139c-0.069-0.047-0.136-0.092-0.203-0.139
					c-1.755-1.241-2.813-2.821-2.822-4.541c-0.001-0.522,0.095-1.031,0.276-1.522c0.008-0.022,0.017-0.045,0.024-0.065
					c0.007-0.021,0.016-0.039,0.022-0.057c1.042-2.595,4.509-4.651,8.936-5.32c0.128-0.021,0.181-0.026,0.234-0.034
					c0.069-0.011,0.138-0.019,0.208-0.028c0.885-0.112,1.774-0.17,2.685-0.17s1.8,0.058,2.657,0.168
					c0.1,0.012,0.169,0.02,0.238,0.03c0.053,0.008,0.106,0.014,0.159,0.022C287.349,558.733,289.292,559.393,290.836,560.284z"/>
			</g>
			<g>
				<path fill="#B2B2B2" d="M294.426,558.204c6.852,3.956,6.9,10.374,0.081,14.338c-6.806,3.954-17.9,3.954-24.751,0l3.585-2.085
					c0.106,0.062,0.161,0.092,0.218,0.122c0.043,0.024,0.088,0.049,0.134,0.073c0.027,0.015,0.056,0.031,0.084,0.045
					c0.058,0.03,0.116,0.062,0.175,0.09c0.114,0.058,0.181,0.09,0.248,0.122c0.095,0.045,0.164,0.078,0.233,0.11
					c0.096,0.043,0.164,0.073,0.231,0.102c0.106,0.047,0.17,0.073,0.235,0.101c0.115,0.049,0.174,0.071,0.233,0.094
					c0.028,0.012,0.057,0.022,0.085,0.034c0.05,0.019,0.099,0.039,0.149,0.058c0.044,0.016,0.088,0.032,0.132,0.049
					c0.032,0.012,0.064,0.022,0.096,0.034c0.066,0.022,0.132,0.047,0.2,0.069c1.884,0.645,4.039,1.009,6.334,1.011
					c2.297-0.002,4.446-0.366,6.29-0.998c0.101-0.035,0.167-0.06,0.233-0.082c0.032-0.012,0.063-0.022,0.095-0.034
					c0.045-0.017,0.089-0.033,0.132-0.049c0.05-0.019,0.098-0.039,0.148-0.058c0.028-0.012,0.057-0.022,0.085-0.034
					c0.058-0.022,0.117-0.047,0.175-0.069c0.122-0.052,0.186-0.078,0.25-0.106c0.108-0.047,0.175-0.077,0.241-0.107
					c0.099-0.045,0.168-0.078,0.235-0.11c0.094-0.045,0.16-0.077,0.226-0.11c0.106-0.053,0.164-0.084,0.222-0.114
					c0.028-0.014,0.056-0.03,0.084-0.045c0.045-0.024,0.088-0.049,0.133-0.073c0.056-0.03,0.111-0.061,0.166-0.094
					c0.202-0.116,0.347-0.206,0.488-0.295c0.071-0.047,0.141-0.092,0.209-0.139s0.136-0.092,0.201-0.139
					c1.741-1.241,2.781-2.821,2.771-4.541c-0.004-0.522-0.106-1.031-0.293-1.522c-0.008-0.022-0.017-0.043-0.026-0.065
					c-0.007-0.021-0.015-0.039-0.022-0.057c-0.513-1.264-1.62-2.465-3.322-3.447L294.426,558.204z"/>
			</g>
			<g>
				<path fill="#888888" d="M294.426,558.204l-3.573,2.076c-1.626-0.939-3.594-1.563-5.673-1.873
					c-0.128-0.021-0.181-0.026-0.234-0.034c-0.069-0.011-0.139-0.019-0.208-0.028c-0.887-0.112-1.776-0.17-2.687-0.17
					s-1.8,0.058-2.655,0.168c-0.101,0.012-0.169,0.02-0.238,0.03c-0.054,0.008-0.106,0.014-0.159,0.022
					c-2.151,0.322-4.112,0.945-5.728,1.885c-1.691,0.982-2.784,2.184-3.283,3.447c-0.007,0.018-0.015,0.036-0.022,0.057
					c-0.008,0.022-0.016,0.043-0.024,0.065c-0.181,0.491-0.277,1-0.276,1.522c0.009,1.72,1.067,3.3,2.821,4.539
					c0.067,0.049,0.134,0.094,0.203,0.141c0.069,0.047,0.14,0.092,0.21,0.136c0.143,0.092,0.289,0.182,0.438,0.268l-3.581,2.087
					c-6.865-3.964-6.888-10.382-0.081-14.338C276.495,554.241,287.562,554.241,294.426,558.204z"/>
			</g>
		</g>
		<g>
			<g>
				<path fill="#888888" d="M559.153,403.837l-2.922,1.697c-0.643-0.371-0.834-0.934-0.396-1.42
					c0.537-0.592,1.807-0.816,2.826-0.504C558.851,403.662,559.001,403.75,559.153,403.837z"/>
			</g>
			<g>
				<path fill="#B2B2B2" d="M559.153,403.837c0.631,0.364,0.834,0.934,0.41,1.414c-0.549,0.598-1.82,0.821-2.838,0.51
					c-0.203-0.06-0.354-0.146-0.494-0.227L559.153,403.837z"/>
			</g>
		</g>
		<g>
			<g>
				<path fill="#B2B2B2" d="M565.46,414.792c1.705,0.984,1.713,2.572,0.021,3.557c-1.693,0.982-4.436,0.982-6.137,0l-12.582-7.265
					l6.119-3.555L565.46,414.792z"/>
			</g>
			<g>
				<path fill="#888888" d="M552.882,407.53l-6.119,3.555l-12.58-7.264c-1.703-0.982-1.713-2.57-0.02-3.555
					c1.691-0.982,4.433-0.982,6.137,0L552.882,407.53z"/>
			</g>
		</g>
		<g>
			<polygon fill="#35979D" points="256.064,531.306 297.818,555.413 367.318,595.538 477.859,531.297 488.739,524.975 
				245.1,524.975 			"/>
			<polygon fill="#35979D" points="535.024,417.564 465.524,377.437 390.981,420.757 540.557,420.757 			"/>
			<polygon fill="#51BABF" points="562.052,433.167 540.557,420.757 390.981,420.757 369.623,433.167 228.317,515.287 
				245.1,524.975 488.739,524.975 604.522,457.689 			"/>
		</g>
	</g>
	<path fill="#FFFFFF" d="M634.769,246.436c-3.67-2.12-6.652-0.421-6.664,3.798s2.949,9.348,6.621,11.468s6.652,0.421,6.666-3.798
		C641.401,253.686,638.44,248.556,634.769,246.436"/>
	<path fill="#FFFFFF" d="M634.769,216.423c-3.67-2.12-6.652-0.421-6.664,3.798c-0.012,4.219,2.949,9.348,6.621,11.469
		c3.672,2.12,6.652,0.421,6.666-3.798C641.401,223.673,638.44,218.543,634.769,216.423"/>
	<path fill="#FFFFFF" d="M634.769,186.412c-3.67-2.121-6.652-0.421-6.664,3.797c-0.012,4.219,2.949,9.349,6.621,11.468
		c3.672,2.12,6.652,0.421,6.666-3.798C641.401,193.661,638.44,188.532,634.769,186.412"/>
	<path fill="#FFFFFF" d="M670.474,284.595c-3.674-2.12-6.652-0.421-6.666,3.797c-0.012,4.219,2.949,9.349,6.621,11.468
		s6.652,0.421,6.664-3.798C677.104,291.843,674.144,286.714,670.474,284.595"/>
	<path fill="#FFFFFF" d="M670.474,254.583c-3.674-2.12-6.652-0.421-6.666,3.798c-0.012,4.219,2.949,9.348,6.621,11.468
		c3.672,2.12,6.652,0.421,6.664-3.798C677.104,261.832,674.144,256.702,670.474,254.583"/>
	<path fill="#FFFFFF" d="M735.655,524.81c-3.672-2.119-6.652-0.422-6.666,3.798c-0.012,4.219,2.949,9.349,6.623,11.468
		c3.67,2.12,6.652,0.422,6.662-3.797C742.286,532.06,739.325,526.93,735.655,524.81"/>
	<path fill="#FFFFFF" d="M735.655,498.973c-3.672-2.12-6.652-0.422-6.666,3.797c-0.012,4.219,2.949,9.349,6.623,11.469
		c3.67,2.119,6.652,0.42,6.662-3.799C742.286,506.22,739.325,501.092,735.655,498.973"/>
	<g>
		<defs>
			<path id="SVGID_1_" d="M262.903,416.117l160.207,92.14c7.842,4.511,17.49,4.503,25.322-0.018l144.561-87.481l-34.256-232.374
				H262.903V416.117z"/>
		</defs>
		<clipPath id="SVGID_2_">
			<use xlink:href="#SVGID_1_"  overflow="visible"/>
		</clipPath>
		<g clip-path="url(#SVGID_2_)">
			
				<path fill="none" stroke="#C84227" stroke-width="13" stroke-linecap="round" stroke-linejoin="round" stroke-miterlimit="10" d="
				M399.342,374.779c0,0-25.973,96.797-73.06,44.422c0,0-21.244-25.455-22.121-60.305"/>
			<path fill="#F0522C" d="M464.236,413.08l-0.33,116.706c-0.028,10.02-5.368,19.271-14.03,24.307l0,0
				c-8.738,5.079-19.525,5.094-28.279,0.041l-41.825-24.15c-8.75-5.053-14.13-14.399-14.102-24.504l0.26-93.067
				c0.005-1.639,0.323-3.247,0.436-4.882c1.084-15.738,6.643-27.115,14.866-40.104c2.584-4.082,6.187-7.435,10.435-9.736
				c2.476-1.343,4.806-2.56,6.68-3.524c2.859-1.472,5.947-2.45,9.137-2.863c8.782-1.14,16.917-1.576,21.816,1.253
				c4.633,2.687,12.17,9.937,14.939,12.669c0.69,0.682,1.343,1.378,1.959,2.124C457.001,380.452,464.277,397.881,464.236,413.08z"/>
			<path fill="#FAB18D" d="M426.305,378.177c8.797-5.073,9.169-17.936,0.407-23.07c-0.057-0.032-0.113-0.067-0.173-0.1
				c-4.168-2.407-8.491-3.614-12.39-4.07c-2.562-0.302-5.148,0.216-7.452,1.38l-9.773,4.938c-7.257,4.217-8.616,14.18-2.703,20.137
				c2.152,2.166,4.484,4.018,6.918,5.424c6.365,3.674,10.914,2.978,16.183,0.516c0.387-0.182,0.758-0.381,1.127-0.598
				C420.853,381.328,423.579,379.748,426.305,378.177z"/>
			<g>
				<path fill="#F9A57A" d="M420.694,334.81c-4.107-2.368-10.825-2.492-14.932-0.277c-4.106,2.214-4.084,6.521,0.019,8.894
					c4.103,2.373,10.816,2.373,14.919,0C424.803,341.053,424.801,337.176,420.694,334.81z"/>
				<g>
					<path fill="#F09365" d="M420.7,343.426c-4.104,2.372-10.817,2.372-14.919,0c-2.091-1.209-3.116-2.921-3.08-4.602l-0.008-0.002
						v20.154l0.015,0.004c0.069,1.598,1.09,3.198,3.073,4.345c4.103,2.372,10.816,2.372,14.919,0
						c2.066-1.196,3.09-2.773,3.071-4.347l0.004-0.002v-19.861C423.775,340.677,422.751,342.239,420.7,343.426z"/>
					<path fill="#FAB18D" d="M423.751,338.828c0.008,0.096,0.024,0.191,0.024,0.287v-0.293L423.751,338.828z"/>
				</g>
			</g>
			<path fill="#FAB18D" d="M456.286,280.875v29.782c0,23.792-19.285,43.057-43.056,43.057c-23.771,0-43.056-19.265-43.056-43.057
				v-29.782c0-3.465,0.417-6.825,1.189-10.039c0.188-0.855,0.418-1.69,0.689-2.525c5.363-17.635,21.789-30.471,41.177-30.471
				c11.876,0,22.644,4.821,30.45,12.606C451.466,258.229,456.286,268.978,456.286,280.875z"/>
			<path fill="#D8664F" d="M397.162,328.03c-0.467-0.27-0.902-0.199-1.096,0.206c-0.342,0.731-0.854,1.29-1.472,1.666
				c-0.639,0.364-1.383,0.497-2.191,0.421c-0.85-0.075-1.768-0.398-2.686-0.928c-0.918-0.53-1.835-1.267-2.683-2.171
				c-0.805-0.856-1.547-1.846-2.181-2.945c-0.635-1.099-1.12-2.234-1.457-3.357c-0.19-0.626-0.637-1.206-1.101-1.474
				c-0.15-0.086-0.302-0.14-0.446-0.153c-0.595-0.05-0.895,0.583-0.642,1.414c0.462,1.537,1.139,3.051,1.985,4.517
				c0.846,1.465,1.82,2.81,2.923,3.983c1.145,1.197,2.353,2.189,3.584,2.899c1.252,0.724,2.462,1.129,3.611,1.254
				c1.083,0.087,2.083-0.092,2.935-0.602c0.851-0.485,1.513-1.227,1.983-2.226c0.257-0.535-0.018-1.499-0.61-2.135
				C397.466,328.24,397.313,328.117,397.162,328.03"/>
			<path fill="#010101" d="M375.229,277.392c-0.976-0.563-1.785-0.103-1.788,1.043l-0.014,4.683c-0.004,1.146,0.8,2.514,1.776,3.078
				c0.998,0.576,1.807,0.139,1.81-1.007l0.013-4.683C377.03,279.36,376.227,277.968,375.229,277.392"/>
			<path fill="#845E43" d="M380.255,275.949c-0.167,0.417-0.627,0.458-1.085,0.188l-0.459-0.376
				c-1.461-1.544-3.027-2.817-4.592-3.715c-0.938-0.542-1.856-0.938-2.754-1.21c0.188-0.855,0.418-1.69,0.689-2.525
				c0.689,0.271,1.378,0.627,2.065,1.023c1.879,1.085,3.778,2.608,5.532,4.465C380.234,274.446,380.505,275.406,380.255,275.949z"/>
			<path fill="#010101" d="M404.432,294.251c-0.977-0.563-1.786-0.102-1.79,1.043l-0.012,4.683
				c-0.004,1.146,0.799,2.514,1.775,3.078c0.999,0.576,1.808,0.14,1.81-1.007l0.014-4.683
				C406.231,296.22,405.428,294.829,404.432,294.251"/>
			<path fill="#845E43" d="M405.589,287.507c-1.885-1.088-3.771-1.75-5.513-1.9c-0.616-0.063-0.894,0.583-0.641,1.412
				c0.188,0.621,0.627,1.18,1.084,1.444c0.155,0.089,0.313,0.146,0.463,0.158c1.455,0.132,3.027,0.685,4.6,1.594
				c1.574,0.908,3.147,2.171,4.61,3.724l0.444,0.379c0.467,0.27,0.893,0.198,1.084-0.204c0.257-0.536-0.017-1.5-0.609-2.136
				C409.364,290.114,407.477,288.597,405.589,287.507"/>
			<path fill="#F09365" d="M393.116,285.547c-0.069-0.841-0.522-1.614-1.274-2.05l-1.082-0.629c-1.567-0.91-3.562,0.008-3.89,1.79
				l-4.19,22.77c-0.411,2.232,0.641,4.479,2.618,5.595l0.769,0.433c0.642,0.362,1.366,0.32,1.943,0.004
				c0.005-0.003,0.01,0,0.014-0.003l4.212-2.654c0.563-0.336,0.91-0.946,0.91-1.603V285.62
				C393.146,285.588,393.123,285.574,393.116,285.547z"/>
			<g>
				<path fill="#F69E72" d="M453.804,296.847c-1.338-0.772-2.591-1.104-3.676-1.071l-9.369,5.445
					c1.082-0.033,2.336,0.299,3.676,1.072c4.349,2.511,7.903,8.667,7.889,13.666c-0.008,2.499-0.896,4.259-2.323,5.088l9.372-5.446
					c1.426-0.83,2.314-2.589,2.32-5.088C461.707,305.514,458.155,299.359,453.804,296.847z"/>
				<g>
					<path fill="#FAB18D" d="M444.433,302.293c4.351,2.511,7.905,8.667,7.891,13.667c-0.014,5.023-3.591,7.062-7.942,4.55
						c-1.337-0.772-2.589-1.885-3.669-3.194l0.047-16.095C441.841,301.188,443.095,301.521,444.433,302.293z"/>
				</g>
				<g>
					<g>
						<path fill="#E88861" d="M444.399,306.879c-1.474-0.851-2.904-0.795-3.673,0.312l-0.015,4.901
							c0.402,1.062,1.016,2.101,1.82,2.98c0.594,0.675,1.225,1.197,1.847,1.556c1.573,0.908,3.092,0.774,3.825-0.553
							c1.006-1.837,0.143-5.267-1.975-7.662C445.643,307.75,445.017,307.235,444.399,306.879"/>
					</g>
				</g>
			</g>
			
				<path fill="none" stroke="#FAB18D" stroke-width="11" stroke-linecap="round" stroke-linejoin="round" stroke-miterlimit="10" d="
				M306.491,353.448c-7.218-7.568-15.432-17.247-17.362-23.875"/>
			
				<path fill="none" stroke="#C84227" stroke-width="13" stroke-linecap="round" stroke-linejoin="round" stroke-miterlimit="10" d="
				M452.323,401.453c0,0,44.572,89.763,80.393,29.121c0,0,15.797-29.148,9.777-63.486"/>
			
				<path fill="none" stroke="#FAB18D" stroke-width="11" stroke-linecap="round" stroke-linejoin="round" stroke-miterlimit="10" d="
				M539.134,362.206c5.582-8.841,11.723-19.952,12.307-26.831"/>
			<path fill="#3C2517" d="M367.87,248.316c0,0-4.22,18.089,12.476,21.914c16.697,3.827,22.649-4.905,36.843,6.922
				c14.195,11.827,4.676,20.972,8.85,26.156c4.174,5.185-0.559,10.971,7.058,12.49c7.616,1.518,8.817-8.282,7.663-14.577
				l8.758-3.016c7.121-2.453,11.598-9.509,10.78-16.997l-1.62-14.84c-1.47-13.448-10.289-24.967-22.889-29.893l0,0
				c-15.292-5.98-32.384-5.32-47.169,1.82L367.87,248.316z"/>
			<path fill="#3C2517" d="M367.87,248.316c0,0-4.22,18.089,12.476,21.914c16.697,3.827,22.649-4.905,36.843,6.922
				c14.195,11.827,4.676,20.972,8.85,26.156c4.174,5.185-0.559,10.971,7.058,12.49c7.616,1.518,8.817-8.282,7.663-14.577
				l8.758-3.016c7.121-2.453,11.598-9.509,10.78-16.997l-1.62-14.84c-1.47-13.448-10.289-24.967-22.889-29.893l0,0
				c-15.292-5.98-32.384-5.32-47.169,1.82L367.87,248.316z"/>
			<path fill="#3C2517" d="M453.614,271.065v13.127h-6.262v-13.127c0-15.026-8.222-28.78-21.453-35.918l-4.154-2.232
				c4.76,0.583,9.476,1.774,14.045,3.569c1.838,0.71,3.592,1.586,5.261,2.588C449.024,247.628,453.614,259.002,453.614,271.065z"/>
			<circle fill="#F09365" cx="392.071" cy="309.646" r="3.196"/>
			<g>
				<g>
					<path fill="#F6851F" d="M402.463,341.178l14.78,3.5c15.853,2.773,25.107-13.534,27.59-24.018l-5.775-1.369
						c-1.729,7.3-8.672,23.291-20.447,19.61l-14.78-3.5L402.463,341.178z"/>
				</g>
				<circle fill="#333333" cx="403.791" cy="338.442" r="6.425"/>
				<circle fill="#676767" cx="405.22" cy="337.56" r="3.613"/>
			</g>
			<ellipse fill="#676767" cx="450.481" cy="303.308" rx="18.851" ry="22.372"/>
			<g>
				<path fill="#F6851F" d="M453.614,271.065v13.127h-6.262v-13.127c0-15.026-8.222-28.78-21.453-35.918l-4.154-2.232l-0.813-0.438
					c-4.779-2.567-10.415-2.441-15.091,0.334c-0.167,0.104-0.334,0.209-0.501,0.313c-3.63,0.542-7.2,1.44-10.685,2.671
					c1.794-3.402,4.507-6.303,7.972-8.369c6.575-3.923,14.525-4.091,21.268-0.46l4.967,2.672c4.633,2.504,8.724,5.698,12.188,9.434
					C449.024,247.628,453.614,259.002,453.614,271.065z"/>
			</g>
			<ellipse fill="#FBAF30" cx="454.939" cy="303.308" rx="15.882" ry="22.372"/>
			<ellipse fill="#F6851F" cx="459.63" cy="303.308" rx="9.149" ry="12.888"/>
		</g>
	</g>
	<g>
		<g>
			<polygon fill="#51BABF" points="723.931,455.654 731.284,451.38 713.53,476.358 706.175,480.632 			"/>
			<path fill="#51BABF" d="M765.573,367.332l-103.297-59.638c-4.111-2.373-7.836-2.593-10.525-1.03l-7.354,4.274
				c2.688-1.563,6.414-1.343,10.523,1.03l103.297,59.638c8.154,4.708,14.756,16.142,14.729,25.527l-0.197,69.698
				c-0.012,4.655-1.66,7.933-4.313,9.476l7.354-4.274c2.654-1.543,4.301-4.82,4.313-9.475l0.197-69.699
				C780.327,383.474,773.728,372.041,765.573,367.332z"/>
			<path fill="#35979D" d="M758.218,371.606c8.154,4.708,14.756,16.142,14.729,25.527l-0.197,69.698
				c-0.027,9.371-6.672,13.158-14.826,8.448l-33.992-19.626l-17.756,24.979l-17.568-45.371l-33.98-19.619
				c-8.168-4.717-14.768-16.148-14.74-25.52l0.197-69.698c0.025-9.386,6.67-13.172,14.838-8.456L758.218,371.606z"/>
		</g>
		<g>
			<g>
				<path fill="#F2F2F2" d="M680.058,362.756c5.385,3.108,8.961,8.347,8.947,13.384c-0.01,2.695-0.668,4.784-4.063,6.427
					l-5.574,2.825l10.379,5.994l-0.014,5.236l-18.24-10.533l0.01-4.164l9.342-4.729c2.141-1.111,2.529-2.313,2.533-3.66
					c0.008-2.189-1.309-4.222-3.854-5.691c-2.064-1.191-3.84-1.298-5.018-0.105l-4.057-5.362
					C672.325,360.314,675.702,360.239,680.058,362.756z"/>
			</g>
			<g>
				<polygon fill="#F2F2F2" points="708.759,379.801 698.159,390.398 704.649,394.146 704.663,388.955 709.94,392.001 
					709.925,397.191 713.856,399.46 713.843,404.697 709.911,402.429 709.896,408.261 704.444,405.115 704.462,399.282 
					691.456,391.773 691.468,387.455 702.897,376.416 				"/>
			</g>
			<g>
				<path fill="#F2F2F2" d="M722.091,385.84l-0.031,10.305c1.459-0.829,3.527-0.51,5.912,0.868c4.371,2.523,7.68,7.378,7.66,13.869
					l-0.033,12.219l-5.383-3.107l0.031-11.27c0.012-3.444-1.371-5.822-3.744-7.192c-2.584-1.491-4.455-0.746-4.467,3.173
					l-0.029,10.55l-5.385-3.108l0.084-29.412L722.091,385.84z"/>
			</g>
		</g>
	</g>
	<g>
		<g>
			<polygon fill="#35979D" points="312.155,271.144 303.368,266.038 280.624,219.599 289.412,224.706 			"/>
			<path fill="#51BABF" d="M376.106,37.04c11.097-6.406,20.121-1.264,20.157,11.487l0.258,91.213
				c0.037,12.751-8.929,28.28-20.026,34.687l-41.918,24.202l-22.423,72.516l-22.743-46.438l-41.918,24.202
				c-11.097,6.406-20.122,1.264-20.157-11.487l-0.259-91.214c-0.036-12.75,8.93-28.279,20.027-34.686L376.106,37.04z"/>
			<path fill="#35979D" d="M381.616,30.533c-3.653-2.123-8.712-1.823-14.296,1.4l-129.003,74.48
				c-11.097,6.407-20.063,21.936-20.027,34.686l0.259,91.213c0.019,6.333,2.254,10.791,5.861,12.887l8.788,5.106
				c-3.606-2.096-5.842-6.553-5.861-12.887l-0.259-91.214c-0.036-12.75,8.93-28.279,20.027-34.686l129.002-74.48
				c5.583-3.223,10.643-3.523,14.296-1.4L381.616,30.533z"/>
		</g>
		<g>
			<g>
				<path fill="#F2F2F2" d="M329.59,177.002c2.911-1.681,4.995-0.612,5.004,2.432c0.008,2.991-2.063,6.645-4.974,8.325
					c-2.911,1.681-4.996,0.428-5.004-2.564C324.607,182.152,326.679,178.682,329.59,177.002z"/>
			</g>
			<g>
				<path fill="#F2F2F2" d="M328.928,145.083c7.798-4.502,13.21-3.619,13.229,3.427c0.028,9.551-8.704,15.669-8.687,22.006
					l-7.843,4.529c-0.024-8.357,8.077-14.901,8.062-20.096c-0.008-2.925-2.251-3.483-5.63-1.532
					c-3.323,1.918-5.864,5.067-7.523,8.771l-6.303-0.605C317.028,155.068,321.906,149.137,328.928,145.083z"/>
			</g>
			<g enable-background="new    ">
				<g>
					<path fill="#F2F2F2" d="M270.857,169.846c2.911-1.68,5.007-0.617,5.016,2.439c0.009,2.979-2.074,6.638-4.985,8.319
						c-2.9,1.674-4.985,0.42-4.993-2.558C265.886,174.989,267.957,171.52,270.857,169.846z"/>
				</g>
				<g>
					<path fill="#F2F2F2" d="M270.195,137.929c7.798-4.502,13.222-3.626,13.242,3.419c0.027,9.564-8.705,15.683-8.687,22.006
						l-7.855,4.536c-0.023-8.357,8.088-14.894,8.074-20.089c-0.008-2.939-2.252-3.496-5.631-1.545
						c-3.322,1.918-5.864,5.067-7.523,8.771l-6.303-0.605C258.308,147.906,263.185,141.976,270.195,137.929z"/>
				</g>
			</g>
			<g>
				<path fill="#10133B" d="M352.767,86.878c7.798-4.502,13.21-3.619,13.229,3.426c0.027,9.551-8.704,15.669-8.687,22.006
					l-7.843,4.528c-0.024-8.357,8.077-14.899,8.062-20.095c-0.008-2.926-2.251-3.484-5.63-1.533
					c-3.322,1.918-5.864,5.068-7.522,8.772l-6.303-0.606C340.867,96.862,345.746,90.932,352.767,86.878z"/>
			</g>
			<g>
				<path fill="#10133B" d="M353.429,118.795c2.912-1.68,4.996-0.61,5.005,2.434c0.008,2.991-2.063,6.644-4.974,8.325
					c-2.912,1.68-4.997,0.427-5.005-2.564C348.446,123.946,350.518,120.477,353.429,118.795z"/>
			</g>
			<g>
				<path fill="#10133B" d="M301.184,173.152c2.9-1.674,4.984-0.604,4.994,2.453c0.008,2.978-2.063,6.631-4.963,8.306
					c-2.912,1.68-5.008,0.434-5.017-2.545C296.189,178.309,298.272,174.833,301.184,173.152z"/>
			</g>
			<g>
				<polygon fill="#10133B" points="304.391,167.056 297.94,170.78 296.253,144.421 305.923,138.838 				"/>
			</g>
			<g>
				<path fill="#F2F2F2" d="M323.087,113.935c2.911-1.68,4.996-0.61,5.004,2.434c0.009,2.991-2.063,6.645-4.974,8.325
					c-2.912,1.681-4.996,0.427-5.005-2.564C318.104,119.085,320.176,115.616,323.087,113.935z"/>
			</g>
			<g>
				<polygon fill="#F2F2F2" points="326.294,107.839 319.844,111.563 318.157,85.204 327.827,79.621 				"/>
			</g>
		</g>
	</g>
	<g>
		<g>
			<polygon fill="#51BABF" points="546.737,243.717 554.091,239.443 536.337,264.42 528.981,268.694 			"/>
			<path fill="#51BABF" d="M588.378,155.395L485.083,95.755c-4.111-2.372-7.835-2.592-10.525-1.03L467.204,99
				c2.688-1.563,6.412-1.342,10.523,1.031l103.297,59.638c8.154,4.708,14.756,16.141,14.729,25.527l-0.197,69.698
				c-0.014,4.655-1.66,7.933-4.313,9.475l7.354-4.274c2.654-1.542,4.301-4.819,4.313-9.474l0.197-69.698
				C603.134,171.536,596.534,160.103,588.378,155.395z"/>
			<path fill="#35979D" d="M581.024,159.668c8.154,4.708,14.756,16.141,14.729,25.527l-0.197,69.698
				c-0.027,9.371-6.672,13.157-14.826,8.449l-33.992-19.626l-17.756,24.977l-17.568-45.372l-33.979-19.618
				c-8.169-4.715-14.769-16.149-14.742-25.52l0.196-69.698c0.027-9.387,6.672-13.172,14.84-8.456L581.024,159.668z"/>
		</g>
		<g>
			<g>
				<path fill="#10133B" d="M561.276,185.54c2.35,1.356,4.248,4.646,4.24,7.345l-0.076,27.228c-0.008,2.7-1.92,3.789-4.27,2.433
					l-4.586-2.648l2.59,13.824l-8.158-17.038l-29.374-16.959c-2.368-1.368-4.269-4.657-4.26-7.356l0.028-10.458l0.049-16.771
					c0.006-2.699,1.918-3.789,4.287-2.421l12.467,7.198L561.276,185.54z"/>
			</g>
			<g>
				<path fill="#F2F2F2" d="M530.003,152.113c2.35,1.356,4.248,4.645,4.242,7.344l-0.031,10.458l-12.467-7.198
					c-2.369-1.367-4.281-0.278-4.287,2.421l-0.049,16.771l-16.906-9.762l-8.23,7.576l2.662-10.79l-4.566-2.638
					c-2.369-1.367-4.269-4.678-4.26-7.377l0.076-27.206c0.009-2.7,1.918-3.789,4.287-2.422L530.003,152.113z"/>
			</g>
		</g>
	</g>
	<g>
		<path fill="#F2F2F2" d="M178.253,236.208c4.481-2.587,8.119-0.514,8.133,4.636c0.015,5.148-3.599,11.408-8.08,13.996
			c-4.482,2.587-8.119,0.515-8.134-4.635C170.158,245.055,173.772,238.795,178.253,236.208z"/>
	</g>
	<g>
		<path fill="#F2F2F2" d="M178.253,201.623c4.481-2.587,8.119-0.515,8.133,4.635c0.015,5.149-3.599,11.409-8.08,13.997
			c-4.482,2.586-8.119,0.514-8.134-4.636C170.158,210.469,173.772,204.21,178.253,201.623z"/>
	</g>
	<g>
		<path fill="#F2F2F2" d="M116.846,547.485c4.481-2.587,8.119-0.514,8.133,4.635c0.014,5.15-3.6,11.409-8.082,13.996
			c-4.48,2.588-8.118,0.516-8.133-4.635C108.75,556.333,112.364,550.071,116.846,547.485z"/>
	</g>
	<g>
		<path fill="#F2F2F2" d="M116.846,512.9c4.481-2.587,8.119-0.514,8.133,4.635c0.014,5.15-3.6,11.409-8.082,13.995
			c-4.48,2.589-8.118,0.514-8.133-4.635C108.75,521.748,112.364,515.486,116.846,512.9z"/>
	</g>
	<g>
		<path fill="#F2F2F2" d="M138.819,294.773c4.481-2.587,8.119-0.514,8.134,4.635c0.014,5.149-3.601,11.409-8.082,13.997
			c-4.48,2.587-8.119,0.514-8.133-4.635C130.723,303.621,134.338,297.361,138.819,294.773z"/>
	</g>
	<g>
		<path fill="#F2F2F2" d="M138.819,260.188c4.481-2.587,8.119-0.515,8.134,4.635c0.014,5.149-3.601,11.41-8.082,13.997
			c-4.48,2.586-8.119,0.514-8.133-4.636C130.723,269.035,134.338,262.776,138.819,260.188z"/>
	</g>
	<g>
		<path fill="#F2F2F2" d="M178.253,167.036c4.481-2.586,8.119-0.513,8.133,4.636c0.015,5.149-3.599,11.409-8.08,13.996
			c-4.482,2.587-8.119,0.515-8.134-4.635C170.158,175.884,173.772,169.624,178.253,167.036z"/>
	</g>
	<g>
		<g>
			<polygon fill="#35979D" points="161.849,519.524 153.061,514.418 130.318,467.979 139.105,473.084 			"/>
			<path fill="#51BABF" d="M225.8,285.42c11.097-6.407,20.121-1.264,20.157,11.487l0.259,91.211
				c0.036,12.753-8.93,28.281-20.027,34.688l-41.918,24.203l-22.422,72.515l-22.744-46.439l-41.918,24.201
				c-11.097,6.407-20.121,1.266-20.157-11.487l-0.259-91.211c-0.036-12.752,8.93-28.281,20.026-34.687L225.8,285.42z"/>
			<path fill="#35979D" d="M231.309,278.914c-3.653-2.124-8.712-1.824-14.296,1.4L88.01,354.793
				c-11.097,6.408-20.063,21.937-20.027,34.687l0.259,91.213c0.019,6.334,2.254,10.792,5.861,12.888l8.787,5.107
				c-3.606-2.098-5.842-6.555-5.86-12.89l-0.259-91.213c-0.036-12.75,8.93-28.279,20.026-34.685L225.8,285.42
				c5.583-3.225,10.643-3.523,14.296-1.4L231.309,278.914z"/>
		</g>
		<g>
			<path fill="#F2F2F2" d="M210.169,338.096c4.48-2.587,8.119-0.514,8.133,4.635c0.016,5.149-3.599,11.409-8.08,13.997
				c-4.482,2.586-8.119,0.514-8.134-4.635C202.073,346.942,205.688,340.683,210.169,338.096z"/>
		</g>
		<g>
			<path fill="#F2F2F2" d="M186.36,351.842c4.482-2.589,8.119-0.516,8.134,4.635c0.014,5.148-3.601,11.409-8.081,13.995
				c-4.481,2.587-8.119,0.514-8.133-4.635C178.265,360.689,181.879,354.428,186.36,351.842z"/>
		</g>
		<g>
			<path fill="#F2F2F2" d="M162.552,365.587c4.464-2.578,8.12-0.514,8.134,4.635c0.014,5.15-3.617,11.42-8.081,13.996
				c-4.481,2.588-8.119,0.516-8.133-4.635C154.458,374.435,158.071,368.173,162.552,365.587z"/>
		</g>
		<g>
			<path fill="#F2F2F2" d="M138.727,379.343c4.481-2.587,8.119-0.514,8.133,4.635c0.015,5.15-3.6,11.408-8.08,13.995
				c-4.482,2.589-8.119,0.516-8.134-4.635C130.631,388.19,134.246,381.929,138.727,379.343z"/>
		</g>
		<g>
			<path fill="#F2F2F2" d="M114.918,393.087c4.482-2.586,8.119-0.514,8.134,4.637c0.014,5.148-3.6,11.408-8.081,13.996
				c-4.481,2.586-8.119,0.514-8.133-4.635C106.823,401.935,110.438,395.676,114.918,393.087z"/>
		</g>
		<g>
			<path fill="#10133B" d="M210.26,370.562c4.482-2.586,8.119-0.492,8.134,4.637c0.014,5.148-3.599,11.428-8.081,14.015
				c-4.481,2.589-8.119,0.495-8.133-4.653C202.165,379.43,205.78,373.151,210.26,370.562z"/>
		</g>
		<g>
			<path fill="#10133B" d="M186.453,384.31c4.481-2.589,8.119-0.496,8.133,4.635c0.014,5.148-3.6,11.428-8.081,14.016
				c-4.482,2.586-8.12,0.493-8.134-4.655C178.357,393.175,181.971,386.896,186.453,384.31z"/>
		</g>
		<g>
			<path fill="#10133B" d="M162.645,398.054c4.463-2.578,8.119-0.494,8.133,4.635c0.015,5.148-3.617,11.438-8.08,14.017
				c-4.482,2.587-8.119,0.495-8.134-4.655C154.549,406.92,158.164,400.641,162.645,398.054z"/>
		</g>
		<g>
			<path fill="#10133B" d="M138.819,411.81c4.481-2.586,8.119-0.495,8.134,4.635c0.014,5.15-3.601,11.43-8.082,14.016
				c-4.48,2.587-8.119,0.496-8.133-4.654C130.723,420.676,134.338,414.396,138.819,411.81z"/>
		</g>
		<g>
			<path fill="#10133B" d="M115.01,425.555c4.482-2.587,8.12-0.493,8.134,4.635c0.014,5.15-3.599,11.43-8.081,14.017
				c-4.481,2.588-8.119,0.495-8.133-4.653C106.916,434.423,110.529,428.144,115.01,425.555z"/>
		</g>
	</g>
</g>
</svg>
