<?xml version="1.0" encoding="utf-8"?>
<!-- Generator: Adobe Illustrator 16.0.0, SVG Export Plug-In . SVG Version: 6.00 Build 0)  -->
<!DOCTYPE svg PUBLIC "-//W3C//DTD SVG 1.1//EN" "http://www.w3.org/Graphics/SVG/1.1/DTD/svg11.dtd">
<svg version="1.1" id="Layer_1" xmlns="http://www.w3.org/2000/svg" xmlns:xlink="http://www.w3.org/1999/xlink" x="0px" y="0px"
	 width="514.576px" height="319.148px" viewBox="0 0 514.576 319.148" enable-background="new 0 0 514.576 319.148"
	 xml:space="preserve">
<path fill-rule="evenodd" clip-rule="evenodd" fill="#FFFFFF" d="M508.974,117.609c-5.271-19.576-13.742-37.744-26.444-53.746
	c-0.852-1.222-1.642-2.492-2.563-3.658c-12.47-15.789-27.346-28.784-44.817-38.821C409.202,6.479,381.413-1.054,351.399,0.119
	c-2.336-0.008-199.704-0.569-201.057,0.834c-11.839,2.041-18.975,12.084-17.97,25.291c0.783,10.289,10.88,19.619,21.539,19.707
	c12.826,0.105,25.656-0.088,38.479,0.117c11.063,0.177,19.107,8.414,20.856,16.974c3.308,16.185-6.888,27.998-23.57,28.07
	c-17.824,0.077-35.649,0.06-53.474,0.012c-5.873-0.016-11.067,1.646-15.695,5.312c-6.499,5.146-10.214,15.28-7.648,23.35
	c2.718,8.548,8.095,14.643,17.524,16.4c8.614,1.605,17.262,0.531,25.889,0.77c13.539,0.373,23.145,9.758,23.125,22.901
	c-0.019,12.395-10.249,22.172-23.274,22.19c-15.492,0.021-30.985-0.068-46.477,0.023c-13.473,0.079-23.76,9.307-24.195,21.488
	c-0.495,13.866,9.232,24.217,23.316,24.326c22.32,0.172,44.645-0.056,66.966,0.131c14.11,0.118,24.439,14.622,20.986,28.276
	c-2.101,8.311-12.576,17.479-23.213,16.947c-9.191-0.461-16.701,4.337-20.309,12.729c-3.631,8.443-3.365,17.332,3.161,24.836
	c6.966,8.009,16.135,8.549,26.041,8.299c0.664,0.044,176.125-0.999,178.197-0.999h0.001c0,0,12.704-0.359,18.874-1.44
	c27.12-4.749,51.902-14.776,73.65-32.227c24.096-19.334,41.975-42.957,52.194-72.117
	C516.231,181.182,517.558,149.484,508.974,117.609z M469.171,88.234c-0.031-0.06-0.063-0.118-0.094-0.177
	c0.069,0.036,0.124,0.053,0.19,0.084C469.234,88.172,469.204,88.204,469.171,88.234z"/>
<path fill-rule="evenodd" clip-rule="evenodd" fill="#FFFFFF" d="M76.152,132.694c8.379-6.738,11.45-16.728,8.194-26.28
	c-3.153-9.253-12.127-15.259-22.908-15.275c-12.323-0.021-24.649,0.138-36.97-0.056c-5.937-0.093-11.067,1.61-15.756,5.111
	c-6.894,5.147-10.241,15.097-8.043,24.16c1.754,7.235,9.975,14.358,17.552,15.829c8.286,1.609,16.604,0.252,23.766,0.848
	c7.281,0,13.446,0.131,19.604-0.04C66.78,136.847,71.918,136.097,76.152,132.694z"/>
<path fill-rule="evenodd" clip-rule="evenodd" fill="#FFFFFF" d="M101.906,273.127c-8.308-0.196-16.625-0.17-24.935-0.018
	c-10.357,0.189-19.482,8.347-21.426,18.882c-1.867,10.124,4.374,21.101,13.755,25.05c6.611,2.784,13.423,1.441,19.209,1.861
	c5.1,0,9.259,0.112,13.411-0.021c12.685-0.405,22.524-10.602,22.451-23.158C124.301,283.371,114.534,273.426,101.906,273.127z"/>
<path fill-rule="evenodd" clip-rule="evenodd" fill="#FFFFFF" d="M81.853,45.973c13.046,0.045,23.551-10.05,23.517-22.6
	c-0.035-12.807-9.998-23.137-22.421-23.245c-13.322-0.115-23.685,9.957-23.665,23.006C59.303,36.07,69.046,45.929,81.853,45.973z"/>
<g>
	<path fill-rule="evenodd" clip-rule="evenodd" fill="#E25C26" d="M295.817,115.096c15.407-12.187,30.841-24.342,46.215-36.572
		c11.438-9.101,21.013-2.543,26.273,7.581c0.795,1.531,0.438,3.974-0.057,5.816c-6.329,23.623-12.599,47.263-19.276,70.789
		c-3.391,11.947-6.977,14.727-19.515,15.251c-24.601,1.03-49.218,1.666-73.83,2.389c-4.915,0.144-10.193-4.834-12.421-11.33
		c-2.052-5.981-0.219-12.083,5.225-16.416C264.192,140.059,280.018,127.593,295.817,115.096z"/>
	<path fill-rule="evenodd" clip-rule="evenodd" fill="#E25C26" d="M365.786,203.719c-15.807,12.503-31.604,25.016-47.423,37.503
		c-7.221,5.7-15.237,4.84-20.997-2.389c-11.625-14.59-23.19-29.227-34.681-43.92c-1.009-1.29-1.284-3.151-1.9-4.747
		c1.534-0.413,3.058-1.14,4.604-1.191c19.459-0.653,38.93-1.012,58.377-1.898c6.572-0.3,13.34-1.069,19.562-3.06
		c7.999-2.557,11.396-9.88,13.534-17.401c5.739-20.17,11.213-40.416,16.787-60.632c0.398-1.444,0.637-2.946,1.178-4.333
		c0.453-1.163,1.239-2.195,1.877-3.285c1.203,0.721,2.729,1.18,3.557,2.204c7.115,8.811,14.104,17.723,21.131,26.607
		c4.752,6.009,9.547,11.985,14.247,18.036c5.694,7.331,4.758,15.292-2.438,20.995C397.408,178.727,381.592,191.218,365.786,203.719z
		"/>
</g>
</svg>
