<?xml version="1.0" encoding="utf-8"?>
<!-- Generator: Adobe Illustrator 16.0.0, SVG Export Plug-In . SVG Version: 6.00 Build 0)  -->
<!DOCTYPE svg PUBLIC "-//W3C//DTD SVG 1.1//EN" "http://www.w3.org/Graphics/SVG/1.1/DTD/svg11.dtd">
<svg version="1.1" id="Layer_1" xmlns="http://www.w3.org/2000/svg" xmlns:xlink="http://www.w3.org/1999/xlink" x="0px" y="0px"
	 width="514.577px" height="319.148px" viewBox="0 0 514.577 319.148" enable-background="new 0 0 514.577 319.148"
	 xml:space="preserve">
<path fill-rule="evenodd" clip-rule="evenodd" fill="#FFFFFF" d="M434.398,1044.485c8.379-6.738,11.45-16.728,8.194-26.28
	c-3.153-9.253-12.127-15.259-22.908-15.275c-12.323-0.021-24.649,0.138-36.97-0.056c-5.937-0.093-11.067,1.61-15.756,5.111
	c-6.894,5.147-10.241,15.097-8.043,24.16c1.754,7.235,9.975,14.358,17.552,15.829c8.286,1.609,16.604,0.252,23.766,0.848
	c7.281,0,13.446,0.131,19.604-0.04C425.026,1048.639,430.164,1047.889,434.398,1044.485z"/>
<g>
	<path fill-rule="evenodd" clip-rule="evenodd" fill="#FFFFFF" d="M508.974,117.609c-5.271-19.576-13.742-37.744-26.444-53.746
		c-0.852-1.222-1.642-2.492-2.563-3.658c-12.47-15.789-27.346-28.784-44.817-38.821C409.202,6.479,381.413-1.054,351.399,0.119
		c-2.336-0.008-199.704-0.569-201.057,0.834c-11.839,2.041-18.975,12.084-17.97,25.291c0.783,10.289,10.88,19.619,21.539,19.707
		c12.826,0.105,25.656-0.088,38.479,0.117c11.063,0.177,19.107,8.414,20.856,16.974c3.308,16.185-6.888,27.998-23.57,28.07
		c-17.824,0.077-35.649,0.06-53.474,0.012c-5.873-0.016-11.067,1.646-15.695,5.312c-6.499,5.146-10.214,15.28-7.648,23.35
		c2.718,8.548,8.095,14.643,17.524,16.4c8.614,1.605,17.262,0.531,25.889,0.77c13.539,0.373,23.145,9.758,23.125,22.901
		c-0.019,12.395-10.249,22.172-23.274,22.19c-15.492,0.021-30.985-0.068-46.477,0.023c-13.473,0.079-23.76,9.307-24.195,21.488
		c-0.495,13.866,9.232,24.217,23.316,24.326c22.32,0.172,44.645-0.056,66.966,0.131c14.11,0.118,24.439,14.622,20.986,28.276
		c-2.101,8.311-12.576,17.479-23.213,16.947c-9.191-0.461-16.701,4.337-20.309,12.729c-3.631,8.443-3.365,17.332,3.161,24.836
		c6.966,8.009,16.135,8.549,26.041,8.299c0.664,0.044,176.125-0.999,178.197-0.999h0.001c0,0,12.704-0.359,18.874-1.44
		c27.12-4.749,51.902-14.776,73.65-32.227c24.096-19.334,41.975-42.957,52.194-72.117
		C516.231,181.182,517.558,149.484,508.974,117.609z M469.171,88.234c-0.031-0.06-0.063-0.118-0.094-0.177
		c0.069,0.036,0.124,0.053,0.19,0.084C469.234,88.172,469.204,88.204,469.171,88.234z"/>
	<path fill-rule="evenodd" clip-rule="evenodd" fill="#FFFFFF" d="M76.152,132.694c8.379-6.738,11.45-16.728,8.194-26.28
		c-3.153-9.253-12.127-15.259-22.908-15.275c-12.323-0.021-24.649,0.138-36.97-0.056c-5.937-0.093-11.067,1.61-15.756,5.111
		c-6.894,5.147-10.241,15.097-8.043,24.16c1.754,7.235,9.975,14.358,17.552,15.829c8.286,1.609,16.604,0.252,23.766,0.848
		c7.281,0,13.446,0.131,19.604-0.04C66.78,136.847,71.918,136.097,76.152,132.694z"/>
	<path fill-rule="evenodd" clip-rule="evenodd" fill="#FFFFFF" d="M101.906,273.127c-8.308-0.196-16.625-0.17-24.935-0.018
		c-10.357,0.189-19.482,8.347-21.426,18.882c-1.867,10.124,4.374,21.101,13.755,25.05c6.611,2.784,13.423,1.441,19.209,1.861
		c5.1,0,9.259,0.112,13.411-0.021c12.685-0.405,22.524-10.602,22.451-23.158C124.301,283.371,114.534,273.426,101.906,273.127z"/>
	<path fill-rule="evenodd" clip-rule="evenodd" fill="#FFFFFF" d="M81.853,45.973c13.046,0.045,23.551-10.05,23.517-22.6
		c-0.035-12.807-9.998-23.137-22.421-23.245c-13.322-0.115-23.685,9.957-23.665,23.006C59.303,36.07,69.046,45.929,81.853,45.973z"
		/>
	<path fill-rule="evenodd" clip-rule="evenodd" fill="#E25C26" d="M220.505,115.941c2.801-17.855,14.021-30.372,26.562-42.106
		c7.577-7.09,16.358-8.148,24.855-2c12.961,9.379,21.847,22.293,29.104,36.231c3.782,7.265,1.496,13.311-4.964,18.359
		c-3.145,2.457-6.192,5.076-9.034,7.874c-7.024,6.916-7.86,16.005-0.962,23.188c15.456,16.097,31.268,31.867,47.362,47.327
		c6.763,6.496,15.94,5.549,22.793-1.257c2.829-2.81,5.416-5.881,7.95-8.967c5.471-6.661,10.787-8.713,18.315-4.988
		c14.127,6.99,26.834,16.165,36.247,29.038c6.395,8.747,5.248,17.407-2.465,25.165c-4.578,4.605-9.022,9.406-14.018,13.523
		c-17.359,14.305-36.804,16.813-56.781,7.061c-10.613-5.181-21.004-11.896-29.585-19.954
		c-22.821-21.428-44.742-43.824-66.753-66.101c-14.243-14.415-24.989-30.976-28.625-51.395
		C220.505,123.274,220.505,119.608,220.505,115.941z"/>
	<path fill-rule="evenodd" clip-rule="evenodd" fill="#E25C26" d="M445.505,172.941c-5.171,3.332-7.056,2.611-7.406-3.744
		c-0.756-13.691-2.604-27.178-8.04-39.813c-18.354-42.656-50.394-67.273-96.817-72.592c-2.641-0.303-5.293-0.542-7.947-0.68
		c-2.724-0.141-5.899,0.008-5.65-3.832c0.24-3.688,3.394-3.398,6.101-3.342c22.617,0.477,43.57,6.65,62.563,18.907
		c32.034,20.673,50.397,50.215,56.086,87.78c0.468,3.09,0.745,6.21,1.111,9.315C445.505,167.608,445.505,170.274,445.505,172.941z"
		/>
	<path fill-rule="evenodd" clip-rule="evenodd" fill="#E25C26" d="M418.598,166.124c0.06,1.163,0.09,2.329,0.183,3.49
		c0.201,2.525-0.235,5.378-3.147,4.971c-1.569-0.22-3.575-3.066-3.956-5.008c-1.366-6.972-1.515-14.214-3.213-21.084
		c-8.963-36.243-42.398-64.147-80.292-65.592c-1.495-0.057-3.229,0.221-4.422-0.437c-1.62-0.893-2.826-2.536-4.21-3.858
		c1.555-1.178,3.159-3.416,4.657-3.348c6.287,0.288,12.663,0.724,18.791,2.081c40.74,9.025,70.166,41.467,75.375,82.8
		c0.248,1.965,0.032,3.987,0.032,5.983C418.463,166.123,418.531,166.123,418.598,166.124z"/>
	<path fill-rule="evenodd" clip-rule="evenodd" fill="#E25C26" d="M326.671,101.822c31.793,0.924,60.852,27.152,64.901,58.003
		c0.432,3.284,1.092,6.638,0.788,9.879c-0.169,1.806-2.107,3.446-3.249,5.162c-1.228-1.647-3.411-3.228-3.531-4.951
		c-1.007-14.496-5.451-27.58-14.93-38.747c-11.679-13.761-26.671-20.939-44.585-22.212c-0.994-0.07-2.304,0.351-2.929-0.141
		c-1.376-1.082-2.408-2.601-3.581-3.941c1.278-1.018,2.428-2.334,3.875-2.955C324.555,101.436,326.05,101.822,326.671,101.822z"/>
</g>
</svg>
