<?xml version="1.0" encoding="utf-8"?>
<!-- Generator: Adobe Illustrator 16.0.0, SVG Export Plug-In . SVG Version: 6.00 Build 0)  -->
<!DOCTYPE svg PUBLIC "-//W3C//DTD SVG 1.1//EN" "http://www.w3.org/Graphics/SVG/1.1/DTD/svg11.dtd">
<svg version="1.1" id="Layer_1" xmlns="http://www.w3.org/2000/svg" xmlns:xlink="http://www.w3.org/1999/xlink" x="0px" y="0px"
	 width="512px" height="385.554px" viewBox="0 0 512 385.554" enable-background="new 0 0 512 385.554" xml:space="preserve">
<g>
	<path fill-rule="evenodd" clip-rule="evenodd" fill="#D1E5F6" d="M457.952,339.452c-2.896,1.552-6.081,0.958-8.999,0.636
		c-10.301-1.137-18.434,1.881-26.737,8.613c-14.553,11.799-31.606,19.717-49.363,25.88c-7.954,2.762-15.801,5.797-24.011,7.822
		c-5.164,1.275-10.567,1.265-15.591,3.15c-14.881,0-29.762,0-44.643,0c-5.661-1.994-11.686-1.893-17.506-3.029
		c-22.851-4.466-44.871-11.416-66.244-20.671c-13.984-6.055-27.458-13.002-40.553-20.738c-1.523-0.9-3.146-0.924-4.82-0.928
		c-9.6-0.026-19.2-0.075-28.8-0.117c0.609-1.973,2.341-1.819,3.794-1.792c10.758,0.196,21.534-0.678,32.275,0.519
		c1.915,0.213,3.842,0.152,5.765,0.152c56.925,0.002,113.85,0.035,170.775-0.039c7.806-0.01,15.595-0.955,23.422-0.702
		c6.527,0.211,13.051-0.085,19.586,0.597c7.023,0.732,14.075-0.175,20.238-0.649c0.054,0.004-0.768,0.092-1.582,0.004
		c-3.277-0.355-4.03-1.259-3.257-4.563c1.515-6.477,3.581-12.807,5.24-19.249c1.047-4.065,1.115-4.048-3.155-4.683
		c-3.332-0.495-3.91-1.644-2.248-4.679c0.858-1.566,2.052-2.953,2.428-4.757c0.103-1.029,0.415-1.99,1.003-2.848
		c1.505-1.037,3.058-2.053,2.542-4.3c0.052-0.898,0.354-1.689,0.993-2.335c2.017-0.643,2.409-2.137,2.088-4.006
		c0.096-0.962,0.469-1.793,1.152-2.479c3.124-2.794,2.577-6.343,1.385-9.561c-1.495-4.038-4.524-6.835-9.036-7.368
		c-6.644-0.785-11.561,2.512-13.003,9.091c-0.785,3.576-2.021,5.507-6.129,5.696c-4.463,0.204-7.809,4.358-7.703,8.343
		c0.292,1.893-0.209,3.748-0.225,5.625c0.95,2.96,2.631,5.543,4.099,8.241c1.878,3.45,1.479,4.569-2.242,5.297
		c-2.56,0.501-2.26,1.826-1.779,3.603c1.771,6.541,3.667,13.047,5.325,19.619c1.055,4.185,0.41,5.216-3.775,5.302
		c-6.405,0.132-12.814,0.134-19.219-0.001c-3.932-0.083-4.397-0.759-3.69-4.641c0.209-1.151,0.212-2.292,0.212-3.441
		c0.019-36.646,0.026-73.29-0.004-109.936c-0.004-6.17-2.891-8.644-8.888-7.786c-0.838,0.191-1.686,0.206-2.535,0.12
		c-1.678-0.392-3.363-0.704-5.069-0.112c-0.746,0.123-1.495,0.126-2.243,0.021c-1.585-0.468-3.175-0.513-4.77-0.019
		c-0.73,0.117-1.459,0.119-2.189,0.012c-1.578-0.472-3.158-0.497-4.741-0.012c-0.73,0.117-1.459,0.117-2.188,0.011
		c-1.577-0.472-3.157-0.497-4.741-0.011c-0.729,0.116-1.457,0.119-2.187,0.011c-1.577-0.472-3.157-0.497-4.74-0.011
		c-0.729,0.116-1.458,0.119-2.187,0.011c-1.577-0.472-3.158-0.497-4.741-0.011c-0.729,0.116-1.458,0.119-2.187,0.011
		c-1.577-0.472-3.157-0.497-4.741-0.011c-0.729,0.116-1.458,0.119-2.187,0.011c-1.577-0.472-3.157-0.497-4.741-0.011
		c-0.729,0.117-1.458,0.117-2.186,0.011c-1.577-0.472-3.157-0.497-4.739-0.011c-0.728,0.117-1.456,0.116-2.184,0.012
		c-1.573-0.467-3.147-0.503-4.726-0.016c-0.726,0.118-1.453,0.119-2.178,0.015c-1.822-0.71-3.517-0.263-5.173,0.578
		c-0.84,0.074-1.627,0.02-2.083-0.849c1.124-4.026,0.53-8.146,0.66-12.222c0.147-4.597,0.512-5.119,4.923-6.458
		c21.79-6.615,36.487-24.382,38.979-47.118c0.396-3.614,1.178-4.287,4.349-2.459c6.034,3.478,12.799-1.307,12.611-8.116
		c-0.257-9.353-0.091-18.719-0.046-28.079c0.019-4.015-1.575-7.113-5.256-8.556c-2.933-1.149-4.052-3.205-4.776-5.949
		c-2.585-9.798-6.818-18.759-13.634-26.386c-10.496-11.744-23.345-18.676-39.328-18.729c-8.055-0.026-16.172-0.888-24.168,0.606
		c-20.848,3.895-34.266,16.747-42.501,35.7c-0.817,1.879-1.495,3.84-1.957,5.826c-1.017,4.378-2.472,8.162-7.246,9.973
		c-2.738,1.039-3.592,3.882-3.624,6.708c-0.113,9.873-0.095,19.746-0.013,29.62c0.031,3.684,1.724,6.373,5.074,7.905
		c2.279,1.042,3.521,2.732,4.191,5.139c2.813,10.103,8.148,18.333,17.201,24.138c4.287,2.75,7.068,7.372,11.184,10.496
		c5.588,4.241,11.724,7.387,18.43,9.279c3.265,0.921,4.778,2.617,4.681,5.964c-0.082,2.817,0.019,5.64-0.054,8.46
		c-0.069,2.676-1.406,3.977-4.066,4.027c-1.41,0.027-2.82,0.046-4.23,0.047c-23.209,0.002-46.417-0.007-69.626,0.006
		c-7.849,0.004-9.758,1.887-9.762,9.706c-0.019,35.647-0.011,71.293-0.002,106.939c0,2.044-0.022,4.08,0.548,6.098
		c0.573,2.032-0.144,3.272-2.477,3.101c-6.081-3.205-12.181-6.393-17.168-11.282c0.533-3.254,2.508-6.094,2.322-9.603
		c-0.358-6.731-3-11.813-9.497-14.362c-2.105-0.825-3.645-1.996-3.547-4.406c0.111-2.728-1.453-3.083-3.657-3.072
		c-6.78,0.031-13.562,0.054-20.342-0.015c-1.732-0.019-3.635,0.405-5.023-1.189c-3.535-4.558-8.156-8.037-12.108-12.206
		c-17.574-18.539-32.665-38.904-45.904-60.685c-12.54-20.628-22.56-42.466-30.23-65.324c-4.786-14.263-8.355-28.871-10.328-43.851
		c-1.235-9.369-2.42-18.747-2.171-28.185c0.45-17.09,2.88-33.9,10.614-49.369C19.995,15.517,34.078,3.048,55.866,0.569
		c13.433-1.527,26.465,0.222,39.472,2.845c20.057,4.044,39.397,10.712,58.887,16.778c17.671,5.5,35.403,10.753,53.741,13.424
		c11.235,1.638,22.565,1.291,33.918,0.375c14.755-1.189,29.253-3.897,43.807-6.334c14.178-2.373,28.358-4.739,42.523-7.188
		c12.034-2.081,24.105-3.814,36.24-5.266c15.144-1.811,30.311-2.722,45.508-2.089c15.495,0.646,30.797,2.821,44.648,10.595
		c8.53,4.787,15.863,10.966,22.334,18.413c6.677,7.683,12.56,15.848,17.115,24.866c5.946,11.773,10.177,24.197,13.205,37.086
		c4.816,20.499,5.187,41.297,4.434,62.116c-0.535,14.752-2.868,29.358-5.991,43.828c-5.453,25.268-14.097,49.365-26.171,72.201
		c-6.579,12.442-14.245,24.182-23.488,34.877c-6.006,6.951-12.179,13.719-18.873,20.009c-1.74,1.545-3.877,1.028-5.879,1.076
		c-3.682,0.088-7.366-0.021-11.675,0.062c11.63-0.019,22.636-0.014,33.641,0C454.919,338.245,456.628,338.121,457.952,339.452z"/>
	<path fill-rule="evenodd" clip-rule="evenodd" fill="#252B2B" d="M404.773,299.305c1.375,1.888-0.384,3.044-1.081,4.41
		c-0.732,1.433-2.083,2.535-2.38,4.211c0.297,0.152,0.498,0.339,0.707,0.35c7.753,0.384,7.768,0.386,5.713,7.764
		c-1.645,5.904-3.191,11.841-5.054,17.677c-1.003,3.141-0.128,4.041,2.965,3.678c1.645-0.192,3.333-0.076,4.998-0.004
		c0.849,0.037,1.993,0.023,1.826,1.342c-0.13,1.026-1.141,0.848-1.851,0.858c-8.585,0.138-17.183,0.586-25.753,0.276
		c-10.644-0.386-21.287-0.435-31.911-0.148c-10.771,0.29-21.536,0.233-32.3,0.249c-49,0.072-97.999,0.031-146.999-0.03
		c-12.948-0.016-25.896-0.258-38.844-0.358c-1.378-0.011-2.833-0.366-4.123,0.49c-10.758-0.043-21.516-0.093-32.274-0.126
		c-5.382-0.017-5.252-0.002-5.198-4.972c0.097-8.967,0.021-17.936,0.02-26.903c0-3.585,0.183-7.183-0.048-10.752
		c-0.174-2.691,0.653-3.726,3.378-3.378c1.376,0.176,2.806-0.057,4.211-0.105c9.066,0.047,18.133,0.185,27.198,0.079
		c2.484-0.029,3.366,0.62,3.193,3.155c-0.102,1.506-0.982,3.435,1.842,4.157c9.158,2.344,13.718,13.953,9.126,23.506
		c-0.382,0.794-0.824,1.56-1.237,2.338c-0.489,3.494-3.485,4.45-5.981,5.921c-0.837,0.493-2.364,0.605-2.145,1.836
		c0.261,1.472,1.832,1.102,2.899,1.12c5.129,0.082,10.261,0.038,15.392,0.033c2.058-0.002,4.079,0.126,5.921,1.178
		c2.235,0.551,3.628,0.419,2.104-2.396c-0.693-1.278-0.563-2.737-0.563-4.15c0.005-36.816-0.002-73.632,0.008-110.449
		c0.001-6.704,2.612-9.323,9.284-9.327c24.886-0.012,49.772-0.047,74.658,0.057c2.734,0.012,3.948-0.43,3.687-3.503
		c-0.315-3.694,1-7.968-0.458-10.996c-1.416-2.938-6.292-2.437-9.472-3.952c-3.934-1.874-7.826-3.797-11.288-6.458
		c-6.981-5.364-12.904-11.917-19.801-17.435c-5.803-4.644-8.423-11.772-10.383-18.879c-0.568-2.06-1.078-3.499-3.488-4.318
		c-3.863-1.311-5.781-4.56-5.81-8.65c-0.071-10.005-0.082-20.012-0.001-30.017c0.033-4.102,2.063-7.563,5.898-8.562
		c3.096-0.806,3.601-2.503,4.153-4.925c2.199-9.636,6.42-18.302,12.807-25.864c10.988-13.012,24.851-20.329,42.028-20.602
		c10.724-0.17,21.554-0.989,31.92,2.946c20.272,7.695,32.337,22.598,37.803,43.213c0.669,2.523,0.998,4.366,4.267,5.272
		c4.16,1.155,5.896,4.961,5.883,9.367c-0.026,9.364,0.059,18.729-0.022,28.093c-0.079,9.106-7.311,13.043-15.278,8.417
		c-0.31-0.181-0.708-0.21-1.345-0.389c-0.657,11.738-4.482,22.221-11.661,31.426c-7.566,9.701-17.259,16.3-29.123,19.515
		c-2.588,0.701-3.528,1.707-3.316,4.392c0.261,3.314-0.009,6.667,0.096,10c0.047,1.499-0.169,2.703-1.614,3.417
		c-2.762,2.176-3.528,2.024-4.867-0.955c4.039-2.973,2.793-7.245,2.699-11.21c-0.033-1.387-1.054-1.981-2.332-2.041
		c-3.821-0.179-7.644-0.165-11.467-0.008c-0.256,0.01-0.549,0.021-0.738,0.173c-2.973,2.402-1.122,5.667-1.448,8.531
		c-0.213,1.867,1.048,2.707,2.864,2.784c1.656,0.069,3.322-0.062,4.967,0.152c1.501,0.196,3.146,0.283,3.457,2.313
		c-1.211,2.526-3.591,2.166-5.7,2.18c-11.795,0.073-23.591,0.031-35.387,0.034c-16.54,0.003-33.08-0.013-49.62,0.006
		c-7.38,0.009-8.317,0.9-8.322,8.088c-0.021,35.131-0.011,70.262-0.007,105.394c0,1.153,0.017,2.307,0.129,3.458
		c0.277,2.851,1.721,4.438,4.696,4.5c3.334,0.07,6.667,0.015,10,0.036c2.411,0.014,3.393-1.133,3.56-3.492
		c0.124-1.762-0.41-4.546,2.172-4.564c2.41-0.016,2.405,2.658,2.492,4.529c0.123,2.651,1.502,3.602,3.955,3.531
		c1.023-0.029,2.051,0.012,3.077,0.012c39.747,0.001,79.495,0.001,119.242,0c1.154,0,2.308-0.041,3.46-0.027
		c2.221,0.027,3.316-1.028,3.344-3.24c0.006-0.511,0.066-1.025,0.157-1.529c0.254-1.409,0.514-3.142,2.221-3.145
		c1.704-0.002,1.9,1.736,2.258,3.127c0.402,1.565-0.503,4.401,2.082,4.164c2.567-0.236,1.602-3.02,1.712-4.76
		c0.195-3.067-0.129-6.157,0.202-9.222c0.149-1.383,0.345-3.047,2.27-2.995c1.893,0.052,2.049,1.709,2.167,3.094
		c0.306,3.581,0.138,7.176,0.133,10.765c-0.003,2.555,1.042,3.766,3.651,3.754c4.487-0.021,8.978,0.137,13.46-0.063
		c3.6-0.16,4.647-1.305,5.011-4.988c0.125-1.276,0.085-2.561,0.085-3.844c0.002-34.619,0.001-69.237,0-103.855
		c0-1.154-0.017-2.307-0.054-3.461c-0.087-2.755-1.245-4.592-4.087-5.271c-1.436-0.344-3.152-0.61-3.127-2.733
		c5.428-2.053,10.265,0.809,10.772,6.399c0.08,0.89,0.017,1.792,0.017,2.688c0,36.239-0.009,72.478,0.021,108.717
		c0.002,2.584-0.115,5.097-1.811,7.924c8.867,0,17.25,0.015,25.634-0.01c2.143-0.006,1.22-1.314,0.931-2.359
		c-2.042-7.372-4.068-14.747-6.106-22.12c-1.237-4.476-1.241-4.459,3.64-4.569c0.716-0.016,1.529,0.314,2.286-0.479
		c-1.64-4.368-5.702-7.73-5.775-12.831c2.167-1.037,3.022,0.454,3.751,2.018c1.246,2.671,2.586,5.289,4.313,7.679
		c1.873,2.592,7.974,4.01,10.811,2.633c1.132-0.549,1.24-1.521,1.304-2.558c0.297-4.895-0.213-9.728-1.553-14.421
		c-1.832-6.419-9.279-8.076-14.026-3.295c-1.141,1.148-1.653,3.377-4.037,2.766c-0.657-3.67,3.166-8.444,7.953-8.641
		c3.931-0.16,5.099-1.41,5.744-5.204c1.195-7.031,8.028-11.09,14.962-9.629c6.558,1.381,11.099,8.431,9.582,15.187
		c-0.31,1.379-0.304,3.577-2.828,3.297c-1.7-1.845-0.309-3.917-0.368-5.868c-0.166-5.418-3.459-9.059-8.713-9.331
		c-5.233-0.272-9.198,3.01-9.9,8.191c-0.193,1.435-0.28,2.965,0.836,3.995c6.557,6.048,6.492,14.029,6.641,21.717
		c-0.208,0.764,0.591,0.257,0.085,0.342c-0.186,0.031-0.254-0.102-0.125-0.36C401.322,301.567,401.603,298.913,404.773,299.305z"/>
	<path fill-rule="evenodd" clip-rule="evenodd" fill="#3D4343" d="M457.952,339.452c-13.314,0.072-26.628,0.152-39.942,0.197
		c-0.82,0.003-2.073,0.264-2.196-0.916c-0.155-1.482,1.205-1.405,2.174-1.419c6.396-0.097,12.792-0.145,19.188-0.209
		c5.982,0.067,11.966,0.091,17.945,0.237C456.404,337.375,458.595,336.643,457.952,339.452z"/>
	<path fill-rule="evenodd" clip-rule="evenodd" fill="#404545" d="M52.149,339.67c-4.74,0-9.479,0.026-14.219-0.022
		c-0.928-0.009-2.373,0.306-2.356-1.178c0.011-1.039,1.221-1.151,2.129-1.153c9.735-0.008,19.472-0.008,29.208,0.011
		c0.901,0.001,2.02,0.142,1.965,1.286c-0.059,1.224-1.292,1.032-2.123,1.038C61.886,339.689,57.018,339.67,52.149,339.67z"/>
	<path fill-rule="evenodd" clip-rule="evenodd" fill="#444848" d="M470.821,339.672c-1.271,0.003-2.546,0.06-3.813-0.016
		c-0.826-0.05-2.011,0.093-1.987-1.173c0.016-0.884,0.954-1.133,1.725-1.144c2.796-0.039,5.594-0.039,8.39,0
		c0.787,0.01,1.611,0.317,1.588,1.253c-0.025,1.021-0.966,1.037-1.708,1.063C473.62,339.7,472.22,339.667,470.821,339.672z"/>
	<path fill-rule="evenodd" clip-rule="evenodd" fill="#464A4A" d="M81.653,339.849c-2.07-0.643-5.64,0.688-5.57-1.109
		c0.108-2.785,3.495-1.365,5.362-1.332c2.009,0.035,5.608-1.489,5.725,1.332C87.25,340.671,83.415,338.992,81.653,339.849z"/>
	<path fill-rule="evenodd" clip-rule="evenodd" fill="#FFFFFF" d="M263.144,211.671c1.268,2.454,3.04,1.584,4.81,0.729
		c0.724-0.011,1.448-0.022,2.172-0.034c1.5-0.614,3.195-0.007,4.673-0.751c0.748,0.003,1.496,0.005,2.243,0.008
		c1.563,0.547,3.124,0.581,4.685-0.009c0.748,0.003,1.495,0.006,2.243,0.009c1.563,0.547,3.125,0.58,4.686-0.007
		c0.746,0.003,1.492,0.006,2.239,0.008c1.563,0.559,3.126,0.584,4.688-0.008c0.748,0.002,1.495,0.005,2.241,0.007
		c1.563,0.549,3.124,0.578,4.685-0.007c0.749,0.002,1.497,0.004,2.245,0.006c1.562,0.549,3.124,0.581,4.684-0.006
		c0.748,0.003,1.496,0.006,2.244,0.008c1.563,0.544,3.125,0.58,4.686-0.008c0.748,0.003,1.495,0.006,2.243,0.008
		c1.562,0.545,3.124,0.579,4.683-0.008c0.748,0.002,1.495,0.005,2.243,0.008c1.562,0.546,3.124,0.579,4.684-0.009
		c0.747,0.003,1.495,0.005,2.243,0.008c1.563,0.547,3.124,0.581,4.685-0.009c0.748,0.003,1.495,0.006,2.243,0.009
		c1.563,0.547,3.124,0.58,4.685-0.007c0.75,0.001,1.498,0.003,2.248,0.005c0.312,1.521,1.476,1.429,2.665,1.543
		c4.481,0.435,5.804,1.98,5.809,6.789c0.017,18.21,0.006,36.421,0.006,54.63c0.001,18.467,0.006,36.934-0.003,55.401
		c-0.003,5.949-1.215,7.142-7.198,7.154c-4.874,0.011-9.75-0.096-14.618,0.047c-2.122,0.063-2.91-0.482-2.823-2.734
		c0.173-4.481,0.08-8.975,0.027-13.463c-0.01-0.907,0.505-2.383-1.016-2.435c-1.432-0.048-1.247,1.34-1.25,2.337
		c-0.014,4.489-0.182,8.987,0.061,13.462c0.141,2.604-0.939,2.943-3.101,2.835c-1.886-0.095-3.61,0.177-3.222-2.686
		c0.239-1.759,0.038-3.583-0.025-5.375c-0.025-0.701-0.483-1.263-1.204-1.104c-0.378,0.084-0.796,0.64-0.918,1.063
		c-0.172,0.597-0.094,1.268-0.111,1.907c-0.17,6.147-0.169,6.149-6.203,6.149c-41.551,0-83.101-0.053-124.65,0.088
		c-3.728,0.013-5.344-0.662-4.799-4.689c0.195-1.445,1.179-4.328-1.288-4.311c-1.685,0.011-1.038,2.888-0.816,4.328
		c0.635,4.117-1.159,4.975-4.837,4.65c-3.564-0.313-7.176-0.106-10.766-0.068c-3.349,0.037-4.881-1.782-5.178-4.908
		c-0.072-0.764-0.025-1.538-0.025-2.307c-0.001-36.422-0.003-72.842,0.001-109.263c0-6.044,1.448-7.521,7.393-7.521
		c29.496-0.005,58.992,0.01,88.487-0.038c1.496-0.002,3.476,0.885,4.265-1.438C261.705,210.976,262.426,210.976,263.144,211.671z"/>
	<path fill-rule="evenodd" clip-rule="evenodd" fill="#272D2D" d="M171.339,198.143c-8.999-5.251-17.22-9.933-25.31-14.832
		c-2.744-1.662-5.484-2.322-8.673-2.313c-16.929,0.043-33.865,0.185-50.784-0.248c-11.854-0.304-21.649-11.419-21.725-23.678
		c-0.074-12.085,9.838-23.62,21.617-23.847c21.411-0.411,42.845-0.469,64.251,0.045c9.476,0.228,16.285,6.022,19.827,14.744
		c3.684,9.069,2.068,17.682-4.521,24.981c-1.732,1.919-2.111,3.353-1.279,5.669C166.938,184.77,168.921,190.951,171.339,198.143z"/>
	<path fill-rule="evenodd" clip-rule="evenodd" fill="#69BF6B" d="M404.773,299.305c-2.746,0.82-2.75,4.079-5.252,5.805
		c-0.004-5.083-0.422-9.805-1.492-14.475c-0.725-3.159-2.084-5.794-4.724-7.558c-1.41-0.941-1.683-1.94-1.595-3.477
		c0.269-4.689,1.957-8.5,6.504-10.375c3.647-1.505,7.308-1.194,10.486,1.272c3.895,3.023,4.66,7.13,3.449,11.701
		c-0.235,0.889-0.438,1.715-0.245,2.614c-0.308,0.708-0.615,1.417-0.923,2.125c-0.283,1.541-1.014,2.843-2.101,3.956
		c-0.328,0.743-0.656,1.485-0.985,2.228c-0.256,1.595-1.075,2.895-2.139,4.066C405.43,297.894,405.101,298.6,404.773,299.305z"/>
	<path fill-rule="evenodd" clip-rule="evenodd" fill="#48BC99" d="M376.493,289.803c1.52-0.24,1.786-1.662,2.523-2.653
		c2.343-3.156,5.563-4.532,9.362-3.838c3.646,0.665,6.154,2.97,7.2,6.614c1.529,5.327,1.648,10.806,1.7,16.297
		c0.017,1.739-0.792,2.186-2.336,2.149c-2.553-0.06-5.109-0.077-7.661,0.004c-1.815,0.058-2.832-0.984-3.635-2.35
		c-1.679-2.85-3.409-5.676-4.901-8.622c-0.659-1.297-1.239-2.353-2.82-2.418C376.739,293.322,376.069,291.504,376.493,289.803z"/>
	<path fill-rule="evenodd" clip-rule="evenodd" fill="#374A44" d="M408.881,290.895c0.116-1.628,0.668-3.026,2.101-3.956
		C412.722,289.553,412.144,290.937,408.881,290.895z"/>
	<path fill-rule="evenodd" clip-rule="evenodd" fill="#2C3635" d="M405.757,297.188c-0.336-1.908,0.744-3.07,2.139-4.066
		C409.467,295.679,408.63,296.969,405.757,297.188z"/>
	<path fill-rule="evenodd" clip-rule="evenodd" fill="#292F30" d="M323.292,211.617c-1.557,2.373-3.118,2.348-4.683,0.008
		C320.168,210.455,321.729,210.439,323.292,211.617z"/>
	<path fill-rule="evenodd" clip-rule="evenodd" fill="#292F30" d="M330.218,211.615c-1.558,2.376-3.12,2.349-4.684,0.008
		C327.093,210.458,328.654,210.439,330.218,211.615z"/>
	<path fill-rule="evenodd" clip-rule="evenodd" fill="#292F30" d="M337.146,211.614c-1.557,2.386-3.119,2.341-4.685,0.009
		C334.02,210.456,335.582,210.44,337.146,211.614z"/>
	<path fill-rule="evenodd" clip-rule="evenodd" fill="#292F2F" d="M344.073,211.616c-1.558,2.367-3.119,2.36-4.685,0.007
		C340.948,210.455,342.51,210.441,344.073,211.616z"/>
	<path fill-rule="evenodd" clip-rule="evenodd" fill="#292F2F" d="M302.508,211.617c-1.558,2.38-3.119,2.334-4.685,0.007
		C299.383,210.457,300.945,210.438,302.508,211.617z"/>
	<path fill-rule="evenodd" clip-rule="evenodd" fill="#292F30" d="M309.436,211.616c-1.558,2.368-3.12,2.355-4.684,0.006
		C306.313,210.458,307.873,210.439,309.436,211.616z"/>
	<path fill-rule="evenodd" clip-rule="evenodd" fill="#292F30" d="M295.582,211.617c-1.559,2.378-3.122,2.34-4.688,0.008
		C292.455,210.453,294.018,210.441,295.582,211.617z"/>
	<path fill-rule="evenodd" clip-rule="evenodd" fill="#292F2F" d="M288.655,211.616c-1.559,2.367-3.12,2.36-4.686,0.007
		C285.529,210.455,287.092,210.441,288.655,211.616z"/>
	<path fill-rule="evenodd" clip-rule="evenodd" fill="#292F30" d="M281.727,211.614c-1.557,2.386-3.119,2.341-4.685,0.009
		C278.602,210.456,280.163,210.44,281.727,211.614z"/>
	<path fill-rule="evenodd" clip-rule="evenodd" fill="#292F2F" d="M274.799,211.615c-1.178,2.608-2.932,1.638-4.673,0.751
		C271.297,209.708,273.059,210.729,274.799,211.615z"/>
	<path fill-rule="evenodd" clip-rule="evenodd" fill="#292F2F" d="M316.366,211.616c-1.557,2.375-3.12,2.345-4.686,0.008
		C313.239,210.459,314.802,210.435,316.366,211.616z"/>
	<path fill-rule="evenodd" clip-rule="evenodd" fill="#FFE6BE" d="M247.608,100.046c11.16,11.17,24.49,16.907,40.414,16.105
		c6.592-0.333,12.854-2.017,18.827-4.803c1.244-0.581,2.483-1.17,4.317-2.036c0,5.971,0.048,11.449-0.011,16.927
		c-0.104,9.825,1.223,19.758-1.839,29.383c-6.239,19.612-19.25,32.547-39.25,37.281c-19.543,4.625-36.703-0.823-50.96-15.072
		c-0.344-0.343-0.57-0.804-1.032-1.472c6.402,0.926,12.451,1.095,18.16-1.676c0.791-0.384,0.747,0.229,1.084,0.421
		c5.38,3.072,7.699,2.385,10.772-3.406c3.344,3.845,7.409,5.686,12.499,4.546c4.641-1.04,8.646-5.539,8.792-9.96
		c0.027-0.823,0.452-1.986-0.726-2.247c-1.196-0.264-1.304,0.847-1.548,1.726c-1.613,5.815-4.553,8.514-9.245,8.542
		c-4.722,0.028-7.86-2.791-9.323-8.445c-0.197-0.763-0.271-1.652-1.088-1.872c-1.073-0.289-1.147,0.592-1.283,1.395
		c-0.323,1.906-1.138,0.412-1.753,0.212c-4.931-1.597-8.449,0.677-8.576,5.908c-0.037,1.498-0.412,1.585-1.54,1.77
		c-1.89,0.309-3.73,0.925-5.622,1.203c-10.19,1.498-14.411-0.778-18.93-10.04c-4.306-8.826-5.945-18.119-5.37-27.918
		c0.352-6.005,0.203-12.039,0.278-18.06c3.007-1.771,6.45-1.198,9.665-1.593c11.042-1.359,20.471-5.8,28.414-13.553
		C244.13,101.949,245.186,99.934,247.608,100.046z"/>
	<path fill-rule="evenodd" clip-rule="evenodd" fill="#FEDC5B" d="M249.313,85.749c0.824,0.104,0.759,0.922,1.116,1.4
		c0.515,0.692,0.913,1.771,2.042,0.994c0.842-0.579,0.427-1.476-0.007-2.044c-2.062-2.694-0.933-5.107,0.273-7.74
		c1.813-3.961,3.151-8.158,3.451-12.514c0.174-2.521,1.209-2.803,3.369-2.77c23.324,0.367,45.497,18.483,50.456,41.192
		c0.52,2.382-0.638,3.195-2.33,4.101c-18.68,10.007-42.398,6.283-57.316-9.031c-0.357-0.367-0.712-0.74-1.042-1.131
		C242.971,90.662,243.598,93.09,249.313,85.749z"/>
	<path fill-rule="evenodd" clip-rule="evenodd" fill="#DE3A26" d="M203.895,102.946c-1.744-1.82-3.073-4.134-5.616-5.021
		c-1.342-0.469-1.199-1.263-1.01-2.394c3.861-23.106,23.521-43.234,47.131-45.936c15.155-1.734,30.794-2.428,44.979,5.781
		c15.674,9.071,25.01,22.674,28.982,40.177c0.26,1.145,0.27,1.847-1.015,2.394c-2.145,0.911-3.833,2.479-5.253,5.047
		c-3.762-13.576-11.06-24.1-22.013-31.932c-9.645-6.897-20.512-10.255-32.391-10.343c-1.503-0.011-2.793,0.166-3.633,1.556
		c-0.557,0.551-1.236,0.716-1.993,0.637c-1.499-0.39-2.968-0.53-4.276,0.568c-0.648,0.293-1.329,0.368-2.029,0.325
		c-1.723-0.376-3.3-0.191-4.567,1.194c-0.692,0.597-1.471,0.956-2.406,0.881c-2.007-0.547-3.169,0.577-4.13,2.097
		c-0.596,0.389-1.27,0.51-1.958,0.58c-1.878-0.062-2.91,1.167-3.848,2.542c-0.619,0.654-1.388,1.031-2.25,1.241
		c-1.597,0.309-2.903,1.007-3.538,2.618c-0.435,0.797-1.044,1.408-1.888,1.765c-1.873,0.362-2.763,1.633-3.123,3.394
		c-0.377,0.62-0.94,1.018-1.57,1.333c-1.597,0.562-2.322,1.804-2.622,3.377c-0.26,0.846-0.617,1.64-1.231,2.295
		c-1.492,0.817-2.377,2.033-2.473,3.766c-0.148,0.699-0.43,1.332-0.934,1.849c-1.427,1.089-2.221,2.444-1.804,4.311
		c-0.033,0.896-0.351,1.686-0.889,2.391C205.219,100.282,204.988,101.94,203.895,102.946z"/>
	<path fill-rule="evenodd" clip-rule="evenodd" fill="#EF3D24" d="M128.736,316.841c-0.001,5.636-0.109,11.274,0.048,16.905
		c0.071,2.536-0.479,3.638-3.329,3.583c-8.965-0.17-17.938-0.129-26.906-0.02c-2.34,0.029-3.101-0.708-3.063-3.064
		c0.125-7.942,0.103-15.888,0.012-23.831c-0.023-1.995,0.596-2.719,2.619-2.663c4.225,0.115,8.456,0.045,12.684,0.021
		c0.991-0.005,2.312,0.141,2.199-1.372c-0.096-1.293-1.352-0.902-2.153-0.91c-4.1-0.045-8.205-0.142-12.298,0.022
		c-2.344,0.094-3.069-0.656-3.075-3.029c-0.017-6.212-0.134-6.212,5.97-6.212c7.945,0,15.891,0.096,23.831-0.054
		c2.574-0.049,3.633,0.507,3.527,3.336C128.586,305.309,128.737,311.078,128.736,316.841z"/>
	<path fill-rule="evenodd" clip-rule="evenodd" fill="#FEDC5B" d="M238.677,65.402c0.69-0.234,1.381-0.468,2.072-0.702
		c1.66-0.152,3.104-1.056,4.718-1.367c0.688-0.121,1.375-0.242,2.063-0.363c1.524-0.085,3.012-0.417,4.513-0.662
		c0.671-0.012,1.342-0.022,2.013-0.033c0.136,16.717-13.243,34.964-30.5,41.502c-5.162,1.955-10.472,3.268-16.062,3.223
		c-2.198-0.018-3.893-0.347-3.535-3.131c1.396-1.264,1.527-3.105,2.163-4.717c0.23-0.702,0.462-1.404,0.692-2.105
		c0.514-1.512,1.336-2.904,1.725-4.463c0.311-0.604,0.621-1.209,0.931-1.814c1.012-1.264,1.932-2.591,2.736-3.997
		c0.362-0.619,0.724-1.237,1.085-1.855c0.865-1.398,1.897-2.674,2.901-3.97c0.544-0.431,1.088-0.863,1.631-1.294
		c1.246-0.997,1.896-2.56,3.273-3.431c0.492-0.512,0.985-1.024,1.479-1.537c1.486-0.72,2.636-1.876,3.833-2.97
		c0.63-0.352,1.26-0.705,1.89-1.057c1.42-0.761,2.781-1.624,4.143-2.484c0.645-0.261,1.289-0.522,1.935-0.784
		C235.711,66.516,237.224,66.022,238.677,65.402z"/>
	<path fill-rule="evenodd" clip-rule="evenodd" fill="#EF3B24" d="M201.747,121.927c0,4.872,0.096,9.746-0.03,14.614
		c-0.11,4.311-2.958,7.234-6.812,7.314c-3.998,0.083-7.068-2.974-7.11-7.452c-0.093-9.743-0.087-19.489-0.001-29.232
		c0.042-4.575,2.912-7.428,7.069-7.384c4.206,0.044,6.777,2.762,6.875,7.523c0.1,4.87,0.022,9.744,0.022,14.616
		C201.756,121.927,201.751,121.927,201.747,121.927z"/>
	<path fill-rule="evenodd" clip-rule="evenodd" fill="#EF3B24" d="M313.866,121.931c0.003-4.873-0.078-9.746,0.026-14.615
		c0.102-4.771,2.667-7.477,6.874-7.521c4.282-0.045,7.06,2.896,7.09,7.758c0.06,9.488,0.065,18.977-0.003,28.463
		c-0.034,4.78-2.991,7.92-7.127,7.84c-3.972-0.077-6.745-3.093-6.842-7.694C313.784,131.421,313.862,126.675,313.866,121.931z"/>
	<path fill-rule="evenodd" clip-rule="evenodd" fill="#EF3D24" d="M392.138,310.661c3.84,0.002,7.681,0.057,11.519-0.02
		c2.048-0.042,3.15,0.233,2.401,2.779c-2.087,7.091-3.992,14.236-5.914,21.375c-0.456,1.695-1.237,2.438-3.162,2.528
		c-11.754,0.548-11.767,0.609-14.952-10.633c-1.216-4.293-2.116-8.69-3.577-12.894c-1.027-2.956,0.131-3.239,2.55-3.166
		C384.712,310.742,388.426,310.659,392.138,310.661z"/>
	<path fill-rule="evenodd" clip-rule="evenodd" fill="#F3D7A7" d="M247.608,100.046c-3.947,3.375-7.317,7.37-11.775,10.214
		c-9.548,6.091-20.033,8.325-31.178,8.198c0.089-2.764-1.495-5.954,0.045-8.165c1.575-2.259,4.956-0.807,7.518-1.194
		c10.466-1.583,19.779-5.593,27.664-12.746c0.755-0.685,1.526-1.353,2.311-2.003c0.175-0.145,0.438-0.185,0.703-0.288
		C244.465,96.053,246.037,98.049,247.608,100.046z"/>
	<path fill-rule="evenodd" clip-rule="evenodd" fill="#F3D7A7" d="M263.144,211.671c-0.72-0.001-1.439-0.004-2.16-0.005
		c-2.994-1.74-6.257-0.67-9.378-0.753c-2.362-0.063-3.558-0.463-3.249-3.136c0.408-3.519-1.521-8.24,0.795-10.271
		c1.977-1.734,6.57-0.514,10.006-0.544c8.08-0.074,8.022-0.06,8.105,8.119C267.297,208.257,267.715,211.466,263.144,211.671z"/>
	<path fill-rule="evenodd" clip-rule="evenodd" fill="#D3E4F2" d="M131.097,316.674c0-3.706,0.101-7.415-0.037-11.115
		c-0.088-2.373,0.71-2.504,2.667-1.705c4.519,1.847,7.818,6.872,7.854,12.54c0.037,5.757-1.964,10.452-7.321,13.27
		c-2.556,1.344-3.373,0.464-3.258-2.259c0.151-3.571,0.038-7.153,0.038-10.73C131.059,316.674,131.077,316.674,131.097,316.674z"/>
	<path fill-rule="evenodd" clip-rule="evenodd" fill="#CEE1F0" d="M202.092,143.518c0.313,9.229,3.071,17.534,7.052,25.517
		c-6.918-5.521-10.351-13.014-12.571-21.232c-0.272-1.01-0.303-1.644,0.829-2.093C198.898,145.116,200.328,144.354,202.092,143.518z
		"/>
	<path fill-rule="evenodd" clip-rule="evenodd" fill="#758EB2" d="M245.449,171.068c-0.475,2.151-1.637,3.654-3.906,3.52
		c-2.257-0.135-3.497-1.725-3.37-3.892c0.119-2.012,1.433-3.247,3.591-3.205C244.099,167.536,245.164,168.925,245.449,171.068z"/>
	<path fill-rule="evenodd" clip-rule="evenodd" fill="#352E2A" d="M206.121,99.152c0.77,2.256,0.654,4.105-2.163,4.717
		c-0.021-0.307-0.042-0.614-0.064-0.923C204.036,101.329,203.731,99.45,206.121,99.152z"/>
	<path fill-rule="evenodd" clip-rule="evenodd" fill="#2B2D2C" d="M269.492,275.423c-0.059,6.528-5.23,11.644-11.738,11.612
		c-6.66-0.033-11.745-5.338-11.612-12.114c0.127-6.429,5.552-11.653,11.923-11.479C264.518,263.619,269.551,268.896,269.492,275.423
		z"/>
	<path fill-rule="evenodd" clip-rule="evenodd" fill="#D8EBF5" d="M167.132,192.99c-7.587-4.402-14.529-8.344-21.373-12.452
		c-2.062-1.237-4.097-1.792-6.497-1.793c-17.435-0.003-34.877,0.169-52.301-0.293c-11.071-0.293-19.909-10.407-19.816-21.542
		c0.093-11.315,9.236-21.306,20.399-21.446c20.639-0.26,41.285-0.259,61.924,0.004c9.063,0.116,15.541,5.125,18.912,13.366
		c3.515,8.596,1.815,16.643-4.723,23.347c-1.832,1.878-2.489,3.368-1.461,5.971C164.003,182.73,165.336,187.496,167.132,192.99z"/>
	<path fill-rule="evenodd" clip-rule="evenodd" fill="#2E3230" d="M235.591,130.599c4.351-0.039,8.119,3.16,8.456,7.177
		c0.071,0.843,0.481,1.895-0.739,2.175c-0.977,0.223-1.319-0.727-1.445-1.419c-0.632-3.473-2.568-5.503-6.168-5.529
		c-3.639-0.026-5.529,2.148-6.274,5.503c-0.21,0.948-0.467,1.848-1.686,1.419c-0.944-0.333-0.67-1.227-0.587-1.971
		C227.596,133.909,231.354,130.636,235.591,130.599z"/>
	<path fill-rule="evenodd" clip-rule="evenodd" fill="#2F3330" d="M279.774,130.582c4.274-0.063,7.984,2.983,8.653,7.117
		c0.136,0.846,0.562,1.899-0.646,2.255c-1.26,0.37-1.385-0.666-1.595-1.561c-0.792-3.358-2.746-5.478-6.369-5.393
		c-3.382,0.078-5.333,1.956-5.987,5.281c-0.158,0.811-0.407,1.983-1.625,1.639c-1.185-0.336-0.683-1.428-0.597-2.264
		C272.006,133.771,275.622,130.643,279.774,130.582z"/>
	<path fill-rule="evenodd" clip-rule="evenodd" fill="#34362D" d="M278.602,105.024c-4.776-0.139-10.17-1.482-15.094-4.447
		c-0.734-0.442-2.162-0.904-1.195-2.259c0.773-1.083,1.638-0.174,2.341,0.227c5.008,2.859,10.35,4.289,16.139,3.964
		c1.121-0.063,2.783-0.333,2.919,1.045c0.165,1.664-1.604,1.121-2.631,1.309C280.581,104.955,280.061,104.936,278.602,105.024z"/>
	<path fill-rule="evenodd" clip-rule="evenodd" fill="#4A4832" d="M287.857,103.86c-0.808,0.013-1.627-0.125-1.5-1.147
		c0.191-1.537,1.661-1.281,2.649-1.555c0.774-0.214,1.492,0.21,1.549,1.134C290.603,103.038,289.069,103.886,287.857,103.86z"/>
	<path fill-rule="evenodd" clip-rule="evenodd" fill="#3D3E2F" d="M255.633,94.032c-1.188-0.541-2.019-1.466-2.144-2.822
		c-0.028-0.302,0.717-1.009,0.961-0.949c1.358,0.337,2.111,1.436,2.458,2.686C257.11,93.675,256.421,94.001,255.633,94.032z"/>
	<path fill-rule="evenodd" clip-rule="evenodd" fill="#49412F" d="M245.467,63.333c-1.113,2.044-2.617,2.737-4.718,1.367
		C241.736,62.223,243.423,62.159,245.467,63.333z"/>
	<path fill-rule="evenodd" clip-rule="evenodd" fill="#463B2C" d="M221.097,76.223c0.007,2.191-1.101,3.32-3.273,3.433
		C217.157,76.835,218.595,76.022,221.097,76.223z"/>
	<path fill-rule="evenodd" clip-rule="evenodd" fill="#4A3529" d="M238.677,65.402c-0.711,2.222-2.254,2.647-4.299,1.99
		C234.904,64.77,236.341,64.112,238.677,65.402z"/>
	<path fill-rule="evenodd" clip-rule="evenodd" fill="#3C332B" d="M226.409,71.716c-0.098,2.514-1.384,3.494-3.834,2.97
		C222.772,72.301,224.188,71.488,226.409,71.716z"/>
	<path fill-rule="evenodd" clip-rule="evenodd" fill="#3D332A" d="M208.539,92.584c1.417,2.256,0.208,3.498-1.723,4.462
		C205.471,94.818,206.424,93.476,208.539,92.584z"/>
	<path fill-rule="evenodd" clip-rule="evenodd" fill="#3D342B" d="M232.441,68.175c-0.523,2.258-1.914,3.068-4.142,2.484
		C228.834,68.422,230.015,67.26,232.441,68.175z"/>
	<path fill-rule="evenodd" clip-rule="evenodd" fill="#34322C" d="M212.206,86.773c0.368,2.208-0.333,3.685-2.736,3.998
		C209.103,88.563,209.578,86.932,212.206,86.773z"/>
	<path fill-rule="evenodd" clip-rule="evenodd" fill="#3D312A" d="M216.192,80.949c0.409,2.33-0.464,3.721-2.901,3.969
		C212.867,82.579,213.798,81.229,216.192,80.949z"/>
	<path fill-rule="evenodd" clip-rule="evenodd" fill="#36352D" d="M252.043,62.309c-1.24,2.022-2.769,2.07-4.512,0.662
		C248.733,60.699,250.312,60.984,252.043,62.309z"/>
	<path fill-rule="evenodd" clip-rule="evenodd" fill="#332C29" d="M121.377,305.306c1.464,0.52,3.756-0.618,3.723,1.212
		c-0.038,2.068-2.389,1.191-3.743,1.224c-1.241,0.031-3.492,0.725-3.435-1.127C117.994,304.263,120.478,306.277,121.377,305.306z"/>
	<path fill-rule="evenodd" clip-rule="evenodd" fill="#EE3D24" d="M267.138,275.445c-0.065,5.282-4.371,9.437-9.607,9.269
		c-5.26-0.17-9.168-4.426-9.03-9.835c0.129-5.074,4.363-9.168,9.405-9.097C263.146,265.857,267.205,270.104,267.138,275.445z"/>
	<path fill-rule="evenodd" clip-rule="evenodd" fill="#2A3132" d="M143.16,158.036c-0.077,2.986-2.401,5.212-5.447,5.22
		c-3.203,0.008-5.507-2.367-5.429-5.596c0.07-2.912,2.52-5.321,5.416-5.326C140.75,152.328,143.241,154.929,143.16,158.036z"/>
	<path fill-rule="evenodd" clip-rule="evenodd" fill="#2B3232" d="M114.734,152.332c3.062-0.037,5.548,2.507,5.501,5.626
		c-0.046,3.069-2.278,5.289-5.34,5.31c-3.087,0.021-5.688-2.542-5.614-5.533C109.352,154.905,111.916,152.364,114.734,152.332z"/>
	<path fill-rule="evenodd" clip-rule="evenodd" fill="#293030" d="M97.48,157.837c0.018,2.852-2.424,5.335-5.335,5.423
		c-3.094,0.094-5.742-2.394-5.748-5.398c-0.006-2.834,2.48-5.402,5.34-5.516C94.747,152.226,97.461,154.82,97.48,157.837z"/>
	<path fill-rule="evenodd" clip-rule="evenodd" fill="#B1DFF2" d="M140.875,157.857c-0.319,2.051-1.367,3.137-3.335,3.021
		c-1.952-0.116-3.016-1.218-2.88-3.22c0.133-1.961,1.335-3.047,3.229-2.947C139.792,154.812,140.734,156.103,140.875,157.857z"/>
	<path fill-rule="evenodd" clip-rule="evenodd" fill="#AFDCEE" d="M114.615,154.586c2.075,0.362,3.269,1.312,3.243,3.297
		c-0.026,1.991-1.126,3.035-3.113,3.007c-2.001-0.027-3.068-1.243-3.071-3.111C111.67,155.842,113.064,154.975,114.615,154.586z"/>
	<path fill-rule="evenodd" clip-rule="evenodd" fill="#ACD8E9" d="M95.168,157.769c-0.251,1.721-0.987,3.064-3.059,3.159
		c-2.048,0.094-3.219-1.086-3.318-2.926c-0.102-1.85,1.024-3.19,2.984-3.308C93.766,154.574,94.745,155.855,95.168,157.769z"/>
</g>
</svg>
