<?xml version="1.0" encoding="utf-8"?>
<!-- Generator: Adobe Illustrator 18.1.1, SVG Export Plug-In . SVG Version: 6.00 Build 0)  -->
<svg version="1.1" id="Layer_1" xmlns="http://www.w3.org/2000/svg" xmlns:xlink="http://www.w3.org/1999/xlink" x="0px" y="0px"
	 viewBox="1904 -508 233.5 1216" enable-background="new 1904 -508 233.5 1216" xml:space="preserve">
<path fill="#11123B" d="M646-508V708h1354.3c-0.3-2.3-0.4-4.6-0.6-6.9c-0.5-1.9-0.8-4-1.2-6.1c-8.8-47.9-11-96.2-5-145.3
	c6.1-50.4,19.1-96,39.3-136.9c12.4-25.1,27.4-46.8,42-68.9c8.1-12.3,15.7-25.5,22.4-39.7c17.8-37.5,23.5-79.2,18.3-124.3
	c-3.8-33-14.1-61.8-26.4-89.2c-1.9-3.9-3.3-8.2-5.1-12.2c-24.4-53.7-51.7-104.5-73.8-160.6c-11.7-29.9-20.8-61.4-26.8-94.9
	c-2.5-14.1-3.7-28.6-5.3-43c-2.7-25.1-1.3-49.9,2.1-74.6c3.9-28.6,10.5-55.6,21.1-80.1c10.1-23.4,22.4-43.8,36.7-61.5
	c22.1-27.2,47-46.7,73.5-61.9c8.5-4.8,16.9-9,25.8-10l0,0L646-508L646-508z"/>
</svg>
