<?xml version="1.0" encoding="utf-8"?>
<!-- Generator: Adobe Illustrator 16.0.2, SVG Export Plug-In . SVG Version: 6.00 Build 0)  -->
<!DOCTYPE svg PUBLIC "-//W3C//DTD SVG 1.1//EN" "http://www.w3.org/Graphics/SVG/1.1/DTD/svg11.dtd">
<svg version="1.1" id="Layer_1" xmlns="http://www.w3.org/2000/svg" xmlns:xlink="http://www.w3.org/1999/xlink" x="0px" y="0px"
	 width="495.781px" height="264.767px" viewBox="42.167 275.176 495.781 264.767"
	 enable-background="new 42.167 275.176 495.781 264.767" xml:space="preserve">
<g>
	<path fill="#FDFEFD" d="M42.228,468.399c0.367-0.061,0.795-0.122,1.163-0.122c23.624,0,47.186,0,70.809,0
		c1.163,0,1.652,0.429,2.203,1.347c2.876,5.385,5.814,10.71,8.69,16.095c0.612,1.163,1.224,1.53,2.57,1.347
		c6.426-0.918,12.913-1.652,19.4-1.591c0.49,0,1.347-0.245,1.408,0.551c0.061,0.795-0.734,0.673-1.224,0.673
		c-6.426,0.062-12.729,0.796-19.094,1.469c-1.714,0.184-1.224,1.285-1.346,2.02c-0.123,0.857,0.856,0.612,1.346,0.734
		c2.02,0.307,4.101,0.612,6.181,0.857c5.63,0.673,11.261,1.346,16.953,0.979c1.224-0.061,1.407-0.367,1.102-1.591
		c-2.448-10.588-0.612-20.44,5.385-29.498c0.734-1.102,2.448-2.081,2.142-3.366c-0.306-1.163-1.836-2.02-2.815-3.061
		c-0.062-0.061-0.062-0.061-0.123-0.122c-0.428-0.551-0.795-0.551-1.346-0.062c-2.081,1.837-2.142,1.837-4.04-0.122
		c-0.306-0.306-0.551-0.612-0.857-0.856c-0.612-0.49-0.489-0.857,0-1.347c3.06-3.06,5.998-6.242,9.241-9.119
		c1.53-1.346,1.897,0.918,2.815,1.53c0.49,0.306,1.897,0.734,0.734,2.02c-1.897,2.02-1.836,2.081,0.123,4.039
		c0.428,0.429,0.857,0.918,1.285,1.285c0.306,0.245,0.551,0.857,1.102,0.429c0.428-0.306,1.041-0.489,1.041-1.224
		c0-0.49,0-0.979,0-1.53c0-28.029,0-56.06-0.062-84.089c0-1.652,0.49-2.081,2.081-2.081c18.85,0.062,37.699,0,56.549,0.062
		c0.673,0,1.775-0.367,1.775,0.673c0,1.041-1.163,0.551-1.775,0.551c-18.421,0-36.904,0.062-55.325,0
		c-1.469,0-1.958,0.306-1.958,1.897c0.061,27.356,0.061,54.713,0.061,82.069c0,0.612,0,1.163,0,1.958
		c0.734-0.367,1.224-0.734,1.714-0.918c2.264-0.673,2.631-2.203,2.631-4.406c-0.061-24.296-0.061-48.531-0.061-72.828
		c0-1.224,0.061-1.958,1.652-1.958c17.197,0.061,34.456,0,51.653,0.061c0.551,0,1.469-0.245,1.469,0.612
		c0,0.918-0.918,0.551-1.469,0.612c-0.429,0.061-0.918,0-1.347,0c-16.279,0-32.497,0-48.776-0.062c-1.652,0-2.02,0.429-2.02,2.02
		c0.061,24.052,0.061,48.104,0.061,72.155c0,0.306,0,0.551,0,0.856c-0.061,0.796,0.245,0.918,0.979,0.673
		c1.836-0.611,3.611-1.102,5.447-1.652c1.285-0.367,3.06,0.123,3.672-0.979c0.551-1.041,0.123-2.632,0.184-3.979
		c0.061-0.979-0.123-1.407-1.285-1.407c-2.448,0-2.448-0.062-2.448-2.51c0-0.367,0.061-0.795,0-1.162
		c-0.184-1.102,0.306-1.53,1.346-1.469c0.49-0.551,1.102-0.734,1.775-0.734c1.53,0,2.999-0.123,4.529,0.061
		c1.53-0.061,2.999-0.122,4.529-0.061c2.999,0.061,3.366,0.428,3.305,3.427c0,0.306,0,0.551,0,0.856c0,1.347-0.673,2.143-2.02,2.143
		c-1.53,0-1.652,0.918-1.652,2.142c0.061,1.225-0.245,2.387,1.652,2.632c4.1,0.612,8.017,1.958,11.689,3.978
		c2.326,1.286,4.468,2.815,6.487,4.468c0.857,0.734,1.652,0.734,2.509-0.122c0.734-0.796,1.163-1.469,0.245-2.387
		c-0.673-0.734-0.918-1.53-0.306-2.448c1.774-3.06,3.549-3.427,5.691-1.224c2.387,2.325,4.773,4.712,7.16,7.099
		c1.469,1.53,1.53,2.326,0.367,3.733c-1.958,2.265-2.815,2.448-4.59,1.163c-0.428-0.307-0.734-0.674-1.346-0.429
		c-1.897,0.734-2.57,2.693-1.53,4.529c3.305,5.691,4.896,11.812,4.896,18.421c0.306,2.57-0.245,5.079-0.734,7.589
		c-0.184,1.774-0.734,3.488-1.346,5.202c-1.224,3.183-1.224,3.183,2.203,3.183c45.227,0,90.515,0,135.742,0c0.673,0,1.347,0,2.02,0
		c1.591-0.062,1.958-0.429,2.02-2.021c0.062-2.142-0.062-4.283,0.062-6.364c-0.123-7.222-0.062-14.443-0.062-21.727
		c0-24.418,0-48.898,0-73.317c0-4.345,0-4.345-4.284-4.345c-57.895,0-115.852,0-173.747,0c-0.979,0-1.897,0-2.876,0
		s-1.897-0.184-2.693-0.735c-0.428-0.734-0.184-1.04,0.612-1.102c0.551-0.061,1.102,0,1.652,0c58.997,0,117.994,0,176.991,0
		c1.102,0,2.264-0.061,3.365,0c1.347,0.123,1.836-0.306,1.775-1.713c-0.123-4.162-0.123-8.323,0-12.424
		c0.061-1.591-0.429-1.897-1.959-1.897c-20.808,0.061-41.615,0.061-62.424,0c-0.734,0-2.081,0.49-2.142-0.551
		c-0.061-1.163,1.347-0.673,2.081-0.673c21.114-0.061,42.29,0,63.403,0c2.265,0,2.265,0,2.265,2.326c0,41.432,0,82.865,0,124.297
		c0,2.387,0,2.387-2.387,2.387c-47.736,0-95.472,0-143.147,0c-1.285,0-1.958,0.367-2.631,1.469
		c-8.384,13.586-24.664,20.196-40.025,16.157c-12.301-3.244-20.686-10.955-25.398-22.706c-0.245-0.673-0.306-1.346-1.408-1.285
		c-8.384,0.551-16.646-0.551-24.908-1.896c-1.163-0.184-1.714,0.244-2.203,1.162c-2.815,5.264-5.753,10.526-8.507,15.852
		c-0.673,1.285-1.408,1.713-2.876,1.713c-23.134-0.061-46.206-0.061-69.34,0c-0.734,0-1.469,0.062-2.142,0.123
		c0-0.429,0-0.918,0-1.347c18.604,0,37.209,0,55.875-0.062c5.141,0,10.343,0,15.483,0c0.673,0,1.285,0.123,1.714-0.673
		c2.876-5.447,5.814-10.832,8.751-16.279c0.123-0.245,0.49-0.734,0.061-0.856c-1.346-0.367-2.754-0.551-4.1-0.857
		c-0.796-0.184-0.857,0.612-1.224,0.918c-1.163,0.979-2.387,1.225-3.733,0.551c-1.346-0.673-1.958-1.896-1.652-3.365
		c0.245-1.469,1.224-2.387,2.754-2.57c1.469-0.184,2.815,0.428,3.244,1.836c0.367,1.285,1.102,1.469,2.142,1.652
		c0.795,0.122,1.53,0.306,2.326,0.428c0.49,0.062,1.102,0.367,1.591-0.184c0.551-0.673,0-1.162-0.245-1.652
		c-3.121-5.753-6.242-11.505-9.302-17.319c-0.612-1.224-1.346-1.591-2.693-1.591c-22.889,0.061-45.777,0-68.605,0
		c-0.734,0-1.469-0.062-2.203-0.062C42.228,469.073,42.228,468.767,42.228,468.399z"/>
	<g>
		<g>
			<path opacity="0.05" fill="#5E5E5E" enable-background="new    " d="M484.704,275.926c-1.04,0.612-1.04,0.612-1.959-0.49
				C483.113,275.008,483.297,275.069,484.704,275.926z"/>
			<path opacity="0.05" fill="#5E5E5E" enable-background="new    " d="M484.704,347.652c-4.529,0-8.201-3.672-8.201-8.201
				c0-4.468,3.672-8.201,8.201-8.201c4.528,0,8.201,3.672,8.201,8.201S489.232,347.652,484.704,347.652z M484.643,346.673
				c3.979,0,7.222-3.121,7.283-7.099c0.061-4.04-3.121-7.222-7.1-7.283c-4.039-0.062-7.282,3.121-7.282,7.16
				C477.482,343.429,480.665,346.612,484.643,346.673z"/>
			<path opacity="0.05" fill="#5E5E5E" enable-background="new    " d="M488.988,336.819c-0.49,0-0.918,0-1.408,0
				c0.307-0.551,1.469-0.795,1.836-0.489c0.123,0.122,0.184,0.306,0.184,0.428c0,1.775,0,3.55,0,5.325
				c0,0.428-0.244,0.612-0.611,0.612c-2.877,0-5.753,0-8.568,0c-0.429,0-0.612-0.184-0.612-0.612c0-1.775,0-3.489,0-5.263
				c0-0.429,0.184-0.612,0.612-0.612c1.774,0,3.488,0,5.324,0c-0.061,0.49-0.306,0.612-0.734,0.612c-1.285,0-2.57,0-3.855,0
				c-0.245,0-0.429,0-0.734,0c0,1.591,0,3.121,0,4.651c2.877,0,5.691,0,8.629,0C488.988,340.002,488.988,338.472,488.988,336.819z"
				/>
			<path opacity="0.05" fill="#5E5E5E" enable-background="new    " d="M484.275,339.696c0-0.184-0.061-0.489,0-0.612
				c0.857-1.224,1.714-2.509,2.632-3.733c0.062-0.061,0.062-0.184,0.184-0.184c0.306-0.184,0.612-0.612,0.979-0.245
				s0.184,0.734-0.123,1.041c-1.102,1.224-2.264,2.448-3.365,3.672C484.398,339.696,484.337,339.696,484.275,339.696z"/>
			<path opacity="0.05" fill="#5E5E5E" enable-background="new    " d="M476.259,344.653c0.122-0.306,0.244-0.612,0.428-0.857
				c0.612,0,1.285,0,1.897,0c0.122,0.306,0.245,0.612,0.429,0.857C478.033,344.653,477.177,344.653,476.259,344.653z"/>
			<path opacity="0.05" fill="#5E5E5E" enable-background="new    " d="M475.585,341.349c0.184-0.306,0.307-0.612,0.49-0.796
				s0.428-0.306,0.673-0.306c0.184,0,0.306,0.306,0.489,0.49c-0.184,0.123-0.367,0.367-0.551,0.429
				C476.381,341.287,476.014,341.287,475.585,341.349z"/>
			<path opacity="0.05" fill="#5E5E5E" enable-background="new    " d="M484.704,356.648c1.897,0,3.794,0,5.691,0
				c0.856,0,1.102,0.245,1.102,1.102c0,3.244,0,6.487,0,9.731c0,0.856-0.245,1.102-1.102,1.102c-3.794,0-7.589,0-11.383,0
				c-0.796,0-1.102-0.245-1.102-1.102c0-3.244,0-6.487,0-9.792c0-0.796,0.244-1.102,1.102-1.102
				C480.909,356.648,482.807,356.648,484.704,356.648z M490.641,358.852c-3.979,0-7.956,0-11.873,0c0,2.815,0,5.569,0,8.262
				c0.367-0.062,0.673-0.062,0.979-0.123c0.122-0.061,0.306-0.123,0.428-0.306c0.184-0.306,0.245-0.612,0.429-1.041
				c-0.122-0.122-0.306-0.184-0.429-0.306c-0.428-0.429-0.428-0.612,0-1.041c0.245-0.245,0.429-0.428,0.674-0.673
				c0.306-0.367,0.673-0.367,0.979,0c0.123,0.123,0.367,0.429,0.49,0.367c0.367-0.061,0.795-0.245,1.102-0.428
				c0.122-0.061,0.061-0.428,0.122-0.612c0.062-0.245,0.184-0.673,0.306-0.673c0.612-0.061,1.225-0.123,1.775,0.061
				c0.184,0.062,0.184,0.734,0.245,1.163v0.061c0.184,0.061,0.367,0.123,0.551,0.245c0.489,0.306,0.795,0.245,1.162-0.184
				c0.123-0.122,0.551-0.245,0.612-0.184c0.489,0.367,0.918,0.796,1.224,1.347c0.062,0.184-0.428,0.673-0.611,0.979v0.061
				c0.244,0.673,0.367,1.469,1.407,1.286c0.122,0,0.245,0.061,0.367,0.122C490.641,364.359,490.641,361.605,490.641,358.852z
				 M482.439,367.726c1.53,0,3.061,0,4.59,0c-0.244-1.224-1.224-1.958-2.387-1.958C483.541,365.829,482.562,366.624,482.439,367.726
				z M490.028,357.138c-0.122,0.184-0.429,0.428-0.367,0.612s0.306,0.428,0.551,0.49c0.122,0,0.429-0.306,0.429-0.49
				C490.701,357.383,490.457,357.199,490.028,357.138z M488.805,357.138c-0.062,0-0.184,0-0.245,0
				c-0.122,0.184-0.429,0.428-0.367,0.612c0,0.184,0.306,0.367,0.489,0.551c0.184-0.184,0.49-0.306,0.49-0.551
				C489.172,357.566,488.927,357.322,488.805,357.138z M487.764,357.873c0-0.062,0-0.184,0-0.245
				c-0.184-0.122-0.428-0.428-0.611-0.367c-0.184,0-0.367,0.306-0.551,0.49c0.184,0.184,0.306,0.49,0.489,0.551
				C487.336,358.24,487.58,357.995,487.764,357.873z"/>
			<path fill="#FFFFFF" d="M42.228,514.483c0.306-0.062,0.673-0.123,0.979-0.123c13.342,0,26.684,0,40.025,0
				c0.306,0,0.673,0,0.979,0.062c0.306,0.062,0.551,0.245,0.551,0.551s-0.245,0.551-0.551,0.551
				c-0.429,0.062-0.918,0.062-1.347,0.062c-7.527,0-15.055,0-22.521,0c-6.059,0-12.118-0.062-18.176-0.062
				C42.228,515.156,42.228,514.851,42.228,514.483z"/>
			<path fill="#FFFFFF" d="M457.286,422.316c0.734,0,2.02-0.429,2.02,0.489c0.062,1.224-1.285,0.734-2.02,0.734
				c-9.485,0.062-18.972,0.062-28.396,0c-1.102,0-1.652,0.122-1.714,1.53c-0.184,5.753-2.387,10.648-6.426,14.749
				c-4.896,4.957-9.854,9.853-14.688,14.749c-0.856,0.856-1.407,0.979-2.325,0.062c-5.079-5.142-10.281-10.221-15.3-15.423
				c-6.609-6.854-7.895-17.564-3.244-26.01c4.651-8.445,14.443-13.097,23.746-11.261c9.67,1.897,16.341,8.935,18.115,19.155
				c0.184,1.041,0.489,1.285,1.469,1.225c4.896-0.062,9.73,0,14.627,0C447.861,422.316,452.574,422.255,457.286,422.316z"/>
			<path fill="#FCFDFD" d="M87.761,359.219c0.796,0.673,0.673,1.652,0.734,2.509c0.306,5.569,2.02,10.71,4.712,15.545
				c8.079,14.504,24.052,21.787,40.208,18.849c8.69-1.591,16.218-5.813,21.848-12.791c9.731-11.995,11.812-25.398,5.937-39.596
				c-7.099-17.136-25.765-26.561-44.187-21.788c-12.974,3.366-21.848,11.628-26.5,24.235c-1.163,3.121-1.897,6.304-2.02,9.608
				c-0.061,0.857,0.123,1.958-0.918,2.509c-0.367,0.123-0.734,0.061-1.041-0.245c0.123-1.714,0.184-3.489,0.429-5.202
				c3.121-21.849,24.357-37.271,46.022-33.415c21.358,3.794,35.496,23.011,32.803,44.676c-2.815,22.95-25.888,38.801-48.348,33.476
				c-17.197-4.039-30.661-19.461-30.906-38.188C86.843,358.974,87.271,358.974,87.761,359.219z"/>
			<path fill="#FDFEFF" d="M351.288,536.148c-1.591,0-1.958-0.429-1.958-1.959c0.061-9.73,0.061-19.4,0.061-29.131
				c0-0.307,0-0.674,0-0.979c0-0.429,0.123-0.796,0.612-0.796c0.367,0,0.551,0.367,0.551,0.734c0,0.429,0,0.918,0,1.347
				c0,9.241,0.062,18.482-0.062,27.785c0,1.53,0.429,1.836,1.897,1.836c28.825-0.062,57.65-0.062,86.476,0
				c1.407,0,1.774-0.367,1.774-1.774c-0.061-18.605-0.061-37.21,0-55.876c0-1.591-0.489-1.897-1.958-1.897
				c-22.093,0.062-44.187,0-66.279,0c-0.49,0-0.979,0-1.53,0c-0.367,0-0.673-0.122-0.673-0.551s0.306-0.612,0.611-0.673
				c0.367-0.062,0.796-0.062,1.163-0.062c22.583,0,45.227,0,67.81-0.062c1.591,0,2.142,0.429,2.081,2.081
				c-0.062,19.217-0.062,38.495,0,57.712c0,1.652-0.367,2.203-2.143,2.203c-14.749-0.062-29.498-0.062-44.247-0.062
				S366.037,536.087,351.288,536.148z"/>
			<path fill="#FDFEFD" d="M387.641,388.228c18.973-2.754,31.702-19.645,29.132-38.74c-2.571-19.155-21.788-32.558-40.698-28.335
				c-20.318,4.529-31.824,25.153-24.97,44.798c0.184,0.551,0.918,1.408-0.062,1.714c-0.918,0.306-0.918-0.796-1.102-1.347
				c-2.081-5.998-2.57-12.056-1.469-18.36c3.121-17.993,20.869-31.028,39.046-28.581c20.624,2.815,34.149,21.542,30.294,41.983
				c-3.733,20.012-24.97,32.864-44.492,26.928c-0.551-0.184-1.53-0.184-1.285-0.979c0.244-0.979,1.102-0.367,1.652-0.184
				c3.121,0.857,6.242,1.285,9.853,1.347C384.642,388.473,386.172,388.473,387.641,388.228z"/>
			<path fill="#F4FAF7" d="M454.471,501.08c0,1.163,1.347,0.612,2.081,0.612c13.893,0,27.785,0,41.678,0
				c0.122-0.429,0.244-0.856,0.428-1.285c-14.075,0-28.091,0-42.166,0C455.817,500.407,454.471,499.856,454.471,501.08z"/>
			<path fill="#FCFDFD" d="M232.683,329.047c0-1.53,0.306-2.02,1.958-2.02c12.424,0.061,24.909,0.061,37.332,0
				c1.652,0,1.958,0.551,1.897,2.02c-0.062,10.343,0,20.747-0.062,31.089c0,0.673,0.49,1.958-0.612,1.897
				c-1.041-0.062-0.551-1.285-0.551-1.958c-0.061-10.037-0.061-20.074,0-30.11c0-0.979,0.061-1.652-1.346-1.652
				c-11.996,0.061-23.991,0.061-35.986,0c-0.979,0-1.346,0.245-1.346,1.285c0.061,16.401,0,32.864,0,49.266
				c0,0.979,0.184,1.347,1.285,1.347c12.056-0.061,24.113-0.061,36.169,0c0.918,0,1.285-0.245,1.285-1.224
				c-0.061-2.203,0-4.345,0-6.548c0-0.428-0.122-1.041,0.49-1.102c0.734-0.061,0.673,0.612,0.673,1.102
				c0,2.326-0.062,4.712,0.061,7.038c0.061,1.53-0.367,2.02-1.958,2.02c-12.423-0.061-24.908-0.061-37.332,0
				c-1.469,0-1.897-0.428-1.897-1.897c0.061-8.384,0.061-16.83,0.061-25.214C232.744,346,232.744,337.493,232.683,329.047z"/>
			<path fill="#F8FCFA" d="M256.795,366.134c0.612,0,1.224,0,1.836,0c10.037,0,20.073,0,30.11,0c3.855,0,3.855,0,3.855-3.794
				c0-15.483,0-30.967,0-46.451c0-0.918,0.184-1.713-1.285-1.713c-12.057,0.061-24.113,0.061-36.169,0
				c-0.979,0-1.285,0.306-1.224,1.224c0.061,2.632,0.061,5.263,0,7.895c0,0.551,0.428,1.652-0.551,1.652
				c-1.102,0-0.673-1.102-0.673-1.713c-0.061-2.815,0.061-5.63-0.061-8.385c-0.062-1.591,0.489-1.958,2.02-1.958
				c12.362,0.061,24.786,0.061,37.148,0c1.591,0,2.081,0.428,2.081,2.02c-0.061,16.769-0.061,33.538,0,50.306
				c0,1.652-0.428,2.203-2.142,2.203c-11.016-0.061-22.093-0.061-33.109-0.061c-0.612,0-1.163,0-2.265,0
				c1.836,1.775,3.305,3.244,4.773,4.712c0.368,0.367,0.857,0.795,0.368,1.285c-0.49,0.49-0.918-0.061-1.286-0.367
				c-1.774-1.775-3.549-3.611-5.385-5.324c-0.796-0.734-0.673-1.224,0.061-1.897c1.836-1.775,3.55-3.549,5.386-5.324
				c0.306-0.306,0.673-0.979,1.224-0.49c0.612,0.551,0.061,0.979-0.368,1.408c-1.53,1.469-3.06,2.938-4.59,4.406
				C256.673,365.829,256.734,366.012,256.795,366.134z"/>
			<path fill="#FDFEFD" d="M73.134,358.056c-0.061-3.06,0.184-6.059,0.857-8.997c4.712-21.481,17.503-35.985,38.801-41.616
				c21.359-5.63,39.78,0.551,54.346,17.197c8.201,9.364,12.118,20.502,12.423,32.987c0,0.612,0.368,1.652-0.551,1.652
				c-1.04,0-0.673-1.102-0.734-1.713c0-2.815-0.245-5.63-0.856-8.323c-4.223-19.461-15.545-33.17-34.517-39.535
				c-19.094-6.426-36.659-2.57-51.714,10.894c-11.077,9.915-16.401,22.705-16.891,37.516
				C73.93,358.362,73.501,358.362,73.134,358.056z"/>
			<path fill="#FDFEFD" d="M376.196,382.23c-0.673-0.184-2.081-0.061-1.836-1.163c0.306-1.102,1.407-0.184,2.02-0.062
				c19.095,4.835,37.026-11.628,33.66-31.028c-2.142-12.668-12.485-21.971-25.275-22.828c-12.362-0.857-23.93,7.099-27.724,19.095
				c-1.836,5.814-1.714,11.566,0.244,17.319c0.184,0.551,0.734,1.346,0,1.652c-0.918,0.367-0.918-0.673-1.162-1.224
				c-0.918-2.448-1.408-4.957-1.592-7.527c-1.224-18.666,15.301-33.415,33.722-30.11c14.504,2.631,24.725,15.973,23.378,30.661
				c-1.346,14.688-13.708,26.01-28.458,26.071C380.786,383.087,378.461,382.903,376.196,382.23z"/>
			<path fill="#FDFEFD" d="M74.297,359.463c0.184,2.815,0.245,5.569,0.857,8.323c3.978,19.523,15.177,33.232,33.905,39.903
				c18.666,6.609,35.924,2.998,51.285-9.608c0.612-0.49,1.224-1.959,2.081-0.979c0.795,0.856-0.673,1.407-1.285,1.958
				c-12.668,10.649-27.173,14.811-43.513,12.24c-25.398-3.978-44.309-26.071-44.493-51.775
				C73.501,359.096,73.93,359.096,74.297,359.463z"/>
			<path fill="#FDFEFD" d="M68.421,361.238c-0.551,0.734-1.224,1.285-1.897,1.897c-0.306,0.306-0.673,0.489-1.041,0.184
				c-0.367-0.367-0.122-0.734,0.184-0.979c0.857-0.856,1.775-1.652,2.815-2.631c-1.652-0.429-2.693-0.245-3.55,0.795
				c-0.795,0.918-1.713,1.775-2.631,2.632c-0.306,0.306-0.734,0.673-1.163,0.184c-0.306-0.367,0-0.734,0.245-1.041
				c0.856-0.795,1.713-1.53,2.815-2.57c-1.652-0.367-2.631-0.245-3.488,0.734c-0.857,0.979-1.775,1.836-2.754,2.754
				c-0.367,0.306-0.796,0.551-1.163,0.123c-0.367-0.429,0-0.734,0.245-0.979c0.795-0.856,1.591-1.652,2.448-2.57
				c-0.979-0.367-1.775-0.184-2.509-0.245c-0.489-0.062-0.979-0.123-0.918-0.734c0.062-0.49,0.49-0.551,0.918-0.551
				c0.796-0.062,1.652,0.184,2.815-0.429c-1.041-0.918-1.897-1.652-2.693-2.387c-0.306-0.306-0.734-0.673-0.245-1.102
				c0.428-0.367,0.856-0.061,1.163,0.245c0.979,0.918,1.958,1.836,2.876,2.876c0.795,0.857,1.713,1.041,3.305,0.429
				c-1.102-0.918-1.958-1.653-2.815-2.387c-0.306-0.306-0.734-0.673-0.306-1.163c0.428-0.428,0.795-0.061,1.163,0.245
				c0.918,0.918,1.897,1.775,2.754,2.754c0.856,0.979,1.836,1.102,2.999,0.734c-0.306-0.796-1.041-1.102-1.408-1.714
				c-0.428-0.673-2.02-1.163-1.163-2.02c0.795-0.795,1.469,0.612,2.02,1.163c1.53,1.53,2.938,3.305,5.508,2.632
				c0.367,0,0.796,0,1.163,0c4.1,0,8.14,0,12.24,0c0.429,0,0.796,0,1.224,0c0.367-0.49,0.857-0.551,1.408-0.612
				c2.693-0.306,5.447-0.184,8.14-0.062c0.489,0,1.041,0,1.53,0.062c0.429,0,0.857,0,1.224,0c5.019-0.184,10.037-0.184,15.055,0
				c0.551,0.061,1.041,0,1.591,0c0.734-0.062,1.469,0,2.203,0c2.203-0.184,4.345-0.123,6.548-0.062c0.918,0,1.775,0.245,1.836,1.285
				c0.062,1.163-0.918,1.408-1.836,1.469c-2.203,0.061-4.345,0.122-6.548-0.062c-0.734,0-1.469,0.062-2.203,0
				c-0.551,0-1.041,0-1.591,0c-5.019,0.184-10.037,0.184-15.055,0c-0.428,0-0.857,0-1.224,0c-0.489,0.062-1.041,0-1.53,0
				c-2.693,0.123-5.386,0.245-8.079-0.061c-0.551,0-1.041-0.123-1.408-0.551c-0.428,0-0.795,0-1.224,0c-4.04,0-8.14,0-12.179,0
				c-0.368,0-0.796,0-1.163,0C71.237,359.035,69.646,359.586,68.421,361.238z"/>
			<path fill="#FCFDFD" d="M388.191,349.121c-0.306,0.734-0.489,1.224-0.734,1.714c-0.612,1.102-0.429,1.836,0.612,2.693
				c2.387,1.958,3.794,4.406,2.815,7.711c-1.102,3.55-3.733,5.263-7.772,4.835c-1.102-0.123-1.652,0.061-1.897,1.163
				c-0.306,1.347-1.04,1.775-2.265,1.041c-0.367-0.245-0.796-0.367-1.224-0.49c-1.163-0.306-1.469-0.979-0.857-1.958
				c0.734-1.163,0.49-1.958-0.734-2.692c-1.407-0.857-2.509-2.081-3.488-3.366c-0.184-0.245-0.367-0.428-0.489-0.673
				c-0.856-2.448,1.774-2.142,2.632-3.244c0.551-0.673,1.407-1.224,2.142,0.062c0.673,1.163,1.53,2.203,2.632,3.06
				c0.673-0.796,0.795-1.775,1.224-2.632c0.367-0.673,0.123-1.041-0.367-1.408c-0.429-0.306-0.856-0.734-1.224-1.163
				c-2.51-2.509-2.999-4.957-1.714-7.956c1.224-2.754,3.795-4.162,7.16-3.917c0.918,0.061,1.775,0.367,2.081-0.918
				c0.122-0.551,0.612-0.49,1.102-0.306c0.796,0.306,1.592,0.612,2.326,0.918c0.611,0.245,1.04,0.612,0.673,1.285
				c-0.551,0.979,0,1.408,0.734,1.836c0.306,0.184,0.551,0.428,0.796,0.612c3.243,2.815,2.998,4.346-0.857,6.365
				c-0.611,0.306-0.918,0.122-1.285-0.306C389.538,350.712,388.926,349.978,388.191,349.121z"/>
			<path fill="#F2F9F5" d="M250.553,519.073c-0.551,0-1.469,0.245-1.469-0.612c0-0.979,0.918-0.551,1.408-0.611
				c0.245-0.062,0.428,0,0.673,0c29.376,0,58.752,0,88.128,0.061c0.673,0,2.02-0.611,2.02,0.612c0,1.04-1.285,0.551-1.959,0.551
				c-14.688,0-29.376,0-44.063,0C280.357,519.073,265.485,519.135,250.553,519.073z"/>
			<path fill="#F1F9F4" d="M495.72,488.474c0,0.489,0.429,0.611,0.796,0.673c0.367,0,0.796,0,1.163,0c2.203,0,4.406,0,6.671,0
				c0.122-0.429,0.244-0.857,0.367-1.285h-7.038c-0.367,0-0.796,0-1.163,0C496.087,487.923,495.72,487.923,495.72,488.474z"/>
			<path fill="#F0F8F4" d="M160.344,434.739c0.673,0,1.958-0.489,1.958,0.551c0,1.225-1.346,0.674-2.02,0.674
				c-16.952,0.061-33.843,0-50.796,0c-0.428,0-0.918,0-1.346,0c-0.429,0-0.796-0.184-0.796-0.674c0-0.489,0.49-0.551,0.857-0.551
				c0.428,0,0.918,0,1.346,0c8.446,0,16.953,0,25.398,0C143.392,434.679,151.898,434.679,160.344,434.739z"/>
			<path fill="#F0F8F4" d="M388.804,470.848c-0.429,0-0.918,0-1.347,0s-0.856-0.062-0.796-0.612c0-0.489,0.429-0.611,0.857-0.611
				c0.306,0,0.673,0,0.979,0c15.789,0,31.579,0,47.43,0c0.367,0,0.796,0,1.163,0.061c0.367,0.062,0.673,0.245,0.611,0.612
				c0,0.429-0.306,0.551-0.673,0.551c-0.429,0-0.918,0-1.347,0c-7.772,0-15.605,0-23.378,0
				C404.471,470.848,396.637,470.848,388.804,470.848z"/>
			<path fill="#F0F8F4" d="M412.182,465.095c-0.489,0-1.346,0.245-1.407-0.489c-0.062-0.918,0.796-0.734,1.407-0.734
				c9.792,0,19.584,0,29.438,0c0.551,0,1.469-0.184,1.347,0.734c-0.062,0.795-0.857,0.489-1.408,0.489c-4.896,0-9.73,0-14.626,0
				C422.097,465.095,417.14,465.095,412.182,465.095z"/>
			<path fill="#F9FCFA" d="M125.705,459.281c-2.509,0.061-4.651-2.081-4.59-4.529s2.081-4.468,4.529-4.468
				c2.448,0,4.468,1.959,4.468,4.468S128.153,459.22,125.705,459.281z"/>
			<path fill="#F9FCFA" d="M311.202,535.598c-0.062-2.448,1.897-4.529,4.345-4.591c2.57-0.061,4.651,1.897,4.651,4.407
				c0,2.509-1.897,4.467-4.406,4.528S311.264,538.045,311.202,535.598z"/>
			<path fill="#FCFDFD" d="M475.341,342.511c2.57,0,4.467,1.958,4.406,4.468c0,2.57-1.959,4.467-4.468,4.467
				c-2.57,0-4.406-1.958-4.406-4.467C470.873,344.408,472.77,342.511,475.341,342.511z"/>
			<path fill="#FFFFFF" d="M410.346,384.372c-0.489,0-1.285,0.245-1.346-0.551c-0.062-0.857,0.734-0.612,1.285-0.612
				c6.671,0,13.28,0,19.951,0c0.489,0,1.346-0.245,1.285,0.612c-0.062,0.795-0.857,0.551-1.347,0.551c-3.305,0-6.609,0-9.914,0
				S413.65,384.372,410.346,384.372z"/>
			<path fill="#F4FAF6" d="M316.281,365.461c-0.489,0-1.102,0.122-1.102-0.673c0-0.612,0.551-0.612,0.979-0.612
				c4.59,0,9.18,0,13.709,0c0.429,0,0.979,0,1.04,0.612c0.062,0.795-0.611,0.673-1.04,0.673c-2.203,0-4.468,0-6.671,0
				C320.811,365.461,318.546,365.461,316.281,365.461z"/>
			<path fill="#F8FCF9" d="M476.564,422.438c0,1.714-1.469,3.183-3.183,3.183c-1.774,0-3.121-1.408-3.121-3.183
				s1.347-3.121,3.183-3.121C475.157,419.256,476.564,420.664,476.564,422.438z"/>
			<path fill="#F9FCFA" d="M224.543,518.4c0-1.714,1.407-3.121,3.06-3.183c1.713-0.062,3.243,1.407,3.243,3.183
				c0,1.774-1.346,3.182-3.182,3.182S224.481,520.236,224.543,518.4z"/>
			<path fill="#F8FCFA" d="M97.736,435.841c0,1.714-1.469,3.183-3.244,3.183s-3.182-1.469-3.121-3.243
				c0-1.775,1.408-3.121,3.183-3.121C96.39,432.659,97.736,434.066,97.736,435.841z"/>
			<path fill="#F6FBF9" d="M495.047,443.43c1.774,0,3.121,1.408,3.121,3.183s-1.469,3.183-3.243,3.121
				c-1.714-0.061-3.183-1.53-3.122-3.243C491.864,444.776,493.272,443.43,495.047,443.43z"/>
			<path fill="#FAFDFC" d="M444.312,380.149c1.775,0,3.244,1.407,3.244,3.182c0,1.714-1.407,3.121-3.061,3.183
				c-1.774,0.061-3.243-1.285-3.243-3.122C441.19,381.557,442.537,380.21,444.312,380.149z"/>
			<path fill="#FAFDFC" d="M457.653,463.993c0-1.774,1.408-3.183,3.183-3.183c1.714,0,3.061,1.408,3.121,3.121
				c0.062,1.836-1.285,3.183-3.121,3.183C459,467.176,457.653,465.829,457.653,463.993z"/>
			<path fill="#F8FCF9" d="M331.275,378.007c1.53,0.061,2.877,1.408,2.877,2.938c0,1.591-1.347,2.999-2.999,2.999
				s-2.999-1.346-2.938-2.999C328.276,379.354,329.685,377.946,331.275,378.007z"/>
			<path fill="#F7FBF8" d="M352.206,380.945c0-1.591,1.469-2.999,3.06-2.938c1.53,0.061,2.877,1.408,2.877,2.938
				c0,1.652-1.347,2.999-2.938,2.999C353.553,383.943,352.206,382.597,352.206,380.945z"/>
			<path fill="#F7FBF8" d="M340.272,381.006c0-1.652,1.285-2.999,2.938-2.999c1.591,0,2.876,1.285,2.938,2.876
				c0.061,1.713-1.225,3.06-2.877,3.06C341.618,384.005,340.272,382.72,340.272,381.006z"/>
			<path fill="#F2F9F5" d="M300.92,365.461c-0.49,0-1.102,0.061-1.102-0.673c0-0.551,0.551-0.612,1.041-0.612
				c2.938,0,5.937,0,8.874,0c0.429,0,0.979,0,0.979,0.612c0,0.795-0.612,0.673-1.102,0.673c-1.47,0-2.877,0-4.346,0
				S302.328,365.461,300.92,365.461z"/>
			<path fill="#EFF8F3" d="M337.334,365.461c-0.367,0-0.673-0.123-0.734-0.49c-0.061-0.49,0.245-0.734,0.674-0.734
				c1.591,0,3.243,0,4.835,0c0.428,0,0.795,0.245,0.734,0.734c-0.062,0.49-0.429,0.551-0.857,0.551c-0.734,0-1.469,0-2.142,0
				C339.048,365.461,338.191,365.461,337.334,365.461z"/>
			<path fill="#ECF6F0" d="M239.108,519.073c-0.795,0-1.53,0-2.326,0c-0.306,0-0.673-0.184-0.673-0.551
				c-0.061-0.551,0.367-0.673,0.735-0.673c1.53,0,3.121,0,4.651,0c0.367,0,0.673,0.122,0.673,0.551c0,0.489-0.367,0.673-0.734,0.673
				C240.638,519.135,239.904,519.073,239.108,519.073L239.108,519.073z"/>
			<path fill="#FDFEFF" d="M93.697,515.585c-0.367,0-0.673-0.184-0.673-0.551c0-0.429,0.306-0.551,0.673-0.551
				c2.02,0,3.978,0,5.998,0c0.367,0,0.673,0.184,0.673,0.551c0,0.429-0.306,0.551-0.673,0.551c-0.918,0-1.897,0-2.815,0
				C95.839,515.585,94.738,515.585,93.697,515.585z"/>
			<path fill="#E8F4EC" d="M377.543,470.175c0-1.163,1.469-0.551,2.265-0.612c0.734,0,2.142-0.429,2.142,0.551
				c0,1.285-1.407,0.367-2.142,0.734C379.012,470.542,377.543,471.398,377.543,470.175z"/>
			<path fill="#ECF6F0" d="M453.063,465.095c-0.551-0.184-1.591,0.429-1.591-0.612c0-0.979,0.979-0.611,1.591-0.673
				c0.122,0,0.245,0,0.306,0c0.734,0.184,2.021-0.489,2.021,0.734c0,1.04-1.286,0.245-1.837,0.551
				C453.247,465.095,453.186,465.156,453.063,465.095z"/>
			<path fill="#EAF5EF" d="M463.284,422.806c0.061-0.979,1.285-0.367,2.02-0.551c0.184-0.062,0.367-0.062,0.489,0
				c0.551,0.122,1.469-0.367,1.469,0.612c0,0.856-0.856,0.611-1.469,0.673c-0.184,0-0.306,0-0.734,0
				C464.631,423.173,463.223,424.152,463.284,422.806z"/>
			<path fill="#E8F4EC" d="M102.938,434.679c0.428,0,0.979,0,1.041,0.551c0,0.673-0.612,0.673-1.102,0.673c-0.673,0-1.346,0-2.02,0
				c-0.428,0-0.979,0-1.04-0.612c-0.062-0.734,0.612-0.673,1.102-0.673c0.245,0,0.551,0,0.856,0
				C102.204,434.679,102.571,434.679,102.938,434.679z"/>
			<path fill="#E7F4EC" d="M372.708,470.848c-0.306,0-0.551,0-0.856,0c-0.49-0.062-1.163,0.184-1.163-0.612
				c0-0.734,0.612-0.673,1.102-0.673c0.673,0,1.347,0,2.02,0c0.429,0,0.796,0.184,0.796,0.673c0,0.367-0.367,0.551-0.734,0.551
				C373.504,470.848,373.075,470.848,372.708,470.848L372.708,470.848z"/>
			<path fill="#FDFEFD" d="M436.05,384.372c-0.429-0.062-1.102,0.123-1.102-0.612c0-0.612,0.612-0.551,1.041-0.551
				c0.611,0,1.224,0,1.836,0c0.489,0,1.162-0.122,1.162,0.551c0,0.857-0.734,0.551-1.224,0.612c-0.245,0.061-0.429,0-0.673,0
				C436.724,384.372,436.356,384.433,436.05,384.372z"/>
			<path fill="#E9F5EE" d="M445.903,464.605c-0.062-0.979,0.918-0.734,1.469-0.734c0.612,0,1.591-0.307,1.591,0.673
				c0,1.04-1.04,0.429-1.591,0.673C446.943,464.911,445.965,465.462,445.903,464.605z"/>
			<path fill="#FCFDFD" d="M49.694,489.514c0-5.141,3.733-9.058,8.69-9.119c5.08-0.061,8.935,3.855,8.997,9.058
				c0.061,5.202-3.794,9.241-8.813,9.241C53.611,498.693,49.694,494.716,49.694,489.514z"/>
			<path fill="#FCFDFC" d="M83.354,497.164c0,0.734-0.062,1.285-1.041,1.224c-3.55-0.062-7.038,0-10.587,0
				c-0.429,0-0.918,0.122-0.918-0.612c0-0.673,0.489-0.673,0.918-0.673c1.652,0,3.366,0.062,5.018,0
				c1.714-0.062,3.978,0.734,4.958-0.367c0.856-0.979,0.184-3.183,0.306-4.896c0.123-1.285-0.245-1.774-1.652-1.713
				c-2.203,0.122-4.345,0.061-6.548,0c-0.612,0-1.775,0.489-1.775-0.551c0-1.163,1.224-0.551,1.836-0.612
				c0.857-0.122,1.775,0,2.693-0.062c1.775-0.122,4.223,0.796,5.141-0.367c0.918-1.102,0.184-3.427,0.306-5.202
				c0.062-1.285-0.489-1.469-1.591-1.469c-2.815,0.062-5.63,0.062-8.385,0c-0.428,0-1.163,0.307-1.163-0.489
				c-0.061-0.918,0.734-0.673,1.224-0.673c3.305,0,6.609,0,9.914-0.062c0.979,0,1.347,0.245,1.347,1.285
				c-0.062,2.509,0,5.019,0,7.589S83.354,494.593,83.354,497.164z"/>
			<path fill="#FAFDFC" d="M96.574,480.885c1.958,0.734,3.182,2.203,3.244,4.039c0.061,2.142-0.734,3.427-2.999,4.345
				c-0.857,0.367-1.836,0.551-2.754,0.796c-1.224,0.306-2.509,0.489-3.672,1.163c-1.591,0.918-2.02,2.692-1.102,4.223
				c0.795,1.285,2.02,1.774,3.427,1.836c2.265,0.184,4.345-0.429,6.12-1.897c0.367-0.306,0.734-0.796,1.285-0.184
				s0,0.857-0.367,1.163c-2.203,1.714-4.651,2.448-7.405,2.081c-2.754-0.367-4.529-2.02-4.712-4.224
				c-0.245-2.509,0.979-4.039,4.04-4.957c1.469-0.428,3.06-0.734,4.529-1.224c1.53-0.489,2.448-1.53,2.326-3.244
				c-0.123-1.469-1.224-2.631-2.999-2.938c-2.081-0.367-4.039,0-5.753,1.225c-0.428,0.306-0.795,0.673-1.224,0
				c-0.49-0.734,0.184-0.918,0.551-1.163c1.469-0.979,3.121-1.53,5.018-1.469C94.86,480.456,95.717,480.578,96.574,480.885z"/>
			<path fill="#12133B" d="M216.648,454.813c2.081-2.02,2.081-2.081,0.184-4.162c-0.673-0.734-0.245-1.04,0.245-1.469
				c0.429-0.367,0.673-1.285,1.53-0.429c2.509,2.571,5.019,5.08,7.589,7.589c0.367,0.367,0.489,0.612,0.061,1.102
				c-0.795,0.918-1.469,1.53-2.387,0.184c-0.979-1.407-1.897-1.529-2.999-0.061c-0.551,0.734-1.407,1.285-1.958,2.02
				c-0.918,1.163-1.591,1.224-2.448-0.122c-0.49-0.857-1.285-1.53-2.203-2.693C214.996,456.159,215.914,455.548,216.648,454.813z"/>
			<path fill="#F8974A" d="M115.423,490.982c-0.734-0.489-0.979-1.224-0.734-2.081c0.306-0.856,0.918-1.407,1.897-1.347
				c0.918,0.062,1.53,0.429,1.652,1.347c-0.795,0.429-2.02-0.734-2.203,0.49c-0.184,1.04,1.285,0.551,2.02,1.224
				C117.137,491.472,116.28,491.595,115.423,490.982z"/>
			<path fill="#FCFDFD" d="M383.234,507.751c0-6.548,5.264-11.812,11.812-11.873c6.671-0.061,11.935,5.202,11.935,11.873
				c0,6.609-5.202,11.812-11.813,11.873C388.559,519.624,383.234,514.36,383.234,507.751z"/>
			<path fill="#E05D26" d="M413.712,423.54c1.897,0,1.958,0.122,1.469,2.02c-1.591,5.998-7.649,9.425-13.586,7.711
				c-5.692-1.652-9.058-7.833-7.345-13.586c1.408-4.651,6.06-8.018,10.771-7.772c5.019,0.245,9.303,3.855,10.281,8.629
				c0.245,1.102,0.184,1.775-1.285,1.714c-2.938-0.122-5.813-0.062-8.751,0c-0.49,0-1.163-0.184-1.163,0.612
				c0,0.673,0.673,0.673,1.163,0.673c1.53,0,2.999,0,4.528,0C411.142,423.54,412.427,423.54,413.712,423.54z"/>
			<path fill="#12133B" d="M116.28,361.544c1.53,5.202,6.61,8.446,11.75,7.527c5.753-1.04,8.997-5.875,8.752-10.832
				c-0.245-5.263-4.468-9.486-9.731-9.854c-4.59-0.306-9.486,2.448-10.833,8.14c-0.123,0.612-0.428,1.163-0.918,1.53
				c-5.141,0-10.282,0-15.422,0c-0.49-0.306-0.612-0.734-0.551-1.285c0.612-7.038,3.427-13.097,8.629-17.871
				c5.691-5.202,12.484-7.65,20.318-7.099c8.14,0.612,14.626,4.223,19.584,10.587c3.794,4.896,5.569,10.588,5.508,16.891
				c-0.061,7.405-2.876,13.709-8.017,18.789c-6.304,6.242-14.137,8.69-22.95,7.527c-11.567-1.53-21.175-11.199-22.828-22.827
				c-0.122-1.041-0.856-2.326,0.306-3.305c5.141,0,10.282,0,15.422,0C116.035,359.953,116.035,360.81,116.28,361.544z"/>
			<path fill="#E05D26" d="M97.492,359.463c0.49,0.367,0.551,0.918,0.673,1.469c0.184,1.04,0.245,2.081,0.428,3.121
				c2.264,12.301,12.974,21.848,25.153,22.766c9.669,0.734,17.748-2.448,24.051-9.73c6.181-7.161,8.079-15.484,6.12-24.725
				c-1.102-4.957-3.488-9.302-6.977-12.974c-5.63-5.937-12.607-8.936-20.808-8.936c-6.304,0-11.995,2.02-16.953,5.875
				c-5.63,4.406-9.18,10.098-10.587,17.197c-0.306,1.469,0.245,3.182-1.041,4.467c-2.876,0.123-5.691,0.123-8.568,0
				c0.061-1.591,0.123-3.244,0.367-4.834c2.876-20.441,22.889-35.006,43.207-31.396c20.992,3.733,34.395,23.133,30.539,44.248
				c-3.611,19.768-23.685,33.476-43.452,29.621c-17.809-3.488-30.171-18.054-30.661-36.169
				C91.8,359.463,94.615,359.463,97.492,359.463z"/>
			<path fill="#FAFDFC" d="M98.654,358.056c-0.367-0.429-0.551-0.918-0.489-1.53c0.795-9.363,5.202-16.585,12.974-21.604
				c7.711-4.896,16.035-5.814,24.725-2.754c11.139,3.978,18.789,14.627,18.728,26.622c0,6.365-1.897,12.179-5.875,17.136
				c-7.099,8.813-16.279,12.424-27.479,10.526c-11.75-1.958-20.869-11.261-22.889-23.562c-0.184-1.102-0.796-2.448,0.306-3.488
				c0.367,0,0.796,0,1.163,0c0.061,0.857,0.122,1.652,0.245,2.509c1.285,13.28,13.831,23.99,27.173,23.256
				c16.463-0.918,27.907-15.3,24.97-31.518c-2.509-13.831-16.585-23.562-30.294-20.991c-12.791,2.448-21.236,12.117-22.093,25.336
				C99.45,358.056,99.083,358.056,98.654,358.056z"/>
			<path fill="#E05D26" d="M118.789,354.445c1.958-3.366,5.998-5.019,9.854-3.978c3.855,1.041,5.998,4.162,6.242,8.323
				c0.184,3.549-2.815,7.711-6.916,8.507c-3.611,0.673-7.65-1.224-9.364-4.651c-0.489-0.979-0.979-2.081-0.122-3.121
				c2.325,0,4.712,0,7.038-0.062c0.551,0,1.286,0.184,1.347-0.612c0.061-0.918-0.796-0.734-1.347-0.734
				c-2.325-0.061-4.712-0.061-7.038-0.061C117.565,356.709,118.177,355.547,118.789,354.445z"/>
			<path fill="#545DA9" d="M116.586,358.056c-0.612-0.551-0.49-1.163-0.367-1.836c0.428-1.958,1.469-3.672,2.876-5.019
				c3.305-3.121,8.507-3.733,12.301-1.53c4.162,2.448,6.12,6.977,5.019,11.628c-1.102,4.59-5.264,7.833-9.976,7.895
				c-4.773,0-8.996-3.183-10.159-7.711c-0.184-0.734-0.306-1.408,0.367-2.02c0.612,0,1.224,0,1.897,0
				c0.428,3.489,2.264,5.814,5.569,6.854c2.999,0.918,5.752,0.184,8.017-2.081c2.264-2.326,2.754-5.202,1.713-8.262
				c-1.163-3.427-4.529-5.385-8.384-5.018c-3.611,0.306-6.242,3.06-6.916,7.099C117.81,358.056,117.198,358.056,116.586,358.056z"/>
			<path fill="#12133B" d="M162.058,446.367c0.367,0.551-0.306,0.734-0.551,1.041c-0.245,0.367-0.612,0.673-0.918,0.979
				c-0.796,0.612-0.673,1.102,0,1.714c1.163,1.041,2.203,2.203,3.366,3.305c0.551,0.551,0.612,0.857,0,1.408
				c-2.815,2.692-2.815,2.754-5.569,0c-1.958-1.959-2.02-2.02-4.04-0.123c-0.795,0.734-1.102,0.245-1.591-0.244
				c-0.429-0.49-1.041-0.796-0.245-1.592c2.509-2.447,5.019-4.957,7.528-7.466c0.184-0.184,0.367-0.367,0.734-0.612
				C161.201,445.327,161.69,445.816,162.058,446.367z"/>
			<path fill="#12133B" d="M192.963,436.453c1.041-0.062,1.163,0.429,1.163,1.285c0,0.918-0.184,1.347-1.224,1.285
				c-1.346-0.062-2.693,0-4.039,0c-0.367,0-0.734,0.122-0.734,0.489c-0.062,0.49,0.367,0.735,0.734,0.674
				c1.408-0.245,1.53,0.551,1.469,1.652c-0.061,0.979-0.061,2.02,0,2.999c0,0.673-0.184,0.979-0.918,0.979
				c-3.917,0.245-3.917,0.307-3.917-3.549c0-0.123,0-0.245,0-0.307c0-2.754,0-2.815-2.693-2.938
				c-1.163-0.062-1.04-0.673-1.102-1.469c-0.061-0.856,0.184-1.224,1.102-1.163c1.653,0.062,3.366,0,5.019,0
				C189.598,436.453,191.25,436.515,192.963,436.453z"/>
			<path fill="#12133B" d="M89.719,361.361c0.857,10.649,5.386,19.4,13.77,26.132c8.568,6.793,18.36,9.18,29.07,7.466
				c8.813-1.469,16.218-5.691,21.91-12.668c6.365-7.711,9.302-16.585,8.446-26.5c-0.857-9.915-5.08-18.36-12.73-24.908
				c-6.059-5.202-13.158-8.017-21.053-8.69c-7.895-0.673-15.3,1.163-21.971,5.385c-10.587,6.671-16.279,16.341-17.381,28.764
				c-0.061,0.673-0.122,1.347-0.795,1.714c-0.428,0-0.796,0-1.224,0.061c0.184-1.958,0.306-3.917,0.612-5.814
				c3.121-19.951,22.827-34.578,42.778-31.763c21.91,3.06,36.537,22.46,33.354,44.248c-2.999,20.563-22.95,35.435-43.391,32.313
				c-19.033-2.876-32.62-18.299-33.293-37.577c0.429,0,0.796,0,1.224,0C89.719,359.892,89.658,360.626,89.719,361.361z"/>
			<path fill="#12133B" d="M97.492,358.056c0.122-1.347,0.184-2.693,0.428-4.04c2.754-15.055,15.729-25.092,30.906-23.929
				c16.34,1.224,28.519,16.524,26.132,32.742c-2.326,15.545-16.157,26.255-31.824,24.541c-14.198-1.53-25.275-13.586-25.582-27.907
				c0.367,0,0.796,0,1.224,0c0.428,15.239,12.913,27.295,27.968,26.989c15.3-0.306,27.356-12.485,27.356-27.662
				c0-15.239-12.118-27.479-27.295-27.663c-15.177-0.184-27.601,11.75-27.968,26.989C98.287,358.056,97.859,358.056,97.492,358.056z
				"/>
			<path fill="#12133B" d="M216.464,319.623c0-1.775,1.347-3.244,3.121-3.244c1.836-0.062,3.366,1.469,3.366,3.244
				c0,1.713-1.469,3.182-3.244,3.182C217.872,322.744,216.464,321.397,216.464,319.623z"/>
			<path fill="#12133B" d="M128.826,454.63c0.061,1.896-1.347,3.365-3.183,3.365c-1.775,0-3.244-1.469-3.244-3.182
				c0-1.714,1.408-3.244,3.183-3.244C127.296,451.509,128.765,452.854,128.826,454.63z"/>
			<path fill="#12133B" d="M315.73,538.719c-1.774,0.061-3.305-1.469-3.305-3.305c0-1.775,1.469-3.183,3.244-3.183
				c1.836,0,3.182,1.346,3.182,3.183C318.913,537.188,317.506,538.657,315.73,538.719z"/>
			<path fill="#12133B" d="M475.218,343.735c1.775-0.062,3.366,1.53,3.305,3.305c-0.061,1.713-1.591,3.183-3.305,3.183
				s-3.183-1.53-3.183-3.244C472.035,345.265,473.504,343.735,475.218,343.735z"/>
			<path fill="#12133B" d="M475.279,422.316c0,1.162-0.673,1.896-1.836,1.958s-1.897-0.673-1.959-1.836
				c-0.061-1.224,0.674-1.836,1.775-1.958C474.483,420.603,475.218,421.153,475.279,422.316z"/>
			<path fill="#12133B" d="M225.767,518.4c0.062-1.163,0.796-1.897,1.958-1.836c1.163,0.061,1.897,0.795,1.836,1.958
				c0,1.163-0.734,1.774-1.958,1.836C226.44,520.236,225.706,519.563,225.767,518.4z"/>
			<path fill="#12133B" d="M94.554,433.944c1.163,0,1.897,0.673,1.836,1.896c0,1.225-0.734,1.897-1.897,1.897
				c-1.163,0-1.836-0.734-1.897-1.958C92.718,434.617,93.391,433.883,94.554,433.944z"/>
			<path fill="#12133B" d="M495.047,444.715c1.163,0,1.836,0.674,1.836,1.897s-0.734,1.897-1.897,1.897
				c-1.162,0-1.774-0.734-1.896-1.897C493.211,445.389,493.884,444.715,495.047,444.715z"/>
			<path fill="#12133B" d="M462.733,463.993c0,1.163-0.734,1.958-1.897,1.958s-1.897-0.734-1.958-1.836
				c-0.062-1.162,0.734-1.774,1.896-2.02C461.876,462.219,462.672,462.83,462.733,463.993z"/>
			<path fill="#12133B" d="M44.615,468.95c22.767,0,45.533,0,68.299,0c0.367,0,0.795,0,1.163,0c0.796,0,1.347,0.307,1.775,1.041
				c3.305,6.119,6.548,12.239,9.976,18.299c0.367,0.611,0.367,1.285-0.061,1.896c-0.49,0.674-1.163,0.857-1.897,0.674
				c-0.979-0.245-1.958-0.307-2.999-0.551c-0.979-0.184-1.652-0.612-1.958-1.592c-0.367-1.347-1.469-1.836-2.693-1.774
				c-1.163,0.061-1.958,0.918-2.203,2.02c-0.306,1.163,0.306,2.142,1.346,2.632c1.163,0.611,2.326,0.551,3.122-0.612
				c0.612-0.796,1.346-0.918,2.203-0.734c0.734,0.122,1.407,0.245,2.142,0.367c1.836,0.306,2.264,1.224,1.346,2.876
				c-2.754,5.019-5.447,10.037-8.14,15.056c-0.612,1.163-1.469,1.53-2.693,1.53c-23.072,0-46.083,0-69.156,0
				c-0.734,0-1.469,0-1.958-0.674c0-13.342,0-26.683,0-40.024C42.901,468.645,43.819,468.95,44.615,468.95z"/>
			<path fill="#12133B" d="M212.547,448.387c-7.283-5.446-14.321-11.138-21.604-16.523c-0.428-0.306-0.795-0.796-1.407-0.734
				c-0.551,1.285,0.428,2.876-0.857,3.978c-2.265,0-4.468,0-6.732,0c0-14.442,0-28.825,0-43.268c0-0.734,0.061-1.469-0.367-2.142
				c0.918,0,1.774,0.062,2.693,0.062c59.854,0,119.646,0,179.499,0c2.51,0,2.203-0.184,2.203,2.081c0,32.191,0,64.382,0,96.574
				c0,0.489,0,0.979-0.061,1.53c-1.102,0.673-2.326,0.428-3.428,0.428c-44.798,0-89.535,0-134.333,0c-0.857,0-1.653,0-2.509-0.061
				c-0.612-0.062-1.224-0.123-1.591-0.734c0.306-2.571,0.673-5.142,0.673-7.712c0.918-1.102,2.142-0.734,3.305-0.734
				c42.962,0,85.863,0,128.826,0c0.673,0,1.346,0,2.02,0c1.774-0.061,2.02-0.244,2.02-2.08c0-3.366,0-6.732,0-10.099
				c0-8.69,0-17.381,0-26.071c0-1.774-0.122-1.836-1.591-0.918c-2.693,1.592-5.264,3.428-7.896,5.141
				c-2.203,1.469-2.754,1.408-4.651-0.428c-2.876-2.815-5.752-5.691-8.567-8.568c-0.979-0.979-1.714-1.102-2.815-0.184
				c-6.915,5.508-13.647,11.199-20.624,16.708c-1.775,1.407-2.57,1.469-4.284,0.061c-2.081-1.713-4.162-3.427-6.243-5.141
				c-1.775-1.469-2.02-1.53-3.855-0.122c-7.161,5.202-14.198,10.526-21.359,15.729c-1.958,1.407-2.999,1.224-4.284-0.796
				c-4.345-6.854-8.813-13.647-13.036-20.563c-1.163-1.896-1.408-2.02-3.305-0.979c-4.834,2.509-9.792,4.712-14.688,7.16
				c-1.897,0.918-2.57,0.734-3.917-0.857c-1.53-1.774-3.06-3.61-4.529-5.385c-0.918-1.102-1.714-1.163-2.876-0.551
				c-3.244,1.774-6.671,3.243-9.976,4.834c-0.795,0.367-1.53,0.796-2.387,0.184c-1.958-1.713-1.958-1.713-3.794,0.123
				c-0.306,0.306-0.612,0.611-0.979,0.918C213.955,449.917,213.282,448.938,212.547,448.387z"/>
			<path fill="#12133B" d="M356.49,530.701c-1.469,0-2.081-0.306-2.081-1.958c0.062-7.834,0.062-15.729,0-23.563
				c0-1.347,0.429-1.836,1.836-1.836c4.162,0.062,8.323,0,12.424,0c2.265,0,2.265,0,2.265-2.203c0-6.487,0.061-13.035-0.062-19.522
				c0-1.652,0.367-2.203,2.142-2.203c20.38,0.061,40.698,0.061,61.078,0c1.713,0,2.203,0.489,2.142,2.203
				c-0.061,15.605-0.061,31.15-0.061,46.757c0,2.264,0,2.264-2.388,2.264c-12.852,0-25.703,0-38.494,0
				C382.438,530.701,369.465,530.64,356.49,530.701z"/>
			<path fill="#12133B" d="M193.147,447.469c19.339,2.693,32.987,21.421,29.682,40.698c-2.631,15.3-15.055,27.418-29.988,29.315
				c-16.096,2.02-30.967-6.304-37.393-20.992c-0.368-0.856-0.979-1.836-0.857-2.632c0.122-0.795,1.408-0.611,2.142-1.04
				c1.407-0.734,2.387-1.714,2.142-3.427c-0.184-1.347-2.142-2.938-3.549-2.999c-0.306,0-0.551,0-0.734,0.306
				c-0.184,0.367-0.062,0.673,0.306,0.857c0.551,0.244,1.163,0.428,1.653,0.795c1.469,0.918,1.407,2.265-0.123,3.183
				c-0.367,0.245-0.857,0.306-1.224,0.551c-1.041,0.551-1.53,0.122-1.713-0.979c-0.306-1.958-0.796-3.855-0.918-5.813
				c-1.652-20.625,14.626-38.25,35.312-38.189C189.72,447.163,191.434,447.225,193.147,447.469z"/>
			<path fill="#12133B" d="M365.976,497.348c0.062,1.407-0.367,1.713-1.774,1.713c-47.308-0.061-94.615,0-141.984-0.061
				c-0.49,0-0.979,0.184-1.53-0.307c1.53-2.876,2.326-5.997,3.244-9.118c46.573,0,93.208,0,139.781,0
				c0.734,0,1.469-0.062,2.142,0.306C365.915,492.39,365.792,494.899,365.976,497.348z"/>
			<path fill="#12133B" d="M421.301,423.54c1.04,0,2.142,0.062,3.183,0c1.163-0.122,1.53,0.306,1.469,1.53
				c-0.306,5.263-2.203,9.792-5.875,13.586c-4.713,4.835-9.608,9.608-14.321,14.443c-0.734,0.734-1.102,0.673-1.836,0
				c-4.773-4.835-9.608-9.608-14.32-14.443c-3.306-3.366-5.264-7.527-5.753-12.24c-1.408-14.382,10.771-25.643,25.03-23.194
				c8.568,1.469,15.729,8.996,16.953,17.626c0.184,1.162-0.062,1.591-1.347,1.529c-2.02-0.122-4.039-0.061-6.059,0
				c-1.102,0.062-1.592-0.184-1.775-1.469c-1.04-6.242-6.426-10.404-12.668-10.098c-5.998,0.306-10.833,5.079-11.384,11.077
				c-0.489,5.937,3.55,11.566,9.364,12.852c6.059,1.347,12.056-1.896,14.198-7.649c0.429-1.163,0.061-2.877,1.224-3.366
				C418.425,423.173,419.954,423.54,421.301,423.54L421.301,423.54z"/>
			<path fill="#12133B" d="M115.301,358.056c0.123-0.673,0.184-1.347,0.306-1.958c1.346-5.691,7.038-9.241,13.036-8.079
				c5.508,1.102,9.486,6.671,8.629,12.24c-0.856,5.752-5.569,9.731-11.322,9.608c-5.63-0.123-10.037-4.468-10.649-10.343
				c0.428,0,0.857,0,1.285,0c0.429,5.447,4.773,9.241,10.343,9.058c5.019-0.184,9.18-4.59,9.18-9.731
				c0-5.202-4.223-9.608-9.364-9.792c-5.324-0.184-9.73,3.733-10.159,9.058C116.158,358.056,115.729,358.056,115.301,358.056z"/>
			<path fill="#12133B" d="M383.663,364.849c-0.184,0-0.612,0.061-0.979-0.061c-1.407-0.551-2.203,0-2.509,1.408
				c-0.184,0.734-0.49,1.102-1.408,0.734s-0.918-0.857-0.489-1.53c0.856-1.346,0.429-2.203-0.918-2.876
				c-1.102-0.551-1.959-1.469-2.815-2.387c-1.591-1.713-1.53-1.775,0.367-2.999c0.673-0.429,0.979-0.429,1.469,0.245
				c0.734,1.163,1.652,2.081,2.754,2.876c0.734,0.551,1.225,0.428,1.53-0.429c0.062-0.184,0.122-0.306,0.184-0.489
				c1.469-2.57,1.897-4.774-1.102-6.854c-2.203-1.591-2.265-3.978-1.102-6.365c1.102-2.265,3.183-3.183,6.242-2.876
				c0.979,0.123,2.081,0.734,2.57-0.857c0.184-0.551,0.857,0,1.347,0.123s0.673,0.428,0.429,0.857
				c-0.612,1.102,0.184,1.469,0.918,1.958c0.673,0.49,1.346,1.041,1.958,1.591c1.53,1.53,1.469,1.469-0.184,2.815
				c-0.673,0.551-0.979,0.551-1.591-0.123c-2.57-2.815-2.51-2.754-4.039,0.673c-0.796,1.775-0.918,2.938,0.918,4.162
				c1.713,1.163,2.998,2.938,2.692,5.263C389.477,363.013,387.273,364.91,383.663,364.849z"/>
			<path fill="#12133B" d="M446.271,383.393c-0.062,1.163-0.796,1.897-1.959,1.836c-1.162-0.062-1.896-0.796-1.836-1.958
				c0-1.163,0.796-1.775,1.959-1.897C445.536,381.557,446.332,382.23,446.271,383.393z"/>
			<path fill="#12133B" d="M331.215,379.292c1.04,0,1.713,0.612,1.713,1.652c0,0.979-0.551,1.652-1.652,1.713
				c-1.04,0-1.591-0.612-1.714-1.591C329.623,379.966,330.174,379.354,331.215,379.292z"/>
			<path fill="#12133B" d="M355.205,379.292c0.979,0,1.652,0.612,1.652,1.652s-0.612,1.652-1.652,1.652
				c-1.102,0-1.592-0.673-1.714-1.652C353.613,379.966,354.164,379.292,355.205,379.292z"/>
			<path fill="#12133B" d="M341.558,381.006c0-1.04,0.673-1.713,1.652-1.713c0.918,0,1.591,0.612,1.652,1.591
				c0.061,1.04-0.49,1.652-1.53,1.774C342.169,382.658,341.558,382.046,341.558,381.006z"/>
			<path fill="#F8974A" d="M51.102,489.514c0.061-4.406,3.305-7.956,7.466-7.956c4.223,0,7.528,3.61,7.466,8.078
				c-0.061,4.468-3.366,7.834-7.527,7.834C54.284,497.408,51.041,493.981,51.102,489.514z"/>
			<path fill="#E05D26" d="M187.578,452.671c0,9.119,0,18.238,0,27.356c0,1.592-0.551,2.143-2.081,2.143c-9.058,0-18.115,0-27.173,0
				c-0.673,0-1.346,0-1.713-0.734c0.612-16.77,13.403-29.56,30.355-30.417C187.578,451.447,187.578,452.06,187.578,452.671z"/>
			<path fill="#FCFAF7" d="M187.884,450.529c0.673,0.245,0.429,0.856,0.429,1.285c0,9.67,0,19.4,0.061,29.07
				c0,1.591-0.49,1.958-2.02,1.958c-9.547-0.062-19.033-0.062-28.581-0.062c-0.306,0-0.673,0-0.979,0
				c-0.367,0-0.673-0.122-0.795-0.489c-0.123-0.489,0.122-0.734,0.612-0.856c9.731,0,19.461,0,29.192,0.061
				c0.979,0,1.224-0.306,1.224-1.285c-0.062-9.73-0.062-19.461-0.062-29.192C187.211,450.774,187.395,450.346,187.884,450.529z"/>
			<path fill="#EDF6F1" d="M215.73,482.537c0-1.285,1.53-0.612,2.326-0.612c0.734,0,2.081-0.551,2.081,0.551
				c0,1.285-1.407,0.429-2.142,0.796C217.199,482.904,215.669,483.639,215.73,482.537z"/>
			<path fill="#F1F9F5" d="M188.006,515.279c-1.346,0-0.551-1.592-0.673-2.51c-0.061-0.673-0.489-1.897,0.551-1.897
				c1.286,0,0.429,1.347,0.796,2.081C188.19,513.688,189.23,515.279,188.006,515.279z"/>
			<path fill="#545DA9" d="M395.168,518.4c-5.875,0-10.71-4.835-10.648-10.71c0.062-5.814,4.835-10.588,10.648-10.588
				c5.876,0,10.649,4.835,10.649,10.71C405.694,513.688,400.982,518.4,395.168,518.4z"/>
			<path fill="#F7FBF8" d="M383.54,362.095c-1.162,0-1.896-0.306-1.224-1.713c0.489-1.041,0.856-2.081,1.224-3.122
				c0.307-0.856,0.796-0.979,1.469-0.367c0.979,0.918,1.653,1.958,1.102,3.427C385.683,361.544,384.825,362.095,383.54,362.095z"/>
			<path fill="#F9FCFA" d="M381.521,349.06c0.123-1.836,0.734-2.693,2.02-2.999c0.674-0.184,1.408-0.184,1.897,0.306
				c0.551,0.551,0.062,1.163-0.184,1.714c-0.306,0.856-0.673,1.652-0.979,2.509c-0.428,1.224-1.04,1.102-1.774,0.306
				C381.949,350.1,381.521,349.427,381.521,349.06z"/>
			<path fill="#FDFEFD" d="M398.106,513.259c-3.061-1.774-5.876-3.427-8.69-5.018c-0.612-0.367-0.429-0.674,0.061-0.918
				c2.815-1.592,5.569-3.244,8.69-4.958C398.106,506.037,398.106,509.526,398.106,513.259z"/>
			<path fill="#12133B" d="M383.602,360.749c0.306-0.918,0.429-1.653,0.979-2.204C385.315,359.892,385.192,360.198,383.602,360.749z
				"/>
			<path fill="#12133B" d="M383.173,349.488c-0.734-0.795-0.428-1.407,0.184-2.02c0.245-0.184,0.674-0.245,0.674,0
				C384.03,348.203,383.785,348.876,383.173,349.488z"/>
			<path opacity="0.05" fill="#5E5E5E" enable-background="new    " d="M517.813,372.683c0,0.551,0,1.041,0,1.53
				c-0.184,0-0.367,0-0.551,0c0-0.551,0-1.041,0-1.53C517.446,372.683,517.63,372.683,517.813,372.683z"/>
			<path opacity="0.05" fill="#5E5E5E" enable-background="new    " d="M536.847,416.991c0,0.551,0,1.041,0,1.53
				c-0.184,0-0.367,0-0.551,0c0-0.551,0-1.04,0-1.53C536.479,416.991,536.663,416.991,536.847,416.991z"/>
			<path opacity="0.05" fill="#5E5E5E" enable-background="new    " d="M537.948,418.521c-0.184,0-0.367,0-0.551,0
				c0-0.367,0-0.673,0-1.04c0.184,0,0.367,0,0.551,0C537.948,417.849,537.948,418.216,537.948,418.521z"/>
		</g>
		<g>
			<circle fill="#FFFFFC" cx="305.205" cy="429.599" r="85.986"/>
			<g>
				<path fill="#DF5D26" d="M373.81,457.2c0-0.123-0.062-0.184-0.122-0.245c-0.49-0.306-1.041-0.489-1.652-0.551
					c-0.367-0.062-0.674-0.062-1.041-0.062c-0.122,0-0.184-0.061-0.244-0.122c-0.245-0.551-0.429-1.163-0.674-1.714
					c-0.061-0.122-0.061-0.122,0.062-0.244c0.367-0.245,0.673-0.612,0.918-0.979c0.306-0.429,0.489-0.979,0.673-1.469
					c0.062-0.062,0-0.122-0.061-0.184c-0.429-0.429-0.857-0.856-1.285-1.285c-0.062-0.062-0.123-0.062-0.184-0.062
					c-0.307,0.123-0.674,0.245-0.979,0.429c-0.551,0.245-1.041,0.612-1.408,1.163c-0.061,0.061-0.122,0.061-0.184,0.061
					c-0.611-0.244-1.162-0.489-1.774-0.673c-0.062-0.062-0.122-0.062-0.122-0.184c0-0.367-0.062-0.734-0.123-1.102
					c-0.061-0.551-0.244-1.102-0.551-1.591c-0.061-0.062-0.122-0.123-0.184-0.123c-0.611,0-1.224,0-1.774,0
					c-0.122,0-0.184,0.062-0.184,0.123c-0.184,0.306-0.367,0.673-0.429,1.04c-0.122,0.551-0.184,1.04-0.184,1.591
					c0,0.123-0.061,0.123-0.122,0.184c-0.551,0.245-1.163,0.429-1.714,0.674c-0.122,0.061-0.122,0.061-0.184-0.062
					c-0.184-0.306-0.429-0.551-0.734-0.734c-0.551-0.367-1.102-0.612-1.714-0.856c-0.061-0.062-0.122,0-0.184,0.061
					c-0.428,0.429-0.856,0.857-1.285,1.285c-0.061,0.062-0.061,0.123-0.061,0.184c0.122,0.367,0.244,0.674,0.428,0.979
					c0.245,0.551,0.612,1.04,1.102,1.407c0.123,0.062,0.123,0.062,0.062,0.245c-0.245,0.551-0.429,1.102-0.673,1.652
					c-0.062,0.122-0.123,0.184-0.245,0.184c-0.429,0-0.796,0.062-1.224,0.122c-0.49,0.062-0.979,0.245-1.408,0.49
					c-0.061,0.061-0.122,0.122-0.122,0.244c0,0.612,0,1.225,0,1.775c0,0.122,0,0.122,0.122,0.184
					c0.307,0.184,0.674,0.306,1.041,0.429c0.551,0.122,1.102,0.184,1.652,0.184c0.122,0,0.122,0.061,0.184,0.122
					c0.244,0.551,0.489,1.163,0.673,1.714c0.062,0.122,0.062,0.122-0.062,0.184c-0.367,0.306-0.673,0.611-0.918,1.04
					c-0.244,0.429-0.489,0.918-0.673,1.407c0,0.062,0,0.123,0.062,0.184c0.428,0.429,0.856,0.857,1.346,1.347
					c0.062,0.062,0.123,0.062,0.184,0.062c0.367-0.123,0.674-0.245,1.041-0.429c0.551-0.245,1.04-0.612,1.407-1.163
					c0.062-0.061,0.123-0.061,0.184-0.061c0.612,0.244,1.163,0.489,1.775,0.673c0.061,0.062,0.122,0.062,0.122,0.184
					c0,0.367,0.062,0.734,0.122,1.102c0.062,0.551,0.245,1.102,0.551,1.591c0.062,0.062,0.062,0.123,0.184,0.123
					c0.612,0,1.225,0,1.836,0c0.062,0,0.123-0.062,0.184-0.123c0.245-0.428,0.429-0.918,0.49-1.407
					c0.061-0.429,0.122-0.856,0.122-1.285c0-0.122,0.062-0.122,0.122-0.184c0.552-0.245,1.163-0.429,1.714-0.673
					c0.123-0.062,0.123-0.062,0.245,0.061c0.489,0.612,1.102,1.041,1.836,1.285c0.184,0.123,0.429,0.245,0.673,0.245
					c0.062,0,0.123-0.062,0.184-0.122c0.367-0.367,0.734-0.734,1.102-1.102c0.245-0.245,0.245-0.245,0.123-0.612
					c-0.062-0.184-0.123-0.429-0.307-0.612c-0.244-0.611-0.673-1.162-1.162-1.591c-0.123-0.062-0.123-0.062-0.062-0.184
					c0.245-0.551,0.489-1.163,0.673-1.714c0.062-0.061,0.062-0.122,0.184-0.122c0.367,0,0.734-0.062,1.102-0.122
					c0.551-0.062,1.102-0.245,1.592-0.552c0.061-0.061,0.122-0.122,0.122-0.184C373.748,458.363,373.748,457.812,373.81,457.2z
					 M363.956,461.239c-1.713,0-3.182-1.407-3.182-3.183c0-1.714,1.407-3.183,3.182-3.183c1.714,0,3.183,1.408,3.183,3.183
					C367.139,459.832,365.67,461.239,363.956,461.239z"/>
				<path fill="#DF5D26" d="M373.81,481.313c0-0.122-0.062-0.184-0.122-0.244c-0.245-0.123-0.49-0.245-0.734-0.367
					c-0.612-0.184-1.225-0.245-1.836-0.307c-0.123,0-0.245-0.061-0.245-0.184c-0.245-0.551-0.429-1.102-0.673-1.652
					c-0.062-0.122-0.062-0.122,0.061-0.244c0.245-0.184,0.49-0.429,0.734-0.734c0.245-0.367,0.429-0.735,0.612-1.103
					c0,0,0-0.061,0.062-0.061c0.061,0,0.061,0,0.061-0.062c0.062-0.184,0.123-0.367,0.184-0.551
					c-0.061-0.062-0.122-0.122-0.184-0.184c-0.367-0.429-0.795-0.796-1.162-1.163c-0.062-0.061-0.062-0.122-0.123-0.122
					c-0.122,0-0.184,0.062-0.306,0.062c-0.245,0.122-0.49,0.244-0.796,0.306c0,0-0.062,0-0.062,0.062h0.062
					c0,0.061-0.062,0.061-0.122,0.061c-0.551,0.245-1.041,0.612-1.408,1.102c-0.061,0.062-0.122,0.062-0.184,0.062
					c-0.551-0.184-1.04-0.429-1.591-0.612c-0.306-0.122-0.306-0.122-0.306-0.428c0-0.367-0.062-0.734-0.123-1.102
					c-0.061-0.49-0.244-0.918-0.489-1.347c-0.062-0.122-0.122-0.184-0.245-0.122c-0.551,0-1.162,0-1.713,0
					c-0.123,0-0.184,0-0.245,0.122c-0.367,0.612-0.489,1.224-0.551,1.897c0,0.244,0,0.551-0.062,0.795
					c0,0.062-0.061,0.123-0.122,0.123c-0.612,0.244-1.163,0.489-1.775,0.734c-0.061,0.061-0.122,0-0.184-0.062
					c-0.244-0.306-0.551-0.612-0.856-0.856c-0.489-0.307-1.04-0.551-1.591-0.734c-0.062-0.062-0.123,0-0.184,0.061
					c-0.429,0.429-0.857,0.857-1.285,1.285c-0.062,0.062-0.062,0.123-0.062,0.245c0.122,0.245,0.245,0.551,0.367,0.796
					c0.306,0.611,0.673,1.162,1.224,1.591c0.062,0.062,0.123,0.122,0.062,0.184c-0.245,0.551-0.489,1.163-0.673,1.714
					c-0.062,0.122-0.123,0.184-0.245,0.184c-0.367,0-0.796,0.061-1.163,0.122c-0.489,0.062-0.979,0.245-1.469,0.489
					c-0.122,0.062-0.122,0.123-0.122,0.245c0,0.612,0,1.163,0,1.775c0,0.122,0.062,0.184,0.122,0.244
					c0.551,0.307,1.102,0.49,1.714,0.551c0.306,0.062,0.612,0.062,0.918,0.062c0.062,0,0.122,0,0.122,0.062
					c0.245,0.611,0.49,1.162,0.734,1.774c0.062,0.062,0,0.122-0.061,0.184c-0.307,0.245-0.612,0.551-0.857,0.856
					c-0.306,0.49-0.551,1.041-0.734,1.592c0,0.061,0,0.122,0.062,0.184c0.429,0.428,0.856,0.856,1.285,1.285
					c0.062,0.061,0.122,0.061,0.184,0.061c0.245-0.122,0.551-0.184,0.796-0.306c0.428-0.184,0.856-0.429,1.162-0.734
					c0.184-0.184,0.307-0.306,0.49-0.489c0.061-0.062,0.122-0.123,0.184-0.062c0.061,0.062,0.184,0.062,0.244,0.122
					c0.49,0.184,0.979,0.367,1.469,0.612c0.123,0.062,0.123,0.062,0.123,0.184c0,0.367,0.061,0.734,0.122,1.102
					c0.062,0.551,0.245,1.102,0.551,1.591c0.062,0.123,0.123,0.123,0.245,0.123c0.612,0,1.163,0,1.774,0
					c0.123,0,0.184-0.062,0.245-0.123c0.367-0.611,0.489-1.224,0.551-1.896c0.062-0.245,0-0.551,0.062-0.796
					c0-0.122,0.061-0.122,0.122-0.184c0.551-0.245,1.102-0.429,1.714-0.673c0.122-0.062,0.184-0.062,0.244,0.061
					c0.245,0.307,0.49,0.551,0.796,0.734c0.489,0.367,1.102,0.551,1.652,0.796c0.062,0,0.123,0,0.123-0.062
					c0.428-0.428,0.856-0.856,1.285-1.285c0.061-0.061,0.122-0.122,0.061-0.244c-0.122-0.245-0.184-0.49-0.306-0.734
					c-0.245-0.49-0.489-0.979-0.918-1.408c-0.122-0.122-0.245-0.184-0.367-0.306c-0.062-0.062-0.062-0.062-0.062-0.122
					c0,0,0-0.062,0.062-0.062c0.245-0.551,0.429-1.102,0.673-1.652c0.062-0.122,0.123-0.122,0.184-0.122
					c0.429,0,0.857-0.062,1.347-0.123c0.489-0.122,0.918-0.244,1.347-0.489c0.122-0.062,0.122-0.122,0.122-0.245
					C373.748,482.476,373.748,481.925,373.81,481.313z M363.956,485.352c-1.713,0-3.182-1.346-3.182-3.121
					c0-1.652,1.346-3.182,3.182-3.182s3.183,1.469,3.183,3.182C367.139,484.006,365.608,485.413,363.956,485.352z"/>
				<path fill="#DFA591" d="M383.112,469.195c0-0.184,0-0.184,0.122-0.184c0.429-0.122,0.856-0.306,1.224-0.551
					c0.429-0.307,0.796-0.674,1.163-1.102c0.062-0.062,0.062-0.123,0-0.184c-0.245-0.551-0.489-1.102-0.673-1.652
					c-0.062-0.123-0.123-0.123-0.184-0.123c-0.307,0-0.674,0-0.979,0c-0.673,0-1.285,0.184-1.836,0.49
					c-0.062,0.061-0.122,0.061-0.184,0c-0.429-0.429-0.918-0.857-1.347-1.285c-0.061-0.062-0.061-0.123-0.061-0.184
					c0.122-0.367,0.244-0.674,0.367-1.041c0.122-0.551,0.184-1.04,0.122-1.591c0-0.122-0.062-0.184-0.184-0.245
					c-0.551-0.244-1.102-0.428-1.652-0.673c-0.062-0.062-0.184-0.062-0.245,0c-0.306,0.245-0.551,0.489-0.795,0.796
					c-0.307,0.428-0.551,0.918-0.796,1.407c-0.062,0.122-0.122,0.122-0.184,0.122c-0.612,0-1.225,0-1.836,0
					c-0.184,0-0.184,0-0.184-0.184c-0.062-0.306-0.184-0.611-0.367-0.918c-0.367-0.551-0.796-1.04-1.285-1.469
					c-0.062-0.061-0.123-0.061-0.184,0c-0.123,0.062-0.245,0.123-0.367,0.184c-0.429,0.184-0.857,0.367-1.285,0.551
					c-0.123,0.062-0.123,0.062-0.123,0.184c0,0.123,0,0.307,0,0.429c0,0.489,0,0.979,0.123,1.469v0.062
					c0.061,0.244,0.184,0.428,0.244,0.611c0.062,0.062,0.062,0.123,0.123,0.184c0.061,0.062,0.061,0.123,0,0.184
					c-0.429,0.429-0.857,0.918-1.347,1.347c0,0-0.062,0.062-0.062,0c-0.061,0-0.184-0.062-0.244-0.062
					c-0.184-0.061-0.307-0.122-0.49-0.184c0,0.062-0.061,0-0.061,0c-0.062,0-0.184-0.061-0.245-0.061
					c-0.551-0.184-1.163-0.184-1.774-0.123c-0.123,0-0.184,0.062-0.184,0.184c-0.245,0.551-0.429,1.102-0.674,1.652
					c-0.061,0.123,0,0.184,0.062,0.245c0.245,0.307,0.489,0.551,0.796,0.796c0.428,0.306,0.918,0.551,1.407,0.796
					c0.122,0.061,0.122,0.122,0.122,0.244c0,0.612,0,1.225,0,1.836c0,0.123,0,0.123-0.122,0.184
					c-0.489,0.123-0.918,0.367-1.285,0.612c-0.306,0.245-0.612,0.551-0.918,0.856c-0.062,0.062-0.184,0.123-0.184,0.245
					c0,0.062,0.062,0.184,0.122,0.306c0,0,0,0,0,0.062c0.184,0.489,0.429,0.979,0.612,1.469c0,0.062,0.062,0.122,0.184,0.122
					c0.612,0.062,1.285,0,1.897-0.122c0.306-0.122,0.551-0.184,0.856-0.367c0.122,0.062,0.184-0.122,0.306-0.062
					c0.062,0,0.062,0.062,0.062,0.062c0.245,0.245,0.429,0.429,0.673,0.673c0.245,0.245,0.49,0.429,0.674,0.674
					c-0.062,0.184-0.123,0.429-0.184,0.612c-0.123,0.367-0.245,0.734-0.245,1.102c-0.062,0.367-0.062,0.734,0,1.102
					c0,0.061,0.062,0.122,0.122,0.184c0.551,0.244,1.102,0.428,1.652,0.673c0.123,0.062,0.184,0,0.245-0.062
					c0.306-0.244,0.551-0.489,0.796-0.795c0.306-0.429,0.612-0.918,0.796-1.408c0.061-0.122,0.122-0.122,0.244-0.122
					c0.612,0,1.225,0,1.836,0c0.123,0,0.123,0,0.184,0.184c0.123,0.367,0.245,0.673,0.429,0.979
					c0.367,0.551,0.796,0.979,1.224,1.407c0.062,0.062,0.062,0.062,0.123,0c0.551-0.245,1.162-0.489,1.713-0.734
					c0.062-0.062,0.123-0.062,0.123-0.184c0-0.306,0-0.612,0-0.918c0-0.673-0.184-1.347-0.49-1.897
					c-0.061-0.062-0.061-0.122,0-0.184c0.429-0.429,0.857-0.918,1.347-1.347c0.062-0.061,0.123-0.061,0.184-0.061
					c0.307,0.122,0.674,0.244,1.041,0.306c0.551,0.122,1.102,0.184,1.652,0.122c0.061,0,0.184,0,0.184-0.122
					c0.244-0.551,0.428-1.102,0.673-1.652c0.062-0.122,0-0.184-0.062-0.245c-0.244-0.306-0.551-0.611-0.856-0.856
					c-0.429-0.306-0.856-0.551-1.347-0.734c-0.122-0.062-0.184-0.122-0.184-0.245C383.051,470.419,383.051,469.808,383.112,469.195z
					 M376.013,473.296c-1.897,0-3.183-1.592-3.183-3.183c0-1.714,1.408-3.121,3.183-3.121c1.775,0,3.183,1.469,3.121,3.183
					C379.195,471.827,377.849,473.296,376.013,473.296z"/>
			</g>
			<path fill="#DEF0EF" d="M306.673,343.552c20.441-0.123,38.128,7.222,53.856,19.768c1.958,1.591,1.407,2.631-0.489,3.549
				c-0.307,0.123-0.612,0.123-0.919,0.306c-1.591,0.734-3.794,1.713-3.365,3.427c0.489,1.836,2.203,3.611,4.406,4.162
				c1.102,0.245,2.57-0.123,2.448,1.713c-0.062,2.142-1.775,1.652-2.877,1.53c-2.509-0.184-4.468,0.489-5.63,2.876
				c-0.796,1.591-2.326,1.958-3.795,2.264c-2.57,0.551-2.692,2.326-1.958,4.039c1.163,2.632-0.123,2.754-2.081,2.509
				c-0.429-0.061-0.796-0.367-1.224-0.367c-3.856-0.489-5.814,1.958-4.529,5.692c-0.122,0.184-0.306,0.367-0.489,0.367
				c-3.488-0.551-5.141,1.285-5.814,4.406c-2.57,1.592-5.079,3.366-8.2,3.673c-0.979-0.184-1.53-0.734-1.775-1.714
				c0.184-2.938,1.285-5.631,2.815-8.079c0.856-0.673,2.02-0.795,2.815-1.53c1.407-1.285,1.652-2.815,0.673-4.345
				c-0.918-1.469-2.387-1.958-3.978-1.163c-1.653,0.796-2.265,2.265-1.592,4.101c0.307,0.918,0.979,1.652,1.102,2.693
				c-0.428,2.938-1.407,5.691-2.815,8.323c-0.551,0.551-1.346,0.673-2.02,0.979c-1.713,0.856-2.264,2.264-1.896,3.978
				c0.306,1.407,1.285,2.265,2.692,2.325c1.714,0.062,2.815-0.856,3.244-2.509c0.184-0.612,0.306-1.285,0.673-1.774
				c2.509-1.652,5.019-3.183,8.018-3.733c1.713,0.245,3.365,0.734,4.712,2.02c0.122,2.57,0.489,5.141-2.265,6.731
				c-3.855,0.674-3.978,0.918-4.223,4.774c-0.245,3.61,0.918,7.344-0.856,10.832c-2.387,0.979-4.773,1.04-7.1-0.062
				c-0.429-4.957-2.938-8.507-6.426-12.179c-2.509-2.632-4.223-5.753-8.14-6.487c-2.57-1.836-0.979-4.345-0.979-6.548
				c1.959-3.733,4.651-6.977,6.854-10.526c3.488-5.631,3.488-6.304-1.04-11.078c-0.307-0.306-0.551-0.612-0.796-0.979
				c-0.551-0.857-0.612-1.836-0.489-2.815c1.102-7.038-0.429-13.77-2.632-20.44c-0.612-2.448-1.958-4.529-2.999-6.793
				C307.102,346,306.122,344.959,306.673,343.552z"/>
			<path fill="#3D3D3D" d="M324.177,424.274c2.447,1.102,4.957,0.429,7.405,0.429c1.958-1.163,4.1-0.612,6.242-0.674
				c1.162-0.061,2.265-0.061,3.427,0c2.081-0.061,4.223-0.061,6.304,0c1.347-0.061,2.693-0.061,3.979,0
				c1.896,0,3.794-0.061,5.691,0.062c0.795,0,1.529,0.245,2.142,0.796c1.652,0.856,2.02,2.264,1.959,4.039
				c-0.062,5.019,0,9.976,0,15.116c1.652-0.367,2.203-1.652,3.305-2.265c2.08,0.49,2.938,1.959,3.243,3.979
				c-2.02,2.264-5.141,3.427-6.487,6.426c0.979,1.714,0.857,3.55,0.918,5.386c-0.061,4.468,0.123,8.874-0.061,13.342
				c0,1.774,0.061,3.488,0,5.263c0,0.734,0,1.53,0,2.265c0.244,3.733,0.673,7.527,0,11.261c-0.062,1.224,0,2.509-1.102,3.366
				c-1.53,0.795-3.183,0.673-4.774,0.673c-34.577,0-69.094,0-103.672,0c-1.836,0-3.733,0.306-5.263-1.04
				c-0.061-1.592-0.123-3.244-0.184-4.835c-0.857-1.163-0.673-2.51-0.673-3.795c-0.061-1.469,0-2.998,0-4.467
				c-0.122-1.347,0.062-2.693-0.061-4.04c0-3.732-0.061-7.466,0.061-11.199c0-1.163-0.061-2.325,0-3.488
				c0.123-1.469-0.061-2.999,0.062-4.468c0-1.224,0-2.509,0-3.733c0-0.673,0-1.407,0-2.08c0-1.041,0.061-2.021,0.184-3.061
				c0.061-0.306,0.122-0.673,0.245-0.979c0.918-3.365-0.551-6.67-0.245-10.036c0.061-0.367,0.122-0.674,0.245-1.041
				c0.612-2.998-0.061-5.997,0.428-8.996c0.062-0.367,0.245-0.734,0.429-1.04c0.489-0.674,1.163-1.041,1.958-1.225
				c3.733-0.428,7.466-0.122,11.199-0.244c1.163,0.122,2.326-0.062,3.489,0.061c2.509,0.123,5.018-0.184,7.527,0
				c2.387-0.061,4.835,0,7.222,0c0.918,0,1.652-0.673,2.631-0.611c6.059,1.162,12.179,0.428,18.299,0.489
				c2.142,0.367,2.142,0.367,5.325-1.591c1.346,1.469,3.121,1.652,5.018,1.713C314.996,424.152,319.647,423.54,324.177,424.274z"/>
			<path fill="#D2D5DE" d="M247.432,492.635c13.831,0.062,27.724,0.122,41.555,0.122c22.828,0,45.655,0,68.482,0
				c1.285,0,2.571-0.061,3.856-0.122c0.367,0.429,0.428,0.856,0,1.347c-0.062,10.036,1.102,9.118-9.181,9.118
				c-0.856,0-1.713,0-2.57,0c-4.284,1.469-8.813,0.918-13.219,0.979c-6.182,0.122-12.362-0.122-18.544,0.184
				c-7.222-0.429-14.443-0.062-21.604-0.245c-2.142-0.061-3.55,1.285-5.386,1.714c-1.346-1.469-3.182-1.652-5.018-1.652
				c-6.243,0-12.546,0-18.789,0c-2.081,0-4.101-0.184-5.998-0.979c-3.427,0-6.854-0.061-10.343,0c-2.265,0-3.366-1.04-3.366-3.365
				C247.432,497.348,247.432,495.021,247.432,492.635z"/>
			<path fill="#DFF1EF" d="M222.646,457.506c1.285-0.979,0.306-2.02,0-2.938c-2.754-8.629-3.855-17.503-3.794-26.438
				c0.123-9.608,1.897-19.033,5.263-28.152c0.184-0.551,0.612-1.04,1.285-2.08c0.367,2.142,1.285,3.243,2.632,3.917
				c1.53,0.795,1.285,2.264,1.102,3.427c-0.551,3.488,1.591,5.937,3.121,8.629c0.551,0.979,1.652,1.652,2.754,0.979
				c1.224-0.734,0.612-1.958,0.062-2.877c-1.53-2.509-3.733-4.834-2.142-8.445c1.958,1.285,1.285,3.611,2.326,5.08
				c0.061,0.061,0.184,0.061,0.306,0c0.123-0.062,0.184-0.123,0.245-0.184c1.897,1.774,2.754,4.345,4.223,6.426
				c-0.245,1.774-0.795,3.488,0.306,5.202c0.428,0.673,0.122,1.469-0.367,2.081c-2.571,1.713-5.447,2.876-7.283,5.691
				c-4.651,7.16-2.876,15.729,4.345,20.257c0.918,0.551,1.836,1.102,2.693,1.774c0.796,0.796,0.918,1.653,0.123,2.571
				c-1.346,1.102-3.06,1.529-4.59,2.325c-3.06,1.53-5.263,3.978-7.222,6.732c-0.306,0.184-0.612,0.244-0.918,0.244
				C225.216,460.872,223.013,460.138,222.646,457.506z"/>
			<path fill="#DF5D26" d="M311.202,353.282c2.876,6.671,3.672,13.648,2.999,20.808c-0.123,1.041-0.429,2.142,0.122,3.183
				c0.245,5.141-1.469,9.853-3.55,14.443c-0.306,0.673-0.979,1.163-1.714,1.347c-2.631,0.428-5.263,0.428-7.895,0.061
				c-0.734-0.184-1.407-0.612-1.774-1.285c-2.265-4.59-3.978-9.241-3.55-14.504c0.551-1.958,0-3.855-0.306-5.753
				c-0.551-3.488-1.591-7.038,0.612-10.404c0.734-1.897,1.346-3.855,1.53-5.875c-0.122-1.407,0.612-2.203,1.836-2.631
				C303.491,352.426,307.407,351.508,311.202,353.282z"/>
			<path fill="#DFF1EF" d="M254.531,406.526c2.57,0.551,5.202-0.062,7.833,0.122c1.408,0.062,2.815-0.061,4.101,0.734
				c0.306,0.734-0.245,2.02,0.857,2.143c1.407,0.184,1.346-1.714,2.387-2.203c0.734-2.081,2.815-3.244,3.794-5.141
				c0.856-2.143,2.754-3.489,4.039-5.264c2.081,0.306,2.509-1.591,3.611-2.631c3.244,1.346,3.427,1.224,3.366-2.387
				c2.081-2.387,5.692-3.243,6.61-6.793c0.795-0.123,1.224,0.428,1.53,0.979c2.571,4.712,5.753,9.119,8.629,13.648
				c0.184,0.918,0,1.652-0.857,2.142c-1.102,0.49-2.326,0.429-3.488,0.796c-3.55,1.102-5.324,3.243-5.569,7.405
				c-0.122,2.265-0.734,3.733-3.182,4.039c-3.427,0.489-4.529,3.794-6.793,5.631c-1.285,0-1.775-1.041-2.57-1.775
				c-3.183-2.999-6.854-4.468-11.2-3.855c-2.264,0.306-4.1-0.062-5.508-1.774c-2.142-2.693-5.692-2.326-8.384-3.795
				C253.429,407.689,253.307,406.894,254.531,406.526z"/>
			<path fill="#DFF1EF" d="M298.901,353.405c-0.367,0.612-0.796,1.285-1.163,1.897c-1.407,0.551-2.692,1.286-4.284,1.408
				c-1.714,0.123-3.183,0.979-2.999,3.121c0.123,1.591-0.673,2.265-2.142,1.958c-1.53-0.367-1.04-1.591-0.918-2.631
				c0.062-0.796,1.591-1.591,0.49-2.142c-1.53-0.734-3.427-0.734-5.019,0.061c-1.346,0.734-0.245,1.652,0.184,2.448
				c0.245,0.49,0.306,1.346-0.245,1.408c-2.448,0.184-4.039,2.631-6.609,2.264c-1.041-0.123-1.958-0.184-1.958-1.591
				c0-1.285,0.612-1.774,1.774-1.713c1.836,0.061,2.999-0.673,3.489-3.121c-3.489,1.652-6.181,1.53-8.874-1.102
				c-2.081-2.02-5.753-1.102-7.528,1.224c-0.306,0.429-0.673,1.347-0.184,1.285c2.509-0.245,2.57,3.611,5.202,2.999
				c0.612-0.123,1.346,0.184,1.224,1.102c-0.123,0.673-0.734,0.734-1.224,0.734c-1.163,0-2.326,0.184-3.427-0.612
				c-2.448-1.897-5.386-2.387-9.058-2.938c3.917-3.305,7.895-5.508,11.995-7.528c8.874-4.468,18.36-6.916,28.091-8.201
				c2.326-0.306,4.774-0.612,7.038,0.489C303.246,347.958,300.676,350.528,298.901,353.405z"/>
			<path fill="#E0F2EF" d="M341.802,396.306c2.265,3.061,6.916,2.877,8.63-0.428c1.836-3.549,4.712-5.508,8.506-6.426
				c0.796-0.184,1.286,0.184,1.714,0.673c1.225,1.407,2.754,2.387,4.406,3.243c0.979,0.551,2.081,1.286,0.429,2.632
				c-1.224,0.979,0,1.469,0.856,1.53c1.285,0.122,2.081-0.551,2.143-1.836c0.062-1.163,1.347-2.631-0.734-3.182
				c-1.347-0.367-2.143-1.408-3.061-2.326c-0.734-0.734-1.162-1.775-0.306-2.57c0.734-0.734,1.958-0.673,2.693,0
				c1.591,1.53,3.794,2.631,4.1,5.202c0.123,0.796,0.612,1.591,0.979,2.387c0.429,0.857,0.856,1.835,2.081,1.652
				c1.04-0.184,1.346-0.979,1.407-1.897c0.122-1.102,0.673-2.081,1.652-2.203c1.285-0.184,1.347,1.163,1.53,2.081
				c0.489,2.387,1.897,3.488,4.284,3.488c2.08,0,4.712,4.162,4.101,6.12c-0.184,0.612-0.612,0.979-1.163,0.918
				c-2.57-0.244-5.202,0.734-7.772-1.224c-2.02-1.591-4.835-2.938-6.793,0.612c-0.184,0.306-0.796,0.611-1.041,0.551
				c-2.631-1.285-5.569-1.592-8.323-2.57c-1.529-0.551-0.673-2.081-0.918-3.122c-3.55-1.285-7.099-0.734-10.526,0.49
				c-3.183,1.102-6.181,1.469-9.302,0C340.884,398.754,340.762,397.469,341.802,396.306z"/>
			<path fill="#FFFAF6" d="M342.047,400.223c5.997,0.429,11.566-2.325,17.442-2.57c1.529-0.062,1.896,0.612,1.836,1.897
				c-3.428,1.102-1.959,4.468-1.652,5.937c0.856,4.345-0.552,8.507-0.245,12.729c0.184,2.203,1.163,4.406,0,6.548
				c-0.612-0.061-1.285-0.122-1.897-0.184c-1.285-1.224-0.979-2.814-0.979-4.283c0-5.386-0.061-10.833,0-16.219
				c0-1.346,0.307-3.121-1.713-3.243c-2.081-0.062-2.265,1.591-2.265,3.183c0,5.385,0.062,10.832,0,16.218
				c0,1.469,0.306,3.06-0.979,4.284c-1.285,0.306-2.509,0.306-3.794,0c-1.836-2.999-0.674-6.304-0.857-9.425
				c-0.061-0.979-0.122-1.959-1.224-2.448c-0.918-0.367-1.714-0.184-2.387,0.429c-0.918,0.734-1.102,1.836-1.163,2.938
				c-0.061,1.713,0,3.427-0.061,5.202c-0.062,1.162,0.122,2.387-0.796,3.365c-1.163,0.245-2.326,0.245-3.488,0
				c-1.041-1.285-0.734-2.814-0.796-4.283c-0.062-3.733,0.122-7.467-0.367-11.2c1.897-1.714,0.796-4.345,1.958-6.304
				C339.293,401.386,340.456,400.528,342.047,400.223z"/>
			<path fill="#DFF1F0" d="M317.689,503.834c0.795-1.102,1.896-0.795,2.938-0.795c9.669,0,19.339,0,29.07,0
				c-8.079,5.324-17.014,8.567-26.378,10.648c-1.407,0.306-2.754,0.306-4.161,0.429c-0.857-0.551-1.102-1.408-1.347-2.326
				C317.444,509.22,315.976,506.527,317.689,503.834z"/>
			<path fill="#DFEFED" d="M261.079,503.1c9.058,0,18.177,0.062,27.234-0.061c2.142,0,2.999,0.734,2.815,2.754
				c1.53,2.265,0.367,4.528-0.123,6.731c-0.245,0.674-0.612,1.285-1.346,1.652C279.439,512.402,269.708,509.159,261.079,503.1z"/>
			<path fill="#E0F2EF" d="M296.208,361.116c-0.184,3.488-0.428,6.916-0.612,10.404c-0.673-1.713-0.857-4.101-3.489-3.488
				c-2.509,0.551-3.305,2.448-2.938,4.957c0.245,1.713-0.367,2.876-2.264,3.305c-1.53,0.367-2.571,1.53-3.305,2.938
				c-0.367,0.612-0.856,1.347-1.774,1.163s-1.102-0.979-1.102-1.775c0.061-1.775-0.918-2.326-2.509-2.693
				c-1.714-0.367-3.733-0.673-3.978-3.121c-0.245-2.387,1.652-2.999,3.244-3.917c1.652-0.979,3.244-2.081,5.141-2.692
				c0.979-0.306,1.836-0.612,2.631,0.367c1.224,1.591,2.509,0.612,3.244-0.367C290.394,363.564,293.087,362.095,296.208,361.116z"/>
			<path fill="#DF5D26" d="M367.935,445.694c-1.102-1.347-2.143-2.632-3.244-3.978c-1.102-3.55-1.896-7.1-0.367-10.771
				c2.693-6.609,10.099-9.73,16.708-6.977c6.365,2.692,9.363,10.098,6.609,16.585c-2.815,6.548-10.343,9.486-16.83,6.487
				C369.832,446.674,368.914,446.184,367.935,445.694z"/>
			<path fill="#DF5D26" d="M247.187,484.312c0.306,1.163,0.306,2.325,0.061,3.55c-7.222,1.347-13.342-0.612-17.932-6.365
				c-4.59-5.691-5.202-12.117-2.448-18.91c0.306-0.184,0.612-0.245,0.918-0.245c1.163,0.306,2.142,0.856,2.57,2.081
				c0.184,1.958-0.367,3.855-0.306,5.813c0.061,7.834,6.304,13.831,14.137,13.587C245.229,483.822,246.33,483.21,247.187,484.312z"
				/>
			<path fill="#393634" d="M300.798,399.427c-3.672-3.427-5.752-7.956-8.384-12.117c-0.428-0.734-0.857-1.469-1.285-2.203
				c-0.612-3.917,2.142-5.814,4.773-7.833c1.53,5.08,1.775,10.526,4.835,15.116c1.652,2.081,1.102,4.345,0.49,6.61
				C301.043,399.121,300.92,399.305,300.798,399.427z"/>
			<path fill="#5C5D55" d="M254.531,406.526c-0.184,0.673-0.428,1.285-0.612,1.958c-0.857,1.102-1.714,1.775-2.876,0.307
				c-0.245-1.225,0.49-2.326,0.612-3.488c0.49-3.672-1.897-7.038-5.141-7.467c-3.366-0.429-6.61,2.02-7.222,5.569
				c-1.102,6.059,0.49,8.629,6.426,10.71c0.979,2.325-0.918,2.081-2.142,2.509c-1.53,0-2.999-0.122-3.856-1.591
				c-2.203-1.652-3.121-4.039-3.917-6.487c0.122-1.591,0.061-3.243,0.367-4.835c1.041-5.813,5.019-8.813,10.771-8.262
				c4.774,0.428,7.405,3.733,7.589,9.547C254.531,405.486,254.531,406.037,254.531,406.526z"/>
			<path fill="#353434" d="M298.901,353.405c0.551-3.366,2.999-5.937,3.855-9.18c0.734-0.795,1.408-1.591,2.265-2.448
				c0.551,0.612,1.101,1.224,1.652,1.775c1.469,3.243,3.611,6.242,4.529,9.73C307.102,353.282,303.001,353.344,298.901,353.405z"/>
			<path fill="#F19D25" d="M342.047,400.223c-0.856,1.285-2.02,2.143-3.488,2.693c-1.652,0.061-2.877-0.979-4.346-1.592
				c-0.428-0.489-0.734-1.102-0.551-1.836c0.612-4.59,2.265-5.691,6.794-4.529c0.428,0.429,0.856,0.918,1.285,1.346
				C341.925,397.591,341.985,398.876,342.047,400.223z"/>
			<path fill="#D4D7DF" d="M289.721,514.177c0.184-0.428,0.429-0.918,0.612-1.346c1.591,1.346,3.366,1.713,5.385,1.652
				c5.814-0.062,11.689-0.123,17.503,0c2.203,0.061,4.039-0.429,5.324-2.326c0.673,0.551,0.489,1.285,0.612,2.02
				c-0.429,2.815,2.387,1.285,3.183,2.448c-11.751,0.674-23.501,0.734-35.251,0C287.946,515.769,290.21,516.441,289.721,514.177z"/>
			<path fill="#92959B" d="M287.15,516.625c11.75,0,23.501,0,35.251,0c0.245,0.184,1.163,0.062,0.674,0.612
				c-0.307,0.367-1.163,0.184-1.837,0.245c-11.444,0-22.888,0-34.394,0c-0.367,0-0.856,0.244-1.163-0.551
				C286.171,516.809,286.661,516.687,287.15,516.625z"/>
			<path fill="#DF5D26" d="M277.542,396.918c0.123,2.876-2.57,3.55-4.039,5.264c-1.652-1.53-0.123-2.143,0.856-2.938
				c0.673-0.551,1.53-1.04,0.979-2.08c-0.551-0.979-1.408-0.734-2.203-0.184c-0.551,0.367-1.041,0.428-1.347-0.123
				c-0.428-0.734,0.184-1.285,0.734-1.53C274.604,394.225,276.379,394.715,277.542,396.918z"/>
			<path fill="#4B4B4A" d="M227.297,462.463c-0.123,0-0.306,0.062-0.429,0.123c-1.591-2.143-4.345-0.49-6.242-1.897
				c-0.306-0.245-1.285,0.184-0.918-0.796c0.49-1.162,1.224-2.325,1.836-3.427c0.367,0.306,0.734,0.673,1.102,0.979
				c1.775,0.979,2.203,3.55,4.468,3.917C227.664,461.729,227.603,462.096,227.297,462.463z"/>
			<path fill="#3E3D3D" d="M277.358,387.554c0.918,0.551,2.693,0.123,2.326,1.653c-0.245,1.102-0.49,2.815-2.02,2.999
				c-0.857,0.123-2.02-0.367-1.652-1.775C276.257,389.391,275.767,387.983,277.358,387.554z"/>
			<path fill="#393D3D" d="M269.708,407.322c0.245,1.407-0.796,2.387-1.408,3.365c-0.795,1.225-1.408-0.061-2.02-0.367
				c-1.897-1.102-0.306-1.958,0.184-2.938C267.505,406.343,268.545,406.221,269.708,407.322z"/>
			<path fill="#3E3E3D" d="M263.895,400.835c1.469-0.429,2.203,0.489,2.081,1.652c-0.184,1.652-1.897,1.591-2.999,1.836
				c-1.591,0.429-1.163-1.163-1.347-1.958C261.202,400.161,262.977,401.08,263.895,400.835z"/>
			<path fill="#3E3E3C" d="M271.973,390.309c0.551,1.53-0.489,2.081-1.407,2.081c-1.591,0-1.958-1.652-2.326-2.754
				c-0.49-1.53,1.285-1.652,2.081-1.775C272.34,387.616,271.3,389.696,271.973,390.309z"/>
			<path fill="#3D3D3C" d="M267.138,395.449c-0.429,0.796-0.673,2.02-1.775,1.469c-0.979-0.489-2.999,0.062-2.815-1.897
				c0.062-0.857,0.673-2.326,1.591-2.142C265.302,393.185,266.709,393.919,267.138,395.449z"/>
			<path fill="#3A3E3E" d="M284.458,391.899c0.734,1.53,2.754,3.122-0.551,4.223c-1.958,0.674-2.448-0.245-2.754-1.836
				C282.315,393.613,283.05,392.267,284.458,391.899z"/>
			<path fill="#343433" d="M281.275,419.623c1.469-3.488,3.733-6.12,7.833-6.364c1.224-0.062,1.285-0.551,1.285-1.592
				c0.123-7.16,3.06-10.036,10.037-9.976c0.673,0.062,1.347-0.122,2.02,0.184c1.652,0.612,2.938,1.652,4.101,2.938
				c0.979,0.551,2.02,0.857,3.06,1.041c4.04,0.244,6.978,2.08,8.263,6.12c0.306,0.979,0.918,1.529,1.836,2.02
				c4.284,2.387,5.508,5.324,4.528,10.343c-5.202,1.469-10.526,0.184-15.729,0.673c-2.203,0.184-3.182-0.612-3.488-2.632
				c-1.224-0.551-0.857-1.529-0.734-2.448c0.061-0.428,0.367-0.795,0.551-1.162c0.856-1.775-0.551-2.815-1.347-3.979
				c-0.245-0.428-0.795-0.367-1.102,0.062c-0.734,1.224-2.264,2.265-1.53,3.978c0.795,1.836,1.285,3.611,0.061,5.447
				c-0.795,1.04-1.958,0.734-2.999,0.734c-4.467,0.062-8.874,0-13.341,0.062c-1.285,0-2.387-0.062-3.06-1.347
				C280.112,422.377,280.235,421.031,281.275,419.623z"/>
			<path fill="#DF5D26" d="M336.661,409.219c0.796,0.674,1.347,1.347,1.285,2.632c-0.184,4.284-0.122,8.568-0.122,12.853
				c-2.081,0-4.101,0-6.12,0c0-4.039,0-8.018-0.062-12.057C331.521,409.28,333.234,408.057,336.661,409.219z"/>
			<path fill="#393634" d="M309.305,392.389c2.265-3.488,3.183-7.466,3.917-11.444c0.245-1.224,0.184-2.57,1.04-3.672
				c1.53,1.04,2.877,2.326,3.855,3.855c0.734,1.102,1.225,2.387,0.612,3.672c-2.509,5.263-5.446,10.282-9.486,14.566
				c-0.122-0.123-0.244-0.245-0.428-0.429C308.265,396.734,307.897,394.47,309.305,392.389z"/>
			<path fill="#FFFFFC" d="M348.351,381.924c-0.307,0-1.592,0.367-2.203-0.795c-0.612-1.163,0.673-1.652,1.224-2.387
				c0.367-0.49,1.041-0.979,0.245-1.591c-0.734-0.551-1.53-0.49-1.775,0.49c-0.428,1.713-2.203,1.958-3.182,3.121
				c-0.551,0.612-1.347,0.673-2.02,0.123c-0.796-0.612-0.551-1.347-0.062-2.02c0.551-0.796,1.102-1.714,1.897-2.204
				c1.346-0.795,2.509-1.469,2.876-3.182c0.184-0.979,1.04-1.347,2.02-1.224c0.979,0.061,1.652,0.673,1.714,1.652
				c0.122,1.714,1.285,2.876,2.203,4.223c0.551,0.796,1.836,1.53,1.102,2.754C351.594,382.046,350.309,381.985,348.351,381.924z"/>
			<path fill="#F29B24" d="M325.646,393.124c-0.857-1.346-2.203-2.448-1.836-4.284c0.428-1.958,1.529-3.366,3.61-3.611
				c2.203-0.245,3.795,0.795,4.468,2.876c0.612,1.958-0.062,3.672-1.775,4.774c-0.795,0.489-1.774,0.612-2.692,0.918
				C326.686,394.042,326.135,393.613,325.646,393.124z"/>
			<path fill="#F19C26" d="M326.502,404.813c-0.062,0.612-0.062,1.285-0.245,1.897c-0.551,2.02-1.896,3.121-3.916,3.121
				c-2.021,0-3.55-0.918-4.04-2.999c-0.489-2.08,0.123-3.855,2.081-4.896c0.734-0.367,1.652-0.429,2.448-0.674
				c0.734-0.367,1.285-0.061,1.774,0.429c0.245,0.674,0.674,1.163,1.408,1.225C326.44,403.527,326.747,404.078,326.502,404.813z"/>
			<path fill="#F0E380" d="M309.55,405.792c-1.225-0.184-2.632,1.285-3.611-0.551c-0.245-1.469,0.49-2.938,0.123-4.468
				c-0.184-0.673-0.123-1.652-1.102-1.714c-0.734-0.061-0.918,0.796-1.163,1.347c-0.367,0.796-0.551,1.652-1.469,1.959
				c-0.673-0.245-1.285-0.49-1.958-0.734c0.551-0.674,0.428-1.47,0.367-2.204v0.123c0.184-0.123,0.367-0.307,0.367-0.49
				c-0.061-2.631,0.918-4.528,3.733-4.712c2.876-0.123,3.855,1.836,4.1,4.345c0,0.367,0.184,0.612,0.367,0.857v-0.123
				C309.488,401.508,308.754,403.711,309.55,405.792z"/>
			<path fill="#3E4039" d="M326.502,404.813c-0.489-0.489-0.796-1.102-0.489-1.836c2.57-1.162,5.141-2.325,7.772-3.488
				c0.489,0.489,0.795,1.102,0.551,1.836C331.704,402.487,329.072,403.65,326.502,404.813z"/>
			<path fill="#444339" d="M324.604,401.753c-0.734,0.429-1.285,0.062-1.774-0.429c0.918-2.754,1.897-5.447,2.815-8.201
				c0.734-0.123,1.285,0.184,1.774,0.673C326.502,396.489,325.522,399.121,324.604,401.753z"/>
			<path fill="#FFFFFF" d="M281.459,428.313c1.591,0.062,3.243,0.245,4.834,0.245c22.46,0,44.921,0.061,67.381-0.062
				c3.243,0,3.855,0.918,3.794,3.979c-0.122,17.809-0.122,35.557,0,53.366c0,2.387-0.367,3.366-3.121,3.366
				c-33.293-0.123-66.585-0.062-99.878,0c-2.326,0-3.121-0.429-3.121-2.999c0.122-18.237,0.122-36.414,0-54.651
				c0-2.571,0.856-2.999,3.121-2.999c8.69,0.061,17.319-0.123,26.01-0.184C280.786,428.252,281.153,428.252,281.459,428.313z"/>
			<path fill="#F7C169" d="M281.275,419.623c0.061,1.347,0.122,2.632,0.245,3.979c-0.061,1.102-0.673,1.346-1.652,1.04
				c-1.285-0.429-1.652-1.652-2.203-2.692c-1.163-2.081-2.938-3.428-5.141-4.224c-3.855-1.407-5.447-0.489-6.242,3.489
				c-0.184,0.979-0.367,1.896-0.857,2.754c-0.306,0.428-0.734,0.551-1.224,0.734c-0.979-0.062-1.958-0.123-2.938-0.184
				c-0.367-1.041,0.367-1.836,0.673-2.754c1.285-3.306,0.428-6.487-2.326-8.63c-2.203-1.713-5.814-1.774-8.14,0
				c-2.999,2.265-3.733,4.957-2.448,8.507c0.367,0.979,1.163,1.897,0.367,2.999c-0.429,0.245-0.918,0.551-1.347,0.796
				c-1.285,0.489-2.57,0.122-3.855,0.122c-5.875,0-10.037,3.917-10.22,9.792c-0.184,6.182,3.611,10.404,9.608,10.648
				c1.285,0.062,2.631-0.184,3.672,0.796c0,1.102,0,2.203,0,3.305c-2.57,2.57-5.08,1.347-7.65,0
				c-6.426-2.57-10.221-7.222-10.282-14.137c-0.061-6.609,3.183-11.506,9.547-14.015c0.306-0.123,0.489-0.367,0.734-0.612
				c0.673-0.306,1.285-0.918,1.958-0.979c3.121-0.244,3.243-2.02,2.387-4.406c0.856-0.367,2.203-0.245,1.652-1.836
				c-0.061-1.652,1.346-2.325,2.142-3.427c0.306-0.734,2.203-0.062,1.469-1.652c0.551-0.552,1.163-0.919,1.958-0.429
				c1.04,0.918,1.774-0.184,2.692-0.307c3.856,0,7.283,1.102,9.792,4.224c0.673,0.856,1.469,1.102,2.571,0.856
				C272.585,412.279,277.419,414.728,281.275,419.623z"/>
			<path fill="#F69B21" d="M247.309,446.979c-4.039,0.306-7.895,0.367-11.077-2.938c-3.488-3.733-4.467-10.159-1.469-14.26
				c2.938-4.039,7.038-6.364,13.342-4.101c0,0.184,0,0.367-0.062,0.551c-0.367,0.796-0.245,1.714-0.184,2.57
				c0.123,2.081,0.062,3.856-2.876,2.632c-1.163-0.489-2.081,0.49-2.692,1.347c-0.612,0.856-0.367,1.836,0.428,2.632
				c0.428,0.428,0.979,0.856,1.285,1.469c0.245,0.795,0.184,1.53-0.551,2.081c-0.367,0.918,0.184,1.958,0.918,1.652
				c4.284-1.775,3.488,1.346,3.488,3.61c0,0.918,0.245,1.958-0.245,2.815L247.309,446.979z"/>
			<path fill="#F59B21" d="M249.451,424.825c-0.306-0.796-0.612-1.591-0.979-2.387c-1.836-3.917-1.041-7.16,2.57-9.914
				c2.448-1.897,6.671-1.897,9.058-0.062c3.244,2.509,4.223,6.487,2.509,9.976c-0.367,0.796-0.918,1.469-1.347,2.203
				C257.346,424.764,253.368,424.764,249.451,424.825z"/>
			<path fill="#DF5D26" d="M351.533,424.642c-0.062-7.344-0.062-14.749-0.123-22.093c0-2.51,1.897-2.999,3.733-2.938
				c1.714,0.062,2.692,0.734,2.57,3.306c-0.429,7.221-0.184,14.504-0.184,21.726C355.511,424.947,353.553,424.947,351.533,424.642z"
				/>
			<path fill="#F9F7F3" d="M247.187,484.312c-9.486,0.918-16.096-3.121-17.932-10.894c-0.734-3.183-0.123-6.182,0.612-9.241
				c0.184-0.306,0.49-0.429,0.795-0.367c1.408,0.429,2.754,0.979,3.489,2.448c0.306,0.856,0,1.714-0.062,2.57
				c-0.612,6.12,3.856,10.832,10.037,10.588c1.04-0.062,2.142-0.612,3.121,0.244C247.554,481.19,247.615,482.721,247.187,484.312z"
				/>
			<path fill="#FBF7F3" d="M247.187,464.055c0.489,3.978,0.428,8.017,0,11.995c-2.632,2.265-5.447,2.265-8.385,0
				c-2.754-2.081-3.611-5.141-2.264-8.14c1.53-1.041,2.631,0,3.672,0.918c0.918,0.796,1.836,1.407,3.244,1.347
				c-1.408-2.571-5.202-1.041-5.937-4.101C239.782,462.279,243.637,461.484,247.187,464.055z"/>
			<path fill="#DF5D26" d="M341.251,424.703c0-3.244,0.184-6.487,0-9.67c-0.184-2.754,1.836-3.61,3.55-3.672
				c1.652-0.062,3.61,0.796,3.183,3.672c-0.429,3.183-0.123,6.426-0.184,9.67C345.597,424.947,343.454,424.947,341.251,424.703z"/>
			<path fill="#F49A22" d="M264.996,424.274c0.245-1.897,0.489-3.855,0.734-5.753c0.184-1.774,1.53-1.897,2.815-2.02
				c4.958-0.551,8.446,2.02,11.322,8.201c-2.509,0.061-5.019,0.122-7.528,0.122c-1.53-1.774-3.06-3.06-5.263-0.734
				C266.587,424.52,265.73,424.887,264.996,424.274z"/>
			<path fill="#DF5D26" d="M227.848,461.301c2.203-5.264,6.793-7.467,11.812-9.058c2.57-1.102,5.141-1.102,7.65,0.244
				c0,1.163,0,2.387-0.061,3.55c-0.49,0.796-1.285,0.673-2.02,0.612c-5.08-0.429-9.303,1.285-12.668,5.141
				c-0.551,0.673-1.163,1.285-2.081,1.407C229.316,462.892,227.909,463.014,227.848,461.301z"/>
			<path fill="#FAF5F1" d="M230.663,462.77c4.162-5.631,9.608-8.14,16.585-6.732c0,1.469,0.061,2.999,0.061,4.468
				c-0.856,0.612-1.836,0.489-2.754,0.429c-3.794-0.367-6.854,1.04-9.302,3.916c-1.652,0.918-2.815-0.306-4.101-0.918
				C230.846,463.626,230.295,463.381,230.663,462.77z"/>
			<path fill="#DF5D26" d="M236.905,467.727c-1.224,6.977,3.244,10.588,10.282,8.323c0.367,1.163,0.306,2.387,0.061,3.55
				c-4.101,1.407-7.833,0.918-11.016-2.203c-3.305-3.183-3.794-7.038-2.326-11.262c0.123-0.122,0.184-0.184,0.306-0.306
				c1.102-0.062,2.02,0.429,2.815,1.163C237.211,467.298,237.15,467.543,236.905,467.727z"/>
			<path fill="#8B5121" d="M247.493,446.979c-0.061-1.591-0.122-3.243-0.184-4.835c0-0.979-0.673-2.142-1.346-1.407
				c-1.714,1.836-2.754,0.062-3.978-0.367c-0.612-0.184-1.714-0.429-1.347-1.469c0.49-1.285,1.469-0.245,2.204-0.245
				c2.448,0.062,1.591-0.979,0.612-2.02c-1.591-0.429-2.693-1.224-2.632-3.121c0-2.081,2.265-2.142,2.999-3.55
				c0.061-0.061,0.184-0.184,0.245-0.184c6.12,3.917,1.714-3.488,3.917-3.733c-0.184,3.244,0.857,6.549-0.612,9.731
				c-0.551-0.979-1.041-2.081-2.693-2.081c0.979,0.856,2.325,0.918,2.693,2.081C247.309,439.574,249.084,443.246,247.493,446.979z"
				/>
			<path fill="#DF5D26" d="M300.859,424.213c-0.306-1.836,1.285-4.101-1.408-5.386c-0.49-0.244,2.509-5.813,3.244-5.997
				s0.918,0.367,1.224,0.796c0.49,0.795,1.041,1.652,1.469,2.509c0.551,1.163,2.203,2.325-0.184,3.488
				c-0.796,0.367-0.367,1.775-0.184,2.754C304.225,425.621,303.124,426.11,300.859,424.213z"/>
			<path fill="#343433" d="M281.459,428.313c-0.367,0-0.673,0-1.041,0c-8.997,0-17.932,0-26.928,0c0-0.184,0-0.367,0-0.551
				c25.521,0,51.041,0,76.745,0c-1.285,0.673-2.448,0.367-3.55,0.367C311.631,428.191,296.575,428.252,281.459,428.313z"/>
			<path fill="#DF5D26" d="M234.824,464.728c2.999-4.406,6.426-5.63,12.485-4.223c-0.061,1.163-0.122,2.387-0.122,3.55
				c-3.672-1.102-7.038-1.225-9.486,2.387c-0.122,0.122-0.184,0.244-0.306,0.306c-0.918-0.184-1.775-0.489-2.387-1.224
				C234.824,465.34,234.763,465.033,234.824,464.728z"/>
			<path fill="#8F5523" d="M264.996,424.274c1.346,0.306,1.775-0.979,2.57-1.53c2.509-1.774,3.978-1.162,4.773,2.081
				c-2.693,0-5.385,0-8.078,0C264.506,424.642,264.751,424.458,264.996,424.274z"/>
			<path fill="#F2DBC1" d="M247.309,452.487c-2.509-0.551-5.08-0.184-7.65-0.244c0.428-0.612,0.367-1.285,0-1.897
				c2.57,0.062,5.08,1.163,7.65,0C247.309,451.08,247.309,451.753,247.309,452.487z"/>
			<path fill="#84878F" d="M318.484,512.157c0.367,2.57-0.611,3.489-3.365,3.428c-7.345-0.245-14.75-0.123-22.094,0
				c-2.142,0.061-2.999-0.674-2.692-2.754c0.306-2.326,0.551-4.713,0.856-7.038c0.429-2.081,1.591-2.754,3.794-2.693
				c6.426,0.184,12.852,0.062,19.339,0.062c1.163,0,2.387-0.184,3.366,0.673C317.934,506.589,318.24,509.403,318.484,512.157z"/>
			<path fill="#464749" d="M304.348,496.429c1.346,0.062,2.02,0.857,2.02,2.081c0,1.102-0.734,1.836-1.836,1.897
				c-1.285,0.122-2.081-0.673-2.142-1.897C302.328,497.286,303.063,496.49,304.348,496.429z"/>
			<path fill="#F8F6F0" d="M244.004,416.196c2.265,0.611,1.285,2.387,1.285,3.672c0,1.407-1.285,1.102-2.203,1.224
				c-1.163,0.123-2.326,0.307-3.488,0.49c0.184-2.204-2.203-4.407,0.061-6.61C241.128,415.4,242.597,415.829,244.004,416.196z"/>
			<path fill="#743A23" d="M230.663,462.77c0.123,0.184,0.306,0.428,0.429,0.611c0.184,0.612,0,0.918-0.673,0.734
				c-0.184,0.062-0.367,0.062-0.49,0.062c-0.856-0.551-1.713-1.102-2.631-1.714c-0.061-0.367-0.123-0.673-0.184-1.04
				c0.245-0.062,0.49-0.062,0.673-0.122C228.582,462.219,229.561,462.586,230.663,462.77z"/>
			<path fill="#FDF6F0" d="M304.898,366.44c-2.387-0.245-3.794-1.591-3.733-3.978c0.062-2.387,1.469-3.917,3.917-3.855
				c2.448,0.061,3.917,1.591,3.855,3.917C308.876,364.91,307.407,366.318,304.898,366.44z"/>
			<path fill="#E9EEE2" d="M309.366,399.55c-0.062-0.062-0.184-0.123-0.245-0.184c-1.102-1.714-1.224-4.407-4.1-4.345
				c-2.938,0-3.06,2.815-4.284,4.529c0-2.387-0.061-4.774-0.061-7.161c2.876,0,5.753,0,8.629,0
				C309.305,394.776,309.366,397.163,309.366,399.55z"/>
			<path fill="#444947" d="M276.44,411.667c0.306,1.714-0.857,1.469-1.775,1.53c-1.102,0.122-2.142,0-1.713-1.469
				c0.306-1.102-0.367-2.877,1.591-2.999C276.93,408.546,275.767,410.749,276.44,411.667z"/>
			<path fill="#3A3F3E" d="M284.151,408.424c-0.734,1.224-1.591,2.387-2.509,2.203c-1.285-0.245-1.897-1.775-2.204-2.938
				c-0.184-0.857,0.918-1.897,1.836-1.53C282.377,406.648,283.233,407.689,284.151,408.424z"/>
			<path fill="#3C4040" d="M285.375,400.101c1.285-0.062,2.326-0.062,1.897,1.469c-0.184,0.856,0.184,2.265-1.285,2.02
				c-0.979-0.184-2.693,0-2.693-1.652C283.233,400.59,284.029,399.794,285.375,400.101z"/>
			<path fill="#F5FBFA" d="M376.074,445.939c-5.814,0-10.343-4.468-10.404-10.221c0-5.814,4.773-10.588,10.588-10.526
				c5.569,0.062,10.343,4.957,10.281,10.526C386.417,441.472,381.888,445.939,376.074,445.939z"/>
			<path fill="#F9F8F4" d="M251.226,408.791c-0.551,0.244-1.041,0.428-1.591,0.673c-1.652,0.122-1.469-1.224-1.652-2.203
				s0-1.958,0.123-2.876c0.184-1.225,0.122-2.448-1.224-2.999c-1.347-0.551-2.57-0.122-3.55,0.856
				c-1.346,1.285-2.02,5.08-1.224,6.732c0.734,1.469,1.897,1.529,3.305,0.979c1.346-0.489,2.57-0.673,2.754,1.347
				c-0.612,1.225-1.469,2.265-2.509,3.121c-4.468-0.184-6.671-1.836-7.405-5.691c-0.979-5.079,0.857-9.547,4.529-11.077
				c2.876-1.163,6.243-0.489,8.017,1.591C252.939,401.691,253.062,405.67,251.226,408.791z"/>
			<path fill="#EA7735" d="M302.389,402.426c0.184-0.367,0.306-0.795,0.49-1.162c0.489-1.408,0.245-3.795,2.448-3.428
				c1.897,0.306,1.591,2.57,1.775,4.101c0.122,1.163-0.367,2.325-1.102,3.305C304.776,404.323,303.613,403.344,302.389,402.426z"/>
			<path fill="#DF5D26" d="M341.925,457.261c-0.062,7.405-5.692,13.281-12.73,13.281c-7.099,0-12.79-6.12-12.668-13.709
				c0.062-7.405,5.753-13.22,12.791-13.22C336.539,443.613,341.985,449.55,341.925,457.261z"/>
			<path fill="#DF5D26" d="M291.312,456.894c0-3.549,0.061-7.16,0-10.71c-0.061-1.836,0.612-2.509,2.448-2.447
				c4.651,0.122,9.303,0.122,13.954,0c2.692-0.062,2.264,1.591,2.325,3.182c0.062,1.714,0.184,3.306-2.387,3.183
				c-2.387-0.122-4.773,0.062-7.16,0c-1.469,0-1.775,0.734-1.775,2.02c0,1.347,0.612,1.652,1.775,1.652
				c1.407-0.061,2.876,0.184,4.223,0c3.243-0.489,3.917,1.102,3.672,3.855c-0.122,1.47-0.612,2.204-2.142,2.081
				c-1.714-0.061-3.489,0.062-5.202,0c-1.53-0.061-2.387,0.367-2.387,2.143c0,1.836,0.796,2.203,2.387,2.142
				c2.264-0.062,4.59,0.122,6.854-0.062c2.447-0.184,2.631,1.163,2.509,2.999c-0.122,1.652,0.551,3.55-2.387,3.488
				c-4.773-0.184-9.547-0.122-14.321,0c-1.836,0.062-2.509-0.611-2.448-2.447C291.373,464.238,291.312,460.566,291.312,456.894
				L291.312,456.894z"/>
			<path fill="#DF5D26" d="M273.441,470.603c-3.305,0.062-6.426-0.734-9.486-2.02c-1.469-0.611-1.897-1.347-1.163-2.938
				c1.958-4.161,1.836-4.223,6.059-2.57c1.652,0.612,3.305,1.04,5.08,0.918c0.673-0.062,1.346-0.184,1.469-0.979
				c0.123-0.734-0.306-1.285-0.979-1.529c-1.958-0.734-3.917-1.285-5.814-2.02c-4.162-1.652-5.692-3.795-5.569-7.405
				c0.184-3.979,2.448-6.916,6.426-8.079c4.223-1.224,8.14-0.122,11.934,1.652c0.918,0.429,1.224,0.857,0.857,2.02
				c-1.285,3.917-2.203,4.346-5.998,3.122c-1.775-0.612-4.468-2.02-5.202,0.184c-0.734,2.447,2.448,2.203,4.101,2.876
				c3.549,1.347,7.466,2.203,8.201,6.854C284.335,466.869,280.602,470.542,273.441,470.603z"/>
			<path fill="#5E5E55" d="M320.382,480.823c-13.893,0.062-27.785,0.062-41.677,0.122c-1.285,0-2.509-0.184-2.509-1.774
				c0-1.714,1.407-1.652,2.631-1.652c13.893,0.061,27.785,0.061,41.677,0.122C321.239,478.742,321.239,479.783,320.382,480.823z"/>
			<path fill="#DF5D26" d="M320.382,480.823c0-1.04,0.062-2.142,0.062-3.183c3.243-0.061,6.487-0.122,9.669-0.184
				c1.286,0,2.448,0.429,2.326,1.959c-0.122,1.407-1.285,1.529-2.448,1.529C326.869,480.945,323.626,480.885,320.382,480.823z"/>
			<path fill="#5F5E56" d="M248.166,411.239c-0.734-0.674-1.102-1.53-2.632-0.612c-2.631,1.591-4.529,0.306-4.773-2.815
				c-0.367-4.345,1.836-7.649,5.08-7.589c2.203,0.062,3.733,0.674,3.305,3.488c-0.306,1.897-1.163,3.979,0.49,5.753
				C250.063,410.871,248.839,410.811,248.166,411.239z"/>
			<path fill="#BF7D2C" d="M243.454,436.698c0.734,0.611,2.693,0.122,2.326,1.529c-0.367,1.347-1.836,1.163-2.938,0.429
				C243.576,438.228,243.515,437.493,243.454,436.698z"/>
			<path fill="#965724" d="M255.693,414.85c0.612,0.429,1.408,0.734,1.714,1.347c0.428,0.673-0.49,0.611-0.857,0.918
				c-1.285,1.102,0.245,1.224,0.673,1.652c1.102,1.224,0.857,2.203-0.245,3.305c-1.224,1.285-2.142,0.551-3.183-0.184
				c-0.061-0.062-0.184-0.122-0.245-0.245c2.692-1.836-1.347-3.427-0.245-5.202C253.919,415.706,254.775,415.278,255.693,414.85z"/>
			<path fill="#766A67" d="M230.418,464.115c0.245-0.244,0.428-0.489,0.673-0.734c1.285,0.367,2.264,1.408,3.733,1.347
				c0.123,0.184,0.184,0.367,0.245,0.551c-0.184,0.367-0.551,0.551-0.796,0.796l-0.306,0.061
				C232.744,465.462,231.581,464.789,230.418,464.115z"/>
			<path fill="#775E52" d="M236.905,467.727c-0.062-0.184-0.062-0.307-0.184-0.49c0.061-0.367,0.49-0.428,0.673-0.673l0.245-0.122
				c1.469,1.836,4.039,0.795,5.814,2.081c0.857,0.611,1.713,1.102,1.163,2.203c-0.551,1.162-1.407,0.611-2.387,0.367
				C240.026,470.603,239.476,467.604,236.905,467.727z"/>
			<path fill="#79361B" d="M237.395,466.625c-0.245,0.244-0.429,0.428-0.673,0.673c-0.857-0.429-1.714-0.796-2.57-1.224
				c-0.245-0.857,0.428-0.674,0.795-0.796C235.865,465.707,236.66,466.135,237.395,466.625z"/>
			<path fill="#D48E2B" d="M247.371,435.902c-0.612-0.184-1.286-0.306-1.775-0.612c-0.857-0.611-2.57-0.184-2.57-1.774
				c0-0.796,0.918-0.673,1.53-0.673c1.408,0,2.815,0.184,2.815,2.142C247.371,435.29,247.371,435.597,247.371,435.902
				L247.371,435.902z"/>
			<path fill="#BFC6C7" d="M381.949,436.208c-4.284,0.979-7.589-0.428-11.444-0.428
				C372.586,434.495,377.604,434.739,381.949,436.208z"/>
			<path fill="#C0C5C7" d="M372.83,432.72c3.305-0.795,3.795-0.795,6.365-0.061C377.236,433.638,376.38,433.699,372.83,432.72z"/>
			<path fill="#BFC6C8" d="M373.442,438.718c2.02-1.469,3.855,0.245,5.814,0.306C377.298,440.492,375.4,438.963,373.442,438.718z"/>
			<path fill="#FCFAF7" d="M334.642,457.017c0,4.039-2.142,6.915-5.202,6.977c-3.243,0.122-5.63-2.815-5.63-6.915
				c0-4.162,2.325-7.1,5.568-6.978C332.5,450.162,334.58,452.916,334.642,457.017z"/>
			<path fill="#F5F5F3" d="M246.82,404.813c-0.306,1.714,0.551,4.162-2.142,4.406c-1.591,0.184-1.591-1.529-1.469-2.692
				c0.245-1.774,0.061-4.101,2.448-4.345C247.676,402.059,246.453,403.956,246.82,404.813z"/>
			<path fill="#B7B5B5" d="M367.322,466.441c0.122,0.061,0.122,0.184,0.184,0.244v0.062l-0.062,0.062
				c-0.428,0.428-0.856,0.856-1.285,1.346c-0.061,0.062-0.061,0.062-0.122,0.123c-0.062,0-0.062,0-0.062-0.062
				c0.429-0.429,0.857-0.918,1.347-1.347c0.062-0.061,0.123-0.122,0.062-0.244C367.322,466.563,367.322,466.502,367.322,466.441z"/>
			<path fill="#D1CFCF" d="M366.099,476.845c0.061,0,0.061,0.062,0.122,0.123c0.367,0.367,0.734,0.734,1.163,1.102
				c0.061,0.062,0.122,0.062,0.061,0.122c-0.061,0-0.061-0.061-0.122-0.061c-0.367-0.367-0.796-0.796-1.163-1.163
				C366.159,476.968,366.099,476.906,366.099,476.845z"/>
			<path fill="#D1CFCF" d="M365.731,476.784c0.061,0,0.122-0.062,0.122-0.062c0.062-0.061,0.122,0,0.122,0.062
				c-0.061,0-0.122,0.061-0.184,0.061C365.792,476.845,365.731,476.845,365.731,476.784z"/>
		</g>
	</g>
</g>
</svg>
