<?xml version="1.0" encoding="utf-8"?>
<!-- Generator: Adobe Illustrator 16.0.0, SVG Export Plug-In . SVG Version: 6.00 Build 0)  -->
<!DOCTYPE svg PUBLIC "-//W3C//DTD SVG 1.1//EN" "http://www.w3.org/Graphics/SVG/1.1/DTD/svg11.dtd">
<svg version="1.1" id="Layer_1" xmlns="http://www.w3.org/2000/svg" xmlns:xlink="http://www.w3.org/1999/xlink" x="0px" y="0px"
	 width="1491.452px" height="1216px" viewBox="0 -224.508 1491.452 1216" enable-background="new 0 -224.508 1491.452 1216"
	 xml:space="preserve">
<path fill="#11123B" d="M0-224.508v1216h1354.263c-0.254-2.293-0.432-4.599-0.565-6.908c-0.526-1.933-0.83-4.046-1.201-6.064
	c-8.796-47.876-10.959-96.188-5.015-145.347c6.095-50.389,19.103-96,39.348-136.909c12.443-25.144,27.43-46.754,42.023-68.895
	c8.142-12.35,15.652-25.499,22.387-39.669c17.816-37.483,23.541-79.207,18.344-124.341c-3.799-32.985-14.115-61.804-26.406-89.153
	c-1.853-3.899-3.264-8.203-5.059-12.153c-24.415-53.743-51.707-104.451-73.79-160.648c-11.694-29.852-20.794-61.366-26.803-94.938
	c-2.53-14.136-3.689-28.607-5.278-42.974c-2.689-25.071-1.343-49.885,2.102-74.574c3.883-28.624,10.517-55.567,21.107-80.118
	c10.104-23.423,22.387-43.841,36.717-61.464c22.094-27.171,46.969-46.695,73.471-61.868c8.453-4.84,16.949-8.961,25.809-9.958
	l-0.005-0.021H0z"/>
<path fill="#FCFEFD" d="M0.008,566.02c1.157-0.096,2.313-0.273,3.472-0.274c70.162-0.013,140.326,0.015,210.487-0.088
	c3.365-0.005,4.977,1.225,6.488,4.071c8.498,16.02,17.317,31.871,25.762,47.918c1.834,3.483,3.627,4.539,7.695,3.951
	c19.125-2.763,38.33-4.905,57.707-4.694c1.529,0.016,3.914-0.706,4.123,1.57c0.219,2.398-2.142,1.975-3.691,1.987
	c-19.023,0.157-37.868,2.4-56.756,4.371c-5.069,0.529-3.567,3.807-3.912,5.934c-0.398,2.459,2.492,1.903,4.025,2.153
	c6.074,0.987,12.168,1.899,18.283,2.601c16.709,1.916,33.403,4.034,50.305,2.838c3.605-0.256,4.176-1.045,3.324-4.707
	c-7.324-31.492-1.9-60.74,15.975-87.721c2.229-3.364,7.263-6.237,6.302-9.955c-0.903-3.49-5.39-6.056-8.3-9.028
	c-0.117-0.119-0.25-0.226-0.35-0.356c-1.297-1.674-2.356-1.603-4.021-0.122c-6.213,5.536-6.281,5.458-12.053-0.317
	c-0.826-0.825-1.584-1.731-2.485-2.461c-1.761-1.428-1.406-2.541,0.086-4.018c9.127-9.021,17.854-18.479,27.387-27.042
	c4.509-4.05,5.683,2.808,8.316,4.577c1.438,0.967,5.668,2.2,2.245,5.938c-5.555,6.068-5.434,6.181,0.445,12.063
	c1.295,1.297,2.539,2.653,3.908,3.867c0.887,0.787,1.559,2.509,3.227,1.292c1.293-0.944,3.088-1.506,3.113-3.568
	c0.02-1.5,0.027-3,0.027-4.499c0-83.33,0.039-166.659-0.099-249.988c-0.008-4.834,1.389-6.2,6.199-6.186
	c55.996,0.152,111.994,0.085,167.992,0.146c1.91,0.002,5.279-1.139,5.188,1.99c-0.089,3.104-3.446,1.699-5.313,1.702
	c-54.83,0.079-109.662,0.117-164.492-0.035c-4.44-0.012-5.762,0.971-5.754,5.634c0.158,81.329,0.113,162.659,0.113,243.988
	c0,1.738,0,3.477,0,5.794c2.222-1.176,3.58-2.203,5.108-2.651c6.761-1.99,7.854-6.516,7.828-13.142
	c-0.268-72.162-0.15-144.326-0.217-216.489c-0.003-3.63,0.235-5.827,4.936-5.813c51.164,0.149,102.328,0.088,153.492,0.119
	c1.689,0.001,4.348-0.67,4.365,1.885c0.02,2.711-2.699,1.642-4.338,1.82c-1.318,0.142-2.664,0.03-3.996,0.03
	c-48.332,0-96.664,0.079-144.994-0.121c-4.91-0.021-5.979,1.32-5.967,6.074c0.16,71.496,0.111,142.993,0.111,214.489
	c0,0.834,0.071,1.674-0.011,2.499c-0.241,2.424,0.675,2.757,2.877,2.039c5.369-1.751,10.822-3.247,16.23-4.88
	c3.73-1.126,9.135,0.291,10.975-2.998c1.718-3.066,0.343-7.798,0.572-11.781c0.162-2.838-0.423-4.149-3.736-4.165
	c-7.29-0.033-7.288-0.241-7.288-7.465c0-1.167,0.141-2.353-0.025-3.496c-0.473-3.232,0.924-4.582,4.082-4.337
	c1.398-1.679,3.282-2.097,5.35-2.115c4.479-0.036,8.959-0.278,13.439,0.24c4.502-0.101,8.99-0.289,13.485-0.228
	c8.828,0.116,9.972,1.275,9.888,10.263c-0.009,0.833-0.043,1.665-0.062,2.497c-0.082,3.972-2.006,6.432-6.053,6.417
	c-4.637-0.018-5,2.814-4.881,6.306c0.121,3.603-0.677,7.031,4.975,7.857c12.244,1.792,23.902,5.811,34.797,11.797
	c6.871,3.776,13.246,8.288,19.244,13.339c2.572,2.166,4.897,2.177,7.383-0.433c2.253-2.366,3.447-4.398,0.689-7.179
	c-2.076-2.093-2.698-4.559-0.885-7.222c5.262-9.079,10.584-10.224,16.868-3.616c7.166,6.929,14.271,13.915,21.216,21.062
	c4.444,4.576,4.631,6.985,1.034,11.108c-5.838,6.697-8.284,7.321-13.594,3.39c-1.202-0.891-2.207-1.987-3.975-1.307
	c-5.709,2.195-7.695,8.061-4.576,13.46c9.764,16.912,14.515,35.172,14.578,54.666c0.953,7.698-0.735,15.142-2.264,22.599
	c-0.478,5.358-2.129,10.412-4.015,15.412c-3.569,9.476-3.559,9.483,6.586,9.483c134.48,0,268.961,0,403.441,0
	c2,0,4.002,0.055,5.999-0.051c4.781-0.254,5.849-1.26,6.033-6.004c0.245-6.324-0.158-12.66,0.218-18.982
	c-0.377-21.492-0.147-42.988-0.157-64.483c-0.035-72.661-0.014-145.323-0.014-217.984c0-12.963-0.003-12.967-12.778-12.967
	c-172.155-0.002-344.31-0.001-516.463-0.002c-2.834,0-5.668-0.07-8.5-0.002c-2.924,0.071-5.617-0.485-8.008-2.231
	c-1.258-2.093-0.479-3.143,1.774-3.279c1.66-0.101,3.332-0.049,4.998-0.049c175.332-0.001,350.665-0.001,525.998-0.001
	c3.333,0,6.693-0.268,9.993,0.067c4.073,0.414,5.443-0.853,5.343-5.123c-0.287-12.326-0.335-24.671,0.017-36.994
	c0.134-4.688-1.328-5.681-5.797-5.67c-61.833,0.147-123.666,0.118-185.499,0.023c-2.197-0.003-6.208,1.511-6.298-1.673
	c-0.099-3.472,3.952-1.932,6.107-1.936c62.834-0.097,125.667-0.079,188.5-0.076c6.7,0,6.705,0.007,6.705,6.984
	c0.002,123.167,0.002,246.333,0.001,369.5c0,7.104-0.003,7.108-7.104,7.108c-141.833,0-283.666,0.017-425.498-0.084
	c-3.779-0.004-5.845,1.074-7.879,4.367c-24.926,40.338-73.255,59.965-118.982,47.978c-36.524-9.578-61.492-32.502-75.408-67.545
	c-0.766-1.928-0.957-3.982-4.172-3.781c-24.938,1.554-49.543-1.635-74.051-5.729c-3.461-0.578-5.019,0.646-6.541,3.513
	c-8.351,15.726-17.008,31.289-25.258,47.063c-1.973,3.77-4.232,5.043-8.48,5.035c-68.666-0.143-137.332-0.104-205.998-0.084
	c-2.151,0-4.303,0.229-6.453,0.352c0-1.331,0-2.666,0-4c55.326-0.032,110.652-0.066,165.98-0.096c15.332-0.01,30.664,0,45.994-0.006
	c1.95-0.002,3.819,0.314,5.079-2.045c8.616-16.148,17.37-32.223,26.062-48.33c0.424-0.787,1.527-2.125,0.213-2.471
	c-4.006-1.06-8.133-1.649-12.201-2.479c-2.305-0.471-2.564,1.744-3.711,2.752c-3.371,2.969-7.104,3.688-11.059,1.599
	c-3.937-2.08-5.742-5.578-4.922-9.99c0.813-4.387,3.712-7.146,8.104-7.709c4.398-0.564,8.35,1.254,9.574,5.499
	c1.078,3.736,3.332,4.387,6.357,4.842c2.303,0.346,4.567,0.967,6.877,1.219c1.535,0.168,3.266,1.14,4.643-0.494
	c1.642-1.946,0.015-3.393-0.809-4.918c-9.244-17.132-18.636-34.186-27.666-51.43c-1.908-3.646-4.076-4.769-8.064-4.762
	c-67.992,0.119-135.986,0.088-203.98,0.074c-2.156-0.002-4.314-0.168-6.473-0.257C0.001,568.015,0.001,567.015,0.008,566.02z"/>
<g>
	<path opacity="0.05" fill="#5D5D5D" d="M1315.04-6.125c-3.082,1.83-3.082,1.83-5.785-1.471
		C1310.209-8.834,1310.891-8.658,1315.04-6.125z"/>
	<path opacity="0.05" fill="#5D5D5D" d="M1315.066,207.168c-13.457,0.013-24.441-10.986-24.419-24.455
		c0.024-13.362,10.99-24.313,24.363-24.326c13.458-0.009,24.441,10.988,24.419,24.459
		C1339.405,196.207,1328.439,207.159,1315.066,207.168z M1314.861,204.185c11.913,0.084,21.476-9.299,21.585-21.182
		c0.106-11.916-9.259-21.502-21.137-21.631c-11.993-0.129-21.616,9.315-21.683,21.272
		C1293.566,194.553,1302.975,204.1,1314.861,204.185z"/>
	<path opacity="0.05" fill="#5D5D5D" d="M1327.809,174.97c-1.439,0-2.734,0-4.138,0c0.889-1.583,4.358-2.394,5.448-1.379
		c0.312,0.294,0.485,0.891,0.485,1.35c0.04,5.272,0.014,10.541,0.04,15.809c0.01,1.319-0.654,1.836-1.867,1.836
		c-8.508,0-17.012,0-25.52-0.004c-1.235,0-1.832-0.588-1.823-1.879c0.031-5.206,0.022-10.414,0.005-15.619
		c-0.005-1.248,0.49-1.854,1.809-1.845c5.201,0.031,10.407,0.014,15.737,0.014c-0.22,1.368-0.965,1.787-2.199,1.778
		c-3.811-0.042-7.616-0.014-11.427-0.014c-0.678,0-1.357,0-2.143,0c0,4.718,0,9.192,0,13.841c8.509,0,16.973,0,25.592,0
		C1327.809,184.349,1327.809,179.828,1327.809,174.97z"/>
	<path opacity="0.05" fill="#5D5D5D" d="M1313.641,183.48c0-0.604-0.238-1.366,0.042-1.77c2.524-3.721,5.144-7.376,7.735-11.048
		c0.143-0.205,0.265-0.459,0.465-0.593c0.89-0.595,1.788-1.75,2.915-0.702c1.137,1.056,0.504,2.231-0.36,3.176
		c-3.325,3.659-6.677,7.285-10.015,10.926C1314.159,183.476,1313.903,183.476,1313.641,183.48z"/>
	<path opacity="0.05" fill="#5D5D5D" d="M1289.91,198.199c0.43-0.925,0.817-1.756,1.229-2.636c1.86,0,3.755,0,5.603,0
		c0.414,0.903,0.798,1.734,1.21,2.636C1295.249,198.199,1292.622,198.199,1289.91,198.199z"/>
	<path opacity="0.05" fill="#5D5D5D" d="M1287.993,188.309c0.546-0.9,0.878-1.734,1.462-2.309c0.501-0.486,1.344-0.994,1.945-0.9
		c0.549,0.078,0.972,0.958,1.453,1.482c-0.553,0.432-1.048,1.056-1.667,1.248C1290.195,188.142,1289.118,188.16,1287.993,188.309z"
		/>
	<path opacity="0.05" fill="#5D5D5D" d="M1315.08,233.883c5.624,0,11.249-0.007,16.873,0.002c2.527,0.004,3.271,0.757,3.274,3.291
		c0.002,9.618,0.002,19.238,0,28.856c-0.003,2.532-0.745,3.285-3.278,3.287c-11.303,0.007-22.601,0.007-33.901,0
		c-2.422,0-3.188-0.784-3.191-3.213c-0.007-9.671-0.007-19.343-0.002-29.014c0.002-2.425,0.771-3.202,3.195-3.207
		C1303.729,233.872,1309.404,233.883,1315.08,233.883z M1332.695,240.365c-11.875,0-23.565,0-35.318,0c0,8.283,0,16.464,0,24.5
		c1.017-0.096,2.008-0.111,2.96-0.312c0.45-0.094,0.98-0.453,1.203-0.845c0.481-0.855,0.793-1.807,1.299-3.033
		c-0.374-0.281-0.885-0.582-1.29-0.989c-1.324-1.317-1.319-1.808-0.045-3.129c0.658-0.682,1.347-1.331,1.999-2.015
		c0.996-1.038,1.95-1.09,2.962-0.011c0.426,0.453,1.014,1.232,1.384,1.157c1.156-0.229,2.324-0.675,3.313-1.304
		c0.365-0.231,0.188-1.23,0.395-1.834c0.247-0.717,0.591-1.948,0.992-1.983c1.742-0.174,3.607-0.285,5.241,0.208
		c0.548,0.165,0.536,2.188,0.784,3.365c0.014,0.049,0.035,0.101,0.075,0.225c0.53,0.208,1.179,0.334,1.681,0.675
		c1.377,0.929,2.402,0.713,3.463-0.568c0.356-0.432,1.584-0.787,1.87-0.537c1.379,1.181,2.812,2.44,3.677,3.982
		c0.265,0.475-1.213,1.928-1.89,2.93c-0.029,0.045-0.043,0.096-0.043,0.098c0.688,2.083,1.17,4.363,4.224,3.757
		c0.298-0.058,0.668,0.227,1.063,0.375C1332.695,256.82,1332.695,248.64,1332.695,240.365z M1308.212,266.853
		c4.568,0,9.123,0,13.705,0c-0.747-3.605-3.557-5.863-7.073-5.792C1311.49,261.134,1308.695,263.557,1308.212,266.853z
		 M1330.813,235.253c-0.41,0.624-1.212,1.314-1.118,1.852c0.103,0.595,0.969,1.319,1.613,1.449c0.36,0.071,1.221-0.874,1.361-1.476
		C1332.888,236.109,1332.172,235.561,1330.813,235.253z M1327.153,235.253c-0.249,0-0.499,0-0.746,0
		c-0.421,0.602-1.224,1.252-1.152,1.787c0.076,0.597,0.954,1.085,1.479,1.618c0.523-0.526,1.38-1,1.471-1.593
		C1328.288,236.523,1327.537,235.859,1327.153,235.253z M1324.105,237.501c0.013-0.238,0.026-0.481,0.04-0.72
		c-0.589-0.425-1.208-1.221-1.759-1.174c-0.59,0.047-1.111,0.892-1.664,1.382c0.503,0.555,0.944,1.459,1.528,1.564
		C1322.788,238.649,1323.479,237.887,1324.105,237.501z"/>
	<path fill="#FFFFFF" d="M0.001,703.017c0.986-0.11,1.974-0.319,2.959-0.319c39.657-0.019,79.315-0.017,118.971-0.011
		c0.996,0,2,0.037,2.986,0.158c0.921,0.111,1.607,0.772,1.609,1.629c0.002,0.847-0.64,1.556-1.584,1.63
		c-1.326,0.104-2.66,0.129-3.99,0.129c-22.328,0.008-44.654,0.032-66.982-0.004c-17.989-0.029-35.98-0.14-53.969-0.212
		C0.001,705.017,0.001,704.017,0.001,703.017z"/>
	<path fill="#FEFEFE" d="M1233.447,429.006c2.106,0.02,5.917-1.347,6.019,1.441c0.131,3.582-3.834,2.119-5.992,2.128
		c-28.156,0.109-56.313,0.118-84.47,0.015c-3.36-0.011-4.94,0.417-5.05,4.475c-0.464,17.07-7.146,31.658-19.064,43.763
		c-14.494,14.719-29.227,29.205-43.744,43.901c-2.482,2.513-4.145,3-6.885,0.212c-15.062-15.33-30.492-30.302-45.427-45.753
		c-19.656-20.338-23.446-52.226-9.654-77.388c13.739-25.063,42.911-38.899,70.559-33.463c28.694,5.644,48.606,26.546,53.915,56.956
		c0.525,3.013,1.455,3.734,4.326,3.707c14.494-0.137,28.99-0.063,43.483-0.063C1205.458,428.938,1219.453,428.874,1233.447,429.006z
		"/>
	<path fill="#FBFDFC" d="M135.255,241.496c2.318,2.017,2.004,4.925,2.15,7.455c0.961,16.554,5.938,31.828,13.961,46.247
		c23.969,43.071,71.572,64.824,119.586,55.976c25.918-4.777,48.123-17.369,64.941-38.057
		c28.983-35.652,35.146-75.407,17.565-117.634c-21.178-50.869-76.551-78.879-131.268-64.755
		c-38.6,9.963-64.886,34.485-78.781,71.982c-3.412,9.21-5.557,18.71-6.047,28.593c-0.129,2.598,0.422,5.878-2.775,7.524
		c-1.149,0.295-2.19,0.162-3.026-0.775c0.3-5.149,0.496-10.286,1.231-15.422c9.33-65.01,72.377-110.838,136.775-99.328
		c63.547,11.359,105.512,68.463,97.559,132.757c-8.427,68.126-76.888,115.298-143.737,99.556
		c-51.178-12.051-91.063-57.751-91.861-113.459C132.565,240.789,133.856,240.842,135.255,241.496z"/>
	<path fill="#FDFEFD" d="M918.505,767.369c-4.672,0.018-5.817-1.332-5.787-5.873c0.2-28.832,0.103-57.664,0.104-86.498
		c0-1,0.009-2,0.021-3c0.016-1.262,0.308-2.449,1.851-2.367c1.173,0.063,1.596,1.066,1.638,2.15
		c0.052,1.332,0.072,2.666,0.072,3.998c0.004,27.5,0.112,55-0.105,82.496c-0.035,4.468,1.213,5.532,5.582,5.526
		c85.663-0.131,171.327-0.129,256.99,0c4.216,0.005,5.202-1.176,5.19-5.27c-0.135-55.332-0.158-110.666,0.033-165.997
		c0.017-4.795-1.512-5.58-5.836-5.572c-65.664,0.129-131.329,0.089-196.992,0.088c-1.5-0.001-3-0.022-4.5-0.026
		c-1.13-0.002-1.986-0.423-2.051-1.646c-0.064-1.222,0.842-1.811,1.862-1.968c1.142-0.175,2.326-0.104,3.492-0.104
		c67.164-0.003,134.327,0.041,201.491-0.095c4.768-0.009,6.281,1.312,6.269,6.183c-0.151,57.163-0.157,114.331,0.008,171.495
		c0.015,4.951-1.11,6.523-6.342,6.498c-43.83-0.223-87.662-0.127-131.494-0.127S962.336,767.188,918.505,767.369z"/>
	<path fill="#FCFEFD" d="M1026.54,327.761c56.438-8.213,94.15-58.398,86.563-115.085c-7.631-57.001-64.675-96.691-121.021-84.205
		c-60.396,13.385-94.511,74.675-74.205,133.222c0.56,1.608,2.76,4.097-0.243,5.035c-2.785,0.871-2.744-2.395-3.313-4.014
		c-6.252-17.79-7.643-35.912-4.388-54.576c9.329-53.505,62.114-92.278,115.979-84.893c61.26,8.398,101.421,64.072,90.048,124.831
		c-11.142,59.521-74.155,97.705-132.144,80.057c-1.627-0.495-4.467-0.48-3.811-2.884c0.784-2.868,3.286-1.027,4.985-0.557
		c9.199,2.542,18.567,3.813,29.289,4.048C1017.579,328.487,1022.1,328.406,1026.54,327.761z"/>
	<path fill="#F4FAF7" d="M1225.138,663.054c0.06,3.39,4.039,1.793,6.195,1.793c41.301,0.021,82.602,0.021,123.902,0.033
		c0.382-1.29,0.813-2.563,1.281-3.825c-41.771,0.008-83.541,0.029-125.311,0.079C1229.091,661.136,1225.071,659.47,1225.138,663.054
		z"/>
	<path fill="#FBFDFC" d="M566.028,151.818c-0.036-4.469,1-5.964,5.771-5.937c36.98,0.207,73.965,0.217,110.946-0.009
		c4.886-0.03,5.749,1.641,5.728,5.993c-0.15,30.818-0.049,61.639-0.149,92.457c-0.007,2.004,1.404,5.751-1.865,5.629
		c-3.011-0.111-1.573-3.82-1.581-5.87c-0.103-29.819-0.091-59.639-0.039-89.459c0.006-2.896,0.123-4.967-3.995-4.949
		c-35.648,0.15-71.301,0.117-106.948,0.032c-2.953-0.008-4.007,0.681-3.998,3.86c0.099,48.811,0.087,97.622,0.021,146.433
		c-0.004,2.834,0.455,4.08,3.758,4.068c35.816-0.123,71.635-0.103,107.45-0.025c2.778,0.006,3.816-0.738,3.735-3.634
		c-0.183-6.492-0.069-12.993-0.035-19.489c0.007-1.275-0.324-3.052,1.516-3.188c2.206-0.164,2.022,1.766,2.03,3.214
		c0.037,6.996-0.213,14.004,0.105,20.986c0.206,4.5-1.084,6.026-5.848,6c-36.98-0.195-73.966-0.176-110.946-0.018
		c-4.408,0.02-5.686-1.283-5.652-5.667c0.188-24.987,0.092-49.977,0.092-74.965C566.122,202.126,566.222,176.97,566.028,151.818z"/>
	<path fill="#F8FCFA" d="M637.681,262.025c1.801,0,3.601,0,5.401,0c29.827,0,59.653,0,89.48,0.001c11.406,0,11.41,0,11.41-11.279
		c0.001-45.991-0.003-91.981,0.01-137.971c0.001-2.658,0.589-5.068-3.776-5.047c-35.825,0.167-71.651,0.121-107.476,0.044
		c-2.839-0.007-3.733,0.875-3.673,3.708c0.166,7.828,0.144,15.663-0.014,23.492c-0.034,1.718,1.27,4.863-1.613,4.879
		c-3.228,0.019-1.923-3.282-1.955-5.147c-0.146-8.329,0.19-16.673-0.163-24.989c-0.2-4.681,1.374-5.846,5.934-5.825
		c36.825,0.179,73.651,0.185,110.476-0.004c4.766-0.024,6.204,1.215,6.188,6.087c-0.171,49.821-0.171,99.645,0,149.467
		c0.017,4.954-1.19,6.587-6.371,6.551c-32.826-0.226-65.652-0.115-98.479-0.115c-1.739,0-3.479,0-6.649,0
		c5.425,5.353,9.785,9.632,14.114,13.943c1.044,1.039,2.548,2.291,1.038,3.745c-1.483,1.429-2.702-0.097-3.744-1.134
		c-5.313-5.291-10.522-10.687-15.945-15.863c-2.295-2.191-1.971-3.68,0.146-5.716c5.401-5.198,10.618-10.588,15.959-15.852
		c0.977-0.962,2.019-2.866,3.643-1.434c1.844,1.626,0.147,2.995-1.016,4.128c-4.517,4.398-9.079,8.747-13.625,13.113
		C637.215,261.213,637.448,261.619,637.681,262.025z"/>
	<path fill="#FCFDFC" d="M91.808,238.05c-0.183-9.029,0.548-18.032,2.479-26.805c14.074-63.883,52.068-107.024,115.295-123.679
		C273,70.861,327.841,89.267,371.107,138.725c24.288,27.764,36.002,61.016,36.852,97.958c0.041,1.762,1.146,4.905-1.576,4.969
		c-3.069,0.072-2.089-3.207-2.108-5.141c-0.084-8.354-0.739-16.686-2.51-24.81c-12.631-57.928-46.246-98.623-102.521-117.557
		c-56.805-19.112-109.012-7.614-153.746,32.41c-32.926,29.46-48.797,67.43-50.223,111.497
		C94.118,238.988,92.964,238.989,91.808,238.05z"/>
	<path fill="#FCFEFD" d="M992.507,309.883c-2.074-0.596-6.251-0.109-5.403-3.468c0.831-3.3,4.096-0.609,5.972-0.135
		c56.817,14.328,109.966-34.528,100.124-92.147c-6.418-37.585-37.15-65.367-75.147-67.935c-36.824-2.49-71.138,21.098-82.471,56.827
		c-5.462,17.222-5.011,34.417,0.813,51.497c0.563,1.649,2.128,4.003-0.022,4.85c-2.743,1.079-2.79-2.063-3.432-3.72
		c-2.784-7.194-4.254-14.724-4.757-22.379c-3.644-55.489,45.41-99.239,100.157-89.413c43.153,7.746,73.475,47.511,69.526,91.179
		c-3.953,43.737-40.67,77.329-84.607,77.395C1006.234,312.445,999.261,311.823,992.507,309.883z"/>
	<path fill="#FCFEFD" d="M95.308,242.143c0.496,8.307,0.814,16.625,2.477,24.824c11.771,58.073,45.107,98.792,100.779,118.502
		c55.5,19.65,106.846,8.827,152.504-28.524c1.762-1.443,3.658-5.813,6.127-2.972c2.282,2.626-2.064,4.27-3.816,5.744
		c-37.574,31.621-80.754,44.009-129.266,36.383c-75.494-11.865-131.711-77.539-132.297-153.952
		C92.978,241.074,94.142,241.075,95.308,242.143z"/>
	<path fill="#FCFDFC" d="M77.888,247.426c-1.576,2.109-3.715,3.802-5.627,5.653c-0.888,0.859-1.996,1.484-3.066,0.473
		c-1.147-1.086-0.387-2.155,0.5-2.993c2.61-2.468,5.265-4.892,8.425-7.821c-4.944-1.349-7.951-0.718-10.552,2.345
		c-2.36,2.781-5.121,5.224-7.744,7.777c-0.983,0.956-2.231,1.911-3.397,0.5c-0.89-1.075-0.078-2.216,0.812-3.039
		c2.521-2.337,5.082-4.635,8.416-7.665c-4.971-1.083-7.826-0.729-10.324,2.218c-2.467,2.908-5.356,5.463-8.099,8.129
		c-1.022,0.995-2.274,1.664-3.444,0.3c-1.053-1.226,0.018-2.15,0.803-2.977c2.344-2.469,4.727-4.902,7.336-7.598
		c-2.877-1.177-5.205-0.525-7.459-0.72c-1.414-0.122-2.853-0.303-2.695-2.12c0.125-1.449,1.468-1.558,2.66-1.683
		c2.34-0.243,4.83,0.487,8.357-1.261c-3.107-2.722-5.638-4.864-8.072-7.111c-0.936-0.866-2.217-1.972-0.715-3.309
		c1.312-1.164,2.483-0.231,3.463,0.735c2.847,2.801,5.758,5.543,8.467,8.473c2.427,2.623,5.086,3.018,9.892,1.296
		c-3.318-2.782-5.887-4.868-8.369-7.05c-1-0.878-2.102-2.086-0.877-3.388c1.256-1.333,2.44-0.205,3.396,0.729
		c2.734,2.677,5.561,5.278,8.098,8.134c2.534,2.855,5.405,3.313,8.977,2.24c-0.863-2.336-3.057-3.28-4.18-5.043
		c-1.29-2.023-5.948-3.456-3.438-5.957c2.392-2.382,4.319,1.84,5.991,3.503c4.603,4.579,8.672,9.904,16.39,7.852
		c1.155,0.001,2.311,0.002,3.465,0.003c12.096,0.001,24.19,0.001,36.287,0.002c1.186-0.006,2.371-0.013,3.555-0.02
		c1.068-1.383,2.58-1.708,4.209-1.754c8.049-0.903,16.109-0.584,24.17-0.197c1.531,0.001,3.063-0.046,4.59,0.091
		c1.232-0.049,2.469,0.007,3.701-0.059c14.885-0.587,29.77-0.566,44.656,0.002c1.554,0.134,3.104-0.056,4.658,0.009
		c2.186-0.242,4.375-0.08,6.561-0.066c6.46-0.498,12.929-0.352,19.398-0.144c2.655,0.086,5.323,0.807,5.442,3.894
		c0.134,3.455-2.683,4.207-5.521,4.306c-6.467,0.222-12.938,0.339-19.404-0.141c-2.189,0.027-4.377,0.149-6.563-0.048
		c-1.554,0.089-3.107,0.008-4.658,0.026c-14.885,0.504-29.771,0.553-44.66-0.037c-1.234-0.063-2.469-0.015-3.701-0.062
		c-1.523,0.152-3.053,0.08-4.578,0.087c-8.02,0.43-16.039,0.669-24.049-0.168c-1.6-0.044-3.116-0.303-4.229-1.619
		c-1.203,0.001-2.406,0.002-3.611,0.004c-12.075-0.005-24.149-0.009-36.223-0.014c-1.164,0.001-2.326,0.003-3.49,0.005
		C86.081,241.023,81.474,242.624,77.888,247.426z"/>
	<path fill="#FBFDFC" d="M1028.202,211.506c-0.935,2.13-1.479,3.676-2.261,5.091c-1.787,3.242-1.251,5.436,1.801,7.962
		c7.091,5.868,11.25,13.184,8.296,22.849c-3.205,10.483-11.089,15.575-23.12,14.446c-3.256-0.305-4.952,0.248-5.654,3.509
		c-0.857,3.984-3.061,5.202-6.8,3.011c-1.133-0.663-2.439-1.089-3.719-1.43c-3.415-0.908-4.316-2.887-2.501-5.886
		c2.148-3.546,1.422-5.823-2.243-7.989c-4.17-2.465-7.385-6.188-10.308-10.076c-0.5-0.665-1.15-1.292-1.413-2.048
		c-2.55-7.315,5.27-6.368,7.874-9.589c1.607-1.986,4.162-3.659,6.298,0.182c1.943,3.494,4.505,6.564,7.827,9.098
		c1.917-2.384,2.277-5.3,3.569-7.766c1.001-1.911,0.413-3.015-1.157-4.164c-1.335-0.978-2.508-2.19-3.682-3.37
		c-7.367-7.41-8.93-14.791-5.025-23.594c3.602-8.124,11.247-12.405,21.231-11.65c2.675,0.202,5.228,1.102,6.229-2.663
		c0.425-1.6,1.899-1.502,3.323-0.906c2.3,0.961,4.655,1.788,6.979,2.695c1.745,0.681,3.053,1.807,1.978,3.773
		c-1.565,2.865,0.034,4.171,2.191,5.44c0.854,0.501,1.599,1.2,2.348,1.859c9.555,8.411,8.897,12.985-2.54,18.997
		c-1.847,0.97-2.729,0.273-3.766-0.978C1032.176,216.161,1030.354,214.045,1028.202,211.506z"/>
	<path fill="#F2F9F5" d="M619.091,716.639c-1.681-0.002-4.342,0.733-4.407-1.864c-0.072-2.821,2.663-1.575,4.264-1.849
		c0.646-0.111,1.33-0.02,1.996-0.02c87.29,0,174.581-0.016,261.871,0.096c2.054,0.003,6.006-1.821,5.991,1.896
		c-0.011,3.018-3.78,1.7-5.845,1.704c-43.646,0.085-87.291,0.064-130.936,0.064C707.714,716.666,663.402,716.673,619.091,716.639z"
		/>
	<path fill="#F1F9F4" d="M1347.716,625.664c0.053,1.497,1.209,1.857,2.439,1.935c1.16,0.075,2.328,0.056,3.492,0.056
		c6.591,0,13.18,0,19.77,0c0.355-1.265,0.743-2.519,1.156-3.764h-20.969c-1.164,0-2.329,0.011-3.493,0.015
		C1348.882,623.91,1347.656,624.02,1347.716,625.664z"/>
	<path fill="#F0F8F3" d="M350.985,465.9c2.033,0.009,5.812-1.433,5.828,1.604c0.018,3.571-3.916,1.958-6.029,1.962
		c-50.3,0.106-100.602,0.083-150.902,0.081c-1.332,0-2.666,0.002-3.996-0.056c-1.262-0.057-2.453-0.479-2.385-1.953
		c0.07-1.51,1.385-1.657,2.586-1.688c1.332-0.032,2.664-0.022,3.996-0.023c25.15-0.001,50.301,0,75.451,0
		S325.835,465.786,350.985,465.9z"/>
	<path fill="#F0F8F3" d="M1029.933,573.204c-1.332,0-2.665,0.005-3.996-0.035c-1.227-0.036-2.472-0.263-2.398-1.834
		c0.07-1.485,1.277-1.779,2.52-1.822c0.998-0.034,1.998-0.039,2.997-0.039c46.966-0.002,93.931-0.002,140.896,0.002
		c1.165,0,2.338-0.025,3.493,0.093c1.079,0.109,1.915,0.682,1.896,1.896c-0.019,1.269-0.923,1.652-2.014,1.688
		c-1.331,0.043-2.664,0.051-3.996,0.051c-23.148,0.003-46.299,0.003-69.447,0.003
		C1076.565,573.207,1053.249,573.207,1029.933,573.204z"/>
	<path fill="#F0F8F3" d="M1099.55,556.13c-1.541-0.005-4,0.694-4.146-1.518c-0.173-2.645,2.439-2.184,4.156-2.186
		c29.146-0.034,58.293-0.035,87.439,0.007c1.676,0.003,4.29-0.561,4.087,2.208c-0.176,2.405-2.632,1.464-4.097,1.473
		c-14.491,0.073-28.98,0.044-43.471,0.043C1128.862,556.157,1114.205,556.175,1099.55,556.13z"/>
	<path fill="#F9FCFA" d="M247.986,538.883c-7.474,0.113-13.752-6.119-13.646-13.543c0.104-7.297,6.139-13.241,13.441-13.243
		c7.346-0.001,13.217,5.886,13.254,13.289C261.073,532.825,255.323,538.771,247.986,538.883z"/>
	<path fill="#F9FCFA" d="M799.263,765.611c-0.242-7.246,5.649-13.479,12.92-13.664c7.709-0.195,13.767,5.571,13.832,13.168
		c0.063,7.38-5.729,13.349-13.084,13.481C805.618,778.73,799.508,772.923,799.263,765.611z"/>
	<path fill="#FBFDFC" d="M1287.14,191.806c7.576,0.034,13.211,5.743,13.17,13.345c-0.043,7.57-5.769,13.238-13.332,13.194
		c-7.582-0.043-13.18-5.732-13.146-13.354C1273.864,197.392,1279.536,191.772,1287.14,191.806z"/>
	<path fill="#FFFFFF" d="M1094.038,316.246c-1.478-0.012-3.872,0.815-4.03-1.581c-0.168-2.556,2.272-1.878,3.75-1.882
		c19.771-0.05,39.54-0.05,59.31,0c1.488,0.004,3.935-0.651,3.804,1.85c-0.124,2.361-2.526,1.606-4.022,1.616
		c-9.801,0.068-19.603,0.035-29.404,0.035C1113.642,316.285,1103.841,316.321,1094.038,316.246z"/>
	<path fill="#F4FAF6" d="M814.374,260.017c-1.404-0.008-3.31,0.39-3.275-1.912c0.029-1.814,1.593-1.884,2.93-1.886
		c13.607-0.02,27.217-0.018,40.825-0.004c1.338,0.002,2.919,0.031,3.029,1.789c0.146,2.287-1.743,2.01-3.182,2.017
		c-6.638,0.033-13.276,0.014-19.915,0.015C827.982,260.036,821.178,260.058,814.374,260.017z"/>
	<path fill="#F8FBF9" d="M1290.849,429.3c-0.02,5.121-4.428,9.488-9.549,9.46c-5.229-0.027-9.343-4.229-9.345-9.543
		c-0.003-5.344,4.036-9.345,9.425-9.337C1286.626,419.887,1290.869,424.108,1290.849,429.3z"/>
	<path fill="#F9FCFA" d="M541.708,714.587c0.076-5.117,4.103-9.257,9.139-9.396c5.143-0.141,9.621,4.215,9.691,9.424
		c0.072,5.326-4.071,9.467-9.473,9.467C545.614,724.082,541.628,720.037,541.708,714.587z"/>
	<path fill="#F8FCFA" d="M164.937,469.198c-0.049,5.153-4.412,9.429-9.578,9.386c-5.209-0.044-9.416-4.332-9.365-9.55
		c0.049-5.288,4.191-9.313,9.539-9.267C160.856,459.813,164.985,463.953,164.937,469.198z"/>
	<path fill="#F7FBF9" d="M1345.789,491.839c5.362,0.063,9.32,4.144,9.228,9.512c-0.09,5.263-4.362,9.443-9.555,9.351
		c-5.113-0.091-9.447-4.576-9.345-9.67C1336.222,495.786,1340.44,491.777,1345.789,491.839z"/>
	<path fill="#FAFDFB" d="M1195.047,303.764c5.324-0.027,9.603,4.183,9.566,9.415c-0.035,5.023-4.13,9.216-9.165,9.386
		c-5.324,0.179-9.575-3.89-9.653-9.239C1185.716,307.804,1189.597,303.793,1195.047,303.764z"/>
	<path fill="#FAFDFB" d="M1234.582,552.903c0.019-5.341,4.233-9.495,9.543-9.4c5.093,0.09,9.097,4.113,9.199,9.24
		c0.108,5.452-3.821,9.487-9.285,9.535C1238.601,562.326,1234.563,558.324,1234.582,552.903z"/>
	<path fill="#F8FBF9" d="M859.095,297.316c4.616,0.157,8.553,4.135,8.632,8.725c0.081,4.789-4.019,8.921-8.862,8.93
		c-4.872,0.011-8.881-4.04-8.821-8.908C850.104,301.248,854.338,297.156,859.095,297.316z"/>
	<path fill="#F7FBF8" d="M921.214,306.082c0.072-4.804,4.328-8.913,9.092-8.775c4.603,0.134,8.55,4.117,8.636,8.717
		c0.09,4.851-3.936,8.937-8.821,8.953C925.252,314.991,921.143,310.888,921.214,306.082z"/>
	<path fill="#F6FBF8" d="M885.789,306.253c-0.032-4.985,3.858-8.964,8.736-8.938c4.67,0.025,8.512,3.817,8.653,8.539
		c0.151,5.041-3.549,9.009-8.505,9.12C889.684,315.086,885.819,311.294,885.789,306.253z"/>
	<path fill="#F2F9F5" d="M768.735,260.031c-1.45-0.008-3.326,0.267-3.214-1.956c0.083-1.652,1.603-1.877,3.007-1.877
		c8.798,0.002,17.596-0.005,26.394,0.017c1.341,0.003,2.91,0.073,2.963,1.859c0.067,2.289-1.835,1.932-3.253,1.947
		c-4.315,0.047-8.633,0.018-12.947,0.018C777.368,260.04,773.053,260.055,768.735,260.031z"/>
	<path fill="#EFF8F2" d="M877.101,260.02c-1.043-0.011-2.056-0.275-2.189-1.513c-0.155-1.435,0.779-2.211,2.059-2.232
		c4.787-0.079,9.577-0.067,14.365-0.019c1.3,0.013,2.307,0.766,2.203,2.13c-0.11,1.434-1.308,1.678-2.563,1.662
		c-2.146-0.028-4.295-0.008-6.441-0.014C882.056,260.028,879.579,260.046,877.101,260.02z"/>
	<path fill="#EBF6EF" d="M585.094,716.625c-2.31,0-4.622,0.063-6.928-0.029c-1-0.039-1.98-0.469-2.061-1.699
		c-0.104-1.567,1.006-1.952,2.248-1.963c4.62-0.034,9.239-0.021,13.859-0.008c1.095,0.004,1.987,0.438,2.052,1.65
		c0.078,1.502-1.003,2.01-2.242,2.051c-2.309,0.076-4.619,0.021-6.93,0.021C585.093,716.64,585.093,716.632,585.094,716.625z"/>
	<path fill="#FDFEFD" d="M152.957,706.175c-1.061-0.016-1.987-0.471-2.02-1.709c-0.035-1.291,0.974-1.695,1.989-1.703
		c5.951-0.045,11.904-0.039,17.855,0.013c1.024,0.01,2.053,0.469,2.063,1.684c0.011,1.213-0.981,1.682-2.032,1.703
		c-2.81,0.058-5.619,0.019-8.431,0.025C159.239,706.193,156.097,706.224,152.957,706.175z"/>
	<path fill="#E7F4EC" d="M996.587,571.322c0.024-3.404,4.306-1.706,6.657-1.773c2.21-0.062,6.294-1.34,6.298,1.639
		c0.005,3.871-4.242,1.134-6.397,2.236C1000.899,572.374,996.562,574.921,996.587,571.322z"/>
	<path fill="#EBF6EF" d="M1220.938,556.162c-1.696-0.473-4.738,1.231-4.814-1.743c-0.074-2.838,2.918-1.734,4.695-2.035
		c0.322-0.055,0.684-0.083,0.992,0.002c2.125,0.586,6.06-1.442,5.97,2.164c-0.079,3.169-3.884,0.803-5.479,1.625
		C1221.601,556.175,1221.247,556.249,1220.938,556.162z"/>
	<path fill="#E9F5EE" d="M1251.318,430.475c0.133-2.953,3.866-1.051,5.929-1.57c0.469-0.118,1.012-0.106,1.487,0
		c1.567,0.351,4.29-1.041,4.294,1.798c0.004,2.607-2.612,1.8-4.286,2.01c-0.49,0.063-0.996,0.01-2.119,0.01
		C1255.304,431.644,1251.142,434.409,1251.318,430.475z"/>
	<path fill="#E7F4EC" d="M180.44,465.814c1.313,0.032,2.986-0.043,3.043,1.685c0.064,2.043-1.732,2.058-3.238,2.079
		c-1.973,0.027-3.947,0.027-5.92-0.014c-1.315-0.027-2.946,0.002-3.02-1.741c-0.093-2.171,1.784-1.915,3.217-2.008
		c0.818-0.054,1.643-0.011,2.465-0.009C178.14,465.808,179.29,465.785,180.44,465.814z"/>
	<path fill="#E6F3EB" d="M982.096,573.23c-0.832,0-1.671,0.067-2.494-0.016c-1.378-0.138-3.388,0.494-3.46-1.751
		c-0.072-2.186,1.868-1.958,3.307-2.006c1.995-0.067,3.995-0.021,5.991,0.046c1.279,0.043,2.382,0.559,2.293,2.031
		c-0.071,1.171-1.068,1.593-2.143,1.634c-1.163,0.044-2.329,0.01-3.494,0.01C982.096,573.196,982.096,573.213,982.096,573.23z"/>
	<path fill="#FCFEFD" d="M1170.425,316.268c-1.361-0.118-3.336,0.392-3.275-1.848c0.048-1.798,1.765-1.601,3.025-1.648
		c1.797-0.068,3.604-0.084,5.401-0.006c1.379,0.061,3.437-0.418,3.481,1.653c0.055,2.55-2.267,1.648-3.725,1.856
		c-0.642,0.091-1.308,0.015-1.963,0.012C1172.388,316.284,1171.399,316.353,1170.425,316.268z"/>
	<path fill="#E8F4ED" d="M1199.747,554.643c-0.203-2.965,2.663-2.239,4.451-2.219c1.766,0.022,4.656-0.832,4.669,1.927
		c0.015,3.031-3.013,1.278-4.771,1.999C1202.728,555.569,1199.929,557.274,1199.747,554.643z"/>
	<path fill="#FBFDFC" d="M22.157,628.792c-0.059-15.311,11.093-27,25.904-27.149c15.049-0.152,26.576,11.448,26.742,26.91
		c0.168,15.489-11.207,27.436-26.154,27.464C33.72,656.048,22.216,644.229,22.157,628.792z"/>
	<path fill="#FBFDFB" d="M122.165,651.398c0.021,2.24-0.107,3.73-3.094,3.686c-10.488-0.16-20.98-0.053-31.471-0.076
		c-1.256-0.003-2.799,0.329-2.756-1.815c0.037-1.968,1.375-1.978,2.756-1.979c4.994-0.008,9.996,0.137,14.984-0.051
		c5.089-0.193,11.875,2.26,14.771-1.08c2.512-2.899,0.555-9.521,0.932-14.469c0.289-3.812-0.771-5.31-4.879-5.084
		c-6.475,0.351-12.987,0.207-19.477,0.021c-1.873-0.055-5.306,1.42-5.306-1.683c0.002-3.502,3.549-1.56,5.49-1.803
		c2.621-0.331,5.324,0.038,7.98-0.107c5.262-0.29,12.469,2.35,15.25-1.071c2.64-3.25,0.565-10.188,0.942-15.477
		c0.269-3.768-1.394-4.362-4.66-4.285c-8.322,0.195-16.65,0.102-24.977,0.021c-1.285-0.013-3.369,0.831-3.525-1.515
		c-0.185-2.796,2.17-1.974,3.601-1.986c9.826-0.076,19.652,0.054,29.475-0.1c2.971-0.046,4.09,0.755,4.004,3.896
		c-0.209,7.487-0.068,14.984-0.068,22.479C122.136,636.412,122.093,643.906,122.165,651.398z"/>
	<path fill="#FAFDFB" d="M161.543,603.043c5.91,2.104,9.439,6.481,9.668,12.032c0.267,6.431-2.228,10.235-8.832,12.914
		c-2.601,1.055-5.383,1.692-8.112,2.404c-3.695,0.963-7.52,1.532-10.869,3.526c-4.654,2.772-5.994,7.928-3.189,12.506
		c2.291,3.738,5.963,5.188,10.109,5.539c6.777,0.576,12.826-1.342,18.135-5.612c1.107-0.894,2.13-2.347,3.73-0.541
		c1.68,1.895-0.017,2.615-1.129,3.479c-6.485,5.028-13.817,7.269-21.978,6.141c-8.215-1.135-13.522-6.006-14.078-12.551
		c-0.637-7.521,2.988-12.094,11.922-14.78c4.45-1.338,9.028-2.271,13.438-3.721c4.523-1.49,7.35-4.465,6.881-9.679
		c-0.398-4.435-3.666-7.765-8.904-8.736c-6.188-1.147-11.914,0.077-17.08,3.718c-1.246,0.879-2.381,1.939-3.715,0.014
		c-1.461-2.112,0.483-2.644,1.551-3.371c4.385-2.981,9.24-4.518,14.896-4.32C156.368,601.817,158.991,602.136,161.543,603.043z"/>
	<path fill="#11123B" d="M518.355,525.551c6.106-5.918,6.183-6.1,0.489-12.396c-1.993-2.205-0.709-3.172,0.697-4.289
		c1.275-1.013,2.021-3.887,4.568-1.29c7.446,7.593,15.002,15.079,22.553,22.568c1.127,1.115,1.417,1.907,0.229,3.286
		c-2.322,2.694-4.429,4.56-7.173,0.498c-2.858-4.23-5.726-4.515-8.954-0.172c-1.669,2.243-4.151,3.87-5.888,6.074
		c-2.744,3.485-4.785,3.69-7.223-0.359c-1.518-2.52-3.781-4.591-6.605-7.919C513.503,529.555,516.103,527.732,518.355,525.551z"/>
	<path fill="#F79647" d="M217.415,633.159c-2.172-1.463-2.949-3.699-2.166-6.138c0.832-2.592,2.736-4.196,5.627-4.041
		c2.656,0.143,4.535,1.31,4.994,4.071c-2.346,1.242-5.983-2.208-6.547,1.509c-0.461,3.042,3.746,1.651,5.953,3.567
		C222.606,634.535,220.103,634.97,217.415,633.159z"/>
	<path fill="#FBFDFC" d="M1013.367,682.916c-0.012-19.418,15.65-35.107,35.181-35.24c19.807-0.135,35.516,15.467,35.523,35.283
		c0.006,19.59-15.483,35.138-35.063,35.197C1029.201,718.212,1013.379,702.57,1013.367,682.916z"/>
	<path fill="#E15C25" d="M1104.007,432.714c5.698,0.026,5.903,0.317,4.396,6.032c-4.692,17.791-22.77,28.06-40.423,22.96
		c-16.982-4.904-26.875-23.193-21.811-40.314c4.097-13.844,17.916-23.802,32.051-23.096c14.975,0.748,27.722,11.467,30.595,25.658
		c0.669,3.297,0.478,5.242-3.907,5.071c-8.646-0.338-17.315-0.115-25.974-0.072c-1.389,0.007-3.444-0.456-3.37,1.787
		c0.064,1.969,1.966,1.938,3.464,1.949c4.496,0.031,8.992,0.011,13.488,0.016C1096.347,432.71,1100.177,432.696,1104.007,432.714z"
		/>
	<path fill="#11123B" d="M219.976,248.362c4.498,15.408,19.696,25.013,34.931,22.286c17.183-3.076,26.685-17.514,25.981-32.266
		c-0.74-15.557-13.314-28.266-28.979-29.233c-13.713-0.847-28.281,7.346-32.115,24.241c-0.431,1.902-1.302,3.369-2.693,4.624
		c-15.295,0.008-30.59,0.016-45.887,0.024c-1.394-0.945-1.76-2.261-1.621-3.902c1.772-20.974,10.19-38.974,25.638-53.088
		c16.937-15.475,37.134-22.76,60.356-21.072c24.199,1.759,43.559,12.616,58.242,31.479c11.364,14.6,16.536,31.436,16.307,50.196
		c-0.27,22.089-8.484,40.703-23.85,55.827c-18.796,18.504-42.015,25.801-68.15,22.322c-34.424-4.583-62.965-33.264-67.844-67.822
		c-0.437-3.101-2.47-6.875,0.928-9.827c15.301,0.008,30.6,0.017,45.9,0.026C219.255,243.691,219.333,246.155,219.976,248.362z"/>
	<path fill="#E15C25" d="M164.168,242.203c1.461,1.106,1.692,2.688,1.965,4.388c0.5,3.102,0.685,6.227,1.261,9.338
		c6.779,36.61,38.629,64.883,74.676,67.659c28.722,2.213,52.756-7.198,71.445-28.895c18.288-21.233,24.038-46.085,18.141-73.48
		c-3.19-14.817-10.328-27.664-20.764-38.612c-16.81-17.635-37.533-26.576-61.832-26.492c-18.669,0.065-35.604,6.038-50.363,17.546
		c-16.769,13.075-27.32,30.003-31.418,51.041c-0.859,4.413,0.697,9.535-3.148,13.261c-8.473,0.391-16.947,0.427-25.42-0.016
		c0.258-4.816,0.449-9.614,1.121-14.423c8.488-60.755,68.064-104.079,128.453-93.298c62.436,11.148,102.191,68.749,90.77,131.512
		c-10.692,58.753-70.44,99.449-129.162,87.974c-52.938-10.345-89.657-53.641-91.172-107.496
		C147.202,242.208,155.685,242.206,164.168,242.203z"/>
	<path fill="#FAFCFB" d="M167.729,238.044c-1.125-1.303-1.646-2.659-1.492-4.531c2.289-27.794,15.453-49.356,38.641-64.192
		c22.84-14.615,47.683-17.272,73.418-8.15c33.125,11.74,55.772,43.556,55.635,79.208c-0.072,18.846-5.689,36.106-17.512,50.849
		c-21.035,26.232-48.461,36.873-81.664,31.313c-34.86-5.838-61.935-33.442-68.022-69.959c-0.547-3.275-2.295-7.263,0.985-10.434
		c1.166,0,2.334,0.001,3.502,0.001c0.23,2.486,0.451,4.975,0.693,7.46c3.854,39.393,41.149,71.283,80.848,69.136
		c48.965-2.648,82.922-45.527,74.234-93.738c-7.402-41.076-49.31-70.079-90.111-62.36c-38.041,7.196-63.153,36.028-65.67,75.39
		C170.054,238.04,168.892,238.043,167.729,238.044z"/>
	<path fill="#E15C25" d="M227.581,227.26c5.78-10.061,17.913-14.859,29.227-11.776c11.498,3.134,17.894,12.369,18.476,24.753
		c0.5,10.634-8.371,22.995-20.568,25.234c-10.682,1.96-22.752-3.549-27.801-13.894c-1.446-2.964-2.926-6.129-0.396-9.355
		c6.978-0.043,13.953-0.068,20.931-0.14c1.59-0.016,3.899,0.471,4.045-1.744c0.179-2.741-2.35-2.198-4.063-2.222
		c-6.975-0.1-13.948-0.122-20.922-0.174C223.767,234.077,225.69,230.55,227.581,227.26z"/>
	<path fill="#545BA8" d="M220.957,238.007c-1.757-1.582-1.481-3.494-1.022-5.528c1.321-5.865,4.388-10.843,8.608-14.869
		c9.813-9.358,25.295-11.099,36.502-4.513c12.379,7.274,18.16,20.689,14.859,34.482c-3.265,13.645-15.576,23.345-29.738,23.433
		c-14.26,0.089-26.762-9.377-30.266-22.882c-0.563-2.17-0.976-4.262,1.045-5.955c1.858,0.015,3.717,0.029,5.574,0.044
		c1.213,10.284,6.768,17.284,16.553,20.34c8.976,2.803,17.176,0.59,23.742-6.196c6.771-6.997,8.098-15.475,5.045-24.485
		c-3.459-10.205-13.414-16.006-24.851-14.983c-10.694,0.957-18.557,9.028-20.5,21.047
		C224.657,237.965,222.808,237.986,220.957,238.007z"/>
	<path fill="#11123B" d="M356.169,500.458c1.094,1.634-0.896,2.192-1.623,3.125c-0.813,1.042-1.762,2.023-2.809,2.826
		c-2.334,1.792-2.029,3.233,0.043,5.124c3.438,3.135,6.56,6.616,9.953,9.804c1.666,1.565,1.844,2.486,0.02,4.24
		c-8.402,8.079-8.338,8.146-16.557-0.065c-5.855-5.849-5.992-5.997-12.068-0.328c-2.392,2.232-3.347,0.661-4.733-0.746
		c-1.357-1.378-3.156-2.368-0.75-4.687c7.547-7.271,14.872-14.772,22.293-22.173c0.544-0.543,1.167-1.006,2.104-1.807
		C353.571,497.475,355.077,498.827,356.169,500.458z"/>
	<path fill="#11123B" d="M447.91,470.948c3.104-0.15,3.482,1.292,3.494,3.85c0.012,2.645-0.588,4.026-3.592,3.887
		c-3.983-0.185-7.981-0.026-11.974,0.009c-1.062,0.009-2.117,0.33-2.238,1.521c-0.155,1.527,1.017,2.115,2.25,1.924
		c4.197-0.653,4.601,1.705,4.384,4.98c-0.197,2.981-0.117,5.989-0.023,8.979c0.065,2.029-0.522,2.826-2.774,2.975
		c-11.613,0.763-11.607,0.843-11.609-10.596c0-0.333,0-0.664,0-0.998c0-8.18,0.008-8.362-7.998-8.759
		c-3.368-0.166-3.064-2.052-3.184-4.284c-0.134-2.5,0.608-3.58,3.328-3.477c4.982,0.19,9.979,0.054,14.969,0.054
		C437.935,471.013,442.933,471.19,447.91,470.948z"/>
	<path fill="#11123B" d="M141.136,247.829c2.623,31.67,16.075,57.735,40.931,77.589c25.379,20.273,54.565,27.372,86.323,22.158
		c26.179-4.298,48.115-16.935,65.171-37.592c18.932-22.931,27.6-49.364,25.02-78.827c-2.588-29.526-15.097-54.499-37.904-74.015
		c-18.094-15.483-39.157-23.885-62.633-25.807c-23.392-1.915-45.39,3.43-65.326,15.981c-31.473,19.812-48.395,48.565-51.59,85.506
		c-0.178,2.061-0.332,4.013-2.416,5.118c-1.198,0.03-2.396,0.062-3.594,0.092c0.6-5.79,0.945-11.62,1.836-17.364
		c9.187-59.237,67.82-102.77,127.063-94.424c65.138,9.176,108.522,66.78,99.084,131.557c-8.903,61.1-68.262,105.242-129.038,95.966
		c-56.537-8.629-97.035-54.324-98.923-111.614c1.193,0.019,2.388,0.038,3.58,0.057C141.056,243.427,140.956,245.646,141.136,247.829
		z"/>
	<path fill="#11123B" d="M164.129,237.958c0.381-3.975,0.478-8.002,1.187-11.918c8.102-44.76,46.672-74.602,91.881-71.188
		c48.506,3.663,84.801,49.144,77.633,97.282c-6.879,46.189-48.076,77.97-94.633,73.001c-42.246-4.51-75.078-40.322-76.027-82.931
		c1.182-0.018,2.365-0.036,3.549-0.054c1.314,45.309,38.388,81.079,83.164,80.24c45.449-0.85,81.262-37.107,81.238-82.25
		c-0.023-45.208-35.998-81.661-81.184-82.265c-45.177-0.602-82.025,34.902-83.207,80.172
		C166.53,238.017,165.331,237.986,164.129,237.958z"/>
	<path fill="#11123B" d="M517.792,123.743c-0.074-5.357,3.944-9.589,9.219-9.713c5.425-0.127,9.978,4.298,9.925,9.646
		c-0.05,5.147-4.405,9.422-9.604,9.427C521.931,133.108,517.866,129.119,517.792,123.743z"/>
	<path fill="#11123B" d="M257.255,525.104c0.189,5.571-3.992,9.938-9.508,9.934c-5.2-0.005-9.604-4.285-9.686-9.413
		c-0.082-5.093,4.274-9.571,9.416-9.679C252.841,515.833,257.077,519.8,257.255,525.104z"/>
	<path fill="#11123B" d="M812.897,774.89c-5.317,0.153-9.9-4.412-9.822-9.778c0.076-5.277,4.285-9.379,9.615-9.371
		c5.415,0.006,9.457,4.015,9.484,9.406C822.203,770.455,818.121,774.742,812.897,774.89z"/>
	<path fill="#11123B" d="M1286.882,195.419c5.293-0.112,10.002,4.589,9.864,9.846c-0.133,5.044-4.743,9.535-9.757,9.505
		c-5.085-0.031-9.523-4.511-9.546-9.638C1277.419,199.938,1281.705,195.527,1286.882,195.419z"/>
	<path fill="#11123B" d="M1286.937,429.096c0.084,3.512-1.973,5.642-5.41,5.778c-3.495,0.138-5.581-1.942-5.736-5.435
		c-0.16-3.576,1.947-5.387,5.339-5.846C1284.574,423.888,1286.853,425.525,1286.937,429.096z"/>
	<path fill="#11123B" d="M545.412,714.574c0.112-3.377,2.292-5.588,5.813-5.476c3.48,0.113,5.604,2.363,5.514,5.775
		s-2.272,5.346-5.836,5.473C547.366,720.044,545.3,717.982,545.412,714.574z"/>
	<path fill="#11123B" d="M155.501,463.485c3.387,0.047,5.569,2.08,5.521,5.688c-0.048,3.591-2.252,5.617-5.638,5.594
		c-3.405-0.021-5.393-2.152-5.582-5.751C150.046,465.489,152.091,463.438,155.501,463.485z"/>
	<path fill="#11123B" d="M1345.687,495.59c3.451,0.03,5.545,2.058,5.483,5.66c-0.061,3.565-2.212,5.642-5.608,5.604
		c-3.389-0.037-5.33-2.232-5.643-5.698C1340.287,497.648,1342.237,495.56,1345.687,495.59z"/>
	<path fill="#11123B" d="M1249.642,552.817c0.078,3.429-2.101,5.731-5.557,5.813c-3.455,0.083-5.722-2.097-5.82-5.545
		c-0.098-3.484,2.205-5.347,5.563-5.963C1247.238,547.535,1249.565,549.38,1249.642,552.817z"/>
	<path fill="#11123B" d="M7.051,567.541c67.656-0.034,135.313-0.027,202.97-0.027c1.166,0,2.334,0.037,3.498,0.002
		c2.414-0.071,4.086,0.961,5.246,3.097c9.85,18.133,19.446,36.402,29.592,54.376c1.047,1.851,1.174,3.855-0.109,5.677
		c-1.396,1.981-3.393,2.604-5.725,2.047c-2.918-0.698-5.91-0.942-8.849-1.557c-2.864-0.603-4.898-1.852-5.758-4.785
		c-1.18-4.027-4.309-5.479-8.086-5.19c-3.498,0.269-5.795,2.663-6.578,5.985c-0.828,3.521,0.953,6.305,3.957,7.875
		c3.413,1.785,6.892,1.556,9.354-1.85c1.767-2.445,3.994-2.664,6.619-2.148c2.118,0.416,4.25,0.783,6.387,1.123
		c5.413,0.86,6.749,3.571,4.061,8.479c-8.158,14.889-16.104,29.891-24.244,44.788c-1.85,3.384-4.326,4.619-8.051,4.617
		c-68.49-0.044-136.979-0.037-205.467-0.022c-2.221,0-4.357-0.037-5.867-2.013c0-39.667,0-79.333,0-119
		C1.981,566.771,4.642,567.543,7.051,567.541z"/>
	<path fill="#11123B" d="M506.074,506.457c-21.586-16.158-42.543-33.143-64.263-49.132c-1.27-0.936-2.33-2.365-4.221-2.158
		c-1.578,3.837,1.217,8.556-2.617,11.792c-6.664-0.001-13.328-0.001-19.991-0.002c0.005-42.866,0.011-85.732,0.022-128.597
		c0-2.163,0.105-4.335-1.02-6.313c2.662,0.079,5.326,0.227,7.987,0.227c177.816,0.011,355.634,0.007,533.45,0.021
		c7.503,0.001,6.539-0.629,6.541,6.27c0.021,95.657,0.016,191.315,0.008,286.973c0,1.497-0.086,2.993-0.132,4.49
		c-3.239,1.918-6.823,1.225-10.264,1.225c-133.072,0.039-266.146,0.033-399.217,0.029c-2.498,0-4.996,0.025-7.492-0.117
		c-1.867-0.106-3.686-0.303-4.787-2.124c0.843-7.646,1.939-15.268,2.023-22.979c2.689-3.3,6.457-2.175,9.809-2.176
		c127.629-0.059,255.259-0.048,382.889-0.049c1.999,0,3.999,0.036,5.998-0.02c5.331-0.147,5.947-0.712,5.995-6.19
		c0.086-9.997,0.026-19.994,0.027-29.991c0.002-25.827,0.019-51.652-0.014-77.478c-0.009-5.287-0.3-5.391-4.799-2.744
		c-8.045,4.732-15.612,10.192-23.406,15.307c-6.625,4.348-8.229,4.237-13.788-1.262c-8.529-8.438-17.042-16.891-25.428-25.469
		c-2.85-2.915-5.027-3.233-8.446-0.487c-20.491,16.456-40.651,33.321-61.277,49.61c-5.325,4.205-7.63,4.396-12.718,0.171
		c-6.144-5.103-12.341-10.137-18.483-15.24c-5.363-4.456-5.934-4.513-11.518-0.417c-21.204,15.55-42.269,31.291-63.51,46.789
		c-5.806,4.236-8.969,3.686-12.716-2.283c-12.834-20.44-26.112-40.599-38.833-61.113c-3.464-5.585-4.099-5.913-9.845-2.938
		c-14.351,7.427-29.147,13.934-43.58,21.195c-5.604,2.819-7.653,2.104-11.675-2.47c-4.616-5.249-9.014-10.683-13.457-16.066
		c-2.718-3.297-5.115-3.451-8.572-1.598c-9.688,5.198-19.742,9.655-29.678,14.352c-2.282,1.078-4.545,2.282-7.02,0.479
		c-5.802-5.176-5.798-5.172-11.328,0.287c-0.93,0.918-1.904,1.791-2.859,2.686C510.343,511.072,508.271,508.103,506.074,506.457z"/>
	<path fill="#11123B" d="M934.034,751.157c-4.332,0.014-6.195-0.896-6.145-5.771c0.238-23.325,0.187-46.655,0.033-69.983
		c-0.025-4.09,1.203-5.543,5.392-5.467c12.327,0.222,24.66,0.084,36.991,0.075c6.679-0.004,6.695-0.014,6.699-6.502
		c0.008-19.33,0.146-38.661-0.098-57.986c-0.062-4.85,1.025-6.633,6.308-6.616c60.486,0.185,120.974,0.179,181.46,0.008
		c5.102-0.015,6.459,1.456,6.438,6.485c-0.181,46.322-0.104,92.648-0.108,138.971c-0.001,6.699-0.015,6.711-7.021,6.711
		c-38.159,0.004-76.317,0.002-114.477,0.002C1011.017,751.083,972.524,751.031,934.034,751.157z"/>
	<path fill="#11123B" d="M448.521,503.813c57.394,8.034,98.058,63.721,88.28,121.046c-7.752,45.44-44.676,81.511-89.123,87.056
		c-47.855,5.971-91.988-18.768-111.061-62.297c-1.129-2.577-2.964-5.438-2.609-7.896c0.336-2.306,4.217-1.86,6.377-3.03
		c4.119-2.233,7.074-5.149,6.328-10.234c-0.586-4.004-6.287-8.646-10.461-8.896c-0.916-0.056-1.706,0.05-2.102,0.87
		c-0.502,1.039-0.191,1.96,0.883,2.48c1.644,0.796,3.438,1.351,4.949,2.343c4.288,2.819,4.148,6.798-0.273,9.456
		c-1.127,0.678-2.464,0.992-3.647,1.588c-3.136,1.58-4.545,0.311-5.05-2.838c-0.918-5.743-2.354-11.44-2.813-17.217
		c-4.865-61.335,43.534-113.643,104.893-113.521C438.243,502.948,443.378,503.092,448.521,503.813z"/>
	<path fill="#11123B" d="M962.091,652.006c0.242,4.268-1.158,5.15-5.241,5.146c-140.633-0.109-281.265-0.09-421.896-0.123
		c-1.371,0-2.928,0.586-4.469-0.885c4.584-8.521,7-17.845,9.594-27.106c138.479-0.005,276.955-0.011,415.434-0.013
		c2.158,0,4.354-0.202,6.326,1C961.89,637.355,961.677,644.697,962.091,652.006z"/>
	<path fill="#11123B" d="M1126.562,432.645c3.164,0,6.345,0.199,9.49-0.054c3.531-0.284,4.574,0.966,4.364,4.521
		c-0.921,15.611-6.625,29.157-17.497,40.303c-14.072,14.426-28.502,28.504-42.636,42.87c-2.212,2.248-3.324,2.066-5.432-0.076
		c-14.141-14.361-28.513-28.493-42.632-42.874c-9.894-10.076-15.713-22.351-17.092-36.354
		c-4.211-42.776,32.051-76.248,74.339-68.883c25.376,4.42,46.79,26.691,50.443,52.3c0.483,3.382-0.138,4.815-3.946,4.621
		c-5.98-0.305-11.994-0.246-17.981-0.015c-3.314,0.128-4.692-0.473-5.343-4.297c-3.176-18.627-19.047-30.987-37.734-29.95
		c-17.789,0.987-32.261,15.074-33.785,32.887c-1.51,17.642,10.624,34.356,27.753,38.233c17.92,4.055,35.834-5.726,42.244-22.804
		c1.282-3.416,0.147-8.572,3.587-10.022c3.393-1.43,7.859-0.312,11.855-0.312C1126.56,432.708,1126.56,432.677,1126.562,432.645z"/>
	<path fill="#11123B" d="M217.102,238.012c0.314-1.967,0.51-3.963,0.965-5.898c3.996-16.983,20.985-27.539,38.688-24.087
		c16.444,3.207,28.164,19.823,25.642,36.346c-2.623,17.178-16.526,28.989-33.634,28.578c-16.701-0.402-29.885-13.223-31.643-30.775
		c1.273,0.001,2.549,0.001,3.824,0.001c1.322,16.181,14.221,27.487,30.703,26.914c14.91-0.518,27.324-13.667,27.336-28.954
		c0.01-15.432-12.52-28.555-27.781-29.095c-15.894-0.563-28.92,11.049-30.246,26.967
		C219.671,238.01,218.386,238.012,217.102,238.012z"/>
	<path fill="#11123B" d="M1014.784,258.218c-0.55-0.038-1.813,0.147-2.855-0.248c-4.272-1.618-6.504-0.044-7.451,4.218
		c-0.49,2.208-1.455,3.27-4.222,2.173c-2.809-1.112-2.715-2.551-1.52-4.485c2.499-4.044,1.285-6.538-2.78-8.593
		c-3.271-1.654-5.846-4.383-8.355-7.067c-4.697-5.021-4.595-5.277,1.054-8.893c1.934-1.237,2.979-1.314,4.316,0.768
		c2.169,3.375,5,6.207,8.262,8.6c2.167,1.59,3.629,1.255,4.504-1.332c0.158-0.471,0.354-0.938,0.594-1.37
		c4.28-7.686,5.617-14.115-3.334-20.459c-6.635-4.702-6.775-11.802-3.225-18.924c3.336-6.689,9.424-9.523,18.543-8.587
		c2.929,0.3,6.124,2.219,7.669-2.557c0.514-1.588,2.624,0.004,3.978,0.396c1.375,0.398,2.008,1.217,1.259,2.591
		c-1.74,3.189,0.48,4.355,2.678,5.811c2.066,1.369,3.993,3.006,5.771,4.738c4.579,4.459,4.44,4.411-0.459,8.32
		c-2.006,1.602-2.982,1.558-4.77-0.413c-7.646-8.431-7.445-8.228-11.969,2.085c-2.289,5.221-2.697,8.712,2.687,12.429
		c5.126,3.538,8.836,8.767,8.009,15.692C1032.007,252.815,1025.375,258.362,1014.784,258.218z"/>
	<path fill="#11123B" d="M1200.81,313.281c-0.121,3.418-2.375,5.625-5.844,5.527c-3.468-0.097-5.58-2.39-5.506-5.844
		c0.075-3.495,2.399-5.271,5.786-5.629C1198.675,307.895,1200.931,309.813,1200.81,313.281z"/>
	<path fill="#11123B" d="M858.768,301.167c3.033-0.078,5.041,1.859,5.102,4.871c0.062,2.984-1.703,4.968-4.869,5.041
		c-3.164,0.074-4.76-1.76-5.137-4.782C854.056,303.165,855.756,301.245,858.768,301.167z"/>
	<path fill="#11123B" d="M930.049,301.172c2.986,0.007,4.949,1.801,4.955,4.96c0.005,3.14-1.8,4.892-4.914,4.941
		c-3.187,0.052-4.648-1.94-5.116-4.867C925.366,303.16,927.019,301.165,930.049,301.172z"/>
	<path fill="#11123B" d="M889.527,306.224c-0.07-3.093,1.918-5.069,4.993-5.072c2.816-0.001,4.756,1.825,4.884,4.688
		c0.136,3.059-1.512,4.984-4.529,5.282C891.407,311.104,889.596,309.262,889.527,306.224z"/>
	<path fill="#F79647" d="M26.284,628.709c0.144-13.18,9.902-23.564,22.193-23.624c12.525-0.059,22.418,10.652,22.176,24.012
		c-0.238,13.286-9.926,23.327-22.414,23.233C35.708,652.236,26.14,641.943,26.284,628.709z"/>
	<path fill="#E15C25" d="M431.991,519.245c0.016,27.099,0.045,54.198-0.027,81.297c-0.012,4.731-1.641,6.416-6.27,6.431
		c-26.935,0.084-53.865,0.047-80.799,0.029c-2.016-0.001-4.066,0.014-5.115-2.229c1.894-49.869,39.842-87.84,90.285-90.344
		C431.929,515.547,431.991,517.38,431.991,519.245z"/>
	<path fill="#FBFAF7" d="M432.822,512.816c1.963,0.727,1.201,2.545,1.203,3.901c0.043,28.785-0.082,57.57,0.147,86.353
		c0.037,4.753-1.473,5.813-5.934,5.787c-28.284-0.179-56.569-0.092-84.854-0.093c-1,0-1.997,0.008-2.995-0.039
		c-1.031-0.046-2.039-0.292-2.339-1.438c-0.375-1.428,0.448-2.161,1.729-2.516c28.945,0.057,57.889,0.077,86.832,0.224
		c2.879,0.015,3.696-0.967,3.682-3.734c-0.133-28.942-0.166-57.888-0.229-86.832C430.784,513.538,431.399,512.29,432.822,512.816z"
		/>
	<path fill="#ECF6F0" d="M515.52,607.932c0.039-3.729,4.463-1.807,6.891-1.887c2.148-0.07,6.199-1.557,6.229,1.58
		c0.039,3.896-4.221,1.283-6.342,2.313C519.892,609.104,515.485,611.192,515.52,607.932z"/>
	<path fill="#F1F8F4" d="M433.131,705.367c-3.977-0.023-1.69-4.773-1.957-7.377c-0.198-1.951-1.433-5.703,1.681-5.717
		c3.77-0.017,1.248,3.933,2.375,6.161C433.817,700.611,436.761,705.386,433.131,705.367z"/>
	<path fill="#545BA8" d="M1048.828,714.531c-17.508,0.03-31.83-14.318-31.731-31.795c0.099-17.203,14.375-31.427,31.619-31.498
		c17.449-0.072,31.694,14.301,31.6,31.883C1080.221,700.578,1066.265,714.5,1048.828,714.531z"/>
	<path fill="#F6FBF8" d="M1014.429,249.974c-3.486-0.023-5.584-0.959-3.726-5.033c1.372-3.007,2.55-6.105,3.721-9.198
		c0.992-2.624,2.39-2.945,4.386-1.015c2.894,2.798,4.938,5.877,3.308,10.133C1020.771,248.373,1018.149,250.014,1014.429,249.974z"
		/>
	<path fill="#F9FCFA" d="M1008.375,211.202c0.281-5.396,2.243-8.001,6.064-8.971c1.946-0.493,4.174-0.566,5.686,0.851
		c1.684,1.576,0.099,3.398-0.479,5.022c-0.881,2.485-2.007,4.883-2.889,7.367c-1.307,3.679-3.13,3.209-5.346,0.836
		C1009.676,214.447,1008.266,212.462,1008.375,211.202z"/>
	<path fill="#FCFEFD" d="M1057.722,699.238c-9.016-5.213-17.434-10.102-25.873-14.949c-1.908-1.096-1.312-1.979,0.13-2.811
		c8.313-4.798,16.64-9.575,25.743-14.81C1057.722,677.908,1057.722,688.125,1057.722,699.238z"/>
	<path fill="#11123B" d="M1014.559,246.036c0.823-2.664,1.271-4.858,2.87-6.624C1019.658,243.509,1019.342,244.378,1014.559,246.036
		z"/>
	<path fill="#11123B" d="M1013.311,212.534c-2.115-2.316-1.335-4.259,0.495-6.042c0.638-0.622,2.082-0.668,2.066-0.025
		C1015.821,208.705,1015.066,210.828,1013.311,212.534z"/>
	<path opacity="0.05" fill="#5D5D5D" d="M1413.437,281.573c0,1.56,0,3.069,0,4.581c-0.576,0-1.086,0-1.607,0
		c0-1.555,0-3.047,0-4.581C1412.384,281.573,1412.896,281.573,1413.437,281.573z"/>
	<path opacity="0.05" fill="#5D5D5D" d="M1470.011,413.195c0,1.56,0,3.069,0,4.581c-0.576,0-1.086,0-1.607,0
		c0-1.555,0-3.047,0-4.581C1468.958,413.195,1469.47,413.195,1470.011,413.195z"/>
	<path opacity="0.05" fill="#5D5D5D" d="M1473.247,417.778c-0.578,0-1.087,0-1.604,0c0-1.066,0-2.07,0-3.102
		c0.559,0,1.051,0,1.604,0C1473.247,415.778,1473.247,416.784,1473.247,417.778z"/>
</g>
<g>
	<circle fill-rule="evenodd" clip-rule="evenodd" fill="#FFFFFC" cx="781.534" cy="450.736" r="255.52"/>
	<g>
		<path fill-rule="evenodd" clip-rule="evenodd" fill="#E05C25" d="M985.343,532.648c0.004-0.323-0.119-0.488-0.383-0.643
			c-1.505-0.873-3.131-1.367-4.843-1.613c-1.003-0.144-2.011-0.211-3.021-0.234c-0.33-0.008-0.509-0.112-0.638-0.445
			c-0.654-1.692-1.341-3.373-2.015-5.058c-0.158-0.396-0.158-0.399,0.189-0.663c1.064-0.807,1.947-1.774,2.639-2.918
			c0.819-1.356,1.391-2.824,1.964-4.293c0.091-0.232,0.025-0.374-0.139-0.537c-1.29-1.28-2.577-2.563-3.852-3.859
			c-0.206-0.209-0.377-0.217-0.632-0.116c-0.989,0.388-1.974,0.78-2.934,1.237c-1.685,0.801-3.144,1.88-4.243,3.404
			c-0.163,0.227-0.306,0.248-0.557,0.146c-1.729-0.704-3.461-1.397-5.199-2.077c-0.25-0.098-0.33-0.223-0.344-0.48
			c-0.063-1.094-0.107-2.189-0.275-3.275c-0.259-1.674-0.747-3.268-1.613-4.736c-0.144-0.242-0.295-0.365-0.603-0.361
			c-1.782,0.018-3.565,0.018-5.349,0c-0.306-0.002-0.459,0.115-0.604,0.359c-0.586,0.998-1.005,2.061-1.299,3.176
			c-0.412,1.568-0.512,3.176-0.586,4.785c-0.014,0.303-0.113,0.443-0.394,0.553c-1.707,0.666-3.405,1.354-5.106,2.032
			c-0.382,0.152-0.387,0.152-0.627-0.165c-0.627-0.824-1.344-1.555-2.185-2.162c-1.561-1.125-3.339-1.801-5.112-2.488
			c-0.232-0.092-0.348,0.039-0.483,0.174c-1.283,1.287-2.564,2.575-3.856,3.854c-0.188,0.186-0.215,0.346-0.121,0.587
			c0.395,1.005,0.789,2.008,1.256,2.981c0.791,1.648,1.85,3.08,3.326,4.182c0.355,0.266,0.352,0.271,0.176,0.708
			c-0.655,1.638-1.326,3.269-1.956,4.915c-0.153,0.4-0.37,0.545-0.778,0.551c-1.201,0.018-2.395,0.121-3.578,0.334
			c-1.479,0.268-2.878,0.751-4.185,1.504c-0.264,0.152-0.388,0.317-0.385,0.641c0.017,1.783,0.014,3.566,0.002,5.349
			c-0.002,0.274,0.081,0.432,0.321,0.57c0.984,0.569,2.024,1,3.123,1.292c1.601,0.424,3.24,0.543,4.885,0.605
			c0.284,0.012,0.42,0.098,0.524,0.363c0.674,1.723,1.368,3.437,2.053,5.154c0.146,0.364,0.145,0.369-0.184,0.617
			c-1.091,0.829-1.997,1.822-2.698,3.002c-0.799,1.348-1.367,2.798-1.931,4.252c-0.083,0.211-0.024,0.342,0.128,0.492
			c1.314,1.305,2.623,2.613,3.926,3.93c0.16,0.163,0.296,0.176,0.496,0.098c1.02-0.402,2.04-0.799,3.029-1.275
			c1.678-0.807,3.143-1.883,4.237-3.412c0.166-0.23,0.311-0.236,0.552-0.138c1.729,0.702,3.463,1.394,5.199,2.078
			c0.24,0.095,0.33,0.224,0.343,0.484c0.056,1.095,0.108,2.19,0.274,3.276c0.255,1.676,0.75,3.268,1.613,4.735
			c0.131,0.222,0.26,0.354,0.555,0.351c1.816-0.016,3.634-0.013,5.451-0.002c0.258,0.002,0.396-0.094,0.524-0.31
			c0.771-1.297,1.252-2.697,1.535-4.173c0.243-1.266,0.312-2.549,0.372-3.832c0.014-0.308,0.125-0.444,0.401-0.553
			c1.689-0.662,3.372-1.344,5.057-2.019c0.42-0.168,0.425-0.169,0.698,0.196c1.41,1.893,3.342,3.047,5.493,3.892
			c0.62,0.411,1.284,0.707,2.033,0.786c0.2-0.076,0.328-0.243,0.472-0.387c1.078-1.072,2.153-2.149,3.229-3.225
			c0.757-0.756,0.758-0.756,0.328-1.754c-0.258-0.633-0.439-1.303-0.885-1.845c-0.789-1.846-1.915-3.435-3.537-4.646
			c-0.333-0.248-0.333-0.256-0.188-0.619c0.685-1.719,1.378-3.433,2.053-5.154c0.104-0.263,0.236-0.355,0.523-0.365
			c1.112-0.037,2.224-0.109,3.326-0.282c1.656-0.261,3.229-0.759,4.681-1.615c0.236-0.14,0.329-0.288,0.327-0.567
			C985.329,536.214,985.327,534.431,985.343,532.648z M956.153,544.7c-5.156-0.004-9.385-4.241-9.383-9.402
			c0.002-5.157,4.234-9.395,9.391-9.399c5.176-0.004,9.42,4.25,9.411,9.434C965.563,540.48,961.317,544.704,956.153,544.7z"/>
		<path fill-rule="evenodd" clip-rule="evenodd" fill="#E05C25" d="M985.34,604.389c0.002-0.313-0.099-0.501-0.372-0.652
			c-0.722-0.4-1.462-0.752-2.244-1.014c-1.789-0.596-3.64-0.794-5.511-0.822c-0.428-0.008-0.639-0.148-0.79-0.541
			c-0.643-1.66-1.313-3.311-1.973-4.964c-0.168-0.421-0.169-0.423,0.208-0.712c0.809-0.617,1.524-1.325,2.118-2.154
			c0.743-1.035,1.289-2.177,1.786-3.346c0.038-0.088,0.023-0.242,0.195-0.219c0.101,0.021,0.17-0.035,0.198-0.114
			c0.184-0.519,0.451-1.011,0.495-1.573c-0.099-0.27-0.333-0.428-0.521-0.621c-1.148-1.188-2.37-2.305-3.477-3.533
			c-0.106-0.145-0.223-0.276-0.412-0.311c-0.299-0.018-0.564,0.184-0.869,0.127c-0.765,0.285-1.485,0.68-2.278,0.891
			c-0.083,0.022-0.149,0.082-0.136,0.188c0.047,0.026,0.179,0.025,0.123,0.084c-0.087,0.096-0.23,0.142-0.354,0.202
			c-1.624,0.799-3.036,1.86-4.098,3.345c-0.166,0.231-0.313,0.23-0.557,0.13c-1.553-0.636-3.112-1.255-4.67-1.876
			c-0.893-0.356-0.902-0.354-0.92-1.311c-0.021-1.081-0.138-2.15-0.327-3.213c-0.259-1.445-0.743-2.809-1.464-4.09
			c-0.177-0.314-0.384-0.459-0.768-0.453c-1.714,0.021-3.429,0.016-5.143,0.003c-0.33-0.003-0.53,0.091-0.701,0.388
			c-1.012,1.754-1.508,3.654-1.713,5.654c-0.082,0.801-0.084,1.605-0.168,2.406c-0.023,0.225-0.113,0.322-0.314,0.401
			c-1.75,0.692-3.5,1.39-5.243,2.102c-0.261,0.106-0.388,0.049-0.546-0.165c-0.728-0.99-1.604-1.824-2.637-2.494
			c-1.447-0.939-3.043-1.561-4.641-2.18c-0.26-0.102-0.381,0.033-0.527,0.18c-1.26,1.262-2.516,2.527-3.787,3.777
			c-0.234,0.23-0.261,0.434-0.142,0.727c0.329,0.809,0.647,1.621,1.003,2.419c0.824,1.845,1.924,3.475,3.584,4.675
			c0.225,0.162,0.297,0.313,0.179,0.6c-0.696,1.694-1.375,3.396-2.042,5.102c-0.131,0.336-0.311,0.468-0.68,0.467
			c-1.182-0.007-2.357,0.112-3.523,0.311c-1.516,0.258-2.947,0.75-4.286,1.514c-0.29,0.166-0.398,0.355-0.396,0.694
			c0.019,1.731,0.021,3.463-0.001,5.194c-0.005,0.363,0.126,0.557,0.423,0.727c1.6,0.92,3.334,1.414,5.152,1.636
			c0.934,0.114,1.872,0.195,2.814,0.206c0.214,0.002,0.351,0.062,0.434,0.271c0.698,1.768,1.398,3.535,2.111,5.296
			c0.104,0.258,0.049,0.39-0.167,0.55c-0.971,0.721-1.805,1.576-2.466,2.596c-0.938,1.447-1.573,3.037-2.179,4.641
			c-0.086,0.229-0.04,0.383,0.126,0.549c1.302,1.293,2.6,2.588,3.89,3.893c0.177,0.18,0.321,0.184,0.538,0.093
			c0.773-0.325,1.566-0.604,2.331-0.948c1.271-0.568,2.483-1.234,3.523-2.184c0.51-0.465,0.962-0.977,1.371-1.526
			c0.159-0.214,0.308-0.279,0.558-0.149c0.242,0.125,0.507,0.207,0.761,0.31c1.463,0.585,2.923,1.176,4.391,1.748
			c0.28,0.109,0.374,0.257,0.394,0.561c0.074,1.091,0.113,2.187,0.283,3.271c0.258,1.639,0.756,3.193,1.572,4.644
			c0.165,0.294,0.365,0.388,0.699,0.384c1.748-0.017,3.498-0.014,5.246-0.001c0.311,0.002,0.489-0.093,0.65-0.366
			c1.02-1.732,1.486-3.626,1.715-5.602c0.092-0.783,0.084-1.571,0.157-2.355c0.03-0.321,0.168-0.438,0.427-0.54
			c1.672-0.659,3.341-1.329,5.011-1.995c0.454-0.182,0.456-0.18,0.745,0.2c0.658,0.866,1.427,1.614,2.324,2.233
			c1.525,1.051,3.238,1.699,4.947,2.363c0.224,0.087,0.316-0.043,0.434-0.16c1.273-1.273,2.542-2.55,3.822-3.814
			c0.213-0.209,0.274-0.391,0.152-0.677c-0.312-0.724-0.568-1.47-0.886-2.19c-0.682-1.546-1.509-3-2.767-4.167
			c-0.328-0.304-0.664-0.595-1.027-0.853c-0.17-0.12-0.225-0.244-0.131-0.432c0.039-0.076,0.059-0.161,0.091-0.24
			c0.663-1.652,1.338-3.301,1.983-4.961c0.124-0.319,0.273-0.438,0.625-0.449c1.316-0.043,2.631-0.137,3.927-0.396
			c1.388-0.276,2.701-0.749,3.934-1.45c0.28-0.159,0.405-0.342,0.401-0.688C985.321,607.887,985.326,606.138,985.34,604.389z
			 M956.196,616.414c-5.021,0.061-9.398-4.069-9.431-9.342c-0.029-4.973,3.933-9.441,9.38-9.455c5.421-0.013,9.436,4.387,9.43,9.403
			C965.567,612.42,961.1,616.457,956.196,616.414z"/>
		<path fill-rule="evenodd" clip-rule="evenodd" fill="#DFA490" d="M1012.995,568.342c0.007-0.459,0.007-0.464,0.447-0.578
			c1.311-0.338,2.507-0.914,3.59-1.723c1.257-0.938,2.334-2.066,3.418-3.189c0.195-0.204,0.116-0.359,0.038-0.549
			c-0.688-1.662-1.384-3.32-2.056-4.988c-0.118-0.293-0.283-0.37-0.576-0.373c-0.978-0.008-1.955-0.029-2.932,0.01
			c-1.93,0.076-3.768,0.496-5.43,1.521c-0.258,0.159-0.407,0.123-0.613-0.08c-1.316-1.303-2.642-2.595-3.975-3.881
			c-0.201-0.193-0.248-0.355-0.145-0.627c0.391-1.023,0.742-2.063,1.004-3.129c0.386-1.576,0.551-3.168,0.346-4.789
			c-0.046-0.36-0.139-0.615-0.531-0.771c-1.625-0.642-3.235-1.321-4.846-1.998c-0.265-0.111-0.461-0.101-0.696,0.08
			c-0.916,0.706-1.722,1.518-2.417,2.44c-0.965,1.281-1.685,2.703-2.348,4.154c-0.13,0.285-0.277,0.408-0.607,0.402
			c-1.816-0.031-3.635-0.036-5.451-0.054c-0.459-0.005-0.46-0.011-0.578-0.458c-0.246-0.934-0.601-1.82-1.096-2.65
			c-1.004-1.688-2.418-3.016-3.813-4.359c-0.165-0.158-0.321-0.158-0.513-0.074c-0.36,0.158-0.726,0.308-1.09,0.459
			c-1.297,0.537-2.592,1.082-3.895,1.605c-0.291,0.118-0.438,0.264-0.42,0.597c0.023,0.409-0.008,0.823-0.01,1.233
			c-0.01,1.493,0.014,2.982,0.404,4.438c0.022,0.084,0.034,0.169-0.049,0.232c0.22,0.649,0.528,1.263,0.801,1.891
			c0.159,0.163,0.198,0.392,0.316,0.574c0.146,0.226,0.113,0.398-0.078,0.585c-1.356,1.321-2.635,2.719-3.99,4.041
			c-0.049,0.047-0.099,0.1-0.172,0.035c-0.247,0.012-0.455-0.115-0.678-0.192c-0.463-0.159-0.892-0.411-1.376-0.51
			c-0.057,0.142-0.167,0.085-0.257,0.062c-0.265-0.07-0.526-0.154-0.791-0.225c-1.721-0.463-3.463-0.621-5.24-0.396
			c-0.351,0.045-0.494,0.203-0.614,0.498c-0.659,1.616-1.329,3.23-2.011,4.838c-0.123,0.291-0.086,0.496,0.105,0.742
			c0.7,0.897,1.498,1.693,2.407,2.377c1.281,0.963,2.695,1.695,4.153,2.343c0.313,0.14,0.428,0.302,0.419,0.651
			c-0.046,1.816-0.062,3.633-0.089,5.449c-0.006,0.426-0.008,0.43-0.431,0.541c-1.411,0.37-2.687,1.013-3.838,1.907
			c-0.978,0.761-1.849,1.634-2.705,2.522c-0.214,0.221-0.513,0.425-0.594,0.691c-0.083,0.272,0.181,0.566,0.285,0.854
			c0.012,0.031,0.026,0.063,0.04,0.094c0.602,1.456,1.204,2.912,1.804,4.368c0.088,0.213,0.171,0.372,0.464,0.386
			c1.904,0.092,3.799,0.076,5.67-0.354c0.85-0.283,1.692-0.584,2.484-1.01c0.3,0.098,0.527-0.344,0.846-0.113
			c0.117,0.063,0.207,0.15,0.27,0.269c0.689,0.657,1.358,1.335,2.025,2.014s1.383,1.312,1.993,2.045
			c-0.163,0.597-0.35,1.185-0.619,1.743c-0.358,1.074-0.644,2.168-0.788,3.291c-0.143,1.107-0.161,2.219,0.02,3.329
			c0.04,0.245,0.136,0.388,0.374,0.485c1.666,0.678,3.329,1.361,4.985,2.063c0.285,0.121,0.472,0.06,0.693-0.11
			c0.892-0.682,1.673-1.471,2.351-2.363c0.98-1.291,1.728-2.717,2.379-4.193c0.144-0.327,0.327-0.446,0.692-0.438
			c1.799,0.047,3.6,0.062,5.399,0.088c0.442,0.008,0.442,0.008,0.564,0.467c0.274,1.035,0.687,2.01,1.263,2.912
			c1.008,1.576,2.365,2.84,3.699,4.123c0.143,0.137,0.268,0.099,0.418,0.036c1.708-0.712,3.414-1.425,5.127-2.124
			c0.231-0.094,0.305-0.219,0.307-0.457c0.007-0.925,0.021-1.85,0.003-2.776c-0.038-2.024-0.47-3.94-1.532-5.686
			c-0.141-0.231-0.127-0.374,0.064-0.569c1.313-1.329,2.62-2.666,3.914-4.014c0.201-0.209,0.369-0.23,0.627-0.133
			c0.993,0.377,1.998,0.721,3.029,0.979c1.643,0.413,3.303,0.581,4.991,0.351c0.267-0.037,0.48-0.089,0.599-0.383
			c0.676-1.666,1.361-3.33,2.063-4.985c0.118-0.28,0.08-0.468-0.095-0.696c-0.736-0.959-1.594-1.791-2.566-2.506
			c-1.221-0.899-2.561-1.592-3.938-2.209c-0.367-0.164-0.508-0.343-0.496-0.757C1012.958,571.908,1012.969,570.125,1012.995,568.342
			z M992.023,580.553c-5.705,0.004-9.405-4.703-9.39-9.435c0.016-5.101,4.188-9.354,9.428-9.351
			c5.334,0.004,9.398,4.412,9.353,9.415C1001.466,576.099,997.508,580.55,992.023,580.553z"/>
	</g>
	<path fill-rule="evenodd" clip-rule="evenodd" fill="#DEF0EF" d="M785.91,194.884c60.723-0.376,113.28,21.415,160.132,58.837
		c5.883,4.697,4.119,7.785-1.483,10.559c-0.851,0.421-1.906,0.425-2.765,0.835c-4.673,2.237-11.306,5.034-9.941,10.202
		c1.449,5.495,6.568,10.705,13.096,12.298c3.331,0.813,7.555-0.423,7.322,5.132c-0.263,6.321-5.2,4.849-8.619,4.562
		c-7.515-0.629-13.303,1.412-16.759,8.462c-2.277,4.645-6.906,5.83-11.198,6.706c-7.644,1.565-8.004,6.824-5.732,11.979
		c3.469,7.872-0.388,8.199-6.236,7.422c-1.251-0.167-2.413-1.009-3.664-1.175c-11.488-1.531-17.26,5.761-13.501,16.986
		c-0.418,0.514-0.964,1.122-1.514,1.035c-10.35-1.638-15.217,3.906-17.326,13.133c-7.616,4.752-15.023,9.968-24.354,10.907
		c-2.942-0.482-4.611-2.254-5.198-5.123c0.51-8.82,3.743-16.696,8.424-24.062c2.486-2.088,5.975-2.421,8.39-4.617
		c4.135-3.758,4.939-8.311,2.013-13.002c-2.736-4.384-7.126-5.765-11.733-3.48c-4.896,2.43-6.678,6.763-4.797,12.141
		c0.946,2.708,2.974,4.989,3.242,7.995c-1.268,8.751-4.099,16.967-8.418,24.671c-1.686,1.57-3.963,1.971-5.952,2.955
		c-5.014,2.479-6.728,6.652-5.63,11.912c0.881,4.22,3.808,6.729,8.067,6.935c5.164,0.25,8.301-2.636,9.671-7.526
		c0.516-1.836,0.851-3.741,2.033-5.336c7.438-4.826,14.932-9.525,23.891-11.092c5.181,0.784,10.069,2.256,13.98,6.013
		c0.408,7.557,1.378,15.308-6.732,20.001c-11.486,1.99-11.783,2.763-12.498,14.134c-0.678,10.764,2.661,21.886-2.609,32.284
		c-7.067,2.919-14.103,3.046-21.096-0.2c-1.3-14.82-8.713-25.336-19.18-36.228c-7.526-7.833-12.64-17.042-24.213-19.357
		c-7.68-5.489-2.99-12.825-2.928-19.478c5.864-11.036,13.777-20.756,20.34-31.364c10.348-16.721,10.337-18.73-3.146-32.919
		c-0.885-0.93-1.709-1.904-2.427-2.983c-1.591-2.613-1.906-5.461-1.461-8.399c3.192-20.994-1.304-41.005-7.743-60.759
		c-1.859-7.235-5.892-13.513-8.951-20.221C787.157,202.263,784.317,199.123,785.91,194.884z"/>
	<path fill-rule="evenodd" clip-rule="evenodd" fill="#3C3C3C" d="M837.977,434.841c7.199,3.321,14.705,1.251,22.094,1.261
		c5.85-3.461,12.274-1.746,18.475-2.071c3.405-0.129,6.813-0.119,10.217-0.01c6.245-0.168,12.49-0.177,18.736-0.005
		c3.958-0.092,7.917-0.171,11.874,0.005c5.649-0.073,11.298-0.216,16.946,0.144c2.369,0.074,4.508,0.786,6.36,2.291
		c4.871,2.588,5.944,6.803,5.867,12.018c-0.224,14.861-0.079,29.729-0.079,45.005c4.892-1.022,6.598-4.998,9.892-6.684
		c6.2,1.46,8.753,5.892,9.562,11.742c-6.09,6.655-15.338,10.122-19.198,19.028c2.874,5.017,2.6,10.555,2.672,16.037
		c-0.123,13.199,0.302,26.402-0.111,39.597c-0.08,5.204,0.249,10.417-0.087,15.622c-0.034,2.26-0.042,4.523,0,6.785
		c0.663,11.156,2.025,22.314-0.012,33.48c-0.102,3.703-0.036,7.456-3.355,10.086c-4.488,2.404-9.392,1.943-14.188,1.945
		c-102.688,0.039-205.375,0.043-308.061-0.014c-5.389-0.002-11.058,0.861-15.716-3.096c-0.194-4.779-0.392-9.559-0.588-14.338
		c-2.539-3.408-1.914-7.396-2.082-11.243c-0.227-4.45-0.051-8.899-0.05-13.354c-0.413-3.99,0.222-7.99-0.187-11.981
		c0.036-11.114-0.244-22.229,0.136-33.339c-0.022-3.426-0.202-6.855-0.055-10.281c0.276-4.418-0.162-8.847,0.133-13.263
		c-0.018-3.725-0.068-7.453,0.073-11.175c0.017-2.057,0.012-4.116,0.081-6.172c0.053-3.021,0.117-6.047,0.592-9.044
		c0.132-0.995,0.364-1.971,0.637-2.935c2.732-9.992-1.676-19.811-0.758-29.766c0.123-1.033,0.352-2.039,0.639-3.034
		c1.793-8.872-0.091-17.91,1.232-26.813c0.253-1.123,0.695-2.154,1.302-3.129c1.498-1.922,3.48-3.051,5.823-3.599
		c11.043-1.284,22.136-0.34,33.201-0.686c3.473,0.442,6.963-0.204,10.438,0.109c7.482,0.327,14.971-0.461,22.45,0.028
		c7.163-0.142,14.331-0.016,21.492-0.043c2.688-0.064,4.974-1.98,7.738-1.738c18.036,3.445,36.231,1.207,54.338,1.482
		c6.316,1.01,6.316,1.01,15.805-4.701c4.018,4.456,9.25,4.867,14.828,5.037C810.713,434.445,824.387,432.695,837.977,434.841z"/>
	<path fill-rule="evenodd" clip-rule="evenodd" fill="#D1D4DD" d="M609.864,638.008c41.155,0.121,82.312,0.316,123.47,0.352
		c67.855,0.059,135.714,0.021,203.57-0.005c3.849-0.002,7.696-0.272,11.543-0.418c1.071,1.308,1.198,2.632,0.076,3.981
		c-0.208,29.758,3.228,27.063-27.201,27.08c-2.548,0-5.097,0.041-7.644,0.064c-12.819,4.386-26.102,2.715-39.229,2.931
		c-18.361,0.304-36.732-0.452-55.08,0.54c-21.417-1.277-42.876-0.125-64.297-0.809c-6.279-0.2-10.524,3.805-15.933,5.16
		c-4.08-4.429-9.38-4.971-14.99-4.953c-18.607,0.058-37.215-0.054-55.819,0.065c-6.168,0.04-12.138-0.569-17.866-2.931
		c-10.218-0.027-20.435-0.099-30.651-0.064c-6.712,0.023-10.023-3.167-9.965-9.924C609.911,652.057,609.864,645.03,609.864,638.008z
		"/>
	<path fill-rule="evenodd" clip-rule="evenodd" fill="#DFF1EF" d="M536.199,533.547c3.842-2.838,0.952-5.92,0.072-8.672
		c-8.181-25.559-11.508-52.012-11.198-78.549c0.333-28.541,5.675-56.615,15.591-83.593c0.609-1.653,1.875-3.067,3.861-6.221
		c1.08,6.315,3.834,9.594,7.802,11.718c4.48,2.396,3.808,6.668,3.233,10.232c-1.686,10.406,4.687,17.665,9.319,25.578
		c1.712,2.925,4.97,4.97,8.216,2.976c3.67-2.254,1.754-5.825,0.113-8.503c-4.592-7.5-11.088-14.385-6.411-25.096
		c5.897,3.775,3.729,10.725,6.845,15.113c0.109,0.155,0.627,0.132,0.894,0.032c0.283-0.105,0.491-0.404,0.729-0.62
		c5.691,5.357,8.135,12.848,12.526,19.061c-0.675,5.196-2.443,10.37,0.884,15.468c1.279,1.958,0.285,4.275-1.055,6.184
		c-7.63,5.07-16.156,8.562-21.589,16.935c-13.77,21.213-8.552,46.808,12.98,60.169c2.721,1.689,5.546,3.215,8.01,5.307
		c2.415,2.439,2.812,4.973,0.344,7.628c-4.034,3.249-9.044,4.626-13.567,6.944c-9.051,4.635-15.716,11.752-21.451,19.922
		c-0.835,0.461-1.73,0.697-2.683,0.727C543.758,543.543,537.205,541.476,536.199,533.547z"/>
	<path fill-rule="evenodd" clip-rule="evenodd" fill="#E05C25" d="M799.326,223.831c8.547,19.813,10.896,40.523,8.891,61.845
		c-0.298,3.165-1.203,6.313,0.333,9.399c0.752,15.333-4.361,29.232-10.564,42.839c-0.943,2.065-2.823,3.388-5.056,4.082
		c-7.796,1.279-15.599,1.223-23.404,0.102c-2.247-0.629-4.248-1.863-5.249-3.908c-6.641-13.575-11.811-27.541-10.541-43.064
		c1.616-5.766-0.043-11.368-0.845-17.014c-1.664-10.452-4.645-20.982,1.889-30.933c2.199-5.633,3.924-11.387,4.495-17.439
		c-0.335-4.136,1.886-6.462,5.51-7.815C776.362,221.34,788.066,218.603,799.326,223.831z"/>
	<path fill-rule="evenodd" clip-rule="evenodd" fill="#DFF1EF" d="M630.938,382.173c7.711,1.725,15.478-0.172,23.221,0.336
		c4.155,0.272,8.364-0.197,12.134,2.12c0.97,2.139-0.739,6.026,2.488,6.391c4.137,0.469,4.016-5.146,7.179-6.602
		c2.175-6.264,8.351-9.575,11.281-15.282c2.577-6.309,8.153-10.291,12.076-15.555c6.17,0.964,7.489-4.718,10.703-7.806
		c9.671,4.027,10.234,3.623,9.926-7.152c6.232-7.048,16.986-9.69,19.677-20.189c2.336-0.285,3.579,1.308,4.488,2.971
		c7.704,14.082,17.145,27.063,25.647,40.649c0.554,2.721-0.019,4.981-2.621,6.41c-3.292,1.383-6.916,1.332-10.306,2.368
		c-10.604,3.239-15.877,9.693-16.604,22.097c-0.391,6.651-2.189,11.107-9.447,12.095c-10.142,1.38-13.405,11.247-20.208,16.772
		c-3.766,0.019-5.34-3.164-7.593-5.289c-9.372-8.846-20.415-13.367-33.259-11.531c-6.697,0.957-12.146-0.111-16.326-5.354
		c-6.417-8.048-16.852-6.888-24.862-11.238C627.568,385.629,627.237,383.118,630.938,382.173z"/>
	<path fill-rule="evenodd" clip-rule="evenodd" fill="#DFF1EF" d="M762.761,224.118c-1.162,1.873-2.324,3.747-3.486,5.622
		c-4.173,1.576-8.005,3.747-12.746,4.135c-5.029,0.41-9.389,2.85-8.966,9.208c0.313,4.681-1.956,6.776-6.407,5.744
		c-4.611-1.067-3.143-4.784-2.788-7.879c0.263-2.285,4.813-4.815,1.463-6.383c-4.546-2.127-10.241-2.179-14.922,0.246
		c-4.056,2.1-0.685,4.841,0.529,7.241c0.78,1.544,0.944,4.025-0.668,4.155c-7.197,0.574-11.925,7.883-19.699,6.799
		c-3.127-0.437-5.754-0.586-5.835-4.662c-0.077-3.813,1.853-5.211,5.361-5.055c5.527,0.25,8.898-2.054,10.455-9.263
		c-10.418,4.856-18.396,4.511-26.288-3.244c-6.168-6.062-17.092-3.349-22.282,3.717c-0.941,1.283-1.98,4.03-0.521,3.895
		c7.481-0.703,7.566,10.79,15.529,8.921c1.882-0.442,3.949,0.593,3.547,3.256c-0.308,2.041-2.107,2.262-3.715,2.269
		c-3.484,0.013-6.969,0.612-10.172-1.857c-7.266-5.603-16.087-7.118-26.914-8.794c11.702-9.83,23.49-16.308,35.591-22.426
		c26.358-13.329,54.495-20.564,83.556-24.45c6.882-0.92,14.142-1.888,20.896,1.466C775.697,208.105,768.087,215.63,762.761,224.118z
		"/>
	<path fill-rule="evenodd" clip-rule="evenodd" fill="#E0F1EF" d="M890.34,351.677c6.695,9.04,20.582,8.598,25.712-1.347
		c5.48-10.627,14.068-16.368,25.267-19.136c2.343-0.58,3.749,0.501,5.021,1.916c3.715,4.136,8.234,7.037,13.07,9.726
		c2.944,1.638,6.211,3.836,1.266,7.904c-3.61,2.968,0.054,4.278,2.637,4.569c3.839,0.431,6.16-1.559,6.399-5.478
		c0.204-3.375,4.018-7.842-2.173-9.537c-4.074-1.115-6.429-4.127-9.079-6.869c-2.177-2.252-3.458-5.229-0.966-7.679
		c2.229-2.194,5.886-2.031,8.01-0.022c4.764,4.506,11.219,7.745,12.256,15.417c0.331,2.451,1.822,4.773,2.928,7.084
		c1.255,2.623,2.515,5.527,6.213,4.953c3.108-0.482,3.925-2.937,4.174-5.688c0.287-3.193,2.001-6.1,4.911-6.46
		c3.81-0.472,4.056,3.424,4.624,6.102c1.489,7.011,5.55,10.293,12.808,10.387c6.198,0.082,14.086,12.337,12.203,18.276
		c-0.554,1.744-1.742,2.912-3.462,2.75c-7.709-0.728-15.53,2.262-23.064-3.694c-6.075-4.801-14.321-8.802-20.132,1.842
		c-0.471,0.866-2.415,1.869-3.06,1.552c-7.866-3.859-16.64-4.669-24.75-7.576c-4.52-1.62-2.027-6.151-2.702-9.367
		c-10.614-3.787-21.185-2.171-31.292,1.393c-9.444,3.33-18.456,4.399-27.73,0.087C887.647,358.903,887.245,355.144,890.34,351.677z"
		/>
	<path fill-rule="evenodd" clip-rule="evenodd" fill="#FFFBF7" d="M891.063,363.273c17.844,1.194,34.325-6.929,51.923-7.604
		c4.517-0.172,5.671,1.788,5.463,5.631c-10.164,3.307-5.865,13.201-5,17.721c2.487,12.981-1.633,25.313-0.734,37.891
		c0.465,6.527,3.467,13.029-0.036,19.543c-1.894-0.156-3.785-0.311-5.677-0.465c-3.733-3.6-2.87-8.328-2.893-12.712
		c-0.083-16.056-0.142-32.112,0.028-48.17c0.043-4.059,0.942-9.355-5.103-9.584c-6.107-0.23-6.803,4.781-6.791,9.539
		c0.042,16.056,0.097,32.114-0.028,48.17c-0.034,4.385,0.843,9.115-2.946,12.686c-3.743,0.839-7.488,0.883-11.235,0.035
		c-5.433-8.93-1.92-18.713-2.632-28.09c-0.228-2.996-0.412-5.844-3.621-7.213c-2.638-1.128-5.063-0.478-7.165,1.291
		c-2.68,2.257-3.246,5.416-3.377,8.692c-0.202,5.133,0.028,10.27-0.144,15.4c-0.117,3.469,0.388,7.141-2.387,9.998
		c-3.46,0.738-6.918,0.797-10.376-0.016c-3.01-3.856-2.27-8.435-2.331-12.8c-0.161-11.073,0.289-22.162-1.036-33.199
		c5.56-5.134,2.288-13,5.805-18.768C882.759,366.729,886.368,364.301,891.063,363.273z"/>
	<path fill-rule="evenodd" clip-rule="evenodd" fill="#DFF1F0" d="M818.552,671.309c2.286-3.215,5.724-2.311,8.804-2.313
		c28.774-0.022,57.548,0.032,86.323,0.066c-24.008,15.816-50.496,25.383-78.4,31.613c-4.155,0.926-8.224,0.903-12.33,1.332
		c-2.507-1.599-3.197-4.272-4.083-6.838C817.82,687.23,813.584,679.324,818.552,671.309z"/>
	<path fill-rule="evenodd" clip-rule="evenodd" fill="#DFEFEE" d="M650.465,669.066c26.978-0.04,53.96,0.1,80.934-0.248
		c6.368-0.083,8.874,2.146,8.358,8.25c4.497,6.778,1.158,13.405-0.367,20.074c-0.797,2.046-1.869,3.875-3.968,4.857
		C704.862,696.801,676.06,687.07,650.465,669.066z"/>
	<path fill-rule="evenodd" clip-rule="evenodd" fill="#E0F1EF" d="M754.779,247.179c-0.63,10.31-1.259,20.622-1.889,30.931
		c-1.944-5.036-2.498-12.112-10.427-10.344c-7.456,1.665-9.849,7.349-8.796,14.731c0.731,5.147-1.081,8.524-6.665,9.818
		c-4.595,1.066-7.565,4.503-9.843,8.656c-1.019,1.861-2.619,4.014-5.297,3.42c-2.642-0.584-3.346-2.897-3.246-5.25
		c0.229-5.365-2.702-6.916-7.524-7.935c-5.111-1.077-11.152-2.035-11.854-9.265c-0.689-7.126,4.901-8.896,9.59-11.676
		c4.968-2.944,9.675-6.244,15.334-7.927c2.95-0.876,5.529-1.757,7.785,1.109c3.716,4.726,7.406,1.808,9.562-1.04
		C737.538,254.456,745.554,250.008,754.779,247.179z"/>
	<path fill-rule="evenodd" clip-rule="evenodd" fill="#E05C25" d="M967.92,498.536c-3.188-3.913-6.377-7.827-9.563-11.74
		c-3.293-10.584-5.595-21.112-1.105-32.056c8.048-19.618,30.096-28.895,49.707-20.68c18.998,7.959,27.83,30.065,19.676,49.252
		c-8.291,19.511-30.676,28.179-50.063,19.365C973.66,501.355,970.802,499.919,967.92,498.536z"/>
	<path fill-rule="evenodd" clip-rule="evenodd" fill="#E05C25" d="M609.165,613.195c0.918,3.486,0.928,6.982,0.115,10.482
		c-21.423,4.049-39.593-1.833-53.299-18.846c-13.697-17-15.53-36.035-7.26-56.131c0.847-0.544,1.771-0.76,2.774-0.659
		c3.523,0.864,6.399,2.522,7.617,6.219c0.506,5.772-1.032,11.415-0.972,17.201c0.242,23.315,18.681,41.128,42.086,40.381
		C603.268,611.746,606.604,610.008,609.165,613.195z"/>
	<path fill-rule="evenodd" clip-rule="evenodd" fill="#383533" d="M768.392,360.945c-10.932-10.174-17.165-23.613-24.975-35.956
		c-1.35-2.131-2.534-4.367-3.795-6.555c-1.729-11.661,6.408-17.349,14.11-23.306c4.61,15.026,5.349,31.293,14.396,44.897
		c4.968,6.228,3.335,12.963,1.518,19.714C769.232,360.144,768.812,360.545,768.392,360.945z"/>
	<path fill-rule="evenodd" clip-rule="evenodd" fill="#5B5C54" d="M630.938,382.173c-0.626,1.929-1.249,3.858-1.873,5.788
		c-2.486,3.359-5.136,5.259-8.482,0.96c-0.746-3.685,1.419-6.854,1.873-10.342c1.407-10.835-5.554-20.999-15.337-22.273
		c-10.086-1.311-19.631,6.042-21.511,16.57c-3.207,17.963,1.459,25.72,19.187,31.87c2.956,6.869-2.7,6.248-6.385,7.37
		c-4.541,0.063-8.893-0.352-11.542-4.82c-6.492-4.878-9.194-12.025-11.602-19.354c0.323-4.777,0.2-9.633,1.047-14.316
		c3.133-17.322,14.847-26.184,32.024-24.614c14.191,1.298,21.966,11.065,22.553,28.357
		C630.944,378.97,630.922,380.573,630.938,382.173z"/>
	<path fill-rule="evenodd" clip-rule="evenodd" fill="#353333" d="M762.761,224.118c1.617-10.051,9.002-17.669,11.519-27.339
		c2.134-2.324,4.268-4.648,6.651-7.247c1.679,1.803,3.328,3.577,4.979,5.352c4.347,9.707,10.746,18.463,13.416,28.947
		C787.139,223.927,774.948,224.022,762.761,224.118z"/>
	<path fill-rule="evenodd" clip-rule="evenodd" fill="#F29C23" d="M891.063,363.273c-2.6,3.73-5.986,6.449-10.293,7.976
		c-4.944,0.232-8.634-2.942-12.832-4.73c-1.354-1.545-2.217-3.239-1.612-5.372c1.839-13.694,6.766-16.969,20.234-13.459
		c1.261,1.328,2.519,2.659,3.779,3.987C890.582,355.541,890.821,359.407,891.063,363.273z"/>
	<path fill-rule="evenodd" clip-rule="evenodd" fill="#D4D7DF" d="M735.422,702c0.601-1.351,1.203-2.701,1.807-4.051
		c4.643,3.947,10.021,5.031,16.05,4.955c17.328-0.228,34.665-0.293,51.989,0.027c6.597,0.121,11.952-1.34,15.791-6.912
		c1.998,1.564,1.537,3.902,1.887,5.986c-1.346,8.32,7.127,3.864,9.52,7.318c-34.894,1.932-69.787,2.098-104.679-0.057
		C730.191,706.699,736.942,708.697,735.422,702z"/>
	<path fill-rule="evenodd" clip-rule="evenodd" fill="#92959B" d="M727.786,709.268c34.894,0.02,69.785,0.038,104.679,0.057
		c0.76,0.611,3.377,0.184,1.961,1.824c-0.878,1.016-3.545,0.635-5.409,0.637c-34.05,0.021-68.099,0.013-102.147-0.044
		c-1.045-0.002-2.515,0.685-3.426-1.63C724.995,709.809,726.39,709.538,727.786,709.268z"/>
	<path fill-rule="evenodd" clip-rule="evenodd" fill="#E05C25" d="M699.316,353.582c0.299,8.543-7.705,10.639-12.076,15.555
		c-4.925-4.533-0.305-6.413,2.479-8.715c1.981-1.638,4.558-3.161,2.911-6.15c-1.623-2.944-4.204-2.252-6.519-0.624
		c-1.554,1.094-3.128,1.194-4.044-0.435c-1.239-2.199,0.508-3.806,2.132-4.567C690.662,345.613,695.923,346.902,699.316,353.582z"/>
	<path fill-rule="evenodd" clip-rule="evenodd" fill="#4A4A49" d="M550.058,548.386c-0.453,0.069-0.899,0.176-1.336,0.315
		c-4.79-6.362-12.967-1.494-18.52-5.549c-0.986-0.721-3.836,0.468-2.669-2.275c1.51-3.537,3.553-6.845,5.367-10.252
		c1.1,0.976,2.199,1.949,3.299,2.922c5.307,2.927,6.564,10.459,13.337,11.713C551.09,546.072,550.876,547.178,550.058,548.386z"/>
	<path fill-rule="evenodd" clip-rule="evenodd" fill="#3D3C3C" d="M698.772,325.763c2.777,1.582,7.987,0.45,6.989,4.879
		c-0.716,3.184-1.421,8.305-6.016,8.836c-2.485,0.285-5.934-1.132-4.943-5.283C695.528,331.159,694.088,326.945,698.772,325.763z"/>
	<path fill-rule="evenodd" clip-rule="evenodd" fill="#383C3C" d="M675.959,384.418c0.683,4.219-2.305,7.033-4.25,10.058
		c-2.307,3.586-4.178-0.092-6.025-1.141c-5.718-3.249-0.947-5.89,0.608-8.706C669.449,381.595,672.664,381.132,675.959,384.418z"/>
	<path fill-rule="evenodd" clip-rule="evenodd" fill="#3D3D3C" d="M658.794,365.12c4.42-1.217,6.53,1.406,6.164,4.92
		c-0.501,4.833-5.556,4.671-8.891,5.499c-4.806,1.192-3.521-3.407-4.008-5.773C650.708,363.213,656.09,365.939,658.794,365.12z"/>
	<path fill-rule="evenodd" clip-rule="evenodd" fill="#3D3D3B" d="M682.83,333.873c1.568,4.514-1.406,6.187-4.203,6.207
		c-4.813,0.036-5.833-4.924-6.825-8.103c-1.405-4.505,3.73-4.887,6.251-5.236C683.877,325.935,680.704,332.119,682.83,333.873z"/>
	<path fill-rule="evenodd" clip-rule="evenodd" fill="#3C3D3C" d="M668.327,349.148c-1.355,2.311-2.075,5.973-5.337,4.359
		c-2.974-1.474-8.909,0.2-8.301-5.682c0.257-2.474,2.043-6.969,4.675-6.302C662.989,342.446,667.042,344.704,668.327,349.148z"/>
	<path fill-rule="evenodd" clip-rule="evenodd" fill="#393D3D" d="M719.945,338.624c2.098,4.506,8.273,9.219-1.696,12.534
		c-5.875,1.954-7.326-0.786-8.229-5.382C713.538,343.682,715.675,339.674,719.945,338.624z"/>
	<path fill-rule="evenodd" clip-rule="evenodd" fill="#343433" d="M710.45,421.025c4.399-10.413,11.158-18.1,23.216-18.945
		c3.642-0.255,3.765-1.704,3.821-4.788c0.396-21.301,9.087-29.835,29.831-29.722c2.005,0.115,4.066-0.353,5.996,0.575
		c4.822,1.812,8.741,4.873,12.104,8.698c2.838,1.623,5.936,2.464,9.109,3.086c12.069,0.818,20.771,6.275,24.581,18.172
		c0.958,2.997,2.711,4.544,5.479,6.088c12.713,7.088,16.353,15.854,13.388,30.651c-15.443,4.28-31.233,0.518-46.77,2.042
		c-6.459,0.635-9.452-1.83-10.329-7.828c-3.632-1.564-2.609-4.594-2.254-7.356c0.164-1.282,1.062-2.306,1.617-3.452
		c2.519-5.202-1.644-8.286-3.953-11.88c-0.774-1.208-2.438-1.173-3.226,0.097c-2.264,3.648-6.704,6.783-4.505,11.832
		c2.417,5.545,3.751,10.816,0.111,16.273c-2.379,3.175-5.848,2.128-8.936,2.15c-13.205,0.095-26.413-0.053-39.618,0.099
		c-3.747,0.042-7.054-0.218-9.028-3.923C706.981,429.147,707.35,425.16,710.45,421.025z"/>
	<path fill-rule="evenodd" clip-rule="evenodd" fill="#E05C25" d="M874.966,390.017c2.441,2.046,3.938,3.946,3.747,7.859
		c-0.619,12.69-0.317,25.427-0.376,38.142c-6.094,0.029-12.186,0.057-18.271,0.086c-0.075-11.916-0.077-23.832-0.259-35.745
		C859.652,390.302,864.816,386.71,874.966,390.017z"/>
	<path fill-rule="evenodd" clip-rule="evenodd" fill="#383533" d="M793.752,340.014c6.673-10.417,9.377-22.195,11.729-34.102
		c0.729-3.688,0.491-7.666,3.072-10.835c4.558,3.127,8.479,6.922,11.54,11.534c2.22,3.343,3.693,7.133,1.852,10.952
		c-7.534,15.62-16.264,30.5-28.129,43.325c-0.408-0.4-0.816-0.801-1.23-1.198C790.613,352.994,789.44,346.34,793.752,340.014z"/>
	<path fill-rule="evenodd" clip-rule="evenodd" fill="#FFFFFC" d="M909.769,308.907c-0.986-0.081-4.813,1.134-6.607-2.383
		c-1.771-3.467,2.007-4.9,3.634-7.063c1.124-1.497,3.104-2.961,0.686-4.745c-2.187-1.612-4.495-1.442-5.249,1.532
		c-1.291,5.091-6.603,5.818-9.46,9.201c-1.604,1.899-3.974,2.037-6.082,0.402c-2.385-1.848-1.606-4.07-0.259-5.98
		c1.649-2.339,3.224-5.181,5.564-6.487c4.078-2.275,7.538-4.452,8.511-9.494c0.565-2.933,3.12-3.917,5.979-3.711
		c2.982,0.218,4.834,1.913,5.085,4.847c0.444,5.183,3.779,8.624,6.574,12.579c1.617,2.285,5.446,4.529,3.276,8.22
		C919.33,309.378,915.506,309.232,909.769,308.907z"/>
	<path fill-rule="evenodd" clip-rule="evenodd" fill="#F29B22" d="M842.323,342.302c-2.51-3.974-6.633-7.354-5.426-12.792
		c1.287-5.79,4.577-10.019,10.814-10.674c6.538-0.688,11.344,2.316,13.329,8.575c1.849,5.822-0.144,10.896-5.312,14.142
		c-2.347,1.474-5.36,1.886-8.072,2.78C845.388,344.948,843.813,343.735,842.323,342.302z"/>
	<path fill-rule="evenodd" clip-rule="evenodd" fill="#F19C24" d="M844.813,376.977c-0.227,1.89-0.23,3.839-0.724,5.657
		c-1.604,5.915-5.648,9.271-11.706,9.331c-5.945,0.059-10.548-2.7-11.984-8.828c-1.451-6.185,0.357-11.464,6.187-14.567
		c2.168-1.152,4.854-1.324,7.304-1.944c2.11-1.037,3.747-0.119,5.27,1.274c0.685,2.018,1.932,3.405,4.157,3.688
		C844.624,373.16,845.486,374.855,844.813,376.977z"/>
	<path fill-rule="evenodd" clip-rule="evenodd" fill="#F1E380" d="M794.528,379.929c-3.56-0.458-7.844,3.872-10.647-1.604
		c-0.771-4.448,1.518-8.812,0.418-13.244c-0.507-2.043-0.369-4.926-3.282-5.097c-2.27-0.13-2.722,2.285-3.481,3.972
		c-1.031,2.292-1.627,4.894-4.395,5.884c-1.946-0.758-3.893-1.516-5.832-2.271c1.682-1.994,1.281-4.323,1.081-6.621
		c0.002-0.002-0.07,0.357-0.07,0.357c0.49-0.451,1.072-0.961,1.061-1.515c-0.151-7.761,2.751-13.524,11.122-13.958
		c8.573-0.446,11.546,5.457,12.185,12.989c0.087,1.031,0.518,1.786,1.173,2.492c0,0-0.041-0.419-0.041-0.421
		C794.271,367.227,792.07,373.665,794.528,379.929z"/>
	<path fill-rule="evenodd" clip-rule="evenodd" fill="#3D3F38" d="M844.813,376.977c-1.544-1.508-2.383-3.21-1.495-5.391
		c7.668-3.479,15.34-6.958,23.01-10.438c1.404,1.533,2.404,3.186,1.606,5.374C860.229,370.006,852.521,373.491,844.813,376.977z"/>
	<path fill-rule="evenodd" clip-rule="evenodd" fill="#434238" d="M839.159,367.899c-2.145,1.188-3.77,0.217-5.27-1.272
		c2.812-8.11,5.621-16.219,8.434-24.325c2.199-0.435,3.849,0.579,5.334,2.028C844.824,352.187,841.992,360.044,839.159,367.899z"/>
	<path fill-rule="evenodd" clip-rule="evenodd" fill="#FFFFFF" d="M711.02,446.86c4.797,0.249,9.595,0.712,14.393,0.716
		c66.725,0.035,133.45,0.229,200.171-0.258c9.667-0.07,11.421,2.793,11.344,11.812c-0.452,52.86-0.343,105.728-0.076,158.59
		c0.036,7.104-1.148,9.948-9.251,9.925c-98.959-0.299-197.919-0.258-296.876-0.053c-6.852,0.014-9.355-1.199-9.305-8.848
		c0.372-54.15,0.365-108.308-0.004-162.458c-0.053-7.646,2.459-8.898,9.331-8.854c25.746,0.164,51.498-0.32,77.248-0.562
		C709.001,446.67,710.01,446.666,711.02,446.86z"/>
	<path fill-rule="evenodd" clip-rule="evenodd" fill="#F8C169" d="M710.45,421.025c0.212,3.955,0.425,7.912,0.637,11.869
		c-0.194,3.328-2.078,3.992-4.932,3.131c-3.743-1.354-4.868-4.92-6.58-7.935c-3.501-6.171-8.807-10.14-15.318-12.503
		c-11.495-4.175-16.14-1.473-18.502,10.413c-0.561,2.823-1.086,5.679-2.464,8.274c-0.867,1.255-2.241,1.713-3.553,2.266
		c-2.938-0.162-5.876-0.326-8.814-0.49c-1.006-3.134,1.081-5.498,2.072-8.113c3.755-9.897,1.283-19.243-6.844-25.604
		c-6.615-5.176-17.278-5.197-24.134-0.044c-8.857,6.655-11.182,14.776-7.312,25.251c1.063,2.874,3.401,5.652,1.045,8.945
		c-1.362,0.809-2.725,1.617-4.087,2.427c-3.759,1.498-7.615,0.366-11.415,0.362c-17.498-0.022-29.856,11.724-30.37,29.032
		c-0.548,18.356,10.766,30.884,28.563,31.716c3.761,0.176,7.777-0.629,10.946,2.367c0.012,3.299,0.022,6.601,0.034,9.902
		c-7.581,7.557-15.158,3.975-22.735-0.01c-19.088-7.578-30.438-21.455-30.572-42.092c-0.129-19.691,9.459-34.136,28.346-41.575
		c0.83-0.327,1.461-1.164,2.185-1.763c2.025-0.881,3.785-2.744,5.896-2.926c9.21-0.793,9.667-6.07,7.148-13.105
		c2.557-1.018,6.601-0.719,4.891-5.518c-0.216-4.838,3.913-6.975,6.314-10.195c0.841-2.221,6.469-0.161,4.411-4.974
		c1.659-1.597,3.408-2.767,5.74-1.245c3.018,2.706,5.344-0.614,8.016-0.926c11.481,0,21.578,3.192,29.066,12.502
		c1.979,2.457,4.404,3.264,7.69,2.577C684.642,399.12,699.001,406.521,710.45,421.025z"/>
	<path fill-rule="evenodd" clip-rule="evenodd" fill="#F69A1E" d="M609.39,502.391c-11.981,0.857-23.552,1.15-32.932-8.8
		c-10.44-11.077-13.309-30.273-4.383-42.456c8.795-11.999,20.928-18.895,39.59-12.224c0.013,0.538-0.064,1.06-0.236,1.566
		c-1.109,2.452-0.695,5.062-0.582,7.577c0.278,6.182,0.236,11.412-8.605,7.842c-3.521-1.423-6.175,1.459-7.965,4.039
		c-1.813,2.616-1.114,5.496,1.24,7.805c1.364,1.338,2.925,2.506,3.81,4.283c0.772,2.436,0.455,4.574-1.681,6.197
		c-1.088,2.709,0.493,5.841,2.726,4.92c12.759-5.26,10.315,3.955,10.372,10.641c0.022,2.811,0.786,5.752-0.737,8.453L609.39,502.391
		z"/>
	<path fill-rule="evenodd" clip-rule="evenodd" fill="#F59A1E" d="M615.752,436.486c-0.96-2.341-1.817-4.729-2.895-7.012
		c-5.491-11.627-3.016-21.295,7.611-29.475c7.25-5.582,19.809-5.656,26.946-0.157c9.603,7.399,12.636,19.195,7.509,29.7
		c-1.111,2.276-2.656,4.344-4,6.508C639.2,436.195,627.478,436.342,615.752,436.486z"/>
	<path fill-rule="evenodd" clip-rule="evenodd" fill="#E05C25" d="M919.27,435.918c-0.104-21.877-0.232-43.75-0.294-65.626
		c-0.021-7.458,5.708-8.927,11.042-8.688c5.147,0.23,8.013,2.264,7.559,9.747c-1.3,21.481-0.528,43.085-0.574,64.641
		C931.088,436.859,925.177,436.815,919.27,435.918z"/>
	<path fill-rule="evenodd" clip-rule="evenodd" fill="#F9F7F3" d="M609.165,613.195c-28.155,2.768-47.784-9.205-53.23-32.35
		c-2.207-9.378-0.31-18.41,1.855-27.456c0.574-0.853,1.382-1.202,2.396-1.128c4.229,1.279,8.2,2.933,10.283,7.262
		c0.852,2.541,0.079,5.037-0.174,7.564c-1.822,18.263,11.488,32.246,29.861,31.547c3.062-0.117,6.312-1.73,9.191,0.729
		C610.149,603.986,610.305,608.601,609.165,613.195z"/>
	<path fill-rule="evenodd" clip-rule="evenodd" fill="#FBF7F3" d="M609.08,553.066c1.383,11.892,1.275,23.787,0.045,35.682
		c-7.796,6.672-16.103,6.682-24.977,0.028c-8.179-6.132-10.733-15.334-6.736-24.196c4.624-3.037,7.902,0.077,10.982,2.755
		c2.717,2.364,5.398,4.118,9.655,3.999c-4.115-7.619-15.419-3.143-17.694-12.148C587.146,547.764,598.478,545.357,609.08,553.066z"
		/>
	<path fill-rule="evenodd" clip-rule="evenodd" fill="#E05C25" d="M888.709,436.031c0.024-9.598,0.565-19.23-0.083-28.783
		c-0.554-8.159,5.535-10.73,10.499-10.871c4.909-0.138,10.661,2.3,9.446,10.832c-1.34,9.418-0.452,19.151-0.535,28.746
		C901.597,436.904,895.154,436.808,888.709,436.031z"/>
	<path fill-rule="evenodd" clip-rule="evenodd" fill="#F4991F" d="M661.983,434.826c0.705-5.688,1.483-11.371,2.096-17.067
		c0.56-5.198,4.486-5.643,8.361-6.063c14.721-1.6,25.186,5.98,33.721,24.33c-7.464,0.144-14.921,0.289-22.379,0.435
		c-4.552-5.285-9.18-9.004-15.661-2.262C666.798,435.576,664.238,436.711,661.983,434.826z"/>
	<path fill-rule="evenodd" clip-rule="evenodd" fill="#E05C25" d="M551.589,544.896c6.625-15.561,20.181-22.111,35.039-26.969
		c7.702-3.192,15.302-3.291,22.762,0.76c-0.032,3.506-0.064,7.016-0.096,10.522c-1.497,2.387-3.813,1.92-6.043,1.729
		c-15.174-1.309-27.738,3.792-37.69,15.322c-1.699,1.967-3.488,3.81-6.242,4.238C555.989,549.671,551.887,549.899,551.589,544.896z"
		/>
	<path fill-rule="evenodd" clip-rule="evenodd" fill="#F9F5F1" d="M559.971,549.236c12.343-16.774,28.52-24.102,49.326-20.022
		c0.074,4.416,0.153,8.836,0.23,13.256c-2.524,1.833-5.449,1.491-8.229,1.243c-11.283-1.006-20.308,3.182-27.579,11.621
		c-4.875,2.672-8.331-0.98-12.215-2.734C560.474,551.717,558.879,551.09,559.971,549.236z"/>
	<path fill-rule="evenodd" clip-rule="evenodd" fill="#E05C25" d="M578.587,564.033c-3.695,20.671,9.703,31.504,30.542,24.705
		c1.115,3.526,0.949,7.071,0.22,10.627c-12.199,4.213-23.284,2.639-32.727-6.588c-9.77-9.549-11.362-20.903-6.969-33.456
		c0.317-0.299,0.635-0.599,0.95-0.903c3.286-0.146,5.92,1.297,8.286,3.399C579.421,562.639,579.318,563.38,578.587,564.033z"/>
	<path fill-rule="evenodd" clip-rule="evenodd" fill="#8A5021" d="M610.006,502.234c-0.172-4.779-0.416-9.559-0.491-14.337
		c-0.047-2.979-1.993-6.378-4.091-4.11c-5.061,5.465-8.103,0.143-11.835-1.016c-1.888-0.586-5.059-1.25-3.941-4.281
		c1.419-3.854,4.285-0.754,6.522-0.712c7.3,0.121,4.668-2.904,1.892-5.975c-4.687-1.331-7.973-3.615-7.904-9.259
		c0.076-6.16,6.788-6.301,8.889-10.509c0.125-0.249,0.602-0.604,0.687-0.55c18.263,11.57,5.028-10.308,11.698-11.011
		c-0.572,9.638,2.524,19.499-1.799,28.897c-1.649-2.929-3.07-6.129-8.04-6.162c2.874,2.523,6.823,2.718,8.014,6.178
		C609.469,480.341,614.666,491.227,610.006,502.234z"/>
	<path fill-rule="evenodd" clip-rule="evenodd" fill="#E05C25" d="M768.669,434.568c-0.963-5.395,3.817-12.171-4.142-15.994
		c-1.374-0.658,7.49-17.265,9.576-17.843c2.1-0.58,2.774,1.098,3.572,2.356c1.536,2.428,3.078,4.877,4.313,7.46
		c1.639,3.424,6.629,6.835-0.562,10.374c-2.29,1.126-1.065,5.305-0.552,8.133C778.63,438.847,775.306,440.348,768.669,434.568z"/>
	<path fill-rule="evenodd" clip-rule="evenodd" fill="#343433" d="M711.02,446.86c-1.008,0.002-2.017,0.006-3.025,0.01
		c-26.693,0-53.384,0-80.074,0c0-0.569,0-1.14,0-1.708c75.808,0,151.615,0,228.034,0c-3.766,2.078-7.264,1.088-10.579,1.109
		C800.589,446.527,755.805,446.682,711.02,446.86z"/>
	<path fill-rule="evenodd" clip-rule="evenodd" fill="#E05C25" d="M572.348,555.025c8.838-13.17,19.157-16.654,37.18-12.556
		c-0.148,3.533-0.296,7.067-0.445,10.599c-10.829-3.246-20.938-3.66-28.197,7.152c-0.317,0.321-0.633,0.641-0.948,0.961
		c-2.74-0.472-5.206-1.49-7.162-3.548C572.307,556.817,572.166,555.948,572.348,555.025z"/>
	<path fill-rule="evenodd" clip-rule="evenodd" fill="#8F5422" d="M661.983,434.826c4.038,0.977,5.229-2.896,7.615-4.615
		c7.409-5.336,11.801-3.482,14.182,6.249c-8.012,0.026-16.025,0.056-24.04,0.081C660.487,435.969,661.235,435.398,661.983,434.826z"
		/>
	<path fill-rule="evenodd" clip-rule="evenodd" fill="#F2DBC0" d="M609.39,518.688c-7.541-1.626-15.174-0.561-22.762-0.76
		c1.294-1.869,1.124-3.754,0.061-5.645c7.579,0.162,15.156,3.428,22.735,0.012C609.412,514.424,609.401,516.555,609.39,518.688z"/>
	<path fill-rule="evenodd" clip-rule="evenodd" fill="#83868F" d="M821.059,696.02c1.01,7.706-1.732,10.435-10.037,10.184
		c-21.886-0.662-43.809-0.453-65.708-0.063c-6.447,0.115-8.839-2.045-8.085-8.191c0.841-6.961,1.684-13.921,2.528-20.881
		c1.308-6.177,4.764-8.131,11.316-7.939c19.123,0.559,38.272,0.199,57.41,0.215c3.479,0.002,7.075-0.538,10.07,1.963
		C819.389,679.546,820.224,687.783,821.059,696.02z"/>
	<path fill-rule="evenodd" clip-rule="evenodd" fill="#454648" d="M778.97,649.227c4.004,0.184,6.043,2.483,6.077,6.131
		c0.03,3.293-2.152,5.445-5.378,5.71c-3.793,0.31-6.275-2.027-6.453-5.614C773.04,651.888,775.168,649.48,778.97,649.227z"/>
	<path fill-rule="evenodd" clip-rule="evenodd" fill="#F7F5EF" d="M599.69,410.822c6.651,1.768,3.73,7.104,3.768,11.001
		c0.04,4.173-3.739,3.347-6.462,3.667c-3.456,0.408-6.901,0.906-10.35,1.365c0.606-6.516-6.619-13.118,0.221-19.56
		C591.142,408.471,595.416,409.646,599.69,410.822z"/>
	<path fill-rule="evenodd" clip-rule="evenodd" fill="#733922" d="M559.971,549.236c0.442,0.612,0.885,1.223,1.326,1.833
		c0.558,1.847,0.02,2.677-1.987,2.15c-0.503,0.095-1.006,0.151-1.518,0.17c-2.579-1.669-5.16-3.337-7.738-5.004
		c-0.166-1.043-0.338-2.084-0.514-3.126c0.683-0.12,1.368-0.243,2.05-0.363C553.768,547.529,556.664,548.779,559.971,549.236z"/>
	<path fill-rule="evenodd" clip-rule="evenodd" fill="#FCF6F0" d="M780.608,263.005c-7.039-0.652-11.271-4.694-11.128-11.835
		c0.142-7.062,4.36-11.578,11.666-11.424c7.193,0.149,11.58,4.669,11.459,11.713C792.486,258.457,788.119,262.551,780.608,263.005z"
		/>
	<path fill-rule="evenodd" clip-rule="evenodd" fill="#E9EFE3" d="M793.859,361.312c-0.266-0.178-0.627-0.293-0.785-0.541
		c-3.262-5.07-3.563-13.074-12.105-12.993c-8.723,0.082-9.093,8.384-12.65,13.524c-0.063-7.092-0.125-14.186-0.189-21.277
		c8.541-0.004,17.082-0.007,25.623-0.011C793.788,347.113,793.824,354.213,793.859,361.312z"/>
	<path fill-rule="evenodd" clip-rule="evenodd" fill="#434846" d="M696.054,397.392c0.99,5.078-2.578,4.316-5.329,4.575
		c-3.218,0.303-6.277,0.018-5.176-4.344c0.832-3.292-1.164-8.503,4.755-8.987C697.57,388.041,693.988,394.715,696.054,397.392z"/>
	<path fill-rule="evenodd" clip-rule="evenodd" fill="#393E3D" d="M718.878,387.761c-2.224,3.674-4.671,7.126-7.447,6.568
		c-3.745-0.756-5.659-5.277-6.504-8.706c-0.612-2.486,2.688-5.665,5.505-4.535C713.663,382.387,716.161,385.512,718.878,387.761z"/>
	<path fill-rule="evenodd" clip-rule="evenodd" fill="#3B3F3F" d="M722.568,363.048c3.828-0.2,6.857-0.138,5.714,4.388
		c-0.621,2.46,0.456,6.788-3.893,6.049c-2.976-0.506-7.915-0.004-8.091-4.896C716.147,364.366,718.676,362.022,722.568,363.048z"/>
	<path fill-rule="evenodd" clip-rule="evenodd" fill="#F5FAFA" d="M992.158,499.222c-17.313,0.002-30.797-13.305-30.847-30.441
		c-0.051-17.356,14.097-31.454,31.389-31.278c16.568,0.17,30.729,14.71,30.489,31.307
		C1022.939,485.917,1009.369,499.22,992.158,499.222z"/>
	<path fill-rule="evenodd" clip-rule="evenodd" fill="#F8F7F4" d="M621.047,388.891c-1.563,0.68-3.123,1.36-4.687,2.042
		c-4.98,0.284-4.39-3.711-4.879-6.627c-0.476-2.852,0.006-5.759,0.428-8.62c0.544-3.706,0.429-7.209-3.692-8.891
		c-4.042-1.647-7.566-0.327-10.578,2.485c-4.086,3.815-6.073,15.03-3.595,19.934c2.198,4.348,5.584,4.579,9.743,2.975
		c3.933-1.518,7.676-1.958,8.231,3.923c-1.801,3.617-4.325,6.649-7.443,9.193c-13.299-0.484-19.782-5.492-21.94-16.95
		c-2.844-15.108,2.621-28.441,13.507-32.959c8.532-3.541,18.628-1.514,23.868,4.792
		C626.187,367.624,626.617,379.517,621.047,388.891z"/>
	<path fill-rule="evenodd" clip-rule="evenodd" fill="#E97635" d="M773.141,369.84c0.472-1.175,0.971-2.341,1.409-3.528
		c1.538-4.165,0.699-11.306,7.362-10.14c5.604,0.982,4.811,7.67,5.198,12.26c0.295,3.492-1.047,6.954-3.229,9.894
		C780.3,375.496,776.721,372.668,773.141,369.84z"/>
	<path fill-rule="evenodd" clip-rule="evenodd" fill="#E05C25" d="M890.705,532.887c-0.099,21.938-16.875,39.382-37.872,39.379
		c-21.017-0.004-37.949-18.258-37.735-40.677c0.207-21.921,17.093-39.347,38.053-39.273
		C874.602,492.393,890.809,509.9,890.705,532.887z"/>
	<path fill-rule="evenodd" clip-rule="evenodd" fill="#E05C25" d="M740.305,531.774c0-10.632,0.19-21.265-0.08-31.888
		c-0.136-5.375,1.739-7.412,7.245-7.303c13.846,0.277,27.711,0.406,41.545-0.061c7.946-0.269,6.678,4.758,6.837,9.51
		c0.17,5.082,0.505,9.804-7.015,9.432c-7.064-0.352-14.17,0.138-21.25-0.006c-4.45-0.091-5.24,2.26-5.301,6.039
		c-0.063,3.951,1.847,4.98,5.303,4.9c4.186-0.097,8.461,0.557,12.545-0.088c9.654-1.524,11.563,3.326,10.932,11.541
		c-0.339,4.41-1.742,6.468-6.354,6.268c-5.144-0.221-10.31,0.096-15.457-0.061c-4.588-0.143-7.106,1.041-7.114,6.439
		c-0.008,5.406,2.421,6.492,7.073,6.33c6.757-0.234,13.56,0.375,20.283-0.146c7.21-0.559,7.911,3.369,7.503,8.891
		c-0.356,4.855,1.663,10.607-7.046,10.32c-14.157-0.469-28.347-0.321-42.513-0.035c-5.461,0.109-7.421-1.783-7.275-7.232
		c0.289-10.942,0.085-21.9,0.085-32.851C740.271,531.774,740.287,531.774,740.305,531.774z"/>
	<path fill-rule="evenodd" clip-rule="evenodd" fill="#E05C25" d="M687.064,572.442c-9.834,0.208-19.089-2.229-28.112-5.952
		c-4.398-1.814-5.708-3.917-3.448-8.777c5.762-12.389,5.514-12.539,18.093-7.65c4.86,1.889,9.808,3.121,15.059,2.795
		c2.003-0.125,3.995-0.541,4.438-2.847c0.425-2.21-0.955-3.786-2.861-4.489c-5.731-2.113-11.619-3.813-17.292-6.063
		c-12.32-4.881-16.993-11.283-16.538-22.051c0.501-11.76,7.304-20.6,19.008-23.933c12.474-3.553,24.172-0.329,35.554,4.826
		c2.751,1.245,3.658,2.565,2.537,5.915c-3.864,11.563-6.593,12.982-17.838,9.24c-5.227-1.739-13.363-5.971-15.4,0.476
		c-2.271,7.195,7.298,6.638,12.141,8.53c10.469,4.088,22.247,6.539,24.325,20.359C719.532,561.475,708.472,572.396,687.064,572.442z
		"/>
	<path fill-rule="evenodd" clip-rule="evenodd" fill="#5D5D54" d="M826.69,602.951c-41.264,0.105-82.529,0.197-123.793,0.336
		c-3.868,0.014-7.53-0.514-7.482-5.303c0.049-5.045,4.123-4.883,7.745-4.871c41.264,0.119,82.525,0.242,123.787,0.363
		C829.135,596.695,829.221,599.859,826.69,602.951z"/>
	<path fill-rule="evenodd" clip-rule="evenodd" fill="#E05C25" d="M826.69,602.951c0.083-3.158,0.168-6.318,0.255-9.475
		c9.603-0.161,19.204-0.371,28.807-0.46c3.9-0.038,7.351,1.198,6.984,5.849c-0.327,4.16-3.854,4.549-7.231,4.503
		C845.9,603.242,836.295,603.092,826.69,602.951z"/>
	<path fill-rule="evenodd" clip-rule="evenodd" fill="#5E5D55" d="M612.019,396.111c-2.245-1.935-3.345-4.469-7.757-1.778
		c-7.746,4.722-13.448,0.856-14.22-8.314c-1.088-12.959,5.366-22.749,15.064-22.547c6.532,0.136,11.013,1.984,9.788,10.31
		c-0.826,5.62-3.403,11.831,1.459,17.148C617.621,394.93,613.981,394.819,612.019,396.111z"/>
	<path fill-rule="evenodd" clip-rule="evenodd" fill="#BF7D2C" d="M598.062,471.804c2.256,1.786,7.969,0.319,6.855,4.634
		c-1.045,4.049-5.366,3.501-8.747,1.339C598.419,476.299,598.251,474.055,598.062,471.804z"/>
	<path fill-rule="evenodd" clip-rule="evenodd" fill="#965623" d="M634.467,406.898c1.786,1.311,4.117,2.264,5.18,3.997
		c1.273,2.077-1.483,1.901-2.528,2.774c-3.883,3.242,0.663,3.584,1.918,4.962c3.274,3.59,2.571,6.478-0.72,9.831
		c-3.67,3.742-6.393,1.552-9.405-0.529c-0.259-0.178-0.468-0.426-0.7-0.643c7.962-5.541-3.985-10.227-0.673-15.502
		C629.095,409.311,631.668,408.08,634.467,406.898z"/>
	<path fill-rule="evenodd" clip-rule="evenodd" fill="#756966" d="M559.31,553.22c0.663-0.716,1.326-1.433,1.989-2.149
		c3.751,1.127,6.803,4.225,11.053,3.95c0.295,0.536,0.516,1.098,0.657,1.69c-0.563,1.047-1.651,1.552-2.445,2.359
		c0,0-0.916,0.245-0.914,0.249C566.206,557.288,562.756,555.254,559.31,553.22z"/>
	<path fill-rule="evenodd" clip-rule="evenodd" fill="#765D51" d="M578.587,564.033c-0.109-0.486-0.265-0.961-0.465-1.418
		c0.208-1.1,1.404-1.229,1.954-1.992c0,0,0.811-0.398,0.809-0.4c4.43,5.496,11.932,2.43,17.192,6.227
		c2.613,1.887,5.017,3.193,3.442,6.502c-1.663,3.5-4.196,1.834-7.167,1.102C587.801,572.438,586.165,563.588,578.587,564.033z"/>
	<path fill-rule="evenodd" clip-rule="evenodd" fill="#79351C" d="M580.076,560.623c-0.646,0.663-1.292,1.328-1.946,1.992
		c-2.532-1.186-5.061-2.372-7.575-3.551c-0.806-2.473,1.219-2.006,2.454-2.354C575.363,558.016,577.72,559.319,580.076,560.623z"/>
	<path fill-rule="evenodd" clip-rule="evenodd" fill="#D48D2B" d="M609.605,469.389c-1.79-0.598-3.817-0.847-5.315-1.871
		c-2.587-1.767-7.655-0.477-7.623-5.318c0.018-2.451,2.81-2.028,4.573-1.994c4.259,0.079,8.397,0.537,8.414,6.338
		c0.004,0.945-0.013,1.89-0.022,2.832C609.632,469.373,609.605,469.389,609.605,469.389z"/>
	<path fill-rule="evenodd" clip-rule="evenodd" fill="#BFC6C7" d="M1009.552,470.369c-12.69,2.979-22.64-1.3-34.075-1.239
		C981.707,465.281,996.72,465.879,1009.552,470.369z"/>
	<path fill-rule="evenodd" clip-rule="evenodd" fill="#C0C5C7" d="M982.591,459.844c9.808-2.387,11.264-2.361,18.877-0.154
		C995.537,462.669,993.005,462.77,982.591,459.844z"/>
	<path fill-rule="evenodd" clip-rule="evenodd" fill="#BFC6C8" d="M984.401,477.839c6.086-4.288,11.443,0.739,17.258,0.966
		C995.729,483.002,990.149,478.479,984.401,477.839z"/>
	<path fill-rule="evenodd" clip-rule="evenodd" fill="#FCFAF7" d="M868.957,532.127c0.049,11.92-6.298,20.471-15.419,20.771
		c-9.656,0.317-16.731-8.428-16.661-20.594c0.074-12.424,6.899-21.023,16.522-20.817
		C862.607,511.684,868.906,520.039,868.957,532.127z"/>
	<path fill-rule="evenodd" clip-rule="evenodd" fill="#F5F5F2" d="M607.965,377.007c-0.94,5.17,1.618,12.362-6.332,13.153
		c-4.79,0.478-4.782-4.569-4.368-7.927c0.637-5.189,0.115-12.135,7.299-12.833C610.527,368.825,606.849,374.473,607.965,377.007z"/>
	<path fill-rule="evenodd" clip-rule="evenodd" fill="#B7B4B4" d="M966.09,560.1c0.306,0.18,0.355,0.534,0.543,0.795
		c0.043,0.059,0.016,0.132-0.031,0.187c-0.056,0.063-0.117,0.124-0.176,0.185c-1.284,1.318-2.568,2.637-3.854,3.955
		c-0.095,0.097-0.182,0.222-0.299,0.273c-0.192,0.086-0.111-0.076-0.107-0.158c1.32-1.316,2.637-2.639,3.967-3.947
		c0.224-0.22,0.316-0.415,0.165-0.711C966.205,560.497,966.158,560.293,966.09,560.1z"/>
	<path fill-rule="evenodd" clip-rule="evenodd" fill="#D1CFCE" d="M962.49,591.127c0.154,0.049,0.252,0.171,0.361,0.277
		c1.131,1.107,2.262,2.215,3.389,3.328c0.126,0.123,0.324,0.217,0.269,0.453c-0.124-0.033-0.194-0.135-0.277-0.219
		c-1.158-1.157-2.315-2.316-3.472-3.477C962.652,591.383,962.518,591.294,962.49,591.127z"/>
	<path fill-rule="evenodd" clip-rule="evenodd" fill="#D1CFCE" d="M961.375,590.972c0.148-0.081,0.301-0.155,0.443-0.246
		c0.196-0.126,0.313-0.05,0.402,0.134c-0.209,0.011-0.391,0.108-0.584,0.171C961.537,591.063,961.439,591.094,961.375,590.972z"/>
</g>
</svg>
