<?xml version="1.0" encoding="utf-8"?>
<!-- Generator: Adobe Illustrator 16.0.0, SVG Export Plug-In . SVG Version: 6.00 Build 0)  -->
<!DOCTYPE svg PUBLIC "-//W3C//DTD SVG 1.1//EN" "http://www.w3.org/Graphics/SVG/1.1/DTD/svg11.dtd">
<svg version="1.1" id="Layer_1" xmlns="http://www.w3.org/2000/svg" xmlns:xlink="http://www.w3.org/1999/xlink" x="0px" y="0px"
	 width="512px" height="522.321px" viewBox="0 0 512 522.321" enable-background="new 0 0 512 522.321" xml:space="preserve">
<circle fill-rule="evenodd" clip-rule="evenodd" fill="#FFFFFD" cx="256.48" cy="261.204" r="255.52"/>
<g>
	<path fill-rule="evenodd" clip-rule="evenodd" fill="#E15C25" d="M460.289,343.115c0.004-0.323-0.119-0.488-0.383-0.642
		c-1.505-0.873-3.131-1.368-4.843-1.614c-1.003-0.144-2.011-0.211-3.021-0.235c-0.33-0.008-0.509-0.112-0.638-0.444
		c-0.654-1.693-1.341-3.373-2.015-5.058c-0.158-0.396-0.158-0.4,0.189-0.663c1.064-0.806,1.947-1.774,2.639-2.918
		c0.819-1.356,1.391-2.824,1.964-4.292c0.091-0.233,0.025-0.375-0.139-0.538c-1.29-1.28-2.577-2.563-3.852-3.858
		c-0.206-0.209-0.377-0.217-0.632-0.117c-0.989,0.388-1.974,0.78-2.934,1.237c-1.685,0.802-3.144,1.88-4.243,3.405
		c-0.163,0.226-0.306,0.247-0.557,0.145c-1.729-0.704-3.461-1.398-5.199-2.077c-0.25-0.098-0.33-0.224-0.344-0.48
		c-0.063-1.094-0.107-2.19-0.275-3.276c-0.259-1.674-0.747-3.268-1.613-4.736c-0.144-0.243-0.295-0.365-0.603-0.362
		c-1.782,0.018-3.565,0.017-5.349,0c-0.306-0.003-0.459,0.114-0.604,0.359c-0.586,0.998-1.005,2.06-1.299,3.176
		c-0.412,1.568-0.512,3.176-0.586,4.785c-0.014,0.303-0.113,0.443-0.394,0.552c-1.707,0.667-3.405,1.354-5.106,2.033
		c-0.382,0.152-0.387,0.152-0.627-0.165c-0.627-0.824-1.344-1.556-2.185-2.162c-1.561-1.125-3.339-1.801-5.112-2.489
		c-0.232-0.091-0.348,0.04-0.483,0.175c-1.283,1.286-2.564,2.575-3.856,3.853c-0.188,0.186-0.215,0.347-0.121,0.587
		c0.395,1.004,0.789,2.008,1.256,2.981c0.791,1.648,1.85,3.08,3.326,4.182c0.355,0.265,0.352,0.271,0.176,0.708
		c-0.655,1.637-1.326,3.269-1.956,4.916c-0.153,0.4-0.37,0.545-0.778,0.551c-1.201,0.017-2.395,0.12-3.578,0.334
		c-1.479,0.268-2.878,0.75-4.185,1.504c-0.264,0.152-0.388,0.317-0.385,0.64c0.017,1.783,0.014,3.566,0.002,5.349
		c-0.002,0.274,0.081,0.432,0.321,0.57c0.984,0.569,2.024,1,3.123,1.292c1.601,0.425,3.24,0.543,4.885,0.606
		c0.284,0.011,0.42,0.097,0.524,0.363c0.674,1.722,1.368,3.437,2.053,5.154c0.146,0.365,0.145,0.37-0.184,0.618
		c-1.091,0.829-1.997,1.822-2.698,3.002c-0.799,1.347-1.367,2.797-1.931,4.251c-0.083,0.212-0.024,0.342,0.128,0.493
		c1.314,1.304,2.623,2.613,3.926,3.93c0.16,0.163,0.296,0.176,0.496,0.097c1.02-0.401,2.04-0.799,3.029-1.274
		c1.678-0.808,3.143-1.883,4.237-3.412c0.166-0.231,0.311-0.236,0.552-0.138c1.729,0.702,3.463,1.394,5.199,2.078
		c0.24,0.095,0.33,0.223,0.343,0.484c0.056,1.095,0.108,2.19,0.274,3.276c0.255,1.676,0.75,3.267,1.613,4.735
		c0.131,0.222,0.26,0.354,0.555,0.351c1.816-0.017,3.634-0.013,5.451-0.002c0.258,0.001,0.396-0.093,0.524-0.31
		c0.771-1.297,1.252-2.697,1.535-4.172c0.243-1.266,0.312-2.55,0.372-3.833c0.014-0.308,0.125-0.444,0.401-0.553
		c1.689-0.663,3.372-1.344,5.057-2.019c0.42-0.168,0.425-0.169,0.698,0.197c1.41,1.892,3.342,3.046,5.493,3.891
		c0.62,0.412,1.284,0.707,2.033,0.786c0.2-0.076,0.328-0.243,0.472-0.386c1.078-1.073,2.153-2.149,3.229-3.225
		c0.757-0.756,0.758-0.756,0.328-1.754c-0.258-0.633-0.439-1.302-0.885-1.844c-0.789-1.846-1.915-3.434-3.537-4.646
		c-0.333-0.248-0.333-0.256-0.188-0.62c0.685-1.718,1.378-3.432,2.053-5.154c0.104-0.263,0.236-0.356,0.523-0.365
		c1.112-0.037,2.224-0.109,3.326-0.282c1.656-0.26,3.229-0.758,4.681-1.615c0.236-0.14,0.329-0.289,0.327-0.567
		C460.275,346.681,460.273,344.898,460.289,343.115z M431.1,355.167c-5.156-0.004-9.385-4.241-9.383-9.402
		c0.002-5.158,4.234-9.395,9.391-9.399c5.176-0.005,9.42,4.249,9.411,9.433C440.51,350.948,436.264,355.171,431.1,355.167z"/>
	<path fill-rule="evenodd" clip-rule="evenodd" fill="#E15C25" d="M460.286,414.856c0.002-0.313-0.099-0.501-0.372-0.653
		c-0.722-0.4-1.462-0.752-2.244-1.013c-1.789-0.596-3.64-0.794-5.511-0.823c-0.428-0.007-0.639-0.148-0.79-0.54
		c-0.643-1.661-1.313-3.311-1.973-4.964c-0.168-0.42-0.169-0.423,0.208-0.711c0.809-0.618,1.524-1.326,2.118-2.154
		c0.743-1.036,1.289-2.177,1.786-3.346c0.038-0.089,0.023-0.243,0.195-0.22c0.101,0.022,0.17-0.035,0.198-0.114
		c0.184-0.519,0.451-1.011,0.495-1.573c-0.099-0.27-0.333-0.428-0.521-0.622c-1.148-1.188-2.37-2.304-3.477-3.533
		c-0.106-0.144-0.223-0.276-0.412-0.311c-0.299-0.017-0.564,0.185-0.869,0.128c-0.765,0.285-1.485,0.679-2.278,0.891
		c-0.083,0.022-0.149,0.082-0.136,0.187c0.047,0.027,0.179,0.025,0.123,0.085c-0.087,0.095-0.23,0.141-0.354,0.202
		c-1.624,0.799-3.036,1.86-4.098,3.345c-0.166,0.231-0.313,0.229-0.557,0.129c-1.553-0.636-3.112-1.255-4.67-1.876
		c-0.893-0.356-0.902-0.354-0.92-1.31c-0.021-1.081-0.138-2.151-0.327-3.213c-0.259-1.445-0.743-2.808-1.464-4.089
		c-0.177-0.314-0.384-0.458-0.768-0.454c-1.714,0.022-3.429,0.017-5.143,0.003c-0.33-0.003-0.53,0.091-0.701,0.387
		c-1.012,1.754-1.508,3.655-1.713,5.654c-0.082,0.801-0.084,1.606-0.168,2.406c-0.023,0.226-0.113,0.323-0.314,0.402
		c-1.75,0.692-3.5,1.389-5.243,2.102c-0.261,0.107-0.388,0.049-0.546-0.166c-0.728-0.989-1.604-1.823-2.637-2.494
		c-1.447-0.94-3.043-1.56-4.641-2.18c-0.26-0.101-0.381,0.033-0.527,0.18c-1.26,1.261-2.516,2.527-3.787,3.778
		c-0.234,0.23-0.261,0.433-0.142,0.726c0.329,0.809,0.647,1.621,1.003,2.419c0.824,1.845,1.924,3.475,3.584,4.675
		c0.225,0.163,0.297,0.313,0.179,0.599c-0.696,1.695-1.375,3.396-2.042,5.102c-0.131,0.336-0.311,0.468-0.68,0.466
		c-1.182-0.006-2.357,0.113-3.523,0.311c-1.516,0.257-2.947,0.75-4.286,1.514c-0.29,0.166-0.398,0.355-0.396,0.694
		c0.019,1.731,0.021,3.463-0.001,5.194c-0.005,0.363,0.126,0.556,0.423,0.727c1.6,0.92,3.334,1.414,5.152,1.636
		c0.934,0.114,1.872,0.195,2.814,0.206c0.214,0.002,0.351,0.062,0.434,0.272c0.698,1.768,1.398,3.534,2.111,5.295
		c0.104,0.258,0.049,0.39-0.167,0.55c-0.971,0.721-1.805,1.576-2.466,2.595c-0.938,1.448-1.573,3.037-2.179,4.641
		c-0.086,0.228-0.04,0.383,0.126,0.548c1.302,1.293,2.6,2.588,3.89,3.893c0.177,0.179,0.321,0.183,0.538,0.092
		c0.773-0.325,1.566-0.605,2.331-0.948c1.271-0.569,2.483-1.235,3.523-2.185c0.51-0.465,0.962-0.976,1.371-1.526
		c0.159-0.214,0.308-0.279,0.558-0.149c0.242,0.125,0.507,0.208,0.761,0.31c1.463,0.584,2.923,1.176,4.391,1.748
		c0.28,0.109,0.374,0.257,0.394,0.561c0.074,1.091,0.113,2.187,0.283,3.271c0.258,1.639,0.756,3.192,1.572,4.643
		c0.165,0.293,0.365,0.388,0.699,0.384c1.748-0.017,3.498-0.015,5.246-0.001c0.311,0.002,0.489-0.092,0.65-0.367
		c1.02-1.732,1.486-3.625,1.715-5.601c0.092-0.784,0.084-1.572,0.157-2.356c0.03-0.321,0.168-0.437,0.427-0.54
		c1.672-0.66,3.341-1.33,5.011-1.995c0.454-0.181,0.456-0.18,0.745,0.2c0.658,0.866,1.427,1.614,2.324,2.233
		c1.525,1.051,3.238,1.7,4.947,2.364c0.224,0.087,0.316-0.043,0.434-0.161c1.273-1.272,2.542-2.549,3.822-3.814
		c0.213-0.209,0.274-0.39,0.152-0.676c-0.312-0.723-0.568-1.47-0.886-2.19c-0.682-1.546-1.509-3-2.767-4.167
		c-0.328-0.303-0.664-0.595-1.027-0.853c-0.17-0.12-0.225-0.244-0.131-0.432c0.039-0.076,0.059-0.161,0.091-0.24
		c0.663-1.653,1.338-3.301,1.983-4.96c0.124-0.32,0.273-0.438,0.625-0.45c1.316-0.043,2.631-0.136,3.927-0.396
		c1.388-0.277,2.701-0.75,3.934-1.45c0.28-0.159,0.405-0.341,0.401-0.688C460.268,418.354,460.272,416.605,460.286,414.856z
		 M431.143,426.881c-5.021,0.061-9.398-4.069-9.431-9.342c-0.029-4.973,3.933-9.44,9.38-9.454c5.421-0.013,9.436,4.386,9.43,9.403
		C440.514,422.887,436.046,426.925,431.143,426.881z"/>
	<path fill-rule="evenodd" clip-rule="evenodd" fill="#E0A590" d="M487.941,378.81c0.007-0.46,0.007-0.464,0.447-0.578
		c1.311-0.338,2.507-0.914,3.59-1.724c1.257-0.938,2.334-2.065,3.418-3.189c0.195-0.204,0.116-0.359,0.038-0.549
		c-0.688-1.662-1.384-3.32-2.056-4.988c-0.118-0.293-0.283-0.37-0.576-0.372c-0.978-0.009-1.955-0.03-2.932,0.009
		c-1.93,0.077-3.768,0.497-5.43,1.521c-0.258,0.16-0.407,0.124-0.613-0.08c-1.316-1.302-2.642-2.595-3.975-3.88
		c-0.201-0.194-0.248-0.356-0.145-0.627c0.391-1.024,0.742-2.063,1.004-3.129c0.386-1.577,0.551-3.169,0.346-4.79
		c-0.046-0.36-0.139-0.615-0.531-0.77c-1.625-0.642-3.235-1.321-4.846-1.998c-0.265-0.111-0.461-0.101-0.696,0.08
		c-0.916,0.706-1.722,1.518-2.417,2.44c-0.965,1.282-1.685,2.703-2.348,4.154c-0.13,0.285-0.277,0.409-0.607,0.403
		c-1.816-0.032-3.635-0.037-5.451-0.054c-0.459-0.004-0.46-0.01-0.578-0.458c-0.246-0.933-0.601-1.819-1.096-2.65
		c-1.004-1.688-2.418-3.015-3.813-4.359c-0.165-0.159-0.321-0.158-0.513-0.074c-0.36,0.158-0.726,0.307-1.09,0.458
		c-1.297,0.538-2.592,1.083-3.895,1.606c-0.291,0.118-0.438,0.263-0.42,0.596c0.023,0.41-0.008,0.823-0.01,1.234
		c-0.01,1.493,0.014,2.982,0.404,4.438c0.022,0.084,0.034,0.169-0.049,0.232c0.22,0.65,0.528,1.263,0.801,1.891
		c0.159,0.163,0.198,0.392,0.316,0.574c0.146,0.226,0.113,0.398-0.078,0.584c-1.356,1.322-2.635,2.72-3.99,4.042
		c-0.049,0.046-0.099,0.099-0.172,0.035c-0.247,0.011-0.455-0.116-0.678-0.193c-0.463-0.16-0.892-0.411-1.376-0.51
		c-0.057,0.142-0.167,0.085-0.257,0.061c-0.265-0.07-0.526-0.153-0.791-0.224c-1.721-0.463-3.463-0.621-5.24-0.396
		c-0.351,0.044-0.494,0.203-0.614,0.497c-0.659,1.617-1.329,3.23-2.011,4.838c-0.123,0.291-0.086,0.496,0.105,0.742
		c0.7,0.898,1.498,1.693,2.407,2.377c1.281,0.963,2.695,1.695,4.153,2.343c0.313,0.139,0.428,0.301,0.419,0.651
		c-0.046,1.816-0.062,3.633-0.089,5.449c-0.006,0.426-0.008,0.431-0.431,0.542c-1.411,0.37-2.687,1.013-3.838,1.907
		c-0.978,0.76-1.849,1.634-2.705,2.522c-0.214,0.222-0.513,0.425-0.594,0.692c-0.083,0.272,0.181,0.566,0.285,0.853
		c0.012,0.032,0.026,0.063,0.04,0.095c0.602,1.456,1.204,2.911,1.804,4.368c0.088,0.213,0.171,0.372,0.464,0.385
		c1.904,0.092,3.799,0.076,5.67-0.354c0.85-0.283,1.692-0.583,2.484-1.01c0.3,0.098,0.527-0.344,0.846-0.113
		c0.117,0.063,0.207,0.151,0.27,0.269c0.689,0.657,1.358,1.334,2.025,2.014s1.383,1.311,1.993,2.045
		c-0.163,0.597-0.35,1.185-0.619,1.743c-0.358,1.074-0.644,2.168-0.788,3.291c-0.143,1.108-0.161,2.22,0.02,3.33
		c0.04,0.245,0.136,0.388,0.374,0.485c1.666,0.678,3.329,1.361,4.985,2.064c0.285,0.121,0.472,0.059,0.693-0.111
		c0.892-0.682,1.673-1.471,2.351-2.363c0.98-1.291,1.728-2.716,2.379-4.193c0.144-0.328,0.327-0.447,0.692-0.438
		c1.799,0.046,3.6,0.061,5.399,0.088c0.442,0.007,0.442,0.008,0.564,0.467c0.274,1.034,0.687,2.009,1.263,2.911
		c1.008,1.577,2.365,2.84,3.699,4.124c0.143,0.137,0.268,0.098,0.418,0.036c1.708-0.712,3.414-1.425,5.127-2.124
		c0.231-0.094,0.305-0.22,0.307-0.457c0.007-0.925,0.021-1.851,0.003-2.777c-0.038-2.025-0.47-3.941-1.532-5.686
		c-0.141-0.231-0.127-0.375,0.064-0.569c1.313-1.33,2.62-2.666,3.914-4.014c0.201-0.209,0.369-0.231,0.627-0.133
		c0.993,0.376,1.998,0.72,3.029,0.979c1.643,0.414,3.303,0.581,4.991,0.35c0.267-0.037,0.48-0.088,0.599-0.382
		c0.676-1.667,1.361-3.33,2.063-4.985c0.118-0.28,0.08-0.468-0.095-0.696c-0.736-0.959-1.594-1.792-2.566-2.507
		c-1.221-0.899-2.561-1.591-3.938-2.208c-0.367-0.164-0.508-0.343-0.496-0.757C487.904,382.375,487.915,380.592,487.941,378.81z
		 M466.97,391.021c-5.705,0.004-9.405-4.704-9.39-9.435c0.016-5.1,4.188-9.354,9.428-9.35c5.334,0.004,9.398,4.411,9.353,9.415
		C476.412,386.566,472.454,391.017,466.97,391.021z"/>
</g>
<path fill-rule="evenodd" clip-rule="evenodd" fill="#DEF1F0" d="M260.856,5.352c60.723-0.376,113.28,21.415,160.132,58.837
	c5.883,4.697,4.119,7.785-1.483,10.559c-0.851,0.421-1.906,0.425-2.765,0.835c-4.673,2.237-11.306,5.034-9.941,10.202
	c1.449,5.495,6.568,10.705,13.096,12.298c3.331,0.813,7.555-0.423,7.322,5.132c-0.263,6.321-5.2,4.849-8.619,4.562
	c-7.515-0.629-13.303,1.412-16.759,8.462c-2.277,4.645-6.906,5.83-11.198,6.706c-7.644,1.565-8.004,6.824-5.732,11.979
	c3.469,7.872-0.388,8.199-6.236,7.422c-1.251-0.167-2.413-1.009-3.664-1.175c-11.488-1.531-17.26,5.761-13.501,16.986
	c-0.418,0.514-0.964,1.122-1.514,1.035c-10.35-1.638-15.217,3.906-17.326,13.133c-7.616,4.752-15.023,9.968-24.354,10.907
	c-2.942-0.482-4.611-2.254-5.198-5.123c0.51-8.82,3.743-16.696,8.424-24.062c2.486-2.088,5.975-2.421,8.39-4.617
	c4.135-3.758,4.939-8.311,2.013-13.002c-2.736-4.384-7.126-5.765-11.733-3.48c-4.896,2.43-6.678,6.763-4.797,12.141
	c0.946,2.708,2.974,4.989,3.242,7.995c-1.268,8.751-4.099,16.967-8.418,24.671c-1.686,1.57-3.963,1.971-5.952,2.955
	c-5.014,2.479-6.728,6.652-5.63,11.912c0.881,4.22,3.808,6.729,8.067,6.935c5.164,0.25,8.301-2.636,9.671-7.526
	c0.516-1.836,0.851-3.741,2.033-5.336c7.438-4.826,14.932-9.525,23.891-11.092c5.181,0.784,10.069,2.256,13.98,6.013
	c0.408,7.557,1.378,15.308-6.732,20.001c-11.486,1.99-11.783,2.763-12.498,14.134c-0.678,10.764,2.661,21.886-2.609,32.284
	c-7.067,2.919-14.103,3.046-21.096-0.2c-1.3-14.82-8.713-25.336-19.18-36.228c-7.526-7.833-12.64-17.042-24.213-19.357
	c-7.68-5.489-2.99-12.825-2.928-19.478c5.864-11.036,13.777-20.756,20.34-31.364c10.348-16.721,10.337-18.73-3.146-32.919
	c-0.885-0.93-1.709-1.904-2.427-2.983c-1.591-2.613-1.906-5.461-1.461-8.399c3.192-20.994-1.304-41.005-7.743-60.759
	c-1.859-7.235-5.892-13.513-8.951-20.221C262.104,12.73,259.264,9.59,260.856,5.352z"/>
<path fill-rule="evenodd" clip-rule="evenodd" fill="#3C3C3C" d="M312.923,245.308c7.199,3.322,14.705,1.251,22.094,1.26
	c5.85-3.46,12.274-1.746,18.475-2.071c3.405-0.129,6.813-0.119,10.217-0.01c6.245-0.168,12.49-0.177,18.736-0.005
	c3.958-0.091,7.917-0.17,11.874,0.005c5.649-0.074,11.298-0.215,16.946,0.144c2.369,0.074,4.508,0.786,6.36,2.291
	c4.871,2.589,5.944,6.803,5.867,12.018c-0.224,14.862-0.079,29.729-0.079,45.005c4.892-1.022,6.598-4.998,9.892-6.684
	c6.2,1.46,8.753,5.892,9.562,11.742c-6.09,6.655-15.338,10.123-19.198,19.028c2.874,5.017,2.6,10.555,2.672,16.037
	c-0.123,13.199,0.302,26.402-0.111,39.597c-0.08,5.204,0.249,10.417-0.087,15.622c-0.034,2.26-0.042,4.524,0,6.786
	c0.663,11.156,2.025,22.314-0.012,33.48c-0.102,3.704-0.036,7.457-3.355,10.087c-4.488,2.404-9.392,1.942-14.188,1.944
	c-102.688,0.04-205.375,0.044-308.061-0.013c-5.389-0.001-11.058,0.862-15.716-3.095c-0.194-4.78-0.392-9.56-0.588-14.338
	c-2.539-3.409-1.914-7.396-2.082-11.243c-0.227-4.45-0.051-8.9-0.05-13.354c-0.413-3.991,0.222-7.991-0.187-11.982
	c0.036-11.115-0.244-22.229,0.136-33.338c-0.022-3.426-0.202-6.855-0.055-10.281c0.276-4.418-0.162-8.847,0.133-13.263
	c-0.018-3.725-0.068-7.453,0.073-11.175c0.017-2.056,0.012-4.116,0.081-6.171c0.053-3.021,0.117-6.047,0.592-9.044
	c0.132-0.996,0.364-1.971,0.637-2.935c2.732-9.992-1.676-19.811-0.758-29.765c0.123-1.034,0.352-2.039,0.639-3.035
	c1.793-8.872-0.091-17.91,1.232-26.814c0.253-1.122,0.695-2.154,1.302-3.129c1.498-1.922,3.48-3.05,5.823-3.598
	c11.043-1.285,22.136-0.34,33.201-0.686c3.473,0.442,6.963-0.204,10.438,0.109c7.482,0.327,14.971-0.461,22.45,0.028
	c7.163-0.142,14.331-0.015,21.492-0.043c2.688-0.064,4.974-1.98,7.738-1.738c18.036,3.446,36.231,1.208,54.338,1.483
	c6.316,1.009,6.316,1.009,15.805-4.702c4.018,4.456,9.25,4.868,14.828,5.038C285.659,244.913,299.333,243.163,312.923,245.308z"/>
<path fill-rule="evenodd" clip-rule="evenodd" fill="#D1D5DE" d="M84.811,448.476c41.155,0.121,82.312,0.316,123.47,0.352
	c67.855,0.059,135.714,0.021,203.57-0.005c3.849-0.002,7.696-0.272,11.543-0.418c1.071,1.308,1.198,2.632,0.076,3.981
	c-0.208,29.758,3.228,27.063-27.201,27.08c-2.548,0-5.097,0.042-7.644,0.064c-12.819,4.386-26.102,2.715-39.229,2.931
	c-18.361,0.304-36.732-0.452-55.08,0.541c-21.417-1.277-42.876-0.125-64.297-0.809c-6.279-0.201-10.524,3.804-15.933,5.16
	c-4.08-4.429-9.38-4.971-14.99-4.954c-18.607,0.058-37.215-0.053-55.819,0.066c-6.168,0.04-12.138-0.569-17.866-2.931
	c-10.218-0.027-20.435-0.099-30.651-0.064c-6.712,0.023-10.023-3.167-9.965-9.924C84.857,462.523,84.811,455.498,84.811,448.476z"/>
<path fill-rule="evenodd" clip-rule="evenodd" fill="#DFF1F0" d="M11.146,344.014c3.842-2.838,0.952-5.92,0.072-8.671
	C3.037,309.784-0.29,283.331,0.02,256.793c0.333-28.541,5.675-56.615,15.591-83.593c0.609-1.653,1.875-3.067,3.861-6.221
	c1.08,6.315,3.834,9.594,7.802,11.718c4.48,2.396,3.808,6.668,3.233,10.232c-1.686,10.406,4.687,17.665,9.319,25.578
	c1.712,2.925,4.97,4.97,8.216,2.976c3.67-2.254,1.754-5.826,0.113-8.503c-4.592-7.5-11.088-14.385-6.411-25.096
	c5.897,3.775,3.729,10.725,6.845,15.113c0.109,0.155,0.627,0.132,0.894,0.032c0.283-0.105,0.491-0.404,0.729-0.62
	c5.691,5.357,8.135,12.848,12.526,19.061c-0.675,5.196-2.443,10.37,0.884,15.468c1.279,1.958,0.285,4.274-1.055,6.183
	c-7.63,5.07-16.156,8.562-21.589,16.935c-13.77,21.213-8.552,46.808,12.98,60.169c2.721,1.689,5.546,3.214,8.01,5.306
	c2.415,2.439,2.812,4.974,0.344,7.628c-4.034,3.249-9.044,4.626-13.567,6.944c-9.051,4.635-15.716,11.751-21.451,19.922
	c-0.835,0.461-1.73,0.697-2.683,0.726C18.704,354.01,12.151,351.943,11.146,344.014z"/>
<path fill-rule="evenodd" clip-rule="evenodd" fill="#E15C25" d="M274.272,34.298c8.547,19.813,10.896,40.523,8.891,61.845
	c-0.298,3.165-1.203,6.313,0.333,9.399c0.752,15.333-4.361,29.232-10.564,42.839c-0.943,2.065-2.823,3.388-5.056,4.082
	c-7.796,1.279-15.599,1.223-23.404,0.102c-2.247-0.629-4.248-1.863-5.249-3.908c-6.641-13.575-11.811-27.541-10.541-43.064
	c1.616-5.766-0.043-11.368-0.845-17.014c-1.664-10.452-4.645-20.982,1.889-30.933c2.199-5.633,3.924-11.387,4.495-17.439
	c-0.335-4.136,1.886-6.462,5.51-7.815C251.309,31.808,263.013,29.07,274.272,34.298z"/>
<path fill-rule="evenodd" clip-rule="evenodd" fill="#E0F1EF" d="M105.884,192.641c7.711,1.725,15.478-0.172,23.221,0.336
	c4.155,0.272,8.364-0.197,12.134,2.12c0.97,2.139-0.739,6.026,2.488,6.391c4.137,0.469,4.016-5.146,7.179-6.602
	c2.175-6.264,8.351-9.575,11.281-15.282c2.577-6.309,8.153-10.291,12.076-15.555c6.17,0.964,7.489-4.718,10.703-7.806
	c9.671,4.027,10.234,3.623,9.926-7.152c6.232-7.048,16.986-9.69,19.677-20.189c2.336-0.285,3.579,1.308,4.488,2.971
	c7.704,14.082,17.145,27.063,25.647,40.649c0.554,2.721-0.019,4.981-2.621,6.41c-3.292,1.383-6.916,1.332-10.306,2.368
	c-10.604,3.239-15.877,9.693-16.604,22.097c-0.391,6.651-2.189,11.107-9.447,12.095c-10.142,1.379-13.405,11.247-20.208,16.772
	c-3.766,0.019-5.34-3.164-7.593-5.289c-9.372-8.845-20.415-13.367-33.259-11.531c-6.697,0.957-12.146-0.111-16.326-5.355
	c-6.417-8.048-16.852-6.888-24.862-11.238C102.515,196.097,102.184,193.585,105.884,192.641z"/>
<path fill-rule="evenodd" clip-rule="evenodd" fill="#E0F1EF" d="M237.707,34.585c-1.162,1.873-2.324,3.747-3.486,5.622
	c-4.173,1.576-8.005,3.747-12.746,4.135c-5.029,0.41-9.389,2.85-8.966,9.208c0.313,4.681-1.956,6.776-6.407,5.744
	c-4.611-1.067-3.143-4.784-2.788-7.879c0.263-2.285,4.813-4.815,1.463-6.383c-4.546-2.127-10.241-2.179-14.922,0.246
	c-4.056,2.1-0.685,4.841,0.529,7.241c0.78,1.544,0.944,4.025-0.668,4.155c-7.197,0.574-11.925,7.883-19.699,6.799
	c-3.127-0.437-5.754-0.586-5.835-4.662c-0.077-3.813,1.853-5.211,5.361-5.055c5.527,0.25,8.898-2.054,10.455-9.263
	c-10.418,4.856-18.396,4.511-26.288-3.244c-6.168-6.062-17.092-3.349-22.282,3.717c-0.941,1.283-1.98,4.03-0.521,3.895
	c7.481-0.703,7.566,10.79,15.529,8.921c1.882-0.442,3.949,0.593,3.547,3.256c-0.308,2.041-2.107,2.262-3.715,2.269
	c-3.484,0.013-6.969,0.612-10.172-1.857c-7.266-5.603-16.087-7.118-26.914-8.794c11.702-9.83,23.49-16.308,35.591-22.426
	c26.358-13.329,54.495-20.564,83.556-24.45c6.882-0.92,14.142-1.888,20.896,1.466C250.644,18.573,243.033,26.098,237.707,34.585z"/>
<path fill-rule="evenodd" clip-rule="evenodd" fill="#E0F2F0" d="M365.286,162.144c6.695,9.04,20.582,8.598,25.712-1.347
	c5.48-10.627,14.068-16.368,25.267-19.136c2.343-0.58,3.749,0.501,5.021,1.916c3.715,4.136,8.234,7.037,13.07,9.726
	c2.944,1.638,6.211,3.836,1.266,7.904c-3.61,2.968,0.054,4.278,2.637,4.569c3.839,0.431,6.16-1.559,6.399-5.478
	c0.204-3.375,4.018-7.842-2.173-9.537c-4.074-1.115-6.429-4.127-9.079-6.869c-2.177-2.252-3.458-5.229-0.966-7.679
	c2.229-2.194,5.886-2.031,8.01-0.022c4.764,4.506,11.219,7.745,12.256,15.417c0.331,2.451,1.822,4.773,2.928,7.084
	c1.255,2.623,2.515,5.527,6.213,4.953c3.108-0.482,3.925-2.937,4.174-5.688c0.287-3.193,2.001-6.1,4.911-6.46
	c3.81-0.472,4.056,3.424,4.624,6.102c1.489,7.011,5.55,10.293,12.808,10.387c6.198,0.082,14.086,12.337,12.203,18.276
	c-0.554,1.744-1.742,2.912-3.462,2.75c-7.709-0.728-15.53,2.262-23.064-3.694c-6.075-4.801-14.321-8.802-20.132,1.842
	c-0.471,0.866-2.415,1.869-3.06,1.552c-7.866-3.859-16.64-4.669-24.75-7.576c-4.52-1.62-2.027-6.151-2.702-9.367
	c-10.614-3.787-21.185-2.171-31.292,1.393c-9.444,3.33-18.456,4.399-27.73,0.087C362.594,169.37,362.191,165.611,365.286,162.144z"
	/>
<path fill-rule="evenodd" clip-rule="evenodd" fill="#FEFBF7" d="M366.01,173.741c17.844,1.194,34.325-6.929,51.923-7.604
	c4.517-0.172,5.671,1.788,5.463,5.631c-10.164,3.307-5.865,13.201-5,17.721c2.487,12.981-1.633,25.313-0.734,37.891
	c0.465,6.527,3.467,13.029-0.036,19.542c-1.894-0.155-3.785-0.31-5.677-0.465c-3.733-3.6-2.87-8.328-2.893-12.711
	c-0.083-16.056-0.142-32.112,0.028-48.17c0.043-4.059,0.942-9.355-5.103-9.584c-6.107-0.23-6.803,4.781-6.791,9.539
	c0.042,16.056,0.097,32.114-0.028,48.17c-0.034,4.384,0.843,9.115-2.946,12.685c-3.743,0.839-7.488,0.882-11.235,0.036
	c-5.433-8.93-1.92-18.713-2.632-28.091c-0.228-2.995-0.412-5.843-3.621-7.213c-2.638-1.128-5.063-0.478-7.165,1.291
	c-2.68,2.256-3.246,5.416-3.377,8.692c-0.202,5.132,0.028,10.27-0.144,15.4c-0.117,3.469,0.388,7.141-2.387,9.998
	c-3.46,0.739-6.918,0.797-10.376-0.015c-3.01-3.857-2.27-8.435-2.331-12.8c-0.161-11.073,0.289-22.162-1.036-33.199
	c5.56-5.134,2.288-13,5.805-18.768C357.705,177.197,361.314,174.769,366.01,173.741z"/>
<path fill-rule="evenodd" clip-rule="evenodd" fill="#DFF0F0" d="M293.498,481.776c2.286-3.216,5.724-2.311,8.804-2.313
	c28.774-0.023,57.548,0.032,86.323,0.066c-24.008,15.816-50.496,25.383-78.4,31.613c-4.155,0.926-8.224,0.903-12.33,1.332
	c-2.507-1.599-3.197-4.272-4.083-6.838C292.767,497.698,288.53,489.792,293.498,481.776z"/>
<path fill-rule="evenodd" clip-rule="evenodd" fill="#E0F0EF" d="M125.411,479.534c26.978-0.04,53.96,0.1,80.934-0.248
	c6.368-0.083,8.874,2.146,8.358,8.25c4.497,6.778,1.158,13.405-0.367,20.073c-0.797,2.046-1.869,3.875-3.968,4.858
	C179.809,507.268,151.006,497.538,125.411,479.534z"/>
<path fill-rule="evenodd" clip-rule="evenodd" fill="#E1F1EF" d="M229.726,57.646c-0.63,10.31-1.259,20.622-1.889,30.931
	c-1.944-5.036-2.498-12.112-10.427-10.344c-7.456,1.665-9.849,7.349-8.796,14.731c0.731,5.147-1.081,8.524-6.665,9.818
	c-4.595,1.066-7.565,4.503-9.843,8.656c-1.019,1.861-2.619,4.014-5.297,3.42c-2.642-0.584-3.346-2.897-3.246-5.25
	c0.229-5.365-2.702-6.916-7.524-7.935c-5.111-1.077-11.152-2.035-11.854-9.265c-0.689-7.126,4.901-8.896,9.59-11.676
	c4.968-2.944,9.675-6.244,15.334-7.927c2.95-0.876,5.529-1.757,7.785,1.109c3.716,4.726,7.406,1.808,9.562-1.04
	C212.484,64.923,220.5,60.475,229.726,57.646z"/>
<path fill-rule="evenodd" clip-rule="evenodd" fill="#E15C25" d="M442.866,309.003c-3.188-3.914-6.377-7.827-9.563-11.74
	c-3.293-10.584-5.595-21.113-1.105-32.056c8.048-19.618,30.096-28.894,49.707-20.68c18.998,7.959,27.83,30.065,19.676,49.252
	c-8.291,19.51-30.676,28.178-50.063,19.365C448.606,311.822,445.748,310.386,442.866,309.003z"/>
<path fill-rule="evenodd" clip-rule="evenodd" fill="#E15C25" d="M84.111,423.663c0.918,3.486,0.928,6.982,0.115,10.482
	c-21.423,4.049-39.593-1.833-53.299-18.845c-13.697-17.001-15.53-36.035-7.26-56.131c0.847-0.544,1.771-0.76,2.774-0.66
	c3.523,0.864,6.399,2.522,7.617,6.219c0.506,5.773-1.032,11.415-0.972,17.201c0.242,23.316,18.681,41.127,42.086,40.381
	C78.214,422.214,81.551,420.476,84.111,423.663z"/>
<path fill-rule="evenodd" clip-rule="evenodd" fill="#383534" d="M243.338,171.413c-10.932-10.174-17.165-23.613-24.975-35.956
	c-1.35-2.131-2.534-4.367-3.795-6.555c-1.729-11.661,6.408-17.349,14.11-23.306c4.61,15.026,5.349,31.293,14.396,44.897
	c4.968,6.228,3.335,12.963,1.518,19.714C244.179,170.611,243.758,171.012,243.338,171.413z"/>
<path fill-rule="evenodd" clip-rule="evenodd" fill="#5B5C54" d="M105.884,192.641c-0.626,1.929-1.249,3.858-1.873,5.788
	c-2.486,3.359-5.136,5.259-8.482,0.96c-0.746-3.685,1.419-6.854,1.873-10.342c1.407-10.835-5.554-20.999-15.337-22.273
	c-10.086-1.311-19.631,6.042-21.511,16.57c-3.207,17.963,1.459,25.72,19.187,31.87c2.956,6.869-2.7,6.247-6.385,7.37
	c-4.541,0.063-8.893-0.352-11.542-4.82c-6.492-4.877-9.194-12.025-11.602-19.354c0.323-4.777,0.2-9.633,1.047-14.316
	c3.133-17.322,14.847-26.184,32.024-24.614c14.191,1.298,21.966,11.065,22.553,28.357
	C105.891,189.438,105.868,191.04,105.884,192.641z"/>
<path fill-rule="evenodd" clip-rule="evenodd" fill="#353433" d="M237.707,34.585c1.617-10.051,9.002-17.669,11.519-27.339
	c2.134-2.324,4.268-4.648,6.651-7.247c1.679,1.803,3.328,3.577,4.979,5.352c4.347,9.707,10.746,18.463,13.416,28.947
	C262.085,34.395,249.895,34.489,237.707,34.585z"/>
<path fill-rule="evenodd" clip-rule="evenodd" fill="#F29C24" d="M366.01,173.741c-2.6,3.73-5.986,6.449-10.293,7.976
	c-4.944,0.232-8.634-2.942-12.832-4.73c-1.354-1.545-2.217-3.239-1.612-5.372c1.839-13.694,6.766-16.969,20.234-13.459
	c1.261,1.328,2.519,2.659,3.779,3.987C365.528,166.008,365.768,169.875,366.01,173.741z"/>
<path fill-rule="evenodd" clip-rule="evenodd" fill="#D4D7DF" d="M210.368,512.468c0.601-1.351,1.203-2.702,1.807-4.051
	c4.643,3.947,10.021,5.032,16.05,4.955c17.328-0.227,34.665-0.293,51.989,0.028c6.597,0.121,11.952-1.34,15.791-6.913
	c1.998,1.565,1.537,3.902,1.887,5.986c-1.346,8.32,7.127,3.864,9.52,7.319c-34.894,1.931-69.787,2.097-104.679-0.057
	C205.138,517.167,211.889,519.165,210.368,512.468z"/>
<path fill-rule="evenodd" clip-rule="evenodd" fill="#93969C" d="M202.732,519.735c34.894,0.019,69.785,0.038,104.679,0.057
	c0.76,0.61,3.377,0.183,1.961,1.823c-0.878,1.017-3.545,0.635-5.409,0.637c-34.05,0.021-68.099,0.013-102.147-0.043
	c-1.045-0.002-2.515,0.684-3.426-1.63C199.941,520.275,201.336,520.005,202.732,519.735z"/>
<path fill-rule="evenodd" clip-rule="evenodd" fill="#E15C25" d="M174.263,164.049c0.299,8.543-7.705,10.639-12.076,15.555
	c-4.925-4.533-0.305-6.413,2.479-8.715c1.981-1.638,4.558-3.161,2.911-6.15c-1.623-2.944-4.204-2.252-6.519-0.624
	c-1.554,1.094-3.128,1.194-4.044-0.435c-1.239-2.199,0.508-3.806,2.132-4.567C165.608,156.081,170.869,157.369,174.263,164.049z"/>
<path fill-rule="evenodd" clip-rule="evenodd" fill="#4A4A4A" d="M25.004,358.853c-0.453,0.07-0.899,0.176-1.336,0.316
	c-4.79-6.363-12.967-1.495-18.52-5.55c-0.986-0.72-3.836,0.468-2.669-2.275c1.51-3.537,3.553-6.844,5.367-10.251
	c1.1,0.975,2.199,1.948,3.299,2.921c5.307,2.927,6.564,10.459,13.337,11.713C26.036,356.54,25.822,357.646,25.004,358.853z"/>
<path fill-rule="evenodd" clip-rule="evenodd" fill="#3D3C3C" d="M173.719,136.23c2.777,1.582,7.987,0.45,6.989,4.879
	c-0.716,3.184-1.421,8.305-6.016,8.836c-2.485,0.285-5.934-1.132-4.943-5.283C170.475,141.626,169.034,137.413,173.719,136.23z"/>
<path fill-rule="evenodd" clip-rule="evenodd" fill="#393C3C" d="M150.905,194.886c0.683,4.219-2.305,7.033-4.25,10.058
	c-2.307,3.586-4.178-0.092-6.025-1.141c-5.718-3.249-0.947-5.89,0.608-8.706C144.396,192.063,147.61,191.6,150.905,194.886z"/>
<path fill-rule="evenodd" clip-rule="evenodd" fill="#3D3D3C" d="M133.74,175.587c4.42-1.217,6.53,1.406,6.164,4.92
	c-0.501,4.833-5.556,4.671-8.891,5.499c-4.806,1.192-3.521-3.407-4.008-5.773C125.654,173.68,131.036,176.407,133.74,175.587z"/>
<path fill-rule="evenodd" clip-rule="evenodd" fill="#3D3D3B" d="M157.776,144.34c1.568,4.514-1.406,6.187-4.203,6.207
	c-4.813,0.036-5.833-4.924-6.825-8.103c-1.405-4.505,3.73-4.887,6.251-5.236C158.823,136.402,155.65,142.586,157.776,144.34z"/>
<path fill-rule="evenodd" clip-rule="evenodd" fill="#3D3D3C" d="M143.273,159.616c-1.355,2.311-2.075,5.973-5.337,4.359
	c-2.974-1.474-8.909,0.2-8.301-5.682c0.257-2.474,2.043-6.969,4.675-6.302C137.936,152.914,141.988,155.171,143.273,159.616z"/>
<path fill-rule="evenodd" clip-rule="evenodd" fill="#393E3D" d="M194.892,149.091c2.098,4.506,8.273,9.219-1.696,12.534
	c-5.875,1.954-7.326-0.786-8.229-5.382C188.484,154.149,190.621,150.141,194.892,149.091z"/>
<path fill-rule="evenodd" clip-rule="evenodd" fill="#343433" d="M185.396,231.493c4.399-10.414,11.158-18.101,23.216-18.945
	c3.642-0.255,3.765-1.705,3.821-4.789c0.396-21.301,9.087-29.835,29.831-29.722c2.005,0.115,4.066-0.353,5.996,0.575
	c4.822,1.812,8.741,4.873,12.104,8.698c2.838,1.623,5.936,2.464,9.109,3.086c12.069,0.818,20.771,6.275,24.581,18.172
	c0.958,2.997,2.711,4.544,5.479,6.088c12.713,7.088,16.353,15.854,13.388,30.651c-15.443,4.28-31.233,0.518-46.77,2.042
	c-6.459,0.635-9.452-1.831-10.329-7.829c-3.632-1.564-2.609-4.594-2.254-7.356c0.164-1.283,1.062-2.305,1.617-3.452
	c2.519-5.202-1.644-8.286-3.953-11.88c-0.774-1.208-2.438-1.173-3.226,0.096c-2.264,3.649-6.704,6.784-4.505,11.833
	c2.417,5.544,3.751,10.816,0.111,16.273c-2.379,3.174-5.848,2.127-8.936,2.15c-13.205,0.094-26.413-0.053-39.618,0.098
	c-3.747,0.042-7.054-0.217-9.028-3.923C181.928,239.615,182.296,235.627,185.396,231.493z"/>
<path fill-rule="evenodd" clip-rule="evenodd" fill="#E15C25" d="M349.912,200.484c2.441,2.046,3.938,3.946,3.747,7.859
	c-0.619,12.691-0.317,25.427-0.376,38.142c-6.094,0.028-12.186,0.057-18.271,0.085c-0.075-11.916-0.077-23.832-0.259-35.744
	C334.599,200.77,339.763,197.178,349.912,200.484z"/>
<path fill-rule="evenodd" clip-rule="evenodd" fill="#383533" d="M268.698,150.481c6.673-10.417,9.377-22.195,11.729-34.102
	c0.729-3.688,0.491-7.666,3.072-10.835c4.558,3.127,8.479,6.922,11.54,11.534c2.22,3.343,3.693,7.133,1.852,10.952
	c-7.534,15.62-16.264,30.5-28.129,43.325c-0.408-0.4-0.816-0.801-1.23-1.198C265.56,163.461,264.387,156.808,268.698,150.481z"/>
<path fill-rule="evenodd" clip-rule="evenodd" fill="#FFFFFD" d="M384.715,119.375c-0.986-0.081-4.813,1.134-6.607-2.383
	c-1.771-3.467,2.007-4.9,3.634-7.063c1.124-1.497,3.104-2.961,0.686-4.745c-2.187-1.612-4.495-1.442-5.249,1.532
	c-1.291,5.091-6.603,5.818-9.46,9.201c-1.604,1.899-3.974,2.037-6.082,0.402c-2.385-1.848-1.606-4.07-0.259-5.98
	c1.649-2.339,3.224-5.181,5.564-6.487c4.078-2.275,7.538-4.452,8.511-9.494c0.565-2.933,3.12-3.917,5.979-3.711
	c2.982,0.218,4.834,1.913,5.085,4.847c0.444,5.183,3.779,8.624,6.574,12.579c1.617,2.285,5.446,4.529,3.276,8.22
	C394.276,119.845,390.452,119.7,384.715,119.375z"/>
<path fill-rule="evenodd" clip-rule="evenodd" fill="#F39C23" d="M317.27,152.77c-2.51-3.974-6.633-7.354-5.426-12.792
	c1.287-5.79,4.577-10.019,10.814-10.674c6.538-0.688,11.344,2.316,13.329,8.575c1.849,5.822-0.144,10.896-5.312,14.142
	c-2.347,1.474-5.36,1.886-8.072,2.78C320.334,155.415,318.76,154.202,317.27,152.77z"/>
<path fill-rule="evenodd" clip-rule="evenodd" fill="#F29D25" d="M319.76,187.444c-0.227,1.89-0.23,3.839-0.724,5.657
	c-1.604,5.915-5.648,9.271-11.706,9.331c-5.945,0.059-10.548-2.7-11.984-8.828c-1.451-6.185,0.357-11.464,6.187-14.567
	c2.168-1.152,4.854-1.324,7.304-1.944c2.11-1.037,3.747-0.119,5.27,1.274c0.685,2.018,1.932,3.405,4.157,3.688
	C319.57,183.627,320.433,185.322,319.76,187.444z"/>
<path fill-rule="evenodd" clip-rule="evenodd" fill="#F1E380" d="M269.475,190.396c-3.56-0.458-7.844,3.872-10.647-1.604
	c-0.771-4.448,1.518-8.812,0.418-13.244c-0.507-2.043-0.369-4.926-3.282-5.097c-2.27-0.13-2.722,2.285-3.481,3.972
	c-1.031,2.292-1.627,4.894-4.395,5.884c-1.946-0.758-3.893-1.516-5.832-2.271c1.682-1.994,1.281-4.323,1.081-6.621
	c0.002-0.002-0.07,0.357-0.07,0.357c0.49-0.451,1.072-0.961,1.061-1.515c-0.151-7.761,2.751-13.524,11.122-13.958
	c8.573-0.446,11.546,5.457,12.185,12.989c0.087,1.031,0.518,1.786,1.173,2.492c0,0-0.041-0.419-0.041-0.421
	C269.218,177.694,267.017,184.132,269.475,190.396z"/>
<path fill-rule="evenodd" clip-rule="evenodd" fill="#3D3F38" d="M319.76,187.444c-1.544-1.508-2.383-3.21-1.495-5.391
	c7.668-3.479,15.34-6.958,23.01-10.438c1.404,1.533,2.404,3.186,1.606,5.374C335.175,180.474,327.468,183.958,319.76,187.444z"/>
<path fill-rule="evenodd" clip-rule="evenodd" fill="#434238" d="M314.105,178.367c-2.145,1.188-3.77,0.217-5.27-1.272
	c2.812-8.11,5.621-16.219,8.434-24.325c2.199-0.435,3.849,0.579,5.334,2.028C319.771,162.654,316.938,170.511,314.105,178.367z"/>
<path fill-rule="evenodd" clip-rule="evenodd" fill="#FEFEFE" d="M185.966,257.328c4.797,0.25,9.595,0.712,14.393,0.716
	c66.725,0.034,133.45,0.229,200.171-0.259c9.667-0.07,11.421,2.793,11.344,11.812c-0.452,52.86-0.343,105.728-0.076,158.59
	c0.036,7.105-1.148,9.949-9.251,9.924c-98.959-0.299-197.919-0.257-296.876-0.053c-6.852,0.015-9.355-1.198-9.305-8.848
	c0.372-54.15,0.365-108.307-0.004-162.458c-0.053-7.646,2.459-8.898,9.331-8.855c25.746,0.165,51.498-0.319,77.248-0.561
	C183.947,257.137,184.956,257.133,185.966,257.328z"/>
<path fill-rule="evenodd" clip-rule="evenodd" fill="#F9C269" d="M185.396,231.493c0.212,3.955,0.425,7.912,0.637,11.869
	c-0.194,3.328-2.078,3.993-4.932,3.131c-3.743-1.354-4.868-4.92-6.58-7.935c-3.501-6.171-8.807-10.14-15.318-12.503
	c-11.495-4.174-16.14-1.472-18.502,10.414c-0.561,2.823-1.086,5.678-2.464,8.275c-0.867,1.254-2.241,1.712-3.553,2.266
	c-2.938-0.163-5.876-0.327-8.814-0.491c-1.006-3.133,1.081-5.497,2.072-8.112c3.755-9.898,1.283-19.244-6.844-25.604
	c-6.615-5.175-17.278-5.196-24.134-0.043c-8.857,6.655-11.182,14.777-7.312,25.251c1.063,2.874,3.401,5.652,1.045,8.946
	c-1.362,0.809-2.725,1.617-4.087,2.426c-3.759,1.498-7.615,0.366-11.415,0.363c-17.498-0.023-29.856,11.723-30.37,29.032
	c-0.548,18.356,10.766,30.884,28.563,31.715c3.761,0.176,7.777-0.629,10.946,2.368c0.012,3.299,0.022,6.601,0.034,9.902
	c-7.581,7.557-15.158,3.976-22.735-0.01c-19.088-7.577-30.438-21.455-30.572-42.091c-0.129-19.692,9.459-34.136,28.346-41.576
	c0.83-0.327,1.461-1.164,2.185-1.763c2.025-0.881,3.785-2.744,5.896-2.925c9.21-0.793,9.667-6.071,7.148-13.106
	c2.557-1.017,6.601-0.718,4.891-5.518c-0.216-4.837,3.913-6.975,6.314-10.194c0.841-2.221,6.469-0.161,4.411-4.974
	c1.659-1.597,3.408-2.767,5.74-1.245c3.018,2.706,5.344-0.614,8.016-0.926c11.481,0,21.578,3.192,29.066,12.502
	c1.979,2.457,4.404,3.263,7.69,2.577C159.588,209.587,173.947,216.988,185.396,231.493z"/>
<path fill-rule="evenodd" clip-rule="evenodd" fill="#F79A1E" d="M84.336,312.858c-11.981,0.858-23.552,1.151-32.932-8.8
	c-10.44-11.077-13.309-30.273-4.383-42.456c8.795-11.999,20.928-18.894,39.59-12.224c0.013,0.539-0.064,1.06-0.236,1.566
	c-1.109,2.453-0.695,5.062-0.582,7.577c0.278,6.181,0.236,11.412-8.605,7.842c-3.521-1.423-6.175,1.459-7.965,4.039
	c-1.813,2.617-1.114,5.497,1.24,7.806c1.364,1.338,2.925,2.506,3.81,4.282c0.772,2.436,0.455,4.575-1.681,6.198
	c-1.088,2.709,0.493,5.841,2.726,4.92c12.759-5.261,10.315,3.955,10.372,10.641c0.022,2.81,0.786,5.752-0.737,8.452L84.336,312.858z
	"/>
<path fill-rule="evenodd" clip-rule="evenodd" fill="#F59B1F" d="M90.698,246.954c-0.96-2.341-1.817-4.73-2.895-7.013
	c-5.491-11.627-3.016-21.294,7.611-29.474c7.25-5.582,19.809-5.656,26.946-0.157c9.603,7.399,12.636,19.195,7.509,29.699
	c-1.111,2.277-2.656,4.344-4,6.508C114.146,246.663,102.424,246.809,90.698,246.954z"/>
<path fill-rule="evenodd" clip-rule="evenodd" fill="#E15C25" d="M394.216,246.385c-0.104-21.876-0.232-43.75-0.294-65.626
	c-0.021-7.458,5.708-8.927,11.042-8.688c5.147,0.23,8.013,2.264,7.559,9.747c-1.3,21.481-0.528,43.085-0.574,64.64
	C406.034,247.326,400.123,247.283,394.216,246.385z"/>
<path fill-rule="evenodd" clip-rule="evenodd" fill="#F9F7F3" d="M84.111,423.663c-28.155,2.767-47.784-9.206-53.23-32.35
	c-2.207-9.378-0.31-18.411,1.855-27.456c0.574-0.852,1.382-1.202,2.396-1.128c4.229,1.279,8.2,2.933,10.283,7.262
	c0.852,2.542,0.079,5.038-0.174,7.564c-1.822,18.263,11.488,32.246,29.861,31.547c3.062-0.117,6.312-1.731,9.191,0.729
	C85.096,414.453,85.251,419.068,84.111,423.663z"/>
<path fill-rule="evenodd" clip-rule="evenodd" fill="#FAF7F3" d="M84.026,363.534c1.383,11.892,1.275,23.787,0.045,35.682
	c-7.796,6.672-16.103,6.682-24.977,0.028c-8.179-6.132-10.733-15.334-6.736-24.196c4.624-3.037,7.902,0.077,10.982,2.755
	c2.717,2.364,5.398,4.118,9.655,3.999c-4.115-7.619-15.419-3.143-17.694-12.148C62.092,358.231,73.424,355.824,84.026,363.534z"/>
<path fill-rule="evenodd" clip-rule="evenodd" fill="#E15C25" d="M363.655,246.499c0.024-9.598,0.565-19.23-0.083-28.783
	c-0.554-8.159,5.535-10.731,10.499-10.871c4.909-0.138,10.661,2.3,9.446,10.832c-1.34,9.418-0.452,19.151-0.535,28.747
	C376.543,247.372,370.101,247.275,363.655,246.499z"/>
<path fill-rule="evenodd" clip-rule="evenodd" fill="#F39920" d="M136.93,245.293c0.705-5.688,1.483-11.37,2.096-17.067
	c0.56-5.199,4.486-5.643,8.361-6.064c14.721-1.599,25.186,5.98,33.721,24.331c-7.464,0.144-14.921,0.289-22.379,0.435
	c-4.552-5.285-9.18-9.004-15.661-2.262C141.744,246.043,139.185,247.179,136.93,245.293z"/>
<path fill-rule="evenodd" clip-rule="evenodd" fill="#E15C25" d="M26.535,355.363c6.625-15.56,20.181-22.111,35.039-26.969
	c7.702-3.192,15.302-3.29,22.762,0.76c-0.032,3.507-0.064,7.016-0.096,10.523c-1.497,2.387-3.813,1.92-6.043,1.729
	c-15.174-1.308-27.738,3.792-37.69,15.323c-1.699,1.967-3.488,3.81-6.242,4.239C30.936,360.138,26.833,360.367,26.535,355.363z"/>
<path fill-rule="evenodd" clip-rule="evenodd" fill="#F9F5F1" d="M34.917,359.704c12.343-16.774,28.52-24.102,49.326-20.022
	c0.074,4.416,0.153,8.836,0.23,13.256c-2.524,1.833-5.449,1.491-8.229,1.243c-11.283-1.005-20.308,3.182-27.579,11.621
	c-4.875,2.672-8.331-0.98-12.215-2.734C35.42,362.185,33.825,361.557,34.917,359.704z"/>
<path fill-rule="evenodd" clip-rule="evenodd" fill="#E15C25" d="M53.533,374.501c-3.695,20.67,9.703,31.504,30.542,24.705
	c1.115,3.526,0.949,7.071,0.22,10.627c-12.199,4.212-23.284,2.638-32.727-6.589c-9.77-9.548-11.362-20.903-6.969-33.456
	c0.317-0.299,0.635-0.599,0.95-0.903c3.286-0.146,5.92,1.296,8.286,3.399C54.367,373.106,54.265,373.847,53.533,374.501z"/>
<path fill-rule="evenodd" clip-rule="evenodd" fill="#8A5021" d="M84.952,312.701c-0.172-4.779-0.416-9.558-0.491-14.336
	c-0.047-2.98-1.993-6.377-4.091-4.11c-5.061,5.465-8.103,0.142-11.835-1.017c-1.888-0.586-5.059-1.249-3.941-4.28
	c1.419-3.854,4.285-0.754,6.522-0.712c7.3,0.121,4.668-2.904,1.892-5.975c-4.687-1.331-7.973-3.615-7.904-9.259
	c0.076-6.16,6.788-6.3,8.889-10.508c0.125-0.25,0.602-0.604,0.687-0.55c18.263,11.57,5.028-10.308,11.698-11.011
	c-0.572,9.637,2.524,19.499-1.799,28.898c-1.649-2.929-3.07-6.13-8.04-6.162c2.874,2.522,6.823,2.717,8.014,6.177
	C84.415,290.808,89.612,301.694,84.952,312.701z"/>
<path fill-rule="evenodd" clip-rule="evenodd" fill="#E15C25" d="M243.615,245.036c-0.963-5.395,3.817-12.171-4.142-15.994
	c-1.374-0.659,7.49-17.265,9.576-17.843c2.1-0.58,2.774,1.098,3.572,2.356c1.536,2.428,3.078,4.877,4.313,7.46
	c1.639,3.424,6.629,6.834-0.562,10.374c-2.29,1.126-1.065,5.304-0.552,8.133C253.576,249.314,250.252,250.814,243.615,245.036z"/>
<path fill-rule="evenodd" clip-rule="evenodd" fill="#343433" d="M185.966,257.328c-1.008,0.002-2.017,0.006-3.025,0.01
	c-26.693,0-53.384,0-80.074,0c0-0.569,0-1.14,0-1.708c75.808,0,151.615,0,228.034,0c-3.766,2.079-7.264,1.088-10.579,1.109
	C275.535,256.995,230.751,257.148,185.966,257.328z"/>
<path fill-rule="evenodd" clip-rule="evenodd" fill="#E15C25" d="M47.294,365.493c8.838-13.17,19.157-16.655,37.18-12.556
	c-0.148,3.533-0.296,7.067-0.445,10.599c-10.829-3.247-20.938-3.66-28.197,7.152c-0.317,0.321-0.633,0.641-0.948,0.961
	c-2.74-0.472-5.206-1.491-7.162-3.548C47.253,367.285,47.112,366.416,47.294,365.493z"/>
<path fill-rule="evenodd" clip-rule="evenodd" fill="#8F5422" d="M136.93,245.293c4.038,0.977,5.229-2.895,7.615-4.615
	c7.409-5.336,11.801-3.482,14.182,6.249c-8.012,0.027-16.025,0.055-24.04,0.082C135.434,246.436,136.182,245.865,136.93,245.293z"/>
<path fill-rule="evenodd" clip-rule="evenodd" fill="#F3DBC0" d="M84.336,329.154c-7.541-1.625-15.174-0.56-22.762-0.76
	c1.294-1.869,1.124-3.753,0.061-5.645c7.579,0.163,15.156,3.428,22.735,0.012C84.358,324.891,84.348,327.022,84.336,329.154z"/>
<path fill-rule="evenodd" clip-rule="evenodd" fill="#84878F" d="M296.005,506.487c1.01,7.706-1.732,10.435-10.037,10.183
	c-21.886-0.661-43.809-0.453-65.708-0.062c-6.447,0.115-8.839-2.044-8.085-8.191c0.841-6.961,1.684-13.921,2.528-20.88
	c1.308-6.177,4.764-8.131,11.316-7.94c19.123,0.56,38.272,0.2,57.41,0.216c3.479,0.001,7.075-0.539,10.07,1.963
	C294.335,490.013,295.17,498.25,296.005,506.487z"/>
<path fill-rule="evenodd" clip-rule="evenodd" fill="#454748" d="M253.916,459.694c4.004,0.184,6.043,2.483,6.077,6.13
	c0.03,3.294-2.152,5.446-5.378,5.71c-3.793,0.31-6.275-2.027-6.453-5.614C247.986,462.355,250.114,459.948,253.916,459.694z"/>
<path fill-rule="evenodd" clip-rule="evenodd" fill="#F7F5EF" d="M74.637,221.289c6.651,1.769,3.73,7.105,3.768,11.001
	c0.04,4.172-3.739,3.346-6.462,3.667c-3.456,0.408-6.901,0.905-10.35,1.364c0.606-6.515-6.619-13.118,0.221-19.559
	C66.088,218.938,70.362,220.114,74.637,221.289z"/>
<path fill-rule="evenodd" clip-rule="evenodd" fill="#733A22" d="M34.917,359.704c0.442,0.612,0.885,1.223,1.326,1.833
	c0.558,1.846,0.02,2.677-1.987,2.15c-0.503,0.094-1.006,0.151-1.518,0.17c-2.579-1.668-5.16-3.337-7.738-5.004
	c-0.166-1.043-0.338-2.084-0.514-3.125c0.683-0.121,1.368-0.244,2.05-0.364C28.714,357.997,31.61,359.246,34.917,359.704z"/>
<path fill-rule="evenodd" clip-rule="evenodd" fill="#FDF6F0" d="M255.555,73.472c-7.039-0.652-11.271-4.694-11.128-11.835
	c0.142-7.062,4.36-11.578,11.666-11.424c7.193,0.149,11.58,4.669,11.459,11.713C267.433,68.924,263.065,73.019,255.555,73.472z"/>
<path fill-rule="evenodd" clip-rule="evenodd" fill="#E9EFE2" d="M268.806,171.779c-0.266-0.178-0.627-0.293-0.785-0.541
	c-3.262-5.07-3.563-13.074-12.105-12.993c-8.723,0.082-9.093,8.384-12.65,13.524c-0.063-7.092-0.125-14.186-0.189-21.277
	c8.541-0.004,17.082-0.007,25.623-0.011C268.734,157.581,268.771,164.68,268.806,171.779z"/>
<path fill-rule="evenodd" clip-rule="evenodd" fill="#434846" d="M171,207.859c0.99,5.078-2.578,4.316-5.329,4.575
	c-3.218,0.302-6.277,0.017-5.176-4.344c0.832-3.292-1.164-8.503,4.755-8.987C172.517,198.508,168.935,205.182,171,207.859z"/>
<path fill-rule="evenodd" clip-rule="evenodd" fill="#393E3D" d="M193.824,198.228c-2.224,3.674-4.671,7.126-7.447,6.568
	c-3.745-0.756-5.659-5.277-6.504-8.706c-0.612-2.486,2.688-5.665,5.505-4.535C188.609,192.854,191.107,195.979,193.824,198.228z"/>
<path fill-rule="evenodd" clip-rule="evenodd" fill="#3B3F3F" d="M197.515,173.516c3.828-0.2,6.857-0.138,5.714,4.388
	c-0.621,2.46,0.456,6.788-3.893,6.049c-2.976-0.506-7.915-0.004-8.091-4.896C191.094,174.833,193.622,172.49,197.515,173.516z"/>
<path fill-rule="evenodd" clip-rule="evenodd" fill="#F5FAFB" d="M467.104,309.689c-17.313,0.002-30.797-13.305-30.847-30.441
	c-0.051-17.356,14.097-31.455,31.389-31.279c16.568,0.17,30.729,14.71,30.489,31.307
	C497.886,296.384,484.315,309.687,467.104,309.689z"/>
<path fill-rule="evenodd" clip-rule="evenodd" fill="#F8F8F4" d="M95.993,199.358c-1.563,0.68-3.123,1.36-4.687,2.042
	c-4.98,0.284-4.39-3.711-4.879-6.627c-0.476-2.852,0.006-5.759,0.428-8.62c0.544-3.706,0.429-7.209-3.692-8.891
	c-4.042-1.647-7.566-0.327-10.578,2.485c-4.086,3.815-6.073,15.03-3.595,19.934c2.198,4.348,5.584,4.579,9.743,2.975
	c3.933-1.518,7.676-1.958,8.231,3.923c-1.801,3.617-4.325,6.649-7.443,9.193c-13.299-0.484-19.782-5.491-21.94-16.95
	c-2.844-15.108,2.621-28.441,13.507-32.959c8.532-3.541,18.628-1.514,23.868,4.792C101.133,178.091,101.563,189.984,95.993,199.358z
	"/>
<path fill-rule="evenodd" clip-rule="evenodd" fill="#E97535" d="M248.087,180.307c0.472-1.175,0.971-2.341,1.409-3.528
	c1.538-4.165,0.699-11.306,7.362-10.14c5.604,0.982,4.811,7.67,5.198,12.26c0.295,3.492-1.047,6.954-3.229,9.894
	C255.246,185.963,251.667,183.136,248.087,180.307z"/>
<path fill-rule="evenodd" clip-rule="evenodd" fill="#E15C25" d="M365.651,343.354c-0.099,21.937-16.875,39.381-37.872,39.378
	c-21.017-0.004-37.949-18.258-37.735-40.676c0.207-21.921,17.093-39.347,38.053-39.273
	C349.548,302.86,365.755,320.367,365.651,343.354z"/>
<path fill-rule="evenodd" clip-rule="evenodd" fill="#E15C25" d="M215.251,342.242c0-10.631,0.19-21.264-0.08-31.887
	c-0.136-5.376,1.739-7.413,7.245-7.304c13.846,0.278,27.711,0.406,41.545-0.061c7.946-0.268,6.678,4.758,6.837,9.511
	c0.17,5.081,0.505,9.803-7.015,9.431c-7.064-0.352-14.17,0.138-21.25-0.006c-4.45-0.091-5.24,2.26-5.301,6.039
	c-0.063,3.951,1.847,4.981,5.303,4.9c4.186-0.096,8.461,0.558,12.545-0.087c9.654-1.525,11.563,3.326,10.932,11.54
	c-0.339,4.41-1.742,6.468-6.354,6.268c-5.144-0.221-10.31,0.097-15.457-0.061c-4.588-0.142-7.106,1.042-7.114,6.44
	c-0.008,5.406,2.421,6.493,7.073,6.331c6.757-0.234,13.56,0.374,20.283-0.147c7.21-0.558,7.911,3.369,7.503,8.891
	c-0.356,4.856,1.663,10.608-7.046,10.321c-14.157-0.468-28.347-0.321-42.513-0.036c-5.461,0.109-7.421-1.782-7.275-7.232
	c0.289-10.942,0.085-21.9,0.085-32.851C215.217,342.242,215.233,342.242,215.251,342.242z"/>
<path fill-rule="evenodd" clip-rule="evenodd" fill="#E15C25" d="M162.011,382.91c-9.834,0.208-19.089-2.229-28.112-5.952
	c-4.398-1.814-5.708-3.917-3.448-8.777c5.762-12.388,5.514-12.54,18.093-7.651c4.86,1.89,9.808,3.122,15.059,2.795
	c2.003-0.125,3.995-0.541,4.438-2.846c0.425-2.21-0.955-3.787-2.861-4.49c-5.731-2.112-11.619-3.813-17.292-6.062
	c-12.32-4.881-16.993-11.283-16.538-22.052c0.501-11.759,7.304-20.599,19.008-23.932c12.474-3.553,24.172-0.329,35.554,4.826
	c2.751,1.245,3.658,2.566,2.537,5.915c-3.864,11.563-6.593,12.983-17.838,9.24c-5.227-1.739-13.363-5.97-15.4,0.476
	c-2.271,7.195,7.298,6.638,12.141,8.53c10.469,4.089,22.247,6.54,24.325,20.36C194.479,371.942,183.418,382.863,162.011,382.91z"/>
<path fill-rule="evenodd" clip-rule="evenodd" fill="#5D5D54" d="M301.637,413.418c-41.264,0.105-82.529,0.198-123.793,0.336
	c-3.868,0.014-7.53-0.514-7.482-5.302c0.049-5.045,4.123-4.883,7.745-4.871c41.264,0.119,82.525,0.242,123.787,0.363
	C304.081,407.163,304.167,410.326,301.637,413.418z"/>
<path fill-rule="evenodd" clip-rule="evenodd" fill="#E15C25" d="M301.637,413.418c0.083-3.158,0.168-6.317,0.255-9.475
	c9.603-0.161,19.204-0.371,28.807-0.459c3.9-0.038,7.351,1.198,6.984,5.849c-0.327,4.161-3.854,4.548-7.231,4.503
	C320.847,413.709,311.241,413.56,301.637,413.418z"/>
<path fill-rule="evenodd" clip-rule="evenodd" fill="#5E5D55" d="M86.965,206.579c-2.245-1.935-3.345-4.469-7.757-1.778
	c-7.746,4.722-13.448,0.856-14.22-8.314c-1.088-12.959,5.366-22.749,15.064-22.547c6.532,0.136,11.013,1.984,9.788,10.31
	c-0.826,5.62-3.403,11.831,1.459,17.148C92.567,205.397,88.928,205.286,86.965,206.579z"/>
<path fill-rule="evenodd" clip-rule="evenodd" fill="#C07D2C" d="M73.008,282.271c2.256,1.786,7.969,0.319,6.855,4.633
	c-1.045,4.049-5.366,3.501-8.747,1.339C73.365,286.766,73.197,284.521,73.008,282.271z"/>
<path fill-rule="evenodd" clip-rule="evenodd" fill="#975623" d="M109.413,217.366c1.786,1.31,4.117,2.264,5.18,3.997
	c1.273,2.077-1.483,1.901-2.528,2.774c-3.883,3.243,0.663,3.584,1.918,4.962c3.274,3.59,2.571,6.478-0.72,9.832
	c-3.67,3.741-6.393,1.551-9.405-0.529c-0.259-0.178-0.468-0.427-0.7-0.643c7.962-5.542-3.985-10.227-0.673-15.502
	C104.041,219.777,106.614,218.547,109.413,217.366z"/>
<path fill-rule="evenodd" clip-rule="evenodd" fill="#756966" d="M34.256,363.687c0.663-0.716,1.326-1.433,1.989-2.149
	c3.751,1.126,6.803,4.224,11.053,3.95c0.295,0.537,0.516,1.098,0.657,1.691c-0.563,1.047-1.651,1.551-2.445,2.358
	c0,0-0.916,0.246-0.914,0.25C41.152,367.755,37.702,365.722,34.256,363.687z"/>
<path fill-rule="evenodd" clip-rule="evenodd" fill="#765D51" d="M53.533,374.501c-0.109-0.487-0.265-0.962-0.465-1.419
	c0.208-1.1,1.404-1.229,1.954-1.992c0,0,0.811-0.399,0.809-0.4c4.43,5.497,11.932,2.43,17.192,6.226
	c2.613,1.888,5.017,3.193,3.442,6.502c-1.663,3.5-4.196,1.835-7.167,1.102C62.747,382.904,61.111,374.055,53.533,374.501z"/>
<path fill-rule="evenodd" clip-rule="evenodd" fill="#79361C" d="M55.022,371.09c-0.646,0.663-1.292,1.329-1.946,1.992
	c-2.532-1.185-5.061-2.372-7.575-3.551c-0.806-2.472,1.219-2.005,2.454-2.353C50.31,368.482,52.666,369.787,55.022,371.09z"/>
<path fill-rule="evenodd" clip-rule="evenodd" fill="#D58E2C" d="M84.552,279.856c-1.79-0.597-3.817-0.847-5.315-1.871
	c-2.587-1.767-7.655-0.477-7.623-5.319c0.018-2.451,2.81-2.028,4.573-1.994c4.259,0.079,8.397,0.537,8.414,6.338
	c0.004,0.945-0.013,1.89-0.022,2.833C84.578,279.841,84.552,279.856,84.552,279.856z"/>
<path fill-rule="evenodd" clip-rule="evenodd" fill="#BFC6C7" d="M484.498,280.836c-12.69,2.978-22.64-1.3-34.075-1.239
	C456.653,275.748,471.666,276.347,484.498,280.836z"/>
<path fill-rule="evenodd" clip-rule="evenodd" fill="#C0C6C8" d="M457.537,270.312c9.808-2.387,11.264-2.362,18.877-0.155
	C470.483,273.136,467.951,273.236,457.537,270.312z"/>
<path fill-rule="evenodd" clip-rule="evenodd" fill="#C0C7C9" d="M459.348,288.306c6.086-4.288,11.443,0.739,17.258,0.966
	C470.676,293.469,465.096,288.947,459.348,288.306z"/>
<path fill-rule="evenodd" clip-rule="evenodd" fill="#FCFAF7" d="M343.903,342.595c0.049,11.92-6.298,20.47-15.419,20.771
	c-9.656,0.317-16.731-8.428-16.661-20.593c0.074-12.424,6.899-21.024,16.522-20.818
	C337.554,322.151,343.853,330.507,343.903,342.595z"/>
<path fill-rule="evenodd" clip-rule="evenodd" fill="#F6F5F2" d="M82.911,187.475c-0.94,5.17,1.618,12.362-6.332,13.153
	c-4.79,0.478-4.782-4.569-4.368-7.927c0.637-5.189,0.115-12.135,7.299-12.833C85.474,179.292,81.795,184.94,82.911,187.475z"/>
<path fill-rule="evenodd" clip-rule="evenodd" fill="#B8B5B4" d="M441.036,370.567c0.306,0.179,0.355,0.534,0.543,0.794
	c0.043,0.059,0.016,0.132-0.031,0.187c-0.056,0.064-0.117,0.124-0.176,0.185c-1.284,1.318-2.568,2.637-3.854,3.954
	c-0.095,0.097-0.182,0.222-0.299,0.274c-0.192,0.085-0.111-0.076-0.107-0.159c1.32-1.317,2.637-2.639,3.967-3.947
	c0.224-0.22,0.316-0.416,0.165-0.711C441.151,370.964,441.104,370.761,441.036,370.567z"/>
<path fill-rule="evenodd" clip-rule="evenodd" fill="#D1CFCF" d="M437.437,401.595c0.154,0.048,0.252,0.17,0.361,0.277
	c1.131,1.108,2.262,2.215,3.389,3.328c0.126,0.124,0.324,0.218,0.269,0.454c-0.124-0.033-0.194-0.136-0.277-0.219
	c-1.158-1.158-2.315-2.316-3.472-3.477C437.599,401.851,437.464,401.761,437.437,401.595z"/>
<path fill-rule="evenodd" clip-rule="evenodd" fill="#D1CFCF" d="M436.321,401.439c0.148-0.082,0.301-0.155,0.443-0.246
	c0.196-0.126,0.313-0.049,0.402,0.133c-0.209,0.011-0.391,0.109-0.584,0.171C436.483,401.53,436.386,401.561,436.321,401.439z"/>
</svg>
