<?xml version="1.0" encoding="utf-8"?>
<!-- Generator: Adobe Illustrator 16.0.0, SVG Export Plug-In . SVG Version: 6.00 Build 0)  -->
<!DOCTYPE svg PUBLIC "-//W3C//DTD SVG 1.1//EN" "http://www.w3.org/Graphics/SVG/1.1/DTD/svg11.dtd">
<svg version="1.1" id="Layer_1" xmlns="http://www.w3.org/2000/svg" xmlns:xlink="http://www.w3.org/1999/xlink" x="0px" y="0px"
	 width="1491.452px" height="1044.104px" viewBox="0 -148.744 1491.452 1044.104"
	 enable-background="new 0 -148.744 1491.452 1044.104" xml:space="preserve">
<path fill="#11123B" d="M0.005-148.744L0-148.726c8.859,0.855,17.356,4.394,25.809,8.55c26.501,13.029,51.376,29.792,73.47,53.123
	c14.33,15.132,26.613,32.664,36.717,52.775c10.591,21.08,17.224,44.215,21.107,68.792c3.445,21.199,4.792,42.505,2.102,64.032
	c-1.589,12.336-2.748,24.762-5.278,36.899c-6.009,28.826-15.108,55.885-26.803,81.517c-22.083,48.252-49.375,91.792-73.79,137.938
	c-1.795,3.392-3.206,7.086-5.058,10.435c-12.292,23.483-22.608,48.228-26.407,76.55c-5.197,38.754,0.527,74.58,18.344,106.764
	c6.734,12.167,14.245,23.458,22.387,34.062c14.594,19.012,29.58,37.566,42.023,59.156c20.245,35.126,33.253,74.29,39.347,117.555
	c5.945,42.211,3.782,83.692-5.014,124.801c-0.371,1.733-0.675,3.548-1.201,5.207c-0.134,1.982-0.312,3.963-0.565,5.932h1354.262
	V-148.744H0.005z"/>
<path fill="#F8FCFA" d="M-1840.486,64.679c-0.01,7.433-5.795,13.303-13.176,13.367c-7.523,0.066-13.701-6.154-13.531-13.626
	c0.166-7.279,6.303-13.242,13.549-13.165C-1846.316,51.333-1840.479,57.291-1840.486,64.679z"/>
<path fill="#FCFEFD" d="M1491.451,569.015c-2.158,0.089-4.316,0.255-6.473,0.257c-67.994,0.014-135.988,0.045-203.98-0.074
	c-3.988-0.007-6.156,1.116-8.064,4.762c-9.03,17.244-18.422,34.298-27.666,51.43c-0.823,1.525-2.45,2.972-0.809,4.918
	c1.377,1.634,3.107,0.662,4.643,0.494c2.31-0.252,4.574-0.873,6.877-1.219c3.025-0.455,5.279-1.105,6.357-4.842
	c1.225-4.245,5.176-6.063,9.574-5.499c4.393,0.563,7.291,3.322,8.104,7.709c0.82,4.412-0.985,7.91-4.922,9.99
	c-3.955,2.09-7.688,1.37-11.059-1.599c-1.146-1.008-1.406-3.223-3.711-2.752c-4.068,0.83-8.195,1.42-12.201,2.479
	c-1.314,0.346-0.211,1.684,0.213,2.471c8.691,16.107,17.445,32.182,26.062,48.33c1.26,2.359,3.129,2.043,5.079,2.045
	c15.33,0.006,30.662-0.004,45.994,0.006c55.328,0.029,110.654,0.063,165.98,0.096c0,1.334,0,2.669,0,4
	c-2.15-0.122-4.302-0.352-6.453-0.352c-68.666-0.021-137.332-0.059-205.998,0.084c-4.248,0.008-6.508-1.266-8.48-5.035
	c-8.25-15.774-16.907-31.338-25.258-47.063c-1.522-2.867-3.08-4.091-6.541-3.513c-24.508,4.095-49.113,7.283-74.051,5.729
	c-3.215-0.201-3.406,1.854-4.172,3.781c-13.916,35.043-38.884,57.967-75.408,67.545c-45.728,11.987-94.057-7.64-118.982-47.978
	c-2.034-3.293-4.1-4.371-7.879-4.367c-141.832,0.101-283.665,0.084-425.498,0.084c-7.102,0-7.104-0.004-7.104-7.108
	c-0.001-123.167-0.001-246.333,0.001-369.5c0-6.977,0.005-6.984,6.705-6.984c62.833-0.003,125.666-0.021,188.5,0.076
	c2.155,0.004,6.206-1.536,6.107,1.936c-0.09,3.184-4.101,1.67-6.298,1.673c-61.833,0.095-123.666,0.124-185.499-0.023
	c-4.469-0.011-5.931,0.982-5.797,5.67c0.352,12.323,0.304,24.668,0.017,36.994c-0.101,4.271,1.27,5.537,5.343,5.123
	c3.3-0.335,6.66-0.067,9.993-0.067c175.333,0,350.666,0,525.998,0.001c1.666,0,3.338-0.052,4.998,0.049
	c2.254,0.137,3.032,1.187,1.774,3.279c-2.391,1.746-5.084,2.303-8.008,2.231c-2.832-0.068-5.666,0.002-8.5,0.002
	c-172.153,0.001-344.308,0-516.463,0.002c-12.775,0-12.778,0.004-12.778,12.967c0,72.661,0.021,145.323-0.014,217.984
	c-0.01,21.495,0.22,42.991-0.157,64.483c0.376,6.322-0.027,12.658,0.218,18.982c0.185,4.744,1.252,5.75,6.033,6.004
	c1.997,0.105,3.999,0.051,5.999,0.051c134.48,0,268.961,0,403.441,0c10.145,0,10.155-0.008,6.586-9.483
	c-1.886-5-3.537-10.054-4.015-15.412c-1.528-7.457-3.217-14.9-2.264-22.599c0.063-19.494,4.814-37.754,14.578-54.666
	c3.119-5.399,1.133-11.265-4.576-13.46c-1.768-0.681-2.772,0.416-3.975,1.307c-5.31,3.932-7.756,3.308-13.594-3.39
	c-3.597-4.123-3.41-6.532,1.034-11.108c6.945-7.146,14.05-14.133,21.216-21.062c6.284-6.607,11.606-5.463,16.868,3.616
	c1.813,2.663,1.191,5.129-0.885,7.222c-2.758,2.78-1.563,4.813,0.689,7.179c2.485,2.609,4.811,2.599,7.383,0.433
	c5.998-5.051,12.373-9.563,19.244-13.339c10.895-5.986,22.553-10.005,34.797-11.797c5.651-0.826,4.854-4.255,4.975-7.857
	c0.119-3.491-0.244-6.323-4.881-6.306c-4.047,0.015-5.971-2.445-6.053-6.417c-0.019-0.832-0.053-1.664-0.062-2.497
	c-0.084-8.987,1.06-10.146,9.888-10.263c4.495-0.062,8.983,0.127,13.485,0.228c4.48-0.519,8.961-0.276,13.439-0.24
	c2.067,0.019,3.951,0.437,5.35,2.115c3.158-0.245,4.555,1.104,4.082,4.337c-0.166,1.144-0.025,2.329-0.025,3.496
	c0,7.224,0.002,7.432-7.288,7.465c-3.313,0.016-3.898,1.327-3.736,4.165c0.229,3.983-1.146,8.715,0.572,11.781
	c1.84,3.289,7.244,1.872,10.975,2.998c5.408,1.633,10.861,3.129,16.23,4.88c2.202,0.718,3.118,0.385,2.877-2.039
	c-0.082-0.825-0.011-1.665-0.011-2.499c0-71.496-0.049-142.993,0.111-214.489c0.012-4.754-1.057-6.095-5.967-6.074
	c-48.33,0.2-96.662,0.121-144.994,0.121c-1.332,0-2.678,0.112-3.996-0.03c-1.639-0.178-4.357,0.891-4.338-1.82
	c0.018-2.555,2.676-1.884,4.365-1.885c51.164-0.031,102.328,0.03,153.492-0.119c4.7-0.014,4.938,2.183,4.936,5.813
	c-0.066,72.163,0.051,144.327-0.217,216.489c-0.025,6.626,1.067,11.151,7.828,13.142c1.528,0.448,2.887,1.476,5.108,2.651
	c0-2.317,0-4.056,0-5.794c0-81.329-0.045-162.659,0.113-243.988c0.008-4.663-1.313-5.646-5.754-5.634
	c-54.83,0.152-109.662,0.114-164.492,0.035c-1.867-0.003-5.225,1.402-5.313-1.702c-0.091-3.129,3.278-1.988,5.188-1.99
	c55.998-0.061,111.996,0.006,167.992-0.146c4.811-0.014,6.207,1.352,6.199,6.186c-0.138,83.329-0.099,166.658-0.099,249.988
	c0,1.499,0.008,2.999,0.027,4.499c0.025,2.063,1.82,2.624,3.113,3.568c1.668,1.217,2.34-0.505,3.227-1.292
	c1.369-1.214,2.613-2.57,3.908-3.867c5.879-5.882,6-5.994,0.445-12.063c-3.423-3.737,0.807-4.971,2.245-5.938
	c2.634-1.77,3.808-8.627,8.316-4.577c9.533,8.563,18.26,18.021,27.387,27.042c1.492,1.477,1.847,2.59,0.086,4.018
	c-0.901,0.729-1.659,1.636-2.485,2.461c-5.771,5.775-5.84,5.854-12.053,0.317c-1.664-1.48-2.724-1.552-4.021,0.122
	c-0.1,0.131-0.232,0.237-0.35,0.356c-2.91,2.973-7.396,5.538-8.3,9.028c-0.961,3.718,4.072,6.591,6.302,9.955
	c17.875,26.98,23.299,56.229,15.975,87.721c-0.852,3.662-0.281,4.451,3.324,4.707c16.901,1.196,33.596-0.922,50.305-2.838
	c6.115-0.701,12.209-1.613,18.283-2.601c1.533-0.25,4.424,0.306,4.025-2.153c-0.345-2.127,1.157-5.404-3.912-5.934
	c-18.888-1.971-37.732-4.214-56.756-4.371c-1.55-0.013-3.91,0.411-3.691-1.987c0.209-2.276,2.594-1.555,4.123-1.57
	c19.377-0.211,38.582,1.932,57.707,4.694c4.068,0.588,5.861-0.468,7.695-3.951c8.444-16.047,17.264-31.898,25.762-47.918
	c1.512-2.847,3.123-4.076,6.488-4.071c70.161,0.103,140.325,0.075,210.487,0.088c1.158,0.001,2.314,0.179,3.472,0.274
	C1491.451,567.015,1491.451,568.015,1491.451,569.015z"/>
<path fill="#FFFFFF" d="M1491.451,706.017c-17.988,0.072-35.979,0.183-53.969,0.212c-22.328,0.036-44.654,0.012-66.982,0.004
	c-1.33,0-2.664-0.025-3.99-0.129c-0.944-0.074-1.586-0.783-1.584-1.63c0.002-0.856,0.688-1.518,1.609-1.629
	c0.986-0.121,1.99-0.158,2.986-0.158c39.655-0.006,79.313-0.008,118.971,0.011c0.985,0,1.973,0.209,2.959,0.319
	C1491.451,704.017,1491.451,705.017,1491.451,706.017z"/>
<path fill="#FEFEFE" d="M299.989,428.938c14.494,0,28.989-0.074,43.483,0.063c2.872,0.027,3.802-0.694,4.327-3.707
	c5.308-30.41,25.22-51.313,53.915-56.956c27.647-5.437,56.819,8.399,70.559,33.463c13.792,25.162,10.002,57.05-9.654,77.388
	c-14.935,15.451-30.365,30.423-45.427,45.753c-2.74,2.788-4.402,2.301-6.885-0.212c-14.518-14.696-29.25-29.183-43.745-43.901
	c-11.918-12.104-18.6-26.692-19.064-43.763c-0.11-4.058-1.69-4.485-5.05-4.475c-28.156,0.104-56.313,0.095-84.469-0.015
	c-2.159-0.009-6.124,1.454-5.993-2.128c0.102-2.788,3.912-1.422,6.019-1.441C271.999,428.874,285.994,428.938,299.989,428.938z"/>
<path fill="#FBFDFC" d="M1359.924,242.156c-0.799,55.708-40.684,101.408-91.861,113.459c-66.85,15.742-135.311-31.43-143.737-99.556
	c-7.953-64.294,34.012-121.398,97.559-132.757c64.398-11.51,127.445,34.318,136.775,99.328c0.735,5.136,0.932,10.273,1.231,15.422
	c-0.836,0.937-1.877,1.07-3.026,0.775c-3.197-1.646-2.646-4.926-2.775-7.524c-0.49-9.883-2.635-19.383-6.047-28.593
	c-13.896-37.497-40.182-62.019-78.781-71.982c-54.717-14.124-110.09,13.886-131.268,64.755
	c-17.58,42.227-11.418,81.982,17.565,117.634c16.818,20.688,39.023,33.279,64.941,38.057c48.014,8.848,95.617-12.905,119.586-55.976
	c8.023-14.419,13-29.693,13.961-46.247c0.146-2.53-0.168-5.438,2.15-7.455C1357.596,240.842,1358.887,240.789,1359.924,242.156z"/>
<path fill="#FDFEFD" d="M441.452,767.261c-43.832,0-87.664-0.096-131.494,0.127c-5.231,0.025-6.356-1.547-6.342-6.498
	c0.165-57.164,0.159-114.332,0.008-171.495c-0.013-4.871,1.501-6.191,6.268-6.183c67.164,0.136,134.328,0.092,201.492,0.095
	c1.166,0,2.351-0.07,3.492,0.104c1.021,0.157,1.927,0.746,1.862,1.968c-0.064,1.223-0.921,1.644-2.051,1.646
	c-1.5,0.004-3,0.025-4.5,0.026c-65.663,0.001-131.328,0.041-196.992-0.088c-4.325-0.008-5.853,0.777-5.836,5.572
	c0.191,55.331,0.167,110.665,0.032,165.997c-0.011,4.094,0.975,5.274,5.191,5.27c85.663-0.129,171.327-0.131,256.99,0
	c4.369,0.006,5.617-1.059,5.582-5.526c-0.218-27.496-0.109-54.996-0.105-82.496c0-1.332,0.021-2.666,0.072-3.998
	c0.042-1.084,0.465-2.088,1.638-2.15c1.543-0.082,1.835,1.105,1.851,2.367c0.012,1,0.021,2,0.021,3
	c0.001,28.834-0.097,57.666,0.104,86.498c0.03,4.541-1.115,5.891-5.787,5.873C529.116,767.188,485.284,767.261,441.452,767.261z"/>
<path fill="#FCFEFD" d="M477.171,328.74c10.722-0.234,20.09-1.506,29.289-4.048c1.699-0.471,4.201-2.312,4.985,0.557
	c0.656,2.403-2.184,2.389-3.811,2.884c-57.988,17.648-121.002-20.536-132.144-80.057c-11.373-60.759,28.788-116.433,90.048-124.831
	c53.865-7.385,106.65,31.388,115.979,84.893c3.255,18.664,1.864,36.786-4.388,54.576c-0.568,1.619-0.527,4.885-3.313,4.014
	c-3.003-0.938-0.803-3.427-0.243-5.035c20.306-58.547-13.809-119.837-74.205-133.222c-56.346-12.486-113.389,27.204-121.02,84.205
	c-7.589,56.687,30.125,106.872,86.562,115.085C469.353,328.406,473.873,328.487,477.171,328.74z"/>
<path fill="#F4FAF7" d="M260.246,661.134c-41.77-0.05-83.54-0.071-125.311-0.079c0.47,1.262,0.9,2.535,1.282,3.825
	c41.301-0.012,82.602-0.012,123.902-0.033c2.156,0,6.136,1.597,6.196-1.793C266.381,659.47,262.361,661.136,260.246,661.134z"/>
<path fill="#FBFDFC" d="M925.33,227.281c0,24.988-0.096,49.978,0.092,74.965c0.033,4.384-1.244,5.687-5.652,5.667
	c-36.98-0.158-73.966-0.178-110.946,0.018c-4.764,0.025-6.054-1.5-5.848-6c0.318-6.982,0.068-13.99,0.105-20.986
	c0.008-1.448-0.176-3.378,2.03-3.214c1.84,0.136,1.509,1.913,1.516,3.188c0.034,6.496,0.147,12.997-0.035,19.489
	c-0.081,2.896,0.957,3.64,3.735,3.634c35.815-0.078,71.634-0.098,107.45,0.025c3.303,0.012,3.762-1.234,3.758-4.068
	c-0.066-48.811-0.078-97.622,0.021-146.433c0.009-3.179-1.045-3.868-3.998-3.86c-35.647,0.085-71.3,0.118-106.948-0.032
	c-4.118-0.018-4.001,2.053-3.995,4.949c0.052,29.82,0.063,59.64-0.039,89.459c-0.008,2.05,1.43,5.759-1.581,5.87
	c-3.27,0.122-1.858-3.625-1.865-5.629c-0.101-30.818,0.001-61.639-0.149-92.457c-0.021-4.352,0.842-6.023,5.728-5.993
	c36.981,0.226,73.966,0.216,110.946,0.009c4.771-0.027,5.807,1.468,5.771,5.937C925.23,176.97,925.33,202.126,925.33,227.281z"/>
<path fill="#F8FCFA" d="M854.472,260.807c-4.546-4.366-9.108-8.715-13.625-13.113c-1.163-1.133-2.859-2.502-1.016-4.128
	c1.624-1.432,2.666,0.472,3.643,1.434c5.341,5.264,10.558,10.654,15.959,15.852c2.117,2.036,2.441,3.525,0.146,5.716
	c-5.423,5.176-10.633,10.572-15.945,15.863c-1.042,1.037-2.261,2.563-3.744,1.134c-1.51-1.454-0.006-2.706,1.038-3.745
	c4.329-4.311,8.689-8.59,14.114-13.943c-3.171,0-4.91,0-6.649,0c-32.826,0-65.652-0.111-98.479,0.115
	c-5.181,0.036-6.388-1.597-6.371-6.551c0.171-49.822,0.171-99.646,0-149.467c-0.017-4.872,1.422-6.111,6.188-6.087
	c36.824,0.189,73.65,0.183,110.476,0.004c4.56-0.021,6.134,1.144,5.934,5.825c-0.354,8.316-0.017,16.66-0.163,24.989
	c-0.032,1.865,1.272,5.166-1.955,5.147c-2.883-0.016-1.579-3.161-1.613-4.879c-0.157-7.829-0.18-15.664-0.014-23.492
	c0.061-2.833-0.834-3.715-3.673-3.708c-35.824,0.077-71.65,0.123-107.476-0.044c-4.365-0.021-3.777,2.389-3.776,5.047
	c0.013,45.99,0.009,91.98,0.01,137.971c0,11.279,0.004,11.279,11.41,11.279c29.827-0.001,59.653-0.001,89.48-0.001
	c1.801,0,3.601,0,5.401,0C854.004,261.619,854.237,261.213,854.472,260.807z"/>
<path fill="#FCFDFC" d="M1396.178,238.051c-1.426-44.067-17.297-82.037-50.223-111.497c-44.734-40.024-96.941-51.522-153.746-32.41
	c-56.275,18.934-89.891,59.629-102.521,117.557c-1.771,8.124-2.426,16.456-2.51,24.81c-0.02,1.934,0.961,5.213-2.108,5.141
	c-2.722-0.064-1.617-3.207-1.576-4.969c0.85-36.942,12.563-70.194,36.852-97.958c43.267-49.458,98.107-67.864,161.525-51.159
	c63.227,16.655,101.221,59.796,115.295,123.679c1.932,8.773,2.662,17.776,2.479,26.805
	C1398.488,238.989,1397.334,238.988,1396.178,238.051z"/>
<path fill="#FCFEFD" d="M478.192,312.434c-43.938-0.065-80.654-33.658-84.607-77.395c-3.948-43.668,26.373-83.433,69.526-91.179
	c54.747-9.826,103.801,33.924,100.157,89.413c-0.503,7.655-1.973,15.185-4.757,22.379c-0.642,1.657-0.688,4.799-3.432,3.72
	c-2.15-0.847-0.585-3.201-0.022-4.85c5.824-17.08,6.275-34.275,0.813-51.497c-11.333-35.729-45.646-59.317-82.471-56.827
	c-37.997,2.568-68.729,30.35-75.147,67.935c-9.842,57.619,43.307,106.475,100.124,92.147c1.876-0.474,5.141-3.165,5.972,0.135
	c0.848,3.358-3.329,2.872-5.403,3.468C492.191,311.823,485.218,312.445,478.192,312.434z"/>
<path fill="#FCFEFD" d="M1399.637,242.148c-0.586,76.413-56.803,142.086-132.297,153.952c-48.512,7.626-91.691-4.762-129.266-36.383
	c-1.752-1.475-6.099-3.118-3.816-5.744c2.469-2.842,4.365,1.528,6.127,2.972c45.658,37.352,97.004,48.175,152.504,28.524
	c55.672-19.71,89.008-60.429,100.779-118.502c1.662-8.199,1.98-16.517,2.477-24.824
	C1397.311,241.075,1398.475,241.074,1399.637,242.148z"/>
<path fill="#FCFDFC" d="M1399.637,242.148c-1.164-0.002-2.326-0.004-3.49-0.005c-12.073,0.005-24.147,0.009-36.223,0.014
	c-1.205-0.002-2.408-0.003-3.611-0.004c-1.112,1.316-2.629,1.575-4.229,1.619c-8.01,0.837-16.029,0.598-24.049,0.168
	c-1.525-0.007-3.055,0.065-4.578-0.087c-1.232,0.047-2.467-0.001-3.701,0.062c-14.889,0.59-29.775,0.541-44.66,0.037
	c-1.551-0.018-3.104,0.063-4.658-0.026c-2.186,0.197-4.373,0.075-6.563,0.048c-6.467,0.48-12.938,0.363-19.404,0.141
	c-2.838-0.099-5.654-0.851-5.521-4.306c0.119-3.087,2.787-3.808,5.442-3.894c6.47-0.208,12.938-0.354,19.398,0.144
	c2.186-0.014,4.375-0.176,6.561,0.066c1.554-0.065,3.104,0.125,4.658-0.009c14.887-0.568,29.771-0.589,44.656-0.002
	c1.232,0.066,2.469,0.01,3.701,0.059c1.526-0.137,3.059-0.09,4.59-0.091c8.061-0.387,16.121-0.706,24.17,0.197
	c1.629,0.046,3.141,0.371,4.209,1.754c1.184,0.007,2.369,0.014,3.555,0.02c12.097-0.001,24.191-0.001,36.287-0.002
	c1.154-0.001,2.31-0.002,3.465-0.003c7.718,2.052,11.787-3.273,16.39-7.852c1.672-1.663,3.6-5.885,5.991-3.503
	c2.511,2.501-2.147,3.934-3.438,5.957c-1.123,1.763-3.316,2.707-4.18,5.043c3.571,1.073,6.442,0.615,8.977-2.24
	c2.537-2.856,5.363-5.457,8.098-8.134c0.955-0.934,2.14-2.062,3.396-0.729c1.225,1.302,0.123,2.51-0.877,3.388
	c-2.482,2.182-5.051,4.268-8.369,7.05c4.806,1.722,7.465,1.327,9.892-1.296c2.709-2.93,5.62-5.672,8.467-8.473
	c0.979-0.966,2.151-1.899,3.463-0.735c1.502,1.337,0.221,2.443-0.715,3.309c-2.435,2.247-4.965,4.389-8.072,7.111
	c3.527,1.748,6.018,1.018,8.357,1.261c1.192,0.125,2.535,0.234,2.66,1.683c0.157,1.817-1.281,1.998-2.695,2.12
	c-2.254,0.195-4.582-0.457-7.459,0.72c2.609,2.696,4.992,5.129,7.336,7.598c0.785,0.827,1.855,1.751,0.803,2.977
	c-1.17,1.364-2.422,0.695-3.444-0.3c-2.742-2.666-5.632-5.221-8.099-8.129c-2.498-2.947-5.354-3.301-10.324-2.218
	c3.334,3.03,5.896,5.328,8.416,7.665c0.89,0.823,1.701,1.964,0.812,3.039c-1.166,1.411-2.414,0.456-3.397-0.5
	c-2.623-2.553-5.384-4.996-7.744-7.777c-2.601-3.063-5.607-3.694-10.552-2.345c3.16,2.929,5.814,5.353,8.425,7.821
	c0.887,0.838,1.647,1.907,0.5,2.993c-1.07,1.011-2.179,0.386-3.066-0.473c-1.912-1.851-4.051-3.544-5.627-5.653
	C1409.979,242.624,1405.371,241.023,1399.637,242.148z"/>
<path fill="#FBFDFC" d="M492.969,211.506c-0.935,2.13-1.479,3.676-2.261,5.091c-1.787,3.242-1.251,5.436,1.801,7.962
	c7.091,5.868,11.25,13.184,8.296,22.849c-3.205,10.483-11.089,15.575-23.12,14.446c-3.256-0.305-4.952,0.248-5.654,3.509
	c-0.857,3.984-3.061,5.202-6.8,3.011c-1.133-0.663-2.439-1.089-3.719-1.43c-3.415-0.908-4.316-2.887-2.501-5.886
	c2.148-3.546,1.422-5.823-2.243-7.989c-4.17-2.465-7.385-6.188-10.308-10.076c-0.5-0.665-1.15-1.292-1.413-2.048
	c-2.55-7.315,5.27-6.368,7.874-9.589c1.607-1.986,4.162-3.659,6.298,0.182c1.943,3.494,4.505,6.564,7.827,9.098
	c1.917-2.384,2.277-5.3,3.569-7.766c1.001-1.911,0.413-3.015-1.157-4.164c-1.335-0.978-2.508-2.19-3.682-3.37
	c-7.367-7.41-8.93-14.791-5.025-23.594c3.602-8.124,11.247-12.405,21.231-11.65c2.675,0.202,5.228,1.102,6.229-2.663
	c0.425-1.6,1.899-1.502,3.323-0.906c2.3,0.961,4.655,1.788,6.979,2.695c1.745,0.681,3.053,1.807,1.978,3.773
	c-1.565,2.865,0.034,4.171,2.191,5.44c0.854,0.501,1.599,1.2,2.348,1.859c9.555,8.411,8.897,12.985-2.54,18.997
	c-1.847,0.97-2.729,0.273-3.766-0.978C496.942,216.161,495.121,214.045,492.969,211.506z"/>
<path fill="#F2F9F5" d="M739.427,716.667c-43.645,0-87.29,0.021-130.936-0.064c-2.064-0.004-5.834,1.313-5.845-1.704
	c-0.015-3.718,3.938-1.894,5.991-1.896c87.29-0.111,174.581-0.096,261.871-0.096c0.666,0,1.35-0.092,1.996,0.02
	c1.601,0.273,4.336-0.973,4.264,1.849c-0.065,2.598-2.727,1.862-4.407,1.864C828.05,716.673,783.738,716.666,739.427,716.667z"/>
<path fill="#F1F9F4" d="M141.341,623.905c-1.164-0.004-2.33-0.015-3.494-0.015h-20.968c0.413,1.245,0.8,2.499,1.156,3.764
	c6.59,0,13.179,0,19.769,0c1.165,0,2.333,0.02,3.493-0.056c1.23-0.077,2.387-0.438,2.44-1.935
	C143.796,624.02,142.571,623.91,141.341,623.905z"/>
<path fill="#F0F8F3" d="M1215.918,465.826c25.15,0,50.301-0.001,75.451,0c1.332,0.001,2.664-0.009,3.996,0.023
	c1.201,0.031,2.516,0.179,2.586,1.688c0.068,1.474-1.123,1.896-2.385,1.953c-1.33,0.058-2.664,0.056-3.996,0.056
	c-50.301,0.002-100.603,0.025-150.902-0.081c-2.113-0.004-6.047,1.609-6.029-1.962c0.017-3.036,3.795-1.595,5.828-1.604
	C1165.617,465.786,1190.768,465.826,1215.918,465.826z"/>
<path fill="#F0F8F3" d="M391.571,573.207c-23.149,0-46.299,0-69.448-0.003c-1.332,0-2.665-0.008-3.996-0.051
	c-1.091-0.036-1.995-0.42-2.014-1.688c-0.019-1.215,0.816-1.787,1.896-1.896c1.155-0.118,2.328-0.093,3.493-0.093
	c46.965-0.004,93.93-0.004,140.896-0.002c0.999,0,1.999,0.005,2.997,0.039c1.242,0.043,2.449,0.337,2.52,1.822
	c0.073,1.571-1.172,1.798-2.398,1.834c-1.331,0.04-2.664,0.035-3.996,0.035C438.203,573.207,414.887,573.207,391.571,573.207z"/>
<path fill="#F0F8F3" d="M347.934,556.157c-14.49,0.001-28.98,0.03-43.471-0.043c-1.465-0.009-3.921,0.933-4.097-1.473
	c-0.203-2.769,2.412-2.205,4.087-2.208c29.146-0.042,58.294-0.041,87.44-0.007c1.716,0.002,4.329-0.459,4.156,2.186
	c-0.146,2.212-2.606,1.513-4.146,1.518C377.247,556.175,362.59,556.157,347.934,556.157z"/>
<path fill="#F9FCFA" d="M1230.416,525.386c0.037-7.403,5.908-13.29,13.254-13.289c7.303,0.002,13.338,5.946,13.441,13.243
	c0.106,7.424-6.172,13.656-13.646,13.543C1236.129,538.771,1230.379,532.825,1230.416,525.386z"/>
<path fill="#F9FCFA" d="M678.521,778.597c-7.354-0.133-13.146-6.102-13.084-13.481c0.065-7.597,6.123-13.363,13.832-13.168
	c7.271,0.186,13.162,6.418,12.92,13.664C691.944,772.923,685.834,778.73,678.521,778.597z"/>
<path fill="#FBFDFC" d="M217.621,204.991c0.034,7.622-5.565,13.311-13.147,13.354c-7.563,0.044-13.289-5.624-13.331-13.194
	c-0.042-7.602,5.594-13.311,13.17-13.345C211.916,191.772,217.588,197.392,217.621,204.991z"/>
<path fill="#FFFFFF" d="M368.008,316.284c-9.802,0-19.604,0.033-29.405-0.035c-1.496-0.01-3.898,0.745-4.022-1.616
	c-0.131-2.501,2.316-1.846,3.804-1.85c19.77-0.05,39.539-0.05,59.31,0c1.478,0.004,3.918-0.674,3.75,1.882
	c-0.158,2.396-2.553,1.569-4.03,1.581C387.611,316.321,377.81,316.285,368.008,316.284z"/>
<path fill="#F6FBF8" d="M614.956,226.026c-5.207-0.019-9.496-4.305-9.479-9.476c0.018-5.15,4.372-9.489,9.521-9.482
	c5.167,0.006,9.451,4.325,9.443,9.521C624.433,221.804,620.171,226.045,614.956,226.026z"/>
<path fill="#F4FAF6" d="M656.666,260.036c-6.639-0.001-13.277,0.018-19.915-0.015c-1.438-0.007-3.328,0.27-3.182-2.017
	c0.11-1.758,1.691-1.787,3.029-1.789c13.608-0.014,27.218-0.016,40.825,0.004c1.337,0.002,2.9,0.072,2.93,1.886
	c0.034,2.302-1.871,1.904-3.275,1.912C670.274,260.058,663.47,260.036,656.666,260.036z"/>
<path fill="#F8FBF9" d="M210.072,419.88c5.389-0.008,9.428,3.993,9.425,9.337c-0.002,5.313-4.116,9.516-9.345,9.543
	c-5.121,0.028-9.529-4.339-9.549-9.46C200.583,424.108,204.826,419.887,210.072,419.88z"/>
<path fill="#F9FCFA" d="M940.387,724.082c-5.401,0-9.545-4.141-9.473-9.467c0.07-5.209,4.549-9.564,9.691-9.424
	c5.036,0.139,9.063,4.278,9.139,9.396C949.824,720.037,945.838,724.082,940.387,724.082z"/>
<path fill="#F8FCFA" d="M1335.92,459.768c5.348-0.046,9.49,3.979,9.539,9.267c0.051,5.218-4.156,9.506-9.365,9.55
	c-5.166,0.043-9.529-4.232-9.578-9.386C1326.467,463.953,1330.596,459.813,1335.92,459.768z"/>
<path fill="#F7FBF9" d="M155.335,501.031c0.103,5.094-4.232,9.579-9.345,9.67c-5.192,0.093-9.464-4.088-9.554-9.351
	c-0.093-5.368,3.865-9.448,9.227-9.512C151.012,491.777,155.23,495.786,155.335,501.031z"/>
<path fill="#FAFDFB" d="M305.657,313.325c-0.078,5.35-4.329,9.418-9.653,9.239c-5.035-0.17-9.13-4.362-9.165-9.386
	c-0.036-5.231,4.242-9.442,9.566-9.415C301.856,303.793,305.737,307.804,305.657,313.325z"/>
<path fill="#FAFDFB" d="M247.413,562.278c-5.464-0.048-9.393-4.083-9.285-9.535c0.102-5.127,4.106-9.15,9.199-9.24
	c5.309-0.095,9.524,4.06,9.543,9.4C256.889,558.324,252.852,562.326,247.413,562.278z"/>
<path fill="#F8FBF9" d="M641.409,306.063c0.06,4.868-3.949,8.918-8.821,8.908c-4.844-0.009-8.943-4.141-8.862-8.93
	c0.079-4.59,4.016-8.568,8.632-8.725C637.114,297.156,641.349,301.248,641.409,306.063z"/>
<path fill="#F7FBF8" d="M561.332,314.977c-4.886-0.016-8.911-4.102-8.821-8.953c0.086-4.6,4.033-8.583,8.636-8.717
	c4.764-0.138,9.02,3.971,9.092,8.775C570.31,310.888,566.2,314.991,561.332,314.977z"/>
<path fill="#F6FBF8" d="M596.778,314.974c-4.956-0.11-8.656-4.079-8.505-9.12c0.142-4.722,3.983-8.514,8.653-8.539
	c4.878-0.026,8.769,3.953,8.736,8.938C605.633,311.294,601.769,315.086,596.778,314.974z"/>
<path fill="#F2F9F5" d="M709.768,260.039c-4.314,0-8.632,0.029-12.947-0.018c-1.418-0.015-3.32,0.342-3.253-1.947
	c0.053-1.786,1.622-1.856,2.963-1.859c8.798-0.022,17.596-0.015,26.394-0.017c1.404,0,2.924,0.225,3.007,1.877
	c0.112,2.223-1.764,1.948-3.214,1.956C718.399,260.055,714.084,260.04,709.768,260.039z"/>
<path fill="#EFF8F2" d="M606.918,260.034c-2.146,0.006-4.295-0.014-6.441,0.014c-1.255,0.016-2.452-0.228-2.563-1.662
	c-0.104-1.364,0.903-2.117,2.203-2.13c4.788-0.048,9.578-0.06,14.365,0.019c1.279,0.021,2.214,0.797,2.059,2.232
	c-0.134,1.238-1.146,1.502-2.189,1.513C611.873,260.046,609.396,260.028,606.918,260.034z"/>
<path fill="#EBF6EF" d="M906.359,716.648c-2.311,0-4.621,0.055-6.93-0.021c-1.239-0.041-2.32-0.549-2.242-2.051
	c0.064-1.213,0.957-1.646,2.052-1.65c4.62-0.014,9.239-0.026,13.859,0.008c1.242,0.011,2.353,0.396,2.248,1.963
	c-0.08,1.23-1.061,1.66-2.061,1.699c-2.306,0.092-4.618,0.029-6.928,0.029C906.359,716.632,906.359,716.64,906.359,716.648z"/>
<path fill="#FDFEFD" d="M1329.07,706.188c-2.812-0.007-5.621,0.032-8.431-0.025c-1.051-0.021-2.043-0.49-2.032-1.703
	c0.01-1.215,1.038-1.674,2.063-1.684c5.951-0.052,11.904-0.058,17.855-0.013c1.016,0.008,2.024,0.412,1.989,1.703
	c-0.032,1.238-0.959,1.693-2.02,1.709C1335.355,706.224,1332.213,706.193,1329.07,706.188z"/>
<path fill="#E7F4EC" d="M488.308,573.424c-2.155-1.103-6.402,1.635-6.397-2.236c0.004-2.979,4.088-1.7,6.298-1.639
	c2.352,0.067,6.633-1.631,6.657,1.773C494.891,574.921,490.553,572.374,488.308,573.424z"/>
<path fill="#EBF6EF" d="M269.15,556.175c-1.595-0.822-5.4,1.544-5.479-1.625c-0.09-3.606,3.844-1.578,5.969-2.164
	c0.309-0.085,0.67-0.057,0.993-0.002c1.777,0.301,4.769-0.803,4.695,2.035c-0.076,2.975-3.118,1.271-4.815,1.743
	C270.205,556.249,269.852,556.175,269.15,556.175z"/>
<path fill="#E9F5EE" d="M234.829,432.722c-1.123,0-1.629,0.054-2.119-0.01c-1.674-0.21-4.29,0.598-4.286-2.01
	c0.004-2.839,2.726-1.447,4.294-1.798c0.475-0.106,1.019-0.118,1.487,0c2.063,0.52,5.796-1.383,5.929,1.57
	C240.31,434.409,236.148,431.644,234.829,432.722z"/>
<path fill="#E7F4EC" d="M1314.465,465.807c0.822-0.002,1.646-0.045,2.465,0.009c1.433,0.093,3.31-0.163,3.217,2.008
	c-0.073,1.743-1.704,1.714-3.02,1.741c-1.973,0.041-3.947,0.041-5.92,0.014c-1.506-0.021-3.303-0.036-3.238-2.079
	c0.057-1.728,1.73-1.652,3.043-1.685C1312.162,465.785,1313.313,465.808,1314.465,465.807z"/>
<path fill="#E6F3EB" d="M509.356,573.179c-1.165,0-2.331,0.034-3.494-0.01c-1.074-0.041-2.071-0.463-2.143-1.634
	c-0.089-1.473,1.014-1.988,2.293-2.031c1.996-0.066,3.996-0.113,5.991-0.046c1.438,0.048,3.379-0.18,3.307,2.006
	c-0.072,2.245-2.082,1.613-3.46,1.751c-0.823,0.083-1.662,0.016-2.494,0.016C509.356,573.213,509.356,573.196,509.356,573.179z"/>
<path fill="#FCFEFD" d="M318.082,316.287c-0.655,0.003-1.321,0.079-1.963-0.012c-1.458-0.208-3.779,0.693-3.724-1.856
	c0.045-2.071,2.102-1.593,3.481-1.653c1.798-0.078,3.604-0.063,5.402,0.006c1.26,0.048,2.977-0.149,3.025,1.648
	c0.061,2.239-1.914,1.729-3.276,1.848C320.053,316.353,319.064,316.284,318.082,316.287z"/>
<path fill="#E8F4ED" d="M287.356,556.35c-1.759-0.721-4.786,1.032-4.771-1.999c0.013-2.759,2.903-1.904,4.669-1.927
	c1.788-0.021,4.654-0.746,4.451,2.219C291.524,557.274,288.725,555.569,287.356,556.35z"/>
<path fill="#FBFDFC" d="M1442.803,656.017c-14.947-0.028-26.322-11.975-26.154-27.464c0.166-15.462,11.693-27.063,26.742-26.91
	c14.812,0.149,25.963,11.839,25.904,27.149C1469.236,644.229,1457.732,656.048,1442.803,656.017z"/>
<path fill="#FBFDFB" d="M1369.314,628.918c0-7.494,0.141-14.991-0.068-22.479c-0.086-3.141,1.033-3.941,4.004-3.896
	c9.822,0.153,19.648,0.023,29.475,0.1c1.431,0.013,3.785-0.81,3.601,1.986c-0.156,2.346-2.24,1.502-3.525,1.515
	c-8.326,0.081-16.654,0.175-24.977-0.021c-3.267-0.077-4.929,0.518-4.66,4.285c0.377,5.289-1.697,12.227,0.942,15.477
	c2.781,3.421,9.988,0.781,15.25,1.071c2.656,0.146,5.359-0.224,7.98,0.107c1.941,0.243,5.488-1.699,5.49,1.803
	c0,3.103-3.433,1.628-5.306,1.683c-6.489,0.187-13.002,0.33-19.477-0.021c-4.107-0.226-5.168,1.272-4.879,5.084
	c0.377,4.948-1.58,11.569,0.932,14.469c2.896,3.34,9.682,0.887,14.771,1.08c4.988,0.188,9.99,0.043,14.984,0.051
	c1.381,0.002,2.719,0.012,2.756,1.979c0.043,2.145-1.5,1.813-2.756,1.815c-10.49,0.023-20.982-0.084-31.471,0.076
	c-2.986,0.045-3.115-1.445-3.094-3.686C1369.359,643.906,1369.316,636.412,1369.314,628.918z"/>
<path fill="#FAFDFB" d="M1337.465,602.004c5.656-0.197,10.512,1.339,14.896,4.32c1.067,0.728,3.012,1.259,1.551,3.371
	c-1.334,1.926-2.469,0.865-3.715-0.014c-5.166-3.641-10.892-4.865-17.08-3.718c-5.238,0.972-8.506,4.302-8.904,8.736
	c-0.469,5.214,2.357,8.188,6.881,9.679c4.41,1.45,8.988,2.383,13.438,3.721c8.934,2.687,12.559,7.259,11.922,14.78
	c-0.556,6.545-5.863,11.416-14.078,12.551c-8.16,1.128-15.492-1.112-21.978-6.141c-1.112-0.863-2.809-1.584-1.129-3.479
	c1.601-1.806,2.623-0.353,3.73,0.541c5.309,4.271,11.357,6.188,18.135,5.612c4.146-0.352,7.818-1.801,10.109-5.539
	c2.805-4.578,1.465-9.733-3.189-12.506c-3.35-1.994-7.174-2.563-10.869-3.526c-2.729-0.712-5.512-1.35-8.112-2.404
	c-6.604-2.679-9.099-6.483-8.832-12.914c0.229-5.551,3.758-9.929,9.668-12.032C1332.461,602.136,1335.084,601.817,1337.465,602.004z
	"/>
<path fill="#545BA8" d="M949.35,606.061c-128.305-0.017-256.608-0.033-384.912-0.051c-5.666-0.001-11.349-0.264-16.992,0.08
	c-4.624,0.282-5.066-2.063-5.059-5.768c0.085-35.325,0.051-70.65,0.051-105.978c0-4.316,0-8.635,0-14.035
	c4.681,2.898,8.719,5.289,12.643,7.854c7.105,4.646,14.26,9.237,21.16,14.176c3.102,2.221,4.938,1.771,7.483-0.863
	c9.492-9.825,19.323-19.323,28.813-29.152c2.469-2.559,4.203-2.941,7.018-0.635c21.729,17.808,43.58,35.466,65.282,53.305
	c2.473,2.032,4.046,1.965,6.389-0.03c7.087-6.033,14.441-11.752,21.52-17.796c5.629-4.808,5.726-4.934,11.676-0.526
	c22.056,16.339,44.161,32.612,66.142,49.053c3.399,2.542,5.192,2.138,7.438-1.431c13.826-21.979,27.93-43.785,41.711-65.793
	c2.319-3.704,4.168-3.889,7.888-2.002c15.893,8.063,31.992,15.71,47.939,23.665c2.695,1.344,4.39,1.276,6.338-1.2
	c5.342-6.793,10.971-13.356,16.361-20.113c1.896-2.376,3.647-2.655,6.397-1.276c11.164,5.599,22.438,10.978,33.691,16.396
	c1.637,0.788,3.377,1.362,5.068,2.035c-7.482,7.582-14.884,15.25-22.498,22.697c-2.398,2.347-3.062,4.141-0.093,6.313
	c0.533,0.389,0.951,0.931,1.423,1.401c5.786,5.796,5.864,5.883,11.831,0.444c1.81-1.647,3.013-1.698,4.453,0.124
	c0.103,0.129,0.236,0.232,0.353,0.353c2.896,2.984,7.115,5.522,8.315,9.079c1.209,3.573-3.155,6.884-4.981,10.338
	C954.016,572.188,950.262,588.738,949.35,606.061z"/>
<path fill="#545BA8" d="M977.58,508.946c8.777-4.817,16.055-11.692,23.994-17.644c17.281-12.949,34.32-26.22,51.459-39.359
	c0.764-0.587,1.43-1.616,2.541-1.118c1.117,0.5,0.84,1.705,0.85,2.65c0.051,4.493,0.043,8.988,0.058,13.482
	c-4.826,0.063-9.683,0.486-14.47,0.09c-4.83-0.401-6.276,1.568-5.646,5.949c0.069,0.489,0.008,0.998,0.008,1.497
	c-0.006,7.339-0.008,7.449,7.262,7.646c2.679,0.073,4.002,0.745,3.849,3.681c-0.219,4.148,1.145,8.986-0.564,12.29
	c-1.893,3.654-7.438,2.183-11.348,3.08c-18.715,4.299-35.369,12.598-49.637,25.442c-2.763,2.486-4.591,2.756-6.767-0.26
	c-0.479-0.666-1.162-1.188-1.75-1.777c-5.326-5.328-5.403-5.403-0.192-10.763C978.914,512.095,979.49,510.73,977.58,508.946z"/>
<path fill="#11123B" d="M980.402,531.553c-2.824,3.328-5.088,5.399-6.605,7.919c-2.438,4.05-4.479,3.845-7.223,0.359
	c-1.736-2.204-4.219-3.831-5.888-6.074c-3.229-4.343-6.096-4.059-8.954,0.172c-2.744,4.062-4.851,2.196-7.173-0.498
	c-1.188-1.379-0.897-2.171,0.229-3.286c7.551-7.489,15.106-14.976,22.553-22.568c2.547-2.597,3.293,0.277,4.568,1.29
	c1.406,1.117,2.69,2.084,0.697,4.289c-5.693,6.296-5.617,6.478,0.489,12.396C975.35,527.732,977.949,529.555,980.402,531.553z"/>
<path fill="#F79647" d="M1266.176,632.128c2.207-1.916,6.414-0.525,5.953-3.567c-0.563-3.717-4.201-0.267-6.547-1.509
	c0.459-2.762,2.338-3.929,4.994-4.071c2.891-0.155,4.795,1.449,5.627,4.041c0.783,2.438,0.006,4.675-2.166,6.138
	C1271.35,634.97,1268.846,634.535,1266.176,632.128z"/>
<path fill="#FBFDFC" d="M442.443,718.156c-19.579-0.06-35.068-15.607-35.063-35.197c0.008-19.816,15.717-35.418,35.523-35.283
	c19.53,0.133,35.192,15.822,35.181,35.24C478.073,702.57,462.251,718.212,442.443,718.156z"/>
<path fill="#E15C25" d="M398.936,432.705c4.496-0.005,8.992,0.016,13.488-0.016c1.498-0.012,3.399,0.02,3.464-1.949
	c0.074-2.243-1.981-1.78-3.37-1.787c-8.658-0.043-17.328-0.266-25.974,0.072c-4.385,0.171-4.576-1.774-3.908-5.071
	c2.874-14.191,15.621-24.91,30.595-25.658c14.135-0.706,27.954,9.252,32.051,23.096c5.064,17.121-4.828,35.41-21.811,40.314
	c-17.653,5.1-35.73-5.169-40.423-22.96c-1.507-5.715-1.302-6.006,4.397-6.032C391.276,432.696,395.106,432.71,398.936,432.705z"/>
<path fill="#11123B" d="M1274.332,242.177c15.301-0.009,30.6-0.018,45.9-0.026c3.397,2.952,1.364,6.726,0.928,9.827
	c-4.879,34.558-33.42,63.239-67.844,67.822c-26.136,3.479-49.354-3.817-68.15-22.322c-15.365-15.124-23.58-33.738-23.85-55.827
	c-0.229-18.76,4.942-35.596,16.307-50.196c14.684-18.863,34.043-29.72,58.242-31.479c23.223-1.688,43.42,5.597,60.356,21.072
	c15.447,14.114,23.865,32.114,25.638,53.088c0.139,1.641-0.228,2.957-1.621,3.902c-15.297-0.008-30.592-0.016-45.887-0.024
	c-1.392-1.255-2.263-2.722-2.693-4.624c-3.834-16.895-18.402-25.088-32.115-24.241c-15.664,0.967-28.238,13.676-28.979,29.233
	c-0.703,14.752,8.799,29.19,25.981,32.266c15.234,2.727,30.433-6.878,34.931-22.286
	C1272.119,246.155,1272.197,243.691,1274.332,242.177z"/>
<path fill="#E15C25" d="M1352.732,242.21c-1.515,53.855-38.234,97.151-91.172,107.496c-58.722,11.475-118.47-29.221-129.162-87.974
	c-11.422-62.763,28.334-120.364,90.77-131.512c60.389-10.781,119.965,32.543,128.453,93.298c0.672,4.809,0.863,9.607,1.121,14.423
	c-8.473,0.443-16.947,0.407-25.42,0.016c-3.846-3.726-2.289-8.848-3.148-13.261c-4.098-21.038-14.649-37.966-31.418-51.041
	c-14.76-11.508-31.694-17.481-50.363-17.546c-24.299-0.084-45.022,8.857-61.832,26.492c-10.436,10.948-17.573,23.795-20.764,38.612
	c-5.897,27.395-0.147,52.247,18.141,73.48c18.689,21.697,42.724,31.108,71.445,28.895c36.047-2.775,67.896-31.049,74.676-67.659
	c0.576-3.111,0.761-6.236,1.261-9.338c0.272-1.7,0.504-3.282,1.965-4.388C1335.768,242.206,1344.25,242.208,1352.732,242.21z"/>
<path fill="#FAFCFB" d="M1320.238,238.037c-2.517-39.362-27.629-68.194-65.67-75.39c-40.802-7.719-82.709,21.284-90.111,62.36
	c-8.688,48.211,25.27,91.09,74.234,93.738c39.698,2.146,76.994-29.743,80.848-69.136c0.242-2.485,0.463-4.974,0.693-7.46
	c1.168,0,2.336-0.001,3.502-0.001c3.28,3.171,1.532,7.159,0.985,10.434c-6.088,36.517-33.162,64.121-68.022,69.959
	c-33.203,5.56-60.629-5.081-81.664-31.313c-11.822-14.743-17.439-32.003-17.512-50.849c-0.138-35.652,22.51-67.468,55.635-79.208
	c25.735-9.122,50.578-6.465,73.418,8.15c23.188,14.836,36.352,36.398,38.641,64.192c0.154,1.872-0.367,3.228-1.492,4.531
	C1322.561,238.043,1321.398,238.04,1320.238,238.037z"/>
<path fill="#E15C25" d="M1264.943,237.942c-6.974,0.052-13.947,0.074-20.922,0.174c-1.714,0.024-4.242-0.519-4.063,2.222
	c0.146,2.215,2.455,1.728,4.045,1.744c6.978,0.072,13.953,0.097,20.931,0.14c2.53,3.226,1.051,6.391-0.396,9.355
	c-5.049,10.345-17.119,15.854-27.801,13.894c-12.197-2.239-21.068-14.6-20.568-25.234c0.582-12.384,6.978-21.619,18.476-24.753
	c11.313-3.083,23.446,1.715,29.227,11.776C1265.762,230.55,1267.686,234.077,1264.943,237.942z"/>
<path fill="#545BA8" d="M1264.943,237.942c-1.943-12.019-9.806-20.09-20.5-21.047c-11.437-1.023-21.392,4.778-24.851,14.983
	c-3.053,9.01-1.727,17.488,5.045,24.485c6.566,6.786,14.767,8.999,23.742,6.196c9.785-3.056,15.34-10.056,16.553-20.34
	c1.857-0.015,3.716-0.029,5.574-0.044c2.021,1.693,1.607,3.785,1.045,5.955c-3.504,13.505-16.006,22.971-30.266,22.882
	c-14.162-0.088-26.474-9.788-29.738-23.433c-3.301-13.793,2.48-27.208,14.859-34.482c11.207-6.586,26.688-4.845,36.502,4.513
	c4.221,4.026,7.287,9.004,8.608,14.869c0.459,2.034,0.734,3.946-1.022,5.528C1268.645,237.986,1266.795,237.965,1264.943,237.942z"
	/>
<g>
	<g>
		<path fill="#11123B" d="M1139.41,495.771c0.938,0.801,1.561,1.264,2.104,1.807c7.421,7.4,14.746,14.902,22.293,22.173
			c2.406,2.318,0.607,3.309-0.75,4.687c-1.387,1.407-2.342,2.979-4.733,0.746c-6.076-5.669-6.213-5.521-12.068,0.328
			c-8.219,8.212-8.154,8.145-16.557,0.065c-1.824-1.754-1.646-2.675,0.02-4.24c3.394-3.188,6.515-6.669,9.953-9.804
			c2.072-1.891,2.377-3.332,0.043-5.124c-1.047-0.803-1.996-1.784-2.809-2.826c-0.728-0.933-2.717-1.491-1.623-3.125
			C1136.375,498.827,1137.881,497.475,1139.41,495.771z"/>
		<path fill="#11123B" d="M1058.51,471.013c4.99,0,9.986,0.137,14.969-0.054c2.72-0.104,3.462,0.977,3.328,3.477
			c-0.119,2.232,0.185,4.118-3.184,4.284c-8.006,0.396-7.998,0.579-7.998,8.759c0,0.334,0,0.665,0,0.998
			c-0.002,11.438,0.004,11.358-11.609,10.596c-2.252-0.148-2.84-0.945-2.774-2.975c0.094-2.99,0.174-5.998-0.023-8.979
			c-0.217-3.275,0.187-5.634,4.384-4.98c1.233,0.191,2.405-0.396,2.25-1.924c-0.121-1.19-1.177-1.512-2.238-1.521
			c-3.992-0.035-7.99-0.193-11.974-0.009c-3.004,0.14-3.604-1.242-3.592-3.887c0.012-2.558,0.39-4,3.494-3.85
			C1048.52,471.19,1053.518,471.013,1058.51,471.013z"/>
		<path fill="#11123B" d="M1352.732,242.21c1.192-0.019,2.387-0.038,3.58-0.057c-1.888,57.29-42.386,102.985-98.923,111.614
			c-60.776,9.276-120.135-34.866-129.038-95.966c-9.438-64.777,33.946-122.381,99.084-131.557
			c59.243-8.346,117.877,35.187,127.063,94.424c0.891,5.744,1.236,11.574,1.836,17.364c-1.197-0.03-2.396-0.062-3.594-0.092
			c-2.084-1.105-2.238-3.057-2.416-5.118c-3.195-36.941-20.117-65.694-51.59-85.506c-19.937-12.551-41.935-17.896-65.326-15.981
			c-23.476,1.922-44.539,10.324-62.633,25.807c-22.808,19.516-35.316,44.489-37.904,74.015c-2.58,29.463,6.088,55.896,25.02,78.827
			c17.056,20.657,38.992,33.294,65.171,37.592c31.758,5.214,60.944-1.885,86.323-22.158c24.855-19.854,38.308-45.919,40.931-77.589
			C1350.496,245.646,1350.396,243.427,1352.732,242.21z"/>
		<path fill="#11123B" d="M1323.723,238.046c-1.182-45.27-38.03-80.774-83.207-80.172c-45.186,0.604-81.16,37.057-81.184,82.265
			c-0.023,45.143,35.789,81.401,81.238,82.25c44.776,0.839,81.85-34.931,83.164-80.24c1.184,0.018,2.367,0.036,3.549,0.054
			c-0.949,42.609-33.781,78.421-76.027,82.931c-46.557,4.969-87.754-26.812-94.633-73.001
			c-7.168-48.138,29.127-93.619,77.633-97.282c45.209-3.414,83.779,26.428,91.881,71.188c0.709,3.916,0.806,7.943,1.187,11.918
			C1326.121,237.986,1324.922,238.017,1323.723,238.046z"/>
		<path fill="#11123B" d="M964.121,133.103c-5.199-0.005-9.555-4.28-9.604-9.427c-0.053-5.348,4.5-9.773,9.925-9.646
			c5.274,0.124,9.293,4.356,9.219,9.713C973.586,129.119,969.521,133.108,964.121,133.103z"/>
		<path fill="#11123B" d="M1243.975,515.945c5.142,0.107,9.498,4.586,9.416,9.679c-0.082,5.128-4.485,9.408-9.686,9.413
			c-5.516,0.005-9.697-4.362-9.508-9.934C1234.375,519.8,1238.611,515.833,1243.975,515.945z"/>
		<path fill="#11123B" d="M669.277,765.146c0.027-5.392,4.069-9.4,9.484-9.406c5.33-0.008,9.539,4.094,9.615,9.371
			c0.078,5.366-4.505,9.932-9.822,9.778C673.331,774.742,669.249,770.455,669.277,765.146z"/>
		<path fill="#11123B" d="M214.009,205.132c-0.023,5.127-4.461,9.607-9.546,9.638c-5.014,0.03-9.624-4.461-9.757-9.505
			c-0.138-5.257,4.571-9.958,9.864-9.846C209.747,195.527,214.033,199.938,214.009,205.132z"/>
		<path fill="#11123B" d="M210.323,423.594c3.392,0.459,5.499,2.27,5.339,5.846c-0.155,3.492-2.241,5.572-5.736,5.435
			c-3.437-0.137-5.494-2.267-5.411-5.778C204.6,425.525,206.878,423.888,210.323,423.594z"/>
		<path fill="#11123B" d="M940.549,720.347c-3.563-0.127-5.746-2.061-5.836-5.473s2.033-5.662,5.514-5.775
			c3.521-0.112,5.701,2.099,5.813,5.476C946.152,717.982,944.086,720.044,940.549,720.347z"/>
		<path fill="#11123B" d="M1341.65,469.016c-0.189,3.599-2.177,5.729-5.582,5.751c-3.386,0.023-5.59-2.003-5.638-5.594
			c-0.049-3.607,2.134-5.641,5.521-5.688C1339.361,463.438,1341.406,465.489,1341.65,469.016z"/>
		<path fill="#11123B" d="M151.533,501.155c-0.312,3.466-2.253,5.661-5.643,5.698c-3.396,0.038-5.547-2.038-5.608-5.604
			c-0.062-3.603,2.032-5.63,5.483-5.66C149.215,495.56,151.165,497.648,151.533,501.155z"/>
		<path fill="#11123B" d="M247.625,547.123c3.358,0.616,5.66,2.479,5.562,5.963c-0.098,3.448-2.365,5.628-5.82,5.545
			c-3.456-0.082-5.634-2.385-5.557-5.813C241.886,549.38,244.214,547.535,247.625,547.123z"/>
		<g>
			<path fill="#11123B" d="M1491.451,569.015c0,39.667,0,79.333,0,119c-1.51,1.976-3.646,2.013-5.867,2.013
				c-68.488-0.015-136.977-0.021-205.467,0.022c-3.725,0.002-6.201-1.233-8.051-4.617c-8.14-14.897-16.086-29.899-24.244-44.788
				c-2.688-4.908-1.353-7.619,4.061-8.479c2.137-0.34,4.269-0.707,6.387-1.123c2.625-0.516,4.853-0.297,6.619,2.148
				c2.463,3.405,5.941,3.635,9.354,1.85c3.004-1.57,4.785-4.354,3.957-7.875c-0.783-3.322-3.08-5.717-6.578-5.985
				c-3.777-0.288-6.906,1.163-8.086,5.19c-0.859,2.934-2.894,4.183-5.758,4.785c-2.938,0.614-5.931,0.858-8.849,1.557
				c-2.332,0.558-4.328-0.065-5.725-2.047c-1.283-1.821-1.156-3.826-0.109-5.677c10.146-17.974,19.742-36.243,29.592-54.376
				c1.16-2.136,2.832-3.168,5.246-3.097c1.164,0.035,2.332-0.002,3.498-0.002c67.656,0,135.313-0.007,202.97,0.027
				C1486.811,567.543,1489.471,566.771,1491.451,569.015z"/>
			<path fill="#11123B" d="M977.58,508.946c-0.955-0.895-1.93-1.768-2.859-2.686c-5.53-5.459-5.526-5.463-11.328-0.287
				c-2.475,1.803-4.737,0.599-7.02-0.479c-9.936-4.696-19.99-9.153-29.678-14.352c-3.457-1.854-5.854-1.699-8.572,1.598
				c-4.443,5.384-8.841,10.817-13.457,16.066c-4.021,4.574-6.071,5.289-11.675,2.47c-14.433-7.262-29.229-13.769-43.58-21.195
				c-5.746-2.976-6.381-2.647-9.845,2.938c-12.721,20.515-25.999,40.673-38.833,61.113c-3.747,5.969-6.91,6.52-12.716,2.283
				c-21.241-15.498-42.306-31.239-63.51-46.789c-5.584-4.096-6.154-4.039-11.518,0.417c-6.143,5.104-12.34,10.138-18.483,15.24
				c-5.088,4.226-7.393,4.034-12.718-0.171c-20.626-16.289-40.786-33.154-61.277-49.61c-3.419-2.746-5.597-2.428-8.446,0.487
				c-8.386,8.578-16.898,17.031-25.428,25.469c-5.559,5.499-7.163,5.609-13.788,1.262c-7.794-5.114-15.361-10.574-23.406-15.307
				c-4.499-2.646-4.79-2.543-4.799,2.744c-0.032,25.825-0.016,51.65-0.014,77.478c0.001,9.997-0.059,19.994,0.027,29.991
				c0.048,5.479,0.664,6.043,5.995,6.19c1.999,0.056,3.999,0.02,5.998,0.02c127.63,0.001,255.26-0.01,382.889,0.049
				c3.352,0.001,7.119-1.124,9.809,2.176c0.084,7.711,1.181,15.333,2.023,22.979c-1.102,1.821-2.92,2.018-4.787,2.124
				c-2.496,0.143-4.994,0.117-7.492,0.117c-133.071,0.004-266.145,0.01-399.217-0.029c-3.44,0-7.024,0.693-10.264-1.225
				c-0.046-1.497-0.132-2.993-0.132-4.49c-0.008-95.657-0.014-191.315,0.008-286.973c0.002-6.898-0.962-6.269,6.541-6.27
				c177.816-0.014,355.634-0.01,533.45-0.021c2.661,0,5.325-0.147,7.987-0.227c-1.125,1.979-1.02,4.15-1.02,6.313
				c0.012,42.864,0.018,85.73,0.022,128.597c-6.663,0.001-13.327,0.001-19.991,0.002c-3.834-3.236-1.039-7.955-2.617-11.792
				c-1.891-0.207-2.951,1.223-4.221,2.158c-21.72,15.989-42.677,32.974-64.263,49.132
				C983.182,508.103,981.109,511.072,977.58,508.946z"/>
			<path fill="#11123B" d="M441.944,751.083c-38.159,0-76.317,0.002-114.477-0.002c-7.006,0-7.02-0.012-7.021-6.711
				c-0.004-46.322,0.072-92.648-0.108-138.971c-0.02-5.029,1.337-6.5,6.438-6.485c60.486,0.171,120.974,0.177,181.46-0.008
				c5.282-0.017,6.369,1.767,6.308,6.616c-0.243,19.325-0.105,38.656-0.098,57.986c0.004,6.488,0.021,6.498,6.699,6.502
				c12.331,0.009,24.664,0.146,36.991-0.075c4.188-0.076,5.417,1.377,5.392,5.467c-0.153,23.328-0.205,46.658,0.033,69.983
				c0.051,4.875-1.813,5.785-6.145,5.771C518.928,751.031,480.436,751.083,441.944,751.083z"/>
			<path fill="#11123B" d="M1058.359,502.722c61.358-0.121,109.758,52.187,104.893,113.521c-0.459,5.776-1.895,11.474-2.813,17.217
				c-0.505,3.148-1.914,4.418-5.05,2.838c-1.184-0.596-2.521-0.91-3.647-1.588c-4.422-2.658-4.562-6.637-0.273-9.456
				c1.511-0.992,3.306-1.547,4.949-2.343c1.074-0.521,1.385-1.441,0.883-2.48c-0.396-0.82-1.186-0.926-2.102-0.87
				c-4.174,0.251-9.875,4.893-10.461,8.896c-0.746,5.085,2.209,8.001,6.328,10.234c2.16,1.17,6.041,0.725,6.377,3.03
				c0.354,2.457-1.48,5.318-2.609,7.896c-19.072,43.529-63.205,68.268-111.061,62.297c-44.447-5.545-81.371-41.615-89.123-87.056
				c-9.777-57.325,30.887-113.012,88.28-121.046C1048.074,503.092,1053.209,502.948,1058.359,502.722z"/>
			<path fill="#11123B" d="M529.613,630.025c1.972-1.202,4.168-1,6.326-1c138.479,0.002,276.955,0.008,415.434,0.013
				c2.594,9.262,5.01,18.586,9.594,27.106c-1.541,1.471-3.098,0.885-4.469,0.885c-140.631,0.033-281.263,0.014-421.896,0.123
				c-4.083,0.004-5.483-0.879-5.241-5.146C529.775,644.697,529.563,637.355,529.613,630.025z"/>
			<path fill="#11123B" d="M364.892,432.74c3.996,0,8.463-1.118,11.856,0.312c3.44,1.45,2.305,6.606,3.587,10.022
				c6.41,17.078,24.324,26.858,42.244,22.804c17.129-3.877,29.263-20.592,27.753-38.233c-1.524-17.813-15.996-31.899-33.785-32.887
				c-18.688-1.037-34.558,11.323-37.734,29.95c-0.651,3.824-2.029,4.425-5.343,4.297c-5.987-0.231-12.001-0.29-17.982,0.015
				c-3.809,0.194-4.429-1.239-3.946-4.621c3.654-25.608,25.068-47.88,50.443-52.3c42.288-7.365,78.55,26.106,74.339,68.883
				c-1.379,14.003-7.198,26.277-17.092,36.354c-14.119,14.381-28.491,28.513-42.632,42.874c-2.107,2.143-3.22,2.324-5.432,0.076
				c-14.134-14.366-28.563-28.444-42.635-42.87c-10.873-11.146-16.577-24.691-17.498-40.303c-0.21-3.556,0.833-4.806,4.365-4.521
				c3.145,0.253,6.325,0.054,9.49,0.054C364.892,432.677,364.892,432.708,364.892,432.74z"/>
			<path fill="#11123B" d="M1270.496,238.009c-1.326-15.918-14.353-27.53-30.246-26.967c-15.262,0.54-27.791,13.663-27.781,29.095
				c0.012,15.287,12.426,28.436,27.336,28.954c16.482,0.573,29.381-10.733,30.703-26.914c1.275,0,2.551,0,3.824-0.001
				c-1.758,17.552-14.941,30.373-31.643,30.775c-17.107,0.411-31.011-11.4-33.634-28.578c-2.522-16.523,9.197-33.139,25.642-36.346
				c17.703-3.452,34.692,7.104,38.688,24.087c0.455,1.935,0.65,3.931,0.965,5.898
				C1273.066,238.012,1271.781,238.01,1270.496,238.009z"/>
			<path fill="#11123B" d="M479.551,258.218c-0.55-0.038-1.813,0.147-2.855-0.248c-4.272-1.618-6.504-0.044-7.451,4.218
				c-0.49,2.208-1.455,3.27-4.222,2.173c-2.809-1.112-2.715-2.551-1.52-4.485c2.499-4.044,1.285-6.538-2.78-8.593
				c-3.271-1.654-5.846-4.383-8.355-7.067c-4.697-5.021-4.595-5.277,1.054-8.893c1.934-1.237,2.979-1.314,4.316,0.768
				c2.169,3.375,5,6.207,8.262,8.6c2.167,1.59,3.629,1.255,4.504-1.332c0.158-0.471,0.354-0.938,0.594-1.37
				c4.28-7.686,5.617-14.115-3.334-20.459c-6.635-4.702-6.775-11.802-3.225-18.924c3.336-6.689,9.424-9.523,18.543-8.587
				c2.929,0.3,6.124,2.219,7.669-2.557c0.514-1.588,2.624,0.004,3.978,0.396c1.375,0.398,2.008,1.217,1.259,2.591
				c-1.74,3.189,0.48,4.355,2.678,5.811c2.066,1.369,3.993,3.006,5.771,4.738c4.579,4.459,4.44,4.411-0.459,8.32
				c-2.006,1.602-2.982,1.558-4.77-0.413c-7.646-8.431-7.445-8.228-11.969,2.085c-2.289,5.221-2.697,8.712,2.687,12.429
				c5.126,3.538,8.836,8.767,8.009,15.692C496.773,252.815,490.142,258.362,479.551,258.218z"/>
			<path fill="#11123B" d="M615.192,222.24c-3.66-0.386-5.815-2.09-5.769-5.681c0.047-3.52,2.037-5.546,5.571-5.527
				c3.521,0.018,5.516,2.034,5.541,5.563C620.563,220.199,618.338,221.823,615.192,222.24z"/>
			<path fill="#11123B" d="M296.206,307.336c3.387,0.357,5.711,2.134,5.786,5.629c0.074,3.454-2.038,5.747-5.506,5.844
				c-3.469,0.098-5.722-2.109-5.843-5.527C290.521,309.813,292.777,307.895,296.206,307.336z"/>
			<path fill="#11123B" d="M637.589,306.297c-0.377,3.022-1.973,4.856-5.137,4.782c-3.166-0.073-4.931-2.057-4.869-5.041
				c0.061-3.012,2.068-4.949,5.102-4.871C635.696,301.245,637.396,303.165,637.589,306.297z"/>
			<path fill="#11123B" d="M566.479,306.206c-0.468,2.927-1.93,4.919-5.116,4.867c-3.114-0.05-4.919-1.802-4.914-4.941
				c0.006-3.159,1.969-4.953,4.955-4.96C564.434,301.165,566.086,303.16,566.479,306.206z"/>
			<path fill="#11123B" d="M596.577,311.122c-3.018-0.298-4.665-2.224-4.529-5.282c0.128-2.863,2.067-4.689,4.884-4.688
				c3.075,0.003,5.063,1.979,4.993,5.072C601.856,309.262,600.045,311.104,596.577,311.122z"/>
		</g>
	</g>
</g>
<path fill="#F79647" d="M1443.213,652.33c-12.488,0.094-22.176-9.947-22.414-23.233c-0.242-13.359,9.65-24.07,22.176-24.012
	c12.291,0.06,22.05,10.444,22.193,23.624C1465.313,641.943,1455.744,652.236,1443.213,652.33z"/>
<path fill="#E15C25" d="M1061.387,514.429c50.443,2.504,88.392,40.475,90.285,90.344c-1.049,2.243-3.1,2.229-5.115,2.229
	c-26.934,0.018-53.864,0.055-80.799-0.029c-4.629-0.015-6.258-1.699-6.27-6.431c-0.072-27.099-0.043-54.198-0.027-81.297
	C1059.461,517.38,1059.523,515.547,1061.387,514.429z"/>
<path fill="#FBFAF7" d="M1061.387,514.429c-0.063,28.944-0.096,57.89-0.229,86.832c-0.015,2.768,0.803,3.749,3.682,3.734
	c28.943-0.146,57.887-0.167,86.832-0.224c1.281,0.354,2.104,1.088,1.729,2.516c-0.3,1.146-1.308,1.393-2.339,1.438
	c-0.998,0.047-1.995,0.039-2.995,0.039c-28.285,0.001-56.57-0.086-84.854,0.093c-4.461,0.026-5.971-1.034-5.934-5.787
	c0.229-28.782,0.104-57.567,0.147-86.353c0.002-1.356-0.76-3.175,1.203-3.901C1060.053,512.29,1060.668,513.538,1061.387,514.429z"
	/>
<path fill="#ECF6F0" d="M969.154,609.938c-2.121-1.029-6.381,1.584-6.342-2.313c0.03-3.137,4.081-1.65,6.229-1.58
	c2.428,0.08,6.852-1.843,6.891,1.887C975.967,611.192,971.561,609.104,969.154,609.938z"/>
<path fill="#F1F8F4" d="M1056.223,698.435c1.127-2.229-1.395-6.178,2.375-6.161c3.113,0.014,1.879,3.766,1.681,5.717
	c-0.267,2.604,2.02,7.354-1.957,7.377C1054.691,705.386,1057.635,700.611,1056.223,698.435z"/>
<path fill="#545BA8" d="M411.137,683.121c-0.095-17.582,14.15-31.955,31.6-31.883c17.244,0.071,31.521,14.295,31.619,31.498
	c0.099,17.477-14.224,31.825-31.731,31.795C425.188,714.5,411.231,700.578,411.137,683.121z"/>
<path fill="#F6FBF8" d="M479.195,249.974c-3.486-0.023-5.584-0.959-3.726-5.033c1.372-3.007,2.55-6.105,3.721-9.198
	c0.992-2.624,2.39-2.945,4.386-1.015c2.894,2.798,4.938,5.877,3.308,10.133C485.538,248.373,482.916,250.014,479.195,249.974z"/>
<path fill="#F9FCFA" d="M473.142,211.202c0.281-5.396,2.243-8.001,6.064-8.971c1.946-0.493,4.174-0.566,5.686,0.851
	c1.684,1.576,0.099,3.398-0.479,5.022c-0.881,2.485-2.007,4.883-2.889,7.367c-1.307,3.679-3.13,3.209-5.346,0.836
	C474.442,214.447,473.032,212.462,473.142,211.202z"/>
<path fill="#FCFEFD" d="M433.73,666.669c9.104,5.234,17.43,10.012,25.743,14.81c1.441,0.831,2.038,1.715,0.13,2.811
	c-8.439,4.848-16.857,9.736-25.873,14.949C433.73,688.125,433.73,677.908,433.73,666.669z"/>
<path fill="#11123B" d="M479.325,246.036c0.823-2.664,1.271-4.858,2.87-6.624C484.425,243.509,484.108,244.378,479.325,246.036z"/>
<path fill="#11123B" d="M478.077,212.534c-2.115-2.316-1.335-4.259,0.495-6.042c0.638-0.622,2.082-0.668,2.066-0.025
	C480.588,208.705,479.833,210.828,478.077,212.534z"/>
<path fill="#FEFEFD" d="M-527.523-1548.146c-3.884-18.878-10.517-36.647-21.107-52.84c-10.104-15.448-22.387-28.914-36.717-40.537
	c-22.095-17.92-46.97-30.796-73.471-40.804c-8.452-3.192-16.949-5.91-25.809-6.567l0.105-0.295l-26.026,0.096
	c-14.655-0.216-29.314-0.022-43.976,0.163l-5.965,0.022c-15.033-0.47-30.072-0.102-45.109-0.199
	c-8.805-0.058-17.609-0.013-26.415,0.062c-14.161-0.172-28.323-0.024-42.483-0.06c-1.602-0.003-3.176,0.061-4.605,0.636
	l-349.592,1.294c-3.607-0.013-4.471,1.211-4.424,4.594c0.145,10.49-0.021,20.984-0.065,31.477
	c0.059,13.134,0.174,26.268,0.165,39.401c-0.025,35.916-0.104,71.832-0.161,107.747c0.037,1.498,0.105,2.996,0.105,4.494
	c0.021,167.559,0.035,335.117,0.043,502.674c0,1.498-0.094,2.994-0.144,4.492c0.071,12.385,0.143,24.771,0.215,37.156
	c0.06,0.068,0.126,0.119,0.187,0.184v67.676l111.234,0.188c1.507,0.156,3.066,0.045,4.595,0.045
	c8.161,0.002,16.323,0.002,24.484,0.004l8.687,0.014l0.002-0.014c61.923,0.008,123.845,0.004,185.768,0.055
	c2.984,0.002,5.958-0.873,8.946-0.117c16.773,0.18,33.546,0.086,50.319,0.049c16.936-0.039,33.873,0.285,50.807-0.201
	c3.159-0.105,6.303,0.25,9.466,0.25c61.924-0.035,123.849-0.027,185.771-0.027c2.496,0,4.995,0.066,7.479-0.318
	c6.467,0.615,12.952,0.332,19.422,0.252c5.284-0.066,10.632,0.795,15.854-0.768c3.004-1.656,3.477-4.773,4.267-7.609
	c8.796-31.576,10.959-63.439,5.014-95.861c-6.094-33.232-19.102-63.314-39.347-90.295c-12.443-16.582-27.43-30.835-42.023-45.438
	c-8.142-8.146-15.652-16.817-22.387-26.163c-17.816-24.721-23.541-52.238-18.344-82.006c3.799-21.755,14.115-40.761,26.407-58.799
	c1.852-2.57,3.263-5.408,5.058-8.014c24.415-35.446,51.707-68.889,73.79-105.952c11.694-19.688,20.794-40.474,26.803-62.614
	c2.53-9.323,3.689-18.867,5.278-28.342C-522.731-1515.498-524.078-1531.863-527.523-1548.146z"/>
<image overflow="visible" enable-background="new    " width="1200" height="630" xlink:href="E:\46043.png"  transform="matrix(1 0 0 1 -8396.001 -8200.5)">
</image>
</svg>
