<?xml version="1.0" encoding="utf-8"?>
<!-- Generator: Adobe Illustrator 16.0.0, SVG Export Plug-In . SVG Version: 6.00 Build 0)  -->
<!DOCTYPE svg PUBLIC "-//W3C//DTD SVG 1.1//EN" "http://www.w3.org/Graphics/SVG/1.1/DTD/svg11.dtd">
<svg version="1.1" id="Layer_1" xmlns="http://www.w3.org/2000/svg" xmlns:xlink="http://www.w3.org/1999/xlink" x="0px" y="0px"
	 width="331.26px" height="136.104px" viewBox="0 0 331.26 136.104" enable-background="new 0 0 331.26 136.104"
	 xml:space="preserve">
<path opacity="0.05" fill="#5D5D5D" d="M288.704,55.095c-5.905,0-10.706-4.816-10.689-10.729
	c0.014-5.864,4.814-10.648,10.688-10.649c5.904-0.001,10.705,4.816,10.689,10.729C299.376,50.31,294.574,55.094,288.704,55.095z
	 M290.03,40.124c-2.402,0-4.756-0.021-7.106,0.036c-0.213,0.005-0.586,0.517-0.592,0.8c-0.049,2.31-0.021,4.619-0.034,6.93
	c-0.003,0.573,0.276,0.81,0.813,0.81c3.729,0.001,7.457,0.001,11.188,0c0.535,0,0.813-0.237,0.813-0.812
	c-0.014-2.311,0.002-4.62-0.021-6.93c-0.002-0.246-0.121-0.581-0.303-0.72c-0.613-0.46-1.912-0.049-2.301,0.721
	c0.584,0.029,1.146,0.06,1.703,0.088c0,2.087,0,4.078,0,6.104c-3.683,0-7.313,0-10.957,0c0-2.066,0-4.081,0-6.151
	c1.953,0,3.843-0.019,5.73,0.01C289.558,41.016,289.89,40.805,290.03,40.124z M287.851,44.27c0.034,0.113,0.069,0.229,0.104,0.343
	c0.254-0.065,0.596-0.051,0.75-0.212c1.356-1.435,2.688-2.895,4.012-4.358c0.2-0.221,0.418-0.495,0.456-0.769
	c0.036-0.255-0.08-0.652-0.271-0.782c-0.176-0.121-0.557-0.023-0.811,0.073c-0.213,0.081-0.414,0.271-0.55,0.464
	C290.304,40.769,289.078,42.521,287.851,44.27z M289.927,49.116c-0.812,0-1.639,0-2.455,0c-0.179,0.444-0.345,0.865-0.505,1.27
	c1.168,0,2.334,0,3.489,0C290.269,49.934,290.103,49.538,289.927,49.116z M286.063,46.117c0.614-0.111,1.162-0.183,1.689-0.322
	c0.18-0.047,0.436-0.271,0.436-0.414c0-0.205-0.153-0.474-0.326-0.602c-0.469-0.346-0.87-0.245-1.154,0.292
	C286.546,45.381,286.344,45.668,286.063,46.117z"/>
<path opacity="0.05" fill="#5D5D5D" d="M157.4,130.815c-5.905,0-10.706-4.816-10.689-10.729c0.014-5.864,4.814-10.648,10.688-10.649
	c5.904-0.001,10.705,4.816,10.689,10.729C168.071,126.03,163.27,130.814,157.4,130.815z M158.726,115.844
	c-2.402,0-4.756-0.021-7.106,0.036c-0.213,0.005-0.586,0.517-0.592,0.8c-0.049,2.31-0.021,4.619-0.034,6.93
	c-0.003,0.573,0.276,0.81,0.813,0.81c3.729,0.001,7.457,0.001,11.188,0c0.535,0,0.813-0.237,0.813-0.812
	c-0.014-2.311,0.002-4.62-0.021-6.93c-0.002-0.246-0.121-0.581-0.303-0.72c-0.613-0.46-1.912-0.049-2.301,0.721
	c0.584,0.029,1.146,0.06,1.703,0.088c0,2.087,0,4.078,0,6.104c-3.683,0-7.313,0-10.957,0c0-2.066,0-4.081,0-6.151
	c1.953,0,3.843-0.019,5.73,0.01C158.253,116.736,158.585,116.525,158.726,115.844z M156.546,119.99
	c0.034,0.113,0.069,0.229,0.104,0.343c0.254-0.065,0.596-0.051,0.75-0.212c1.356-1.435,2.688-2.895,4.012-4.358
	c0.2-0.221,0.418-0.495,0.456-0.769c0.036-0.255-0.08-0.652-0.271-0.782c-0.176-0.121-0.557-0.023-0.811,0.073
	c-0.213,0.081-0.414,0.271-0.55,0.464C159,116.489,157.774,118.24,156.546,119.99z M158.623,124.836c-0.812,0-1.639,0-2.455,0
	c-0.179,0.444-0.345,0.865-0.505,1.27c1.168,0,2.334,0,3.489,0C158.964,125.654,158.798,125.258,158.623,124.836z M154.759,121.837
	c0.614-0.111,1.162-0.183,1.689-0.322c0.18-0.047,0.436-0.271,0.436-0.414c0-0.205-0.153-0.474-0.326-0.602
	c-0.469-0.346-0.87-0.245-1.154,0.292C155.242,121.101,155.04,121.388,154.759,121.837z"/>
<path opacity="0.05" fill="#5D5D5D" d="M165.587,58.173c-2.95,0-5.9,0.003-8.852-0.001c-1.408-0.002-1.795-0.384-1.795-1.765
	c-0.002-5.094-0.002-10.188,0-15.279c0.002-1.304,0.398-1.72,1.672-1.722c6.012-0.005,12.023-0.005,18.035,0
	c1.273,0.001,1.67,0.417,1.671,1.722c0.002,5.093,0.002,10.188,0,15.279c0,1.381-0.387,1.763-1.797,1.765
	C171.544,58.176,168.566,58.173,165.587,58.173z M156.277,56.873c6.289,0,12.479,0,18.675,0c0-4.717,0-9.375,0-14.036
	c-6.257,0-12.448,0-18.675,0C156.277,47.532,156.277,52.172,156.277,56.873z M174.425,40.136c-0.133-0.003-0.268-0.008-0.401-0.012
	c-0.229,0.318-0.672,0.666-0.635,0.949c0.043,0.315,0.483,0.721,0.819,0.803c0.191,0.047,0.707-0.453,0.738-0.743
	C174.98,40.824,174.618,40.47,174.425,40.136z M172.794,41.251c-0.004-0.133-0.008-0.266-0.012-0.396
	c-0.326-0.197-0.688-0.59-0.971-0.538c-0.313,0.057-0.555,0.518-0.828,0.801c0.292,0.271,0.563,0.727,0.881,0.763
	C172.148,41.911,172.482,41.479,172.794,41.251z M170.438,41.288c0.003-0.129,0.006-0.258,0.009-0.387
	c-0.318-0.212-0.664-0.619-0.953-0.584c-0.312,0.038-0.572,0.491-0.854,0.764c0.276,0.284,0.528,0.753,0.839,0.798
	C169.764,41.919,170.116,41.503,170.438,41.288z"/>
<path opacity="0.05" fill="#5D5D5D" d="M286.585,14.068c-3.117,0-6.234,0.003-9.354-0.001c-1.098-0.001-1.301-0.213-1.301-1.324
	c-0.004-3.813-0.004-7.626,0-11.44c0-1.079,0.227-1.3,1.326-1.301c6.235-0.002,12.471-0.002,18.705,0
	c1.139,0,1.346,0.212,1.346,1.369c0.002,3.784,0.002,7.57,0,11.355c0,1.149-0.192,1.339-1.371,1.34
	C292.819,14.071,289.702,14.068,286.585,14.068z M295.972,1.318c-6.248,0-12.461,0-18.67,0c0,3.433,0,6.806,0,10.168
	c6.258,0,12.446,0,18.67,0C295.972,8.08,295.972,4.723,295.972,1.318z"/>
<path opacity="0.05" fill="#5D5D5D" d="M107.909,4.237c5.896,0,10.703,4.828,10.688,10.73c-0.016,5.853-4.829,10.646-10.689,10.646
	c-5.895,0-10.703-4.827-10.688-10.731C97.235,9.031,102.05,4.236,107.909,4.237z M107.882,24.307
	c5.216,0.013,9.385-4.124,9.408-9.334c0.023-5.218-4.104-9.396-9.313-9.43c-5.252-0.033-9.446,4.128-9.449,9.376
	C98.524,20.135,102.669,24.294,107.882,24.307z"/>
<path opacity="0.05" fill="#5D5D5D" d="M250.796,32.339c-5.898,0.005-10.712-4.815-10.701-10.717
	c0.01-5.855,4.815-10.655,10.676-10.66c5.897-0.005,10.711,4.815,10.701,10.718C261.461,27.535,256.655,32.334,250.796,32.339z
	 M250.704,31.031c5.222,0.037,9.412-4.075,9.459-9.282c0.048-5.223-4.057-9.423-9.262-9.479c-5.256-0.058-9.473,4.081-9.502,9.322
	C241.373,26.811,245.496,30.994,250.704,31.031z"/>
<g opacity="0.05">
	<path fill="#5D5D5D" d="M165.655,22.222c-3.271,1.828-8.331,1.111-11.281-2.396c-3.176-3.777-3.064-9.027,0.26-12.713
		c3.117-3.455,8.519-4.085,12.389-1.442c3.867,2.643,5.326,7.744,3.315,11.892c-0.349-0.189-0.694-0.378-1.071-0.583
		c0.178-0.647,0.397-1.248,0.498-1.866c0.813-4.971-2.638-9.451-7.658-9.724c-5.938-0.322-9.883,5.423-8.371,10.394
		c1.438,4.729,6.111,7.191,10.711,5.566C165.479,20.982,165.335,21.809,165.655,22.222z"/>
	<path fill="#5D5D5D" d="M162.946,17.23c0.183,0.335,0.377,0.69,0.57,1.048c-1.941,0.994-4.552,0.266-5.958-1.624
		c-1.476-1.98-1.308-4.744,0.397-6.575c1.645-1.766,4.414-2.087,6.49-0.754c1.994,1.279,2.861,3.903,1.947,6.022
		c-0.188-0.085-0.384-0.163-0.568-0.258c-0.171-0.087-0.334-0.19-0.491-0.281c0.288-2.313-0.412-3.854-2.091-4.629
		c-1.462-0.675-3.184-0.352-4.296,0.806c-1.132,1.178-1.387,2.974-0.622,4.394C159.195,16.997,160.759,17.637,162.946,17.23z"/>
	<path fill="#5D5D5D" d="M173.071,20.348c-1.518,0-3.033,0-4.605,0c0,1.586,0,3.105,0,4.626c-0.064,0.025-0.131,0.051-0.195,0.076
		c-1.938-3.53-3.876-7.063-5.814-10.593c0.036-0.041,0.072-0.082,0.107-0.123c3.525,1.934,7.047,3.865,10.573,5.797
		C173.112,20.204,173.092,20.276,173.071,20.348z"/>
</g>
<g opacity="0.05">
	<path fill="#5D5D5D" d="M122.025,95.681c-3.271,1.828-8.331,1.111-11.281-2.396c-3.176-3.777-3.064-9.027,0.26-12.713
		c3.117-3.455,8.519-4.085,12.389-1.442c3.867,2.643,5.326,7.744,3.315,11.892c-0.349-0.189-0.694-0.378-1.071-0.583
		c0.178-0.647,0.397-1.248,0.498-1.866c0.813-4.971-2.638-9.451-7.658-9.724c-5.938-0.322-9.883,5.423-8.371,10.394
		c1.438,4.729,6.111,7.191,10.711,5.566C121.85,94.441,121.706,95.268,122.025,95.681z"/>
	<path fill="#5D5D5D" d="M119.316,90.689c0.183,0.335,0.377,0.69,0.57,1.048c-1.941,0.994-4.552,0.266-5.958-1.624
		c-1.476-1.98-1.308-4.744,0.397-6.575c1.645-1.766,4.414-2.087,6.49-0.754c1.994,1.279,2.861,3.903,1.947,6.022
		c-0.188-0.085-0.384-0.163-0.568-0.258c-0.171-0.087-0.334-0.19-0.491-0.281c0.288-2.313-0.412-3.854-2.091-4.629
		c-1.462-0.675-3.184-0.352-4.296,0.806c-1.132,1.178-1.387,2.974-0.622,4.394C115.565,90.456,117.129,91.096,119.316,90.689z"/>
	<path fill="#5D5D5D" d="M129.442,93.807c-1.518,0-3.033,0-4.605,0c0,1.586,0,3.105,0,4.626c-0.064,0.025-0.131,0.051-0.195,0.076
		c-1.938-3.53-3.876-7.063-5.814-10.593c0.036-0.041,0.072-0.082,0.107-0.123c3.525,1.934,7.047,3.865,10.573,5.797
		C129.483,93.663,129.462,93.735,129.442,93.807z"/>
</g>
<path opacity="0.05" fill="#5D5D5D" d="M289.616,17.01c-1.975,0-4.033,0-6,0c0.24-0.562,0.455-1.125,0.729-1.658
	c0.092-0.179,0.33-0.393,0.508-0.397c1.162-0.035,2.328-0.039,3.49,0.001c0.195,0.007,0.453,0.239,0.559,0.437
	C289.171,15.899,289.372,16.445,289.616,17.01z"/>
<g opacity="0.05">
	<path fill="#5D5D5D" d="M325.59,70.997c-0.819,0.342-1.612,0.8-2.466,0.997c-1.398,0.324-2.398,1.476-2.331,2.931
		c0.067,1.467,1.247,2.644,2.714,2.707c1.452,0.063,2.6-0.941,2.924-2.34c0.196-0.854,0.656-1.646,1.027-2.528
		c1.375,0.77,1.881,1.689,1.893,2.901c0.016,1.61-0.037,3.228,0.053,4.835c0.099,1.751-0.573,3.017-1.831,4.239
		c-4.666,4.533-9.226,9.176-13.827,13.771c-1.545,1.543-2.328,1.551-3.852,0.032c-3.344-3.336-6.685-6.677-10.021-10.021
		c-1.517-1.519-1.507-2.302,0.04-3.851c4.832-4.836,9.65-9.688,14.523-14.48c0.545-0.536,1.392-1.011,2.127-1.059
		c2.142-0.142,4.307-0.163,6.442,0.003c0.884,0.067,1.72,0.733,2.575,1.128C325.585,70.51,325.587,70.754,325.59,70.997z
		 M317.513,76.681c-1.707-0.021-3.38,1.586-3.422,3.283c-0.045,1.801,1.916,3.799,3.721,3.792c1.707-0.006,3.334-1.631,3.35-3.344
		C321.173,78.645,319.274,76.701,317.513,76.681z M310.156,84.061c0.782-0.674,1.53-1.257,2.19-1.926
		c0.182-0.183,0.103-0.62,0.143-0.94c-0.286,0.07-0.655,0.051-0.848,0.227c-0.822,0.754-1.656,1.515-2.347,2.385
		c-0.226,0.284-0.217,1.078,0.021,1.346c1.063,1.209,2.216,2.353,3.416,3.428c0.252,0.228,1.002,0.271,1.248,0.067
		c0.92-0.762,1.746-1.644,2.558-2.526c0.169-0.186,0.125-0.564,0.181-0.854c-0.318,0.033-0.756-0.055-0.938,0.121
		c-0.713,0.688-1.344,1.457-2.021,2.211c-0.637-0.565-1.086-0.967-1.717-1.529c0.787-0.695,1.465-1.243,2.067-1.863
		c0.171-0.174,0.121-0.561,0.173-0.85c-0.298,0.051-0.702-0.005-0.869,0.168c-0.599,0.622-1.11,1.322-1.772,2.134
		C311.042,85.011,310.716,84.662,310.156,84.061z M307.511,87.325c0.086,0.138,0.174,0.272,0.26,0.409
		c0.315-0.2,0.631-0.401,0.947-0.604c-0.371-0.297-0.902-0.923-1.086-0.834c-0.885,0.43-1.777,0.948-2.47,1.637
		c-0.636,0.631-0.615,1.525,0.015,2.258c0.641,0.743,1.441,0.721,2.262,0.35c0.488-0.224,0.928-0.604,1.434-0.725
		c0.447-0.105,0.959,0.045,1.441,0.083c-0.135,0.512-0.127,1.16-0.447,1.493c-0.287,0.298-0.938,0.238-1.424,0.356
		c-0.396,0.096-0.789,0.219-1.182,0.33c0.325,0.31,0.6,0.774,0.984,0.896c1.084,0.343,2.445-0.457,3.128-1.724
		c0.452-0.836,0.495-1.66-0.166-2.419c-0.669-0.77-1.491-0.829-2.364-0.435c-0.602,0.272-1.154,0.657-1.769,0.888
		c-0.288,0.106-0.845,0.084-0.964-0.094c-0.152-0.228-0.123-0.795,0.063-0.991C306.533,87.826,307.056,87.609,307.511,87.325z"/>
	<path fill="#5D5D5D" d="M323.646,75.508c-0.152-0.556-0.369-0.955-0.336-1.333c0.024-0.271,0.363-0.53,0.594-0.763
		c1.666-1.677,3.316-3.368,5.033-4.989c0.299-0.283,0.893-0.255,1.349-0.371c-0.063,0.461,0.044,1.081-0.218,1.354
		c-1.732,1.838-3.541,3.606-5.34,5.386C324.503,75.013,324.194,75.149,323.646,75.508z"/>
</g>
<path opacity="0.05" fill="#5D5D5D" d="M319.888,80.641c0.004,0.929-0.9,1.836-1.826,1.834c-1.182-0.002-2.646-1.483-2.65-2.683
	c-0.004-1,0.783-1.788,1.799-1.793C318.412,77.994,319.881,79.443,319.888,80.641z"/>
<g opacity="0.05">
	<path fill="#5D5D5D" d="M16.734,20.435c-2.95,0-5.9,0.003-8.852-0.001c-1.408-0.002-1.795-0.384-1.795-1.765
		c-0.002-5.094-0.002-10.188,0-15.279c0.002-1.304,0.398-1.72,1.672-1.722c6.012-0.005,12.023-0.005,18.035,0
		c1.273,0.001,1.67,0.417,1.671,1.722c0.002,5.093,0.002,10.188,0,15.279c0,1.381-0.387,1.763-1.797,1.765
		C22.69,20.438,19.713,20.435,16.734,20.435z M7.424,19.135c6.289,0,12.479,0,18.675,0c0-4.717,0-9.375,0-14.036
		c-6.257,0-12.448,0-18.675,0C7.424,9.794,7.424,14.434,7.424,19.135z M25.572,2.399c-0.134-0.003-0.269-0.008-0.402-0.012
		c-0.23,0.318-0.672,0.666-0.635,0.949c0.043,0.315,0.484,0.721,0.82,0.803c0.191,0.047,0.707-0.453,0.738-0.743
		C26.127,3.086,25.764,2.733,25.572,2.399z M23.94,3.513c-0.004-0.133-0.008-0.266-0.012-0.396c-0.326-0.197-0.688-0.59-0.97-0.538
		c-0.313,0.057-0.555,0.518-0.828,0.801c0.292,0.271,0.563,0.727,0.881,0.763C23.295,4.173,23.629,3.741,23.94,3.513z M21.584,3.55
		c0.003-0.129,0.006-0.258,0.009-0.387c-0.319-0.212-0.664-0.619-0.954-0.584c-0.311,0.038-0.571,0.491-0.854,0.764
		c0.277,0.284,0.528,0.753,0.839,0.798C20.91,4.181,21.262,3.765,21.584,3.55z"/>
	<path fill="#5D5D5D" d="M10.274,14.124c1.481-0.521,2.962-1.042,4.521-1.591c-0.786-0.956-1.519-1.848-2.23-2.714
		c0.25-0.646,0.621-0.657,1.148-0.435c1.324,0.565,2.654,1.124,4.013,1.6c0.453,0.158,1.03,0.175,1.495,0.049
		c1.254-0.339,2.475-0.802,3.717-1.188c0.609-0.19,1.479-0.434,1.719,0.222c0.266,0.729-0.592,1.103-1.2,1.31
		c-3.171,1.079-6.331,2.21-9.554,3.108c-1.106,0.31-2.385-0.001-3.584-0.027C10.303,14.347,10.289,14.235,10.274,14.124z"/>
</g>
<g opacity="0.05">
	<path fill="#5D5D5D" d="M202.376,123.499c-2.95,0-5.9,0.003-8.853-0.001c-1.407-0.002-1.795-0.384-1.795-1.765
		c-0.002-5.094-0.002-10.188,0-15.279c0.002-1.304,0.397-1.72,1.672-1.722c6.013-0.005,12.023-0.005,18.035,0
		c1.272,0.001,1.67,0.417,1.671,1.722c0.002,5.093,0.002,10.188,0,15.279c0,1.381-0.387,1.763-1.797,1.765
		C208.331,123.502,205.354,123.499,202.376,123.499z M193.065,122.199c6.289,0,12.479,0,18.676,0c0-4.717,0-9.375,0-14.036
		c-6.258,0-12.449,0-18.676,0C193.065,112.859,193.065,117.498,193.065,122.199z M211.214,105.463
		c-0.135-0.003-0.27-0.008-0.402-0.012c-0.23,0.318-0.672,0.666-0.635,0.949c0.043,0.315,0.484,0.721,0.82,0.803
		c0.19,0.047,0.707-0.453,0.737-0.743C211.769,106.151,211.405,105.797,211.214,105.463z M209.581,106.577
		c-0.004-0.133-0.008-0.266-0.012-0.396c-0.326-0.197-0.688-0.59-0.97-0.538c-0.313,0.057-0.556,0.518-0.828,0.801
		c0.292,0.271,0.563,0.727,0.882,0.763C208.937,107.238,209.271,106.806,209.581,106.577z M207.226,106.615
		c0.003-0.129,0.006-0.258,0.009-0.387c-0.319-0.212-0.663-0.619-0.954-0.584c-0.311,0.038-0.57,0.491-0.854,0.764
		c0.277,0.284,0.527,0.753,0.839,0.798C206.552,107.245,206.903,106.829,207.226,106.615z"/>
	<path fill="#5D5D5D" d="M195.915,117.189c1.481-0.521,2.963-1.042,4.521-1.591c-0.786-0.956-1.52-1.848-2.23-2.714
		c0.25-0.646,0.621-0.657,1.148-0.435c1.324,0.565,2.654,1.124,4.014,1.6c0.453,0.158,1.029,0.175,1.494,0.049
		c1.254-0.339,2.475-0.802,3.717-1.188c0.609-0.19,1.479-0.434,1.72,0.222c0.266,0.729-0.593,1.103-1.2,1.31
		c-3.171,1.079-6.331,2.21-9.555,3.108c-1.105,0.31-2.385-0.001-3.584-0.027C195.944,117.411,195.931,117.299,195.915,117.189z"/>
</g>
<path opacity="0.05" fill="#5D5D5D" d="M11.384,13.316c-1.351,0.802-1.351,0.802-2.536-0.645
	C9.266,12.128,9.566,12.205,11.384,13.316z"/>
<g opacity="0.05">
	<path fill="#5D5D5D" d="M63.595,24.694c-2.95,0-5.9,0.002-8.851-0.001c-1.411-0.002-1.797-0.383-1.798-1.762
		c-0.002-5.095-0.002-10.188,0-15.28c0.002-1.326,0.4-1.723,1.753-1.723c5.956-0.005,11.912-0.005,17.868,0
		c1.384,0,1.756,0.389,1.757,1.803c0.001,5.064,0.001,10.131-0.001,15.197c0,1.381-0.387,1.764-1.794,1.766
		C69.552,24.696,66.573,24.694,63.595,24.694z M54.308,9.337c0,4.724,0,9.38,0,14.063c6.252,0,12.443,0,18.655,0
		c0-4.712,0-9.371,0-14.063C66.733,9.337,60.563,9.337,54.308,9.337z M71.958,6.661c-0.206,0.334-0.621,0.713-0.563,0.992
		c0.064,0.313,0.533,0.685,0.876,0.741c0.193,0.033,0.635-0.48,0.698-0.803C73.073,7.077,72.683,6.802,71.958,6.661z M70.8,7.772
		c-0.004-0.132-0.008-0.265-0.012-0.396c-0.326-0.196-0.688-0.59-0.97-0.539c-0.313,0.058-0.556,0.518-0.828,0.803
		c0.292,0.271,0.563,0.727,0.88,0.761C70.153,8.432,70.488,8,70.8,7.772z M68.451,7.762c-0.005-0.129-0.009-0.257-0.013-0.385
		c-0.329-0.196-0.691-0.589-0.978-0.54c-0.31,0.054-0.548,0.52-0.817,0.805c0.29,0.271,0.563,0.729,0.875,0.757
		C67.808,8.425,68.14,7.992,68.451,7.762z"/>
	<path fill="#5D5D5D" d="M67.271,13.629c-0.667,0.768-0.963,1.456,0.137,2.211c-1.185,0.204-1.653,0.782-1.526,1.48
		c-0.809,0.253-1.472,0.459-2.297,0.718c-0.287-0.483-0.881-0.904-1.887-0.244c0.047-1.059-0.201-1.802-1.254-1.859
		c0.537-1.252,0.537-1.252-0.016-2.283c0.787-0.252,1.51-0.615,1.125-1.857c1.029,0.492,1.743,0.354,2.224-0.743
		c0.495,1.047,1.189,1.234,2.218,0.738C65.725,12.946,66.237,13.455,67.271,13.629z"/>
	<path fill="#5D5D5D" d="M66.617,17.744c0.738,0.659,1.478,1.32,2.218,1.98c-0.02,0.063-0.039,0.128-0.059,0.19
		c-0.576,0-1.152,0-1.781,0c0,0.67,0,1.217,0,2.029c-1.008-1.079-1.857-1.989-2.799-2.999c0.287-0.161,0.544-0.427,0.707-0.378
		C65.825,18.847,66.307,18.357,66.617,17.744z"/>
	<path fill="#5D5D5D" d="M60.278,21.681c0-0.546,0-1.091,0-1.72c-0.617,0-1.182,0-1.744,0c-0.027-0.054-0.054-0.106-0.08-0.162
		c0.701-0.554,1.403-1.106,2.104-1.66c0.181,0.289,0.658,0.628,1.425,0.47c0.25-0.052,0.573,0.25,0.973,0.444
		c-0.905,0.982-1.699,1.846-2.494,2.707C60.401,21.735,60.339,21.708,60.278,21.681z"/>
</g>
<g opacity="0.05">
	<path fill="#5D5D5D" d="M240.056,91.213c-2.951,0-5.9,0.002-8.852-0.001c-1.411-0.002-1.797-0.383-1.799-1.762
		c-0.002-5.095-0.002-10.188,0-15.28c0.003-1.326,0.4-1.723,1.754-1.723c5.955-0.005,11.912-0.005,17.867,0
		c1.385,0,1.757,0.389,1.758,1.803c0.001,5.064,0.001,10.131-0.001,15.197c0,1.381-0.388,1.764-1.794,1.766
		C246.012,91.215,243.033,91.213,240.056,91.213z M230.769,75.857c0,4.724,0,9.38,0,14.063c6.252,0,12.442,0,18.654,0
		c0-4.712,0-9.371,0-14.063C243.192,75.857,237.022,75.857,230.769,75.857z M248.418,73.181c-0.206,0.334-0.621,0.713-0.563,0.992
		c0.064,0.313,0.533,0.685,0.877,0.741c0.192,0.033,0.635-0.48,0.697-0.803C249.533,73.597,249.144,73.322,248.418,73.181z
		 M247.26,74.291c-0.004-0.132-0.008-0.265-0.012-0.396c-0.326-0.196-0.688-0.59-0.97-0.539c-0.313,0.058-0.557,0.518-0.828,0.803
		c0.292,0.271,0.563,0.727,0.88,0.761C246.612,74.951,246.948,74.52,247.26,74.291z M244.911,74.281
		c-0.006-0.129-0.01-0.257-0.014-0.385c-0.328-0.196-0.69-0.589-0.978-0.54c-0.31,0.054-0.548,0.52-0.817,0.805
		c0.291,0.271,0.563,0.729,0.875,0.757C244.269,74.945,244.601,74.512,244.911,74.281z"/>
	<path fill="#5D5D5D" d="M243.731,80.149c-0.668,0.768-0.963,1.456,0.137,2.211c-1.186,0.204-1.653,0.782-1.526,1.48
		c-0.809,0.253-1.472,0.459-2.297,0.718c-0.287-0.483-0.881-0.904-1.887-0.244c0.047-1.059-0.201-1.802-1.255-1.859
		c0.537-1.252,0.537-1.252-0.016-2.283c0.787-0.252,1.51-0.615,1.125-1.857c1.029,0.492,1.743,0.354,2.225-0.743
		c0.494,1.047,1.188,1.234,2.218,0.738C242.185,79.465,242.696,79.975,243.731,80.149z"/>
	<path fill="#5D5D5D" d="M243.077,84.264c0.738,0.659,1.479,1.32,2.218,1.98c-0.021,0.063-0.039,0.128-0.06,0.19
		c-0.575,0-1.151,0-1.78,0c0,0.67,0,1.217,0,2.029c-1.009-1.079-1.856-1.989-2.8-2.999c0.287-0.161,0.545-0.427,0.707-0.378
		C242.285,85.366,242.767,84.876,243.077,84.264z"/>
	<path fill="#5D5D5D" d="M236.737,88.2c0-0.546,0-1.091,0-1.72c-0.616,0-1.182,0-1.743,0c-0.027-0.054-0.054-0.106-0.08-0.162
		c0.7-0.554,1.403-1.106,2.104-1.66c0.181,0.289,0.657,0.628,1.424,0.47c0.25-0.052,0.574,0.25,0.974,0.444
		c-0.905,0.982-1.699,1.846-2.494,2.707C236.86,88.254,236.799,88.228,236.737,88.2z"/>
</g>
<g opacity="0.05">
	<path fill="#5D5D5D" d="M123.087,128.399c-2.951,0-5.9,0.002-8.852-0.001c-1.411-0.002-1.797-0.383-1.799-1.762
		c-0.002-5.095-0.002-10.188,0-15.28c0.003-1.326,0.4-1.723,1.754-1.723c5.955-0.005,11.912-0.005,17.867,0
		c1.385,0,1.757,0.389,1.758,1.803c0.001,5.064,0.001,10.131-0.001,15.197c0,1.381-0.388,1.764-1.794,1.766
		C129.043,128.401,126.065,128.399,123.087,128.399z M113.8,113.042c0,4.724,0,9.38,0,14.063c6.252,0,12.442,0,18.654,0
		c0-4.712,0-9.371,0-14.063C126.224,113.042,120.054,113.042,113.8,113.042z M131.45,110.366c-0.206,0.334-0.621,0.713-0.563,0.992
		c0.064,0.313,0.533,0.685,0.877,0.741c0.192,0.033,0.635-0.48,0.697-0.803C132.565,110.782,132.175,110.507,131.45,110.366z
		 M130.292,111.477c-0.004-0.132-0.008-0.265-0.012-0.396c-0.326-0.196-0.688-0.59-0.97-0.539c-0.313,0.058-0.557,0.518-0.828,0.803
		c0.292,0.271,0.563,0.727,0.88,0.761C129.644,112.137,129.98,111.705,130.292,111.477z M127.943,111.467
		c-0.006-0.129-0.01-0.257-0.014-0.385c-0.328-0.196-0.69-0.589-0.978-0.54c-0.31,0.054-0.548,0.52-0.817,0.805
		c0.291,0.271,0.563,0.729,0.875,0.757C127.3,112.13,127.632,111.698,127.943,111.467z"/>
	<path fill="#5D5D5D" d="M126.763,117.334c-0.668,0.768-0.963,1.456,0.137,2.211c-1.186,0.204-1.653,0.782-1.526,1.48
		c-0.809,0.253-1.472,0.459-2.297,0.718c-0.287-0.483-0.881-0.904-1.887-0.244c0.047-1.059-0.201-1.802-1.255-1.859
		c0.537-1.252,0.537-1.252-0.016-2.283c0.787-0.252,1.51-0.615,1.125-1.857c1.029,0.492,1.743,0.354,2.225-0.743
		c0.494,1.047,1.188,1.234,2.218,0.738C125.216,116.651,125.728,117.16,126.763,117.334z"/>
	<path fill="#5D5D5D" d="M126.109,121.449c0.738,0.659,1.479,1.32,2.218,1.98c-0.021,0.063-0.039,0.128-0.06,0.19
		c-0.575,0-1.151,0-1.78,0c0,0.67,0,1.217,0,2.029c-1.009-1.079-1.856-1.989-2.8-2.999c0.287-0.161,0.545-0.427,0.707-0.378
		C125.317,122.552,125.798,122.062,126.109,121.449z"/>
	<path fill="#5D5D5D" d="M119.769,125.386c0-0.546,0-1.091,0-1.72c-0.616,0-1.182,0-1.743,0c-0.027-0.054-0.054-0.106-0.08-0.162
		c0.7-0.554,1.403-1.106,2.104-1.66c0.181,0.289,0.657,0.628,1.424,0.47c0.25-0.052,0.574,0.25,0.974,0.444
		c-0.905,0.982-1.699,1.846-2.494,2.707C119.892,125.44,119.831,125.413,119.769,125.386z"/>
</g>
<g opacity="0.05">
	<path fill="#5D5D5D" d="M273.883,93.269c2.979,0,5.957-0.004,8.937,0.002c1.292,0.002,1.7,0.412,1.7,1.689
		c0.002,5.121,0.002,10.243,0,15.364c0,1.293-0.4,1.709-1.682,1.71c-6.012,0.005-12.023,0.005-18.035,0
		c-1.238-0.001-1.658-0.423-1.658-1.647c-0.006-5.148-0.004-10.299,0-15.447c0-1.237,0.414-1.665,1.639-1.668
		C267.814,93.264,270.85,93.269,273.883,93.269z M264.479,110.738c6.291,0,12.479,0,18.674,0c0-4.719,0-9.376,0-14.035
		c-6.258,0-12.449,0-18.674,0C264.479,101.398,264.479,106.038,264.479,110.738z M283.326,95.2c-0.141-0.731-0.406-1.149-0.92-1.034
		c-0.334,0.076-0.756,0.487-0.813,0.807c-0.041,0.225,0.444,0.735,0.738,0.771C282.639,95.781,282.993,95.399,283.326,95.2z
		 M279.865,95.927c0.122,0,0.244,0,0.365-0.001c0.209-0.327,0.537-0.635,0.596-0.986c0.084-0.508-0.305-0.898-0.795-0.772
		c-0.328,0.084-0.762,0.502-0.79,0.805C279.215,95.268,279.639,95.607,279.865,95.927z M278.635,95.174
		c0.004-0.13,0.01-0.259,0.014-0.388c-0.313-0.221-0.647-0.636-0.938-0.604c-0.313,0.031-0.583,0.479-0.871,0.745
		c0.271,0.29,0.512,0.765,0.821,0.814C277.947,95.789,278.307,95.38,278.635,95.174z"/>
	<path fill="#5D5D5D" d="M271.934,105.844c-1.396-0.605-2.772-1.188-4.133-1.803c-0.521-0.234-0.556-1.164-0.048-1.396
		c1.384-0.633,2.785-1.219,4.185-1.826c0.345,0.925,0.027,1.397-0.834,1.646c-0.689,0.196-1.349,0.5-2.252,0.846
		c0.877,0.354,1.552,0.688,2.263,0.896C271.934,104.449,272.271,104.886,271.934,105.844z"/>
	<path fill="#5D5D5D" d="M278.826,103.331c-0.898-0.35-1.572-0.663-2.277-0.869c-0.813-0.238-1.164-0.672-0.828-1.623
		c1.422,0.612,2.863,1.206,4.278,1.857c0.405,0.188,0.331,1.13-0.09,1.321c-1.382,0.627-2.78,1.223-4.185,1.834
		c-0.28-0.863-0.127-1.379,0.771-1.615C277.215,104.05,277.891,103.703,278.826,103.331z"/>
	<path fill="#5D5D5D" d="M272.615,106.332c0.328-1.385,0.623-2.651,0.928-3.917c0.169-0.699,0.318-1.407,0.555-2.085
		c0.072-0.209,0.401-0.33,0.613-0.49c0.092,0.233,0.303,0.493,0.258,0.696c-0.435,1.917-0.898,3.827-1.396,5.729
		c-0.054,0.203-0.335,0.399-0.554,0.478C272.936,106.772,272.73,106.455,272.615,106.332z"/>
</g>
<g opacity="0.05">
	<path fill="#5D5D5D" d="M151.015,70.853c2.979,0,5.957-0.004,8.937,0.002c1.292,0.002,1.7,0.412,1.7,1.689
		c0.002,5.121,0.002,10.243,0,15.364c0,1.293-0.4,1.709-1.682,1.71c-6.012,0.005-12.023,0.005-18.035,0
		c-1.238-0.001-1.658-0.423-1.658-1.647c-0.006-5.148-0.004-10.299,0-15.447c0-1.237,0.414-1.665,1.639-1.668
		C144.946,70.848,147.981,70.853,151.015,70.853z M141.61,88.322c6.291,0,12.479,0,18.674,0c0-4.719,0-9.376,0-14.035
		c-6.258,0-12.449,0-18.674,0C141.61,78.982,141.61,83.622,141.61,88.322z M160.458,72.784c-0.141-0.731-0.406-1.149-0.92-1.034
		c-0.334,0.076-0.756,0.487-0.813,0.807c-0.041,0.225,0.444,0.735,0.738,0.771C159.771,73.365,160.125,72.983,160.458,72.784z
		 M156.997,73.511c0.122,0,0.244,0,0.365-0.001c0.209-0.327,0.537-0.635,0.596-0.986c0.084-0.508-0.305-0.898-0.795-0.772
		c-0.328,0.084-0.762,0.502-0.79,0.805C156.347,72.852,156.771,73.191,156.997,73.511z M155.767,72.758
		c0.004-0.13,0.01-0.259,0.014-0.388c-0.313-0.221-0.647-0.636-0.938-0.604c-0.313,0.031-0.583,0.479-0.871,0.745
		c0.271,0.29,0.512,0.765,0.821,0.814C155.079,73.373,155.438,72.964,155.767,72.758z"/>
	<path fill="#5D5D5D" d="M149.065,83.428c-1.396-0.605-2.772-1.188-4.133-1.803c-0.521-0.234-0.556-1.164-0.048-1.396
		c1.384-0.633,2.785-1.219,4.185-1.826c0.345,0.925,0.027,1.397-0.834,1.646c-0.689,0.196-1.349,0.5-2.252,0.846
		c0.877,0.354,1.552,0.688,2.263,0.896C149.065,82.033,149.403,82.47,149.065,83.428z"/>
	<path fill="#5D5D5D" d="M155.958,80.915c-0.898-0.35-1.572-0.663-2.277-0.869c-0.813-0.238-1.164-0.672-0.828-1.623
		c1.422,0.612,2.863,1.206,4.278,1.857c0.405,0.188,0.331,1.13-0.09,1.321c-1.382,0.627-2.78,1.223-4.185,1.834
		c-0.28-0.863-0.127-1.379,0.771-1.615C154.347,81.634,155.022,81.287,155.958,80.915z"/>
	<path fill="#5D5D5D" d="M149.747,83.916c0.328-1.385,0.623-2.651,0.928-3.917c0.169-0.699,0.318-1.407,0.555-2.085
		c0.072-0.209,0.401-0.33,0.613-0.49c0.092,0.233,0.303,0.493,0.258,0.696c-0.435,1.917-0.898,3.827-1.396,5.729
		c-0.054,0.203-0.335,0.399-0.554,0.478C150.067,84.356,149.862,84.039,149.747,83.916z"/>
</g>
<g opacity="0.05">
	<path fill="#5D5D5D" d="M79.542,81.83c2.979,0,5.957-0.004,8.937,0.002c1.292,0.002,1.7,0.412,1.7,1.689
		c0.002,5.121,0.002,10.243,0,15.364c0,1.293-0.4,1.709-1.682,1.71c-6.012,0.005-12.023,0.005-18.035,0
		c-1.238-0.001-1.658-0.423-1.658-1.647c-0.006-5.148-0.004-10.299,0-15.447c0-1.237,0.414-1.665,1.639-1.668
		C73.473,81.825,76.508,81.83,79.542,81.83z M70.137,99.299c6.291,0,12.479,0,18.674,0c0-4.719,0-9.376,0-14.035
		c-6.258,0-12.449,0-18.674,0C70.137,89.959,70.137,94.6,70.137,99.299z M88.985,83.762c-0.141-0.731-0.406-1.149-0.92-1.034
		c-0.334,0.076-0.756,0.487-0.813,0.807c-0.041,0.225,0.444,0.735,0.738,0.771C88.297,84.342,88.652,83.96,88.985,83.762z
		 M85.524,84.489c0.122,0,0.244,0,0.365-0.001c0.209-0.327,0.537-0.635,0.596-0.986c0.084-0.508-0.305-0.898-0.795-0.772
		c-0.328,0.084-0.762,0.502-0.79,0.805C84.874,83.829,85.297,84.168,85.524,84.489z M84.293,83.736
		c0.004-0.13,0.01-0.259,0.014-0.388c-0.313-0.221-0.647-0.636-0.938-0.604c-0.313,0.031-0.583,0.479-0.871,0.745
		c0.271,0.29,0.512,0.765,0.821,0.814C83.606,84.351,83.965,83.942,84.293,83.736z"/>
	<path fill="#5D5D5D" d="M77.592,94.406c-1.396-0.605-2.772-1.188-4.133-1.803c-0.521-0.234-0.556-1.164-0.048-1.396
		c1.384-0.633,2.785-1.219,4.185-1.826c0.345,0.925,0.027,1.397-0.834,1.646c-0.689,0.196-1.349,0.5-2.252,0.846
		c0.877,0.354,1.552,0.688,2.263,0.896C77.592,93.011,77.93,93.448,77.592,94.406z"/>
	<path fill="#5D5D5D" d="M84.485,91.893c-0.898-0.35-1.572-0.663-2.277-0.869c-0.813-0.238-1.164-0.672-0.828-1.623
		c1.422,0.612,2.863,1.206,4.278,1.857c0.405,0.188,0.331,1.13-0.09,1.321c-1.382,0.627-2.78,1.223-4.185,1.834
		c-0.28-0.863-0.127-1.379,0.771-1.615C82.874,92.612,83.549,92.265,84.485,91.893z"/>
	<path fill="#5D5D5D" d="M78.274,94.894c0.328-1.385,0.623-2.651,0.928-3.917c0.169-0.699,0.318-1.407,0.555-2.085
		c0.072-0.209,0.401-0.33,0.613-0.49c0.092,0.233,0.303,0.493,0.258,0.696c-0.435,1.917-0.898,3.827-1.396,5.729
		c-0.054,0.203-0.335,0.399-0.554,0.478C78.594,95.333,78.389,95.017,78.274,94.894z"/>
</g>
<path opacity="0.05" fill="#5D5D5D" d="M288.903,5.019c1.41-1.017,2.805-2.02,4.25-3.061c0.176,0.188,0.334,0.355,0.477,0.507
	c-0.031,0.104-0.031,0.178-0.066,0.202c-1.431,1.051-2.854,2.111-4.312,3.126c-0.171,0.119-0.567,0.069-0.774-0.05
	c-0.838-0.488-1.656-1.016-2.455-1.567c-0.388-0.268-0.691-0.277-1.115-0.053c-1.631,0.869-3.284,1.691-4.973,2.553
	c-0.142-0.274-0.252-0.486-0.385-0.748c1.912-0.985,3.776-1.961,5.66-2.896c0.184-0.092,0.529-0.016,0.727,0.104
	C286.931,3.74,287.901,4.379,288.903,5.019z"/>
<path opacity="0.05" fill="#5D5D5D" d="M286.081,10.328c-0.548,0-1.037,0-1.584,0c0-1.533,0-3.045,0-4.607c0.525,0,1.033,0,1.584,0
	C286.081,7.249,286.081,8.741,286.081,10.328z"/>
<path opacity="0.05" fill="#5D5D5D" d="M292.743,5.718c0,1.534,0,3.026,0,4.581c-0.521,0-1.031,0-1.607,0c0-1.512,0-3.021,0-4.581
	C291.677,5.718,292.188,5.718,292.743,5.718z"/>
<path opacity="0.05" fill="#5D5D5D" d="M287.899,7.199c0.553,0,1.045,0,1.604,0c0,1.031,0,2.035,0,3.102c-0.518,0-1.025,0-1.604,0
	C287.899,9.306,287.899,8.301,287.899,7.199z"/>
<path opacity="0.05" fill="#5D5D5D" d="M282.429,10.326c-0.57,0-1.058,0-1.597,0c0-1.04,0-2.045,0-3.104c0.524,0,1.032,0,1.597,0
	C282.429,8.246,282.429,9.251,282.429,10.326z"/>
<path opacity="0.05" fill="#5D5D5D" d="M315.377,128.332c-3.117,0-6.234,0.003-9.354-0.001c-1.098-0.001-1.301-0.213-1.301-1.324
	c-0.004-3.813-0.004-7.626,0-11.44c0-1.079,0.227-1.3,1.326-1.301c6.235-0.002,12.471-0.002,18.705,0
	c1.139,0,1.346,0.212,1.346,1.369c0.002,3.784,0.002,7.57,0,11.355c0,1.149-0.192,1.339-1.371,1.34
	C321.611,128.335,318.494,128.332,315.377,128.332z M324.764,115.582c-6.248,0-12.461,0-18.67,0c0,3.433,0,6.806,0,10.168
	c6.258,0,12.445,0,18.67,0C324.764,122.344,324.764,118.988,324.764,115.582z"/>
<path opacity="0.05" fill="#5D5D5D" d="M318.408,131.275c-1.975,0-4.033,0-6,0c0.24-0.562,0.455-1.125,0.729-1.658
	c0.092-0.179,0.33-0.393,0.508-0.397c1.162-0.035,2.328-0.039,3.49,0.001c0.195,0.007,0.453,0.239,0.56,0.437
	C317.963,130.163,318.164,130.709,318.408,131.275z"/>
<path opacity="0.05" fill="#5D5D5D" d="M317.695,119.283c1.41-1.017,2.805-2.02,4.25-3.061c0.176,0.188,0.334,0.355,0.477,0.507
	c-0.031,0.104-0.031,0.178-0.065,0.202c-1.431,1.051-2.854,2.111-4.313,3.126c-0.171,0.119-0.567,0.069-0.774-0.05
	c-0.838-0.488-1.655-1.016-2.454-1.567c-0.388-0.268-0.692-0.277-1.116-0.053c-1.63,0.869-3.284,1.691-4.973,2.553
	c-0.141-0.274-0.252-0.486-0.385-0.748c1.912-0.985,3.776-1.961,5.66-2.896c0.184-0.092,0.529-0.016,0.727,0.104
	C315.723,118.003,316.693,118.643,317.695,119.283z"/>
<path opacity="0.05" fill="#5D5D5D" d="M314.873,124.593c-0.548,0-1.037,0-1.584,0c0-1.533,0-3.045,0-4.607c0.525,0,1.033,0,1.584,0
	C314.873,121.514,314.873,123.006,314.873,124.593z"/>
<path opacity="0.05" fill="#5D5D5D" d="M321.535,119.982c0,1.534,0,3.026,0,4.581c-0.521,0-1.031,0-1.607,0c0-1.512,0-3.021,0-4.581
	C320.469,119.982,320.98,119.982,321.535,119.982z"/>
<path opacity="0.05" fill="#5D5D5D" d="M316.691,121.463c0.553,0,1.045,0,1.604,0c0,1.031,0,2.035,0,3.102c-0.517,0-1.025,0-1.604,0
	C316.691,123.571,316.691,122.565,316.691,121.463z"/>
<path opacity="0.05" fill="#5D5D5D" d="M311.221,124.591c-0.57,0-1.059,0-1.598,0c0-1.04,0-2.045,0-3.104c0.524,0,1.032,0,1.598,0
	C311.221,122.511,311.221,123.516,311.221,124.591z"/>
<g opacity="0.05">
	<path fill="#5D5D5D" d="M211.306,19.875c-5.207,4.023-10.674,1.946-13.012-1.17c-2.605-3.474-2.277-8.556,0.823-11.583
		c3.225-3.148,8.354-3.33,11.849-0.412c3.031,2.532,4.604,7.855,0.791,12.684c0.465,0.166,0.873,0.291,1.264,0.455
		c0.326,0.137,0.691,0.255,0.938,0.49c1.146,1.098,2.265,2.225,3.374,3.355c0.668,0.684,0.716,1.365,0.182,1.911
		c-0.537,0.546-1.231,0.51-1.908-0.151c-1.135-1.108-2.26-2.229-3.359-3.372c-0.234-0.246-0.366-0.605-0.501-0.933
		C211.579,20.756,211.464,20.345,211.306,19.875z M205.222,20.654c4.021,0.021,7.293-3.193,7.322-7.194
		c0.03-4.053-3.219-7.348-7.256-7.355c-3.993-0.008-7.277,3.255-7.293,7.246C197.979,17.351,201.228,20.633,205.222,20.654z"/>
	<path fill="#5D5D5D" d="M205.606,7.35c-2.949,1.339-5.023,3.437-6.314,6.344C198.71,10.97,202.278,6.947,205.606,7.35z"/>
</g>
<g opacity="0.05">
	<path fill="#5D5D5D" d="M288.592,86.394c-5.207,4.023-10.674,1.946-13.012-1.17c-2.604-3.474-2.276-8.556,0.823-11.583
		c3.225-3.148,8.354-3.33,11.849-0.412c3.031,2.531,4.604,7.855,0.791,12.684c0.465,0.166,0.873,0.291,1.265,0.455
		c0.324,0.137,0.69,0.255,0.938,0.49c1.146,1.098,2.263,2.225,3.374,3.355c0.668,0.684,0.716,1.365,0.181,1.911
		s-1.23,0.509-1.908-0.151c-1.136-1.109-2.261-2.229-3.358-3.372c-0.235-0.246-0.366-0.605-0.501-0.933
		C288.865,87.275,288.75,86.864,288.592,86.394z M282.507,87.172c4.021,0.021,7.293-3.193,7.323-7.194
		c0.03-4.054-3.22-7.348-7.256-7.355c-3.993-0.009-7.277,3.255-7.294,7.246C275.267,83.87,278.513,87.151,282.507,87.172z"/>
	<path fill="#5D5D5D" d="M282.894,73.868c-2.949,1.339-5.022,3.437-6.313,6.344C275.996,77.489,279.563,73.465,282.894,73.868z"/>
</g>
<g opacity="0.05">
	<path fill="#5D5D5D" d="M85.854,56.479c-5.207,4.023-10.674,1.945-13.012-1.17c-2.604-3.474-2.276-8.556,0.823-11.583
		c3.225-3.148,8.354-3.33,11.849-0.412c3.031,2.531,4.604,7.855,0.791,12.683c0.465,0.166,0.873,0.291,1.265,0.455
		c0.324,0.137,0.69,0.256,0.938,0.49c1.146,1.098,2.263,2.225,3.374,3.355c0.668,0.684,0.716,1.365,0.181,1.912
		c-0.535,0.545-1.23,0.508-1.908-0.152c-1.136-1.109-2.261-2.229-3.358-3.371c-0.235-0.246-0.366-0.605-0.501-0.934
		C86.128,57.36,86.013,56.948,85.854,56.479z M79.77,57.256c4.021,0.021,7.293-3.193,7.323-7.194c0.03-4.054-3.22-7.348-7.256-7.355
		c-3.993-0.009-7.277,3.255-7.294,7.246C72.529,53.955,75.775,57.235,79.77,57.256z"/>
	<path fill="#5D5D5D" d="M80.156,43.953c-2.949,1.339-5.022,3.437-6.313,6.344C73.259,47.573,76.826,43.55,80.156,43.953z"/>
</g>
<g opacity="0.05">
	<path fill="#5D5D5D" d="M327.237,32.383c0,3.146,0.002,6.289,0,9.435c0,1.125-0.084,1.211-1.168,1.211
		c-4.674,0.001-9.352,0.001-14.025,0c-1.061,0-1.164-0.1-1.164-1.131c-0.003-6.373-0.003-12.745,0-19.118
		c0-1.029,0.104-1.128,1.167-1.128c4.675-0.001,9.351-0.001,14.024,0c1.082,0,1.166,0.089,1.166,1.216
		C327.239,26.038,327.237,29.21,327.237,32.383z M325.96,41.794c0-6.337,0-12.624,0-18.895c-4.654,0-9.23,0-13.818,0
		c0,6.333,0,12.602,0,18.895C316.782,41.794,321.356,41.794,325.96,41.794z"/>
	<path fill="#5D5D5D" d="M321.026,35.128c0.23,0.26,0.453,0.502,0.662,0.734c-0.432,1.021-0.375,1.16,0.56,1.42
		c0.042,0.481,0.345,1.019-0.511,1.217c-0.166,0.039-0.188,0.706-0.16,1.134c-0.223,0.413-0.452,1.07-1.167,0.456
		c-0.05-0.041-0.444,0.324-0.679,0.499c-0.19,0.144-0.389,0.406-0.57,0.396c-0.23-0.012-0.564-0.194-0.652-0.395
		c-0.21-0.473-0.396-0.675-0.931-0.394c-0.175,0.094-0.56-0.022-0.731-0.176c-0.146-0.13-0.255-0.527-0.164-0.669
		c0.334-0.516,0.121-0.718-0.332-0.951c-0.205-0.104-0.426-0.409-0.424-0.623c0.002-0.205,0.309-0.391,0.43-0.613
		c0.148-0.275,0.268-0.574,0.355-0.875c0.072-0.246,0-0.588,0.146-0.742c0.146-0.154,0.535-0.245,0.727-0.158
		c0.468,0.21,0.686,0.09,0.909-0.338c0.108-0.21,0.405-0.438,0.623-0.443c0.2-0.005,0.504,0.231,0.6,0.438
		C320.067,35.807,320.515,35.444,321.026,35.128z M319.078,39.036c0.7,0.016,1.289-0.527,1.31-1.21
		c0.021-0.665-0.563-1.284-1.238-1.309c-0.67-0.022-1.27,0.553-1.282,1.236C317.849,38.474,318.366,39.021,319.078,39.036z"/>
	<path fill="#5D5D5D" d="M324.419,25.162c0,1.363,0,2.714,0,4.117c-1.482,0-2.941,0-4.464,0c0-1.326,0-2.672,0-4.117
		C321.379,25.162,322.843,25.162,324.419,25.162z"/>
	<path fill="#5D5D5D" d="M324.55,32.701c-0.181,0.206-0.359,0.588-0.542,0.59c-3.388,0.036-6.776,0.025-10.22,0.025
		c0-0.304,0-0.53,0-0.804c3.55,0,7.068,0,10.588,0C324.435,32.576,324.491,32.639,324.55,32.701z"/>
	<path fill="#5D5D5D" d="M313.731,30.367c3.609,0,7.123,0,10.681,0c0.013,0.25,0.024,0.462,0.038,0.736c-3.57,0-7.104,0-10.688,0
		C313.753,30.874,313.743,30.661,313.731,30.367z"/>
	<path fill="#5D5D5D" d="M313.813,28.643c1.488,0,2.928,0,4.441,0c0.014,0.253,0.023,0.481,0.037,0.708
		c-0.137,0.056-0.209,0.109-0.282,0.109c-1.222,0.007-2.44-0.01-3.661,0.019C313.743,29.495,313.632,29.231,313.813,28.643z"/>
	<path fill="#5D5D5D" d="M313.772,25.947c0-0.235,0-0.447,0-0.722c1.459,0,2.92,0,4.465,0c0.025,0.19,0.053,0.421,0.091,0.722
		C316.776,25.947,315.296,25.947,313.772,25.947z"/>
	<path fill="#5D5D5D" d="M313.806,27.729c-0.152-0.609-0.057-0.878,0.512-0.864c1.137,0.024,2.271-0.017,3.406,0.027
		c0.199,0.007,0.389,0.294,0.584,0.451c-0.195,0.129-0.391,0.362-0.588,0.367C316.423,27.745,315.127,27.729,313.806,27.729z"/>
</g>
<path opacity="0.05" fill="#5D5D5D" d="M110.907,8.512c1.024,0.895,1.98,1.729,3.065,2.676c-0.526,0.035-0.894,0.06-1.349,0.088
	c-0.645,2.976-2.447,4.989-5.36,5.965c-1.796,0.602-4.118,0.502-5.509-0.271c4.211,0.206,6.657-1.748,7.758-5.668
	c-0.336-0.023-0.57-0.047-0.804-0.056c-0.219-0.009-0.438-0.002-0.907-0.002C108.922,10.258,109.883,9.413,110.907,8.512z"/>
<path opacity="0.05" fill="#5D5D5D" d="M112.903,12.024c0,3.167,0,6.178,0,9.243c-0.49,0-0.945,0-1.496,0
	c0-2.094-0.057-4.171,0.039-6.242c0.023-0.516,0.554-0.998,0.815-1.513C112.481,13.079,112.649,12.619,112.903,12.024z"/>
<path opacity="0.05" fill="#5D5D5D" d="M110.537,15.871c0,1.885,0,3.619,0,5.4c-0.521,0-1.002,0-1.578,0
	c0-1.37-0.036-2.693,0.031-4.013c0.013-0.257,0.415-0.511,0.666-0.733C109.897,16.312,110.175,16.137,110.537,15.871z"/>
<path opacity="0.05" fill="#5D5D5D" d="M106.634,17.833c0.492-0.15,0.958-0.294,1.502-0.461c0,1.361,0,2.612,0,3.906
	c-0.516,0-0.979,0-1.502,0C106.634,20.155,106.634,19.036,106.634,17.833z"/>
<path opacity="0.05" fill="#5D5D5D" d="M103.353,21.275c-0.561,0-1.023,0-1.537,0c0-1.229,0-2.41,0-3.683
	c0.527,0.126,1.027,0.245,1.537,0.367C103.353,19.072,103.353,20.146,103.353,21.275z"/>
<path opacity="0.05" fill="#5D5D5D" d="M105.688,21.286c-0.498,0-0.936,0-1.428,0c0-1.076,0-2.116,0-3.177
	c0.478-0.04,0.918-0.075,1.428-0.117C105.688,19.08,105.688,20.144,105.688,21.286z"/>
<path opacity="0.05" fill="#5D5D5D" d="M256.379,18.228c-0.63,0-1.198,0-1.813,0c0.391-0.691,1.91-1.048,2.388-0.604
	c0.138,0.129,0.214,0.391,0.214,0.592c0.018,2.31,0.005,4.618,0.018,6.928c0.004,0.577-0.287,0.805-0.818,0.805
	c-3.729,0.001-7.455,0.001-11.184-0.002c-0.541,0-0.803-0.259-0.8-0.823c0.015-2.281,0.011-4.563,0.002-6.845
	c-0.001-0.548,0.216-0.813,0.794-0.81c2.279,0.015,4.561,0.007,6.896,0.007c-0.098,0.6-0.424,0.783-0.965,0.778
	c-1.67-0.019-3.338-0.006-5.008-0.006c-0.297,0-0.595,0-0.938,0c0,2.067,0,4.029,0,6.065c3.729,0,7.438,0,11.215,0
	C256.379,22.339,256.379,20.357,256.379,18.228z"/>
<path opacity="0.05" fill="#5D5D5D" d="M250.171,21.957c0-0.264-0.105-0.598,0.018-0.775c1.106-1.63,2.254-3.23,3.39-4.842
	c0.063-0.09,0.116-0.2,0.205-0.259c0.389-0.262,0.782-0.768,1.276-0.309c0.498,0.464,0.221,0.978-0.158,1.393
	c-1.457,1.604-2.926,3.192-4.389,4.789C250.397,21.955,250.285,21.956,250.171,21.957z"/>
<path opacity="0.05" fill="#5D5D5D" d="M249.019,27.655c0.188-0.406,0.358-0.771,0.539-1.155c0.816,0,1.646,0,2.455,0
	c0.182,0.396,0.35,0.76,0.53,1.155C251.358,27.655,250.207,27.655,249.019,27.655z"/>
<path opacity="0.05" fill="#5D5D5D" d="M248.179,23.321c0.239-0.395,0.385-0.761,0.641-1.012c0.221-0.214,0.59-0.436,0.854-0.396
	c0.239,0.036,0.426,0.42,0.637,0.65c-0.242,0.188-0.459,0.462-0.731,0.547C249.144,23.247,248.673,23.254,248.179,23.321z"/>
<path opacity="0.05" fill="#5D5D5D" d="M117.038,54.78c-5.898,0.005-10.712-4.815-10.701-10.717
	c0.01-5.855,4.815-10.655,10.676-10.66c5.897-0.005,10.711,4.815,10.701,10.718C127.703,49.976,122.897,54.775,117.038,54.78z
	 M116.946,53.472c5.222,0.037,9.412-4.075,9.459-9.282c0.048-5.223-4.057-9.423-9.262-9.479c-5.256-0.058-9.473,4.081-9.502,9.322
	C107.615,49.251,111.738,53.435,116.946,53.472z"/>
<path opacity="0.05" fill="#5D5D5D" d="M122.621,40.668c-0.63,0-1.198,0-1.813,0c0.391-0.691,1.91-1.048,2.388-0.604
	c0.138,0.129,0.214,0.391,0.214,0.592c0.018,2.31,0.005,4.618,0.018,6.928c0.004,0.577-0.287,0.805-0.818,0.805
	c-3.729,0.001-7.455,0.001-11.184-0.002c-0.541,0-0.803-0.259-0.8-0.823c0.015-2.281,0.011-4.563,0.002-6.845
	c-0.001-0.548,0.216-0.813,0.794-0.81c2.279,0.015,4.561,0.007,6.896,0.007c-0.098,0.6-0.424,0.783-0.965,0.778
	c-1.67-0.019-3.338-0.006-5.008-0.006c-0.297,0-0.595,0-0.938,0c0,2.067,0,4.029,0,6.065c3.729,0,7.438,0,11.215,0
	C122.621,44.78,122.621,42.797,122.621,40.668z"/>
<path opacity="0.05" fill="#5D5D5D" d="M116.413,44.398c0-0.264-0.105-0.598,0.018-0.775c1.106-1.63,2.254-3.23,3.39-4.842
	c0.063-0.09,0.116-0.2,0.205-0.259c0.389-0.262,0.782-0.768,1.276-0.309c0.498,0.464,0.221,0.978-0.158,1.393
	c-1.457,1.604-2.926,3.192-4.389,4.789C116.64,44.396,116.527,44.397,116.413,44.398z"/>
<path opacity="0.05" fill="#5D5D5D" d="M115.261,50.095c0.188-0.406,0.358-0.771,0.539-1.155c0.816,0,1.646,0,2.455,0
	c0.182,0.396,0.35,0.76,0.53,1.155C117.601,50.095,116.449,50.095,115.261,50.095z"/>
<path opacity="0.05" fill="#5D5D5D" d="M114.421,45.761c0.239-0.395,0.385-0.761,0.641-1.012c0.221-0.214,0.59-0.436,0.854-0.396
	c0.239,0.036,0.426,0.42,0.637,0.65c-0.242,0.188-0.459,0.462-0.731,0.547C115.386,45.688,114.915,45.695,114.421,45.761z"/>
<path opacity="0.05" fill="#5D5D5D" d="M11.396,106.786c-5.898,0.006-10.712-4.814-10.701-10.717
	c0.01-5.855,4.815-10.654,10.676-10.66c5.897-0.004,10.711,4.815,10.701,10.719C22.061,101.983,17.256,106.782,11.396,106.786z
	 M11.305,105.479c5.222,0.037,9.412-4.075,9.459-9.282c0.048-5.222-4.057-9.423-9.262-9.479C6.246,86.66,2.029,90.799,2,96.039
	C1.974,101.258,6.097,105.442,11.305,105.479z"/>
<path opacity="0.05" fill="#5D5D5D" d="M16.979,92.676c-0.63,0-1.198,0-1.813,0c0.39-0.693,1.91-1.049,2.387-0.604
	c0.138,0.129,0.214,0.391,0.214,0.592c0.017,2.311,0.005,4.619,0.017,6.928c0.004,0.578-0.287,0.805-0.818,0.805
	c-3.729,0-7.455,0-11.184-0.002c-0.541,0-0.802-0.258-0.799-0.823c0.014-2.281,0.01-4.563,0.002-6.845
	c-0.001-0.547,0.215-0.813,0.793-0.809c2.28,0.014,4.561,0.006,6.897,0.006c-0.097,0.6-0.423,0.783-0.964,0.779
	c-1.67-0.019-3.338-0.006-5.008-0.006c-0.297,0-0.595,0-0.938,0c0,2.067,0,4.028,0,6.065c3.728,0,7.437,0,11.215,0
	C16.979,96.786,16.979,94.805,16.979,92.676z"/>
<path opacity="0.05" fill="#5D5D5D" d="M10.771,96.406c0-0.265-0.105-0.599,0.018-0.775c1.106-1.631,2.254-3.232,3.389-4.842
	c0.063-0.09,0.117-0.201,0.205-0.26c0.389-0.261,0.783-0.767,1.277-0.308c0.498,0.463,0.221,0.978-0.158,1.392
	c-1.457,1.604-2.926,3.192-4.389,4.788C10.998,96.404,10.886,96.404,10.771,96.406z"/>
<path opacity="0.05" fill="#5D5D5D" d="M0.371,102.856c0.188-0.405,0.358-0.77,0.539-1.155c0.816,0,1.646,0,2.455,0
	c0.182,0.396,0.35,0.76,0.53,1.155C2.711,102.856,1.56,102.856,0.371,102.856z"/>
<path opacity="0.05" fill="#5D5D5D" d="M-0.469,98.522c0.239-0.395,0.385-0.76,0.641-1.012c0.22-0.213,0.589-0.436,0.853-0.395
	c0.239,0.034,0.425,0.42,0.636,0.649c-0.242,0.189-0.459,0.463-0.731,0.547C0.496,98.448,0.025,98.456-0.469,98.522z"/>
<path opacity="0.05" fill="#5D5D5D" d="M44.659,69.878c2.465,0,4.93-0.003,7.395,0.001c1.107,0.002,1.433,0.332,1.434,1.442
	c0.001,4.215,0.001,8.431,0,12.646c-0.001,1.109-0.326,1.439-1.437,1.44c-4.952,0.003-9.903,0.003-14.856,0
	c-1.062,0-1.397-0.344-1.398-1.407c-0.002-4.238-0.002-8.478,0-12.715c0.001-1.063,0.338-1.403,1.4-1.405
	C39.685,69.873,42.171,69.878,44.659,69.878z M52.378,72.719c-5.205,0-10.327,0-15.478,0c0,3.63,0,7.215,0,10.736
	c0.445-0.042,0.88-0.049,1.297-0.137c0.197-0.041,0.43-0.198,0.527-0.37c0.211-0.375,0.348-0.792,0.57-1.329
	c-0.164-0.123-0.388-0.255-0.566-0.434c-0.58-0.577-0.578-0.792-0.019-1.371c0.288-0.299,0.59-0.583,0.876-0.883
	c0.436-0.455,0.855-0.478,1.298-0.005c0.186,0.197,0.444,0.54,0.606,0.507c0.507-0.102,1.018-0.296,1.453-0.571
	c0.16-0.102,0.082-0.539,0.172-0.804c0.109-0.314,0.259-0.854,0.434-0.869c0.764-0.076,1.582-0.125,2.297,0.091
	c0.241,0.072,0.236,0.959,0.344,1.475c0.006,0.021,0.016,0.044,0.033,0.099c0.233,0.091,0.517,0.146,0.737,0.296
	c0.603,0.407,1.052,0.313,1.517-0.249c0.157-0.189,0.695-0.345,0.82-0.236c0.604,0.519,1.232,1.07,1.611,1.746
	c0.117,0.208-0.531,0.845-0.828,1.284c-0.013,0.02-0.019,0.042-0.019,0.043c0.302,0.913,0.513,1.912,1.851,1.646
	c0.131-0.025,0.293,0.1,0.466,0.164C52.378,79.93,52.378,76.345,52.378,72.719z M41.649,84.326c2.001,0,3.997,0,6.005,0
	c-0.327-1.58-1.559-2.569-3.1-2.538C43.085,81.821,41.86,82.882,41.649,84.326z M51.552,70.479c-0.179,0.273-0.53,0.576-0.489,0.812
	c0.044,0.261,0.424,0.578,0.707,0.635c0.158,0.031,0.535-0.383,0.596-0.646C52.462,70.854,52.148,70.614,51.552,70.479z
	 M49.95,70.479c-0.109,0-0.218,0-0.327,0c-0.184,0.264-0.536,0.549-0.505,0.783c0.033,0.262,0.418,0.476,0.649,0.709
	c0.229-0.23,0.604-0.438,0.644-0.698C50.446,71.035,50.118,70.744,49.95,70.479z M48.613,71.464
	c0.006-0.104,0.012-0.211,0.018-0.315c-0.258-0.187-0.529-0.535-0.771-0.515c-0.259,0.021-0.487,0.391-0.729,0.605
	c0.22,0.243,0.414,0.64,0.669,0.686C48.037,71.967,48.339,71.633,48.613,71.464z"/>
<path opacity="0.05" fill="#5D5D5D" d="M12.842,36.326c2.465,0,4.93-0.003,7.395,0.001c1.107,0.002,1.433,0.332,1.434,1.442
	c0.001,4.215,0.001,8.431,0,12.646c-0.001,1.109-0.326,1.439-1.437,1.44c-4.952,0.003-9.903,0.003-14.856,0
	c-1.062,0-1.397-0.344-1.398-1.407c-0.003-4.239-0.003-8.478-0.001-12.716c0.001-1.063,0.338-1.403,1.4-1.405
	C7.868,36.322,10.354,36.326,12.842,36.326z M20.562,39.167c-5.205,0-10.327,0-15.478,0c0,3.63,0,7.215,0,10.736
	c0.445-0.042,0.88-0.049,1.297-0.137c0.197-0.041,0.43-0.198,0.527-0.37c0.211-0.375,0.348-0.792,0.57-1.329
	c-0.164-0.123-0.388-0.255-0.566-0.434c-0.58-0.577-0.578-0.792-0.019-1.371c0.288-0.299,0.59-0.583,0.876-0.883
	c0.436-0.455,0.855-0.478,1.298-0.005c0.186,0.198,0.444,0.54,0.606,0.507c0.507-0.101,1.018-0.296,1.453-0.571
	c0.16-0.102,0.082-0.539,0.172-0.804c0.109-0.314,0.259-0.854,0.434-0.869c0.764-0.076,1.582-0.125,2.297,0.091
	c0.241,0.072,0.236,0.959,0.344,1.475c0.006,0.021,0.016,0.044,0.033,0.099c0.233,0.091,0.517,0.146,0.737,0.296
	c0.603,0.407,1.052,0.313,1.517-0.249c0.157-0.189,0.695-0.345,0.82-0.236c0.604,0.519,1.232,1.07,1.611,1.746
	c0.117,0.208-0.531,0.845-0.828,1.284c-0.013,0.02-0.019,0.042-0.019,0.043c0.302,0.913,0.513,1.912,1.851,1.646
	c0.131-0.025,0.293,0.1,0.466,0.164C20.562,46.378,20.562,42.793,20.562,39.167z M9.833,50.775c2.001,0,3.997,0,6.005,0
	c-0.327-1.58-1.559-2.569-3.1-2.538C11.269,48.269,10.043,49.33,9.833,50.775z M19.735,36.927c-0.179,0.273-0.53,0.576-0.489,0.813
	c0.044,0.26,0.424,0.577,0.707,0.634c0.158,0.031,0.535-0.383,0.596-0.646C20.646,37.302,20.332,37.062,19.735,36.927z
	 M18.133,36.927c-0.109,0-0.218,0-0.327,0c-0.184,0.264-0.536,0.549-0.505,0.783c0.033,0.262,0.418,0.476,0.649,0.709
	c0.229-0.23,0.604-0.438,0.644-0.698C18.629,37.484,18.301,37.193,18.133,36.927z M16.796,37.912
	c0.006-0.104,0.012-0.211,0.018-0.315c-0.258-0.187-0.529-0.535-0.771-0.515c-0.259,0.021-0.487,0.391-0.729,0.605
	c0.22,0.243,0.414,0.64,0.669,0.686C16.22,38.415,16.522,38.081,16.796,37.912z"/>
<path opacity="0.05" fill="#5D5D5D" d="M196.563,72.472c2.465,0,4.93-0.003,7.395,0.001c1.107,0.002,1.433,0.332,1.435,1.442
	c0,4.215,0,8.431,0,12.646c-0.002,1.109-0.326,1.439-1.438,1.44c-4.951,0.003-9.902,0.003-14.855,0
	c-1.063,0-1.397-0.344-1.398-1.407c-0.003-4.239-0.003-8.478-0.001-12.716c0.001-1.063,0.338-1.403,1.399-1.405
	C191.589,72.467,194.075,72.472,196.563,72.472z M204.282,75.313c-5.205,0-10.327,0-15.479,0c0,3.63,0,7.215,0,10.736
	c0.445-0.042,0.881-0.049,1.297-0.137c0.197-0.041,0.431-0.198,0.527-0.37c0.211-0.375,0.348-0.792,0.57-1.329
	c-0.164-0.123-0.389-0.255-0.566-0.434c-0.58-0.577-0.578-0.792-0.019-1.371c0.288-0.299,0.59-0.583,0.876-0.883
	c0.436-0.455,0.855-0.478,1.298-0.005c0.187,0.198,0.444,0.54,0.606,0.507c0.507-0.101,1.018-0.296,1.453-0.571
	c0.16-0.102,0.082-0.539,0.172-0.804c0.109-0.314,0.259-0.854,0.434-0.869c0.764-0.076,1.582-0.125,2.297,0.091
	c0.241,0.072,0.236,0.959,0.344,1.475c0.006,0.021,0.017,0.044,0.033,0.099c0.233,0.091,0.518,0.146,0.737,0.296
	c0.603,0.407,1.052,0.313,1.517-0.249c0.157-0.189,0.695-0.345,0.82-0.236c0.604,0.519,1.232,1.07,1.611,1.746
	c0.117,0.208-0.531,0.845-0.828,1.284c-0.014,0.02-0.02,0.042-0.02,0.043c0.303,0.913,0.514,1.912,1.852,1.646
	c0.131-0.025,0.293,0.1,0.466,0.164C204.282,82.524,204.282,78.939,204.282,75.313z M193.554,86.92c2,0,3.996,0,6.004,0
	c-0.326-1.58-1.559-2.569-3.1-2.538C194.989,84.414,193.765,85.476,193.554,86.92z M203.456,73.073
	c-0.179,0.273-0.529,0.576-0.488,0.813c0.043,0.26,0.424,0.577,0.707,0.634c0.157,0.031,0.535-0.383,0.596-0.646
	C204.366,73.448,204.052,73.207,203.456,73.073z M201.854,73.073c-0.109,0-0.218,0-0.327,0c-0.184,0.264-0.536,0.549-0.505,0.783
	c0.032,0.262,0.418,0.476,0.649,0.709c0.229-0.23,0.604-0.438,0.644-0.698C202.351,73.629,202.021,73.338,201.854,73.073z
	 M200.517,74.058c0.007-0.104,0.013-0.211,0.019-0.315c-0.258-0.187-0.528-0.535-0.771-0.515c-0.26,0.021-0.487,0.391-0.729,0.605
	c0.22,0.243,0.414,0.64,0.669,0.686C199.94,74.561,200.243,74.227,200.517,74.058z"/>
<path opacity="0.05" fill="#5D5D5D" d="M11.401,118.493c2.465,0,4.93-0.003,7.395,0.001c1.107,0.002,1.433,0.332,1.434,1.442
	c0.001,4.215,0.001,8.431,0,12.646c-0.001,1.109-0.326,1.439-1.437,1.44c-4.952,0.003-9.903,0.003-14.856,0
	c-1.062,0-1.397-0.344-1.398-1.408c-0.003-4.238-0.003-8.477-0.001-12.715c0.001-1.063,0.338-1.403,1.4-1.405
	C6.427,118.489,8.914,118.493,11.401,118.493z M19.121,121.334c-5.205,0-10.327,0-15.478,0c0,3.63,0,7.215,0,10.736
	c0.445-0.042,0.88-0.049,1.297-0.137c0.197-0.041,0.43-0.198,0.527-0.37c0.211-0.375,0.348-0.792,0.57-1.329
	c-0.164-0.123-0.388-0.255-0.566-0.434c-0.58-0.577-0.578-0.792-0.019-1.371c0.288-0.299,0.59-0.583,0.876-0.883
	c0.436-0.455,0.855-0.478,1.298-0.005c0.186,0.198,0.444,0.54,0.606,0.507c0.507-0.101,1.018-0.296,1.453-0.571
	c0.16-0.102,0.082-0.539,0.172-0.804c0.109-0.314,0.259-0.854,0.434-0.869c0.764-0.076,1.582-0.125,2.297,0.091
	c0.241,0.072,0.236,0.959,0.344,1.475c0.006,0.021,0.016,0.044,0.033,0.099c0.233,0.091,0.517,0.146,0.737,0.296
	c0.603,0.407,1.052,0.313,1.517-0.249c0.157-0.189,0.695-0.345,0.82-0.235c0.604,0.518,1.232,1.069,1.611,1.745
	c0.117,0.208-0.531,0.845-0.828,1.284c-0.013,0.02-0.019,0.042-0.019,0.043c0.302,0.913,0.513,1.912,1.851,1.646
	c0.131-0.025,0.293,0.1,0.466,0.164C19.121,128.545,19.121,124.96,19.121,121.334z M8.392,132.942c2.001,0,3.997,0,6.005,0
	c-0.327-1.58-1.559-2.569-3.1-2.538C9.828,130.436,8.604,131.497,8.392,132.942z M18.295,119.094
	c-0.179,0.273-0.53,0.576-0.489,0.812c0.044,0.261,0.424,0.578,0.707,0.635c0.158,0.031,0.535-0.383,0.596-0.646
	C19.205,119.469,18.891,119.229,18.295,119.094z M16.692,119.094c-0.109,0-0.218,0-0.327,0c-0.184,0.264-0.536,0.549-0.505,0.783
	c0.033,0.262,0.418,0.476,0.649,0.709c0.229-0.23,0.604-0.438,0.644-0.698C17.189,119.651,16.86,119.36,16.692,119.094z
	 M15.356,120.079c0.006-0.104,0.012-0.211,0.018-0.315c-0.258-0.187-0.529-0.535-0.771-0.515c-0.259,0.021-0.487,0.391-0.729,0.605
	c0.22,0.243,0.414,0.64,0.669,0.686C14.779,120.582,15.082,120.248,15.356,120.079z"/>
<g opacity="0.05">
	<path fill="#5D5D5D" d="M55.497,112.154c0.004,5.334-4.355,9.687-9.691,9.677c-5.296-0.011-9.635-4.354-9.639-9.654
		c-0.004-5.334,4.355-9.687,9.691-9.676C51.155,102.51,55.493,106.856,55.497,112.154z M46.45,120.587
		c4.346-0.176,7.795-4.144,7.764-7.855c-0.463,0-0.927,0-1.377,0c0-0.424,0-0.766,0-1.187c0.511,0,0.973,0,1.438,0
		c-0.328-4.226-3.867-7.737-7.814-7.794c-0.022,0.464-0.046,0.93-0.068,1.396c-0.412,0-0.768,0-1.177,0c0-0.511,0-0.956,0-1.402
		c-4.346,0.176-7.796,4.143-7.763,7.855c0.461,0,0.925,0,1.375,0c0,0.426,0,0.766,0,1.187c-0.511,0-0.972,0-1.438,0
		c0.329,4.224,3.869,7.737,7.815,7.794c0.022-0.465,0.045-0.931,0.067-1.396c0.412,0,0.768,0,1.178,0
		C46.45,119.694,46.45,120.141,46.45,120.587z"/>
	<path fill="#5D5D5D" d="M50.454,116.548c-3.09,0-6.141,0-9.189,0c-0.081-1.3,0.287-1.977,1.385-2.492
		c0.475-0.222,0.979-0.379,1.469-0.568c0.773-0.301,0.754-0.467,0.489-1.232c-0.304-0.881-0.542-1.821-0.585-2.747
		c-0.048-1.027,0.701-1.572,1.807-1.552c1.102,0.021,1.843,0.593,1.781,1.604c-0.057,0.901-0.306,1.812-0.6,2.673
		c-0.244,0.717-0.246,0.935,0.445,1.221c0.509,0.209,1.022,0.406,1.537,0.6C50.134,114.483,50.44,115.394,50.454,116.548z"/>
	<path fill="#5D5D5D" d="M47.456,107.964c1.256-0.438,2.067,0.069,2.019,1.277c-0.022,0.562-0.148,1.163-0.4,1.659
		c-0.317,0.624-0.099,0.871,0.442,1.063c0.307,0.108,0.609,0.229,0.914,0.345c0.877,0.328,1.23,0.972,1.139,1.926
		c-1.69,0.373-2.75-1.132-4.297-1.299C47.978,111.235,48.669,109.643,47.456,107.964z"/>
	<path fill="#5D5D5D" d="M44.146,107.962c-0.914,1.395-0.876,2.411,0.207,4.981c-1.498,0.15-2.536,1.625-4.186,1.313
		c-0.169-1.019,0.095-1.5,1.065-1.95c0.474-0.22,1.157-0.313,1.364-0.68c0.172-0.306-0.222-0.922-0.346-1.406
		c-0.068-0.268-0.125-0.542-0.142-0.816C42.025,107.988,43.109,107.49,44.146,107.962z"/>
</g>
<g opacity="0.05">
	<path fill="#5D5D5D" d="M266.847,52.803c0.004,5.334-4.354,9.687-9.691,9.676c-5.295-0.011-9.635-4.354-9.639-9.653
		c-0.004-5.334,4.355-9.687,9.691-9.677C262.504,43.159,266.843,47.505,266.847,52.803z M257.8,61.236
		c4.346-0.176,7.795-4.144,7.764-7.855c-0.463,0-0.926,0-1.377,0c0-0.424,0-0.765,0-1.187c0.513,0,0.975,0,1.438,0
		c-0.328-4.226-3.867-7.737-7.813-7.794c-0.021,0.465-0.047,0.931-0.067,1.396c-0.412,0-0.769,0-1.179,0c0-0.51,0-0.956,0-1.402
		c-4.346,0.176-7.795,4.144-7.763,7.855c0.462,0,0.925,0,1.375,0c0,0.426,0,0.767,0,1.187c-0.511,0-0.972,0-1.438,0
		c0.33,4.225,3.869,7.737,7.816,7.794c0.021-0.464,0.045-0.931,0.066-1.396c0.412,0,0.768,0,1.178,0
		C257.8,60.343,257.8,60.79,257.8,61.236z"/>
	<path fill="#5D5D5D" d="M261.804,57.197c-3.09,0-6.141,0-9.188,0c-0.081-1.3,0.285-1.976,1.385-2.491
		c0.477-0.223,0.979-0.379,1.469-0.569c0.773-0.301,0.756-0.467,0.489-1.232c-0.306-0.881-0.542-1.821-0.585-2.746
		c-0.048-1.028,0.701-1.573,1.809-1.553c1.102,0.021,1.842,0.594,1.779,1.604c-0.059,0.901-0.307,1.812-0.602,2.673
		c-0.242,0.718-0.246,0.935,0.445,1.221c0.51,0.209,1.022,0.406,1.537,0.601C261.483,55.132,261.789,56.042,261.804,57.197z"/>
	<path fill="#5D5D5D" d="M258.806,48.613c1.256-0.438,2.067,0.07,2.021,1.278c-0.021,0.562-0.148,1.163-0.4,1.658
		c-0.315,0.624-0.099,0.871,0.442,1.063c0.307,0.109,0.607,0.229,0.914,0.345c0.877,0.329,1.229,0.973,1.139,1.926
		c-1.689,0.373-2.75-1.132-4.297-1.299C259.327,51.884,260.019,50.292,258.806,48.613z"/>
	<path fill="#5D5D5D" d="M255.495,48.611c-0.914,1.395-0.876,2.411,0.207,4.981c-1.498,0.151-2.536,1.625-4.186,1.313
		c-0.17-1.018,0.094-1.5,1.063-1.949c0.476-0.221,1.155-0.313,1.362-0.681c0.174-0.305-0.221-0.922-0.346-1.405
		c-0.066-0.269-0.125-0.542-0.142-0.817C253.374,48.637,254.458,48.139,255.495,48.611z"/>
</g>
<g opacity="0.05">
	<path fill="#5D5D5D" d="M33.657,47.944c6.384,0.22,10.148-2.868,11.869-8.973c-0.912,0-1.68,0-2.678,0
		c1.686-1.474,3.189-2.787,4.742-4.145c1.538,1.34,3.051,2.657,4.749,4.139c-0.697,0-1.195-0.05-1.675,0.021
		c-0.223,0.034-0.554,0.277-0.592,0.474c-1.379,7.083-9.214,10.864-15.865,8.719C34.019,48.119,33.841,48.023,33.657,47.944z"/>
	<path fill="#5D5D5D" d="M50.7,40.302c0,4.534,0,9.274,0,14.069c-0.766,0-1.518,0-2.338,0c-0.02-0.203-0.057-0.42-0.058-0.638
		c-0.004-2.833-0.009-5.666,0.006-8.499c0.002-0.29,0.069-0.608,0.202-0.863C49.247,42.967,50.01,41.578,50.7,40.302z"/>
	<path fill="#5D5D5D" d="M47.022,54.4c-0.795,0-1.527,0-2.372,0c0-0.622,0-1.222,0-1.821c0-1.427-0.029-2.854,0.022-4.277
		c0.012-0.309,0.25-0.684,0.498-0.896c0.555-0.472,1.18-0.859,1.852-1.335C47.022,48.873,47.022,51.602,47.022,54.4z"/>
	<path fill="#5D5D5D" d="M43.386,54.403c-0.814,0-1.549,0-2.34,0c0-1.768,0-3.511,0-5.3c0.75-0.229,1.512-0.463,2.34-0.718
		C43.386,50.434,43.386,52.383,43.386,54.403z"/>
	<path fill="#5D5D5D" d="M36.065,54.389c-0.832,0-1.585,0-2.374,0c0-1.885,0-3.729,0-5.656c0.806,0.188,1.578,0.368,2.374,0.555
		C36.065,50.99,36.065,52.658,36.065,54.389z"/>
	<path fill="#5D5D5D" d="M39.723,54.409c-0.81,0-1.543,0-2.337,0c0-1.65,0-3.285,0-4.992c0.752,0,1.521,0,2.337,0
		C39.723,51.057,39.723,52.695,39.723,54.409z"/>
</g>
<g opacity="0.05">
	<path fill="#5D5D5D" d="M208.538,49.395c6.385,0.22,10.148-2.868,11.869-8.973c-0.912,0-1.68,0-2.678,0
		c1.686-1.474,3.189-2.787,4.742-4.145c1.537,1.34,3.051,2.657,4.748,4.139c-0.696,0-1.194-0.05-1.674,0.021
		c-0.224,0.034-0.555,0.277-0.593,0.474c-1.379,7.083-9.214,10.864-15.864,8.719C208.9,49.571,208.722,49.474,208.538,49.395z"/>
	<path fill="#5D5D5D" d="M225.581,41.754c0,4.534,0,9.274,0,14.069c-0.766,0-1.518,0-2.338,0c-0.02-0.203-0.057-0.42-0.058-0.638
		c-0.005-2.833-0.009-5.666,0.006-8.499c0.002-0.29,0.069-0.608,0.202-0.863C224.128,44.419,224.892,43.03,225.581,41.754z"/>
	<path fill="#5D5D5D" d="M221.903,55.851c-0.795,0-1.527,0-2.372,0c0-0.622,0-1.222,0-1.821c0-1.427-0.028-2.854,0.022-4.277
		c0.012-0.309,0.25-0.684,0.498-0.896c0.555-0.472,1.18-0.859,1.852-1.335C221.903,50.325,221.903,53.053,221.903,55.851z"/>
	<path fill="#5D5D5D" d="M218.267,55.854c-0.813,0-1.549,0-2.34,0c0-1.768,0-3.511,0-5.3c0.75-0.229,1.513-0.463,2.34-0.718
		C218.267,51.885,218.267,53.835,218.267,55.854z"/>
	<path fill="#5D5D5D" d="M210.946,55.841c-0.832,0-1.585,0-2.374,0c0-1.885,0-3.729,0-5.656c0.806,0.188,1.578,0.368,2.374,0.555
		C210.946,52.441,210.946,54.11,210.946,55.841z"/>
	<path fill="#5D5D5D" d="M214.604,55.861c-0.811,0-1.543,0-2.338,0c0-1.65,0-3.285,0-4.992c0.753,0,1.521,0,2.338,0
		C214.604,52.509,214.604,54.146,214.604,55.861z"/>
</g>
<g opacity="0.05">
	<path fill="#5D5D5D" d="M242.128,125.156c6.385,0.221,10.148-2.867,11.869-8.973c-0.912,0-1.68,0-2.678,0
		c1.686-1.473,3.189-2.787,4.742-4.145c1.537,1.34,3.051,2.658,4.748,4.139c-0.696,0-1.194-0.049-1.674,0.021
		c-0.224,0.035-0.555,0.277-0.593,0.475c-1.379,7.082-9.214,10.863-15.864,8.719C242.49,125.331,242.312,125.236,242.128,125.156z"
		/>
	<path fill="#5D5D5D" d="M259.171,117.515c0,4.533,0,9.273,0,14.068c-0.766,0-1.518,0-2.338,0c-0.02-0.203-0.057-0.42-0.058-0.637
		c-0.005-2.834-0.009-5.666,0.006-8.5c0.002-0.289,0.069-0.607,0.202-0.863C257.718,120.179,258.481,118.79,259.171,117.515z"/>
	<path fill="#5D5D5D" d="M255.493,131.613c-0.795,0-1.527,0-2.372,0c0-0.623,0-1.223,0-1.822c0-1.426-0.028-2.854,0.022-4.277
		c0.012-0.309,0.25-0.684,0.498-0.896c0.555-0.471,1.18-0.859,1.852-1.334C255.493,126.085,255.493,128.814,255.493,131.613z"/>
	<path fill="#5D5D5D" d="M251.856,131.615c-0.813,0-1.549,0-2.34,0c0-1.768,0-3.51,0-5.299c0.75-0.229,1.513-0.463,2.34-0.719
		C251.856,127.646,251.856,129.595,251.856,131.615z"/>
	<path fill="#5D5D5D" d="M244.536,131.601c-0.832,0-1.585,0-2.374,0c0-1.885,0-3.729,0-5.656c0.806,0.189,1.578,0.369,2.374,0.555
		C244.536,128.202,244.536,129.87,244.536,131.601z"/>
	<path fill="#5D5D5D" d="M248.194,131.622c-0.811,0-1.543,0-2.338,0c0-1.65,0-3.285,0-4.992c0.753,0,1.521,0,2.338,0
		C248.194,128.269,248.194,129.907,248.194,131.622z"/>
</g>
</svg>
