<?xml version="1.0" encoding="iso-8859-1"?>
<!-- Generator: Adobe Illustrator 19.0.0, SVG Export Plug-In . SVG Version: 6.00 Build 0)  -->
<svg version="1.1" id="Capa_1" xmlns="http://www.w3.org/2000/svg" xmlns:xlink="http://www.w3.org/1999/xlink" x="0px" y="0px"
	 viewBox="0 0 512 512" style="enable-background:new 0 0 512 512;" xml:space="preserve">
<g>
	<g>
		<path d="M474.5,93.5h-91.593c-1.292-19.515-17.571-35-37.407-35h-180c-19.837,0-36.115,15.485-37.407,35H37.5
			C16.822,93.5,0,110.322,0,131v250c0,20.678,16.822,37.5,37.5,37.5h90.593c1.292,19.515,17.571,35,37.407,35h180
			c19.837,0,36.115-15.485,37.407-35H474.5c20.678,0,37.5-16.822,37.5-37.5V131C512,110.322,495.178,93.5,474.5,93.5z M128,403.5
			H37.5C25.093,403.5,15,393.406,15,381V131c0-12.406,10.093-22.5,22.5-22.5H128V403.5z M368,416c0,12.406-10.093,22.5-22.5,22.5
			h-180c-12.407,0-22.5-10.094-22.5-22.5V96c0-12.406,10.093-22.5,22.5-22.5h180c12.407,0,22.5,10.094,22.5,22.5V416z M497,381
			c0,12.406-10.093,22.5-22.5,22.5H383v-295h91.5c12.407,0,22.5,10.094,22.5,22.5V381z"/>
	</g>
</g>
<g>
	<g>
		<path d="M283.5,248H263v-23h46.5v-15H263v-20.5h-15V210h-20.5c-14.612,0-26.5,11.888-26.5,26.5s11.888,26.5,26.5,26.5H248v25.5
			h-46.5v15H248v16h15v-16h20.5c14.612,0,26.5-11.888,26.5-26.5v-2.5C310,259.888,298.112,248,283.5,248z M248,248h-20.5
			c-6.341,0-11.5-5.159-11.5-11.5s5.159-11.5,11.5-11.5H248V248z M295,277c0,6.341-5.159,11.5-11.5,11.5H263V263h20.5
			c6.341,0,11.5,5.159,11.5,11.5V277z"/>
	</g>
</g>
<g>
	<g>
		<rect x="34" y="138" width="15" height="15"/>
	</g>
</g>
<g>
	<g>
		<rect x="94" y="138" width="15" height="15"/>
	</g>
</g>
<g>
	<g>
		<rect x="64" y="138" width="15" height="15"/>
	</g>
</g>
<g>
	<g>
		<rect x="462.5" y="138" width="15" height="15"/>
	</g>
</g>
<g>
	<g>
		<rect x="402.5" y="138" width="15" height="15"/>
	</g>
</g>
<g>
	<g>
		<rect x="432.5" y="138" width="15" height="15"/>
	</g>
</g>
<g>
	<g>
		<rect x="432.5" y="359" width="15" height="15"/>
	</g>
</g>
<g>
	<g>
		<rect x="402.5" y="359" width="15" height="15"/>
	</g>
</g>
<g>
	<g>
		<rect x="462.5" y="359" width="15" height="15"/>
	</g>
</g>
<g>
	<g>
		<rect x="64" y="359" width="15" height="15"/>
	</g>
</g>
<g>
	<g>
		<rect x="94" y="359" width="15" height="15"/>
	</g>
</g>
<g>
	<g>
		<rect x="34" y="359" width="15" height="15"/>
	</g>
</g>
<g>
	<g>
		<path d="M461,247.75h-14v-12h34.5v-15H447V202h-15v18.75h-14c-11.58,0-21,9.421-21,21s9.42,21,21,21h14v13.5h-34.5v15H432V310h15
			v-18.75h14c11.58,0,21-9.421,21-21v-1.5C482,257.171,472.58,247.75,461,247.75z M432,247.75h-14c-3.309,0-6-2.691-6-6s2.691-6,6-6
			h14V247.75z M467,270.25c0,3.309-2.691,6-6,6h-14v-13.5h14c3.309,0,6,2.691,6,6V270.25z"/>
	</g>
</g>
<g>
	<g>
		<path d="M94,247.75H80v-12h34.5v-15H80V202H65v18.75H51c-11.58,0-21,9.421-21,21s9.42,21,21,21h14v13.5H30.5v15H65V310h15v-18.75
			h14c11.58,0,21-9.421,21-21v-1.5C115,257.171,105.58,247.75,94,247.75z M65,247.75H51c-3.309,0-6-2.691-6-6s2.691-6,6-6h14V247.75
			z M100,270.25c0,3.309-2.691,6-6,6H80v-13.5h14c3.309,0,6,2.691,6,6V270.25z"/>
	</g>
</g>
<g>
	<g>
		<rect x="331" y="135" width="15" height="15"/>
	</g>
</g>
<g>
	<g>
		<rect x="195" y="135" width="121" height="15"/>
	</g>
</g>
<g>
	<g>
		<rect x="165" y="135" width="15" height="15"/>
	</g>
</g>
<g>
	<g>
		<rect x="165" y="362" width="15" height="15"/>
	</g>
</g>
<g>
	<g>
		<rect x="331" y="362" width="15" height="15"/>
	</g>
</g>
<g>
	<g>
		<rect x="195" y="362" width="121" height="15"/>
	</g>
</g>
<g>
</g>
<g>
</g>
<g>
</g>
<g>
</g>
<g>
</g>
<g>
</g>
<g>
</g>
<g>
</g>
<g>
</g>
<g>
</g>
<g>
</g>
<g>
</g>
<g>
</g>
<g>
</g>
<g>
</g>
</svg>
