<?xml version="1.0" encoding="utf-8"?>
<!-- Generator: Adobe Illustrator 16.0.0, SVG Export Plug-In . SVG Version: 6.00 Build 0)  -->
<!DOCTYPE svg PUBLIC "-//W3C//DTD SVG 1.1//EN" "http://www.w3.org/Graphics/SVG/1.1/DTD/svg11.dtd">
<svg version="1.1" id="Layer_1" xmlns="http://www.w3.org/2000/svg" xmlns:xlink="http://www.w3.org/1999/xlink" x="0px" y="0px"
	 width="512px" height="527.57px" viewBox="1026.873 -1073.958 512 527.57" enable-background="new 1026.873 -1073.958 512 527.57"
	 xml:space="preserve">
<g opacity="0.1">
	<path fill="#474A4E" d="M1258.84,3382.543c-22.314,0.064-44.631,0.111-66.946,0.221c-2.932,0.014-5.321,0.082-5.404-4.047
		c-0.087-4.24,1.993-4.795,5.512-4.775c19.59,0.109,39.188,0.395,58.764-0.127c7.177-0.191,9.396,2.141,8.021,8.777l0.294,0.271
		L1258.84,3382.543z"/>
	<path fill="#424143" d="M1259.042,3433.965c0.007,2.309,0.014,4.615,0.021,6.926c-13.352,1.902-26.775,0.449-40.16,0.84
		c-9.441,0.273-18.897,0.002-28.345,0.166c-2.964,0.053-3.954-1.09-3.949-3.914c0.005-2.781,0.237-4.822,3.88-4.76
		C1213.337,3433.624,1236.202,3432.557,1259.042,3433.965z"/>
	<path fill="#484B4E" d="M1215.951,3458.805c1.873,6.15,0.354,9.504-6.822,8.656c-2.161-0.254-4.409,0.213-6.617,0.352
		c-3.677-0.15-7.359-0.504-11.027-0.391c-3.308,0.105-4.936-0.732-5.012-4.453c-0.084-4.002,2.057-4.334,5.101-4.295
		C1199.697,3458.782,1207.824,3458.77,1215.951,3458.805z"/>
	<path fill="#484D51" d="M1201.747,3403.827c-3.451,0.004-6.913-0.158-10.351,0.049c-3.42,0.207-4.864-0.971-4.938-4.559
		c-0.083-4.066,2.186-4.211,5.209-4.158c6.653,0.115,13.313,0.127,19.967,0.002c3.253-0.063,5.021,0.727,4.99,4.506
		c-0.031,3.998-2.279,4.264-5.266,4.178C1208.158,3403.752,1204.952,3403.825,1201.747,3403.827z"/>
	<path fill="#444344" d="M1394.84,3277.77c-0.147,6.447-0.162,12.9-0.495,19.34c-0.208,4.037,1.58,5.053,5.313,4.986
		c10.442-0.186,20.896,0.164,31.332-0.166c4.702-0.148,6.031,1.436,5.764,5.959c-0.367,6.195-0.283,12.438-0.025,18.645
		c0.164,3.9-1.221,5.232-5.104,5.16c-10.443-0.189-20.903,0.236-31.331-0.184c-5.345-0.215-5.928,2.119-6.042,6.561
		c-0.128,4.859,1.348,6.443,6.28,6.297c6.146-0.186,14.175-2.746,18.022,0.975c4.223,4.082,1.328,12.248,1.384,18.611
		c0.106,11.74,1.579,10.1-10.297,10.17c-15.252,0.094-15.253,0.023-15.253,15.086c0.001,6.965,0.251,13.938-0.082,20.887
		c-0.228,4.734,1.145,7.088,6.171,6.293c5.136-0.814,7.467,1.217,6.563,6.506c-0.041,0.242,0.022,0.5-0.01,0.746
		c-1.704,12.754,1.475,21.545,13.355,30.018c23.798,16.973,30.938,49.637,20.115,76.563c-11.247,27.986-38.005,44.611-68.574,42.604
		c-28.513-1.871-53.406-22.848-60.323-50.832c-7.152-28.936,4.77-58.793,30.126-74.213c4.415-2.688,6.621-5.402,5.955-10.523
		c-0.316-2.445-0.054-4.967-0.054-7.453c-0.001-12.426-0.001-12.426,11.565-14.084c1.401-2.568,0.707-5.35,0.711-8.021
		c0.05-40.889,0.021-81.773,0.066-122.66c0.003-2.68-0.635-5.455,0.653-8.047l0.067-0.07c10.904-1.482,21.853-0.404,32.78-0.57
		C1394.538,3276.329,1394.443,3277.245,1394.84,3277.77z"/>
	<path fill="#434243" d="M2325.246,3678.737c1.158,1.508,3.171,4.031,5.076,6.631c3.096,4.227,6.047,4.326,9.26,0.057
		c1.334-1.771,3.258-3.084,4.686-4.797c1.99-2.391,3.647-1.941,5.423,0.174c0.796,0.947,1.746,1.77,2.627,2.648
		c51.353,51.352,102.625,102.785,154.188,153.928c4.828,4.789,4.372,7.041-0.187,11.398c-13.838,13.229-27.389,26.781-40.616,40.623
		c-4.074,4.264-6.093,3.535-9.845-0.234c-51.584-51.826-103.291-103.529-155.116-155.115c-3.709-3.693-4.753-5.779-0.305-9.799
		c7.525-6.799,7.417-7.322-0.32-14.719c-3.487-3.332-3.771-5.348-0.067-8.719c6.614-6.02,12.718-12.6,19.088-18.891
		C2320.321,3680.752,2321.214,3679.086,2325.246,3678.737z"/>
	<path fill="#424244" d="M2891.324,3398.208c0.007,2.938-2.137,4.457-3.892,6.139c-2.931,2.807-5.211,4.979-2.938,10.043
		c2.235,4.986,4.793,6.908,9.944,6.234c5.679-0.742,8.23,1.639,7.882,7.613c-0.362,6.188-0.339,12.434,0.017,18.625
		c0.342,5.947-2.16,8.266-7.888,7.641c-4.493-0.492-7.353,0.455-9.687,5.41c-2.641,5.6-0.396,8.252,3.184,11.268
		c4.063,3.418,4.464,6.627,0.2,10.43c-4.629,4.127-9.056,8.531-13.173,13.17c-4.039,4.555-7.664,5.1-11.547,0.117
		c-2.874-3.688-5.727-4.887-10.708-2.793c-4.929,2.07-6.286,4.844-5.646,9.543c0.854,6.285-2.08,8.463-8.161,8.088
		c-5.939-0.363-11.938-0.348-17.882-0.004c-5.832,0.338-8.46-1.949-7.749-7.77c0.611-4.994-0.846-7.834-6.063-10.049
		c-5.347-2.27-7.853-0.004-10.59,3.311c-3.842,4.652-7.215,4.008-11.01-0.195c-3.99-4.422-8.227-8.654-12.653-12.639
		c-4.431-3.982-5.218-7.629-0.201-11.602c3.594-2.846,5-5.602,2.913-10.717c-2.084-5.109-4.993-6.141-9.546-5.553
		c-6.356,0.82-8.408-2.176-8.063-8.188c0.34-5.943,0.321-11.936,0.006-17.885c-0.303-5.709,1.743-8.447,7.692-7.879
		c4.339,0.414,7.559-0.053,9.815-5.26c2.356-5.434,0.675-8.271-3.063-11.336c-4.104-3.363-4.451-6.688-0.303-10.508
		c4.75-4.369,9.313-8.965,13.705-13.697c3.655-3.938,6.989-4.354,10.535-0.076c3.018,3.643,5.73,5.584,11.305,3.307
		c5.696-2.33,5.885-5.855,5.49-10.424c-0.491-5.717,2.412-7.396,7.637-7.193c6.203,0.238,12.435,0.297,18.631-0.01
		c5.898-0.291,8.276,2.162,7.574,7.936c-0.548,4.502,0.267,7.623,5.432,9.637c4.898,1.908,7.853,1.131,10.809-2.689
		c3.78-4.889,7.486-4.643,11.592-0.035c4.125,4.633,8.728,8.838,13.113,13.236
		C2889.436,3394.856,2890.977,3396.167,2891.324,3398.208z"/>
	<path fill="#424243" d="M1766.938,3403.481c0.035,32.881-26.063,59.357-58.815,59.67c-32.804,0.311-59.593-26.525-59.574-59.678
		c0.019-32.723,26.66-59.381,59.203-59.24C1740.597,3344.374,1766.902,3370.708,1766.938,3403.481z"/>
	<path fill="#424243" d="M2699.354,3725.708c44.791,0.256,80.354,36.242,80.041,80.988c-0.311,44.566-36.543,80.117-81.338,79.813
		c-44.209-0.299-79.727-36.318-79.611-80.736C2618.559,3761.043,2654.528,3725.45,2699.354,3725.708z"/>
	<path fill="#424243" d="M3073.991,3602.899c-0.195,6.018-4.784,13.658-13.645,18.211c-9.147,4.699-18.592,4.188-26.646-2.248
		c-4.146-3.313-7.081-3.48-10.879-0.434c-0.957,0.768-2.135,1.26-3.208,1.883c-12.829,7.441-13.767,9.293-12.455,23.498
		c0.166,1.811,1.125,2.586,2.437,3.346c5.372,3.105,10.879,6.01,16.064,9.404c3.695,2.42,5.272-0.416,7.574-2.107
		c10.304-7.578,24.559-6.576,33.457,2.26c8.75,8.691,9.965,22.791,2.825,32.795c-7.289,10.213-21.441,13.641-32.601,7.889
		c-9.291-4.787-15.323-15.564-13.27-26.121c0.95-4.887-0.595-6.799-4.348-8.525c-1.797-0.826-3.506-1.875-5.172-2.951
		c-6.432-4.158-11.607-7.428-19.942-1.045c-9.788,7.494-24.286,3.178-31.808-6.703c-7.45-9.789-6.687-23.9,1.781-32.871
		c8.77-9.289,23.077-11.184,33.114-3.117c4.82,3.873,7.945,3.195,12.084,0.176c1.793-1.309,3.776-2.447,5.824-3.303
		c6.471-2.707,9.277-6.215,8.457-14.371c-1.412-14.049,11.117-25.697,25.178-25.555
		C3063.085,3573.153,3074.157,3584.493,3073.991,3602.899z"/>
	<path fill="#424143" d="M1445.775,3719.467c-1.391,4.117-5.807,6.477-8.808,9.994c-3.836,4.498-7.487,7.949-13.257,1.748
		c-2.73-2.938-8.086-0.002-8.063,4.484c0.028,5.99-3.014,7.148-7.993,6.838c-3.218-0.197-6.468-0.184-9.687,0.006
		c-4.922,0.289-7.997-0.707-8.013-6.781c-0.013-5.148-5.442-7.373-9.17-3.793c-4.21,4.045-7.226,3.094-10.581-0.713
		c-1.969-2.23-4.081-4.365-6.322-6.322c-4.166-3.637-5.824-6.955-1.003-11.703c3.306-3.26,0.896-8.787-3.879-8.756
		c-6.404,0.043-7.556-3.197-7.229-8.436c0.188-2.971,0.216-5.977,0-8.941c-0.394-5.422,1.274-8.297,7.396-8.424
		c4.744-0.098,6.8-5.361,3.448-8.729c-4.493-4.514-2.873-7.711,1.004-11.17c2.221-1.982,4.375-4.076,6.314-6.328
		c3.528-4.098,6.719-5.088,11.157-0.787c3.358,3.258,8.893,0.932,8.835-3.732c-0.08-6.486,3.271-7.465,8.465-7.121
		c2.969,0.197,5.975,0.217,8.939-0.004c5.386-0.4,8.337,1.082,8.353,7.332c0.012,4.74,5.362,6.75,8.941,3.334
		c4.188-3.994,7.196-3.168,10.59,0.654c2.306,2.598,4.776,5.072,7.36,7.391c3.558,3.191,4.437,5.994,0.653,9.963
		c-3.714,3.9-1.813,8.977,3.486,9.223c5.794,0.268,7.239,2.99,6.85,8.078c-0.245,3.211-0.128,6.459-0.026,9.688
		c0.138,4.287,0.01,7.732-5.965,7.979c-6.278,0.254-7.97,4.875-4.096,9.871C1444.545,3715.68,1445.934,3716.803,1445.775,3719.467z"
		/>
	<path fill="#454648" d="M3049.345,3793.303c23.612,0,47.227-0.031,70.838,0.043c2.861,0.01,6.632-1.469,6.628,4.139
		c-0.003,5.344-3.406,4.475-6.535,4.475c-47.97,0.018-95.939,0.021-143.91,0c-3.072-0.002-6.586,1.01-6.664-4.348
		c-0.08-5.521,3.584-4.277,6.57-4.281C3000.629,3793.288,3024.988,3793.305,3049.345,3793.303z"/>
	<path fill="#464649" d="M1578.577,3725.551c-19.646,0-39.292,0.051-58.939-0.057c-2.839-0.016-6.704,1.521-6.913-4.027
		c-0.203-5.471,3.399-4.395,6.433-4.396c39.542-0.029,79.083-0.037,118.625,0.014c2.921,0.004,6.672-1.328,6.537,4.254
		c-0.134,5.502-3.892,4.158-6.802,4.17C1617.871,3725.59,1598.224,3725.551,1578.577,3725.551z"/>
	<path fill="#414043" d="M3048.344,3861.133c-23.619,0-47.236,0.074-70.854-0.096c-2.867-0.02-7.43,2.273-7.691-3.889
		c-0.264-6.203,4.223-4.313,7.213-4.318c47.734-0.086,95.469-0.084,143.202,0.014c2.487,0.004,6.192-1.76,6.536,3.451
		c0.336,5.045-2.604,4.869-6.06,4.861C3096.576,3861.108,3072.46,3861.129,3048.344,3861.133z"/>
	<path fill="#424244" d="M2952.625,3814.709c0,6.646,2.59,15.426-0.672,19.387c-3.857,4.684-12.973,1.164-19.791,1.535
		c-5.437,0.293-10.912-0.16-16.351,0.123c-3.989,0.205-5.066-1.324-4.989-5.148c0.219-10.9,0.193-21.811,0.006-32.711
		c-0.063-3.582,1.158-4.691,4.686-4.635c11.15,0.182,22.305,0.154,33.455,0.02c3.246-0.039,4.355,1.133,4.252,4.328
		c-0.187,5.693-0.053,11.398-0.053,17.1C2952.986,3814.708,2952.805,3814.709,2952.625,3814.709z"/>
	<path fill="#424244" d="M2933.503,3852.76c5.627,0.861,14.726-3.146,18.617,1.66c3.308,4.084,0.952,12.783,1.034,19.441
		c0.062,4.951-0.358,9.941,0.113,14.852c0.525,5.479-1.762,6.627-6.744,6.451c-9.896-0.35-19.815-0.293-29.717-0.014
		c-4.313,0.123-6.188-0.738-6.012-5.615c0.373-10.393,0.357-20.814-0.025-31.201c-0.178-4.828,1.61-5.93,5.978-5.65
		C2921.927,3853.014,2927.146,3852.76,2933.503,3852.76z"/>
	<path fill="#414142" d="M1579.346,3695.989c19.618,0.002,39.237-0.021,58.854,0.029c2.754,0.008,6.071-1.045,6.087,3.984
		c0.017,4.795-2.938,4.277-5.92,4.277c-39.981-0.002-79.963-0.016-119.944,0.02c-3.212,0.004-5.751,0.072-5.665-4.52
		c0.086-4.488,2.873-3.781,5.499-3.785C1538.621,3695.977,1558.983,3695.985,1579.346,3695.989z"/>
	<path fill="#414042" d="M3005.451,3823.018c-10.168,0-20.333-0.057-30.498,0.033c-3.066,0.027-5.195-0.227-5.228-4.242
		c-0.032-3.982,2.011-4.355,5.124-4.346c20.827,0.063,41.655,0.084,62.481-0.012c3.399-0.016,4.961,0.926,4.854,4.627
		c-0.102,3.496-1.883,3.992-4.75,3.971C3026.773,3822.965,3016.111,3823.014,3005.451,3823.018z"/>
	<path fill="#444446" d="M1547.249,3738.145c8.931,0.002,17.862-0.068,26.791,0.045c2.887,0.035,6.57-1.383,6.659,4.158
		c0.083,5.17-2.95,4.688-6.26,4.684c-18.605-0.029-37.21-0.021-55.815-0.006c-3.008,0-5.791,0.477-5.917-4.268
		c-0.14-5.262,3.024-4.631,6.262-4.625C1528.396,3738.155,1537.822,3738.141,1547.249,3738.145z"/>
	<path fill="#47484A" d="M3006.046,3886.559c-10.166,0.002-20.331-0.021-30.496,0.018c-3.133,0.012-5.869,0.162-5.862-4.434
		c0.008-4.273,2.538-4.021,5.356-4.018c20.577,0.018,41.157,0.01,61.737,0.02c2.705,0,5.429-0.527,5.488,3.863
		c0.063,4.52-2.492,4.592-5.727,4.57C3026.379,3886.518,3016.212,3886.557,3006.046,3886.559z"/>
	<path fill="#413F41" d="M1973.945,3403.739c-7.922,0.004-15.846-0.064-23.766,0.037c-3.063,0.039-5.203-0.252-5.229-4.232
		c-0.028-3.941,1.985-4.35,5.132-4.334c16.337,0.082,32.677,0.061,49.016,0.014c2.983-0.008,5.26,0.141,5.247,4.215
		c-0.011,3.943-2.043,4.363-5.146,4.328C1990.78,3403.67,1982.362,3403.733,1973.945,3403.739z"/>
	<path fill="#454547" d="M1224.725,3649.604c-5.44-0.002-10.886-0.143-16.317,0.049c-3.455,0.121-4.754-1.031-4.838-4.639
		c-0.094-4.043,1.984-4.262,5.048-4.234c10.878,0.096,21.76,0.121,32.638-0.012c3.265-0.039,4.932,0.594,4.867,4.424
		c-0.066,3.838-1.884,4.521-5.078,4.449C1235.605,3649.518,1230.164,3649.608,1224.725,3649.604z"/>
	<path fill="#484A4D" d="M1557.375,3450.278c-4.693-0.002-9.386-0.047-14.078,0.016c-2.881,0.037-5.273,0.139-5.248-4.072
		c0.023-3.715,1.469-4.633,4.833-4.584c9.631,0.139,19.267,0.123,28.896,0.016c3.291-0.037,4.938,0.814,4.966,4.557
		c0.029,4.176-2.397,4.125-5.292,4.088C1566.761,3450.235,1562.068,3450.28,1557.375,3450.278z"/>
	<path fill="#494B4E" d="M2898.357,3607.1c-2.957,0.002-5.923-0.127-8.871,0.037c-3.074,0.17-4.457-0.863-4.438-4.16
		c0.019-3.338,0.93-5,4.622-4.854c5.66,0.227,11.338,0.201,17.002,0.021c3.771-0.119,4.396,1.75,4.43,5.014
		c0.034,3.547-1.792,4.057-4.611,3.957C2903.781,3607.02,2901.068,3607.096,2898.357,3607.1z"/>
	<path fill="#4B4E51" d="M2838.964,3293.479c2.953,0.002,5.909,0.078,8.857-0.02c2.927-0.098,3.794,1.367,3.817,4.076
		c0.026,2.883-0.559,4.729-4.008,4.646c-5.9-0.139-11.813-0.16-17.713,0.006c-3.351,0.098-4.135-1.465-4.156-4.469
		c-0.026-3.184,1.201-4.441,4.347-4.277C2833.055,3293.598,2836.013,3293.477,2838.964,3293.479z"/>
	<path fill="#9DDCF8" d="M1360.627,3276.987c-0.021,43.723-0.012,87.443-0.142,131.166c-0.007,2.494,1.421,5.451-1.29,7.563
		c-0.008-43.652-0.028-87.305,0.014-130.955C1359.213,3282.129,1358.354,3279.245,1360.627,3276.987z"/>
	<path fill="#494B4D" d="M2991.044,3433.344c-1.735,0-3.471-0.025-5.207,0.008c-3.41,0.063-3.159-2.35-3.188-4.619
		c-0.027-2.143,0.157-4.025,3.041-3.971c2.727,0.053,5.455-0.02,8.184-0.016c2.932,0.01,5.957-0.646,5.955,4.188
		c-0.003,4.598-2.648,4.566-5.807,4.447c-0.99-0.037-1.983-0.006-2.978-0.006
		C2991.044,3433.366,2991.044,3433.356,2991.044,3433.344z"/>
	<path fill="#9DDCF8" d="M1394.84,3277.77c-11.333-2.289-22.761-0.729-34.146-0.854
		C1372.131,3274.979,1383.557,3273.53,1394.84,3277.77z"/>
	<g>
		<path fill="#424143" d="M3060.602,3279.241c-7.75-29.086-27.638-46.834-57.153-52.303c-26.214-4.857-48.399,4.238-66.845,23.061
			c-0.972,1.416-1.895,2.869-2.92,4.242c-29.151,39.027-12.836,94.494,32.907,111.225c23.088,8.445,44.918,4.525,65.603-7.92
			c1.685-1.439,3.397-2.848,5.05-4.324C3059.646,3333.174,3068.35,3308.313,3060.602,3279.241z M2987.006,3238.262
			c0,9.705-0.039,17.52,0.022,25.334c0.02,2.676-0.8,4.494-3.8,3.951c-4.846-0.881-9.677-1.881-14.463-3.035
			c-2.916-0.703-2.254-2.645-1.131-4.543C2972.311,3252.071,2978.021,3245.102,2987.006,3238.262z M2950.132,3248.995
			c6.829-5.771,14.453-10.059,24.811-12.75c-6.315,7.5-11.677,13.613-15.518,20.807c-0.907,1.701-2.066,2.994-4.082,1.789
			c-2.743-1.641-5.889-3.045-7.875-5.389C2945.813,3251.5,2948.789,3250.131,2950.132,3248.995z M2929.355,3282.151
			c0.989-3.803,2.352-7.555,3.977-11.131c5.537-12.195,5.639-12.014,16.929-5.188c3.341,2.021,3.636,3.869,2.501,7.109
			c-1.135,3.242-1.953,6.633-2.552,10.021c-1.866,10.559-1.8,10.568-12.262,10.576
			C2926.48,3293.547,2926.384,3293.524,2929.355,3282.151z M2937.189,3331.723c-4.179-6.875-6.914-14.219-8.705-22.049
			c-1.263-5.51-0.558-8.666,6.051-7.611c1.211,0.193,2.479,0.027,4.945,0.027c7.748-2.379,10.948,1.885,10.757,10.273
			c-0.032,1.443,0.339,3.033,0.978,4.332c4.174,8.467,0.892,13.258-7.113,16.967
			C2940.376,3335.387,2939.059,3334.801,2937.189,3331.723z M2949.904,3346.364c-1.206-0.99-3.705-2-2.676-3.865
			c1.713-3.105,5.278-4.229,8.293-5.82c2.11-1.111,3.18,0.498,4.009,2.059c3.833,7.215,9.23,13.281,15.357,20.322
			C2964.525,3356.967,2956.949,3352.155,2949.904,3346.364z M2987.021,3356.995c-9.269-6.504-14.978-14.016-19.871-22.27
			c-0.933-1.574-0.668-2.818,1.103-3.514c0.915-0.357,1.897-0.543,2.842-0.834c15.905-4.896,15.929-4.881,15.927,11.482
			C2987.021,3346.292,2987.021,3350.723,2987.021,3356.995z M2981.064,3319.946c-4.399,0.203-8.926,1.002-13.07,2.459
			c-4.676,1.643-6.473,0.553-7.782-4.205c-4.449-16.162-4.62-16.113,11.956-16.113c1.484,0,2.971-0.029,4.455,0.004
			c11.338,0.256,10.137-2.207,10.454,10.887C2987.189,3317.545,2986.025,3319.715,2981.064,3319.946z M2986.771,3291.395
			c-0.114,2.414-2.367,2.09-4.037,2.117c-3.472,0.061-6.943,0.02-10.416,0.021c-16.687,0.004-16.933-0.484-11.927-16.775
			c1.211-3.938,2.634-5.334,6.771-3.83c3.465,1.258,7.248,1.604,10.83,2.572c2.934,0.793,7.525-1.16,8.518,2.604
			C2987.61,3282.276,2986.98,3286.954,2986.771,3291.395z M3047.005,3266.776c2.983,6.051,5.185,12.275,6.853,18.809
			c1.557,6.092,0.287,8.994-6.468,7.973c-1.215-0.182-2.479-0.023-4.933-0.023c-7.51,2.316-10.35-1.996-10.356-9.965
			c-0.002-2.428-0.489-5.066-1.532-7.236c-2.978-6.195-0.705-9.119,4.826-12.777
			C3041.714,3259.374,3044.173,3261.03,3047.005,3266.776z M3032.482,3249.292c1.591,1.359,5.096,3.305,0.95,5.42
			c-3.125,1.598-6.293,7.922-10.184,2.393c-4.687-6.66-9.311-13.332-16.271-20.918
			C3018.046,3239.055,3025.666,3243.458,3032.482,3249.292z M2995.496,3238.61c9.232,6.566,14.936,14.072,19.705,22.404
			c0.33,0.574,0.561,1.852,0.311,2.021c-5.103,3.439-11.099,4.094-16.926,4.385c-4.979,0.25-2.879-4.291-2.986-6.756
			C2995.304,3254.002,2995.496,3247.321,2995.496,3238.61z M3001.479,3275.651c3.681-0.105,7.612-0.564,10.938-2.008
			c6.861-2.977,9.106-0.09,10.452,6.219c2.925,13.719,3.115,13.678-12.434,13.678c-1.492,0-2.984,0.035-4.477-0.006
			c-11.018-0.301-10.174,2.717-10.521-10.926C2995.322,3277.965,2996.54,3275.793,3001.479,3275.651z M2995.783,3304.096
			c0.131-2.377,2.455-1.973,4.127-1.996c3.479-0.049,6.961-0.014,10.439-0.016c16.401-0.004,16.219-0.053,11.945,15.717
			c-1.366,5.045-3.479,6.451-8.357,4.59c-2.983-1.139-6.313-1.326-9.402-2.23c-2.908-0.852-7.496,1.129-8.467-2.734
			C2995.009,3313.215,2995.539,3308.545,2995.783,3304.096z M2995.521,3356.977c0-9.434,0.059-17.285-0.027-25.139
			c-0.038-3.457,1.712-4.307,4.704-3.695c4.12,0.844,8.229,1.729,12.348,2.582c3.524,0.73,3.629,2.549,1.921,5.297
			C3009.74,3343.631,3004.205,3350.483,2995.521,3356.977z M3032.509,3346.286c-7.026,5.793-14.633,10.563-25.013,12.756
			c6.216-7.271,11.083-13.982,15.87-20.768c3.717-5.266,7.009,1.029,10.127,2.58
			C3037.544,3342.866,3034.14,3344.942,3032.509,3346.286z M3054.403,3306.59c-1.501,9.436-4.749,18.188-9.941,26.24
			c-1.56,2.418-3.071,2.852-5.426,1.178c-2.22-1.574-4.485-3.176-6.94-4.307c-3.063-1.414-3.83-3.129-2.698-6.424
			c1.357-3.965,1.882-8.205,3.018-12.258c0.822-2.939-0.809-7.938,2.614-8.5c5.993-0.986,12.314-0.299,18.461,0.174
			C3055.218,3302.827,3054.265,3305.206,3054.403,3306.59z"/>
		<path fill="#9CD8F2" d="M2937.948,3293.542c10.462-0.008,10.396-0.02,12.262-10.576c0.599-3.389,1.417-6.777,2.552-10.021
			c1.135-3.24,0.84-5.088-2.501-7.109c-11.29-6.824-11.392-7.008-16.929,5.188c-1.625,3.578-2.986,7.328-3.977,11.131
			C2926.384,3293.524,2926.48,3293.547,2937.948,3293.542z"/>
		<path fill="#9DDAF5" d="M3030.568,3276.331c1.043,2.17,1.531,4.813,1.533,7.238c0.008,7.969,2.848,12.281,10.355,9.963
			c2.453,0,3.718-0.156,4.934,0.025c6.754,1.021,8.022-1.883,6.467-7.973c-1.668-6.533-3.867-12.758-6.853-18.811
			c-2.832-5.744-5.291-7.402-11.61-3.221C3029.863,3267.211,3027.591,3270.135,3030.568,3276.331z"/>
		<path fill="#9CDAF5" d="M3053.489,3302.694c-6.146-0.471-12.468-1.158-18.461-0.172c-3.423,0.563-1.792,5.559-2.614,8.5
			c-1.136,4.051-1.659,8.293-3.018,12.256c-1.132,3.297-0.365,5.01,2.698,6.424c2.455,1.133,4.722,2.732,6.94,4.309
			c2.354,1.672,3.865,1.24,5.426-1.178c5.191-8.055,8.439-16.807,9.941-26.24
			C3054.265,3305.206,3055.218,3302.827,3053.489,3302.694z"/>
		<path fill="#9DDAF5" d="M2951.214,3316.698c-0.639-1.299-1.01-2.889-0.978-4.332c0.191-8.389-3.008-12.654-10.756-10.275
			c-2.469,0-3.735,0.166-4.946-0.025c-6.607-1.057-7.313,2.102-6.05,7.609c1.791,7.832,4.525,15.176,8.703,22.051
			c1.869,3.078,3.188,3.664,6.912,1.938C2952.105,3329.954,2955.388,3325.163,2951.214,3316.698z"/>
		<path fill="#9CD8F3" d="M2977.994,3275.5c-3.582-0.971-7.365-1.314-10.83-2.572c-4.139-1.504-5.562-0.105-6.771,3.83
			c-5.006,16.291-4.76,16.779,11.926,16.775c3.474-0.002,6.945,0.039,10.416-0.021c1.67-0.027,3.924,0.297,4.039-2.117
			c0.207-4.441,0.838-9.119-0.262-13.291C2985.52,3274.338,2980.927,3276.292,2977.994,3275.5z"/>
		<path fill="#9CD8F3" d="M3005.96,3293.534c1.491,0.041,2.983,0.006,4.478,0.006c15.549,0,15.356,0.041,12.433-13.678
			c-1.345-6.309-3.591-9.195-10.452-6.217c-3.326,1.441-7.259,1.898-10.938,2.006c-4.939,0.143-6.157,2.314-6.04,6.959
			C2995.787,3296.25,2994.944,3293.233,3005.96,3293.534z"/>
		<path fill="#9CD9F4" d="M2976.623,3302.09c-1.484-0.033-2.971-0.004-4.455-0.004c-16.576,0-16.405-0.049-11.956,16.113
			c1.31,4.756,3.106,5.846,7.782,4.205c4.146-1.457,8.671-2.258,13.07-2.459c4.961-0.229,6.125-2.398,6.013-6.971
			C2986.759,3299.881,2987.96,3302.346,2976.623,3302.09z"/>
		<path fill="#9CD8F2" d="M3004.535,3320.161c3.089,0.904,6.419,1.092,9.402,2.23c4.879,1.861,6.991,0.455,8.357-4.59
			c4.273-15.77,4.456-15.721-11.945-15.717c-3.479,0.002-6.96-0.033-10.439,0.016c-1.672,0.023-3.996-0.381-4.127,1.996
			c-0.244,4.449-0.773,9.119,0.285,13.328C2997.039,3321.29,3001.626,3319.311,3004.535,3320.161z"/>
		<path fill="#99D3EC" d="M2998.585,3267.42c5.827-0.291,11.823-0.945,16.926-4.385c0.25-0.17,0.021-1.447-0.311-2.021
			c-4.771-8.332-10.472-15.838-19.705-22.404c0,8.711-0.191,15.395,0.103,22.057
			C2995.707,3263.129,2993.605,3267.67,2998.585,3267.42z"/>
		<path fill="#9AD4EE" d="M2968.768,3264.512c4.785,1.154,9.616,2.154,14.463,3.035c3,0.543,3.817-1.275,3.799-3.951
			c-0.063-7.814-0.022-15.629-0.022-25.334c-8.985,6.84-14.696,13.809-19.37,21.707
			C2966.513,3261.868,2965.852,3263.809,2968.768,3264.512z"/>
		<path fill="#9AD3EC" d="M3012.545,3330.725c-4.118-0.855-8.229-1.738-12.348-2.582c-2.992-0.609-4.742,0.238-4.704,3.695
			c0.086,7.854,0.026,15.705,0.026,25.139c8.685-6.494,14.22-13.346,18.945-20.955
			C3016.174,3333.274,3016.07,3331.456,3012.545,3330.725z"/>
		<path fill="#9AD4ED" d="M2971.094,3330.377c-0.943,0.291-1.927,0.477-2.842,0.834c-1.771,0.695-2.034,1.939-1.104,3.514
			c4.896,8.254,10.604,15.766,19.871,22.27c0-6.271,0-10.701,0-15.133C2987.023,3325.497,2987,3325.481,2971.094,3330.377z"/>
		<path fill="#99D3EC" d="M3033.494,3340.854c-3.118-1.551-6.41-7.846-10.127-2.58c-4.787,6.783-9.654,13.494-15.87,20.768
			c10.38-2.193,17.985-6.963,25.013-12.756C3034.14,3344.942,3037.544,3342.866,3033.494,3340.854z"/>
		<path fill="#99D3EC" d="M2955.521,3336.678c-3.015,1.59-6.58,2.715-8.293,5.82c-1.029,1.863,1.47,2.875,2.676,3.863
			c7.045,5.793,14.621,10.605,24.983,12.695c-6.127-7.041-11.524-13.107-15.357-20.322
			C2958.701,3337.176,2957.632,3335.565,2955.521,3336.678z"/>
		<path fill="#99D3EC" d="M2955.343,3258.84c2.015,1.203,3.175-0.088,4.082-1.789c3.841-7.193,9.201-13.307,15.518-20.807
			c-10.356,2.689-17.98,6.977-24.811,12.75c-1.344,1.137-4.319,2.506-2.664,4.457C2949.455,3255.793,2952.6,3257.2,2955.343,3258.84
			z"/>
		<path fill="#9AD4EE" d="M3033.434,3254.711c4.145-2.115,0.64-4.063-0.95-5.422c-6.817-5.832-14.438-10.232-25.503-13.105
			c6.96,7.588,11.584,14.258,16.27,20.918C3027.14,3262.633,3030.309,3256.309,3033.434,3254.711z"/>
	</g>
	<path fill="#474A4E" d="M1169.37,3453.87c0.188,0,0.375-0.002,0.561-0.002c0-5.447-0.132-10.9,0.051-16.342
		c0.107-3.221-1.112-4.355-4.301-4.322c-11.142,0.115-22.286,0.146-33.426-0.029c-3.542-0.055-4.723,1.133-4.665,4.676
		c0.178,10.895,0.191,21.793-0.007,32.686c-0.068,3.764,0.937,5.381,4.968,5.146c5.184-0.303,10.406,0.143,15.594-0.123
		c7.073-0.361,16.531,3.201,20.527-1.596C1172.061,3469.895,1169.37,3460.76,1169.37,3453.87z M1148.011,3467.069
		c-11.989,0.025-11.989,0.025-11.989-12.271c0-12.959,0-12.959,12.843-12.959c12.387,0.002,12.387,0.002,12.387,12.727
		C1161.25,3467.04,1161.25,3467.04,1148.011,3467.069z"/>
	<path fill="#474A4E" d="M1169.842,3394.614c-0.084-6.609,2.963-15.189-1.36-19.311c-4.282-4.078-12.801-0.695-18.257-1.25
		c-6.647,0-12.127,0.223-17.578-0.072c-3.998-0.217-5.206,1.322-5.044,5.141c0.239,5.707-0.074,11.436,0.096,17.145
		c0.19,6.41-2.733,14.758,1.108,18.721c4.19,4.322,12.682,1.371,19.269,1.35c7.077-0.021,16.243,3.186,20.676-1.533
		C1172.794,3410.497,1169.931,3401.516,1169.842,3394.614z M1148.779,3407.936c-12.813,0-12.813,0-12.813-12.953
		c0-12.33,0-12.33,12.55-12.33c12.785,0,12.785,0,12.785,12.795C1161.3,3407.936,1161.3,3407.936,1148.779,3407.936z"/>
	<path fill="#FFFFFF" d="M2045.767,3636.688c-3.356,0-5.822,0-8.288,0c-170.627,0-341.254-0.053-511.882,0.18
		c-7.29,0.01-8.969-1.854-8.868-8.965c0.425-30.09,0.298-60.189,0.068-90.285c-0.04-5.246,0.844-7.234,6.796-7.229
		c170.626,0.18,341.254,0.139,511.881,0.225c2.655,0.002,7.696-2.338,5.729,4.596
		C2031.591,3569.042,2033.3,3602.5,2045.767,3636.688z"/>
	<path fill="#424244" d="M2749.7,3208.473c-16.962-8.385-37.574-3.021-48.343,12.578c-10.746,15.574-8.666,36.771,5.588,49.512
		c4.396,3.926,4.608,6.58,2.139,11.672c-37.754,77.809-75.313,155.715-112.709,233.697c-2.447,5.102-5.439,6.496-10.848,6.484
		c-79.836-0.172-159.672-0.188-239.507,0.02c-5.845,0.016-8.464-1.787-11.03-7.102c-28.832-59.707-76.623-92.602-142.859-92.781
		c-65.932-0.18-113.815,32.293-142.903,91.506c-3.176,6.467-6.396,8.385-13.222,8.377c-173.102-0.176-346.202-0.102-519.304-0.287
		c-6.482-0.008-8.345,1.432-8.274,8.145c0.37,35.561,0.376,71.131,0.001,106.691c-0.074,6.986,1.966,8.51,8.681,8.49
		c87.296-0.229,174.593-0.15,261.889-0.15c87.795,0,175.59,0.039,263.383-0.096c5.004-0.008,8.035,1.064,10.396,5.961
		c6.854,14.215,16.271,26.742,27.483,37.836c2.798,2.77,3.393,4.539,0.455,7.813c-52.969,59.031-105.834,118.154-158.604,177.361
		c-2.701,3.029-4.433,3.254-7.922,1.193c-14.765-8.701-29.474-8.025-43.248,2.131c-3.668,2.705-5.468,2.477-8.625-0.445
		c-27.545-25.512-55.18-50.924-82.996-76.137c-3.729-3.379-4.336-5.834-2.367-10.596c6.614-15.988,1.452-33.979-11.935-44.178
		c-13.604-10.363-32.287-10.615-45.903-0.619c-13.71,10.066-19.466,27.902-13.113,43.854c2.218,5.568,0.803,8.104-3.186,11.631
		c-52.702,46.615-105.291,93.359-157.773,140.223c-4.313,3.852-7.091,5.338-12.938,1.588c-16.022-10.275-36.958-6.031-48.964,8.762
		c-11.766,14.496-10.95,36.119,1.886,49.939c12.664,13.635,33.368,16.063,49.029,5.748c15.713-10.348,21.75-31.148,13.235-48.051
		c-2.39-4.746-1.93-7.023,1.918-10.424c53.457-47.271,106.791-94.688,160.057-142.182c3.068-2.736,4.871-3.463,8.576-0.572
		c14.771,11.523,32.449,11.547,47.488,0.164c3.047-2.303,4.527-2.434,7.306,0.129c28.133,25.971,56.354,51.85,84.682,77.607
		c3.09,2.811,3.419,4.908,1.804,8.84c-7.102,17.271-1.502,36.109,13.244,46.373c14.22,9.896,34.177,8.68,47.008-2.869
		c13.642-12.273,17.016-31.238,7.772-47.5c-2.277-4.008-1.397-5.906,1.249-8.789c9.418-10.252,18.59-20.73,27.866-31.111
		c43.069-48.207,86.148-96.404,129.208-144.621c2.854-3.197,4.641-5.961,9.91-1.908c76.586,58.926,184.271,37.6,232.597-45.984
		c2.952-5.105,5.21-5.535,10.248-3.102c37.819,18.271,75.686,36.449,113.776,54.139c7.394,3.436,11.988,6.922,9.932,15.742
		c-0.477,2.039,0.247,4.445,0.742,6.609c3.604,15.723,16.521,27.537,31.963,29.344c17.125,2.004,32.592-6.41,39.776-21.645
		c6.886-14.594,4.022-32-7.938-43.217c-3.894-3.65-4.019-6.27-1.767-10.623c5.367-10.371,10.63-20.834,15.185-31.576
		c2.355-5.555,5.564-6.896,11.298-6.877c63.668,0.213,127.339,0.041,191.007,0.277c6.257,0.023,7.841-1.688,7.789-7.857
		c-0.296-35.813-0.379-71.631,0.055-107.439c0.085-7.063-2.275-8.033-8.447-8c-43.523,0.238-87.05,0.133-130.572,0.121
		c-8.266-0.002-8.276-0.041-4.771-7.313c36.925-76.574,73.888-153.129,110.688-229.764c2.14-4.457,4.122-6.074,9.453-5.107
		c18.983,3.441,36.93-7.617,42.726-25.6C2774.941,3236.444,2766.686,3216.872,2749.7,3208.473z M2733.765,3530.385
		c6.24-0.016,7.839,1.641,7.773,7.813c-0.327,30.316-0.343,60.643,0.008,90.959c0.073,6.389-1.919,7.744-7.951,7.709
		c-42.745-0.252-85.493-0.135-128.241-0.135c-42.746,0-85.494-0.115-128.239,0.133c-5.896,0.033-7.498-1.576-7.441-7.463
		c0.293-30.566,0.313-61.139-0.015-91.705c-0.064-6.146,2.004-7.291,7.627-7.279
		C2562.778,3530.581,2648.273,3530.6,2733.765,3530.385z"/>
	<path fill="#7ED2F0" d="M2191.42,3464.188c79.475-0.207,135.554,79.904,108.245,153.818c-1.788,4.84-3.403,6.148-8.402,3.68
		c-17.811-8.793-35.788-17.26-53.814-25.605c-4.138-1.916-5.811-3.936-5.14-8.902c2.375-17.605-5.83-32.848-20.836-40.021
		c-14.412-6.895-32.281-3.885-43.518,7.324c-11.881,11.857-14.758,29.189-6.778,44.654c1.979,3.838,1.667,5.838-1.133,8.908
		c-14.568,15.977-29.019,32.066-43.158,48.422c-3.726,4.311-5.626,4.598-9.483,0.086c-30.688-35.91-39.133-76.336-21.592-120.158
		c17.548-43.84,51.521-67.363,98.606-71.729C2186.891,3464.434,2189.375,3464.325,2191.42,3464.188z"/>
	<path fill="#F68F75" d="M2339.885,3580.526c0.486,17.535-3.505,35.111-9.684,52.332c-1.613,4.498-3.537,5.973-8.08,3.387
		c-5.166-2.941-12.367-4.066-15.512-8.324c-3.289-4.455,2.244-10.432,3.713-15.77c18.525-67.438-21.389-135.648-89.573-152.752
		c-66.218-16.611-134.618,25.604-148.791,92.684c-8.792,41.621,1.092,78.936,30.028,110.555c3.735,4.084,4.355,6.666,0.015,10.1
		c-0.959,0.758-1.646,1.855-2.479,2.779c-10.451,11.574-10.771,11.832-20.503-0.201c-36.682-45.352-46.042-96.156-24.996-150.375
		c20.737-53.428,61.265-85.025,118.196-92.828C2262.15,3419.784,2339.907,3488.803,2339.885,3580.526z"/>
	<path fill="#FEFEFE" d="M2337.813,3636.68c10.782-29.281,13.548-58.094,7.914-87.588c-0.744-3.896-1.416-7.873-2.761-11.578
		c-1.883-5.191-1.465-7.188,5.023-7.131c35.782,0.314,71.569,0.26,107.354,0.033c5.349-0.035,6.606,1.67,6.572,6.768
		c-0.218,31.063-0.108,62.127-0.108,93.189c0,3.191,0.733,6.406-4.534,6.385C2417.775,3636.614,2378.278,3636.68,2337.813,3636.68z"
		/>
	<path fill="#7ED2F0" d="M2197.604,3693.54c-31.109-0.186-53.321-7.635-73.399-21.846c-4.144-2.934-5.668-4.777-1.285-9.453
		c14.444-15.416,28.322-31.365,42.302-47.211c2.724-3.088,4.406-4.598,8.928-1.635c16.767,10.99,37.497,7.688,50.206-7.867
		c3.087-3.773,5.188-3.979,9.135-2.055c18.09,8.816,36.219,17.561,54.517,25.932c4.688,2.146,5.033,3.979,2.422,8.094
		C2267.313,3673.94,2234.197,3692.475,2197.604,3693.54z"/>
	<path fill="#F68F75" d="M2194.457,3727.565c-35.846-0.73-66.039-10.332-92.735-30.557c-4.254-3.223-5.698-5.557-1.13-9.598
		c4.439-3.924,7.088-11.252,12.471-12.229c5.086-0.924,9.298,5.576,14.075,8.545c57.989,36.012,136.123,16.967,170.17-41.912
		c3.064-5.295,5.703-5.895,10.298-2.877c1.235,0.811,2.659,1.338,4.012,1.965c12.859,5.951,13.074,6.092,5.388,17.66
		C2287.307,3703.262,2245.286,3725.737,2194.457,3727.565z"/>
	<path fill="#C4E9FB" d="M2344.406,3645.329c4.505,0,8.187,0,11.867,0c56.399,0,112.804-0.004,169.205,0.004
		c8.221,0.002,8.231,0.031,4.823,7.111c-4.632,9.619-9.432,19.16-13.843,28.881c-1.53,3.371-3.084,4.104-6.785,3.24
		c-17.627-4.107-31.792,1.398-42.029,16.391c-1.729,2.529-3.104,3.115-5.996,1.725c-38.705-18.6-77.467-37.072-116.207-55.594
		C2345.279,3647.008,2345.216,3646.725,2344.406,3645.329z"/>
	<path fill="#FFC842" d="M1513.03,4005.249c-16.456,0.061-29.851-13.225-29.89-29.645c-0.039-16.461,13.268-29.865,29.662-29.885
		c16.514-0.016,29.853,13.227,29.878,29.66C1542.708,3991.901,1529.518,4005.19,1513.03,4005.249z"/>
	<path fill="#FFC842" d="M2194.111,3611.301c-16.504-0.342-29.412-14.031-28.938-30.689c0.462-16.234,13.905-29.133,30.072-28.854
		c16.601,0.285,29.656,13.783,29.366,30.357C2224.319,3598.657,2210.748,3611.643,2194.111,3611.301z"/>
	<path fill="#FFC842" d="M2529.547,3721.905c-0.144,16.291-13.964,29.691-30.263,29.342c-15.899-0.342-29.285-13.883-29.349-29.688
		c-0.063-16.428,13.332-29.92,29.686-29.898C2516.673,3691.68,2529.696,3704.842,2529.547,3721.905z"/>
	<path fill="#FFC842" d="M1742.087,3746.872c16.699,0.152,29.608,13.471,29.274,30.205c-0.33,16.48-14.045,29.586-30.582,29.219
		c-15.921-0.352-28.971-13.963-28.933-30.176C1711.888,3759.555,1725.161,3746.717,1742.087,3746.872z"/>
	<path fill="#FFC842" d="M1864.515,3907.459c0.048-16.465,12.816-29.217,29.307-29.268c16.959-0.053,30.124,12.822,30.069,29.406
		c-0.053,16.498-13.601,30.135-29.824,30.012C1877.529,3937.489,1864.468,3924.163,1864.515,3907.459z"/>
	<path fill="#FFC842" d="M2703.254,3242.133c0.316-16.781,13.633-29.617,30.275-29.182c16.615,0.438,29.239,13.881,28.827,30.699
		c-0.4,16.318-13.626,29.023-29.965,28.791C2715.574,3272.2,2702.936,3259.055,2703.254,3242.133z"/>
	<path fill="#FFD068" d="M1318.363,3505.381c-0.089-32.732,26.31-59.201,59.149-59.307c32.057-0.104,58.854,26.617,58.999,58.828
		c0.148,32.969-26.798,59.977-59.638,59.777C1344.729,3564.485,1318.451,3537.854,1318.363,3505.381z"/>
	<path fill="#FDD068" d="M1368.684,3350.547c0-19.645,0.352-39.303-0.175-58.936c-0.207-7.742,4.199-6.703,8.966-6.834
		c5.12-0.143,9.895-0.326,8.551,7.109c-0.043,0.24-0.006,0.496-0.004,0.744c0.119,17.568,0.119,17.568,18.057,17.568
		c5.721,0,11.447,0.193,17.156-0.063c4.604-0.205,7.345,0.332,7.332,6.221c-0.012,5.689-1.801,7.271-7.302,7.037
		c-9.682-0.416-19.401,0.137-29.089-0.221c-5.017-0.186-6.854,1.611-6.16,6.398c0.036,0.244,0.001,0.498,0.006,0.746
		c0.107,6.953-2.239,15.516,0.98,20.43c3.594,5.486,12.775,1.713,19.484,1.994c4.897,0.205,4.892,2.736,4.906,6.244
		c0.017,3.744,0.149,7.018-5.229,6.621c-4.451-0.33-8.968,0.207-13.419-0.131c-5.101-0.389-6.987,1.318-6.838,6.666
		c0.354,12.674-0.322,25.383,0.271,38.039c0.377,8.063-4.666,6.4-9.178,6.535c-4.597,0.139-8.657,0.803-8.48-6.488
		C1369.001,3390.348,1368.686,3370.444,1368.684,3350.547z"/>
	<path fill="#F6CF71" d="M1377.484,3424.668c4.956,0.004,9.927,0.252,14.86-0.064c4.891-0.316,7.12,0.807,6.767,6.457
		c-0.567,9.016-0.129,8.813-9.317,7.49c-9.356-1.348-18.756-1.428-28.073,0.736c-2.559,0.592-6.344,1.678-5.354-2.896
		c0.856-3.959-4.535-10.717,4.034-11.615C1366.036,3424.184,1371.786,3424.665,1377.484,3424.668z"/>
	<path fill="#FFFFFF" d="M1224.708,3797.668c24.594-0.002,49.188,0.145,73.78-0.117c5.303-0.055,7.277,0.969,7.223,6.848
		c-0.311,32.293-0.25,64.59-0.045,96.885c0.032,5.084-1.261,6.785-6.592,6.764c-49.685-0.189-99.37-0.166-149.055-0.018
		c-4.523,0.014-5.945-1.203-5.921-5.822c0.18-33.037,0.214-66.08-0.034-99.117c-0.037-5.063,2.012-5.514,6.116-5.49
		C1175.023,3797.739,1199.867,3797.668,1224.708,3797.668z"/>
	<path fill="#5D5E5E" d="M1313.917,3757.534c0.022-5.455-1.798-6.551-6.797-6.514c-27.357,0.211-54.719,0.1-82.08,0.1
		c-27.608,0-55.218,0.104-82.825-0.098c-4.753-0.033-6.393,1.096-6.374,6.174c0.189,50.988,0.183,101.98,0.013,152.967
		c-0.017,5.018,1.597,6.221,6.392,6.207c54.969-0.15,109.938-0.16,164.906,0.002c5.113,0.016,6.772-1.289,6.752-6.615
		C1313.709,3859.014,1313.701,3808.274,1313.917,3757.534z M1298.527,3789.417c-36.001-0.229-72.006-0.117-108.011-0.117
		c-13.655,0-27.314-0.145-40.969,0.082c-4.203,0.07-5.701-1.188-5.468-5.457c0.432-7.895-2.531-18.188,1.397-23.08
		c4.168-5.188,14.887-1.502,22.725-1.605c18.868-0.252,37.741-0.08,56.612-0.08c24.582,0,49.166,0.162,73.743-0.127
		c5.529-0.064,7.591,1.379,7.089,7.051c-0.479,5.42-0.507,10.953,0.007,16.367
		C1306.201,3788.235,1303.958,3789.452,1298.527,3789.417z"/>
	<path fill="#F68F75" d="M2439.363,3782.549c-1.067,1.264-1.934,2.445-2.955,3.473c-10.706,10.74-21.514,21.383-32.106,32.234
		c-2.655,2.721-4.354,3.008-7.189,0.152c-28.568-28.742-57.236-57.387-85.958-85.979c-2.42-2.41-2.866-3.982-0.188-6.602
		c11.027-10.77,21.913-21.686,32.708-32.689c2.438-2.482,4.022-2.729,6.62-0.115c28.752,28.908,57.613,57.713,86.437,86.553
		C2437.584,3780.432,2438.337,3781.385,2439.363,3782.549z"/>
	<path fill="#F58F75" d="M2460.795,3881.465c-1.225-1.041-2.395-1.91-3.419-2.93c-7.576-7.531-15.051-15.168-22.719-22.605
		c-2.619-2.541-3.241-4.393-0.29-7.271c10.85-10.58,21.559-21.309,32.154-32.143c2.721-2.783,4.58-2.791,7.272,0.004
		c7.588,7.867,15.396,15.521,23.137,23.24c1.681,1.676,3.125,3.105,0.709,5.496c-11.485,11.352-22.864,22.814-34.298,34.219
		C2462.669,3880.147,2461.837,3880.661,2460.795,3881.465z"/>
	<path fill="#FEFEFE" d="M2424.888,3845.834c-2.247-2.141-4.235-3.949-6.124-5.854c-3.833-3.869-10.415-7.605-10.688-11.738
		c-0.324-4.928,6.798-8.385,10.719-12.438c7.753-8.016,15.857-15.695,23.561-23.76c2.759-2.887,4.531-2.785,7.096,0.078
		c4.445,4.963,12.352,9.313,12.934,14.568c0.608,5.498-7.99,9.678-12.533,14.445c-6.838,7.178-13.972,14.072-20.998,21.068
		C2427.669,3843.383,2426.39,3844.465,2424.888,3845.834z"/>
	<path fill="#EAEAEA" d="M2329.24,3694.844c-1.549,1.979-2.211,3.002-3.044,3.857c-3.11,3.193-6.371,6.244-9.394,9.518
		c-2.104,2.283-3.729,2.543-6.041,0.137c-2.056-2.145-2.904-3.682-0.314-6.037c3.479-3.162,6.672-6.635,10.031-9.932
		c1.028-1.01,2.099-2.275,3.791-1.094C2325.898,3692.434,2327.507,3693.606,2329.24,3694.844z"/>
	<path fill="#FDFDFD" d="M2789.914,3385.928c2.883,2.604,4.186,3.432,5.025,4.596c3.702,5.135,7.873,5.023,12.783,1.729
		c2.021-1.354,4.46-2.451,6.844-2.836c5.9-0.955,7.965-4.27,7.127-9.895c-0.641-4.295,1.35-5.445,5.496-5.525
		c6.758-0.127,13.338-0.971,11.56,9.348c-0.404,2.35,1.008,4.359,3.563,4.992c4.866,1.207,9.445,3.123,13.759,5.623
		c3.769,2.189,6.217,0.127,8.275-2.51c3.113-3.986,5.407-4.145,9.306-0.316c5.009,4.922,8.574,8.883,0.741,14.039
		c-0.198,0.129-0.346,0.361-0.475,0.57c-2.97,4.852,6.635,22.938,12.271,23.404c2.479,0.205,6.401-1.658,7.121,1.82
		c0.93,4.5,1.277,9.459-0.346,13.918c-0.719,1.979-3.662,1.094-5.48,0.889c-5.227-0.592-7.823,1.758-8.95,6.645
		c-0.556,2.395-1.343,4.91-2.705,6.904c-3.675,5.377-3.773,9.955,1.896,13.965c2.971,2.102,2.772,4.238,0.023,6.529
		c-1.901,1.586-3.692,3.359-5.274,5.264c-2.291,2.76-4.405,2.957-6.511-0.025c-4.012-5.682-8.625-5.58-13.972-1.869
		c-1.79,1.242-4.027,2.125-6.179,2.51c-5.722,1.018-8.086,4.182-7.224,9.879c0.621,4.104-0.946,5.586-5.286,5.594
		c-6.926,0.016-13.957,1.049-11.689-9.744c0.391-1.855-0.625-3.527-2.496-4.09c-5.738-1.729-11.098-4.273-16.482-6.857
		c-3.06-1.469-5.213,1.23-6.82,3.324c-3.333,4.338-6.172,3.963-9.212-0.191c-0.87-1.188-1.972-2.281-3.163-3.15
		c-3.813-2.775-3.701-5.381,0.044-8.09c4.397-3.182,5.129-6.852,1.86-11.455c-1.404-1.979-2.452-4.432-2.912-6.814
		c-1.178-6.078-4.121-9.359-10.726-8.262c-4.088,0.678-5.76-1.658-4.78-5.178c1.077-3.871-3.76-11.209,3.664-11.152
		c8.212,0.064,10.867-3.582,12.457-10.279c0.563-2.365,1.846-4.633,3.145-6.73c2.063-3.332,1.835-6.307-1.364-8.455
		c-6.163-4.141-4.121-7.475,0.376-11.32C2787.189,3391.02,2788.313,3388.309,2789.914,3385.928z"/>
	<path fill="#FCDD8D" d="M1703.579,3365.163c1.389,5.584-0.924,9.021-8.015,11.688c-14.72,5.533-21.427,23.568-15.416,37.965
		c6.33,15.166,22.802,22.316,38.253,16.785c2.378-0.852,4.827-4.051,7.421-1.615c4.326,4.057,8.57,8.369,11.92,13.217
		c1.396,2.021-2.279,3.295-4.038,4.355c-21.999,13.234-51.816,7.295-66.717-13.219c-15.657-21.555-12.952-50.857,6.353-68.293
		c6.378-5.762,13.828-9.498,22.08-11.928c5.828-1.717,9.208-1.094,8.184,6.059
		C1703.429,3361.393,1703.579,3362.657,1703.579,3365.163z"/>
	<path fill="#C3E8FA" d="M1707.622,3424.92c-11.812-0.041-21.195-9.406-21.241-21.205c-0.045-11.813,9.296-21.217,21.147-21.285
		c12.276-0.072,21.754,9.395,21.582,21.561C1728.946,3415.78,1719.518,3424.959,1707.622,3424.92z"/>
	<path fill="#F48E74" d="M1746.104,3399.352c-5.114,1.137-9.13-0.229-11.254-7.537c-2.312-7.953-8.708-13.574-16.712-15.799
		c-5.722-1.59-6.421-4.654-6.359-9.654c0.193-15.471,0.538-15.938,15.134-9.873c14.01,5.82,23.868,15.92,29.007,30.311
		C1760.121,3398.565,1759.514,3399.354,1746.104,3399.352z"/>
	<path fill="#9DDAF6" d="M1746.445,3407.723c13.779-0.002,13.782,0,9.708,12.309c-0.312,0.938-0.642,1.877-1.048,2.773
		c-2.431,5.373-4.649,13.404-9.884,13.617c-4.819,0.195-8.303-7.568-12.5-11.701c-1.439-1.418-1.48-2.945-0.302-4.629
		c0.845-1.209,1.886-2.492,2.138-3.871C1735.939,3408.655,1740.365,3406.036,1746.445,3407.723z"/>
	<path fill="#FEC742" d="M2699.436,3877.924c-28.729,0.049-50.301-12.891-63.825-37.701c-13.749-25.221-12.334-50.91,3.821-74.701
		c14.157-20.848,34.33-31.707,59.998-31.221c3.78,5.129,1.993,11.795,4.752,17.209c-2.442,2.834-5.832,2.309-8.985,2.443
		c-25.398,1.1-46.409,20.973-48.474,45.896c-2.348,28.348,14.367,52.063,40.53,57.652c4.726,1.008,10.085,0.563,13.455,5.199
		C2702.316,3867.95,2703.295,3873.143,2699.436,3877.924z"/>
	<path fill="#FED168" d="M2703.781,3750.844c-4.004-0.744-4.76-3.428-4.478-7.02c0.25-3.16,0.101-6.352,0.126-9.523
		c37.38-0.797,69.33,29.658,71.456,66.828c2.233,39.049-24.22,70.836-63.319,76.506c-2.668,0.389-5.42,0.205-8.133,0.289
		c-0.007-5.367-0.016-10.734-0.023-16.104c2.348-3.115,6.008-3.201,9.335-3.955c25.5-5.77,43.139-26.836,43.246-51.729
		c0.104-24.105-16.827-45.063-41.577-51.615C2707.977,3753.875,2704.741,3754.301,2703.781,3750.844z"/>
	<path fill="#FDFDFD" d="M2999.757,3636.969c-0.084,9.344-7.746,16.773-17.237,16.717c-9.357-0.055-16.976-7.688-16.989-17.027
		c-0.018-9.324,7.601-17.031,16.938-17.143C2992.15,3619.403,2999.845,3627.17,2999.757,3636.969z"/>
	<path fill="#FDFDFD" d="M3048.898,3691.813c-9.498,0.127-16.992-7.141-17.221-16.697c-0.223-9.328,7.276-17.266,16.542-17.514
		c9.601-0.256,17.767,7.654,17.727,17.17C3065.908,3684.073,3058.289,3691.688,3048.898,3691.813z"/>
	<path fill="#FDFDFD" d="M3048.811,3615.577c-9.359,0.063-17.088-7.482-17.257-16.852c-0.169-9.359,7.324-17.074,16.722-17.219
		c9.854-0.15,17.733,7.471,17.674,17.1C3065.89,3607.848,3058.152,3615.51,3048.811,3615.577z"/>
	<path fill="#F6F6F6" d="M1435.263,3665.358c-9.546,5.979,0.211,11.73,0.619,17.809c0.186,2.74,1.917,4.547,5.043,4.162
		c3.638-0.447,4.669,1.252,4.661,4.73c-0.009,3.449-1.599,4.391-4.554,4.084c-3.059-0.318-4.403,1.271-5.279,3.988
		c-0.981,3.049-2.135,6.098-3.67,8.895c-1.435,2.617-1.44,4.66,0.975,6.469c3.152,2.361,2.06,4.178-0.297,6.492
		c-2.209,2.17-3.848,2.818-5.951,0.127c-2.073-2.65-4.594-2.818-7.125-0.77c-4.419,3.578-13.789,1.303-12.944,11.354
		c0.19,2.273-3.215,1.396-5.049,1.51c-2.029,0.119-2.823-0.934-3.332-3.037c-1.855-7.688-13.678-12.318-20.723-7.959
		c-3.132,1.939-3.89-0.619-5.422-1.826c-1.672-1.32-2.411-2.5-0.721-4.871c4.32-6.074-0.695-19.039-7.857-20.229
		c-3.264-0.543-3.318-2.197-3.313-4.533c0.003-2.346,0.09-3.986,3.333-4.551c7.108-1.238,12.157-14.262,7.82-20.26
		c-2.132-2.949-0.083-3.943,1.284-5.457c1.52-1.68,2.791-2.996,5.506-0.949c5.447,4.111,19.158-1.018,19.978-7.5
		c0.45-3.564,2.081-3.865,4.832-3.91c2.683-0.043,3.744,0.762,4.21,3.709c1.06,6.689,14.376,11.893,19.974,7.994
		c1.533-1.066,2.77-2.279,4.4-0.479C1432.941,3661.762,1434.91,3662.674,1435.263,3665.358z"/>
	<path fill="#BFE1F0" d="M2944.443,3814.352c-0.002,12.859-0.002,12.859-12.855,12.859c-12.47,0-12.47,0-12.47-12.555
		c0-12.742,0-12.742,12.938-12.74C2944.443,3801.917,2944.443,3801.917,2944.443,3814.352z"/>
	<path fill="#C0E1F0" d="M2919.119,3873.545c-0.001-12.439-0.001-12.439,12.561-12.439c12.764,0,12.764,0,12.762,12.889
		c-0.002,12.398-0.002,12.398-12.453,12.398C2919.121,3886.395,2919.121,3886.395,2919.119,3873.545z"/>
	<path fill="#FCFEFE" d="M2248.393,3523.586c-1.258,0.893-2.782,2.195-4.502,3.145c-2.367,1.307-3.591-0.85-5.015-2.07
		c-13.319-11.4-28.712-17.621-46.254-17.736c-17.765-0.117-33.63,5.574-47.188,17.191c-2.559,2.191-4.409,4.617-7.864,0.908
		c-3.857-4.143-0.174-5.414,2.135-7.398c28.924-24.875,72.633-25.666,102.21-1.789
		C2244.193,3517.674,2246.638,3519.481,2248.393,3523.586z"/>
	<path fill="#49484A" d="M1212.193,3873.833c13.66,0.002,27.32,0.006,40.981-0.004c3.003-0.002,5.937-0.523,5.88,4.281
		c-0.054,4.668-2.833,4.367-5.918,4.365c-27.319-0.02-54.641-0.021-81.96,0.002c-3.116,0.002-5.855,0.223-5.892-4.41
		c-0.038-4.826,2.945-4.24,5.929-4.238C1184.874,3873.834,1198.534,3873.831,1212.193,3873.833z"/>
	<path fill="#414143" d="M1212.186,3839.924c-13.423,0.002-26.844,0.037-40.266-0.025c-2.982-0.016-6.629,1.23-6.577-4.299
		c0.049-5.133,3.444-3.9,6.123-3.906c27.093-0.063,54.186-0.061,81.277,0c2.699,0.006,6.104-1.203,6.239,3.871
		c0.146,5.531-3.542,4.318-6.531,4.33C1239.029,3839.959,1225.608,3839.924,1212.186,3839.924z"/>
	<path fill="#504F51" d="M1184.539,3823.084c-4.942,0-9.889-0.117-14.825,0.045c-3.12,0.102-4.452-0.959-4.436-4.23
		c0.014-3.035,0.835-4.576,4.154-4.541c10.132,0.105,20.264,0.107,30.395,0.006c3.404-0.035,4.033,1.695,4.088,4.633
		c0.063,3.395-1.562,4.203-4.55,4.123C1194.426,3822.991,1189.48,3823.084,1184.539,3823.084z"/>
	<path fill="#5C5A5B" d="M1183.947,3865.401c-4.697-0.002-9.396-0.072-14.09,0.023c-2.853,0.059-4.598-0.496-4.661-3.996
		c-0.067-3.693,1.46-4.662,4.855-4.613c9.638,0.141,19.282,0.096,28.921,0.01c3.146-0.027,5.069,0.523,5.054,4.43
		c-0.017,4.084-2.288,4.213-5.247,4.168C1193.835,3865.346,1188.891,3865.403,1183.947,3865.401z"/>
	<path fill="#424244" d="M2830.102,3395.198c23.466-0.002,42.325,18.586,42.484,41.871c0.161,23.701-18.699,42.867-42.285,42.967
		c-23.466,0.102-42.491-19.068-42.436-42.754C2787.922,3413.985,2806.773,3395.2,2830.102,3395.198z"/>
	<path fill="#434243" d="M2703.781,3750.844c28.173,4.93,46.345,22.387,49.736,47.781c4.043,30.256-16.443,57.416-46.778,62.025
		c-2.445,0.371-4.888,0.777-7.329,1.17c-19.961-1.49-36.609-9.086-47.321-26.717c-10.621-17.482-11.584-35.938-2.278-54.039
		c9.717-18.898,25.734-29.098,47.276-29.961C2699.318,3751.016,2701.549,3750.932,2703.781,3750.844z"/>
	<path fill="#434244" d="M1432.381,3691.875c-0.051,16.219-13.122,29.426-29.228,29.537c-16.455,0.113-29.975-13.129-30.163-29.549
		c-0.189-16.309,13.335-29.842,29.793-29.811C1419.459,3662.088,1432.436,3675.161,1432.381,3691.875z"/>
	<path fill="#444344" d="M1377.368,3514.538c-9.847,0.051-18.058,8.273-17.974,18.002c0.087,9.99,8.138,17.996,18.006,17.906
		c10.156-0.094,17.907-7.865,17.857-17.908C1395.208,3522.565,1387.18,3514.491,1377.368,3514.538z M1377.313,3541.7
		c-5.521-0.242-8.87-3.373-9.068-8.873c-0.199-5.527,2.979-8.832,8.459-9.441c5.257-0.586,9.698,3.564,9.872,8.842
		C1386.748,3537.53,1382.617,3541.93,1377.313,3541.7z"/>
	<path fill="#C4E9FB" d="M2830.054,3471.231c-18.59-0.025-33.591-15.02-33.657-33.637c-0.063-18.459,15.08-33.717,33.563-33.814
		c18.916-0.098,34.022,15.078,33.943,34.098C2863.826,3456.434,2848.782,3471.256,2830.054,3471.231z"/>
	<path fill="#FDD071" d="M2745.564,3805.502c0.084,26.168-20.655,47.287-46.494,47.344c-25.815,0.055-47.215-21.338-47.027-47.016
		c0.186-25.586,21.105-46.439,46.691-46.545C2724.393,3759.18,2745.482,3779.993,2745.564,3805.502z"/>
	<path fill="#3A3636" d="M2710.882,3812.157c-0.028,3.459-1.025,6.91-4.295,8.063c-3.766,1.328-5.278,6.293-7.776,6.398
		c-2.388,0.1-3.861-5.365-7.811-6.26c-1.229-0.277-2.51-1.777-3.109-3.031c-0.968-2.029-3.397-4.643-0.228-6.416
		c2.048-1.146,4.935-1.271,6.187,1.957c0.672,1.729,1.847,2.986,3.74,3.244c2.044,0.275,4.033,0.109,5.199-1.967
		c1.196-2.133,0.396-4.045-1.35-5.205c-2.256-1.49-4.826-2.508-7.256-3.74c-4.045-2.053-6.789-5.031-6.728-9.855
		c0.057-4.41,2.153-8.945,6.207-8.924c4.621,0.023,2.845-9.367,6.864-4.848c2.185,2.457,4.929,4.273,7.015,6.754
		c0.479,0.57,1.172,1.039,1.442,1.688c0.885,2.125,3.361,4.572,0.382,6.473c-2.093,1.334-4.866,1.338-6.207-1.775
		c-0.997-2.32-2.601-3.604-5.248-3.045c-1.634,0.346-2.646,1.414-2.806,3.033c-0.298,3.004,1.723,4.428,4.074,5.563
		c2.232,1.078,4.519,2.07,6.663,3.301C2709.118,3805.44,2710.713,3808.405,2710.882,3812.157z"/>
</g>
<g>
	<g>
		<path fill-rule="evenodd" clip-rule="evenodd" fill="#FFFFFF" d="M1441.537-602.637c-54.499,26.98-108.119,4.517-132.701-33.678
			c-26.298-40.862-19.614-94.547,16.22-128.778c33.772-32.261,88.391-35.262,127.76-6.975
			c37.58,27.001,53.376,79.908,29.212,128.191c5.664,4.817,11.457,9.761,17.27,14.684c9.145,7.745,18.418,15.342,27.427,23.24
			c14.952,13.106,16.248,34.842,3.082,48.43c-14.398,14.861-36.392,14.962-50.177-0.383c-11.627-12.945-22.552-26.523-33.796-39.813
			C1444.402-599.41,1442.92-601.055,1441.537-602.637z M1393.188-777.284c-46.637-0.16-85.852,38.532-86.093,84.946
			c-0.245,47.61,37.922,87.378,84.075,87.599c49.066,0.236,88.298-37.972,88.475-86.168
			C1479.82-738.425,1441.091-777.119,1393.188-777.284z M1454.646-610.305c12.183,14.451,23.961,28.956,36.443,42.827
			c2.835,3.149,7.937,4.911,12.31,5.868c6.436,1.408,10.35-1.581,11.539-8.158c1.874-10.374-1.346-19.159-9.436-26.024
			c-2.271-1.929-4.737-3.628-7.006-5.562c-9.327-7.949-18.609-15.948-27.938-23.955
			C1465.199-620.255,1460.189-615.534,1454.646-610.305z"/>
		<path fill-rule="evenodd" clip-rule="evenodd" fill="#FFFFFF" d="M1465.461-691.356c-0.193,40.808-32.511,72.589-73.647,72.422
			c-39.827-0.16-71.738-32.907-71.544-73.416c0.194-40.401,32.479-71.918,73.525-71.775
			C1433.354-763.986,1465.649-731.193,1465.461-691.356z M1327.858-692.351c-0.511,36.279,27.719,65.654,63.656,66.243
			c36.755,0.601,66.259-28.188,66.78-65.161c0.499-35.328-28.439-64.733-64.225-65.259
			C1357.45-757.066,1328.371-728.88,1327.858-692.351z"/>
		<path fill-rule="evenodd" clip-rule="evenodd" fill="#FFFFFF" d="M1424.476-657.294c-4.82,0-9.212,0-13.932,0
			c0-22.604,0-44.952,0-67.681c4.594,0,9.152,0,13.932,0C1424.476-702.41,1424.476-680.227,1424.476-657.294z"/>
		<path fill-rule="evenodd" clip-rule="evenodd" fill="#FFFFFF" d="M1383.79-706.941c4.556,0,8.958,0,13.736,0
			c0,16.394,0,32.859,0,49.626c-4.631,0-9.011,0-13.736,0C1383.79-673.911,1383.79-690.225,1383.79-706.941z"/>
		<path fill-rule="evenodd" clip-rule="evenodd" fill="#FFFFFF" d="M1370.718-657.754c-4.642,0-8.855,0-13.498,0
			c0-10.616,0-21.134,0-31.949c4.414,0,8.786,0,13.498,0C1370.718-679.112,1370.718-668.751,1370.718-657.754z"/>
	</g>
	<path fill-rule="evenodd" clip-rule="evenodd" fill="#FFFFFF" d="M1222.996-760.632c0,32.638,0.008,65.276-0.007,97.914
		c-0.003,6.66-2.727,9.341-9.493,9.348c-21.572,0.019-43.145,0.024-64.716,0.002c-6.999-0.007-9.69-2.675-9.692-9.647
		c-0.021-64.996-0.025-129.99-0.021-194.985c0-6.746,2.727-9.534,9.371-9.542c21.713-0.027,43.424-0.028,65.136-0.003
		c6.712,0.007,9.435,2.766,9.437,9.421c0.004,32.498,0.002,64.995,0.002,97.493C1223.006-760.632,1223.001-760.632,1222.996-760.632
		z"/>
	<path fill-rule="evenodd" clip-rule="evenodd" fill="#FFFFFF" d="M1136.31-961.006c-2.629-5.758-5.071-11.199-7.611-16.593
		c-0.521-1.106-1.368-2.07-2.131-3.048c-4.126-5.287-7.124-11.085-7.639-17.873c-0.178-2.343-0.673-5.449,0.534-6.974
		c5.221-6.595,2.305-14.13,3.185-21.183c1.145-9.179,4.726-16.933,12.529-22.316c11.075-7.642,31.669-7.779,42.761-0.231
		c8.53,5.804,12.283,14.268,12.931,24.275c0.235,3.631,0.093,7.286,0.11,10.93c0.012,2.575,0.892,4.631,2.084,7.036
		c1.629,3.291,1.302,7.862,0.851,11.773c-0.354,3.082-1.868,6.157-3.383,8.957c-4.48,8.284-9.218,16.43-14.137,25.131
		c6.159,3.077,12.226,6.216,18.389,9.154c5.301,2.527,10.583,5.181,16.098,7.154c12.212,4.369,18.83,13.693,22.776,25.25
		c1.931,5.653,3.067,11.61,4.175,17.502c0.911,4.845-0.751,7.468-6.055,8.91c-6.458,1.757-13.052,3.133-19.665,4.171
		c-20.517,3.221-41.188,4.801-61.95,4.27c-21.993-0.562-43.876-2.461-65.38-7.461c-1.621-0.377-3.201-0.979-4.758-1.584
		c-3.226-1.258-4.879-3.443-4.487-7.125c1.311-12.322,4.513-24.055,12.497-33.73c2.995-3.629,7.342-6.484,11.601-8.659
		c9.583-4.891,19.516-9.092,29.261-13.672C1131.664-958.245,1134.276-959.881,1136.31-961.006z"/>
	<path fill-rule="evenodd" clip-rule="evenodd" fill="#FFFFFF" d="M1447.394-791.011c-0.002-27.823,0.002-55.645-0.003-83.467
		c-0.002-7.015-2.598-9.601-9.659-9.608c-21.295-0.023-42.591-0.013-63.886-0.006c-8.224,0.002-10.543,2.293-10.543,10.404
		c-0.003,24.774-0.002,49.548-0.002,74.322C1390.773-806.225,1420.753-803.546,1447.394-791.011z"/>
	<path fill-rule="evenodd" clip-rule="evenodd" fill="#FFFFFF" d="M1311.097-770.865c7.309-6.981,15.419-12.835,24.079-17.56
		c-0.001-8.989,0.003-17.978,0-26.967c-0.001-7.344-2.434-9.751-9.885-9.759c-21.584-0.022-43.168-0.011-64.751,0.01
		c-6.792,0.007-9.255,2.536-9.258,9.455c-0.01,25.368-0.004,50.736-0.004,76.104c0,25.368-0.006,50.735,0.003,76.104
		c0.003,7.611,2.476,10.106,10.017,10.109c4.452,0.003,8.903,0,13.354,0C1265.477-694.816,1278.282-739.518,1311.097-770.865z"/>
	<path fill-rule="evenodd" clip-rule="evenodd" fill="#FFFFFF" d="M1110.993-727.369c0,21.16,0.004,42.32-0.002,63.481
		c-0.003,7.956-2.593,10.529-10.6,10.529c-21.16,0.003-42.321,0.002-63.481-0.009c-7.369-0.004-10.035-2.719-10.036-10.211
		c-0.003-42.602-0.001-85.203,0.007-127.805c0.002-7.491,2.574-10.031,10.14-10.034c21.44-0.007,42.881-0.019,64.322,0.006
		c6.919,0.007,9.619,2.749,9.625,9.72c0.019,21.44,0.007,42.882,0.007,64.322C1110.98-727.369,1110.986-727.369,1110.993-727.369z"
		/>
	<path fill-rule="evenodd" clip-rule="evenodd" fill="#FFFFFF" d="M1192.663-966.016c3.121-5.579,5.861-10.442,8.569-15.325
		c5.488-9.896,7.658-20.064,2.829-30.951c-0.701-1.581-0.792-3.552-0.736-5.329c0.479-15.181-3.899-28.432-15.184-39.021
		c-0.292-0.274-0.468-0.672-1.318-1.932c2.889-3.187,5.504-7.097,9.046-9.785c10.013-7.597,29.129-7.346,39.346,0.035
		c6.286,4.542,9.529,10.894,10.473,18.431c0.416,3.323,0.265,6.714,0.468,10.069c0.195,3.206,0.288,6.127,2.136,9.339
		c1.619,2.816,0.793,7.362,0.215,11.012c-0.444,2.803-1.988,5.508-3.383,8.071c-3.84,7.057-7.858,14.017-12.157,21.636
		c8.736,4.1,17.039,8.967,25.968,11.987c20.005,6.77,26.665,22.309,29.141,41.176c0.557,4.243-1.646,6.477-5.212,7.375
		c-5.957,1.5-11.992,2.744-18.048,3.784c-5.514,0.947-11.086,1.634-16.661,2.07c-1.173,0.091-3.138-1.125-3.606-2.222
		c-6.484-15.163-16.83-26.193-32.58-31.97C1205.574-959.91,1199.461-963.012,1192.663-966.016z"/>
	<path fill-rule="evenodd" clip-rule="evenodd" fill="#FFFFFF" d="M1381.148-933.179c-4.174-7.227-8.225-14.235-12.27-21.247
		c-4.284-7.428-1.77-11.948,6.694-11.945c21.15,0.01,42.301,0.038,63.451,0.091c7.364,0.019,10.257,4.724,6.662,11.041
		c-10.651,18.723-21.368,37.41-32.134,56.068c-3.496,6.062-9.087,6.049-12.696-0.001c-4.355-7.302-8.555-14.695-12.999-22.353
		c-5.32,3.13-10.367,6.071-15.387,9.057c-24.286,14.446-48.614,28.823-72.802,43.433c-4.416,2.667-7.909,3.081-12.677,0.403
		c-11.572-6.5-23.561-12.258-35.379-18.32c-1.478-0.757-2.94-1.543-4.234-2.224c1.132-4.389,2.194-8.512,3.349-12.993
		c11.117,5.667,22.445,10.822,33.108,17.105c6.622,3.902,11.462,3.536,17.982-0.505c24.97-15.472,50.381-30.228,75.623-45.258
		C1378.617-931.526,1379.754-932.291,1381.148-933.179z"/>
	<path fill-rule="evenodd" clip-rule="evenodd" fill="#FFFFFF" d="M1089.65-878.027c-11.452,5.694-22.931,11.398-34.406,17.108
		c-5.875,2.922-11.726,5.895-17.625,8.768c-4.557,2.219-8.121,1.226-9.958-2.636c-1.747-3.673-0.41-6.916,4.025-9.143
		c12.737-6.391,25.501-12.73,38.302-18.99c1.117-0.546,2.724-0.799,3.875-0.446C1079.041-881.777,1084.138-879.92,1089.65-878.027z"
		/>
</g>
</svg>
