<?xml version="1.0" encoding="utf-8"?>
<!-- Generator: Adobe Illustrator 16.0.0, SVG Export Plug-In . SVG Version: 6.00 Build 0)  -->
<!DOCTYPE svg PUBLIC "-//W3C//DTD SVG 1.1//EN" "http://www.w3.org/Graphics/SVG/1.1/DTD/svg11.dtd">
<svg version="1.1" id="Layer_1" xmlns="http://www.w3.org/2000/svg" xmlns:xlink="http://www.w3.org/1999/xlink" x="0px" y="0px"
	 width="325.783px" height="319.009px" viewBox="-1347.163 -1128.745 325.783 319.009"
	 enable-background="new -1347.163 -1128.745 325.783 319.009" xml:space="preserve">
<g>
	<path fill-rule="evenodd" clip-rule="evenodd" fill="#0C3855" d="M-1204.029-890.778c6.461,4.543,12.854,9.188,19.417,13.579
		c2.569,1.718,4.494,3.694,5.326,6.676c1.791,1.897,0.128,3.401-0.712,4.83c-2.529,4.304-5.587,8.264-8.591,12.234
		c-3.152,4.167-6.324,4.57-10.748,1.759c-9.227-5.862-17.906-12.522-27.04-18.526c-2.927-1.924-5.402-2.106-8.767-0.757
		c-9.02,3.617-17.562,2.678-24.915-4.277c-0.218-0.248-0.438-0.496-0.67-0.733c-8.553-8.784-9.788-6.451-0.183-16.098
		c9.832-9.874,19.689-19.723,29.566-29.552c1.505-1.498,2.819-3.325,5.152-3.701c1.058-0.004,1.971,0.444,2.68,1.15
		c7.049,7.017,14.492,13.647,20.895,21.3c0.478,1.43,0.046,2.787-1.004,3.617C-1207.092-896.531-1207.146-893.767-1204.029-890.778z
		"/>
	<path fill-rule="evenodd" clip-rule="evenodd" fill="#FEFEFE" d="M-1248.298-947.804c17.496-15.464,25.366-35.137,25.452-58.213
		c1.506-0.108,2.503,0.836,3.42,1.785c10.758,11.136,22.764,20.982,33.344,32.301c1.13,1.209,2.43,2.319,2.61,4.133
		c-0.194,2.2-1.85,3.455-3.233,4.844c-11.471,11.513-22.962,23.006-34.478,34.475c-1.382,1.376-2.596,3.097-4.847,3.192
		c-1.466,0.034-2.501-0.814-3.457-1.755c-5.813-5.716-11.589-11.469-17.283-17.303
		C-1247.677-945.276-1248.7-946.252-1248.298-947.804z"/>
	<path fill-rule="evenodd" clip-rule="evenodd" fill="#155079" d="M-1248.298-947.804c7.414,7.352,14.828,14.703,22.242,22.055
		c0.288,0.146,0.411,0.325,0.369,0.539c-0.045,0.23-0.106,0.346-0.186,0.346c-10.282,8.945-19.36,19.118-29.144,28.573
		c-2.986,2.885-5.667,6.129-8.874,8.73c-3.607,2.926-3.219,5.137,0.165,7.757c1.411,1.094,2.445,2.675,3.65,4.034
		c-0.332,0.436-0.672,0.442-1.02,0.021c-5.554-4.802-10.599-10.061-14.769-16.137c-7.299-10.638-6.273-23.053,2.788-32.203
		c6.909-6.978,13.876-13.897,20.839-20.82C-1251.075-946.062-1250.119-947.534-1248.298-947.804z"/>
	<path fill-rule="evenodd" clip-rule="evenodd" fill="#FDFDFD" d="M-1086.032-1068.904c3.301,0.063,6.611,0.309,9.9,0.136
		c2.934-0.154,4.254,0.662,3.988,3.84c-0.218,2.613,0.095,5.271,0.172,7.908c1.909,2.899,1.415,6.05,0.97,9.194
		c-4.184,6.641-10.147,11.324-16.829,15.228c-4.115,0.408-8.232,0.4-12.35,0.037c-6.729-3.812-12.62-8.568-16.898-15.138
		c-0.684-3.172-0.629-6.271,0.913-9.22c0.987-3.803-1.798-9.033,1.382-11.232c2.613-1.808,7.383-0.495,11.196-0.58
		c0.494-0.012,0.987-0.112,1.48-0.172C-1096.749-1071.016-1091.39-1071.017-1086.032-1068.904z"/>
	<path fill-rule="evenodd" clip-rule="evenodd" fill="#899237" d="M-1160.17-967.953c8.774,8.88,17.544,17.765,26.329,26.634
		c1.644,1.66,3.39,3.23,3.958,5.638c2.132,5.044-1.983,7.154-4.82,9.538c-3.012,2.529-6.38,2.055-9.413-0.433
		c-11.781-11.907-23.704-23.686-35.503-35.587c-1.595-1.608-3.707-2.925-3.911-5.545c2.281-5.296,6.415-8.8,11.248-11.629
		C-1166.777-977.108-1163.516-972.484-1160.17-967.953z"/>
	<path fill-rule="evenodd" clip-rule="evenodd" fill="#A7B344" d="M-1171.938-978.784c-4.252,3.289-8.02,7.063-11.297,11.325
		c-0.343,0.216-0.635,0.16-0.876-0.166c-12.569-13.142-25.587-25.832-38.735-38.391c-3.366-5.816-2.883-7.854,2.938-12.57
		c4.225-3.424,7.273-1.088,10.335,1.947c10.157,10.071,20.376,20.081,30.57,30.115
		C-1175.806-984.713-1172.622-982.89-1171.938-978.784z"/>
	<path fill-rule="evenodd" clip-rule="evenodd" fill="#627590" d="M-1101.043-1033.66c4.651,0.003,9.304,0.005,13.956,0.008
		c8.045,4.8,14.667,11.274,21.116,17.951c-0.287,2.602-2.066,3.068-4.264,3.066c-15.901-0.017-31.804-0.016-47.705-0.005
		c-2.196,0.001-3.984-0.467-4.203-3.104C-1115.679-1022.386-1109.074-1028.862-1101.043-1033.66z"/>
	<path fill-rule="evenodd" clip-rule="evenodd" fill="#617591" d="M-1099.921-898.929c2.511,2,4.413,4.758,8.323,4.705
		c1.967-0.026,2.588,2.212,2.578,4.232c-0.035,7.481-0.063,14.964,0.009,22.445c0.026,2.736-1.234,3.914-3.863,4.049
		c-9.729,0.498-19.457,0.993-29.173-0.206c-1.87-1.868-1.45-4.289-1.491-6.552c-0.089-4.954-0.104-9.912-0.007-14.865
		c0.069-3.569-0.695-6.193-4.97-6.353c-1.493-0.056-2.916-0.66-3.528-2.291c0.464-0.765,1.226-0.817,2-0.837
		c2.415-0.289,4.846-0.039,7.265-0.21c4.3,1.279,7.118-1.05,9.688-3.98c0.188,0.128,0.375,0.256,0.565,0.378
		c3.704,3.354,7.619,3.457,11.534,0.293C-1100.696-898.474-1100.338-898.741-1099.921-898.929z"/>
	<path fill-rule="evenodd" clip-rule="evenodd" fill="#0E7E83" d="M-1144.419-927.96c6.604,4.238,13.27,0.696,14.535-7.723
		c3.216,2.473,5.055,5.35,2.579,9.36c-3.306,5.354-6.594,6.75-11.536,4.659c-6.122-2.589-12.191-0.506-18.057,0.51
		c-19.887,3.443-35.453,13.992-47.132,30.375c-5.497-3.672-5.505-3.68-0.891-8.654c0.884-0.953,1.885-1.809,1.859-3.267
		c3.755-6.745,9.721-11.267,16.036-15.221c10.465-6.552,22.049-10.016,34.326-11.062
		C-1149.921-929.218-1147.025-929.518-1144.419-927.96z"/>
	<path fill-rule="evenodd" clip-rule="evenodd" fill="#C0E2DE" d="M-1202.054-1041.809c-4.549,1.08-8.118,5.394-13.419,4.049
		c-0.55-1.346,0.758-1.664,1.385-2.206c2.525-2.186,3.248-3.545-0.543-5.594c-7.357-3.978-9.84-10.369-7.59-17.374
		c1.781,2.794,4.788,2.854,7.581,3.39c2.13,1.79,4.284,3.028,6.62,0.288c0.882-0.416,1.783-0.432,2.698-0.146
		c2.195,1.863,4.311,2.729,6.1-0.501c1.222-0.481,2.274-0.002,3.314,0.567c2.703,3.584,4.49,0.362,6.546-0.892
		c2.858,0.107,5.792-0.335,8.451,1.191c1.785,2.574,0.847,5.063-0.326,7.479C-1184.658-1044.511-1194.302-1040.02-1202.054-1041.809
		z"/>
	<path fill-rule="evenodd" clip-rule="evenodd" fill="#FEFEFE" d="M-1205.137-1058.767c-0.865-0.018-1.73-0.036-2.597-0.054
		c-2.154-1.401-4.299-0.795-6.441,0.036c-3.005-0.757-8.121,2.579-8.046-4.149c3.192-7.839,10.676-12.489,20.194-12.548
		c10.059-0.062,17.512,4.759,21.063,13.625c0.647,1.086,0.81,2.13-0.268,3.065c-2.885-0.187-5.884,0.746-8.619-0.889
		c-2.231-0.785-4.202,0.155-6.196,0.938c-0.947-0.31-1.896-0.618-2.844-0.927
		C-1201.135-1060.496-1203.111-1059.458-1205.137-1058.767z"/>
	<path fill-rule="evenodd" clip-rule="evenodd" fill="#155079" d="M-1117.923-953.704c-0.035-0.495-0.1-0.991-0.101-1.487
		c-0.038-12.399,0.017-12.154,12.056-12.787c6.301-0.331,12.534,0.49,18.779,0.16c4.33-0.229,6.275,1.251,6.62,5.705
		c0.217,2.806,0.429,5.592,0.391,8.402c-3.067,2.218-6.534,1.2-9.864,1.229c-0.508-0.05-1.012-0.171-1.496-0.332
		c-2.26-1.009-4.103-2.702-6.234-3.933c-1.076-0.621-2.073-2.12-3.449-1.248c-1.037,0.658-0.535,2.118-0.564,3.241
		c-0.018,0.656,0.051,1.314,0.078,1.98c-0.075,2.122,0.326,4.341-1.272,6.139c-3.404-0.278-1.534-5.464-5.322-5.597
		c-2.792-0.098-5.654,0.31-8.386-0.652C-1117.16-953.049-1117.543-953.381-1117.923-953.704z"/>
	<path fill-rule="evenodd" clip-rule="evenodd" fill="#0C3855" d="M-1091.12-953.741c3.647,0.01,7.296,0.02,10.943,0.029
		c0.563,13.318-0.646,14.622-13.888,14.785c-6.146,0.076-12.27-0.01-18.412-0.65c-3.313-0.345-4.592-1.404-4.896-4.725
		c-0.287-3.137-0.921-6.23-0.551-9.402c1.477-0.017,2.953-0.045,4.429-0.048c8.158-0.013,8.158-0.011,10.277,6.997
		C-1099.151-949.025-1095.78-952.499-1091.12-953.741z"/>
	<path fill-rule="evenodd" clip-rule="evenodd" fill="#0E7D82" d="M-1261.094-875.75c0.34-0.007,0.68-0.014,1.02-0.021
		c8.493,6.051,17.487,7.688,26.934,2.515c2.508-1.373,4.022-0.308,5.772,0.907c9.258,6.423,18.472,12.908,27.758,19.289
		c4.915,3.377,7.428,2.96,10.661-2.024c3.304-5.092,8.053-9.292,9.664-15.44c4.484,1.981,3.741,5.45,2.409,8.939
		c-0.568,1.486-1.583,2.803-2.395,4.196c-0.998,0.518-1.413,1.413-1.59,2.462c-2.15,1.208-2.945,3.51-4.286,5.361
		c-3.296,4.552-5.86,5.174-10.423,2.034c-8.719-5.998-17.391-12.065-25.989-18.234c-2.965-2.127-5.318-3.146-9.324-1.391
		C-1242.626-862.007-1252.547-865.158-1261.094-875.75z"/>
	<path fill-rule="evenodd" clip-rule="evenodd" fill="#909FB9" d="M-1065.97-1015.701c-4.558-1.268-6.697-5.57-10.14-8.253
		c-3.827-2.98-7.926-5.786-10.977-9.698c5.031-4.37,10.063-8.74,15.094-13.11c1.418-2.281,2.396-5.163,6.03-4.418
		C-1065.966-1039.353-1065.968-1027.527-1065.97-1015.701z"/>
	<path fill-rule="evenodd" clip-rule="evenodd" fill="#155079" d="M-1179.054-1061.795c5.816,0.729,9.303,4.396,10.832,9.635
		c1.587,5.438-0.761,10.506-5.55,13.854c-4.127,2.884-4.127,2.884-1.288,7.734c-7.485-4.364-16.795-2.81-23.968-8.187
		c1.074-1.262,2.646-1.165,4.064-1.487c11.229-2.553,15.097-7.412,14.979-18.838
		C-1179.996-1060.105-1179.81-1061.044-1179.054-1061.795z"/>
	<path fill-rule="evenodd" clip-rule="evenodd" fill="#909FB9" d="M-1101.043-1033.66c-6.822,6.221-13.325,12.817-21.099,17.917
		c-0.081-0.275-0.185-0.542-0.313-0.799c-0.734-1.051-0.21-2.105-0.008-3.159c0.178-1.807,0.848-3.672-0.626-5.283
		c1.136-4.958,6.197-6.643,8.315-10.112c-2.396,1.257-3.289,5.457-7.351,5.314c-0.001-7.127-0.003-14.254-0.004-21.382
		c3.618-0.738,4.578,2.141,5.99,4.403C-1111.106-1042.393-1106.075-1038.027-1101.043-1033.66z"/>
	<path fill-rule="evenodd" clip-rule="evenodd" fill="#8E9FB8" d="M-1132.043-893.764c0.929,0.334,1.833,0.854,2.788,0.972
		c7.127,0.886,7.12,0.86,7.133,8.163c0.013,6.975,0.049,13.95,0.075,20.925c0,0.001,0.027-0.038,0.027-0.038
		c-3.284,0.815-6.575,0.689-9.87,0.069c-1.571-0.704-2.054-2.011-2.052-3.62c0.013-7.763,0.011-15.526,0.014-23.289
		C-1133.927-892.016-1133.432-893.155-1132.043-893.764z"/>
	<path fill-rule="evenodd" clip-rule="evenodd" fill="#FCFDFD" d="M-1028.101-1123.831c0.945-0.606,2.08-1.085,1.49,0.76
		c-3.607,11.276-7.322,22.518-11.347,34.828c-2.418-4.531-4.32-8.098-6.825-12.793c-2.332,2.591-4.473,4.763-6.372,7.128
		c-2.6,3.235-4.509,2.509-6.189-0.78c1.134-2.939,3.7-4.684,5.836-6.72C-1043.687-1108.863-1036.834-1117.33-1028.101-1123.831z"/>
	<path fill-rule="evenodd" clip-rule="evenodd" fill="#C0E2DE" d="M-1028.101-1123.831c-9.262,10.201-18.925,20.001-29.243,29.143
		c-2.849-1.422-1.756-2.801-0.18-4.559c2.144-2.39,6.499-4.198,5.859-7.295c-0.545-2.634-5.105-3.158-7.792-4.784
		c-0.677-0.409-1.351-0.825-3.009-1.84C-1050.409-1116.907-1039.256-1120.369-1028.101-1123.831z"/>
	<path fill-rule="evenodd" clip-rule="evenodd" fill="#44879F" d="M-1130.033-1090.195c0.007,11.777-8.686,20.51-20.365,20.46
		c-10.97-0.047-20.702-9.55-20.632-20.145c0.069-10.521,9.834-20.762,20.285-20.749
		C-1137.545-1110.613-1129.118-1098.755-1130.033-1090.195z"/>
	<path fill-rule="evenodd" clip-rule="evenodd" fill="#EEF9FA" d="M-1146.737-1063.463c1.301,2.207,0.058,3.689-0.441,5.161
		c-6.037,17.807-12.151,35.586-18.246,53.372c-0.215,0.63-0.4,1.271-0.65,1.886c-0.358,0.88-0.569,2.282-1.772,1.973
		c-1.831-0.473-0.742-1.863-0.413-2.838c3.253-9.613,6.548-19.212,9.828-28.815c3.173-9.289,6.339-18.581,9.52-27.868
		C-1148.551-1061.65-1148.259-1062.795-1146.737-1063.463z"/>
	<path fill-rule="evenodd" clip-rule="evenodd" fill="#EEF9FA" d="M-1149.217-983.212c20.718-7.036,41.436-14.071,62.154-21.106
		c0.25,0.727,0.501,1.453,0.751,2.18c-20.709,7.041-41.419,14.083-62.128,21.124
		C-1148.698-981.747-1148.958-982.479-1149.217-983.212z"/>
	<path fill-rule="evenodd" clip-rule="evenodd" fill="#0D7F85" d="M-1083.05-996.702c-20.429,6.98-40.857,13.961-61.285,20.941
		c-0.218-0.616-0.435-1.233-0.652-1.85c20.093-7.814,40.735-14.084,61.133-21.045
		C-1083.587-998.004-1083.318-997.352-1083.05-996.702z"/>
	<path fill-rule="evenodd" clip-rule="evenodd" fill="#0D8085" d="M-1164.511-996.119c-0.349-3.481,1.474-6.345,2.505-9.391
		c5.328-15.729,10.688-31.448,16.036-47.17c0.321-0.944,0.631-1.893,0.98-2.826c0.352-0.936,0.764-2.143,1.97-1.779
		c1.337,0.403,0.729,1.561,0.411,2.48c-3.359,9.728-6.72,19.456-10.074,29.187c-2.975,8.631-5.91,17.277-8.945,25.887
		C-1162.124-998.327-1161.898-996.196-1164.511-996.119z"/>
	<path fill-rule="evenodd" clip-rule="evenodd" fill="#F5FAFB" d="M-1122.124-1029.782c3.81-2.536,6.246-6.794,10.687-8.624
		c-2.827,5.457-7.911,8.854-11.652,13.423c-11.288,11.135-22.578,22.271-33.867,33.405c-0.483-0.467-0.967-0.935-1.45-1.401
		C-1146.312-1005.247-1134.219-1017.514-1122.124-1029.782z"/>
	<path fill-rule="evenodd" clip-rule="evenodd" fill="#155679" d="M-1171.938-978.784c-2.355-2.581-4.712-5.162-7.066-7.741
		c11.68-1.13,19.138,6.225,18.836,18.574C-1164.093-971.563-1168.015-975.174-1171.938-978.784z"/>
	<path fill-rule="evenodd" clip-rule="evenodd" fill="#0D3956" d="M-1179.054-1061.795c-0.504,2.976,1.47,5.65,0.67,8.806
		c-2.217,8.737-9.941,14.233-20.645,14.23c-1.314-0.713-2.348-1.705-3.025-3.051c5.417-0.669,10.816-1.419,15.199-5.122
		c3.659-3.092,6.521-6.593,5.623-11.86c0.089-1.021,0.179-2.042,0.268-3.064
		C-1180.328-1061.837-1179.691-1061.815-1179.054-1061.795z"/>
	<path fill-rule="evenodd" clip-rule="evenodd" fill="#0D7F84" d="M-1122.463-1019.701c0.004,1.052,0.008,2.104,0.01,3.157
		c-10.124,9.954-20.246,19.906-30.368,29.858c-0.483-0.469-0.967-0.938-1.45-1.407
		C-1143.669-998.629-1133.065-1009.165-1122.463-1019.701z"/>
	<path fill-rule="evenodd" clip-rule="evenodd" fill="#17547B" d="M-1086.032-1068.904c-5.358,0-10.716,0.001-16.074,0.001
		C-1093.55-1077.539-1094.585-1077.544-1086.032-1068.904z"/>
	<path fill-rule="evenodd" clip-rule="evenodd" fill="#BBE9ED" d="M-1116.431-901.129c-0.297-3.547-2.243-4.938-5.485-5.563
		c3.038-0.894,5.435-2.063,5.217-5.749c0.831,2.941,2.09,5.177,5.57,5.606C-1114.068-905.893-1116.467-904.895-1116.431-901.129z"/>
	<path fill-rule="evenodd" clip-rule="evenodd" fill="#19547A" d="M-1065.963-1051.18c-2.01,1.473-4.021,2.945-6.03,4.418
		c0.007-3.418,0.014-6.835,0.021-10.255C-1069.341-1055.719-1067.14-1053.975-1065.963-1051.18z"/>
	<path fill-rule="evenodd" clip-rule="evenodd" fill="#DEF4F6" d="M-1248.462-829.206c-1.55-0.418-1.452-1.466-0.547-2.13
		c2.773-2.033,2.762-4.001,0.365-6.308c-0.598-0.575-1.719-1.552-0.46-2.421c1.09-0.753,1.643,0.478,2.327,1.119
		c4.873,4.576,4.832,5.521-0.467,9.012C-1247.644-829.67-1248.068-829.439-1248.462-829.206z"/>
	<path fill-rule="evenodd" clip-rule="evenodd" fill="#BFE2DE" d="M-1037.278-929.914c3.301-3.994,8.479-6.378,10.114-11.8
		c1.034,0.983,2.068,1.967,3.104,2.951c-4.084,3.249-6.599,8.316-11.845,10.219C-1036.363-929.001-1036.82-929.458-1037.278-929.914
		z"/>
	<path fill-rule="evenodd" clip-rule="evenodd" fill="#1A537A" d="M-1116.137-1046.76c-1.996-1.466-3.993-2.932-5.99-4.4
		c0.867-3.081,3.933-3.882,5.962-5.756C-1116.156-1053.533-1116.147-1050.146-1116.137-1046.76z"/>
	<path fill-rule="evenodd" clip-rule="evenodd" fill="#CEEFF2" d="M-1021.38-934.665c-3.287,3.869-6.012,6.963-10.433,10.07
		C-1030.104-929.793-1026.009-933.71-1021.38-934.665z"/>
	<path fill-rule="evenodd" clip-rule="evenodd" fill="#E3F6F7" d="M-1035.905-928.544c4.269-3.035,6.607-8.307,11.845-10.219
		c-1.846,5.212-6.696,7.781-10.244,11.484C-1034.906-926.65-1035.684-927.682-1035.905-928.544z"/>
	<path fill-rule="evenodd" clip-rule="evenodd" fill="#E9F7F9" d="M-1093.197-1094.728c-2.836-0.781-5.524-0.745-7.345,2.205
		c-0.457,0.742-2.072-0.014-1.545-0.531c1.87-1.836,0.364-4.933,1.853-6.002c2.102-1.512,4.226,0.174,5.854,2.051
		C-1093.864-1096.409-1093.003-1096.136-1093.197-1094.728z"/>
	<path fill-rule="evenodd" clip-rule="evenodd" fill="#B4E7EB" d="M-1150.838-1125.8c-1.461-0.403-4.189,0.793-4.069-1.384
		c0.127-2.284,2.937-1.368,4.599-1.408c1.486-0.036,4.202-0.771,4.066,1.323C-1146.392-1124.934-1149.217-1126.239-1150.838-1125.8z
		"/>
	<path fill-rule="evenodd" clip-rule="evenodd" fill="#BEEAEE" d="M-1161.095-830.002c-0.139,1.355-0.079,3.455-1.173,2.985
		c-2.935-1.259-1.089-4.64-2.199-6.876c-0.389-0.782,0.134-2.086,0.922-1.755C-1160.948-834.556-1161.759-831.798-1161.095-830.002z
		"/>
	<path fill-rule="evenodd" clip-rule="evenodd" fill="#B2E6EB" d="M-1245.3-857.79c2.044,0.336,4.601,0.051,5.735,2.637
		c0.26,0.591-0.887,1.306-1.349,0.98c-2.284-1.613-6.072,0.832-7.382-2.464C-1248.739-857.756-1246.589-857.64-1245.3-857.79z"/>
	<path fill-rule="evenodd" clip-rule="evenodd" fill="#CFEAEC" d="M-1180.86-854.927c-0.238-1.16-2.629-1.575-1.357-3.129
		c1.063-1.299,1.927,0.527,2.949,0.668c1.116,1.896,3.736,2.655,4.077,5.46C-1178.085-851.233-1178.885-854.256-1180.86-854.927z"/>
	<path fill-rule="evenodd" clip-rule="evenodd" fill="#CDEEF1" d="M-1219.369-816.676c-3.741,0.73-6.053-1.484-8.352-3.725
		C-1224.019-821.05-1221.726-818.795-1219.369-816.676z"/>
	<path fill-rule="evenodd" clip-rule="evenodd" fill="#C5ECEF" d="M-1260.146-823.979c-1.225-0.041-2.971-0.01-2.646-0.944
		c1.104-3.173,4.572-1.125,6.656-2.495c0.671-0.441,2.093-0.149,1.852,0.712C-1255.177-823.527-1258.486-825.219-1260.146-823.979z"
		/>
	<path fill-rule="evenodd" clip-rule="evenodd" fill="#BEE9EE" d="M-1254.972-850.365c0.128-1.416-0.017-3.004,1.311-3.146
		c2.107-0.225,1.244,1.687,1.461,2.778c0.063,0.317,0.131,0.672,0.051,0.972c-0.424,1.603,2.243,4.319-0.062,4.516
		C-1254.916-845.015-1254.04-848.748-1254.972-850.365z"/>
	<path fill-rule="evenodd" clip-rule="evenodd" fill="#CAEEF1" d="M-1245.824-1028.653c3.22-1.629,5.575-2.858,7.976-3.991
		c0.323-0.152,1.022,0.043,1.293,0.323c0.564,0.583,0.249,1.266-0.325,1.638
		C-1239.245-1029.153-1241.514-1027.184-1245.824-1028.653z"/>
	<path fill-rule="evenodd" clip-rule="evenodd" fill="#CDEEF1" d="M-1106.512-1089.057c-1.373,2.108-3.416,2.38-5.509,2.061
		c-1.416-0.217-3.384-0.867-2.929-2.616c0.609-2.345,2.082-0.214,3.045,0.049
		C-1110.194-1089.097-1108.393-1090.729-1106.512-1089.057z"/>
	<path fill-rule="evenodd" clip-rule="evenodd" fill="#C7EDF0" d="M-1342.927-981.965c1.528,3.363-0.327,5.888-0.447,8.497
		c-0.025,0.556-0.602,1.19-1.419,0.968c-0.744-0.203-1.108-0.825-0.909-1.499C-1344.974-976.459-1345.472-979.304-1342.927-981.965z
		"/>
	<path fill-rule="evenodd" clip-rule="evenodd" fill="#C5ECF0" d="M-1311.522-1036.521c-0.872-0.134-1.697-0.467-1.282-1.19
		c1.409-2.459,3.505-4.313,5.983-5.641c0.594-0.317,1.403,0.718,1.105,1.169
		C-1307.252-1039.851-1309.275-1037.968-1311.522-1036.521z"/>
	<path fill-rule="evenodd" clip-rule="evenodd" fill="#D1F0F3" d="M-1311.507-864.62c-0.093,0.893-0.736,1.659-1.196,1.346
		c-2.366-1.611-3.633-4.139-4.846-6.627c-0.303-0.622,0.642-1.467,1.104-1.153C-1314.077-869.445-1313.012-866.782-1311.507-864.62z
		"/>
	<path fill-rule="evenodd" clip-rule="evenodd" fill="#CDEEF1" d="M-1251.323-1057.377c-3.54,1.087-5.783-0.514-8.197-0.731
		c-0.748-0.067-1.702-0.51-1.303-1.636c0.253-0.715,0.988-0.909,1.646-0.717C-1256.77-1059.754-1253.968-1060.008-1251.323-1057.377
		z"/>
	<path fill-rule="evenodd" clip-rule="evenodd" fill="#D0EFF3" d="M-1239.583-828.066c-0.064-1.118,0.448-1.863,1.039-1.588
		c2.517,1.172,4.723,2.846,6.389,5.086c0.309,0.415-0.093,1.501-0.959,1.182C-1235.782-824.369-1237.648-826.465-1239.583-828.066z"
		/>
	<path fill-rule="evenodd" clip-rule="evenodd" fill="#D4F0F3" d="M-1327.613-888.08c-3.099-2.382-3.833-3.727-4.321-7.914
		C-1328.898-894.162-1327.742-892.045-1327.613-888.08z"/>
	<path fill-rule="evenodd" clip-rule="evenodd" fill="#C8EDF0" d="M-1205.528-812.268c-0.287,1.045-0.946,1.541-1.85,1.212
		c-2.277-0.83-4.901-0.759-6.8-2.53c-0.176-0.164,0.048-1.179,0.206-1.211c2.711-0.557,4.993,1.107,7.521,1.571
		C-1206.085-813.16-1205.813-812.58-1205.528-812.268z"/>
	<path fill-rule="evenodd" clip-rule="evenodd" fill="#D5F1F4" d="M-1216.041-1112.165c-3.419,2.619-5.901,4.238-9.348,4.563
		C-1223.274-1111.045-1221.403-1112.031-1216.041-1112.165z"/>
	<path fill-rule="evenodd" clip-rule="evenodd" fill="#D5F1F3" d="M-1095.762-1103.86c-1.747-3.28-2.935-5.502-4.114-7.729
		c-0.365-0.688-0.157-1.456,0.438-1.645c0.44-0.139,1.324,0.241,1.615,0.662C-1096.294-1110.354-1094.427-1108.188-1095.762-1103.86
		z"/>
	<path fill-rule="evenodd" clip-rule="evenodd" fill="#BFEAEE" d="M-1185.53-811.109c-0.047-1.405,0.749-1.731,1.565-1.853
		c2.354-0.349,4.494-2.064,7.021-1.115c0.133,0.05,0.138,1.12-0.034,1.197C-1179.69-811.646-1182.339-809.876-1185.53-811.109z"/>
	<path fill-rule="evenodd" clip-rule="evenodd" fill="#C4ECEF" d="M-1175.36-1125.244c0.189,1.263-0.438,1.622-1.039,1.742
		c-2.466,0.492-4.865,1.729-7.463,0.799c-0.112-0.041-0.076-1.167,0.097-1.23C-1181.03-1124.947-1178.303-1126.282-1175.36-1125.244
		z"/>
	<path fill-rule="evenodd" clip-rule="evenodd" fill="#C4ECEF" d="M-1169.782-1125.054c0.092-0.792,0.055-1.036,0.135-1.084
		c2.605-1.556,5.424-1.906,8.356-1.316c0.228,0.046,0.494,1.119,0.444,1.145C-1163.632-1124.849-1166.567-1124.47-1169.782-1125.054
		z"/>
	<path fill-rule="evenodd" clip-rule="evenodd" fill="#CAEDF1" d="M-1342.575-931.233c0.229,1.421-0.271,2.639-0.962,2.238
		c-2.524-1.461-1.469-4.44-2.313-6.667c-0.271-0.714,0.022-2.206,0.848-1.897C-1341.707-936.332-1343.95-932.814-1342.575-931.233z"
		/>
	<path fill-rule="evenodd" clip-rule="evenodd" fill="#CCEEF1" d="M-1257.114-1077.445c-0.057-4.058,2.22-5.91,3.665-8.147
		c0.382-0.591,1.009-0.835,1.654-0.25c0.631,0.571,0.402,1.221,0.006,1.744C-1253.314-1082.079-1254.046-1079.423-1257.114-1077.445
		z"/>
	<path fill-rule="evenodd" clip-rule="evenodd" fill="#D3F0F3" d="M-1078.377-1089.213c-4.021,0.819-6.271-1.051-8.735-2.054
		c-0.638-0.26-1.051-0.905-0.66-1.573c0.347-0.592,1-0.771,1.692-0.401C-1083.854-1092.054-1081.141-1091.789-1078.377-1089.213z"/>
	<path fill-rule="evenodd" clip-rule="evenodd" fill="#D0EFF3" d="M-1112.782-1120.938c1.338-0.376,1.885-0.731,2.199-0.586
		c2.441,1.13,5.27,1.691,6.744,4.297c0.068,0.121-0.659,0.963-0.829,0.906C-1107.478-1117.259-1110.095-1118.532-1112.782-1120.938z
		"/>
	<path fill-rule="evenodd" clip-rule="evenodd" fill="#DBF3F5" d="M-1324.699-883.307c2.555,1.982,4.427,4.307,4.399,7.749
		C-1322.729-877.563-1324.578-879.93-1324.699-883.307z"/>
	<path fill-rule="evenodd" clip-rule="evenodd" fill="#DAF2F5" d="M-1203.691-1117.537c-2.272,2.405-4.966,3.732-9.061,3.612
		C-1209.986-1117.134-1206.989-1117.694-1203.691-1117.537z"/>
	<path fill-rule="evenodd" clip-rule="evenodd" fill="#CDEEF1" d="M-1339.479-914.162c-2.485-2.468-2.382-5.118-3.298-7.313
		c-0.323-0.774-0.3-1.671,0.764-1.977c0.853-0.245,1.295,0.49,1.406,1.046C-1340.108-919.928-1338.281-917.648-1339.479-914.162z"/>
	<path fill-rule="evenodd" clip-rule="evenodd" fill="#D0EFF3" d="M-1237.949-850.7c1.823,4.355,0.249,6.898-1.308,9.41
		c-0.138,0.223-1.198,0.17-1.205,0.134C-1241.031-844.346-1239.205-846.826-1237.949-850.7z"/>
	<path fill-rule="evenodd" clip-rule="evenodd" fill="#D3F0F3" d="M-1234.67-1037.652c-0.579-2.188-1.14-4.381-1.746-6.561
		c-0.19-0.682-0.296-1.342,0.535-1.529c0.385-0.087,1.082,0.108,1.265,0.405c1.597,2.59,2.406,5.255,1.293,7.974
		C-1233.772-1037.459-1234.221-1037.555-1234.67-1037.652z"/>
	<path fill-rule="evenodd" clip-rule="evenodd" fill="#D2F0F3" d="M-1275.319-829.57c0.346,0.16,0.824,0.325,1.242,0.586
		c1.759,1.097,4.356,0.559,5.479,2.806c0.075,0.15-0.579,0.966-0.881,0.958c-2.555-0.062-4.747-1.278-6.929-2.439
		c-0.322-0.171-0.603-0.835-0.546-1.22C-1276.833-829.717-1276.12-829.725-1275.319-829.57z"/>
	<path fill-rule="evenodd" clip-rule="evenodd" fill="#D9F2F5" d="M-1346.498-952.792c0.854,0.71,1.291,0.901,1.296,1.104
		c0.072,2.703,1.324,5.411,0.006,8.088c-0.056,0.112-1.162-0.022-1.229-0.225C-1347.35-946.623-1347.44-949.445-1346.498-952.792z"
		/>
	<path fill-rule="evenodd" clip-rule="evenodd" fill="#CAEDF1" d="M-1325.5-1021.641c0.366,0.818,0.514,0.983,0.483,1.105
		c-0.715,2.918-2.326,5.286-4.575,7.225c-0.075,0.064-1.057-0.609-1.012-0.765
		C-1329.743-1017.058-1328.332-1019.688-1325.5-1021.641z"/>
	<path fill-rule="evenodd" clip-rule="evenodd" fill="#D8F2F4" d="M-1238.673-1049.579c-4.126-1.156-6.234-3.266-8.808-5.388
		C-1243.67-1055.457-1242.1-1054.534-1238.673-1049.579z"/>
	<path fill-rule="evenodd" clip-rule="evenodd" fill="#D7F2F4" d="M-1172.977-815.742c3.279-2.823,5.312-4.999,8.447-6.257
		C-1165.847-817.781-1167.224-816.648-1172.977-815.742z"/>
	<path fill-rule="evenodd" clip-rule="evenodd" fill="#E0F4F7" d="M-1346.017-957.159c-0.668-1.186-0.969-1.471-0.962-1.748
		c0.064-2.583-0.66-5.28,0.996-7.631c0.095-0.135,1.151,0.108,1.175,0.265C-1344.373-963.415-1344.515-960.617-1346.017-957.159z"/>
	<path fill-rule="evenodd" clip-rule="evenodd" fill="#DEF4F6" d="M-1264.029-1059.363c1.346,3.014,0.418,5.772-0.857,8.521
		C-1266.473-1053.808-1265.618-1056.623-1264.029-1059.363z"/>
	<path fill-rule="evenodd" clip-rule="evenodd" fill="#DEF4F6" d="M-1337.586-909.428c2.556,2.166,3.481,4.975,3.525,8.134
		C-1336.964-903.26-1337.746-906.145-1337.586-909.428z"/>
	<path fill-rule="evenodd" clip-rule="evenodd" fill="#DAF3F5" d="M-1294.388-1051.642c-1.459,3.057-4.2,4.302-7.128,5.288
		C-1300.291-1049.659-1297.704-1051.107-1294.388-1051.642z"/>
	<path fill-rule="evenodd" clip-rule="evenodd" fill="#E0F5F6" d="M-1303.08-852.178c-3.541-0.839-4.523-3.806-5.822-6.548
		C-1305.568-857.793-1304.409-854.91-1303.08-852.178z"/>
	<path fill-rule="evenodd" clip-rule="evenodd" fill="#D7F1F4" d="M-1262.461-1065.025c-0.558-3.39,0.501-6.174,3.28-9.02
		C-1258.769-1070.028-1260.227-1067.398-1262.461-1065.025z"/>
	<path fill-rule="evenodd" clip-rule="evenodd" fill="#D2F0F3" d="M-1198.577-1118.557c0.655-1.351,0.724-1.798,0.936-1.881
		c2.5-0.988,4.943-2.362,7.778-1.619c0.298,0.078,0.641,0.823,0.013,1.183C-1192.389-1119.424-1195.102-1118.742-1198.577-1118.557z
		"/>
	<path fill-rule="evenodd" clip-rule="evenodd" fill="#DEF4F6" d="M-1237.677-1100.277c1.509-3.077,4.159-4.464,7.281-5.129
		C-1231.798-1102.255-1234.482-1100.926-1237.677-1100.277z"/>
	<path fill-rule="evenodd" clip-rule="evenodd" fill="#E0F4F6" d="M-1125.777-1125.199c3.277-0.795,6.168-0.165,9.605,2.524
		C-1120.44-1122.263-1123.229-1123.219-1125.777-1125.199z"/>
	<path fill-rule="evenodd" clip-rule="evenodd" fill="#D6F1F4" d="M-1341.682-985.344c-0.697-4.679,0.433-7.394,2.281-9.891
		c0.065-0.088,1.141,0.313,1.137,0.471C-1338.338-991.688-1339.469-989.032-1341.682-985.344z"/>
	<path fill-rule="evenodd" clip-rule="evenodd" fill="#C8EDF1" d="M-1249.645-1028.921c-2.135,2.078-3.634,1.112-5.022,0.476
		c-1.544-0.709-4.457-1.395-3.768-3.005c1.097-2.562,2.806,0.414,4.299,0.71
		C-1252.768-1030.469-1251.499-1029.698-1249.645-1028.921z"/>
	<path fill-rule="evenodd" clip-rule="evenodd" fill="#E2F5F7" d="M-1336.806-1000.055c-0.75-3.418,1.406-5.509,2.492-7.918
		c0.3-0.666,0.989-0.93,1.596-0.45c0.285,0.226,0.512,0.982,0.351,1.245C-1333.757-1004.913-1333.939-1001.871-1336.806-1000.055z"
		/>
	<path fill-rule="evenodd" clip-rule="evenodd" fill="#E5F6F8" d="M-1322.045-1025.76c0.82-3.213,2.382-5.759,6.36-7.522
		C-1317.161-1029.385-1319.109-1027.156-1322.045-1025.76z"/>
	<path fill-rule="evenodd" clip-rule="evenodd" fill="#D8F2F5" d="M-1265.289-1042.191c0.034-1.28,0.094-2.766,0.802-2.396
		c2.596,1.356,1.863,4.563,3.153,6.736c0.357,0.603-0.206,1.634-0.819,1.39C-1264.952-1037.573-1264.218-1040.6-1265.289-1042.191z"
		/>
	<path fill-rule="evenodd" clip-rule="evenodd" fill="#E0F5F6" d="M-1113.695-1095.885c0.82-4.716,1.953-5.386,7.268-4.513
		C-1108.635-1098.223-1111.974-1098.325-1113.695-1095.885z"/>
	<path fill-rule="evenodd" clip-rule="evenodd" fill="#E1F5F7" d="M-1242.602-1097.527c0.415,1.14,0.551,1.323,0.505,1.412
		c-1.37,2.613-3.312,4.672-5.984,5.966c-0.08,0.038-0.828-0.822-0.74-0.992C-1247.446-1093.791-1245.177-1095.505-1242.602-1097.527
		z"/>
	<path fill-rule="evenodd" clip-rule="evenodd" fill="#E2F5F7" d="M-1293.414-841.089c-3.121-1.1-4.832-3.532-6.329-6.19
		C-1296.238-846.653-1294.427-844.266-1293.414-841.089z"/>
	<path fill-rule="evenodd" clip-rule="evenodd" fill="#E1F5F7" d="M-1289.06-1054.429c2.07-2.771,4.731-3.915,8.626-4.081
		C-1282.953-1055.05-1286.169-1054.984-1289.06-1054.429z"/>
	<path fill-rule="evenodd" clip-rule="evenodd" fill="#DFF4F6" d="M-1288.977-837.188c3.198,0.546,5.438,2.439,7.932,5.437
		C-1285.429-831.951-1287.346-834.36-1288.977-837.188z"/>
	<path fill-rule="evenodd" clip-rule="evenodd" fill="#E7F7F8" d="M-1140.237-1126.766c2.993-1.58,5.889-1.048,9.962-0.009
		C-1134.451-1124.509-1137.326-1126.075-1140.237-1126.766z"/>
	<path fill-rule="evenodd" clip-rule="evenodd" fill="#E5F6F8" d="M-1073.849-1088.633c2.85-0.296,5.698-0.593,8.548-0.889
		C-1067.747-1086.118-1070.689-1086.339-1073.849-1088.633z"/>
	<path fill-rule="evenodd" clip-rule="evenodd" fill="#DDF4F6" d="M-1275.391-1059.219c2.776-2.42,5.764-1.549,9.833-1.677
		C-1269.274-1057.45-1272.496-1059.29-1275.391-1059.219z"/>
	<path fill-rule="evenodd" clip-rule="evenodd" fill="#E5F6F8" d="M-1166.289-840.961c-2.969-1.312-4.624-3.663-6.146-7.261
		C-1168.228-846.807-1167.321-843.836-1166.289-840.961z"/>
	<path fill-rule="evenodd" clip-rule="evenodd" fill="#F4FBFB" d="M-1191.317-810.97c-2.829,1.611-5.664,1.692-10.006-0.038
		C-1197.047-812.333-1194.165-811.561-1191.317-810.97z"/>
	<path fill-rule="evenodd" clip-rule="evenodd" fill="#AEE5EA" d="M-1101.154-919.105c1.233,2.127,1.841,3.445,3.396,3.709
		c-0.828,1.042-2.494,1.339-2.648,2.979c-1.393-0.681-1.987-2.457-3.704-2.692C-1103.118-916.249-1100.968-916.068-1101.154-919.105
		z"/>
	<path fill-rule="evenodd" clip-rule="evenodd" fill="#8E9FB8" d="M-1122.778-894.811c-2.375,1.698-4.803,1.55-7.264,0.209
		C-1127.674-896.503-1125.241-896.18-1122.778-894.811z"/>
	<path fill-rule="evenodd" clip-rule="evenodd" fill="#617591" d="M-1113.09-898.792c4.374-1.581,8.766-1.302,13.168-0.137
		c0.001-0.001-0.327,0.363-0.327,0.363c-4.148,2.005-8.318,1.862-12.504,0.123L-1113.09-898.792z"/>
	<path fill-rule="evenodd" clip-rule="evenodd" fill="#617591" d="M-1131.889-863.674c3.29-0.023,6.58-0.047,9.87-0.069
		C-1125.3-862.304-1128.59-862.348-1131.889-863.674z"/>
	<path fill-rule="evenodd" clip-rule="evenodd" fill="#BFE2DE" d="M-1144.419-927.96c-23.217-0.099-42.923,7.955-58.643,25.261
		c-7.604-7.389-15.207-14.777-22.811-22.166c-0.072-0.293-0.133-0.588-0.184-0.885c14.385-13.555,28.345-27.534,41.944-41.875
		c0.299,0.021,0.592,0.075,0.877,0.165c11.604,11.693,23.216,23.379,34.806,35.086
		C-1147.031-930.963-1145.752-929.433-1144.419-927.96z"/>
	<path fill-rule="evenodd" clip-rule="evenodd" fill="#155078" d="M-1195.694-854.821c-0.402-0.21-1.17-0.514-1.832-0.97
		c-7.364-5.069-14.718-10.153-22.056-15.26c-0.813-0.565-1.545-1.261-2.248-1.962c-1.407-1.402-3.188-2.755-1.376-5.029
		c1.592-1.998,3.894-2.467,5.799-1.183c8.229,5.547,16.312,11.313,24.396,17.07c1.579,1.125,2.52,2.784,1.618,4.779
		C-1192.115-855.777-1193.382-854.725-1195.694-854.821z"/>
	<path fill-rule="evenodd" clip-rule="evenodd" fill="#D0E9E7" d="M-1109.438-1049.372c10.23,0,20.46,0,30.69,0
		c0.006,0.333,0.012,0.666,0.019,0.999c-10.228,0-20.454,0-30.681,0C-1109.42-1048.706-1109.428-1049.039-1109.438-1049.372z"/>
	<path fill-rule="evenodd" clip-rule="evenodd" fill="#D2EBE8" d="M-1109.362-1044.288c10.199,0,20.399,0,30.599,0
		c0.005,0.334,0.01,0.668,0.016,1.001c-10.203,0-20.406,0-30.609,0C-1109.359-1043.62-1109.36-1043.954-1109.362-1044.288z"/>
	<path fill-rule="evenodd" clip-rule="evenodd" fill="#D2EAE7" d="M-1091.732-1059.047c-5.882,0-11.763,0-17.645,0
		c-0.013-0.325-0.026-0.651-0.04-0.977c5.883,0,11.765,0,17.646,0C-1091.758-1059.698-1091.745-1059.372-1091.732-1059.047z"/>
	<path fill-rule="evenodd" clip-rule="evenodd" fill="#C3E4E0" d="M-1079.119-1054.009c-9.963,0-19.927,0-29.89,0
		c-0.001-0.153-0.003-0.308-0.004-0.462c9.963,0,19.926,0,29.89,0C-1079.122-1054.316-1079.12-1054.162-1079.119-1054.009z"/>
	<path fill-rule="evenodd" clip-rule="evenodd" fill="#D9DEE4" d="M-1095.871-878.927c0.025,6.014-4.278,10.376-10.31,10.45
		c-5.936,0.073-10.673-4.324-10.847-10.069c-0.17-5.648,4.997-10.94,10.72-10.979
		C-1100.8-889.562-1095.894-884.581-1095.871-878.927z"/>
	<path fill-rule="evenodd" clip-rule="evenodd" fill="#E9EBEE" d="M-1112.753-898.442c4.168-0.041,8.336-0.082,12.504-0.123
		c0.142,1.285,0.639,3.141-1.033,3.321c-3.398,0.367-6.878,0.389-10.283,0.088C-1113.148-895.296-1112.949-897.108-1112.753-898.442
		z"/>
	<path fill-rule="evenodd" clip-rule="evenodd" fill="#BACB54" d="M-1214.176-1058.785c2.127-3.582,4.271-4.233,6.441-0.036
		C-1210.323-1054.395-1211.631-1054.388-1214.176-1058.785z"/>
	<path fill-rule="evenodd" clip-rule="evenodd" fill="#B9CA52" d="M-1205.137-1058.767c1.693-2.986,3.641-4.209,6.246-0.903
		c-0.08,1.71-0.172,3.43-2.318,3.882C-1203.64-1055.276-1204.361-1057.071-1205.137-1058.767z"/>
	<path fill-rule="evenodd" clip-rule="evenodd" fill="#B9CA52" d="M-1196.048-1058.742c1.658-2.987,3.574-4.282,6.195-0.939
		c-0.108,1.679-0.109,3.438-2.275,3.893C-1194.537-1055.285-1195.303-1057.01-1196.048-1058.742z"/>
	<path fill-rule="evenodd" clip-rule="evenodd" fill="#C0E1DD" d="M-1091.12-953.741c-3.731,2.85-7.146,6.248-12.097,6.986
		c0.078-2.34,0.156-4.679,0.234-7.019c3.699-2.543,7.405-1.473,11.111-0.021C-1091.617-953.822-1091.367-953.804-1091.12-953.741z"
		/>
	<path fill-rule="evenodd" clip-rule="evenodd" fill="#F7F9FA" d="M-1091.871-953.795c-3.704,0.008-7.407,0.015-11.111,0.021
		c-0.281-2.24-0.47-4.478,0.275-7.273C-1098.846-958.712-1094.907-956.991-1091.871-953.795z"/>
	<path fill-rule="evenodd" clip-rule="evenodd" fill="#BFE2DE" d="M-1027.164-941.714c-1.929-1.3-2.708-3.185-3.108-5.425
		c-0.587-3.289-1.748-6.407-3.532-9.268c-3.699-5.929-10.518-8.401-16.869-6.104c-6.557,2.373-10.554,8.981-9.33,15.843
		c1.37,7.674,7.114,10.987,13.868,12.612c3.349,0.806,6.281,1.946,8.857,4.141c4.591-1.699,7.126-5.722,10.193-9.118
		C-1026.451-939.734-1026.273-940.845-1027.164-941.714z M-1034.186-936.181c-0.75,0.09-9.88-6.755-10.005-7.436
		c-0.307-1.666,1.417-1.993,2.097-3.019c0.664-1.003,1.549-1.118,2.391-0.048c2.057,2.615,4.146,5.206,6.197,7.826
		C-1032.519-937.596-1033.052-936.747-1034.186-936.181z M-1031.054-939.389c-3.602-4.491-7.202-8.983-11.35-14.156
		c-1.12,4.36-2.776,7.38-8.729,7.409c5.817,4.62,10.414,8.271,15.011,11.922c-0.247,0.389-0.494,0.777-0.741,1.166
		c-4.484-2.887-9.957-2.689-14.534-5.352c-4.8-2.793-7.252-7.324-6.529-12.433c0.671-4.74,4.66-8.983,9.353-9.947
		c5.478-1.124,10.188,1.002,13.192,5.897c2.8,4.562,2.66,10.122,5.502,14.662C-1030.272-939.943-1030.664-939.667-1031.054-939.389z
		"/>
	<path fill-rule="evenodd" clip-rule="evenodd" fill="#BFE2DE" d="M-1055.596-909.205c-4.576-3.693-9.583-4.778-13.537-2.523
		c-6.734,0.122-0.632,5.738-5.636,7.452c-4.646,1.591,4.493,3.221,1.989,7.948c-1.99,3.755,5.244-1.094,6.996,3.761
		c1.598,4.428,3.29-4.554,8.063-1.951c3.712,2.024-1.586-5.3,3.622-6.981C-1049.509-902.981-1060.25-905.44-1055.596-909.205z
		 M-1064.304-899.569c-2.126,0.122-3.498-1.064-3.6-3.202c-0.101-2.132,1.232-3.509,3.258-3.639
		c2.074-0.133,3.305,1.201,3.644,3.312C-1061.055-900.959-1062.202-899.689-1064.304-899.569z"/>
	<path fill-rule="evenodd" clip-rule="evenodd" fill="#01ADBE" d="M-1169.081-1089.978c0.027-10.831,8.084-18.794,18.997-18.777
		c10.056,0.016,19.122,8.977,18.932,18.709c-0.2,10.175-8.778,18.798-18.835,18.932
		C-1160.524-1070.973-1169.108-1079.454-1169.081-1089.978z"/>
	<path fill-rule="evenodd" clip-rule="evenodd" fill="#BFE2DE" d="M-1045.377-1008.058c0.152-3.991-2.65-3.649-5.082-3.414
		c-2.417,0.234-6.221-1.675-6.277,3.172c-0.077,6.625-0.008,13.252-0.003,19.878c0.001,2.041,0.967,2.768,3.048,2.953
		c7.994,0.713,8.298,0.511,8.299-7.681c0-1.822,0-3.645-0.005-5.467C-1045.401-1001.764-1045.497-1004.916-1045.377-1008.058z
		 M-1051.164-987.757c-2.457,0.028-3.14-0.95-3.088-3.237c0.113-4.979,0.131-9.965-0.004-14.943
		c-0.066-2.478,1.001-3.059,3.266-3.09c2.468-0.034,3.174,0.996,3.067,3.266c-0.125,2.65-0.029,5.313-0.031,7.969
		c-0.002,2.325-0.121,4.657,0.031,6.973C-1047.76-988.338-1048.894-987.782-1051.164-987.757z"/>
	<path fill-rule="evenodd" clip-rule="evenodd" fill="#BFE2DE" d="M-1031.92-989.237c-0.266-5.152-0.062-10.329-0.063-15.495
		c-0.002-5.332-0.132-10.669,0.036-15.997c0.148-4.7-3.251-3.265-5.559-3.282c-2.339-0.018-5.616-1.33-5.552,3.328
		c0.146,10.497,0.18,20.999-0.018,31.494c-0.094,5.012,3.375,3.442,5.859,3.572C-1034.677-985.483-1031.688-984.751-1031.92-989.237
		z M-1037.26-987.691c-2.354-0.017-3.682-0.363-3.638-3.22c0.145-9.294,0.147-18.592,0.001-27.885
		c-0.047-2.924,1.411-3.119,3.691-3.172c2.44-0.058,3.155,0.903,3.094,3.222c-0.128,4.81-0.039,9.626-0.037,14.439
		c0.002,4.482-0.098,8.967,0.042,13.444C-1034.031-988.477-1034.889-987.674-1037.26-987.691z"/>
	<path fill-rule="evenodd" clip-rule="evenodd" fill="#BFE2DE" d="M-1059.15-996.692c-0.012-1.097-0.463-1.802-1.575-2.219
		c-5.655-2.12-9.503,0.391-9.504,6.657c0.869,1.879-1.788,5.288,1.844,6.572c6.098,2.154,9.262-0.193,9.259-6.514
		C-1059.128-993.694-1059.134-995.193-1059.15-996.692z M-1064.882-987.633c-3.876-0.068-3.085-2.442-3.158-4.643
		c-0.085-2.539-0.431-4.813,3.596-4.697c3.853,0.112,3.143,2.409,3.157,4.984C-1061.054-989.691-1060.959-987.562-1064.882-987.633z
		"/>
	<path fill-rule="evenodd" clip-rule="evenodd" fill="#133B57" d="M-1105.704-887.68c4.826,0.335,8.647,4.713,8.273,9.479
		c-0.382,4.848-4.69,8.57-9.524,8.228c-4.897-0.347-8.476-4.495-8.176-9.478C-1114.837-884.34-1110.618-888.022-1105.704-887.68z"/>
	<path fill-rule="evenodd" clip-rule="evenodd" fill="#518098" d="M-1152.177-1091.677c0.962-1.634,1.065-3.417,1.096-5.27
		c0.028-1.754-0.53-3.618,0.827-5.627c2.57,3.367-0.376,7.721,2.291,10.728c-0.32,0.444-0.742,0.745-1.265,0.909
		C-1150.333-1090.698-1151.339-1090.854-1152.177-1091.677z"/>
	<path fill-rule="evenodd" clip-rule="evenodd" fill="#A6DADC" d="M-1148.789-1091.58c0.296-0.023,0.57-0.112,0.824-0.267
		c2.67-0.587,5.339-1.175,9.257-2.037c-3.248,2.919-6.658,2.441-9.064,4.115c-1.161,0.494-2.634,1.369-3.121-0.472
		C-1151.217-1091.461-1149.503-1091.094-1148.789-1091.58z"/>
	<path fill-rule="evenodd" clip-rule="evenodd" fill="#D2B354" d="M-1148.789-1091.58c-0.505,0.502-1.01,1.004-1.516,1.506
		c0.844,0.103,1.688,0.204,2.531,0.307c-0.769,1.599-1.876,2.702-3.734,1.775c-1.706-0.851-1.299-2.3-0.668-3.687
		C-1151.048-1091.645-1149.919-1091.612-1148.789-1091.58z"/>
	<path fill-rule="evenodd" clip-rule="evenodd" fill="#C3E3DF" d="M-1106.134-872.214c-3.609,0.105-6.734-2.816-6.845-6.397
		c-0.109-3.581,2.827-6.721,6.417-6.861c3.608-0.142,6.646,2.744,6.761,6.423C-1099.685-875.342-1102.485-872.32-1106.134-872.214z"
		/>
</g>
</svg>
