<?xml version="1.0" encoding="utf-8"?>
<!-- Generator: Adobe Illustrator 16.0.0, SVG Export Plug-In . SVG Version: 6.00 Build 0)  -->
<!DOCTYPE svg PUBLIC "-//W3C//DTD SVG 1.1//EN" "http://www.w3.org/Graphics/SVG/1.1/DTD/svg11.dtd">
<svg version="1.1" id="Layer_1" xmlns="http://www.w3.org/2000/svg" xmlns:xlink="http://www.w3.org/1999/xlink" x="0px" y="0px"
	 width="1168.511px" height="1069.436px" viewBox="0 0 1168.511 1069.436" enable-background="new 0 0 1168.511 1069.436"
	 xml:space="preserve">
<path fill="#FFFFFF" d="M1164.983,188.013c-3.883-25.165-10.516-48.852-21.105-70.437c-10.105-20.593-22.389-38.544-36.719-54.037
	c-22.094-23.887-46.969-41.052-73.471-54.393c-8.451-4.255-16.949-7.877-25.809-8.754L1007.985,0l-26.027,0.128
	c-14.654-0.288-29.314-0.03-43.975,0.217l-5.967,0.029c-15.031-0.626-30.07-0.135-45.107-0.265
	c-8.807-0.077-17.609-0.018-26.416,0.083c-14.16-0.229-28.322-0.032-42.482-0.08c-1.602-0.004-3.176,0.082-4.605,0.848L4.489,2.685
	C0.882,2.667,0.019,4.299,0.065,8.809C0.21,22.792,0.044,36.78,0,50.768c0.06,17.507,0.175,35.016,0.165,52.521
	c-0.025,47.878-0.104,95.754-0.16,143.629c0.036,1.997,0.105,3.994,0.105,5.991c0.02,223.358,0.035,446.717,0.043,670.072
	c0,1.998-0.094,3.992-0.145,5.988c0.071,16.51,0.143,33.02,0.215,49.529c0.061,0.091,0.127,0.159,0.188,0.246v90.213l111.234,0.251
	c1.506,0.208,3.065,0.061,4.594,0.061c8.162,0.002,16.324,0.002,24.484,0.005l8.688,0.018l0.002-0.018
	c61.924,0.01,583.169,0.006,645.091,0.072c2.984,0.003,5.959-1.163,8.947-0.155c16.771,0.24,33.545,0.114,50.318,0.065
	c16.936-0.053,33.873,0.38,50.807-0.268c3.158-0.141,6.303,0.333,9.467,0.333c61.924-0.047,123.85-0.036,185.771-0.036
	c2.496,0,4.996,0.088,7.479-0.424c6.467,0.819,12.951,0.442,19.422,0.336c5.283-0.088,10.633,1.06,15.854-1.023
	c3.004-2.207,3.479-6.363,4.268-10.144c8.797-42.091,10.959-84.565,5.014-127.784c-6.094-44.299-19.102-84.399-39.346-120.365
	c-12.443-22.104-27.432-41.104-42.023-60.569c-8.143-10.858-15.652-22.417-22.387-34.876
	c-17.816-32.953-23.541-69.634-18.346-109.315c3.801-28.999,14.115-54.335,26.408-78.38c1.852-3.426,3.264-7.209,5.059-10.683
	c24.414-47.25,51.707-91.83,73.789-141.235c11.693-26.245,20.795-53.953,26.803-83.466c2.531-12.428,3.689-25.15,5.277-37.78
	C1169.776,231.533,1168.428,209.718,1164.983,188.013z"/>
</svg>
